<?xml version="1.0" encoding="UTF-8" standalone="no"?>
<!-- Created with Inkscape (http://www.inkscape.org/) -->

<svg
   xmlns:dc="http://purl.org/dc/elements/1.1/"
   xmlns:cc="http://creativecommons.org/ns#"
   xmlns:rdf="http://www.w3.org/1999/02/22-rdf-syntax-ns#"
   xmlns:svg="http://www.w3.org/2000/svg"
   xmlns="http://www.w3.org/2000/svg"
   xmlns:sodipodi="http://sodipodi.sourceforge.net/DTD/sodipodi-0.dtd"
   xmlns:inkscape="http://www.inkscape.org/namespaces/inkscape"
   version="1.1"
   id="svg2"
   xml:space="preserve"
   width="1066"
   height="1066"
   viewBox="0 0 1066 1066"
   sodipodi:docname="56332-O8RHYP-606.svg"
   inkscape:version="0.92.3 (2405546, 2018-03-11)"><metadata
     id="metadata8"><rdf:RDF><cc:Work
         rdf:about=""><dc:format>image/svg+xml</dc:format><dc:type
           rdf:resource="http://purl.org/dc/dcmitype/StillImage" /><dc:title></dc:title></cc:Work></rdf:RDF></metadata><defs
     id="defs6"><clipPath
       clipPathUnits="userSpaceOnUse"
       id="clipPath20"><path
         d="M 0,800 H 800 V 0 H 0 Z"
         id="path18"
         inkscape:connector-curvature="0" /></clipPath><clipPath
       clipPathUnits="userSpaceOnUse"
       id="clipPath152"><path
         d="M 0,800 H 800 V 0 H 0 Z"
         id="path150"
         inkscape:connector-curvature="0" /></clipPath><clipPath
       clipPathUnits="userSpaceOnUse"
       id="clipPath176"><path
         d="M 259.646,435.031 H 370.165 V 294.953 H 259.646 Z"
         id="path174"
         inkscape:connector-curvature="0" /></clipPath><clipPath
       clipPathUnits="userSpaceOnUse"
       id="clipPath280"><path
         d="M 254.856,441.205 H 378.744 V 380.923 H 254.856 Z"
         id="path278"
         inkscape:connector-curvature="0" /></clipPath><clipPath
       clipPathUnits="userSpaceOnUse"
       id="clipPath384"><path
         d="m 82.585,357.975 h 99.258 V 291.443 H 82.585 Z"
         id="path382"
         inkscape:connector-curvature="0" /></clipPath><clipPath
       clipPathUnits="userSpaceOnUse"
       id="clipPath460"><path
         d="M 77.1938,362.512 H 187.475 v -59.03 H 77.1938 Z"
         id="path458"
         inkscape:connector-curvature="0" /></clipPath><clipPath
       clipPathUnits="userSpaceOnUse"
       id="clipPath616"><path
         d="M 477.262,383.233 H 509.03 V 339.759 H 477.262 Z"
         id="path614"
         inkscape:connector-curvature="0" /></clipPath><clipPath
       clipPathUnits="userSpaceOnUse"
       id="clipPath776"><path
         d="m 627.624,435.031 h 97.697 V 294.953 h -97.697 z"
         id="path774"
         inkscape:connector-curvature="0" /></clipPath><clipPath
       clipPathUnits="userSpaceOnUse"
       id="clipPath880"><path
         d="M 623.39,441.205 H 732.905 V 380.923 H 623.39 Z"
         id="path878"
         inkscape:connector-curvature="0" /></clipPath><clipPath
       clipPathUnits="userSpaceOnUse"
       id="clipPath944"><path
         d="M 225.412,689.29 H 547.53 V 603.478 H 225.412 Z"
         id="path942"
         inkscape:connector-curvature="0" /></clipPath><clipPath
       clipPathUnits="userSpaceOnUse"
       id="clipPath1004"><path
         d="M 0,800 H 800 V 0 H 0 Z"
         id="path1002"
         inkscape:connector-curvature="0" /></clipPath><clipPath
       clipPathUnits="userSpaceOnUse"
       id="clipPath1052"><path
         d="m 167.307,252.359 h 461.338 v -85.81 H 167.307 Z"
         id="path1050"
         inkscape:connector-curvature="0" /></clipPath><clipPath
       clipPathUnits="userSpaceOnUse"
       id="clipPath1148"><path
         d="M 0,800 H 800 V 0 H 0 Z"
         id="path1146"
         inkscape:connector-curvature="0" /></clipPath></defs><sodipodi:namedview
     pagecolor="#ffffff"
     bordercolor="#666666"
     borderopacity="1"
     objecttolerance="10"
     gridtolerance="10"
     guidetolerance="10"
     inkscape:pageopacity="0"
     inkscape:pageshadow="2"
     inkscape:window-width="1600"
     inkscape:window-height="847"
     id="namedview4"
     showgrid="false"
     inkscape:pagecheckerboard="true"
     inkscape:zoom="0.42665688"
     inkscape:cx="532.36023"
     inkscape:cy="512.18597"
     inkscape:window-x="-8"
     inkscape:window-y="-8"
     inkscape:window-maximized="1"
     inkscape:current-layer="g10" /><g
     id="g10"
     inkscape:groupmode="layer"
     inkscape:label="56332-O8RHYP-606"
     transform="matrix(1.3333333,0,0,-1.3333333,0,1066)"><g
       id="g2405"
       transform="translate(-0.24997764,-40.25009)"><g
         transform="translate(265.9863,507.751)"
         id="g154"><path
           inkscape:connector-curvature="0"
           id="path156"
           style="fill:#43221d;fill-opacity:1;fill-rule:nonzero;stroke:none"
           d="M 0,0 C 1.074,0.222 2.138,0.173 3.13,-0.088 2.768,0.697 2.48,1.529 2.297,2.412 1.183,7.802 4.035,13.084 8.856,15.248 L -24.229,57.189 -41.521,43.254 C -40.816,42.654 -15.555,10.37 -4.69,-3.529 -3.765,-1.775 -2.093,-0.433 0,0" /></g><g
         transform="translate(243.0464,439.5679)"
         id="g158"><path
           inkscape:connector-curvature="0"
           id="path160"
           style="fill:#ff524f;fill-opacity:1;fill-rule:nonzero;stroke:none"
           d="m 0,0 h 143.415 c 6.522,15.829 7.874,33.909 2.612,51.596 C 133.818,92.64 90.648,116.015 49.605,103.806 8.562,91.596 -14.813,48.427 -2.604,7.384 -1.851,4.854 -0.98,2.392 0,0" /></g><g
         transform="translate(239.8149,488.9087)"
         id="g162"><path
           inkscape:connector-curvature="0"
           id="path164"
           style="fill:#ff7474;fill-opacity:1;fill-rule:nonzero;stroke:none"
           d="M 0,0 C 7.274,0.012 14.668,1.049 21.995,3.229 48.85,11.216 68.124,32.463 74.832,57.693 67.558,57.681 60.164,56.644 52.837,54.465 25.982,46.476 6.708,25.229 0,0" /></g><g
         transform="translate(314.8877,282.1416)"
         id="g166"><path
           inkscape:connector-curvature="0"
           id="path168"
           style="fill:#ffcd7c;fill-opacity:1;fill-rule:nonzero;stroke:none"
           d="m 0,0 v 0 c -4.461,0 -8.501,3.3 -10.305,8.414 l -50.939,144.445 c -1.029,2.921 0.676,6.204 3.222,6.204 H 58.021 c 2.547,0 4.252,-3.283 3.222,-6.204 L 10.305,8.414 C 8.501,3.3 4.46,0 0,0" /></g><g
         id="g170"><g
           id="g172" /><g
           id="g272"><g
             id="g270"
             clip-path="url(#clipPath176)"><g
               id="g180"
               transform="translate(327.6914,353.9854)"><path
                 inkscape:connector-curvature="0"
                 id="path178"
                 style="fill:#ffcd7c;fill-opacity:1;fill-rule:nonzero;stroke:none"
                 d="m 0,0 12.666,-5.16 3.417,9.69 -2.481,1.011 z" /></g><g
               id="g184"
               transform="translate(293.9307,336.0273)"><path
                 inkscape:connector-curvature="0"
                 id="path182"
                 style="fill:#ffcd7c;fill-opacity:1;fill-rule:nonzero;stroke:none"
                 d="m 0,0 2.121,-6.014 6.321,2.576 z" /></g><g
               id="g188"
               transform="translate(305.8296,302.2861)"><path
                 inkscape:connector-curvature="0"
                 id="path186"
                 style="fill:#ffcd7c;fill-opacity:1;fill-rule:nonzero;stroke:none"
                 d="m 0,0 1.476,-4.186 7.727,-3.147 7.388,3.01 1.561,4.426 -8.949,3.646 z" /></g><g
               id="g192"
               transform="translate(333.7593,330.1162)"><path
                 inkscape:connector-curvature="0"
                 id="path190"
                 style="fill:#ffcd7c;fill-opacity:1;fill-rule:nonzero;stroke:none"
                 d="m 0,0 2.036,5.773 -8.104,-3.3 z" /></g><g
               id="g196"
               transform="translate(327.6914,375.3818)"><path
                 inkscape:connector-curvature="0"
                 id="path194"
                 style="fill:#ffcd7c;fill-opacity:1;fill-rule:nonzero;stroke:none"
                 d="m 0,0 13.602,-5.542 7.561,3.081 1.518,4.303 -9.079,3.699 z" /></g><g
               id="g200"
               transform="translate(302.373,375.3818)"><path
                 inkscape:connector-curvature="0"
                 id="path198"
                 style="fill:#ffcd7c;fill-opacity:1;fill-rule:nonzero;stroke:none"
                 d="m 0,0 -13.602,5.541 -9.332,-3.802 1.433,-4.062 7.899,-3.219 z" /></g><g
               id="g204"
               transform="translate(343.75,435.0308)"><path
                 inkscape:connector-curvature="0"
                 id="path202"
                 style="fill:#ffcd7c;fill-opacity:1;fill-rule:nonzero;stroke:none"
                 d="m 0,0 h -4.914 l 2.457,-1.001 z" /></g><g
               id="g208"
               transform="translate(360.1499,404.9512)"><path
                 inkscape:connector-curvature="0"
                 id="path206"
                 style="fill:#ffcd7c;fill-opacity:1;fill-rule:nonzero;stroke:none"
                 d="M 0,0 2.08,5.896 -6.197,2.525 Z" /></g><g
               id="g212"
               transform="translate(291.228,435.0308)"><path
                 inkscape:connector-curvature="0"
                 id="path210"
                 style="fill:#ffcd7c;fill-opacity:1;fill-rule:nonzero;stroke:none"
                 d="m 0,0 h -4.914 l 2.457,-1.001 z" /></g><g
               id="g216"
               transform="translate(263.7627,433.9033)"><path
                 inkscape:connector-curvature="0"
                 id="path214"
                 style="fill:#ffcd7c;fill-opacity:1;fill-rule:nonzero;stroke:none"
                 d="m 0,0 c -0.363,0.147 -0.695,0.358 -0.996,0.615 l -3.12,-1.271 3.417,-9.69 13.048,5.315 z" /></g><g
               id="g220"
               transform="translate(267.4966,410.9858)"><path
                 inkscape:connector-curvature="0"
                 id="path218"
                 style="fill:#ffcd7c;fill-opacity:1;fill-rule:nonzero;stroke:none"
                 d="m 0,0 2.165,-6.138 6.45,2.629 z" /></g><g
               id="g224"
               transform="translate(288.771,359.5264)"><path
                 inkscape:connector-curvature="0"
                 id="path222"
                 style="fill:#ffcd7c;fill-opacity:1;fill-rule:nonzero;stroke:none"
                 d="m 0,0 -2.734,-1.114 3.417,-9.691 12.919,5.264 z" /></g><g
               id="g228"
               transform="translate(327.6914,396.7783)"><path
                 inkscape:connector-curvature="0"
                 id="path226"
                 style="fill:#ffcd7c;fill-opacity:1;fill-rule:nonzero;stroke:none"
                 d="M 0,0 13.602,-5.542 27.204,0 13.602,5.54 Z" /></g><g
               id="g232"
               transform="translate(301.4307,386.0801)"><path
                 inkscape:connector-curvature="0"
                 id="path230"
                 style="fill:#ffcd7c;fill-opacity:1;fill-rule:nonzero;stroke:none"
                 d="M 0,0 13.602,-5.542 27.203,0 13.602,5.541 Z" /></g><g
               id="g236"
               transform="translate(328.6333,428.8726)"><path
                 inkscape:connector-curvature="0"
                 id="path234"
                 style="fill:#ffcd7c;fill-opacity:1;fill-rule:nonzero;stroke:none"
                 d="M 0,0 -13.601,5.541 -27.202,0 -13.601,-5.541 Z" /></g><g
               id="g240"
               transform="translate(367.2974,434.5186)"><path
                 inkscape:connector-curvature="0"
                 id="path238"
                 style="fill:#ffcd7c;fill-opacity:1;fill-rule:nonzero;stroke:none"
                 d="m 0,0 c -0.3,-0.257 -0.632,-0.468 -0.996,-0.615 l -12.348,-5.031 12.794,-5.212 3.418,9.69 z" /></g><g
               id="g244"
               transform="translate(301.4307,364.6836)"><path
                 inkscape:connector-curvature="0"
                 id="path242"
                 style="fill:#ffcd7c;fill-opacity:1;fill-rule:nonzero;stroke:none"
                 d="M 0,0 13.602,-5.541 27.203,0 13.602,5.541 Z" /></g><g
               id="g248"
               transform="translate(327.6919,418.1743)"><path
                 inkscape:connector-curvature="0"
                 id="path246"
                 style="fill:#ffcd7c;fill-opacity:1;fill-rule:nonzero;stroke:none"
                 d="M 0,0 13.602,-5.541 27.203,0 13.602,5.541 Z" /></g><g
               id="g252"
               transform="translate(302.3726,418.1743)"><path
                 inkscape:connector-curvature="0"
                 id="path250"
                 style="fill:#ffcd7c;fill-opacity:1;fill-rule:nonzero;stroke:none"
                 d="M 0,0 -13.602,5.541 -27.203,0 -13.602,-5.541 Z" /></g><g
               id="g256"
               transform="translate(315.0322,401.9355)"><path
                 inkscape:connector-curvature="0"
                 id="path254"
                 style="fill:#ffcd7c;fill-opacity:1;fill-rule:nonzero;stroke:none"
                 d="M 0,0 13.602,5.541 0,11.082 -13.602,5.541 Z" /></g><g
               id="g260"
               transform="translate(288.771,402.3184)"><path
                 inkscape:connector-curvature="0"
                 id="path258"
                 style="fill:#ffcd7c;fill-opacity:1;fill-rule:nonzero;stroke:none"
                 d="M 0,0 -13.602,-5.54 0,-11.082 13.602,-5.54 Z" /></g><g
               id="g264"
               transform="translate(301.4302,343.2871)"><path
                 inkscape:connector-curvature="0"
                 id="path262"
                 style="fill:#ffcd7c;fill-opacity:1;fill-rule:nonzero;stroke:none"
                 d="M 0,0 13.602,-5.541 27.204,0 13.602,5.541 Z" /></g><g
               id="g268"
               transform="translate(301.4307,321.8906)"><path
                 inkscape:connector-curvature="0"
                 id="path266"
                 style="fill:#ffcd7c;fill-opacity:1;fill-rule:nonzero;stroke:none"
                 d="M 0,0 13.602,-5.541 27.203,0 13.602,5.541 Z" /></g></g></g></g><g
         id="g274"><g
           id="g276" /><g
           id="g288"><g
             id="g286"
             clip-path="url(#clipPath280)"><g
               id="g284"
               transform="translate(259.8608,417.3721)"><path
                 inkscape:connector-curvature="0"
                 id="path282"
                 style="fill:#ffe1b1;fill-opacity:1;fill-rule:nonzero;stroke:none"
                 d="M 0,0 97.199,-36.449 118.883,23.833 -4.122,22.196 -5.004,15.486 Z" /></g></g></g></g><g
         transform="translate(377.7612,469.6787)"
         id="g290"><path
           inkscape:connector-curvature="0"
           id="path292"
           style="fill:#ff524f;fill-opacity:1;fill-rule:nonzero;stroke:none"
           d="m 0,0 c -6.083,0 -11.585,-2.478 -15.557,-6.477 -1.009,0.167 -2.043,0.258 -3.099,0.258 -6.962,0 -13.037,-3.784 -16.292,-9.405 -1.325,0.368 -2.72,0.569 -4.163,0.569 -1.546,0 -3.037,-0.229 -4.446,-0.649 -1.945,11.333 -11.813,19.958 -23.701,19.958 -10.375,0 -19.216,-6.567 -22.592,-15.773 -2.472,1.194 -5.244,1.864 -8.173,1.864 -3.09,0 -6.003,-0.749 -8.575,-2.069 C -110.27,-4.754 -117.581,0 -126.006,0 c -12.111,0 -21.929,-9.818 -21.929,-21.929 0,-12.11 9.818,-21.928 21.929,-21.928 4.807,0 9.251,1.552 12.865,4.175 3.43,-4.618 8.924,-7.611 15.118,-7.611 6.643,0 12.478,3.445 15.827,8.644 4.104,-3.257 9.292,-5.208 14.938,-5.208 5.617,0 10.78,1.931 14.875,5.158 2.731,-4.467 7.653,-7.449 13.272,-7.449 4.386,0 8.346,1.82 11.173,4.742 2.739,-1.557 5.906,-2.451 9.282,-2.451 3.241,0 6.291,0.82 8.953,2.263 2.926,-1.447 6.219,-2.263 9.703,-2.263 12.111,0 21.928,9.818 21.928,21.928 C 21.928,-9.818 12.111,0 0,0" /></g><g
         transform="translate(264.1025,512.8809)"
         id="g294"><path
           inkscape:connector-curvature="0"
           id="path296"
           style="fill:#663e33;fill-opacity:1;fill-rule:nonzero;stroke:none"
           d="m 0,0 c 1.096,0 2.128,-0.263 3.048,-0.72 -0.196,0.843 -0.31,1.716 -0.31,2.617 0,5.504 3.862,10.1 9.022,11.242 L -12.148,60.911 -31.904,50.765 c 0.569,-0.73 18.771,-37.46 26.596,-53.271 C -4.047,-0.976 -2.138,0 0,0" /></g><g
         transform="translate(234.1582,559.8833)"
         id="g298"><path
           inkscape:connector-curvature="0"
           id="path300"
           style="fill:#996e62;fill-opacity:1;fill-rule:nonzero;stroke:none"
           d="M 0,0 19.873,9.76 17.796,13.908 -1.959,3.763 Z" /></g><g
         transform="translate(340.52,542.9097)"
         id="g302"><path
           inkscape:connector-curvature="0"
           id="path304"
           style="fill:#ffe1b1;fill-opacity:1;fill-rule:nonzero;stroke:none"
           d="m 0,0 c 0,-2.034 -2.344,-3.682 -5.236,-3.682 -2.892,0 -5.237,1.648 -5.237,3.682 0,2.033 2.345,3.682 5.237,3.682 C -2.344,3.682 0,2.033 0,0" /></g><g
         transform="translate(399.6895,453.0952)"
         id="g306"><path
           inkscape:connector-curvature="0"
           id="path308"
           style="fill:#ffe1b1;fill-opacity:1;fill-rule:nonzero;stroke:none"
           d="m 0,0 c 0,-2.034 -2.344,-3.682 -5.236,-3.682 -2.893,0 -5.237,1.648 -5.237,3.682 0,2.034 2.344,3.682 5.237,3.682 C -2.344,3.682 0,2.034 0,0" /></g><g
         transform="translate(254.8906,461.5781)"
         id="g310"><path
           inkscape:connector-curvature="0"
           id="path312"
           style="fill:#ffe1b1;fill-opacity:1;fill-rule:nonzero;stroke:none"
           d="m 0,0 c 0,-2.033 -2.345,-3.682 -5.237,-3.682 -2.892,0 -5.236,1.649 -5.236,3.682 0,2.034 2.344,3.682 5.236,3.682 C -2.345,3.682 0,2.034 0,0" /></g><g
         transform="translate(291,535.8882)"
         id="g314"><path
           inkscape:connector-curvature="0"
           id="path316"
           style="fill:#ffe1b1;fill-opacity:1;fill-rule:nonzero;stroke:none"
           d="m 0,0 c 1.15,-1.677 0.148,-4.362 -2.237,-5.998 -2.385,-1.635 -5.251,-1.601 -6.401,0.076 -1.15,1.677 -0.148,4.362 2.237,5.998 C -4.016,1.711 -1.149,1.677 0,0" /></g><g
         transform="translate(336.8208,447.1641)"
         id="g318"><path
           inkscape:connector-curvature="0"
           id="path320"
           style="fill:#ffe1b1;fill-opacity:1;fill-rule:nonzero;stroke:none"
           d="M 0,0 C 1.15,-1.677 0.148,-4.363 -2.237,-5.998 -4.623,-7.633 -7.488,-7.6 -8.638,-5.922 -9.788,-4.245 -8.787,-1.56 -6.401,0.076 -4.016,1.711 -1.15,1.677 0,0" /></g><g
         transform="translate(241.4395,494.7451)"
         id="g322"><path
           inkscape:connector-curvature="0"
           id="path324"
           style="fill:#ffe1b1;fill-opacity:1;fill-rule:nonzero;stroke:none"
           d="m 0,0 c 2.013,-0.288 3.313,-2.843 2.902,-5.706 -0.41,-2.862 -2.374,-4.95 -4.387,-4.661 -2.013,0.288 -3.312,2.843 -2.902,5.705 C -3.977,-1.799 -2.013,0.288 0,0" /></g><g
         transform="translate(378.0825,479.1172)"
         id="g326"><path
           inkscape:connector-curvature="0"
           id="path328"
           style="fill:#ffe1b1;fill-opacity:1;fill-rule:nonzero;stroke:none"
           d="m 0,0 c 2.013,-0.289 3.313,-2.843 2.902,-5.706 -0.409,-2.863 -2.374,-4.95 -4.387,-4.662 -2.013,0.289 -3.312,2.843 -2.902,5.706 C -3.977,-1.799 -2.013,0.288 0,0" /></g><g
         transform="translate(260.0405,444.1875)"
         id="g330"><path
           inkscape:connector-curvature="0"
           id="path332"
           style="fill:#ffe1b1;fill-opacity:1;fill-rule:nonzero;stroke:none"
           d="M 0,0 C 1.168,-0.167 1.922,-1.65 1.684,-3.311 1.446,-4.972 0.307,-6.184 -0.862,-6.016 -2.03,-5.849 -2.784,-4.367 -2.546,-2.705 -2.308,-1.044 -1.168,0.167 0,0" /></g><g
         transform="translate(263.9111,507.4834)"
         id="g334"><path
           inkscape:connector-curvature="0"
           id="path336"
           style="fill:#ffe1b1;fill-opacity:1;fill-rule:nonzero;stroke:none"
           d="m 0,0 c 0.837,-0.832 0.556,-2.472 -0.627,-3.662 -1.184,-1.19 -2.821,-1.481 -3.658,-0.649 -0.837,0.832 -0.556,2.472 0.627,3.662 C -2.475,0.541 -0.837,0.832 0,0" /></g><g
         transform="translate(320.2983,535.6221)"
         id="g338"><path
           inkscape:connector-curvature="0"
           id="path340"
           style="fill:#ffe1b1;fill-opacity:1;fill-rule:nonzero;stroke:none"
           d="m 0,0 c -0.498,-1.07 -2.135,-1.363 -3.656,-0.655 -1.522,0.708 -2.352,2.149 -1.854,3.219 0.498,1.07 2.135,1.363 3.656,0.655 C -0.332,2.511 0.498,1.07 0,0" /></g><g
         transform="translate(351.2676,525.7002)"
         id="g342"><path
           inkscape:connector-curvature="0"
           id="path344"
           style="fill:#ffe1b1;fill-opacity:1;fill-rule:nonzero;stroke:none"
           d="M 0,0 C 0.415,-1.105 -0.522,-2.479 -2.093,-3.069 -3.664,-3.66 -5.274,-3.243 -5.689,-2.138 -6.104,-1.034 -5.167,0.34 -3.596,0.931 -2.025,1.521 -0.416,1.104 0,0" /></g><g
         transform="translate(374.3975,499.4253)"
         id="g346"><path
           inkscape:connector-curvature="0"
           id="path348"
           style="fill:#ffe1b1;fill-opacity:1;fill-rule:nonzero;stroke:none"
           d="M 0,0 C 0.939,0.715 2.524,0.211 3.541,-1.124 4.557,-2.459 4.62,-4.122 3.681,-4.836 2.742,-5.551 1.157,-5.047 0.141,-3.712 -0.876,-2.376 -0.939,-0.715 0,0" /></g><g
         transform="translate(365.5718,443.6226)"
         id="g350"><path
           inkscape:connector-curvature="0"
           id="path352"
           style="fill:#ffe1b1;fill-opacity:1;fill-rule:nonzero;stroke:none"
           d="M 0,0 C 0.939,0.715 2.524,0.211 3.541,-1.124 4.557,-2.459 4.62,-4.122 3.681,-4.836 2.742,-5.551 1.157,-5.048 0.14,-3.712 -0.876,-2.377 -0.939,-0.715 0,0" /></g><g
         transform="translate(299.9697,491.0752)"
         id="g354"><path
           inkscape:connector-curvature="0"
           id="path356"
           style="fill:#43221d;fill-opacity:1;fill-rule:nonzero;stroke:none"
           d="m 0,0 c 0,-4.745 -3.846,-8.591 -8.591,-8.591 -4.745,0 -8.592,3.846 -8.592,8.591 0,4.745 3.847,8.591 8.592,8.591 C -3.846,8.591 0,4.745 0,0" /></g><g
         transform="translate(291.3784,494.3232)"
         id="g358"><path
           inkscape:connector-curvature="0"
           id="path360"
           style="fill:#ffffff;fill-opacity:1;fill-rule:nonzero;stroke:none"
           d="m 0,0 c 0,-1.794 -1.454,-3.248 -3.248,-3.248 -1.794,0 -3.248,1.454 -3.248,3.248 0,1.794 1.454,3.248 3.248,3.248 C -1.454,3.248 0,1.794 0,0" /></g><g
         transform="translate(346.7285,491.0752)"
         id="g362"><path
           inkscape:connector-curvature="0"
           id="path364"
           style="fill:#43221d;fill-opacity:1;fill-rule:nonzero;stroke:none"
           d="m 0,0 c 0,-4.745 -3.846,-8.591 -8.591,-8.591 -4.745,0 -8.592,3.846 -8.592,8.591 0,4.745 3.847,8.591 8.592,8.591 C -3.846,8.591 0,4.745 0,0" /></g><g
         transform="translate(338.1372,494.3232)"
         id="g366"><path
           inkscape:connector-curvature="0"
           id="path368"
           style="fill:#ffffff;fill-opacity:1;fill-rule:nonzero;stroke:none"
           d="m 0,0 c 0,-1.794 -1.454,-3.248 -3.248,-3.248 -1.794,0 -3.248,1.454 -3.248,3.248 0,1.794 1.454,3.248 3.248,3.248 C -1.454,3.248 0,1.794 0,0" /></g><g
         transform="translate(307.7212,478.9653)"
         id="g370"><path
           inkscape:connector-curvature="0"
           id="path372"
           style="fill:none;stroke:#43221d;stroke-width:3.72099996;stroke-linecap:round;stroke-linejoin:miter;stroke-miterlimit:10;stroke-dasharray:none;stroke-opacity:1"
           d="M 0,0 C 0,0 6.546,-10.473 13.583,0" /></g><g
         transform="translate(105.5078,282.1416)"
         id="g374"><path
           inkscape:connector-curvature="0"
           id="path376"
           style="fill:#ffcd7c;fill-opacity:1;fill-rule:nonzero;stroke:none"
           d="m 0,0 h 53.379 c 4.312,0 8.121,3.128 9.395,7.714 l 18.919,68.09 c 0.925,2.92 -0.607,6.203 -2.894,6.203 H -25.42 c -2.287,0 -3.819,-3.283 -2.894,-6.203 L -9.395,7.714 C -8.12,3.128 -4.312,0 0,0" /></g><g
         id="g378"><g
           id="g380" /><g
           id="g452"><g
             id="g450"
             clip-path="url(#clipPath384)"><g
               id="g388"
               transform="translate(143.6973,298.3252)"><path
                 inkscape:connector-curvature="0"
                 id="path386"
                 style="fill:#ffcd7c;fill-opacity:1;fill-rule:nonzero;stroke:none"
                 d="m 0,0 12.215,-5.541 6.791,3.08 1.363,4.304 -8.153,3.698 z" /></g><g
               id="g392"
               transform="translate(120.958,298.3252)"><path
                 inkscape:connector-curvature="0"
                 id="path390"
                 style="fill:#ffcd7c;fill-opacity:1;fill-rule:nonzero;stroke:none"
                 d="m 0,0 -12.216,5.541 -8.381,-3.802 1.286,-4.062 7.095,-3.218 z" /></g><g
               id="g396"
               transform="translate(158.1191,357.9746)"><path
                 inkscape:connector-curvature="0"
                 id="path394"
                 style="fill:#ffcd7c;fill-opacity:1;fill-rule:nonzero;stroke:none"
                 d="m 0,0 h -4.413 l 2.206,-1.001 z" /></g><g
               id="g400"
               transform="translate(172.8481,327.8955)"><path
                 inkscape:connector-curvature="0"
                 id="path398"
                 style="fill:#ffcd7c;fill-opacity:1;fill-rule:nonzero;stroke:none"
                 d="M 0,0 1.868,5.896 -5.565,2.524 Z" /></g><g
               id="g404"
               transform="translate(110.9487,357.9746)"><path
                 inkscape:connector-curvature="0"
                 id="path402"
                 style="fill:#ffcd7c;fill-opacity:1;fill-rule:nonzero;stroke:none"
                 d="m 0,0 h -4.413 l 2.206,-1.001 z" /></g><g
               id="g408"
               transform="translate(86.2817,356.8467)"><path
                 inkscape:connector-curvature="0"
                 id="path406"
                 style="fill:#ffcd7c;fill-opacity:1;fill-rule:nonzero;stroke:none"
                 d="m 0,0 c -0.326,0.148 -0.625,0.359 -0.894,0.615 l -2.803,-1.271 3.069,-9.69 11.719,5.316 z" /></g><g
               id="g412"
               transform="translate(89.6353,333.9297)"><path
                 inkscape:connector-curvature="0"
                 id="path410"
                 style="fill:#ffcd7c;fill-opacity:1;fill-rule:nonzero;stroke:none"
                 d="M 0,0 1.944,-6.138 7.737,-3.51 Z" /></g><g
               id="g416"
               transform="translate(143.6968,319.7217)"><path
                 inkscape:connector-curvature="0"
                 id="path414"
                 style="fill:#ffcd7c;fill-opacity:1;fill-rule:nonzero;stroke:none"
                 d="M 0,0 12.216,-5.541 24.432,0 12.216,5.541 Z" /></g><g
               id="g420"
               transform="translate(120.1118,309.0234)"><path
                 inkscape:connector-curvature="0"
                 id="path418"
                 style="fill:#ffcd7c;fill-opacity:1;fill-rule:nonzero;stroke:none"
                 d="M 0,0 12.216,-5.541 24.432,0 12.216,5.541 Z" /></g><g
               id="g424"
               transform="translate(144.543,351.8164)"><path
                 inkscape:connector-curvature="0"
                 id="path422"
                 style="fill:#ffcd7c;fill-opacity:1;fill-rule:nonzero;stroke:none"
                 d="M 0,0 -12.215,5.541 -24.431,0 -12.215,-5.541 Z" /></g><g
               id="g428"
               transform="translate(179.2671,357.4619)"><path
                 inkscape:connector-curvature="0"
                 id="path426"
                 style="fill:#ffcd7c;fill-opacity:1;fill-rule:nonzero;stroke:none"
                 d="m 0,0 c -0.27,-0.256 -0.568,-0.467 -0.894,-0.615 l -11.09,-5.031 11.491,-5.211 3.069,9.689 z" /></g><g
               id="g432"
               transform="translate(136.1299,291.4434)"><path
                 inkscape:connector-curvature="0"
                 id="path430"
                 style="fill:#ffcd7c;fill-opacity:1;fill-rule:nonzero;stroke:none"
                 d="M 0,0 -3.802,1.725 -7.604,0 Z" /></g><g
               id="g436"
               transform="translate(143.6973,341.1182)"><path
                 inkscape:connector-curvature="0"
                 id="path434"
                 style="fill:#ffcd7c;fill-opacity:1;fill-rule:nonzero;stroke:none"
                 d="M 0,0 12.216,-5.541 24.431,0 12.216,5.541 Z" /></g><g
               id="g440"
               transform="translate(120.958,341.1182)"><path
                 inkscape:connector-curvature="0"
                 id="path438"
                 style="fill:#ffcd7c;fill-opacity:1;fill-rule:nonzero;stroke:none"
                 d="M 0,0 -12.216,5.541 -24.432,0 -12.216,-5.541 Z" /></g><g
               id="g444"
               transform="translate(132.3276,324.8789)"><path
                 inkscape:connector-curvature="0"
                 id="path442"
                 style="fill:#ffcd7c;fill-opacity:1;fill-rule:nonzero;stroke:none"
                 d="M 0,0 12.216,5.541 0,11.082 -12.216,5.541 Z" /></g><g
               id="g448"
               transform="translate(108.7422,325.2627)"><path
                 inkscape:connector-curvature="0"
                 id="path446"
                 style="fill:#ffcd7c;fill-opacity:1;fill-rule:nonzero;stroke:none"
                 d="M 0,0 -12.216,-5.541 0,-11.082 12.216,-5.541 Z" /></g></g></g></g><g
         id="g454"><g
           id="g456" /><g
           id="g468"><g
             id="g466"
             clip-path="url(#clipPath460)"><g
               id="g464"
               transform="translate(82.1606,340.0703)"><path
                 inkscape:connector-curvature="0"
                 id="path462"
                 style="fill:#ffe1b1;fill-opacity:1;fill-rule:nonzero;stroke:none"
                 d="M 0,0 89.908,-36.588 105.314,18.81 -3.084,22.441 -4.967,17.875 Z" /></g></g></g></g><g
         transform="translate(186.2427,346.501)"
         id="g470"><path
           inkscape:connector-curvature="0"
           id="path472"
           style="fill:#ffcd7c;fill-opacity:1;fill-rule:nonzero;stroke:none"
           d="m 0,0 h -108.09 c -1.659,0 -3.078,1.054 -3.366,2.5 l -3.581,17.952 c -0.37,1.854 1.241,3.554 3.366,3.554 H 3.581 c 2.125,0 3.735,-1.7 3.365,-3.554 L 3.366,2.5 C 3.078,1.054 1.658,0 0,0" /></g><g
         transform="translate(191.1909,367.8955)"
         id="g474"><path
           inkscape:connector-curvature="0"
           id="path476"
           style="fill:#bae2a3;fill-opacity:1;fill-rule:nonzero;stroke:none"
           d="m 0,0 h -117.707 c -5.352,12.991 -6.461,27.83 -2.143,42.347 10.02,33.686 45.451,52.871 79.137,42.85 C -7.027,75.177 12.158,39.746 2.137,6.06 1.52,3.983 0.805,1.963 0,0" /></g><g
         transform="translate(176.0713,438.3149)"
         id="g478"><path
           inkscape:connector-curvature="0"
           id="path480"
           style="fill:#8dd7a6;fill-opacity:1;fill-rule:nonzero;stroke:none"
           d="m 0,0 c -7.028,6.663 -15.676,11.828 -25.593,14.778 -25.615,7.619 -52.225,-1.659 -67.919,-21.347 -4.946,-6.204 -8.818,-13.431 -11.218,-21.503 -1.155,-3.88 -1.909,-7.782 -2.311,-11.667 2.784,-1.435 5.969,-2.179 9.322,-1.974 2.854,0.174 5.511,1.007 7.835,2.338 2.254,-1.048 4.793,-1.567 7.448,-1.405 2.766,0.169 5.315,1.06 7.482,2.473 2.461,-2.252 5.796,-3.545 9.39,-3.325 4.603,0.281 8.486,2.969 10.5,6.766 3.515,-2.439 7.842,-3.761 12.443,-3.48 4.626,0.282 8.778,2.139 11.977,5.013 3.004,-4.091 7.957,-6.622 13.399,-6.289 5.074,0.311 9.425,3.038 12.003,6.993 3.093,-1.969 6.81,-3.018 10.749,-2.777 4.855,0.297 9.134,2.5 12.176,5.827 C 14.623,-18.324 8.505,-8.062 0,0" /></g><g
         transform="translate(80.625,392.6084)"
         id="g482"><path
           inkscape:connector-curvature="0"
           id="path484"
           style="fill:#bae2a3;fill-opacity:1;fill-rule:nonzero;stroke:none"
           d="m 0,0 c 4.992,0 9.508,-2.033 12.769,-5.315 0.827,0.136 1.676,0.211 2.543,0.211 5.714,0 10.7,-3.106 13.372,-7.719 1.087,0.302 2.232,0.467 3.416,0.467 1.269,0 2.493,-0.188 3.649,-0.533 1.597,9.302 9.695,16.381 19.453,16.381 8.515,0 15.771,-5.39 18.541,-12.945 2.029,0.979 4.305,1.529 6.709,1.529 2.535,0 4.926,-0.615 7.037,-1.698 3.014,5.721 9.015,9.622 15.93,9.622 9.939,0 17.997,-8.058 17.997,-17.997 0,-9.94 -8.058,-17.998 -17.997,-17.998 -3.946,0 -7.593,1.273 -10.56,3.427 -2.814,-3.79 -7.323,-6.247 -12.407,-6.247 -5.453,0 -10.242,2.828 -12.991,7.094 -3.368,-2.674 -7.626,-4.274 -12.259,-4.274 -4.611,0 -8.848,1.585 -12.209,4.233 -2.242,-3.666 -6.281,-6.113 -10.893,-6.113 -3.6,0 -6.85,1.493 -9.17,3.892 -2.248,-1.279 -4.847,-2.012 -7.618,-2.012 -2.661,0 -5.164,0.673 -7.349,1.857 C 5.562,-35.325 2.86,-35.995 0,-35.995 c -9.939,0 -17.997,8.058 -17.997,17.998 C -17.997,-8.058 -9.939,0 0,0" /></g><g
         transform="translate(72.4575,380.9785)"
         id="g486"><path
           inkscape:connector-curvature="0"
           id="path488"
           style="fill:#55312a;fill-opacity:1;fill-rule:nonzero;stroke:none"
           d="M 0,0 C 1.168,-0.167 1.922,-1.649 1.684,-3.312 1.446,-4.973 0.306,-6.184 -0.862,-6.017 -2.03,-5.849 -2.784,-4.366 -2.546,-2.705 -2.308,-1.044 -1.168,0.167 0,0" /></g><g
         transform="translate(178.3682,400.5967)"
         id="g490"><path
           inkscape:connector-curvature="0"
           id="path492"
           style="fill:#55312a;fill-opacity:1;fill-rule:nonzero;stroke:none"
           d="M 0,0 C 1.386,-0.198 2.28,-1.957 1.998,-3.928 1.715,-5.897 0.363,-7.335 -1.022,-7.136 -2.408,-6.937 -3.302,-5.179 -3.02,-3.209 -2.737,-1.238 -1.385,0.198 0,0" /></g><g
         transform="translate(114.6685,427.4912)"
         id="g494"><path
           inkscape:connector-curvature="0"
           id="path496"
           style="fill:#55312a;fill-opacity:1;fill-rule:nonzero;stroke:none"
           d="M 0,0 C 1.386,-0.198 2.28,-1.957 1.998,-3.927 1.715,-5.898 0.363,-7.334 -1.022,-7.136 -2.408,-6.937 -3.302,-5.179 -3.02,-3.208 -2.738,-1.238 -1.386,0.198 0,0" /></g><g
         transform="translate(190.1958,382.3467)"
         id="g498"><path
           inkscape:connector-curvature="0"
           id="path500"
           style="fill:#55312a;fill-opacity:1;fill-rule:nonzero;stroke:none"
           d="m 0,0 c 0.525,-1.057 -0.267,-2.519 -1.77,-3.266 -1.502,-0.748 -3.147,-0.497 -3.672,0.56 -0.525,1.057 0.267,2.519 1.77,3.267 C -2.17,1.308 -0.525,1.057 0,0" /></g><g
         transform="translate(187.3125,421.6899)"
         id="g502"><path
           inkscape:connector-curvature="0"
           id="path504"
           style="fill:#55312a;fill-opacity:1;fill-rule:nonzero;stroke:none"
           d="m 0,0 c 0.525,-1.057 -0.267,-2.519 -1.77,-3.266 -1.502,-0.748 -3.147,-0.497 -3.672,0.56 -0.525,1.057 0.267,2.519 1.77,3.266 C -2.169,1.307 -0.525,1.057 0,0" /></g><g
         transform="translate(132.165,392.4521)"
         id="g506"><path
           inkscape:connector-curvature="0"
           id="path508"
           style="fill:#55312a;fill-opacity:1;fill-rule:nonzero;stroke:none"
           d="m 0,0 c 0.526,-1.057 -0.267,-2.52 -1.77,-3.267 -1.502,-0.747 -3.146,-0.496 -3.671,0.561 -0.526,1.057 0.266,2.519 1.769,3.266 C -2.169,1.308 -0.525,1.057 0,0" /></g><g
         transform="translate(136.813,445.2393)"
         id="g510"><path
           inkscape:connector-curvature="0"
           id="path512"
           style="fill:#55312a;fill-opacity:1;fill-rule:nonzero;stroke:none"
           d="m 0,0 c 0.525,-1.057 -0.267,-2.519 -1.77,-3.266 -1.502,-0.748 -3.147,-0.497 -3.672,0.56 -0.525,1.057 0.267,2.519 1.77,3.266 C -2.169,1.307 -0.525,1.057 0,0" /></g><g
         transform="translate(97.21,384.6904)"
         id="g514"><path
           inkscape:connector-curvature="0"
           id="path516"
           style="fill:#55312a;fill-opacity:1;fill-rule:nonzero;stroke:none"
           d="m 0,0 c 0.525,-1.057 -0.267,-2.519 -1.77,-3.267 -1.502,-0.747 -3.147,-0.496 -3.672,0.561 -0.525,1.057 0.267,2.519 1.77,3.267 C -2.169,1.308 -0.525,1.057 0,0" /></g><g
         transform="translate(156.4277,398.3818)"
         id="g518"><path
           inkscape:connector-curvature="0"
           id="path520"
           style="fill:#55312a;fill-opacity:1;fill-rule:nonzero;stroke:none"
           d="m 0,0 c 0.525,-1.057 -0.267,-2.519 -1.77,-3.267 -1.502,-0.747 -3.147,-0.496 -3.672,0.561 -0.526,1.057 0.267,2.519 1.769,3.266 C -2.17,1.308 -0.526,1.057 0,0" /></g><g
         transform="translate(84.2163,426.519)"
         id="g522"><path
           inkscape:connector-curvature="0"
           id="path524"
           style="fill:#55312a;fill-opacity:1;fill-rule:nonzero;stroke:none"
           d="m 0,0 c 0.525,-1.057 -0.267,-2.519 -1.77,-3.266 -1.502,-0.748 -3.147,-0.497 -3.672,0.56 -0.525,1.057 0.267,2.519 1.77,3.266 C -2.17,1.307 -0.526,1.057 0,0" /></g><g
         transform="translate(84.1362,398.5752)"
         id="g526"><path
           inkscape:connector-curvature="0"
           id="path528"
           style="fill:#55312a;fill-opacity:1;fill-rule:nonzero;stroke:none"
           d="m 0,0 c 0.784,-1.576 -0.398,-3.758 -2.64,-4.873 -2.241,-1.114 -4.694,-0.74 -5.478,0.836 -0.784,1.576 0.398,3.758 2.64,4.872 C -3.236,1.95 -0.784,1.575 0,0" /></g><g
         transform="translate(164.2729,433.0239)"
         id="g530"><path
           inkscape:connector-curvature="0"
           id="path532"
           style="fill:#55312a;fill-opacity:1;fill-rule:nonzero;stroke:none"
           d="m 0,0 c 0.784,-1.576 -0.398,-3.758 -2.64,-4.873 -2.241,-1.114 -4.694,-0.74 -5.478,0.836 -0.784,1.576 0.398,3.758 2.64,4.872 C -3.236,1.95 -0.784,1.576 0,0" /></g><g
         transform="translate(153.1045,372.4053)"
         id="g534"><path
           inkscape:connector-curvature="0"
           id="path536"
           style="fill:#55312a;fill-opacity:1;fill-rule:nonzero;stroke:none"
           d="m 0,0 c -0.987,-0.647 -2.533,-0.033 -3.453,1.37 -0.92,1.404 -0.865,3.067 0.122,3.713 0.987,0.647 2.533,0.033 3.453,-1.37 C 1.042,2.309 0.987,0.646 0,0" /></g><g
         transform="translate(118.3457,370.7715)"
         id="g538"><path
           inkscape:connector-curvature="0"
           id="path540"
           style="fill:#55312a;fill-opacity:1;fill-rule:nonzero;stroke:none"
           d="m 0,0 c -1.621,-1.062 -4.161,-0.055 -5.672,2.252 -1.511,2.306 -1.421,5.036 0.2,6.099 C -3.851,9.413 -1.311,8.405 0.2,6.1 1.711,3.793 1.622,1.062 0,0" /></g><g
         transform="translate(101.2383,436.3477)"
         id="g542"><path
           inkscape:connector-curvature="0"
           id="path544"
           style="fill:#55312a;fill-opacity:1;fill-rule:nonzero;stroke:none"
           d="m 0,0 c -1.622,-1.062 -4.161,-0.055 -5.672,2.251 -1.511,2.307 -1.421,5.037 0.2,6.1 C -3.851,9.413 -1.311,8.405 0.2,6.099 1.711,3.793 1.622,1.062 0,0" /></g><g
         transform="translate(187.6821,422.1504)"
         id="g546"><path
           inkscape:connector-curvature="0"
           id="path548"
           style="fill:#ff90b4;fill-opacity:1;fill-rule:nonzero;stroke:none"
           d="m 0,0 -117.488,-7.179 c -6.135,12.641 -8.147,27.384 -4.722,42.137 7.947,34.234 42.142,55.544 76.377,47.597 C -11.6,74.608 9.71,40.413 1.763,6.179 1.273,4.068 0.683,2.008 0,0" /></g><g
         transform="translate(75.8145,440.0737)"
         id="g550"><path
           inkscape:connector-curvature="0"
           id="path552"
           style="fill:#ff90b4;fill-opacity:1;fill-rule:nonzero;stroke:none"
           d="m 0,0 c 4.983,0.304 9.615,-1.45 13.069,-4.527 0.818,0.187 1.66,0.314 2.525,0.366 5.704,0.349 10.87,-2.447 13.818,-6.889 1.067,0.368 2.2,0.602 3.382,0.674 1.266,0.078 2.499,-0.035 3.675,-0.309 1.026,9.382 8.678,16.942 18.417,17.537 8.499,0.52 16.07,-4.418 19.297,-11.79 1.965,1.102 4.203,1.789 6.602,1.935 2.531,0.155 4.955,-0.313 7.128,-1.265 2.66,5.893 8.411,10.154 15.313,10.576 9.921,0.606 18.456,-6.946 19.062,-16.867 0.606,-9.921 -6.945,-18.455 -16.867,-19.062 -3.938,-0.24 -7.656,0.809 -10.748,2.777 -2.578,-3.955 -6.929,-6.683 -12.004,-6.992 -5.442,-0.333 -10.395,2.198 -13.398,6.289 -3.199,-2.874 -7.352,-4.732 -11.977,-5.014 -4.602,-0.281 -8.928,1.042 -12.443,3.48 -2.015,-3.795 -5.897,-6.485 -10.5,-6.766 -3.594,-0.219 -6.929,1.073 -9.391,3.326 -2.167,-1.414 -4.715,-2.305 -7.481,-2.473 -2.656,-0.162 -5.195,0.356 -7.448,1.405 -2.324,-1.33 -4.981,-2.164 -7.836,-2.339 -9.921,-0.607 -18.455,6.945 -19.061,16.866 C -17.473,-9.141 -9.921,-0.606 0,0" /></g><g
         transform="translate(190.2451,453.1182)"
         id="g554"><path
           inkscape:connector-curvature="0"
           id="path556"
           style="fill:#ff6295;fill-opacity:1;fill-rule:nonzero;stroke:none"
           d="M 0,0 C -0.07,0.425 -0.15,0.849 -0.229,1.271 -0.316,1.735 -0.409,2.198 -0.505,2.659 -0.592,3.07 -0.676,3.481 -0.77,3.89 -0.943,4.638 -1.129,5.382 -1.329,6.122 -1.435,6.513 -1.55,6.9 -1.663,7.289 -1.8,7.762 -1.942,8.234 -2.09,8.704 c -0.122,0.385 -0.243,0.771 -0.372,1.154 -0.248,0.738 -0.508,1.471 -0.783,2.198 -0.128,0.34 -0.267,0.675 -0.401,1.013 -0.196,0.493 -0.396,0.983 -0.604,1.471 -0.152,0.354 -0.304,0.707 -0.461,1.058 -0.289,0.646 -0.589,1.287 -0.9,1.923 -0.171,0.35 -0.349,0.696 -0.527,1.042 -0.267,0.522 -0.539,1.041 -0.82,1.555 -0.176,0.321 -0.354,0.641 -0.535,0.959 -0.32,0.564 -0.651,1.122 -0.989,1.675 -0.197,0.323 -0.396,0.644 -0.599,0.962 -0.359,0.566 -0.727,1.127 -1.104,1.682 -0.197,0.29 -0.398,0.578 -0.599,0.864 -0.357,0.506 -0.721,1.005 -1.091,1.5 -0.164,0.219 -0.322,0.44 -0.488,0.657 h -0.001 c -8.658,11.26 -21.117,19.708 -36.032,23.17 -21.785,5.058 -43.542,-1.745 -58.541,-16.172 0,0 -0.001,-10e-4 -0.001,-0.002 -0.865,-0.831 -1.706,-1.689 -2.524,-2.57 -0.05,-0.054 -0.1,-0.107 -0.15,-0.161 -1.212,-1.315 -2.37,-2.682 -3.472,-4.103 -0.107,-0.138 -0.213,-0.277 -0.319,-0.416 -0.591,-0.774 -1.164,-1.564 -1.721,-2.369 -0.137,-0.198 -0.275,-0.395 -0.41,-0.595 -0.303,-0.448 -0.602,-0.898 -0.893,-1.354 -0.177,-0.277 -0.346,-0.558 -0.519,-0.838 -0.419,-0.679 -0.827,-1.367 -1.222,-2.065 -0.189,-0.334 -0.375,-0.671 -0.559,-1.01 -0.319,-0.59 -0.63,-1.186 -0.932,-1.789 -0.22,-0.439 -0.438,-0.879 -0.648,-1.324 -0.189,-0.402 -0.375,-0.805 -0.557,-1.212 -0.262,-0.588 -0.517,-1.182 -0.763,-1.781 -0.184,-0.448 -0.36,-0.9 -0.534,-1.354 -0.183,-0.475 -0.36,-0.954 -0.531,-1.436 -0.136,-0.378 -0.273,-0.755 -0.402,-1.138 2.738,-4.84 7.768,-8.263 13.73,-8.68 2.718,-0.19 5.33,0.267 7.69,1.236 1.998,-1.27 4.331,-2.076 6.859,-2.253 2.633,-0.183 5.15,0.341 7.372,1.406 2.045,-2.433 5.034,-4.068 8.455,-4.307 4.382,-0.306 8.383,1.75 10.756,5.085 3.017,-2.739 6.938,-4.527 11.318,-4.833 4.404,-0.307 8.556,0.93 11.934,3.247 2.328,-4.237 6.69,-7.242 11.871,-7.604 4.831,-0.338 9.278,1.698 12.204,5.112 2.676,-2.243 6.056,-3.695 9.805,-3.957 4.264,-0.298 8.264,1 11.438,3.371 C 0.24,-1.516 0.125,-0.756 0,0" /></g><g
         transform="translate(186.9678,467.2646)"
         id="g558"><path
           inkscape:connector-curvature="0"
           id="path560"
           style="fill:#55312a;fill-opacity:1;fill-rule:nonzero;stroke:none"
           d="m 0,0 -111.84,7.817 c -4.223,12.7 -4.292,26.872 0.775,40.379 11.758,31.342 46.698,47.217 78.039,35.459 C -1.684,71.896 14.191,36.957 2.433,5.616 1.708,3.684 0.895,1.811 0,0" /></g><g
         transform="translate(92.1738,503.6763)"
         id="g562"><path
           inkscape:connector-curvature="0"
           id="path564"
           style="fill:#663e33;fill-opacity:1;fill-rule:nonzero;stroke:none"
           d="M 0,0 C 29.713,-1.136 55.229,19.322 61.459,47.35 30.197,58.89 -4.551,43.023 -16.271,11.784 -17.273,9.112 -18.067,6.413 -18.675,3.705 -12.832,1.549 -6.561,0.25 0,0" /></g><g
         transform="translate(83.5537,498.0889)"
         id="g566"><path
           inkscape:connector-curvature="0"
           id="path568"
           style="fill:#55312a;fill-opacity:1;fill-rule:nonzero;stroke:none"
           d="m 0,0 c 4.743,-0.332 8.899,-2.563 11.779,-5.899 0.795,0.075 1.607,0.09 2.43,0.033 5.43,-0.38 9.961,-3.662 12.193,-8.223 1.054,0.214 2.153,0.295 3.277,0.216 1.206,-0.084 2.356,-0.343 3.432,-0.748 2.135,8.732 10.3,14.921 19.571,14.273 8.091,-0.566 14.627,-6.17 16.758,-13.532 1.993,0.796 4.191,1.167 6.476,1.007 2.409,-0.168 4.64,-0.911 6.573,-2.08 3.244,5.235 9.205,8.544 15.775,8.084 9.444,-0.66 16.566,-8.851 15.905,-18.295 -0.66,-9.445 -8.851,-16.565 -18.295,-15.905 -3.75,0.261 -7.13,1.714 -9.806,3.957 -2.926,-3.415 -7.374,-5.45 -12.204,-5.112 -5.181,0.362 -9.543,3.367 -11.872,7.603 -3.378,-2.316 -7.53,-3.554 -11.932,-3.246 -4.381,0.306 -8.303,2.093 -11.319,4.833 -2.374,-3.335 -6.374,-5.392 -10.757,-5.086 -3.421,0.24 -6.409,1.874 -8.454,4.307 -2.221,-1.064 -4.739,-1.589 -7.372,-1.405 -2.528,0.176 -4.862,0.982 -6.859,2.253 -2.361,-0.969 -4.972,-1.426 -7.69,-1.236 -9.444,0.66 -16.565,8.851 -15.905,18.296 C -17.636,-6.461 -9.444,0.66 0,0" /></g><g
         transform="translate(134.9839,505.9116)"
         id="g570"><path
           inkscape:connector-curvature="0"
           id="path572"
           style="fill:#ff524f;fill-opacity:1;fill-rule:nonzero;stroke:none"
           d="M 0,0 C 0,0 -0.844,-5.922 4.039,-5.689 8.922,-5.457 6.946,0.937 6.946,0.937 6.946,0.937 4.797,-0.357 0,0" /></g><g
         transform="translate(118.978,519.2949)"
         id="g574"><path
           inkscape:connector-curvature="0"
           id="path576"
           style="fill:#1b1b1b;fill-opacity:1;fill-rule:nonzero;stroke:none"
           d="m 0,0 c -0.213,-4.74 -4.229,-8.41 -8.968,-8.197 -4.74,0.213 -8.41,4.229 -8.197,8.968 0.213,4.741 4.228,8.411 8.968,8.197 C -3.457,8.755 0.213,4.74 0,0" /></g><g
         transform="translate(110.5415,522.9253)"
         id="g578"><path
           inkscape:connector-curvature="0"
           id="path580"
           style="fill:#ffffff;fill-opacity:1;fill-rule:nonzero;stroke:none"
           d="M 0,0 C -0.081,-1.792 -1.599,-3.179 -3.391,-3.099 -5.183,-3.018 -6.57,-1.5 -6.49,0.292 -6.409,2.084 -4.891,3.472 -3.099,3.391 -1.307,3.311 0.081,1.792 0,0" /></g><g
         transform="translate(165.6899,517.1943)"
         id="g582"><path
           inkscape:connector-curvature="0"
           id="path584"
           style="fill:#1b1b1b;fill-opacity:1;fill-rule:nonzero;stroke:none"
           d="m 0,0 c -0.213,-4.74 -4.229,-8.41 -8.969,-8.197 -4.74,0.214 -8.409,4.229 -8.197,8.969 0.214,4.74 4.229,8.41 8.969,8.197 C -3.457,8.755 0.213,4.74 0,0" /></g><g
         transform="translate(157.2529,520.8252)"
         id="g586"><path
           inkscape:connector-curvature="0"
           id="path588"
           style="fill:#ffffff;fill-opacity:1;fill-rule:nonzero;stroke:none"
           d="M 0,0 C -0.081,-1.792 -1.599,-3.18 -3.391,-3.099 -5.183,-3.019 -6.57,-1.5 -6.49,0.292 -6.409,2.083 -4.891,3.471 -3.099,3.391 -1.307,3.31 0.081,1.792 0,0" /></g><g
         transform="translate(126.1777,506.8491)"
         id="g590"><path
           inkscape:connector-curvature="0"
           id="path592"
           style="fill:none;stroke:#1b1b1b;stroke-width:3.72099996;stroke-linecap:round;stroke-linejoin:miter;stroke-miterlimit:10;stroke-dasharray:none;stroke-opacity:1"
           d="M 0,0 C 0,0 7.497,-2.435 17.612,-0.481" /></g><g
         transform="translate(454.7354,345.0967)"
         id="g594"><path
           inkscape:connector-curvature="0"
           id="path596"
           style="fill:#55312a;fill-opacity:1;fill-rule:nonzero;stroke:none"
           d="m 0,0 -2.14,6.861 c -0.632,2.029 -0.632,4.202 0,6.23 l 1.375,4.409 c 0.295,0.941 0.245,2.002 -0.251,2.996 -0.731,1.466 -2.384,2.353 -4.01,2.15 -2.547,-0.318 -4.071,-2.814 -3.343,-5.146 l 1.376,-4.409 c 0.633,-2.028 0.633,-4.201 0,-6.23 l -2.223,-7.124 c -0.286,-0.913 -0.306,-1.918 0,-2.901 0.827,-2.65 3.71,-4.091 6.348,-3.114 C -0.396,-5.362 0.786,-2.518 0,0" /></g><g
         transform="translate(450.1367,334.5127)"
         id="g598"><path
           inkscape:connector-curvature="0"
           id="path600"
           style="fill:#55312a;fill-opacity:1;fill-rule:nonzero;stroke:none"
           d="m 0,0 2.843,-9.111 c 0.49,-1.571 -0.386,-3.241 -1.956,-3.73 -1.57,-0.49 -3.24,0.386 -3.73,1.955 -0.187,0.602 -0.175,1.216 0,1.775 z" /></g><g
         transform="translate(456.0947,364.0371)"
         id="g602"><path
           inkscape:connector-curvature="0"
           id="path604"
           style="fill:#55312a;fill-opacity:1;fill-rule:nonzero;stroke:none"
           d="m 0,0 2.843,-9.111 c 0.489,-1.571 -0.386,-3.241 -1.956,-3.731 -1.571,-0.489 -3.241,0.386 -3.73,1.956 -0.187,0.601 -0.176,1.216 0,1.775 z" /></g><g
         transform="translate(493.1465,282.1416)"
         id="g606"><path
           inkscape:connector-curvature="0"
           id="path608"
           style="fill:#ffcd7c;fill-opacity:1;fill-rule:nonzero;stroke:none"
           d="m 0,0 v 0 c -8.773,0 -15.885,7.112 -15.885,15.885 v 69.322 c 0,8.773 7.112,15.885 15.885,15.885 8.772,0 15.884,-7.112 15.884,-15.885 V 15.885 C 15.884,7.112 8.772,0 0,0" /></g><g
         id="g610"><g
           id="g612" /><g
           id="g624"><g
             id="g622"
             clip-path="url(#clipPath616)"><g
               id="g620"
               transform="translate(509.0303,339.7588)"><path
                 inkscape:connector-curvature="0"
                 id="path618"
                 style="fill:#ffe1b1;fill-opacity:1;fill-rule:nonzero;stroke:none"
                 d="m 0,0 v 27.59 c 0,8.773 -7.111,15.885 -15.884,15.885 -8.773,0 -15.885,-7.112 -15.885,-15.885 V 9.449 Z" /></g></g></g></g><g
         transform="translate(546.8779,357.1445)"
         id="g626"><path
           inkscape:connector-curvature="0"
           id="path628"
           style="fill:#55312a;fill-opacity:1;fill-rule:nonzero;stroke:none"
           d="m 0,0 h -107.464 c -4.058,0 -7.349,3.29 -7.349,7.349 v 123.893 c 0,33.734 27.347,61.08 61.082,61.08 33.733,0 61.08,-27.346 61.08,-61.08 V 7.349 C 7.349,3.29 4.059,0 0,0" /></g><g
         transform="translate(432.2207,389.9492)"
         id="g630"><path
           inkscape:connector-curvature="0"
           id="path632"
           style="fill:#663e33;fill-opacity:1;fill-rule:nonzero;stroke:none"
           d="m 0,0 c 27.463,1.676 86.559,10.131 122.161,50.813 v 47.469 c 0,33.734 -27.347,61.081 -61.081,61.081 C 27.347,159.363 0,132.016 0,98.282 Z" /></g><g
         transform="translate(458.665,469.9458)"
         id="g634"><path
           inkscape:connector-curvature="0"
           id="path636"
           style="fill:none;stroke:#1b1b1b;stroke-width:5.58099985;stroke-linecap:round;stroke-linejoin:miter;stroke-miterlimit:10;stroke-dasharray:none;stroke-opacity:1"
           d="M 0,0 C 0,6.268 5.081,11.35 11.35,11.35 17.618,11.35 22.699,6.268 22.699,0" /></g><g
         transform="translate(504.6523,469.9458)"
         id="g638"><path
           inkscape:connector-curvature="0"
           id="path640"
           style="fill:none;stroke:#1b1b1b;stroke-width:5.58099985;stroke-linecap:round;stroke-linejoin:miter;stroke-miterlimit:10;stroke-dasharray:none;stroke-opacity:1"
           d="M 0,0 C 0,6.268 5.081,11.35 11.35,11.35 17.617,11.35 22.699,6.268 22.699,0" /></g><g
         transform="translate(481.7969,456.9536)"
         id="g642"><path
           inkscape:connector-curvature="0"
           id="path644"
           style="fill:#1b1b1b;fill-opacity:1;fill-rule:nonzero;stroke:none"
           d="m 0,0 c 0,-6.268 5.081,-11.35 11.35,-11.35 6.267,0 11.348,5.082 11.348,11.35 z" /></g><g
         transform="translate(501.0713,448.8374)"
         id="g646"><path
           inkscape:connector-curvature="0"
           id="path648"
           style="fill:#ff524f;fill-opacity:1;fill-rule:nonzero;stroke:none"
           d="m 0,0 c -2.046,1.998 -4.84,3.233 -7.925,3.233 -3.086,0 -5.88,-1.235 -7.926,-3.233 2.046,-1.998 4.84,-3.233 7.926,-3.233 3.085,0 5.879,1.235 7.925,3.233" /></g><g
         transform="translate(533.7627,459.3105)"
         id="g650"><path
           inkscape:connector-curvature="0"
           id="path652"
           style="fill:#ff7474;fill-opacity:1;fill-rule:nonzero;stroke:none"
           d="m 0,0 c 0,-2.718 -2.87,-4.92 -6.411,-4.92 -3.542,0 -6.412,2.202 -6.412,4.92 0,2.717 2.87,4.92 6.412,4.92 C -2.87,4.92 0,2.717 0,0" /></g><g
         transform="translate(465.0771,459.3105)"
         id="g654"><path
           inkscape:connector-curvature="0"
           id="path656"
           style="fill:#ff7474;fill-opacity:1;fill-rule:nonzero;stroke:none"
           d="m 0,0 c 0,-2.718 -2.871,-4.92 -6.412,-4.92 -3.541,0 -6.412,2.202 -6.412,4.92 0,2.717 2.871,4.92 6.412,4.92 C -2.871,4.92 0,2.717 0,0" /></g><g
         transform="translate(449.4551,526.5034)"
         id="g658"><path
           inkscape:connector-curvature="0"
           id="path660"
           style="fill:#ffe1b1;fill-opacity:1;fill-rule:nonzero;stroke:none"
           d="m 0,0 c -0.411,-1.418 -2.144,-2.163 -3.871,-1.663 -1.727,0.5 -2.794,2.056 -2.383,3.475 0.411,1.418 2.144,2.163 3.871,1.663 C -0.656,2.975 0.411,1.419 0,0" /></g><g
         transform="translate(517.3105,418.0718)"
         id="g662"><path
           inkscape:connector-curvature="0"
           id="path664"
           style="fill:#ffe1b1;fill-opacity:1;fill-rule:nonzero;stroke:none"
           d="m 0,0 c -0.411,-1.418 -2.145,-2.163 -3.871,-1.663 -1.728,0.5 -2.794,2.056 -2.384,3.475 0.411,1.418 2.145,2.163 3.871,1.663 C -0.656,2.974 0.41,1.419 0,0" /></g><g
         transform="translate(557.3613,484.9229)"
         id="g666"><path
           inkscape:connector-curvature="0"
           id="path668"
           style="fill:#ffe1b1;fill-opacity:1;fill-rule:nonzero;stroke:none"
           d="m 0,0 c 0.34,-1.561 -1.246,-3.229 -3.54,-3.728 -2.295,-0.499 -4.43,0.362 -4.769,1.922 -0.339,1.56 1.247,3.229 3.54,3.728 C -2.474,2.42 -0.339,1.56 0,0" /></g><g
         transform="translate(474.1689,520.248)"
         id="g670"><path
           inkscape:connector-curvature="0"
           id="path672"
           style="fill:#ffe1b1;fill-opacity:1;fill-rule:nonzero;stroke:none"
           d="m 0,0 c 0.34,-1.56 -1.246,-3.229 -3.54,-3.728 -2.295,-0.499 -4.43,0.362 -4.769,1.922 -0.339,1.56 1.247,3.229 3.54,3.728 C -2.474,2.421 -0.339,1.56 0,0" /></g><g
         transform="translate(463.3877,395.2197)"
         id="g674"><path
           inkscape:connector-curvature="0"
           id="path676"
           style="fill:#ffe1b1;fill-opacity:1;fill-rule:nonzero;stroke:none"
           d="M 0,0 C 1.584,-0.196 2.635,-2.244 2.347,-4.574 2.059,-6.905 0.54,-8.635 -1.044,-8.439 -2.629,-8.243 -3.68,-6.195 -3.391,-3.864 -3.103,-1.534 -1.585,0.196 0,0" /></g><g
         transform="translate(440.9648,437.6533)"
         id="g678"><path
           inkscape:connector-curvature="0"
           id="path680"
           style="fill:#ffe1b1;fill-opacity:1;fill-rule:nonzero;stroke:none"
           d="m 0,0 c 0.999,-0.124 1.662,-1.415 1.48,-2.885 -0.181,-1.469 -1.139,-2.56 -2.138,-2.436 -0.999,0.123 -1.661,1.414 -1.48,2.884 C -1.956,-0.968 -0.999,0.124 0,0" /></g><g
         transform="translate(556.2578,431.395)"
         id="g682"><path
           inkscape:connector-curvature="0"
           id="path684"
           style="fill:#ffe1b1;fill-opacity:1;fill-rule:nonzero;stroke:none"
           d="m 0,0 c 0.657,-0.763 0.28,-2.165 -0.842,-3.13 -1.123,-0.966 -2.564,-1.131 -3.221,-0.368 -0.657,0.763 -0.28,2.165 0.842,3.131 C -2.099,0.599 -0.656,0.763 0,0" /></g><g
         transform="translate(493.4756,375.5498)"
         id="g686"><path
           inkscape:connector-curvature="0"
           id="path688"
           style="fill:#ffe1b1;fill-opacity:1;fill-rule:nonzero;stroke:none"
           d="M 0,0 C 0.999,-0.124 1.661,-1.415 1.479,-2.885 1.298,-4.354 0.341,-5.445 -0.659,-5.321 -1.658,-5.198 -2.32,-3.906 -2.139,-2.438 -1.957,-0.968 -0.999,0.123 0,0" /></g><g
         transform="translate(535.0996,517.3325)"
         id="g690"><path
           inkscape:connector-curvature="0"
           id="path692"
           style="fill:#ffe1b1;fill-opacity:1;fill-rule:nonzero;stroke:none"
           d="M 0,0 C 0.872,-0.502 0.981,-1.949 0.243,-3.233 -0.494,-4.517 -1.801,-5.15 -2.673,-4.648 -3.546,-4.146 -3.655,-2.699 -2.917,-1.416 -2.179,-0.132 -0.873,0.501 0,0" /></g><g
         transform="translate(554.543,444.8511)"
         id="g694"><path
           inkscape:connector-curvature="0"
           id="path696"
           style="fill:#ffe1b1;fill-opacity:1;fill-rule:nonzero;stroke:none"
           d="M 0,0 C 0.873,-0.502 0.982,-1.949 0.244,-3.233 -0.494,-4.517 -1.8,-5.15 -2.672,-4.648 -3.545,-4.146 -3.654,-2.699 -2.916,-1.416 -2.178,-0.132 -0.872,0.501 0,0" /></g><g
         transform="translate(518.7344,421.3018)"
         id="g698"><path
           inkscape:connector-curvature="0"
           id="path700"
           style="fill:#ffe1b1;fill-opacity:1;fill-rule:nonzero;stroke:none"
           d="M 0,0 C 0.873,-0.502 0.982,-1.949 0.244,-3.233 -0.494,-4.517 -1.8,-5.15 -2.673,-4.648 -3.545,-4.146 -3.654,-2.699 -2.916,-1.416 -2.179,-0.132 -0.873,0.501 0,0" /></g><g
         transform="translate(436.4736,477.9448)"
         id="g702"><path
           inkscape:connector-curvature="0"
           id="path704"
           style="fill:#ffe1b1;fill-opacity:1;fill-rule:nonzero;stroke:none"
           d="M 0,0 C 0.873,-0.502 0.981,-1.949 0.244,-3.233 -0.494,-4.517 -1.8,-5.15 -2.673,-4.648 -3.546,-4.146 -3.654,-2.699 -2.917,-1.416 -2.179,-0.132 -0.873,0.501 0,0" /></g><g
         transform="translate(492.6436,544.0732)"
         id="g706"><path
           inkscape:connector-curvature="0"
           id="path708"
           style="fill:#ffe1b1;fill-opacity:1;fill-rule:nonzero;stroke:none"
           d="M 0,0 C 0.873,-0.502 0.981,-1.949 0.243,-3.233 -0.494,-4.516 -1.8,-5.15 -2.673,-4.648 -3.546,-4.146 -3.654,-2.699 -2.917,-1.416 -2.179,-0.132 -0.873,0.501 0,0" /></g><g
         transform="translate(467.6201,364.0215)"
         id="g710"><path
           inkscape:connector-curvature="0"
           id="path712"
           style="fill:#ffe1b1;fill-opacity:1;fill-rule:nonzero;stroke:none"
           d="M 0,0 C 1.585,-0.195 2.636,-2.244 2.347,-4.574 2.059,-6.904 0.54,-8.635 -1.044,-8.438 -2.629,-8.243 -3.68,-6.194 -3.391,-3.864 -3.103,-1.534 -1.584,0.196 0,0" /></g><g
         transform="translate(438.6357,481.4497)"
         id="g714"><path
           inkscape:connector-curvature="0"
           id="path716"
           style="fill:#ffe1b1;fill-opacity:1;fill-rule:nonzero;stroke:none"
           d="m 0,0 c 0.625,-1.469 -0.62,-3.405 -2.78,-4.325 -2.161,-0.919 -4.419,-0.473 -5.044,0.995 -0.626,1.47 0.619,3.406 2.78,4.325 C -2.884,1.915 -0.625,1.469 0,0" /></g><g
         transform="translate(435.6592,507.5361)"
         id="g718"><path
           inkscape:connector-curvature="0"
           id="path720"
           style="fill:#ffe1b1;fill-opacity:1;fill-rule:nonzero;stroke:none"
           d="M 0,0 C 1.585,-0.196 2.636,-2.244 2.347,-4.574 2.059,-6.905 0.54,-8.635 -1.044,-8.439 -2.628,-8.243 -3.679,-6.195 -3.391,-3.865 -3.103,-1.534 -1.584,0.196 0,0" /></g><g
         transform="translate(548.5352,360.7754)"
         id="g722"><path
           inkscape:connector-curvature="0"
           id="path724"
           style="fill:#ffe1b1;fill-opacity:1;fill-rule:nonzero;stroke:none"
           d="m 0,0 c -1.804,-1.536 -5.098,-0.63 -7.356,2.023 -2.259,2.654 -2.628,6.049 -0.825,7.585 1.805,1.537 5.098,0.63 7.357,-2.023 C 1.436,4.932 1.804,1.536 0,0" /></g><g
         transform="translate(472.1836,538.0889)"
         id="g726"><path
           inkscape:connector-curvature="0"
           id="path728"
           style="fill:#ffe1b1;fill-opacity:1;fill-rule:nonzero;stroke:none"
           d="M 0,0 C -1.375,-1.17 -3.884,-0.48 -5.605,1.542 -7.326,3.563 -7.607,6.15 -6.232,7.32 -4.858,8.49 -2.349,7.8 -0.628,5.779 1.093,3.757 1.374,1.17 0,0" /></g><g
         transform="translate(529.8877,525.291)"
         id="g730"><path
           inkscape:connector-curvature="0"
           id="path732"
           style="fill:#ffe1b1;fill-opacity:1;fill-rule:nonzero;stroke:none"
           d="M 0,0 C -3.198,1.142 -5.274,3.512 -4.638,5.293 -4.002,7.075 -0.894,7.594 2.304,6.452 5.501,5.31 7.578,2.94 6.941,1.158 6.306,-0.624 3.197,-1.142 0,0" /></g><g
         transform="translate(555.9629,387.7627)"
         id="g734"><path
           inkscape:connector-curvature="0"
           id="path736"
           style="fill:#ffe1b1;fill-opacity:1;fill-rule:nonzero;stroke:none"
           d="M 0,0 C -1.215,-1.035 -3.435,-0.425 -4.957,1.363 -6.479,3.151 -6.728,5.439 -5.512,6.475 -4.297,7.51 -2.077,6.899 -0.555,5.111 0.968,3.323 1.216,1.035 0,0" /></g><g
         transform="translate(436.2305,365.9102)"
         id="g738"><path
           inkscape:connector-curvature="0"
           id="path740"
           style="fill:#ffe1b1;fill-opacity:1;fill-rule:nonzero;stroke:none"
           d="M 0,0 C -1.216,-1.035 -3.436,-0.425 -4.958,1.363 -6.479,3.151 -6.729,5.439 -5.513,6.475 -4.297,7.51 -2.078,6.899 -0.556,5.111 0.967,3.323 1.215,1.035 0,0" /></g><g
         transform="translate(536.8984,534.0029)"
         id="g742"><path
           inkscape:connector-curvature="0"
           id="path744"
           style="fill:#ffe1b1;fill-opacity:1;fill-rule:nonzero;stroke:none"
           d="m 0,0 c 0.339,-1.56 -1.246,-3.229 -3.541,-3.728 -2.294,-0.499 -4.43,0.362 -4.769,1.922 -0.338,1.56 1.247,3.229 3.541,3.728 C -2.475,2.421 -0.339,1.56 0,0" /></g><g
         transform="translate(438.3018,402.1533)"
         id="g746"><path
           inkscape:connector-curvature="0"
           id="path748"
           style="fill:#ffe1b1;fill-opacity:1;fill-rule:nonzero;stroke:none"
           d="m 0,0 c 0.339,-1.56 -1.246,-3.229 -3.541,-3.728 -2.295,-0.499 -4.43,0.362 -4.769,1.922 -0.338,1.56 1.247,3.229 3.541,3.728 C -2.475,2.421 -0.339,1.56 0,0" /></g><g
         transform="translate(687.2686,543.1982)"
         id="g750"><path
           inkscape:connector-curvature="0"
           id="path752"
           style="fill:#eda03c;fill-opacity:1;fill-rule:nonzero;stroke:none"
           d="M 0,0 24.347,38.105 32.128,33.377 7.786,-2.688 C 7.786,-2.688 5.954,0.031 0,0" /></g><g
         transform="translate(719.3965,576.5752)"
         id="g754"><path
           inkscape:connector-curvature="0"
           id="path756"
           style="fill:#ba7e2e;fill-opacity:1;fill-rule:nonzero;stroke:none"
           d="m 0,0 -7.781,4.728 c 0,0 0.476,-5.01 3.853,-5.629 l -20.644,-32.786 21.321,32.719 -0.012,0.001 C -2.362,-0.975 -1.287,-0.698 0,0" /></g><g
         transform="translate(680.2012,541.1753)"
         id="g758"><path
           inkscape:connector-curvature="0"
           id="path760"
           style="fill:#ffcb77;fill-opacity:1;fill-rule:nonzero;stroke:none"
           d="M 0,0 16.025,56.683 27.508,53.714 9.842,-3.963 C 9.842,-3.963 7.413,2.28 0,0" /></g><g
         transform="translate(707.709,594.8896)"
         id="g762"><path
           inkscape:connector-curvature="0"
           id="path764"
           style="fill:#eaa64e;fill-opacity:1;fill-rule:nonzero;stroke:none"
           d="m 0,0 -11.482,2.969 c 0,0 2.478,-6.069 6.922,-5.571 L -18.941,-54.787 -3.69,-2.43 -3.706,-2.434 C -2.579,-2.104 -1.343,-1.354 0,0" /></g><g
         transform="translate(676.4561,282.1416)"
         id="g766"><path
           inkscape:connector-curvature="0"
           id="path768"
           style="fill:#ffcd7c;fill-opacity:1;fill-rule:nonzero;stroke:none"
           d="m 0,0 v 0 c -3.942,0 -7.515,3.3 -9.109,8.414 l -45.03,144.445 c -0.91,2.921 0.598,6.204 2.849,6.204 H 51.291 c 2.251,0 3.759,-3.283 2.849,-6.204 L 9.109,8.414 C 7.516,3.3 3.943,0 0,0" /></g><g
         id="g770"><g
           id="g772" /><g
           id="g872"><g
             id="g870"
             clip-path="url(#clipPath776)"><g
               id="g780"
               transform="translate(687.7754,353.9854)"><path
                 inkscape:connector-curvature="0"
                 id="path778"
                 style="fill:#ffcd7c;fill-opacity:1;fill-rule:nonzero;stroke:none"
                 d="m 0,0 11.196,-5.16 3.021,9.69 -2.194,1.011 z" /></g><g
               id="g784"
               transform="translate(657.9307,336.0273)"><path
                 inkscape:connector-curvature="0"
                 id="path782"
                 style="fill:#ffcd7c;fill-opacity:1;fill-rule:nonzero;stroke:none"
                 d="m 0,0 1.875,-6.014 5.588,2.576 z" /></g><g
               id="g788"
               transform="translate(668.4492,302.2861)"><path
                 inkscape:connector-curvature="0"
                 id="path786"
                 style="fill:#ffcd7c;fill-opacity:1;fill-rule:nonzero;stroke:none"
                 d="m 0,0 1.305,-4.186 6.83,-3.147 6.531,3.01 1.38,4.426 -7.911,3.646 z" /></g><g
               id="g792"
               transform="translate(693.1387,330.1162)"><path
                 inkscape:connector-curvature="0"
                 id="path790"
                 style="fill:#ffcd7c;fill-opacity:1;fill-rule:nonzero;stroke:none"
                 d="m 0,0 1.8,5.773 -7.163,-3.3 z" /></g><g
               id="g796"
               transform="translate(687.7754,375.3818)"><path
                 inkscape:connector-curvature="0"
                 id="path794"
                 style="fill:#ffcd7c;fill-opacity:1;fill-rule:nonzero;stroke:none"
                 d="m 0,0 12.023,-5.542 6.684,3.081 1.342,4.303 -8.026,3.699 z" /></g><g
               id="g800"
               transform="translate(665.3936,375.3818)"><path
                 inkscape:connector-curvature="0"
                 id="path798"
                 style="fill:#ffcd7c;fill-opacity:1;fill-rule:nonzero;stroke:none"
                 d="m 0,0 -12.023,5.541 -8.25,-3.802 1.266,-4.062 6.984,-3.219 z" /></g><g
               id="g804"
               transform="translate(701.9707,435.0308)"><path
                 inkscape:connector-curvature="0"
                 id="path802"
                 style="fill:#ffcd7c;fill-opacity:1;fill-rule:nonzero;stroke:none"
                 d="m 0,0 h -4.344 l 2.172,-1.001 z" /></g><g
               id="g808"
               transform="translate(716.4678,404.9512)"><path
                 inkscape:connector-curvature="0"
                 id="path806"
                 style="fill:#ffcd7c;fill-opacity:1;fill-rule:nonzero;stroke:none"
                 d="M 0,0 1.839,5.896 -5.478,2.525 Z" /></g><g
               id="g812"
               transform="translate(655.541,435.0308)"><path
                 inkscape:connector-curvature="0"
                 id="path810"
                 style="fill:#ffcd7c;fill-opacity:1;fill-rule:nonzero;stroke:none"
                 d="m 0,0 h -4.343 l 2.172,-1.001 z" /></g><g
               id="g816"
               transform="translate(631.2627,433.9033)"><path
                 inkscape:connector-curvature="0"
                 id="path814"
                 style="fill:#ffcd7c;fill-opacity:1;fill-rule:nonzero;stroke:none"
                 d="m 0,0 c -0.321,0.147 -0.615,0.358 -0.88,0.615 l -2.759,-1.271 3.021,-9.69 11.534,5.315 z" /></g><g
               id="g820"
               transform="translate(634.5635,410.9858)"><path
                 inkscape:connector-curvature="0"
                 id="path818"
                 style="fill:#ffcd7c;fill-opacity:1;fill-rule:nonzero;stroke:none"
                 d="m 0,0 1.913,-6.138 5.702,2.629 z" /></g><g
               id="g824"
               transform="translate(653.3701,359.5264)"><path
                 inkscape:connector-curvature="0"
                 id="path822"
                 style="fill:#ffcd7c;fill-opacity:1;fill-rule:nonzero;stroke:none"
                 d="m 0,0 -2.417,-1.114 3.021,-9.691 11.419,5.264 z" /></g><g
               id="g828"
               transform="translate(687.7754,396.7783)"><path
                 inkscape:connector-curvature="0"
                 id="path826"
                 style="fill:#ffcd7c;fill-opacity:1;fill-rule:nonzero;stroke:none"
                 d="M 0,0 12.023,-5.542 24.048,0 12.023,5.54 Z" /></g><g
               id="g832"
               transform="translate(664.5605,386.0801)"><path
                 inkscape:connector-curvature="0"
                 id="path830"
                 style="fill:#ffcd7c;fill-opacity:1;fill-rule:nonzero;stroke:none"
                 d="M 0,0 12.023,-5.542 24.048,0 12.023,5.541 Z" /></g><g
               id="g836"
               transform="translate(688.6074,428.8726)"><path
                 inkscape:connector-curvature="0"
                 id="path834"
                 style="fill:#ffcd7c;fill-opacity:1;fill-rule:nonzero;stroke:none"
                 d="M 0,0 -12.023,5.541 -24.046,0 -12.023,-5.541 Z" /></g><g
               id="g840"
               transform="translate(722.7861,434.5186)"><path
                 inkscape:connector-curvature="0"
                 id="path838"
                 style="fill:#ffcd7c;fill-opacity:1;fill-rule:nonzero;stroke:none"
                 d="m 0,0 c -0.266,-0.257 -0.559,-0.468 -0.88,-0.615 l -10.916,-5.031 11.311,-5.212 3.02,9.69 z" /></g><g
               id="g844"
               transform="translate(664.5605,364.6836)"><path
                 inkscape:connector-curvature="0"
                 id="path842"
                 style="fill:#ffcd7c;fill-opacity:1;fill-rule:nonzero;stroke:none"
                 d="M 0,0 12.023,-5.541 24.048,0 12.023,5.541 Z" /></g><g
               id="g848"
               transform="translate(687.7754,418.1743)"><path
                 inkscape:connector-curvature="0"
                 id="path846"
                 style="fill:#ffcd7c;fill-opacity:1;fill-rule:nonzero;stroke:none"
                 d="M 0,0 12.023,-5.541 24.047,0 12.023,5.541 Z" /></g><g
               id="g852"
               transform="translate(665.3936,418.1743)"><path
                 inkscape:connector-curvature="0"
                 id="path850"
                 style="fill:#ffcd7c;fill-opacity:1;fill-rule:nonzero;stroke:none"
                 d="M 0,0 -12.023,5.541 -24.048,0 -12.023,-5.541 Z" /></g><g
               id="g856"
               transform="translate(676.584,401.9355)"><path
                 inkscape:connector-curvature="0"
                 id="path854"
                 style="fill:#ffcd7c;fill-opacity:1;fill-rule:nonzero;stroke:none"
                 d="M 0,0 12.024,5.541 0,11.082 -12.023,5.541 Z" /></g><g
               id="g860"
               transform="translate(653.3701,402.3184)"><path
                 inkscape:connector-curvature="0"
                 id="path858"
                 style="fill:#ffcd7c;fill-opacity:1;fill-rule:nonzero;stroke:none"
                 d="M 0,0 -12.024,-5.54 0,-11.082 12.023,-5.54 Z" /></g><g
               id="g864"
               transform="translate(664.5605,343.2871)"><path
                 inkscape:connector-curvature="0"
                 id="path862"
                 style="fill:#ffcd7c;fill-opacity:1;fill-rule:nonzero;stroke:none"
                 d="M 0,0 12.023,-5.541 24.048,0 12.023,5.541 Z" /></g><g
               id="g868"
               transform="translate(664.5605,321.8906)"><path
                 inkscape:connector-curvature="0"
                 id="path866"
                 style="fill:#ffcd7c;fill-opacity:1;fill-rule:nonzero;stroke:none"
                 d="M 0,0 12.023,-5.541 24.048,0 12.023,5.541 Z" /></g></g></g></g><g
         id="g874"><g
           id="g876" /><g
           id="g888"><g
             id="g886"
             clip-path="url(#clipPath880)"><g
               id="g884"
               transform="translate(627.8135,417.3721)"><path
                 inkscape:connector-curvature="0"
                 id="path882"
                 style="fill:#ffe1b1;fill-opacity:1;fill-rule:nonzero;stroke:none"
                 d="m 0,0 85.923,-36.449 19.169,60.282 -108.736,-1.637 -0.78,-6.71 z" /></g></g></g></g><g
         transform="translate(740.8242,458.4419)"
         id="g890"><path
           inkscape:connector-curvature="0"
           id="path892"
           style="fill:#fff9c3;fill-opacity:1;fill-rule:nonzero;stroke:none"
           d="m 0,0 c -0.492,3.23 -1.687,6.316 -3.485,9.214 -0.662,1.068 -1.563,1.863 -2.559,2.374 0.94,4.228 0.799,8.645 -0.592,13.114 -1.606,5.161 -4.801,9.786 -9.082,13.758 0.039,0.561 0.059,1.123 0.041,1.688 -0.135,4.386 -1.933,8.501 -5.007,12.158 -0.095,0.114 -0.203,0.208 -0.308,0.303 1.376,4.168 1.424,8.487 -0.036,12.656 -0.727,2.075 -1.781,4.024 -3.103,5.834 -0.595,0.814 -1.324,1.37 -2.049,1.667 1.073,3.595 1.157,7.416 0.065,11.291 -0.971,3.442 -2.828,6.551 -5.309,9.268 -6.467,8.613 -27.232,11.973 -34.283,17.043 -8.959,6.442 -1.073,14.349 -1.073,14.349 -19.626,-1.226 -33.746,-20.175 -30.217,-31.061 -2.355,-1.846 -5.235,-4.915 -6.894,-10.956 -0.732,-2.669 -0.856,-5.363 -0.437,-7.996 -0.623,-0.138 -1.259,-0.458 -1.824,-0.965 -4.244,-3.802 -7.319,-8.299 -8.562,-13.281 -0.919,-3.68 -0.807,-7.247 0.185,-10.596 -0.952,-0.412 -1.818,-1.144 -2.408,-2.168 -1.348,-2.34 -2.217,-4.809 -2.528,-7.373 -0.306,-2.525 -0.055,-4.971 0.656,-7.315 -1.095,-0.337 -2.231,-1.215 -3.085,-2.542 -1.542,-2.4 -2.735,-4.953 -3.505,-7.637 -1.197,-4.171 -1.24,-8.376 -0.265,-12.452 -3.639,-4.711 -5.692,-9.923 -5.692,-15.393 0,-19.742 27.308,-36.581 63.59,-36.795 C -28.258,-42.047 3.481,-22.834 0,0" /></g><g
         transform="translate(714.0635,479.0752)"
         id="g894"><path
           inkscape:connector-curvature="0"
           id="path896"
           style="fill:#fffde7;fill-opacity:1;fill-rule:nonzero;stroke:none"
           d="m 0,0 c 0.437,3.239 0.157,6.536 -0.753,9.823 -0.335,1.21 -0.976,2.227 -1.787,2.998 2.092,3.792 3.198,8.071 3.121,12.75 -0.09,5.405 -1.854,10.742 -4.846,15.758 0.196,0.526 0.372,1.061 0.515,1.608 1.104,4.246 0.536,8.701 -1.385,13.075 -0.059,0.137 -0.136,0.257 -0.211,0.379 2.493,3.612 3.753,7.742 3.526,12.154 -0.008,0.155 -0.031,0.309 -0.042,0.464 -0.811,1.295 -1.745,2.527 -2.801,3.683 -6.467,8.613 -27.233,11.973 -34.283,17.042 -8.959,6.442 -1.074,14.35 -1.074,14.35 -19.626,-1.227 -33.746,-20.175 -30.216,-31.062 -2.355,-1.846 -5.236,-4.914 -6.894,-10.955 -0.732,-2.67 -0.856,-5.363 -0.437,-7.996 -0.623,-0.138 -1.259,-0.459 -1.825,-0.965 -4.244,-3.803 -7.318,-8.299 -8.562,-13.281 -0.918,-3.68 -0.806,-7.247 0.185,-10.596 -0.952,-0.412 -1.817,-1.145 -2.407,-2.168 -1.348,-2.34 -2.218,-4.809 -2.528,-7.373 -0.306,-2.525 -0.055,-4.972 0.656,-7.315 -1.096,-0.337 -2.231,-1.216 -3.085,-2.542 -1.542,-2.4 -2.735,-4.954 -3.506,-7.638 -1.196,-4.17 -1.239,-8.376 -0.264,-12.451 -0.266,-0.344 -0.504,-0.696 -0.752,-1.045 6.699,-3.874 14.383,-7.218 22.864,-9.759 C -38.945,-32.4 -3.082,-22.891 0,0" /></g><g
         transform="translate(646.4219,548.4956)"
         id="g898"><path
           inkscape:connector-curvature="0"
           id="path900"
           style="fill:#fff9c3;fill-opacity:1;fill-rule:nonzero;stroke:none"
           d="M 0,0 C 0,0 19.483,-24.057 65.4,-18.603 65.4,-18.603 24.25,-18.991 0,0" /></g><g
         transform="translate(627.624,506.856)"
         id="g902"><path
           inkscape:connector-curvature="0"
           id="path904"
           style="fill:#fff9c3;fill-opacity:1;fill-rule:nonzero;stroke:none"
           d="M 0,0 C 0,0 15.958,-24.057 53.566,-18.603 53.566,-18.603 19.861,-18.991 0,0" /></g><g
         transform="translate(660.4883,466.2134)"
         id="g906"><path
           inkscape:connector-curvature="0"
           id="path908"
           style="fill:#43221d;fill-opacity:1;fill-rule:nonzero;stroke:none"
           d="m 0,0 c 0,-4.745 -3.846,-8.592 -8.591,-8.592 -4.745,0 -8.592,3.847 -8.592,8.592 0,4.745 3.847,8.591 8.592,8.591 C -3.846,8.591 0,4.745 0,0" /></g><g
         transform="translate(651.8975,469.4614)"
         id="g910"><path
           inkscape:connector-curvature="0"
           id="path912"
           style="fill:#ffffff;fill-opacity:1;fill-rule:nonzero;stroke:none"
           d="m 0,0 c 0,-1.794 -1.454,-3.248 -3.248,-3.248 -1.794,0 -3.248,1.454 -3.248,3.248 0,1.793 1.454,3.248 3.248,3.248 C -1.454,3.248 0,1.793 0,0" /></g><g
         transform="translate(668.2402,454.1035)"
         id="g914"><path
           inkscape:connector-curvature="0"
           id="path916"
           style="fill:none;stroke:#43221d;stroke-width:3.72099996;stroke-linecap:round;stroke-linejoin:miter;stroke-miterlimit:10;stroke-dasharray:none;stroke-opacity:1"
           d="M 0,0 C 0,0 6.546,-10.473 13.582,0" /></g><g
         transform="translate(690.8486,462.3096)"
         id="g918"><path
           inkscape:connector-curvature="0"
           id="path920"
           style="fill:none;stroke:#43221d;stroke-width:4.3829999;stroke-linecap:round;stroke-linejoin:miter;stroke-miterlimit:10;stroke-dasharray:none;stroke-opacity:1"
           d="m 0,0 c 0,4.312 3.495,7.807 7.808,7.807 4.311,0 7.806,-3.495 7.806,-7.807" /></g></g></g></svg>