<?xml version="1.0" encoding="UTF-8" standalone="no"?>
<!-- Created with Inkscape (http://www.inkscape.org/) -->

<svg
   xmlns:dc="http://purl.org/dc/elements/1.1/"
   xmlns:cc="http://creativecommons.org/ns#"
   xmlns:rdf="http://www.w3.org/1999/02/22-rdf-syntax-ns#"
   xmlns:svg="http://www.w3.org/2000/svg"
   xmlns="http://www.w3.org/2000/svg"
   xmlns:sodipodi="http://sodipodi.sourceforge.net/DTD/sodipodi-0.dtd"
   xmlns:inkscape="http://www.inkscape.org/namespaces/inkscape"
   version="1.1"
   id="svg2"
   xml:space="preserve"
   width="666.66669"
   height="666.66669"
   viewBox="0 0 666.66669 666.66669"
   sodipodi:docname="379728-PCDJO5-850.svg"
   inkscape:version="0.92.3 (2405546, 2018-03-11)"><metadata
     id="metadata8"><rdf:RDF><cc:Work
         rdf:about=""><dc:format>image/svg+xml</dc:format><dc:type
           rdf:resource="http://purl.org/dc/dcmitype/StillImage" /><dc:title></dc:title></cc:Work></rdf:RDF></metadata><defs
     id="defs6"><clipPath
       clipPathUnits="userSpaceOnUse"
       id="clipPath22"><path
         d="M 0,500 H 500 V 0 H 0 Z"
         id="path20"
         inkscape:connector-curvature="0" /></clipPath><clipPath
       clipPathUnits="userSpaceOnUse"
       id="clipPath50"><path
         d="m 319.234,318.193 c 0,0 -21.407,-1.754 -22.753,-19.481 v 0 -44.445 c 0,0 -2.48,-20.606 25.149,-32.31 v 0 c 0,0 31.733,3.597 32.275,33.936 v 0 c 0.525,29.415 -2.009,62.395 -31.793,62.398 v 0 c -0.934,0 -1.89,-0.032 -2.878,-0.098"
         id="path48"
         inkscape:connector-curvature="0" /></clipPath><clipPath
       clipPathUnits="userSpaceOnUse"
       id="clipPath74"><path
         d="m 293.316,322.617 h 66.049 v -80.894 h -66.049 z"
         id="path72"
         inkscape:connector-curvature="0" /></clipPath><clipPath
       clipPathUnits="userSpaceOnUse"
       id="clipPath90"><path
         d="M 0,500 H 500 V 0 H 0 Z"
         id="path88"
         inkscape:connector-curvature="0" /></clipPath><clipPath
       clipPathUnits="userSpaceOnUse"
       id="clipPath224"><path
         d="M 92.1234,469.56 H 466.689 V 121.372 H 92.1234 Z"
         id="path222"
         inkscape:connector-curvature="0" /></clipPath><clipPath
       clipPathUnits="userSpaceOnUse"
       id="clipPath228"><path
         d="M 92.124,220.137 466.689,469.56 V 121.371 H 123.223 Z"
         id="path226"
         inkscape:connector-curvature="0" /></clipPath><linearGradient
       x1="0"
       y1="0"
       x2="1"
       y2="0"
       gradientUnits="userSpaceOnUse"
       gradientTransform="matrix(345.82709,345.82709,345.82709,-345.82709,176.62334,67.971352)"
       spreadMethod="pad"
       id="linearGradient246"><stop
         style="stop-opacity:0.70000763;stop-color:#ffffff"
         offset="0"
         id="stop234" /><stop
         style="stop-opacity:0.70000763;stop-color:#ffffff"
         offset="0.102945"
         id="stop236" /><stop
         style="stop-opacity:0;stop-color:#ffffff"
         offset="0.31913859"
         id="stop238" /><stop
         style="stop-opacity:0;stop-color:#ffffff"
         offset="0.490325"
         id="stop240" /><stop
         style="stop-opacity:0;stop-color:#ffffff"
         offset="0.88119205"
         id="stop242" /><stop
         style="stop-opacity:0;stop-color:#ffffff"
         offset="1"
         id="stop244" /></linearGradient><mask
       maskUnits="userSpaceOnUse"
       x="0"
       y="0"
       width="1"
       height="1"
       id="mask248"><g
         id="g258"><g
           id="g256"><g
             id="g254"><g
               id="g252"><path
                 d="M -32768,32767 H 32767 V -32768 H -32768 Z"
                 style="fill:url(#linearGradient246);stroke:none"
                 id="path250"
                 inkscape:connector-curvature="0" /></g></g></g></g></mask><linearGradient
       x1="0"
       y1="0"
       x2="1"
       y2="0"
       gradientUnits="userSpaceOnUse"
       gradientTransform="matrix(345.82709,345.82709,345.82709,-345.82709,176.62334,67.971352)"
       spreadMethod="pad"
       id="linearGradient272"><stop
         style="stop-opacity:1;stop-color:#dbc1db"
         offset="0"
         id="stop260" /><stop
         style="stop-opacity:1;stop-color:#dbc1db"
         offset="0.102945"
         id="stop262" /><stop
         style="stop-opacity:1;stop-color:#c1c1db"
         offset="0.31913859"
         id="stop264" /><stop
         style="stop-opacity:1;stop-color:#c1c1db"
         offset="0.490325"
         id="stop266" /><stop
         style="stop-opacity:1;stop-color:#c1c1db"
         offset="0.88119205"
         id="stop268" /><stop
         style="stop-opacity:1;stop-color:#c1c1db"
         offset="1"
         id="stop270" /></linearGradient><clipPath
       clipPathUnits="userSpaceOnUse"
       id="clipPath318"><path
         d="M 0,500 H 500 V 0 H 0 Z"
         id="path316"
         inkscape:connector-curvature="0" /></clipPath></defs><sodipodi:namedview
     pagecolor="#ffffff"
     bordercolor="#666666"
     borderopacity="1"
     objecttolerance="10"
     gridtolerance="10"
     guidetolerance="10"
     inkscape:pageopacity="0"
     inkscape:pageshadow="2"
     inkscape:window-width="1600"
     inkscape:window-height="847"
     id="namedview4"
     showgrid="false"
     inkscape:zoom="0.70799998"
     inkscape:cx="337.50052"
     inkscape:cy="290.77693"
     inkscape:window-x="-8"
     inkscape:window-y="-8"
     inkscape:window-maximized="1"
     inkscape:current-layer="g10" /><g
     id="g10"
     inkscape:groupmode="layer"
     inkscape:label="379728-PCDJO5-850"
     transform="matrix(1.3333333,0,0,-1.3333333,0,666.66667)"><g
       clip-path="url(#clipPath90)"
       id="g86"><g
         transform="translate(74.2935,341.0718)"
         id="g178" /><g
         id="g1451"
         transform="translate(-4.6149861)"><path
           inkscape:connector-curvature="0"
           id="path14"
           style="fill:#fbc39d;fill-opacity:1;fill-rule:nonzero;stroke:none"
           d="m 257.082,126.218 h -28.007 v 12.201 h 28.007 z" /><g
           id="g16"><g
             clip-path="url(#clipPath22)"
             id="g18"><g
               transform="translate(243.0781,128.5361)"
               id="g24"><path
                 inkscape:connector-curvature="0"
                 id="path26"
                 style="fill:#fbc39d;fill-opacity:1;fill-rule:nonzero;stroke:none"
                 d="m 0,0 c 0,9.174 -8.803,16.611 -19.662,16.611 -10.859,0 -19.662,-7.437 -19.662,-16.611 0,-0.789 0.088,-1.559 0.214,-2.317 H -0.213 C -0.087,-1.559 0,-0.789 0,0" /></g><g
               transform="translate(305.833,221.957)"
               id="g28"><path
                 inkscape:connector-curvature="0"
                 id="path30"
                 style="fill:#1a1a1e;fill-opacity:1;fill-rule:nonzero;stroke:none"
                 d="m 0,0 c -15.813,0 -28.633,-12.819 -28.633,-28.633 v -48.391 h -31.12 v -23.768 H -10.931 -9.723 0 v 25.179 21.13 z" /></g><g
               transform="translate(387.5381,121.165)"
               id="g32"><path
                 inkscape:connector-curvature="0"
                 id="path34"
                 style="fill:#201f25;fill-opacity:1;fill-rule:nonzero;stroke:none"
                 d="m 0,0 h -98.831 v 79.084 c 0,13.194 10.696,23.89 23.89,23.89 H -23.89 C -10.695,102.974 0,92.278 0,79.084 Z" /></g><g
               transform="translate(322.7861,215.8535)"
               id="g36"><path
                 inkscape:connector-curvature="0"
                 id="path38"
                 style="fill:#2e2d35;fill-opacity:1;fill-rule:nonzero;stroke:none"
                 d="m 0,0 c 0,0 21.038,-2.344 37.574,5.627 16.536,7.97 19.843,21.842 19.476,35.438 -0.29,10.732 0.067,41.614 -0.621,54.148 -0.26,4.729 -2.583,9.355 -4.852,13.513 C 45.941,119.053 28.139,135.101 0,131.215 -40.789,125.583 -37.188,79.702 -37.188,79.702 l -1.138,-46.354 c 0,0 -5.403,-35.553 38.326,-33.348" /></g><g
               transform="translate(321.6299,221.957)"
               id="g40"><path
                 inkscape:connector-curvature="0"
                 id="path42"
                 style="fill:#121116;fill-opacity:1;fill-rule:nonzero;stroke:none"
                 d="m 0,0 c 0,0 31.733,3.598 32.275,33.936 0.541,30.337 -2.167,64.467 -34.671,62.3 0,0 -20.286,-1.571 -22.625,-18.497 L -25.149,32.31 c 0,0 -2.48,-20.606 25.149,-32.31" /></g></g></g><g
           id="g44"><g
             clip-path="url(#clipPath50)"
             id="g46"><g
               transform="translate(336.2646,261.9443)"
               id="g52"><path
                 inkscape:connector-curvature="0"
                 id="path54"
                 style="fill:#fbc39d;fill-opacity:1;fill-rule:nonzero;stroke:none"
                 d="m 0,0 h -15.785 c -3.189,0 -5.774,-2.902 -5.774,-6.481 v -27.784 c 0,-8.472 6.119,-15.34 13.666,-15.34 7.548,0 13.666,6.868 13.666,15.34 V -6.481 C 5.773,-2.902 3.188,0 0,0" /></g><g
               transform="translate(315.4248,250.8813)"
               id="g56"><path
                 inkscape:connector-curvature="0"
                 id="path58"
                 style="fill:#f9ac7f;fill-opacity:1;fill-rule:nonzero;stroke:none"
                 d="m 0,0 c 0,0 -4.444,-12.481 8.115,-12.481 12.56,0 19.141,12.27 19.141,12.27 z" /></g><g
               transform="translate(322.4609,244.2637)"
               id="g60"><path
                 inkscape:connector-curvature="0"
                 id="path62"
                 style="fill:#fbc39d;fill-opacity:1;fill-rule:nonzero;stroke:none"
                 d="m 0,0 -0.051,-0.051 c 0.796,-0.066 1.599,-0.108 2.412,-0.108 2.444,0 4.816,0.308 7.082,0.883 0.01,0.02 0.019,0.041 0.029,0.061 12.545,3.194 21.83,14.641 21.83,28.277 v 33.097 c 0,16.108 -12.957,13.542 -28.941,13.542 -15.983,0 -28.941,2.566 -28.941,-13.542 V 29.062 C -26.58,13.755 -14.878,1.212 0,0" /></g><g
               transform="translate(294.8516,314.9033)"
               id="g64"><path
                 inkscape:connector-curvature="0"
                 id="path66"
                 style="fill:#3b1000;fill-opacity:1;fill-rule:nonzero;stroke:none"
                 d="m 0,0 c 0,0 -1.859,-12.587 26.748,-19.882 0,0 -5.618,5.583 -5.914,8.176 0,0 4.138,-6.981 22.792,-9.607 0,0 -8.496,5.202 -7.971,8.164 0,0 12.834,-11.467 25.052,-8.056 L 53.031,1.234 C 44.092,12.503 23.516,10.148 10.31,4.449 Z" /></g><g
               id="g68"><g
                 id="g70" /><g
                 id="g82"><g
                   style="opacity:0.27000403"
                   id="g80"
                   clip-path="url(#clipPath74)"><g
                     id="g78"
                     transform="translate(293.9219,276.8057)"><path
                       inkscape:connector-curvature="0"
                       id="path76"
                       style="fill:#e1926a;fill-opacity:1;fill-rule:nonzero;stroke:none"
                       d="m 0,0 c 0,0 -1.303,23.442 21.764,23.392 40.574,-0.089 41.755,-58.475 41.755,-58.475 0,0 15.41,80.697 -40.989,80.895 C -6.421,45.913 0,0 0,0" /></g></g></g></g></g></g><g
           id="g92"
           transform="translate(318.9619,265.8262)"><path
             d="m 0,0 h -1.758 c -2.078,0 -3.686,1.89 -3.429,4.029 l 0.88,8.74 c 0.216,1.793 1.686,3.139 3.428,3.139 1.743,0 3.213,-1.346 3.429,-3.139 L 3.429,4.029 C 3.687,1.89 2.079,0 0,0"
             style="fill:#f9ac7f;fill-opacity:1;fill-rule:nonzero;stroke:none"
             id="path94"
             inkscape:connector-curvature="0" /></g><g
           id="g96"
           transform="translate(330.5703,268.4502)"><path
             d="M 0,0 H 7.646 C 13.668,0 18.55,4.882 18.55,10.904 v 5.094 c 0,3.203 -2.597,5.799 -5.799,5.799 H -2.953 c -3.589,0 -6.499,-2.91 -6.499,-6.499 V 9.451 C -9.452,4.231 -5.221,0 0,0"
             style="fill:#150d03;fill-opacity:1;fill-rule:nonzero;stroke:none"
             id="path98"
             inkscape:connector-curvature="0" /></g><path
           d="m 321.63,279.168 h -7.094 v 5.131 h 7.094 z"
           style="fill:#150d03;fill-opacity:1;fill-rule:nonzero;stroke:none"
           id="path100"
           inkscape:connector-curvature="0" /><g
           id="g102"
           transform="translate(349.0859,284.2993)"><path
             d="M 0,0 H -8.567 V 5.948 H 0 C 1.643,5.948 2.975,4.616 2.975,2.974 2.975,1.332 1.643,0 0,0"
             style="fill:#150d03;fill-opacity:1;fill-rule:nonzero;stroke:none"
             id="path104"
             inkscape:connector-curvature="0" /></g><g
           id="g106"
           transform="translate(306.4268,268.4502)"><path
             d="m 0,0 h -3.148 c -5.168,0 -9.357,4.188 -9.357,9.355 v 7.466 c 0,2.748 2.228,4.976 4.976,4.976 H 2.533 c 3.08,0 5.576,-2.497 5.576,-5.576 V 8.109 C 8.109,3.63 4.479,0 0,0"
             style="fill:#150d03;fill-opacity:1;fill-rule:nonzero;stroke:none"
             id="path108"
             inkscape:connector-curvature="0" /></g><g
           id="g110"
           transform="translate(294.3096,284.2993)"><path
             d="M 0,0 H 5.944 V 5.948 H 0 c -1.41,0 -2.552,-1.142 -2.552,-2.552 V 2.552 C -2.552,1.142 -1.41,0 0,0"
             style="fill:#150d03;fill-opacity:1;fill-rule:nonzero;stroke:none"
             id="path112"
             inkscape:connector-curvature="0" /></g><g
           id="g114"
           transform="translate(313.4844,258.7417)"><path
             d="M 0,0 H 10.056"
             style="fill:none;stroke:#e58b5e;stroke-width:1.28699994;stroke-linecap:round;stroke-linejoin:round;stroke-miterlimit:10;stroke-dasharray:none;stroke-opacity:1"
             id="path116"
             inkscape:connector-curvature="0" /></g><path
           d="m 316.453,121.371 h -28.007 v 12.2 h 28.007 z"
           style="fill:#fbc39d;fill-opacity:1;fill-rule:nonzero;stroke:none"
           id="path118"
           inkscape:connector-curvature="0" /><g
           id="g120"
           transform="translate(302.4502,123.6895)"><path
             d="m 0,0 c 0,9.174 -8.803,16.611 -19.662,16.611 -10.859,0 -19.662,-7.437 -19.662,-16.611 0,-0.789 0.088,-1.559 0.213,-2.318 H -0.214 C -0.088,-1.559 0,-0.789 0,0"
             style="fill:#fbc39d;fill-opacity:1;fill-rule:nonzero;stroke:none"
             id="path122"
             inkscape:connector-curvature="0" /></g><g
           id="g124"
           transform="translate(367.4238,224.1387)"><path
             d="m 0,0 h -2.218 v -77.25 h -55.671 v -25.724 h 55.671 9.723 1.208 c 9.777,0 17.702,8.097 17.702,18.085 v 57.903 C 26.415,-12.082 14.589,0 0,0"
             style="fill:#1a1a1e;fill-opacity:1;fill-rule:nonzero;stroke:none"
             id="path126"
             inkscape:connector-curvature="0" /></g><g
           id="g128"
           transform="translate(316.7852,220.3818)"><path
             d="m 0,0 c 0.121,-1.686 -1.146,-3.149 -2.831,-3.271 -1.686,-0.121 -3.149,1.147 -3.271,2.832 -0.121,1.684 1.147,3.149 2.831,3.27 C -1.586,2.952 -0.121,1.685 0,0"
             style="fill:#121116;fill-opacity:1;fill-rule:nonzero;stroke:none"
             id="path130"
             inkscape:connector-curvature="0" /></g><g
           id="g132"
           transform="translate(333.3477,219.7988)"><path
             d="m 0,0 c 0.121,-1.685 -1.146,-3.148 -2.831,-3.27 -1.686,-0.121 -3.149,1.147 -3.271,2.832 -0.121,1.684 1.147,3.148 2.831,3.27 C -1.586,2.953 -0.121,1.686 0,0"
             style="fill:#121116;fill-opacity:1;fill-rule:nonzero;stroke:none"
             id="path134"
             inkscape:connector-curvature="0" /></g><g
           id="g136"
           transform="translate(313.6309,219.9492)"><path
             d="M 0,0 C 0,0 -5.195,-9.075 0.416,-16.878"
             style="fill:none;stroke:#54535e;stroke-width:2.87299991;stroke-linecap:round;stroke-linejoin:round;stroke-miterlimit:10;stroke-dasharray:none;stroke-opacity:1"
             id="path138"
             inkscape:connector-curvature="0" /></g><g
           id="g140"
           transform="translate(311.6357,202.8281)"><path
             d="M 0,0 C -0.137,1.215 0.733,2.309 1.942,2.442 3.152,2.576 4.242,1.7 4.379,0.485 4.515,-0.729 3.645,-1.823 2.436,-1.957 1.227,-2.091 0.136,-1.214 0,0"
             style="fill:#54535e;fill-opacity:1;fill-rule:nonzero;stroke:none"
             id="path142"
             inkscape:connector-curvature="0" /></g><g
           id="g144"
           transform="translate(330.4912,219.4346)"><path
             d="M 0,0 C 0,0 5.195,-9.075 -0.416,-16.879"
             style="fill:none;stroke:#54535e;stroke-width:2.87299991;stroke-linecap:round;stroke-linejoin:round;stroke-miterlimit:10;stroke-dasharray:none;stroke-opacity:1"
             id="path146"
             inkscape:connector-curvature="0" /></g><g
           id="g148"
           transform="translate(332.4863,202.3135)"><path
             d="M 0,0 C 0.136,1.215 -0.733,2.309 -1.943,2.442 -3.152,2.576 -4.243,1.7 -4.379,0.485 -4.516,-0.729 -3.646,-1.823 -2.436,-1.957 -1.227,-2.091 -0.136,-1.215 0,0"
             style="fill:#54535e;fill-opacity:1;fill-rule:nonzero;stroke:none"
             id="path150"
             inkscape:connector-curvature="0" /></g><g
           id="g202"
           transform="translate(462.043,112.0781)"><path
             d="m 0,0 h -414.855 c -2.567,0 -4.647,2.08 -4.647,4.646 0,2.567 2.08,4.647 4.647,4.647 H 0 c 2.566,0 4.646,-2.08 4.646,-4.647 C 4.646,2.08 2.566,0 0,0"
             style="fill:#727293;fill-opacity:1;fill-rule:nonzero;stroke:none"
             id="path204"
             inkscape:connector-curvature="0" /></g><g
           id="g206"
           transform="translate(392.7041,124.3672)"><path
             d="m 0,0 c -2.855,0 -5.91,0.516 -8.344,2.18 -2.779,1.901 -4.299,4.884 -4.516,8.868 -0.328,6.014 1.141,10.243 4.363,12.567 4.921,3.555 11.816,0.906 12.106,0.79 L 1.947,20.18 2.778,22.292 1.953,20.177 c -1.354,0.521 -5.398,1.499 -7.804,-0.252 -2.34,-1.7 -2.635,-5.632 -2.473,-8.632 C -8.187,8.764 -7.355,7.01 -5.784,5.934 -2.119,3.42 4.95,4.904 7.361,5.689 L 8.775,1.372 C 8.505,1.285 4.502,0 0,0"
             style="fill:#dedede;fill-opacity:1;fill-rule:nonzero;stroke:none"
             id="path208"
             inkscape:connector-curvature="0" /></g><g
           id="g210"
           transform="translate(396.6426,154.6221)"><path
             d="m 0,0 c -1.808,0 -3.273,-1.466 -3.273,-3.274 v -27.055 c 0,-1.808 1.465,-3.274 3.273,-3.274 H 8.246 V 0 Z"
             style="fill:#dedede;fill-opacity:1;fill-rule:nonzero;stroke:none"
             id="path212"
             inkscape:connector-curvature="0" /></g><g
           id="g214"
           transform="translate(424.2715,124.293)"><path
             d="m 0,0 v 27.055 c 0,1.808 -1.466,3.274 -3.273,3.274 h -16.11 V -3.273 h 16.11 C -1.466,-3.273 0,-1.808 0,0"
             style="fill:#cecece;fill-opacity:1;fill-rule:nonzero;stroke:none"
             id="path216"
             inkscape:connector-curvature="0" /></g><g
           id="g218"><g
             id="g220" /><g
             id="g290"><g
               clip-path="url(#clipPath224)"
               id="g288"
               style="opacity:0.63999897"><g
                 id="g286"><g
                   clip-path="url(#clipPath228)"
                   id="g284"><g
                     id="g282"><g
                       id="g274" /><g
                       mask="url(#mask248)"
                       id="g280"><g
                         id="g278"><path
                           d="M 92.124,220.137 466.689,469.56 V 121.371 H 123.223 Z"
                           style="fill:url(#linearGradient272);stroke:none"
                           id="path276"
                           inkscape:connector-curvature="0" /></g></g></g></g></g></g></g></g><g
           id="g292"
           transform="translate(155.0088,220.1367)"><path
             d="m 0,0 h 42.725 c 1.743,0 3.278,-1.149 3.768,-2.823 L 72.243,-90.76 H 20.861 L -3.774,-5.011 C -4.495,-2.501 -2.611,0 0,0"
             style="fill:#dedede;fill-opacity:1;fill-rule:nonzero;stroke:none"
             id="path294"
             inkscape:connector-curvature="0" /></g><g
           id="g296"
           transform="translate(92.1235,220.1367)"><path
             d="m 0,0 h 99.734 c 1.744,0 3.279,-1.149 3.769,-2.823 L 129.252,-90.76 H 20.861 L -3.774,-5.011 C -4.495,-2.501 -2.611,0 0,0"
             style="fill:#9a9899;fill-opacity:1;fill-rule:nonzero;stroke:none"
             id="path298"
             inkscape:connector-curvature="0" /></g><g
           id="g300"
           transform="translate(221.376,121.0635)"><path
             d="m 0,0 h -104.51 c -2.144,0 -3.882,1.738 -3.882,3.882 V 8.313 H 0 Z"
             style="fill:#7f7e7f;fill-opacity:1;fill-rule:nonzero;stroke:none"
             id="path302"
             inkscape:connector-curvature="0" /></g><g
           id="g304"
           transform="translate(287.6562,121.0635)"><path
             d="M 0,0 H -66.28 V 8.313 H 0 C 2.296,8.313 4.156,6.452 4.156,4.156 4.156,1.861 2.296,0 0,0"
             style="fill:#9a9899;fill-opacity:1;fill-rule:nonzero;stroke:none"
             id="path306"
             inkscape:connector-curvature="0" /></g><g
           id="g308"
           transform="translate(141.1719,176.9932)"><path
             d="M 0,0 C 2.356,0.001 4.527,-1.893 4.849,-4.23 5.17,-6.568 3.521,-8.466 1.164,-8.468 -1.192,-8.469 -3.363,-6.575 -3.685,-4.237 -4.006,-1.899 -2.356,-0.002 0,0 m 7.246,-9.369 1.592,-2.325 c 0.324,-0.475 -0.028,-1.03 -0.574,-0.905 l -1.012,0.233 c -0.099,0.022 -0.2,0.022 -0.293,0 l -0.947,-0.235 c -0.512,-0.126 -1.017,0.429 -0.823,0.904 l 0.953,2.327 c 0.177,0.434 0.806,0.435 1.104,10e-4 m 4.212,9.631 c 2.498,0.001 4.798,-2.006 5.139,-4.485 0.341,-2.477 -1.407,-4.488 -3.905,-4.49 -2.497,-0.002 -4.798,2.006 -5.139,4.484 -0.341,2.478 1.408,4.489 3.905,4.491 m -12.685,-16.1 0.302,-2.193 c 0.168,-1.219 1.299,-2.206 2.527,-2.205 1.228,0.001 2.088,0.989 1.92,2.208 l -0.215,1.569 2.48,0.002 0.215,-1.569 c 0.168,-1.219 1.299,-2.206 2.527,-2.205 1.228,0.001 2.088,0.989 1.92,2.208 l -0.216,1.569 2.48,0.002 0.216,-1.569 c 0.168,-1.219 1.299,-2.207 2.527,-2.206 1.228,0.001 2.088,0.99 1.92,2.208 l -0.301,2.194 c 2.279,2.429 3.452,5.866 2.925,9.698 C 18.99,1.221 12.167,7.173 4.762,7.168 -2.644,7.162 -7.829,1.201 -6.818,-6.146 c 0.526,-3.832 2.646,-7.267 5.591,-9.692"
             style="fill:#dedede;fill-opacity:1;fill-rule:nonzero;stroke:none"
             id="path310"
             inkscape:connector-curvature="0" /></g></g></g></g></svg>