<?xml version="1.0" encoding="iso-8859-1"?>
<!-- Generator: Adobe Illustrator 19.0.0, SVG Export Plug-In . SVG Version: 6.00 Build 0)  -->
<svg version="1.1" id="Layer_1" xmlns="http://www.w3.org/2000/svg" xmlns:xlink="http://www.w3.org/1999/xlink" x="0px" y="0px"
	 viewBox="0 0 350 350" style="enable-background:new 0 0 350 350;" xml:space="preserve">
<g id="XMLID_7_">
	<path id="XMLID_245_" style="fill:#A0815C;" d="M215,17.503C202.602,12.661,189.112,10,175,10C114.249,10,65,59.249,65,120v40h150
		h70v-40C285,73.361,255.973,33.505,215,17.503z"/>
	<path id="XMLID_307_" style="fill:#FF9811;" d="M196,250h-21h-21c-38.107,0-69,30.893-69,69v31h90h90v-31
		C265,280.893,234.107,250,196,250z"/>
	<g id="XMLID_308_">
		<path id="XMLID_309_" style="fill:#FF5023;" d="M175,250h-21c-38.107,0-69,30.893-69,69v31h90V250z"/>
	</g>
	<g id="XMLID_311_">
		<path id="XMLID_312_" style="fill:#786145;" d="M215,160V17.503C202.602,12.661,189.112,10,175,10C114.249,10,65,59.249,65,120v40
			H215z"/>
	</g>
	<g id="XMLID_333_">
		<path id="XMLID_334_" style="fill:#FFEACF;" d="M205,250c0,16.568-13.432,30-30,30l0,0c-16.568,0-30-13.432-30-30v-30
			c0-16.568,13.432-30,30-30l0,0c16.568,0,30,13.432,30,30V250z"/>
	</g>
	<g id="XMLID_337_">
		<ellipse id="XMLID_338_" style="fill:#FFEACF;" cx="175" cy="145" rx="100" ry="105"/>
	</g>
	<g id="XMLID_340_">
		<path id="XMLID_341_" style="fill:#E8667D;" d="M175,215.858c-17.419,0-33.58-9.436-42.176-24.627
			c-0.68-1.202-0.257-2.727,0.945-3.407c1.201-0.681,2.727-0.257,3.407,0.945c7.71,13.625,22.203,22.089,37.824,22.089
			c15.622,0,30.115-8.464,37.824-22.089c0.681-1.202,2.204-1.624,3.407-0.945c1.201,0.68,1.624,2.205,0.944,3.407
			C208.581,206.422,192.421,215.858,175,215.858z"/>
	</g>
	<g id="XMLID_348_">
		<g id="XMLID_350_">
			<ellipse id="XMLID_351_" style="fill:#FFB9A7;" cx="140" cy="170" rx="15" ry="10"/>
		</g>
		<g id="XMLID_352_">
			<circle id="XMLID_439_" style="fill:#50412E;" cx="140" cy="147.5" r="7.5"/>
		</g>
	</g>
	<g id="XMLID_440_">
		<g id="XMLID_441_">
			<ellipse id="XMLID_443_" style="fill:#FFB9A7;" cx="210" cy="170" rx="15" ry="10"/>
		</g>
		<g id="XMLID_444_">
			<circle id="XMLID_445_" style="fill:#50412E;" cx="210" cy="147.5" r="7.5"/>
		</g>
	</g>
	<g id="XMLID_446_">
		<path id="XMLID_447_" style="fill:#FFD6A0;" d="M175,238c-22.528,0-44.083-4.358-63.96-12.294C128.376,240.872,150.67,250,175,250
			s46.624-9.128,63.959-24.294C219.084,233.642,197.528,238,175,238z"/>
	</g>
	<g id="XMLID_448_">
		<circle id="XMLID_449_" style="fill:#FFEACF;" cx="75" cy="160" r="20"/>
	</g>
	<g id="XMLID_450_">
		<circle id="XMLID_451_" style="fill:#FFEACF;" cx="275" cy="160" r="20"/>
	</g>
	<path id="XMLID_452_" style="fill:#A0815C;" d="M265,80c-9.46-14.189-50-50-50-50L75,140c0,0,120-10,140-80c0,60,60,80,60,80
		S285,110,265,80z"/>
	<g id="XMLID_453_">
		<path id="XMLID_454_" style="fill:#786145;" d="M75,140c0,0,120-10,140-80V30l-71.5-2.5L86,61.5l-16,41L75,140z"/>
	</g>
	<g id="XMLID_455_">
		<path id="XMLID_62_" style="fill:#786145;" d="M215,0c-11.046,0-20,8.954-20,20s8.954,20,20,20V0z"/>
	</g>
	<g id="XMLID_458_">
		<path id="XMLID_60_" style="fill:#786145;" d="M75,160c11.046,0,20-8.954,20-20s-8.954-20-20-20V160z"/>
	</g>
	<g id="XMLID_459_">
		<path id="XMLID_58_" style="fill:#A0815C;" d="M275,160c-11.046,0-20-8.954-20-20s8.954-20,20-20V160z"/>
	</g>
</g>
<g>
</g>
<g>
</g>
<g>
</g>
<g>
</g>
<g>
</g>
<g>
</g>
<g>
</g>
<g>
</g>
<g>
</g>
<g>
</g>
<g>
</g>
<g>
</g>
<g>
</g>
<g>
</g>
<g>
</g>
</svg>
