<?xml version="1.0" encoding="iso-8859-1"?>
<!-- Generator: Adobe Illustrator 19.0.0, SVG Export Plug-In . SVG Version: 6.00 Build 0)  -->
<svg version="1.1" id="Layer_1" xmlns="http://www.w3.org/2000/svg" xmlns:xlink="http://www.w3.org/1999/xlink" x="0px" y="0px"
	 viewBox="0 0 360 360" style="enable-background:new 0 0 360 360;" xml:space="preserve">
<g id="XMLID_1103_">
	<path id="XMLID_1104_" style="fill:#00D7DF;" d="M201,260h-21h-21c-38.107,0-69,30.893-69,69v31h90h90v-31
		C270,290.893,239.107,260,201,260z"/>
	<g id="XMLID_1105_">
		<path id="XMLID_1106_" d="M180,170L230,0c0,0-160,10-160,130v40H180z"/>
	</g>
	<g id="XMLID_1107_">
		<path id="XMLID_1108_" style="fill:#50412E;" d="M180,90l50-90c0,0,60,40,60,130v40H180V90z"/>
	</g>
	<g id="XMLID_1109_">
		<path id="XMLID_1110_" style="fill:#00A1A7;" d="M180,260h-21c-38.107,0-69,30.893-69,69v31h90V260z"/>
	</g>
	<g id="XMLID_1111_">
		<path id="XMLID_1112_" style="fill:#FFEACF;" d="M210,260c0,16.568-13.432,30-30,30l0,0c-16.568,0-30-13.432-30-30v-30
			c0-16.568,13.432-30,30-30l0,0c16.568,0,30,13.432,30,30V260z"/>
	</g>
	<g id="XMLID_1113_">
		<ellipse id="XMLID_1114_" style="fill:#FFEACF;" cx="180" cy="155" rx="100" ry="105"/>
	</g>
	<g id="XMLID_1115_">
		<path id="XMLID_1116_" style="fill:#E8667D;" d="M180,225.858c-17.42,0-33.58-9.436-42.176-24.627
			c-0.68-1.202-0.257-2.727,0.944-3.407s2.727-0.257,3.407,0.945c7.71,13.625,22.203,22.089,37.824,22.089
			c15.622,0,30.115-8.464,37.824-22.089c0.681-1.202,2.205-1.624,3.407-0.945c1.201,0.68,1.624,2.205,0.944,3.407
			C213.581,216.422,197.421,225.858,180,225.858z"/>
	</g>
	<g id="XMLID_1117_">
		<g id="XMLID_1118_">
			<ellipse id="XMLID_1119_" style="fill:#FFB9A7;" cx="145" cy="180" rx="15" ry="10"/>
		</g>
		<g id="XMLID_1120_">
			<circle id="XMLID_1121_" style="fill:#50412E;" cx="145" cy="157.5" r="7.5"/>
		</g>
	</g>
	<g id="XMLID_1122_">
		<g id="XMLID_1123_">
			<ellipse id="XMLID_1124_" style="fill:#FFB9A7;" cx="215" cy="180" rx="15" ry="10"/>
		</g>
		<g id="XMLID_1125_">
			<circle id="XMLID_1126_" style="fill:#50412E;" cx="215" cy="157.5" r="7.5"/>
		</g>
	</g>
	<g id="XMLID_1127_">
		<path id="XMLID_1128_" style="fill:#FFD6A0;" d="M180,248c-22.528,0-44.084-4.358-63.959-12.294
			C133.376,250.872,155.67,260,180,260s46.624-9.128,63.959-24.294C224.084,243.642,202.528,248,180,248z"/>
	</g>
	<g id="XMLID_1129_">
		<circle id="XMLID_1130_" style="fill:#FFEACF;" cx="80" cy="170" r="20"/>
	</g>
	<g id="XMLID_1131_">
		<circle id="XMLID_1132_" style="fill:#FFEACF;" cx="280" cy="170" r="20"/>
	</g>
	<path id="XMLID_1133_" style="fill:#50412E;" d="M230,0l-70,60l20,30h80v60c0,11.046,8.954,20,20,20v-70L230,0z"/>
	<g id="XMLID_1134_">
		<rect id="XMLID_1135_" x="100" y="90" style="fill:#FFEACF;" width="160" height="30"/>
	</g>
	<path id="XMLID_1136_" d="M110,60l-30,40v70c11.046,0,20-8.954,20-20V90h80l50-90L110,60z"/>
</g>
<g>
</g>
<g>
</g>
<g>
</g>
<g>
</g>
<g>
</g>
<g>
</g>
<g>
</g>
<g>
</g>
<g>
</g>
<g>
</g>
<g>
</g>
<g>
</g>
<g>
</g>
<g>
</g>
<g>
</g>
</svg>
