<?xml version="1.0" encoding="iso-8859-1"?>
<!-- Generator: Adobe Illustrator 19.0.0, SVG Export Plug-In . SVG Version: 6.00 Build 0)  -->
<svg version="1.1" id="Layer_1" xmlns="http://www.w3.org/2000/svg" xmlns:xlink="http://www.w3.org/1999/xlink" x="0px" y="0px"
	 viewBox="0 0 370 370" style="enable-background:new 0 0 370 370;" xml:space="preserve">
<g id="XMLID_91_">
	<path id="XMLID_460_" style="fill:#64C37D;" d="M196,270h-21h-21c-38.107,0-69,30.893-69,69v31h90h90v-31
		C265,300.893,234.107,270,196,270z"/>
	<g id="XMLID_461_">
		<path id="XMLID_462_" style="fill:#FF9811;" d="M135,180V37.503C147.398,32.661,160.888,30,175,30c60.751,0,110,49.249,110,110v10
			L135,180z"/>
	</g>
	<g id="XMLID_463_">
		<path id="XMLID_464_" style="fill:#4B925E;" d="M175,270h-21c-38.107,0-69,30.893-69,69v31h90V270z"/>
	</g>
	<g id="XMLID_466_">
		<path id="XMLID_467_" style="fill:#FFEACF;" d="M205,270c0,16.568-13.432,30-30,30l0,0c-16.568,0-30-13.432-30-30v-30
			c0-16.568,13.432-30,30-30l0,0c16.568,0,30,13.432,30,30V270z"/>
	</g>
	<g id="XMLID_468_">
		<path id="XMLID_469_" style="fill:#BF720D;" d="M135,37.503V180H65v-50C65,83.361,94.027,53.505,135,37.503z"/>
	</g>
	<g id="XMLID_470_">
		<ellipse id="XMLID_472_" style="fill:#FFEACF;" cx="175" cy="165" rx="100" ry="105"/>
	</g>
	<g id="XMLID_473_">
		<path id="XMLID_474_" style="fill:#E8667D;" d="M175,235.858c-17.42,0-33.58-9.436-42.176-24.627
			c-0.68-1.202-0.257-2.727,0.944-3.407c1.2-0.68,2.727-0.257,3.407,0.945c7.71,13.625,22.203,22.089,37.824,22.089
			c15.622,0,30.115-8.464,37.824-22.089c0.68-1.202,2.204-1.624,3.407-0.945c1.201,0.68,1.624,2.205,0.944,3.407
			C208.581,226.422,192.421,235.858,175,235.858z"/>
	</g>
	<g id="XMLID_475_">
		<g id="XMLID_476_">
			<ellipse id="XMLID_477_" style="fill:#FFB9A7;" cx="140" cy="190" rx="15" ry="10"/>
		</g>
		<g id="XMLID_478_">
			<circle id="XMLID_479_" style="fill:#50412E;" cx="140" cy="167.5" r="7.5"/>
		</g>
	</g>
	<g id="XMLID_481_">
		<g id="XMLID_482_">
			<ellipse id="XMLID_483_" style="fill:#FFB9A7;" cx="210" cy="190" rx="15" ry="10"/>
		</g>
		<g id="XMLID_484_">
			<circle id="XMLID_486_" style="fill:#50412E;" cx="210" cy="167.5" r="7.5"/>
		</g>
	</g>
	<g id="XMLID_487_">
		<path id="XMLID_488_" style="fill:#FFD6A0;" d="M175,258c-22.528,0-44.084-4.358-63.959-12.294
			C128.376,260.872,150.67,270,175,270s46.624-9.128,63.959-24.294C219.084,253.642,197.528,258,175,258z"/>
	</g>
	<g id="XMLID_489_">
		<circle id="XMLID_490_" style="fill:#FFEACF;" cx="75" cy="180" r="20"/>
	</g>
	<g id="XMLID_491_">
		<circle id="XMLID_493_" style="fill:#FFEACF;" cx="275" cy="180" r="20"/>
	</g>
	<g id="XMLID_494_">
		<path id="XMLID_495_" style="fill:#BF720D;" d="M95,160l40-70V60c0,0-40.54,25.811-50,40c-8.998,13.497-10,60-10,60H95z"/>
	</g>
	<g id="XMLID_496_">
		<path id="XMLID_73_" style="fill:#BF720D;" d="M75,180c11.046,0,20-8.954,20-20s-8.954-20-20-20V180z"/>
	</g>
	<g id="XMLID_497_">
		<path id="XMLID_70_" style="fill:#FF9811;" d="M275,180c-11.046,0-20-8.954-20-20s8.954-20,20-20V180z"/>
	</g>
	<g id="XMLID_498_">
		<path id="XMLID_500_" style="fill:#FF9811;" d="M161.925,130c37.458,29.993,97.997,30,113.075,30c30,0,40-20,40-20l-30-10H161.925
			z"/>
	</g>
	<polygon id="XMLID_501_" style="fill:#FFB9A7;" points="175,330 135,370 175,370 215,370 	"/>
	<g id="XMLID_502_">
		<polygon id="XMLID_503_" style="fill:#F285B9;" points="135,370 175,330 175,370 		"/>
	</g>
	<g id="XMLID_504_">
		<path id="XMLID_505_" style="fill:#99EFF2;" d="M185,40c0,5.523-4.477,10-10,10l0,0c-5.523,0-10-4.477-10-10V10
			c0-5.523,4.477-10,10-10l0,0c5.523,0,10,4.477,10,10V40z"/>
	</g>
	<path id="XMLID_506_" style="fill:#00D7DF;" d="M175,10C114.249,10,65,59.249,65,120v10h110h110v-10C285,59.249,235.751,10,175,10z
		"/>
	<g id="XMLID_507_">
		<path id="XMLID_508_" style="fill:#00A1A7;" d="M175,130c0,0,0-70,0-120C114.249,10,65,59.249,65,120v10H175z"/>
	</g>
	<g id="XMLID_509_">
		<path id="XMLID_510_" style="fill:#99EFF2;" d="M65,130c0-27.614,49.249-50,110-50s110,22.386,110,50"/>
	</g>
</g>
<g>
</g>
<g>
</g>
<g>
</g>
<g>
</g>
<g>
</g>
<g>
</g>
<g>
</g>
<g>
</g>
<g>
</g>
<g>
</g>
<g>
</g>
<g>
</g>
<g>
</g>
<g>
</g>
<g>
</g>
</svg>
