<?xml version="1.0" encoding="iso-8859-1"?>
<!-- Generator: Adobe Illustrator 19.0.0, SVG Export Plug-In . SVG Version: 6.00 Build 0)  -->
<svg version="1.1" id="Layer_1" xmlns="http://www.w3.org/2000/svg" xmlns:xlink="http://www.w3.org/1999/xlink" x="0px" y="0px"
	 viewBox="0 0 350 350" style="enable-background:new 0 0 350 350;" xml:space="preserve">
<g id="XMLID_3_">
	<path id="XMLID_1399_" style="fill:#50412E;" d="M196,250h-21h-21c-38.107,0-69,30.893-69,69v31h90h90v-31
		C265,280.893,234.107,250,196,250z"/>
	<path id="XMLID_1400_" d="M175,250h-21c-38.107,0-69,30.893-69,69v31h90V250z"/>
	<path id="XMLID_1401_" style="fill:#FFEACF;" d="M205,250c0,16.568-13.432,30-30,30l0,0c-16.568,0-30-13.432-30-30v-30
		c0-16.568,13.432-30,30-30l0,0c16.568,0,30,13.432,30,30V250z"/>
	<ellipse id="XMLID_1402_" style="fill:#FFEACF;" cx="175" cy="145" rx="100" ry="105"/>
	<path id="XMLID_1403_" style="fill:#E8667D;" d="M175,215.858c-17.42,0-33.58-9.436-42.176-24.627
		c-0.68-1.202-0.257-2.727,0.944-3.407c1.2-0.68,2.727-0.257,3.407,0.945c7.71,13.625,22.203,22.089,37.824,22.089
		c15.622,0,30.115-8.464,37.824-22.089c0.68-1.201,2.204-1.624,3.407-0.945c1.201,0.68,1.624,2.205,0.944,3.407
		C208.581,206.422,192.421,215.858,175,215.858z"/>
	<g id="XMLID_1404_">
		<ellipse id="XMLID_1405_" style="fill:#FFB9A7;" cx="140" cy="170" rx="15" ry="10"/>
	</g>
	<g id="XMLID_1406_">
		<circle id="XMLID_1407_" style="fill:#50412E;" cx="140" cy="147.5" r="7.5"/>
	</g>
	<g id="XMLID_1408_">
		<ellipse id="XMLID_1409_" style="fill:#FFB9A7;" cx="210" cy="170" rx="15" ry="10"/>
	</g>
	<g id="XMLID_1410_">
		<circle id="XMLID_1411_" style="fill:#50412E;" cx="210" cy="147.5" r="7.5"/>
	</g>
	<path id="XMLID_1412_" style="fill:#FFD6A0;" d="M175,238c-22.528,0-44.084-4.358-63.959-12.294
		C128.376,240.872,150.67,250,175,250s46.624-9.128,63.959-24.294C219.084,233.642,197.528,238,175,238z"/>
	<circle id="XMLID_1413_" style="fill:#FFEACF;" cx="75" cy="160" r="20"/>
	<circle id="XMLID_1414_" style="fill:#FFEACF;" cx="275" cy="160" r="20"/>
	<path id="XMLID_1415_" style="fill:#FF9811;" d="M282.439,88.145C284.085,84.085,285,79.65,285,75
		c0-18.779-14.791-34.1-33.355-34.958C249.234,23.06,234.645,10,217,10c-5.223,0-10.174,1.152-14.626,3.204
		C195.961,5.16,186.086,0,175,0s-20.961,5.16-27.374,13.204C143.174,11.152,138.223,10,133,10c-17.646,0-32.234,13.06-34.645,30.042
		C79.791,40.9,65,56.221,65,75c0,4.65,0.915,9.085,2.562,13.145C59.886,94.564,55,104.21,55,115c0,19.33,15.671,35,35,35v-22.086
		c7.445-3.254,12.996-10.027,14.553-18.219c0.296-0.038,0.593-0.072,0.887-0.118c1.479,0.273,3.001,0.423,4.56,0.423
		c13.807,0,25-11.193,25-25c4.179,3.139,9.372,5,15,5c13.807,0,25-11.193,25-25c0,13.807,11.193,25,25,25c5.628,0,10.821-1.861,15-5
		c0,13.807,11.193,25,25,25c1.559,0,3.081-0.15,4.561-0.423c0.294,0.046,0.591,0.08,0.887,0.118
		c1.557,8.191,7.107,14.964,14.553,18.219V150c19.329,0,35-15.67,35-35C295,104.21,290.114,94.564,282.439,88.145z"/>
	<path id="XMLID_1416_" style="fill:#BF720D;" d="M67.562,88.145C65.915,84.085,65,79.65,65,75c0-18.779,14.791-34.1,33.355-34.958
		C100.766,23.06,115.354,10,133,10c5.223,0,10.174,1.152,14.626,3.204C154.039,5.16,163.914,0,175,0v30v20.333
		c0,5.925,0,11.622,0,14.667c0,13.807-11.193,25-25,25c-5.628,0-10.821-1.861-15-5c0,13.807-11.193,25-25,25
		c-1.559,0-3.081-0.15-4.561-0.423c-0.294,0.046-0.591,0.08-0.887,0.118c-1.557,8.191-7.107,14.964-14.553,18.219V150
		c-19.329,0-35-15.67-35-35C55,104.21,59.886,94.564,67.562,88.145z"/>
	<path id="XMLID_58_" style="fill:#BF720D;" d="M75,160c11.046,0,20-8.954,20-20s-8.954-20-20-20V160z"/>
	<path id="XMLID_57_" style="fill:#FF9811;" d="M275,160c-11.046,0-20-8.954-20-20s8.954-20,20-20V160z"/>
</g>
<g>
</g>
<g>
</g>
<g>
</g>
<g>
</g>
<g>
</g>
<g>
</g>
<g>
</g>
<g>
</g>
<g>
</g>
<g>
</g>
<g>
</g>
<g>
</g>
<g>
</g>
<g>
</g>
<g>
</g>
</svg>
