<?xml version="1.0" encoding="iso-8859-1"?>
<!-- Generator: Adobe Illustrator 19.0.0, SVG Export Plug-In . SVG Version: 6.00 Build 0)  -->
<svg version="1.1" id="Layer_1" xmlns="http://www.w3.org/2000/svg" xmlns:xlink="http://www.w3.org/1999/xlink" x="0px" y="0px"
	 viewBox="0 0 350 350" style="enable-background:new 0 0 350 350;" xml:space="preserve">
<g id="XMLID_1686_">
	<path id="XMLID_1687_" style="fill:#FF9811;" d="M196,250h-21h-21c-38.107,0-69,30.893-69,69v31h90h90v-31
		C265,280.893,234.107,250,196,250z"/>
	<path id="XMLID_1688_" style="fill:#FF5023;" d="M175,250h-21c-38.107,0-69,30.893-69,69v31h90V250z"/>
	<path id="XMLID_1689_" style="fill:#FFD6A0;" d="M205,250c0,16.568-30,50-30,50s-30-33.432-30-50v-30c0-16.568,13.432-30,30-30l0,0
		c16.568,0,30,13.432,30,30V250z"/>
	<path id="XMLID_1690_" style="fill:#50412E;" d="M282.439,88.145C284.085,84.085,285,79.65,285,75
		c0-18.779-14.791-34.1-33.355-34.959C249.234,23.06,234.645,10,217,10c-5.223,0-10.174,1.152-14.625,3.203
		C195.961,5.16,186.086,0,175,0s-20.961,5.16-27.375,13.203C143.174,11.152,138.223,10,133,10c-17.646,0-32.234,13.06-34.645,30.041
		C79.791,40.9,65,56.221,65,75c0,4.65,0.915,9.085,2.562,13.145C59.886,94.564,55,104.211,55,115c0,19.33,15.671,35,35,35
		s35-15.67,35-35c0-4.65-0.915-9.085-2.562-13.145c6.478-5.418,10.962-13.135,12.206-21.896c10.415-0.482,19.636-5.52,25.73-13.162
		C164.826,68.848,169.777,70,175,70s10.174-1.152,14.625-3.203c6.095,7.643,15.315,12.68,25.73,13.162
		c1.244,8.762,5.729,16.479,12.206,21.896C225.915,105.915,225,110.35,225,115c0,19.33,15.671,35,35,35s35-15.67,35-35
		C295,104.211,290.114,94.564,282.439,88.145z"/>
	<path id="XMLID_1691_" d="M175,0c-11.086,0-20.961,5.16-27.375,13.203C143.174,11.152,138.223,10,133,10
		c-17.646,0-32.234,13.06-34.645,30.041C79.791,40.9,65,56.221,65,75c0,4.65,0.915,9.085,2.562,13.145
		C59.886,94.564,55,104.211,55,115c0,19.33,15.671,35,35,35s35-15.67,35-35c0-4.65-0.915-9.085-2.562-13.145
		c6.478-5.418,10.962-13.135,12.206-21.896c10.415-0.482,19.636-5.52,25.73-13.162C164.826,68.848,169.777,70,175,70V0z"/>
	<ellipse id="XMLID_1692_" style="fill:#FFD6A0;" cx="175" cy="145" rx="100" ry="105"/>
	<path id="XMLID_1693_" style="fill:#E8667D;" d="M175,215.858c-17.42,0-33.58-9.436-42.176-24.627
		c-0.68-1.202-0.257-2.727,0.944-3.407c1.201-0.679,2.727-0.257,3.407,0.944c7.71,13.626,22.203,22.09,37.824,22.09
		c15.622,0,30.115-8.464,37.824-22.09c0.681-1.201,2.205-1.622,3.407-0.944c1.201,0.68,1.624,2.205,0.944,3.407
		C208.581,206.422,192.421,215.858,175,215.858z"/>
	<g id="XMLID_1694_">
		<ellipse id="XMLID_1695_" style="fill:#FFB9A7;" cx="140" cy="170" rx="15" ry="10"/>
	</g>
	<g id="XMLID_1696_">
		<circle id="XMLID_1697_" style="fill:#50412E;" cx="140" cy="147.5" r="7.5"/>
	</g>
	<g id="XMLID_1698_">
		<ellipse id="XMLID_1699_" style="fill:#FFB9A7;" cx="210" cy="170" rx="15" ry="10"/>
	</g>
	<g id="XMLID_1700_">
		<circle id="XMLID_1701_" style="fill:#50412E;" cx="210" cy="147.5" r="7.5"/>
	</g>
	<path id="XMLID_1702_" style="fill:#FFC170;" d="M175,238c-22.528,0-44.084-4.358-63.959-12.295
		C128.376,240.872,150.67,250,175,250s46.624-9.128,63.959-24.295C219.084,233.642,197.528,238,175,238z"/>
	<path id="XMLID_1703_" style="fill:#50412E;" d="M270,80l5,30l-5,20c-12.301,0-22.52-8.888-24.605-20.59
		c-1.738,0.382-3.542,0.59-5.395,0.59c-13.807,0-25-11.193-25-25c-4.179,3.139-9.371,5-15,5c-13.807,0-25-11.193-25-25
		c0-5.68-10-35-10-35l57.333,11.334L270,80z"/>
	<path id="XMLID_1704_" d="M80,80l-5,30l5,20c12.301,0,22.521-8.888,24.604-20.59c1.738,0.382,3.542,0.59,5.396,0.59
		c13.807,0,25-11.193,25-25c4.179,3.139,9.371,5,15,5c13.807,0,25-11.193,25-25c0-5.68,0-55,0-55L80,80z"/>
	<circle id="XMLID_1705_" style="fill:#FFD6A0;" cx="75" cy="160" r="20"/>
	<circle id="XMLID_1706_" style="fill:#FFD6A0;" cx="275" cy="160" r="20"/>
	<path id="XMLID_58_" d="M75,160c11.046,0,20-8.954,20-20s-8.954-20-20-20V160z"/>
	<path id="XMLID_57_" style="fill:#50412E;" d="M275,160c-11.046,0-20-8.954-20-20s8.954-20,20-20V160z"/>
</g>
<g>
</g>
<g>
</g>
<g>
</g>
<g>
</g>
<g>
</g>
<g>
</g>
<g>
</g>
<g>
</g>
<g>
</g>
<g>
</g>
<g>
</g>
<g>
</g>
<g>
</g>
<g>
</g>
<g>
</g>
</svg>
