<?xml version="1.0" encoding="iso-8859-1"?>
<!-- Generator: Adobe Illustrator 19.0.0, SVG Export Plug-In . SVG Version: 6.00 Build 0)  -->
<svg version="1.1" id="Layer_1" xmlns="http://www.w3.org/2000/svg" xmlns:xlink="http://www.w3.org/1999/xlink" x="0px" y="0px"
	 viewBox="0 0 360 360" style="enable-background:new 0 0 360 360;" xml:space="preserve">
<g id="XMLID_1548_">
	<path id="XMLID_1573_" style="fill:#FF9811;" d="M190,8.494V0c0,0-24.557,4.449-39.999,22.133H150V10c0,0-80,30-80,110v50h110
		L240,0C240,0,218.089,1.289,190,8.494z"/>
	<path id="XMLID_1574_" style="fill:#7C84E8;" d="M201,260h-21h-21c-38.107,0-69,30.893-69,69v31h90h90v-31
		C270,290.893,239.107,260,201,260z"/>
	<path id="XMLID_1575_" style="fill:#933EC5;" d="M180,260h-21c-38.107,0-69,30.893-69,69v31h90V260z"/>
	<path id="XMLID_1576_" style="fill:#FFEACF;" d="M210,260c0,16.568-13.432,30-30,30l0,0c-16.568,0-30-13.432-30-30v-30
		c0-16.568,13.432-30,30-30l0,0c16.568,0,30,13.432,30,30V260z"/>
	<path id="XMLID_1577_" style="fill:#FFDA44;" d="M180,90l60-90c0,0,50,50,50,130v40H180V90z"/>
	<ellipse id="XMLID_1578_" style="fill:#FFEACF;" cx="180" cy="155" rx="100" ry="105"/>
	<path id="XMLID_1579_" style="fill:#E8667D;" d="M180,225.858c-17.42,0-33.58-9.436-42.176-24.627
		c-0.68-1.202-0.257-2.727,0.944-3.407c1.201-0.679,2.727-0.257,3.407,0.944c7.71,13.626,22.203,22.09,37.824,22.09
		c15.622,0,30.115-8.464,37.824-22.09c0.681-1.201,2.205-1.623,3.407-0.944c1.201,0.68,1.624,2.205,0.944,3.407
		C213.581,216.422,197.421,225.858,180,225.858z"/>
	<g id="XMLID_1580_">
		<ellipse id="XMLID_1581_" style="fill:#FFB9A7;" cx="145" cy="180" rx="15" ry="10"/>
	</g>
	<g id="XMLID_1582_">
		<circle id="XMLID_1583_" style="fill:#50412E;" cx="145" cy="157.5" r="7.5"/>
	</g>
	<g id="XMLID_1584_">
		<ellipse id="XMLID_1585_" style="fill:#FFB9A7;" cx="215" cy="180" rx="15" ry="10"/>
	</g>
	<g id="XMLID_1586_">
		<circle id="XMLID_1587_" style="fill:#50412E;" cx="215" cy="157.5" r="7.5"/>
	</g>
	<path id="XMLID_1588_" style="fill:#FFD6A0;" d="M180,248c-22.528,0-44.084-4.358-63.959-12.295
		C133.376,250.872,155.67,260,180,260s46.624-9.128,63.959-24.295C224.084,243.642,202.528,248,180,248z"/>
	<circle id="XMLID_1589_" style="fill:#FFEACF;" cx="80" cy="170" r="20"/>
	<circle id="XMLID_1590_" style="fill:#FFEACF;" cx="280" cy="170" r="20"/>
	<path id="XMLID_61_" style="fill:#FF9811;" d="M80,170c11.046,0,20-8.954,20-20s-8.954-20-20-20V170z"/>
	<polygon id="XMLID_1591_" style="fill:#FFEACF;" points="270,110 90,110 100,80 260,80 	"/>
	<path id="XMLID_59_" style="fill:#FFDA44;" d="M280,170c-11.046,0-20-8.954-20-20s8.954-20,20-20V170z"/>
	<polygon id="XMLID_1592_" style="fill:#FFDA44;" points="260,150 260,90 170,90 240,0 250,60 280,100 280,150 	"/>
	<polygon id="XMLID_1593_" style="fill:#FF9811;" points="100,150 100,90 180,90 240,0 110,60 80,100 80,150 	"/>
</g>
<g>
</g>
<g>
</g>
<g>
</g>
<g>
</g>
<g>
</g>
<g>
</g>
<g>
</g>
<g>
</g>
<g>
</g>
<g>
</g>
<g>
</g>
<g>
</g>
<g>
</g>
<g>
</g>
<g>
</g>
</svg>
