<?xml version="1.0" encoding="iso-8859-1"?>
<!-- Generator: Adobe Illustrator 19.0.0, SVG Export Plug-In . SVG Version: 6.00 Build 0)  -->
<svg version="1.1" id="Layer_1" xmlns="http://www.w3.org/2000/svg" xmlns:xlink="http://www.w3.org/1999/xlink" x="0px" y="0px"
	 viewBox="0 0 340 340" style="enable-background:new 0 0 340 340;" xml:space="preserve">
<g id="XMLID_865_">
	<path id="XMLID_937_" style="fill:#7C84E8;" d="M186,240h-21h-21c-38.107,0-69,30.893-69,69v31h90h90v-31
		C255,270.893,224.107,240,186,240z"/>
	<path id="XMLID_938_" style="fill:#786145;" d="M165,0c-14.112,0-27.602,2.661-40,7.503C84.027,23.505,55,63.361,55,110v40h70
		l150-10v-30C275,49.249,225.751,0,165,0z"/>
	<g id="XMLID_939_">
		<path id="XMLID_940_" style="fill:#933EC5;" d="M165,240h-21c-38.107,0-69,30.893-69,69v31h90V240z"/>
	</g>
	<g id="XMLID_941_">
		<rect id="XMLID_942_" x="105" y="310" style="fill:#99EFF2;" width="120" height="30"/>
	</g>
	<g id="XMLID_943_">
		<rect id="XMLID_944_" x="105" y="310" style="fill:#00D7DF;" width="60" height="30"/>
	</g>
	<g id="XMLID_945_">
		<path id="XMLID_946_" style="fill:#00A1A7;" d="M135,310v-69.396c-11.031,1.438-21.244,5.469-30,11.48V310H135z"/>
	</g>
	<g id="XMLID_947_">
		<path id="XMLID_948_" style="fill:#00D7DF;" d="M195,310v-69.396c11.031,1.438,21.244,5.469,30,11.48V310H195z"/>
	</g>
	<g id="XMLID_949_">
		<path id="XMLID_950_" style="fill:#50412E;" d="M125,7.503V150H55v-40C55,63.361,84.027,23.505,125,7.503z"/>
	</g>
	<g id="XMLID_951_">
		<path id="XMLID_952_" style="fill:#FFEACF;" d="M195,240c0,16.568-13.432,30-30,30l0,0c-16.568,0-30-13.432-30-30v-30
			c0-16.568,13.432-30,30-30l0,0c16.568,0,30,13.432,30,30V240z"/>
	</g>
	<g id="XMLID_953_">
		<ellipse id="XMLID_954_" style="fill:#FFEACF;" cx="165" cy="135" rx="100" ry="105"/>
	</g>
	<g id="XMLID_955_">
		<path id="XMLID_956_" style="fill:#E8667D;" d="M165,205.858c-17.42,0-33.58-9.436-42.176-24.627
			c-0.68-1.202-0.257-2.727,0.944-3.407c1.201-0.68,2.728-0.257,3.407,0.945c7.71,13.625,22.203,22.089,37.824,22.089
			c15.622,0,30.115-8.464,37.824-22.089c0.681-1.202,2.205-1.624,3.407-0.945c1.201,0.68,1.624,2.205,0.944,3.407
			C198.581,196.422,182.421,205.858,165,205.858z"/>
	</g>
	<g id="XMLID_957_">
		<g id="XMLID_958_">
			<ellipse id="XMLID_959_" style="fill:#FFB9A7;" cx="130" cy="160" rx="15" ry="10"/>
		</g>
		<g id="XMLID_960_">
			<circle id="XMLID_961_" style="fill:#50412E;" cx="130" cy="137.5" r="7.5"/>
		</g>
	</g>
	<g id="XMLID_962_">
		<g id="XMLID_963_">
			<ellipse id="XMLID_964_" style="fill:#FFB9A7;" cx="200" cy="160" rx="15" ry="10"/>
		</g>
		<g id="XMLID_965_">
			<circle id="XMLID_966_" style="fill:#50412E;" cx="200" cy="137.5" r="7.5"/>
		</g>
	</g>
	<g id="XMLID_967_">
		<path id="XMLID_968_" style="fill:#FFD6A0;" d="M165,228c-22.528,0-44.084-4.358-63.959-12.294
			C118.376,230.872,140.67,240,165,240s46.624-9.128,63.959-24.294C209.084,223.642,187.528,228,165,228z"/>
	</g>
	<g id="XMLID_969_">
		<circle id="XMLID_970_" style="fill:#FFEACF;" cx="65" cy="150" r="20"/>
	</g>
	<g id="XMLID_971_">
		<circle id="XMLID_972_" style="fill:#FFEACF;" cx="265" cy="150" r="20"/>
	</g>
	<g id="XMLID_973_">
		<path id="XMLID_66_" style="fill:#50412E;" d="M65,150c11.046,0,20-8.954,20-20s-8.954-20-20-20V150z"/>
	</g>
	<g id="XMLID_974_">
		<path id="XMLID_64_" style="fill:#786145;" d="M265,150c-11.046,0-20-8.954-20-20s8.954-20,20-20V150z"/>
	</g>
	<g id="XMLID_975_">
		<path id="XMLID_976_" style="fill:#786145;" d="M205,30v30c0,0,30,60,60,70V80L205,30z"/>
	</g>
	<g id="XMLID_977_">
		<path id="XMLID_978_" style="fill:#786145;" d="M125,20l-10,20l10,20c0,0,9.5,17.301,40,30c29.193,12.155,63.139,10,85.5,10
			C285,100,295,60,295,60l-80-30L125,20z"/>
	</g>
	<g id="XMLID_979_">
		<path id="XMLID_980_" style="fill:#50412E;" d="M125,10v50c0,0-30,60-60,70V80L125,10z"/>
	</g>
</g>
<g>
</g>
<g>
</g>
<g>
</g>
<g>
</g>
<g>
</g>
<g>
</g>
<g>
</g>
<g>
</g>
<g>
</g>
<g>
</g>
<g>
</g>
<g>
</g>
<g>
</g>
<g>
</g>
<g>
</g>
</svg>
