<?xml version="1.0" encoding="UTF-8" standalone="no"?>
<svg
   xmlns:dc="http://purl.org/dc/elements/1.1/"
   xmlns:cc="http://creativecommons.org/ns#"
   xmlns:rdf="http://www.w3.org/1999/02/22-rdf-syntax-ns#"
   xmlns:svg="http://www.w3.org/2000/svg"
   xmlns="http://www.w3.org/2000/svg"
   xmlns:sodipodi="http://sodipodi.sourceforge.net/DTD/sodipodi-0.dtd"
   xmlns:inkscape="http://www.inkscape.org/namespaces/inkscape"
   width="1741"
   height="1024"
   version="1.1"
   id="svg384"
   sodipodi:docname="ab12.svg"
   inkscape:version="0.92.2 (5c3e80d, 2017-08-06)">
  <metadata
     id="metadata388">
    <rdf:RDF>
      <cc:Work
         rdf:about="">
        <dc:format>image/svg+xml</dc:format>
        <dc:type
           rdf:resource="http://purl.org/dc/dcmitype/StillImage" />
      </cc:Work>
    </rdf:RDF>
  </metadata>
  <sodipodi:namedview
     pagecolor="#ffffff"
     bordercolor="#666666"
     borderopacity="1"
     objecttolerance="10"
     gridtolerance="10"
     guidetolerance="10"
     inkscape:pageopacity="0"
     inkscape:pageshadow="2"
     inkscape:window-width="1600"
     inkscape:window-height="1133"
     id="namedview386"
     showgrid="false"
     inkscape:zoom="0.098579783"
     inkscape:cx="1101.5"
     inkscape:cy="-35"
     inkscape:window-x="-9"
     inkscape:window-y="-9"
     inkscape:window-maximized="1"
     inkscape:current-layer="svg384" />
  <rect
     stroke-miterlimit="4"
     width="1741"
     height="1024"
     id="rect2"
     x="0"
     y="0"
     style="fill:none;stroke:#9b9b9b;stroke-width:2;stroke-miterlimit:4;stroke-opacity:0.39215686" />
  <rect
     width="1741"
     height="1024"
     id="rect4"
     x="0"
     y="0"
     style="fill:#ffffff;stroke:none" />
  <text
     font-size="14"
     x="0"
     y="-7"
     id="text6"
     style="font-size:14px;font-family:'Segoe UI';fill:#7f7f7f;stroke:none">ab12</text>
  <text
     font-size="14"
     x="34.282227"
     y="-7"
     id="text8"
     style="font-size:14px;font-family:'Segoe UI';fill:#bdbdbd;stroke:none">1741×1024</text>
  <defs
     id="defs13">
    <clipPath
       id="clip_0">
      <rect
         x="643"
         y="138"
         width="1741"
         height="1024"
         id="rect10"
         style="clip-rule:evenodd" />
    </clipPath>
  </defs>
  <g
     clip-path="url(#clip_0)"
     id="g17"
     transform="translate(-643,-138)">
    <path
       transform="translate(643,138)"
       d="M 0,0 H 1741 V 1024 H 0 Z"
       id="path15"
       inkscape:connector-curvature="0"
       style="fill:#005eff;stroke:none" />
  </g>
  <defs
     id="defs27">
    <clipPath
       id="clip_1">
      <rect
         x="643"
         y="138"
         width="1741"
         height="1024"
         id="rect19"
         style="clip-rule:evenodd" />
    </clipPath>
    <linearGradient
       id="gradient_0"
       gradientUnits="userSpaceOnUse"
       x1="0"
       y1="512"
       x2="1741"
       y2="512">
      <stop
         offset="0"
         stop-color="rgb(0,219,222)"
         id="stop22" />
      <stop
         offset="1"
         stop-color="rgb(252,0,255)"
         id="stop24" />
    </linearGradient>
  </defs>
  <g
     clip-path="url(#clip_1)"
     id="g31"
     transform="translate(-643,-138)">
    <path
       transform="translate(643,138)"
       d="M 0,0 H 1741 V 1024 H 0 Z"
       id="path29"
       inkscape:connector-curvature="0"
       style="fill:url(#gradient_0);stroke:none" />
  </g>
  <defs
     id="defs36">
    <clipPath
       id="clip_2">
      <rect
         x="643"
         y="138"
         width="1741"
         height="1024"
         id="rect33"
         style="clip-rule:evenodd" />
    </clipPath>
  </defs>
  <g
     clip-path="url(#clip_2)"
     id="g40"
     transform="translate(-643,-138)">
    <path
       transform="translate(559.045,683.639)"
       d="M 351.178,0.00415448 C 228.579,-0.59389 109.569,63.3968 44.9799,177.922 -19.3099,292.149 -12.4324,427.307 51.2593,531.964 173.858,532.562 292.869,468.572 357.458,354.046 422.047,239.521 415.169,104.662 351.178,0.00415448 Z"
       id="path38"
       inkscape:connector-curvature="0"
       style="fill:#ffdc00;fill-opacity:0.24705882;stroke:none" />
  </g>
  <defs
     id="defs45">
    <clipPath
       id="clip_3">
      <rect
         x="643"
         y="138"
         width="1741"
         height="1024"
         id="rect42"
         style="clip-rule:evenodd" />
    </clipPath>
  </defs>
  <g
     clip-path="url(#clip_3)"
     id="g49"
     transform="translate(-643,-138)">
    <path
       transform="translate(522.731,639.687)"
       d="M 290.609,0 C 169.804,20.9315 63.651,104.658 19.9938,228.154 -23.6634,351.949 6.53783,483.818 87.5728,575.617 208.378,554.985 314.53,471.259 358.188,347.464 401.845,223.668 371.644,91.7998 290.609,0 Z"
       id="path47"
       inkscape:connector-curvature="0"
       style="fill:#ffc10d;fill-opacity:0.24705882;stroke:none" />
  </g>
  <defs
     id="defs54">
    <clipPath
       id="clip_4">
      <rect
         x="643"
         y="138"
         width="1741"
         height="1024"
         id="rect51"
         style="clip-rule:evenodd" />
    </clipPath>
  </defs>
  <g
     clip-path="url(#clip_4)"
     id="g58"
     transform="translate(-643,-138)">
    <path
       transform="translate(478.45,613.073)"
       d="M 231.727,0 C 116.305,41.265 26.2992,142.334 4.76957,271.811 -16.76,401.288 36.1669,525.98 131.854,602.23 247.276,560.965 337.282,459.896 358.812,330.419 380.341,201.242 327.713,76.5496 231.727,0 Z"
       id="path56"
       inkscape:connector-curvature="0"
       style="fill:#f6921c;fill-opacity:0.24705882;stroke:none" />
  </g>
  <defs
     id="defs63">
    <clipPath
       id="clip_5">
      <rect
         x="643"
         y="138"
         width="1741"
         height="1024"
         id="rect60"
         style="clip-rule:evenodd" />
    </clipPath>
  </defs>
  <g
     clip-path="url(#clip_5)"
     id="g67"
     transform="translate(-643,-138)">
    <path
       transform="translate(427.877,605)"
       d="M 176.147,0 C 69.6952,60.7015 -1.472,175.825 0.0231136,307.096 1.2192,438.366 74.7786,551.696 182.427,610.304 288.878,549.602 360.046,434.479 358.551,303.208 357.354,172.237 283.795,58.6083 176.147,0 Z"
       id="path65"
       inkscape:connector-curvature="0"
       style="fill:#f16321;fill-opacity:0.24705882;stroke:none" />
  </g>
  <defs
     id="defs72">
    <clipPath
       id="clip_6">
      <rect
         x="643"
         y="138"
         width="1741"
         height="1024"
         id="rect69"
         style="clip-rule:evenodd" />
    </clipPath>
  </defs>
  <g
     clip-path="url(#clip_6)"
     id="g76"
     transform="translate(-643,-138)">
    <path
       transform="translate(371.916,615.466)"
       d="M 126.254,0 C 32.0625,78.3438 -18.1732,203.933 6.04756,332.811 30.2683,461.69 122.367,560.965 238.388,599.838 332.58,521.494 382.815,395.905 358.594,267.027 334.673,137.849 242.574,38.8729 126.254,0 Z"
       id="path74"
       inkscape:connector-curvature="0"
       style="fill:#ec1b24;fill-opacity:0.24705882;stroke:none" />
  </g>
  <defs
     id="defs81">
    <clipPath
       id="clip_7">
      <rect
         x="643"
         y="138"
         width="1741"
         height="1024"
         id="rect78"
         style="clip-rule:evenodd" />
    </clipPath>
  </defs>
  <g
     clip-path="url(#clip_7)"
     id="g85"
     transform="translate(-643,-138)">
    <path
       transform="translate(312.563,643.873)"
       d="M 83.0431,0 C 3.8023,93.5939 -23.7077,226.061 22.3417,348.66 68.391,471.558 176.338,552.892 297.741,571.132 376.982,477.538 404.492,345.071 358.442,222.472 312.393,99.8733 204.446,18.2403 83.0431,0 Z"
       id="path83"
       inkscape:connector-curvature="0"
       style="fill:#bf262c;fill-opacity:0.24705882;stroke:none" />
  </g>
  <defs
     id="defs90">
    <clipPath
       id="clip_8">
      <rect
         x="643"
         y="138"
         width="1741"
         height="1024"
         id="rect87"
         style="clip-rule:evenodd" />
    </clipPath>
  </defs>
  <g
     clip-path="url(#clip_8)"
     id="g94"
     transform="translate(-643,-138)">
    <path
       transform="translate(251.956,689.818)"
       d="M 47.6645,0.103995 C -13.934,105.958 -18.1203,241.116 48.5616,354.146 115.244,467.176 235.749,528.775 358.348,525.486 419.947,419.632 424.133,284.474 357.451,171.444 290.769,58.7123 170.264,-2.88623 47.6645,0.103995 Z"
       id="path92"
       inkscape:connector-curvature="0"
       style="fill:#961b1d;fill-opacity:0.24705882;stroke:none" />
  </g>
  <defs
     id="defs99">
    <clipPath
       id="clip_9">
      <rect
         x="643"
         y="138"
         width="1741"
         height="1024"
         id="rect96"
         style="clip-rule:evenodd" />
    </clipPath>
  </defs>
  <g
     clip-path="url(#clip_9)"
     id="g103"
     transform="translate(-643,-138)">
    <path
       transform="translate(191.523,744.916)"
       d="M 21.6799,6.9044 C -20.7812,121.729 -1.34481,255.691 84.1755,355.265 169.696,454.839 298.873,494.609 419.08,470.389 461.541,355.564 442.105,221.602 356.585,122.028 271.064,22.4535 141.887,-17.3164 21.6799,6.9044 Z"
       id="path101"
       inkscape:connector-curvature="0"
       style="fill:#991633;fill-opacity:0.24705882;stroke:none" />
  </g>
  <defs
     id="defs108">
    <clipPath
       id="clip_10">
      <rect
         x="643"
         y="138"
         width="1741"
         height="1024"
         id="rect105"
         style="clip-rule:evenodd" />
    </clipPath>
  </defs>
  <g
     clip-path="url(#clip_10)"
     id="g112"
     transform="translate(-643,-138)">
    <path
       transform="translate(610.3,1163.75)"
       d="M 531.964,351.178 C 532.562,228.579 468.572,109.569 354.046,44.9799 239.82,-19.3099 104.662,-12.4324 0.00415448,51.2593 -0.59389,173.858 63.3968,292.869 177.922,357.458 c 114.227,64.589 249.385,57.711 354.042,-6.28 z"
       id="path110"
       inkscape:connector-curvature="0"
       style="fill:#2ab24a;fill-opacity:0.24705882;stroke:none" />
  </g>
  <defs
     id="defs117">
    <clipPath
       id="clip_11">
      <rect
         x="643"
         y="138"
         width="1741"
         height="1024"
         id="rect114"
         style="clip-rule:evenodd" />
    </clipPath>
  </defs>
  <g
     clip-path="url(#clip_11)"
     id="g121"
     transform="translate(-643,-138)">
    <path
       transform="translate(610.603,1127.8)"
       d="M 575.617,290.54 C 554.985,169.735 470.96,63.5826 347.464,19.9254 223.668,-23.7318 91.7998,6.76842 0,87.8034 20.6325,208.608 104.359,314.761 228.154,358.418 351.949,401.776 483.818,371.575 575.617,290.54 Z"
       id="path119"
       inkscape:connector-curvature="0"
       style="fill:#b1cd3f;fill-opacity:0.24705882;stroke:none" />
  </g>
  <defs
     id="defs126">
    <clipPath
       id="clip_12">
      <rect
         x="643"
         y="138"
         width="1741"
         height="1024"
         id="rect123"
         style="clip-rule:evenodd" />
    </clipPath>
  </defs>
  <g
     clip-path="url(#clip_12)"
     id="g130"
     transform="translate(-643,-138)">
    <path
       transform="translate(610.304,1083.43)"
       d="M 602.23,231.744 C 560.965,116.322 459.896,26.3162 330.419,4.78664 200.943,-16.7429 76.5496,35.8849 0,131.871 41.265,247.293 142.334,337.299 271.811,358.829 401.288,380.358 525.98,327.431 602.23,231.744 Z"
       id="path128"
       inkscape:connector-curvature="0"
       style="fill:#b1cd3f;fill-opacity:0.24705882;stroke:none" />
  </g>
  <defs
     id="defs135">
    <clipPath
       id="clip_13">
      <rect
         x="643"
         y="138"
         width="1741"
         height="1024"
         id="rect132"
         style="clip-rule:evenodd" />
    </clipPath>
  </defs>
  <g
     clip-path="url(#clip_13)"
     id="g139"
     transform="translate(-643,-138)">
    <path
       transform="translate(610.304,1032.88)"
       d="M 610.603,176.147 C 549.901,69.6952 434.778,-1.472 303.507,0.0231136 172.237,1.51822 58.6083,75.0776 0,182.427 60.7015,288.878 175.825,360.046 307.096,358.551 438.366,357.354 551.995,283.795 610.603,176.147 Z"
       id="path137"
       inkscape:connector-curvature="0"
       style="fill:#8db834;fill-opacity:0.24705882;stroke:none" />
  </g>
  <defs
     id="defs144">
    <clipPath
       id="clip_14">
      <rect
         x="643"
         y="138"
         width="1741"
         height="1024"
         id="rect141"
         style="clip-rule:evenodd" />
    </clipPath>
  </defs>
  <g
     clip-path="url(#clip_14)"
     id="g148"
     transform="translate(-643,-138)">
    <path
       transform="translate(610.603,976.916)"
       d="M 599.838,126.254 C 521.494,32.0625 395.905,-18.1732 267.027,6.04756 138.148,30.2683 38.8729,122.367 0,238.388 78.3438,332.58 203.933,382.815 333.111,358.594 461.69,334.374 560.965,242.275 599.838,126.254 Z"
       id="path146"
       inkscape:connector-curvature="0"
       style="fill:#a0cc41;fill-opacity:0.24705882;stroke:none" />
  </g>
  <defs
     id="defs153">
    <clipPath
       id="clip_15">
      <rect
         x="643"
         y="138"
         width="1741"
         height="1024"
         id="rect150"
         style="clip-rule:evenodd" />
    </clipPath>
  </defs>
  <g
     clip-path="url(#clip_15)"
     id="g157"
     transform="translate(-643,-138)">
    <path
       transform="translate(610.603,917.653)"
       d="M 571.431,82.953 C 477.837,3.71219 345.37,-23.7978 222.771,22.5506 99.8733,68.6 18.2403,176.547 0,297.651 93.5939,376.892 226.061,404.402 348.959,358.352 471.558,312.004 552.892,204.057 571.431,82.953 Z"
       id="path155"
       inkscape:connector-curvature="0"
       style="fill:#c9da2a;fill-opacity:0.24705882;stroke:none" />
  </g>
  <defs
     id="defs162">
    <clipPath
       id="clip_16">
      <rect
         x="643"
         y="138"
         width="1741"
         height="1024"
         id="rect159"
         style="clip-rule:evenodd" />
    </clipPath>
  </defs>
  <g
     clip-path="url(#clip_16)"
     id="g166"
     transform="translate(-643,-138)">
    <path
       transform="translate(610.478,856.956)"
       d="M 525.507,47.6645 C 419.653,-13.934 284.495,-18.1203 171.465,48.5616 58.4346,115.244 -3.16397,235.749 0.125272,358.348 105.979,419.947 241.137,424.133 354.167,357.451 466.899,290.769 528.497,170.264 525.507,47.6645 Z"
       id="path164"
       inkscape:connector-curvature="0"
       style="fill:#ffdc00;fill-opacity:0.24705882;stroke:none" />
  </g>
  <defs
     id="defs171">
    <clipPath
       id="clip_17">
      <rect
         x="643"
         y="138"
         width="1741"
         height="1024"
         id="rect168"
         style="clip-rule:evenodd" />
    </clipPath>
  </defs>
  <g
     clip-path="url(#clip_17)"
     id="g175"
     transform="translate(-643,-138)">
    <path
       transform="translate(603.698,796.523)"
       d="M 470.389,21.6799 C 355.564,-20.7812 221.602,-1.34481 122.028,84.1755 22.4535,169.696 -17.3164,298.873 6.9044,419.08 121.729,461.541 255.691,442.105 355.265,356.585 454.839,271.064 494.609,141.887 470.389,21.6799 Z"
       id="path173"
       inkscape:connector-curvature="0"
       style="fill:#ffdc00;fill-opacity:0.24705882;stroke:none" />
  </g>
  <defs
     id="defs180">
    <clipPath
       id="clip_18">
      <rect
         x="643"
         y="138"
         width="1741"
         height="1024"
         id="rect177"
         style="clip-rule:evenodd" />
    </clipPath>
  </defs>
  <g
     clip-path="url(#clip_18)"
     id="g184"
     transform="translate(-643,-138)">
    <path
       transform="translate(586.181,738.161)"
       d="M 411.655,5.5853 C 291.15,-16.2433 162.57,26.2178 79.4419,127.586 -3.98522,228.955 -20.4314,363.216 24.1228,477.143 144.629,498.972 273.208,456.51 356.635,355.142 440.062,253.774 456.509,119.513 411.655,5.5853 Z"
       id="path182"
       inkscape:connector-curvature="0"
       style="fill:#ffec5e;fill-opacity:0.24705882;stroke:none" />
  </g>
  <defs
     id="defs189">
    <clipPath
       id="clip_19">
      <rect
         x="643"
         y="138"
         width="1741"
         height="1024"
         id="rect186"
         style="clip-rule:evenodd" />
    </clipPath>
  </defs>
  <g
     clip-path="url(#clip_19)"
     id="g193"
     transform="translate(-643,-138)">
    <path
       transform="translate(2309.84,154.186)"
       d="M 625.564,0.00814564 C 407.175,-1.16443 195.178,124.301 80.1238,348.85 -34.3972,572.812 -22.1461,837.815 91.3096,1043.02 309.699,1044.19 521.696,918.723 636.749,694.174 751.803,469.626 739.552,205.209 625.564,0.00814564 Z"
       id="path191"
       inkscape:connector-curvature="0"
       style="fill:#ffdc00;fill-opacity:0.24705882;stroke:none" />
  </g>
  <defs
     id="defs198">
    <clipPath
       id="clip_20">
      <rect
         x="643"
         y="138"
         width="1741"
         height="1024"
         id="rect195"
         style="clip-rule:evenodd" />
    </clipPath>
  </defs>
  <g
     clip-path="url(#clip_20)"
     id="g202"
     transform="translate(-643,-138)">
    <path
       transform="translate(2245.15,68.0095)"
       d="M 517.669,0 C 302.476,41.0402 113.383,205.201 35.6155,447.338 -42.1522,690.062 11.646,948.615 155.996,1128.61 371.189,1088.15 560.282,923.991 638.049,681.268 715.817,438.544 662.019,179.991 517.669,0 Z"
       id="path200"
       inkscape:connector-curvature="0"
       style="fill:#ffc10d;fill-opacity:0.24705882;stroke:none" />
  </g>
  <defs
     id="defs207">
    <clipPath
       id="clip_21">
      <rect
         x="643"
         y="138"
         width="1741"
         height="1024"
         id="rect204"
         style="clip-rule:evenodd" />
    </clipPath>
  </defs>
  <g
     clip-path="url(#clip_21)"
     id="g211"
     transform="translate(-643,-138)">
    <path
       transform="translate(2166.28,15.8298)"
       d="M 412.782,0 C 207.177,80.9079 46.8474,279.073 8.49617,532.937 -29.8551,786.8 64.425,1031.28 234.875,1180.79 440.48,1099.88 600.81,901.712 639.161,647.849 677.512,394.572 583.765,150.09 412.782,0 Z"
       id="path209"
       inkscape:connector-curvature="0"
       style="fill:#f6921c;fill-opacity:0.24705882;stroke:none" />
  </g>
  <defs
     id="defs216">
    <clipPath
       id="clip_22">
      <rect
         x="643"
         y="138"
         width="1741"
         height="1024"
         id="rect213"
         style="clip-rule:evenodd" />
    </clipPath>
  </defs>
  <g
     clip-path="url(#clip_22)"
     id="g220"
     transform="translate(-643,-138)">
    <path
       transform="translate(2076.19)"
       d="M 313.775,0 C 124.15,119.017 -2.62211,344.738 0.0411728,602.119 2.1718,859.499 133.205,1081.7 324.961,1196.62 514.587,1077.6 641.359,851.878 638.696,594.497 636.565,337.702 505.532,114.913 313.775,0 Z"
       id="path218"
       inkscape:connector-curvature="0"
       style="fill:#f16321;fill-opacity:0.24705882;stroke:none" />
  </g>
  <defs
     id="defs225">
    <clipPath
       id="clip_23">
      <rect
         x="643"
         y="138"
         width="1741"
         height="1024"
         id="rect222"
         style="clip-rule:evenodd" />
    </clipPath>
  </defs>
  <g
     clip-path="url(#clip_23)"
     id="g229"
     transform="translate(-643,-138)">
    <path
       transform="translate(1976.5,20.52)"
       d="M 224.9,0 C 57.1137,153.608 -32.3724,399.849 10.7727,652.539 53.9178,905.23 217.976,1099.88 424.646,1176.1 592.433,1022.49 681.919,776.246 638.774,523.556 596.162,270.279 432.104,76.2176 224.9,0 Z"
       id="path227"
       inkscape:connector-curvature="0"
       style="fill:#ec1b24;fill-opacity:0.24705882;stroke:none" />
  </g>
  <defs
     id="defs234">
    <clipPath
       id="clip_24">
      <rect
         x="643"
         y="138"
         width="1741"
         height="1024"
         id="rect231"
         style="clip-rule:evenodd" />
    </clipPath>
  </defs>
  <g
     clip-path="url(#clip_24)"
     id="g238"
     transform="translate(-643,-138)">
    <path
       transform="translate(1870.78,76.2175)"
       d="M 147.927,0 C 6.77313,183.508 -42.2312,443.234 39.7978,683.613 121.827,924.577 314.116,1084.05 530.374,1119.81 671.528,936.303 720.532,676.577 638.503,436.199 556.474,195.82 364.185,35.7636 147.927,0 Z"
       id="path236"
       inkscape:connector-curvature="0"
       style="fill:#bf262c;fill-opacity:0.24705882;stroke:none" />
  </g>
  <defs
     id="defs243">
    <clipPath
       id="clip_25">
      <rect
         x="643"
         y="138"
         width="1741"
         height="1024"
         id="rect240"
         style="clip-rule:evenodd" />
    </clipPath>
  </defs>
  <g
     clip-path="url(#clip_25)"
     id="g247"
     transform="translate(-643,-138)">
    <path
       transform="translate(1762.81,166.302)"
       d="M 84.9061,0.203901 C -24.821,207.75 -32.2782,472.753 86.5041,694.37 205.286,915.987 419.947,1036.76 638.336,1030.31 748.063,822.767 755.52,557.765 636.738,336.147 517.955,115.117 303.295,-5.65899 84.9061,0.203901 Z"
       id="path245"
       inkscape:connector-curvature="0"
       style="fill:#961b1d;fill-opacity:0.24705882;stroke:none" />
  </g>
  <defs
     id="defs252">
    <clipPath
       id="clip_26">
      <rect
         x="643"
         y="138"
         width="1741"
         height="1024"
         id="rect249"
         style="clip-rule:evenodd" />
    </clipPath>
  </defs>
  <g
     clip-path="url(#clip_26)"
     id="g256"
     transform="translate(-643,-138)">
    <path
       transform="translate(1655.16,274.331)"
       d="M 38.619,13.5374 C -37.0182,238.672 -2.39554,501.33 149.944,696.564 302.284,891.798 532.391,969.774 746.519,922.285 822.156,697.15 787.533,434.493 635.194,239.259 482.854,44.0244 252.747,-33.952 38.619,13.5374 Z"
       id="path254"
       inkscape:connector-curvature="0"
       style="fill:#991633;fill-opacity:0.24705882;stroke:none" />
  </g>
  <defs
     id="defs261">
    <clipPath
       id="clip_27">
      <rect
         x="643"
         y="138"
         width="1741"
         height="1024"
         id="rect258"
         style="clip-rule:evenodd" />
    </clipPath>
  </defs>
  <g
     clip-path="url(#clip_27)"
     id="g265"
     transform="translate(-643,-138)">
    <path
       transform="translate(1551.2,389.488)"
       d="M 9.94924,47.2974 C -28.9346,283.572 46.7025,535.676 227.273,698.664 407.843,862.239 647.006,894.485 850.48,807.128 889.364,570.853 813.727,318.749 633.157,155.761 452.586,-7.81378 212.891,-40.0597 9.94924,47.2974 Z"
       id="path263"
       inkscape:connector-curvature="0"
       style="fill:#801c7f;fill-opacity:0.24705882;stroke:none" />
  </g>
  <defs
     id="defs270">
    <clipPath
       id="clip_28">
      <rect
         x="643"
         y="138"
         width="1741"
         height="1024"
         id="rect267"
         style="clip-rule:evenodd" />
    </clipPath>
  </defs>
  <g
     clip-path="url(#clip_28)"
     id="g274"
     transform="translate(-643,-138)">
    <path
       transform="translate(1454.08,508.212)"
       d="M 0.00740049,100.942 C -1.05791,341.321 112.93,574.664 316.938,701.302 520.412,827.94 761.173,813.869 947.602,688.99 948.668,448.611 834.679,215.268 630.672,88.63 427.197,-38.0084 186.437,-24.5237 0.00740049,100.942 Z"
       id="path272"
       inkscape:connector-curvature="0"
       style="fill:#690b68;fill-opacity:0.24705882;stroke:none" />
  </g>
  <defs
     id="defs279">
    <clipPath
       id="clip_29">
      <rect
         x="643"
         y="138"
         width="1741"
         height="1024"
         id="rect276"
         style="clip-rule:evenodd" />
    </clipPath>
  </defs>
  <g
     clip-path="url(#clip_29)"
     id="g283"
     transform="translate(-643,-138)">
    <path
       transform="translate(1375.79,627.216)"
       d="M 0,171.895 C 36.7533,408.756 185.897,616.889 406.416,702.487 626.936,788.085 861.837,728.87 1025.36,569.399 988.609,332.539 839.466,124.406 618.946,38.8079 398.427,-46.204 163.525,13.0112 0,171.895 Z"
       id="path281"
       inkscape:connector-curvature="0"
       style="fill:#1c1768;fill-opacity:0.24705882;stroke:none" />
  </g>
  <defs
     id="defs288">
    <clipPath
       id="clip_30">
      <rect
         x="643"
         y="138"
         width="1741"
         height="1024"
         id="rect285"
         style="clip-rule:evenodd" />
    </clipPath>
  </defs>
  <g
     clip-path="url(#clip_30)"
     id="g292"
     transform="translate(-643,-138)">
    <path
       transform="translate(1328.38,742.46)"
       d="m 0,258.335 c 74.0392,226.307 253.544,402.78 484.184,444.993 230.64,42.213 452.758,-61.56 588.586,-249.173 C 998.73,227.848 819.225,51.3748 588.585,9.162 357.945,-32.4645 136.36,70.7223 0,258.335 Z"
       id="path290"
       inkscape:connector-curvature="0"
       style="fill:#392980;fill-opacity:0.24705882;stroke:none" />
  </g>
  <defs
     id="defs297">
    <clipPath
       id="clip_31">
      <rect
         x="643"
         y="138"
         width="1741"
         height="1024"
         id="rect294"
         style="clip-rule:evenodd" />
    </clipPath>
  </defs>
  <g
     clip-path="url(#clip_31)"
     id="g301"
     transform="translate(-643,-138)">
    <path
       transform="translate(1314,851.246)"
       d="M 0,357.682 C 108.129,566.4 313.202,705.937 547.038,703.006 780.874,700.66 983.283,556.433 1087.68,345.369 979.554,136.651 774.482,-2.88613 540.646,0.0453185 306.81,2.39047 104.401,146.618 0,357.682 Z"
       id="path299"
       inkscape:connector-curvature="0"
       style="fill:#4d3e97;fill-opacity:0.24705882;stroke:none" />
  </g>
  <defs
     id="defs306">
    <clipPath
       id="clip_32">
      <rect
         x="643"
         y="138"
         width="1741"
         height="1024"
         id="rect303"
         style="clip-rule:evenodd" />
    </clipPath>
  </defs>
  <g
     clip-path="url(#clip_32)"
     id="g310"
     transform="translate(-643,-138)">
    <path
       transform="translate(1332.64,949.07)"
       d="M 0,467.404 C 139.556,652.085 363.271,750.581 593.379,703.092 822.953,655.603 999.795,475.026 1069.04,247.545 929.485,62.8645 705.769,-35.632 475.662,11.8574 245.554,59.3468 69.2453,239.924 0,467.404 Z"
       id="path308"
       inkscape:connector-curvature="0"
       style="fill:#004481;fill-opacity:0.24705882;stroke:none" />
  </g>
  <defs
     id="defs315">
    <clipPath
       id="clip_33">
      <rect
         x="643"
         y="138"
         width="1741"
         height="1024"
         id="rect312"
         style="clip-rule:evenodd" />
    </clipPath>
  </defs>
  <g
     clip-path="url(#clip_33)"
     id="g319"
     transform="translate(-643,-138)">
    <path
       transform="translate(1383.25,1033.79)"
       d="M 0,583.777 C 166.721,739.144 402.688,793.082 621.077,702.794 839.998,612.505 985.413,400.855 1017.91,162.822 851.184,7.45511 615.218,-46.4835 396.296,43.805 177.907,134.68 32.492,346.33 0,583.777 Z"
       id="path317"
       inkscape:connector-curvature="0"
       style="fill:#00589b;fill-opacity:0.24705882;stroke:none" />
  </g>
  <defs
     id="defs324">
    <clipPath
       id="clip_34">
      <rect
         x="643"
         y="138"
         width="1741"
         height="1024"
         id="rect321"
         style="clip-rule:evenodd" />
    </clipPath>
  </defs>
  <g
     clip-path="url(#clip_34)"
     id="g328"
     transform="translate(-643,-138)">
    <path
       transform="translate(1465.09,1103.16)"
       d="M 0.185248,702.609 C 188.745,823.385 429.506,831.593 630.85,700.851 832.194,570.108 941.921,333.834 936.062,93.4553 747.502,-27.3202 506.741,-35.5283 305.397,95.2141 104.586,225.957 -5.14131,462.231 0.185248,702.609 Z"
       id="path326"
       inkscape:connector-curvature="0"
       style="fill:#0071bb;fill-opacity:0.24705882;stroke:none" />
  </g>
  <defs
     id="defs333">
    <clipPath
       id="clip_35">
      <rect
         x="643"
         y="138"
         width="1741"
         height="1024"
         id="rect330"
         style="clip-rule:evenodd" />
    </clipPath>
  </defs>
  <g
     clip-path="url(#clip_35)"
     id="g337"
     transform="translate(-643,-138)">
    <path
       transform="translate(1563.23,1153.52)"
       d="M 12.299,821.685 C 216.839,904.938 455.469,866.83 632.843,699.151 810.218,532.059 881.061,278.196 837.916,42.5075 633.376,-40.7455 394.746,-2.63675 217.372,165.042 39.9971,332.72 -30.8461,586.584 12.299,821.685 Z"
       id="path335"
       inkscape:connector-curvature="0"
       style="fill:#3688c8;fill-opacity:0.24705882;stroke:none" />
  </g>
  <defs
     id="defs342">
    <clipPath
       id="clip_36">
      <rect
         x="643"
         y="138"
         width="1741"
         height="1024"
         id="rect339"
         style="clip-rule:evenodd" />
    </clipPath>
  </defs>
  <g
     clip-path="url(#clip_36)"
     id="g346"
     transform="translate(-643,-138)">
    <path
       transform="translate(1667.86,1185.66)"
       d="M 42.9707,935.529 C 257.631,978.328 486.673,895.075 635.284,696.323 783.895,497.571 813.191,234.327 733.825,10.951 519.165,-31.8481 290.123,51.405 141.512,250.157 -7.09899,448.909 -36.3951,712.152 42.9707,935.529 Z"
       id="path344"
       inkscape:connector-curvature="0"
       style="fill:#007e81;fill-opacity:0.24705882;stroke:none" />
  </g>
  <defs
     id="defs351">
    <clipPath
       id="clip_37">
      <rect
         x="643"
         y="138"
         width="1741"
         height="1024"
         id="rect348"
         style="clip-rule:evenodd" />
    </clipPath>
  </defs>
  <g
     clip-path="url(#clip_37)"
     id="g355"
     transform="translate(-643,-138)">
    <path
       transform="translate(2362.53,1183.08)"
       d="M 746.519,922.285 C 822.156,697.15 787.533,434.493 635.194,239.259 482.854,44.0244 252.747,-33.952 38.619,13.5374 -37.0182,238.672 -2.39554,501.33 149.944,696.564 c 152.34,195.82 382.447,273.797 596.575,225.721 z"
       id="path353"
       inkscape:connector-curvature="0"
       style="fill:#007738;fill-opacity:0.24705882;stroke:none" />
  </g>
  <defs
     id="defs360">
    <clipPath
       id="clip_38">
      <rect
         x="643"
         y="138"
         width="1741"
         height="1024"
         id="rect357"
         style="clip-rule:evenodd" />
    </clipPath>
  </defs>
  <g
     clip-path="url(#clip_38)"
     id="g364"
     transform="translate(-643,-138)">
    <path
       transform="translate(2391.73,1149.32)"
       d="M 849.948,807.128 C 888.831,570.853 813.194,318.749 632.624,155.761 452.054,-7.81378 212.891,-40.0597 9.94924,47.2974 -28.9346,283.572 46.7025,535.676 227.273,698.664 c 180.038,163.575 419.2,196.407 622.675,108.464 z"
       id="path362"
       inkscape:connector-curvature="0"
       style="fill:#009341;fill-opacity:0.24705882;stroke:none" />
  </g>
  <defs
     id="defs369">
    <clipPath
       id="clip_39">
      <rect
         x="643"
         y="138"
         width="1741"
         height="1024"
         id="rect366"
         style="clip-rule:evenodd" />
    </clipPath>
  </defs>
  <g
     clip-path="url(#clip_39)"
     id="g373"
     transform="translate(-643,-138)">
    <path
       transform="translate(2389.38,375.516)"
       d="M 837.916,42.5075 C 633.376,-40.7455 394.746,-2.63675 217.372,165.042 39.9971,332.72 -30.8461,585.997 12.299,821.685 216.839,904.938 455.469,866.83 632.843,699.151 810.218,531.472 881.061,278.196 837.916,42.5075 Z"
       id="path371"
       inkscape:connector-curvature="0"
       style="fill:#ffdc00;fill-opacity:0.24705882;stroke:none" />
  </g>
  <defs
     id="defs378">
    <clipPath
       id="clip_40">
      <rect
         x="643"
         y="138"
         width="1741"
         height="1024"
         id="rect375"
         style="clip-rule:evenodd" />
    </clipPath>
  </defs>
  <g
     clip-path="url(#clip_40)"
     id="g382"
     transform="translate(-643,-138)">
    <path
       transform="translate(2358.18,261.087)"
       d="M 733.293,10.951 C 518.632,-31.8481 289.59,51.405 141.512,250.157 -7.09899,448.909 -36.3951,712.152 42.9707,935.529 257.631,978.328 486.673,895.075 635.284,696.323 783.895,497.571 813.191,234.327 733.293,10.951 Z"
       id="path380"
       inkscape:connector-curvature="0"
       style="fill:#ffec5e;fill-opacity:0.24705882;stroke:none" />
  </g>
</svg>
