<?xml version="1.0" encoding="UTF-8" standalone="no"?>
<svg
   xmlns:dc="http://purl.org/dc/elements/1.1/"
   xmlns:cc="http://creativecommons.org/ns#"
   xmlns:rdf="http://www.w3.org/1999/02/22-rdf-syntax-ns#"
   xmlns:svg="http://www.w3.org/2000/svg"
   xmlns="http://www.w3.org/2000/svg"
   xmlns:sodipodi="http://sodipodi.sourceforge.net/DTD/sodipodi-0.dtd"
   xmlns:inkscape="http://www.inkscape.org/namespaces/inkscape"
   width="1740.3032"
   height="1023.5898"
   version="1.1"
   id="svg392"
   sodipodi:docname="ab6.svg"
   inkscape:version="0.92.2 (5c3e80d, 2017-08-06)">
  <metadata
     id="metadata396">
    <rdf:RDF>
      <cc:Work
         rdf:about="">
        <dc:format>image/svg+xml</dc:format>
        <dc:type
           rdf:resource="http://purl.org/dc/dcmitype/StillImage" />
      </cc:Work>
    </rdf:RDF>
  </metadata>
  <sodipodi:namedview
     pagecolor="#ffffff"
     bordercolor="#666666"
     borderopacity="1"
     objecttolerance="10"
     gridtolerance="10"
     guidetolerance="10"
     inkscape:pageopacity="0"
     inkscape:pageshadow="2"
     inkscape:window-width="1600"
     inkscape:window-height="1133"
     id="namedview394"
     showgrid="false"
     inkscape:zoom="0.13485714"
     inkscape:cx="886.64062"
     inkscape:cy="434.16986"
     inkscape:window-x="-9"
     inkscape:window-y="-9"
     inkscape:window-maximized="1"
     inkscape:current-layer="svg392" />
  <rect
     stroke-miterlimit="4"
     width="1740.3036"
     height="1023.5904"
     id="rect2"
     x="-0.000375"
     y="0"
     style="fill:none;stroke:#9b9b9b;stroke-width:2;stroke-miterlimit:4;stroke-opacity:0.39215686" />
  <rect
     width="1740.3036"
     height="1023.5904"
     id="rect4"
     x="-0.000375"
     y="0"
     style="fill:#ffffff;stroke:none;stroke-width:0.99959999" />
  <text
     font-size="14"
     x="0"
     y="-7.0004101"
     id="text6"
     style="font-size:14px;font-family:'Segoe UI';fill:#7f7f7f;stroke:none">ab6</text>
  <text
     font-size="14"
     x="26.735352"
     y="-7.0004101"
     id="text8"
     style="font-size:14px;font-family:'Segoe UI';fill:#bdbdbd;stroke:none">1741×1024</text>
  <defs
     id="defs13">
    <clipPath
       id="clip_0">
      <rect
         x="303.85938"
         y="285.57959"
         width="1740.3036"
         height="1023.5903"
         id="rect10"
         style="clip-rule:evenodd" />
    </clipPath>
  </defs>
  <g
     clip-path="url(#clip_0)"
     id="g17"
     transform="translate(-303.85937,-285.58)">
    <path
       transform="matrix(0.9996,0,0,0.9996,303.859,285.58)"
       d="M 0,0 H 1741 V 1024 H 0 Z"
       id="path15"
       inkscape:connector-curvature="0"
       style="fill:#ffffff;stroke:none" />
  </g>
  <defs
     id="defs27">
    <clipPath
       id="clip_1">
      <rect
         x="303.85938"
         y="285.57959"
         width="1740.3036"
         height="1023.5903"
         id="rect19"
         style="clip-rule:evenodd" />
    </clipPath>
    <linearGradient
       id="gradient_0"
       gradientUnits="userSpaceOnUse"
       x1="0"
       y1="0"
       x2="1231.14"
       y2="1219.0699">
      <stop
         offset="0"
         stop-color="rgb(48,34,173)"
         id="stop22" />
      <stop
         offset="1"
         stop-color="rgb(200,109,215)"
         id="stop24" />
    </linearGradient>
  </defs>
  <g
     clip-path="url(#clip_1)"
     id="g31"
     transform="translate(-303.85937,-285.58)">
    <path
       transform="matrix(0.9996,0,0,0.9996,1174.51,0.693604)"
       d="M 603.5,1207 C 936.804,1207 1207,936.804 1207,603.5 1207,270.196 936.804,0 603.5,0 270.196,0 0,270.196 0,603.5 0,936.804 270.196,1207 603.5,1207 Z"
       id="path29"
       inkscape:connector-curvature="0"
       style="fill:url(#gradient_0);stroke:none" />
  </g>
  <defs
     id="defs41">
    <clipPath
       id="clip_2">
      <rect
         x="303.85938"
         y="285.57959"
         width="1740.3036"
         height="1023.5903"
         id="rect33"
         style="clip-rule:evenodd" />
    </clipPath>
    <linearGradient
       id="gradient_1"
       gradientUnits="userSpaceOnUse"
       x1="440.34375"
       y1="0"
       x2="440.34375"
       y2="926.96088">
      <stop
         offset="0"
         stop-color="rgb(251,194,235)"
         id="stop36" />
      <stop
         offset="1"
         stop-color="rgb(160,140,209)"
         id="stop38" />
    </linearGradient>
  </defs>
  <g
     clip-path="url(#clip_2)"
     id="g45"
     transform="translate(-303.85937,-285.58)">
    <path
       transform="matrix(0.9996,0,0,0.9996,0.980957,869.346)"
       d="m 440.344,880.688 c 243.195,0 440.344,-197.149 440.344,-440.344 C 880.688,197.149 683.539,0 440.344,0 197.149,0 0,197.149 0,440.344 0,683.539 197.149,880.688 440.344,880.688 Z"
       id="path43"
       inkscape:connector-curvature="0"
       style="fill:url(#gradient_1);stroke:none" />
  </g>
  <defs
     id="defs50">
    <clipPath
       id="clip_3">
      <rect
         x="353.83936"
         y="516.48706"
         width="174.92999"
         height="674.72998"
         id="rect47"
         style="clip-rule:evenodd" />
    </clipPath>
  </defs>
  <g
     clip-path="url(#clip_3)"
     id="g54"
     transform="translate(-303.85937,-285.58)">
    <path
       transform="matrix(0.9996,0,0,0.9996,354.451,516.487)"
       d="M 11.8882,0 23.7764,8.63729 19.2355,22.6127 H 4.54089 L 0,8.63729 Z m 35,0 11.8882,8.63729 -4.5409,13.97541 H 39.5409 L 35,8.63729 Z M 93.7764,8.63729 81.8882,0 70,8.63729 74.5409,22.6127 H 89.2355 Z M 116.888,0 128.776,8.63729 124.236,22.6127 H 109.541 L 105,8.63729 Z M 163.776,8.63729 151.888,0 140,8.63729 144.541,22.6127 h 14.695 z M 11.8882,45 23.7764,53.6373 19.2355,67.6127 H 4.54089 L 0,53.6373 Z M 58.7764,53.6373 46.8882,45 35,53.6373 39.5409,67.6127 H 54.2355 Z M 81.8882,45 93.7764,53.6373 89.2355,67.6127 H 74.5409 L 70,53.6373 Z M 128.776,53.6373 116.888,45 105,53.6373 l 4.541,13.9754 h 14.695 z M 151.888,45 l 11.888,8.6373 -4.54,13.9754 H 144.541 L 140,53.6373 Z M 23.7764,98.6373 11.8882,90 0,98.6373 4.54089,112.613 H 19.2355 Z M 46.8882,90 58.7764,98.6373 54.2355,112.613 H 39.5409 L 35,98.6373 Z M 93.7764,98.6373 81.8882,90 70,98.6373 74.5409,112.613 H 89.2355 Z M 116.888,90 l 11.888,8.6373 -4.54,13.9757 H 109.541 L 105,98.6373 Z M 163.776,98.6373 151.888,90 140,98.6373 l 4.541,13.9757 h 14.695 z M 11.8882,135 l 11.8882,8.637 -4.5409,13.976 H 4.54089 L 0,143.637 Z M 58.7764,143.637 46.8882,135 35,143.637 39.5409,157.613 H 54.2355 Z M 81.8882,135 l 11.8882,8.637 -4.5409,13.976 H 74.5409 L 70,143.637 Z M 128.776,143.637 116.888,135 105,143.637 l 4.541,13.976 h 14.695 z m 23.112,-8.637 11.888,8.637 -4.54,13.976 H 144.541 L 140,143.637 Z M 23.7764,188.637 11.8882,180 0,188.637 4.54089,202.613 H 19.2355 Z M 46.8882,180 l 11.8882,8.637 -4.5409,13.976 H 39.5409 L 35,188.637 Z M 93.7764,188.637 81.8882,180 70,188.637 74.5409,202.613 H 89.2355 Z M 116.888,180 l 11.888,8.637 -4.54,13.976 H 109.541 L 105,188.637 Z m 46.888,8.637 L 151.888,180 140,188.637 l 4.541,13.976 h 14.695 z M 11.8882,225 l 11.8882,8.637 -4.5409,13.976 H 4.54089 L 0,233.637 Z M 58.7764,233.637 46.8882,225 35,233.637 39.5409,247.613 H 54.2355 Z M 81.8882,225 l 11.8882,8.637 -4.5409,13.976 H 74.5409 L 70,233.637 Z M 128.776,233.637 116.888,225 105,233.637 l 4.541,13.976 h 14.695 z m 23.112,-8.637 11.888,8.637 -4.54,13.976 H 144.541 L 140,233.637 Z M 23.7764,278.637 11.8882,270 0,278.637 4.54089,292.613 H 19.2355 Z M 46.8882,270 l 11.8882,8.637 -4.5409,13.976 H 39.5409 L 35,278.637 Z M 93.7764,278.637 81.8882,270 70,278.637 74.5409,292.613 H 89.2355 Z M 116.888,270 l 11.888,8.637 -4.54,13.976 H 109.541 L 105,278.637 Z m 46.888,8.637 L 151.888,270 140,278.637 l 4.541,13.976 h 14.695 z M 11.8882,315 l 11.8882,8.637 -4.5409,13.976 H 4.54089 L 0,323.637 Z M 58.7764,323.637 46.8882,315 35,323.637 39.5409,337.613 H 54.2355 Z M 81.8882,315 l 11.8882,8.637 -4.5409,13.976 H 74.5409 L 70,323.637 Z M 128.776,323.637 116.888,315 105,323.637 l 4.541,13.976 h 14.695 z m 23.112,-8.637 11.888,8.637 -4.54,13.976 H 144.541 L 140,323.637 Z M 23.7764,368.637 11.8882,360 0,368.637 4.54089,382.613 H 19.2355 Z M 46.8882,360 l 11.8882,8.637 -4.5409,13.976 H 39.5409 L 35,368.637 Z M 93.7764,368.637 81.8882,360 70,368.637 74.5409,382.613 H 89.2355 Z M 116.888,360 l 11.888,8.637 -4.54,13.976 H 109.541 L 105,368.637 Z m 46.888,8.637 L 151.888,360 140,368.637 l 4.541,13.976 h 14.695 z M 11.8882,405 l 11.8882,8.637 -4.5409,13.976 H 4.54089 L 0,413.637 Z M 58.7764,413.637 46.8882,405 35,413.637 39.5409,427.613 H 54.2355 Z M 81.8882,405 l 11.8882,8.637 -4.5409,13.976 H 74.5409 L 70,413.637 Z M 128.776,413.637 116.888,405 105,413.637 l 4.541,13.976 h 14.695 z m 23.112,-8.637 11.888,8.637 -4.54,13.976 H 144.541 L 140,413.637 Z M 23.7764,458.637 11.8882,450 0,458.637 4.54089,472.613 H 19.2355 Z M 46.8882,450 l 11.8882,8.637 -4.5409,13.976 H 39.5409 L 35,458.637 Z M 93.7764,458.637 81.8882,450 70,458.637 74.5409,472.613 H 89.2355 Z M 116.888,450 l 11.888,8.637 -4.54,13.976 H 109.541 L 105,458.637 Z m 46.888,8.637 L 151.888,450 140,458.637 l 4.541,13.976 h 14.695 z M 11.8882,495 l 11.8882,8.637 -4.5409,13.976 H 4.54089 L 0,503.637 Z M 58.7764,503.637 46.8882,495 35,503.637 39.5409,517.613 H 54.2355 Z M 81.8882,495 l 11.8882,8.637 -4.5409,13.976 H 74.5409 L 70,503.637 Z M 128.776,503.637 116.888,495 105,503.637 l 4.541,13.976 h 14.695 z m 23.112,-8.637 11.888,8.637 -4.54,13.976 H 144.541 L 140,503.637 Z M 23.7764,548.637 11.8882,540 0,548.637 4.54089,562.613 H 19.2355 Z M 46.8882,540 l 11.8882,8.637 -4.5409,13.976 H 39.5409 L 35,548.637 Z M 93.7764,548.637 81.8882,540 70,548.637 74.5409,562.613 H 89.2355 Z M 116.888,540 l 11.888,8.637 -4.54,13.976 H 109.541 L 105,548.637 Z m 46.888,8.637 L 151.888,540 140,548.637 l 4.541,13.976 h 14.695 z M 11.8882,585 l 11.8882,8.637 -4.5409,13.976 H 4.54089 L 0,593.637 Z M 58.7764,593.637 46.8882,585 35,593.637 39.5409,607.613 H 54.2355 Z M 81.8882,585 l 11.8882,8.637 -4.5409,13.976 H 74.5409 L 70,593.637 Z M 128.776,593.637 116.888,585 105,593.637 l 4.541,13.976 h 14.695 z m 23.112,-8.637 11.888,8.637 -4.54,13.976 H 144.541 L 140,593.637 Z M 23.7764,638.637 11.8882,630 0,638.637 4.54089,652.613 H 19.2355 Z M 46.8882,630 l 11.8882,8.637 -4.5409,13.976 H 39.5409 L 35,638.637 Z M 93.7764,638.637 81.8882,630 70,638.637 74.5409,652.613 H 89.2355 Z M 116.888,630 l 11.888,8.637 -4.54,13.976 H 109.541 L 105,638.637 Z m 46.888,8.637 L 151.888,630 140,638.637 l 4.541,13.976 h 14.695 z"
       id="path52"
       inkscape:connector-curvature="0"
       style="fill:#50e2c1;fill-rule:evenodd;stroke:none" />
  </g>
  <defs
     id="defs64">
    <clipPath
       id="clip_4">
      <rect
         x="1714.2949"
         y="867.34668"
         width="329.86804"
         height="441.82324"
         id="rect56"
         style="clip-rule:evenodd" />
    </clipPath>
    <linearGradient
       id="gradient_2"
       gradientUnits="userSpaceOnUse"
       x1="89"
       y1="55.282463"
       x2="0"
       y2="17.694422">
      <stop
         offset="0"
         stop-color="rgb(251,171,125)"
         id="stop59" />
      <stop
         offset="1"
         stop-color="rgb(247,206,104)"
         id="stop61" />
    </linearGradient>
  </defs>
  <g
     clip-path="url(#clip_4)"
     id="g68"
     transform="translate(-303.85937,-285.58)">
    <path
       transform="matrix(0.9996,0,0,0.9996,1714.29,867.347)"
       d="M 44.5,0 89,73 H 0 Z"
       id="path66"
       inkscape:connector-curvature="0"
       style="fill:url(#gradient_2);stroke:none" />
  </g>
  <defs
     id="defs78">
    <clipPath
       id="clip_5">
      <rect
         x="1714.2949"
         y="867.34668"
         width="329.86804"
         height="441.82324"
         id="rect70"
         style="clip-rule:evenodd" />
    </clipPath>
    <linearGradient
       id="gradient_3"
       gradientUnits="userSpaceOnUse"
       x1="89"
       y1="55.282463"
       x2="0"
       y2="17.694422">
      <stop
         offset="0"
         stop-color="rgb(251,171,125)"
         id="stop73" />
      <stop
         offset="1"
         stop-color="rgb(247,206,104)"
         id="stop75" />
    </linearGradient>
  </defs>
  <g
     clip-path="url(#clip_5)"
     id="g82"
     transform="translate(-303.85937,-285.58)">
    <path
       transform="matrix(0.9996,0,0,0.9996,1714.29,950.313)"
       d="M 44.5,0 89,73 H 0 Z"
       id="path80"
       inkscape:connector-curvature="0"
       style="fill:url(#gradient_3);stroke:none" />
  </g>
  <defs
     id="defs92">
    <clipPath
       id="clip_6">
      <rect
         x="1714.2949"
         y="867.34668"
         width="329.86804"
         height="441.82324"
         id="rect84"
         style="clip-rule:evenodd" />
    </clipPath>
    <linearGradient
       id="gradient_4"
       gradientUnits="userSpaceOnUse"
       x1="89"
       y1="55.282463"
       x2="0"
       y2="17.694422">
      <stop
         offset="0"
         stop-color="rgb(251,171,125)"
         id="stop87" />
      <stop
         offset="1"
         stop-color="rgb(247,206,104)"
         id="stop89" />
    </linearGradient>
  </defs>
  <g
     clip-path="url(#clip_6)"
     id="g96"
     transform="translate(-303.85937,-285.58)">
    <path
       transform="matrix(0.9996,0,0,0.9996,1714.29,1033.28)"
       d="M 44.5,0 89,73 H 0 Z"
       id="path94"
       inkscape:connector-curvature="0"
       style="fill:url(#gradient_4);stroke:none" />
  </g>
  <defs
     id="defs106">
    <clipPath
       id="clip_7">
      <rect
         x="1714.2949"
         y="867.34668"
         width="329.86804"
         height="441.82324"
         id="rect98"
         style="clip-rule:evenodd" />
    </clipPath>
    <linearGradient
       id="gradient_5"
       gradientUnits="userSpaceOnUse"
       x1="89"
       y1="55.282463"
       x2="0"
       y2="17.694422">
      <stop
         offset="0"
         stop-color="rgb(251,171,125)"
         id="stop101" />
      <stop
         offset="1"
         stop-color="rgb(247,206,104)"
         id="stop103" />
    </linearGradient>
  </defs>
  <g
     clip-path="url(#clip_7)"
     id="g110"
     transform="translate(-303.85937,-285.58)">
    <path
       transform="matrix(0.9996,0,0,0.9996,1714.29,1116.25)"
       d="M 44.5,0 89,73 H 0 Z"
       id="path108"
       inkscape:connector-curvature="0"
       style="fill:url(#gradient_5);stroke:none" />
  </g>
  <defs
     id="defs120">
    <clipPath
       id="clip_8">
      <rect
         x="1714.2949"
         y="867.34668"
         width="329.86804"
         height="441.82324"
         id="rect112"
         style="clip-rule:evenodd" />
    </clipPath>
    <linearGradient
       id="gradient_6"
       gradientUnits="userSpaceOnUse"
       x1="89"
       y1="55.282463"
       x2="0"
       y2="17.694422">
      <stop
         offset="0"
         stop-color="rgb(251,171,125)"
         id="stop115" />
      <stop
         offset="1"
         stop-color="rgb(247,206,104)"
         id="stop117" />
    </linearGradient>
  </defs>
  <g
     clip-path="url(#clip_8)"
     id="g124"
     transform="translate(-303.85937,-285.58)">
    <path
       transform="matrix(0.9996,0,0,0.9996,1714.29,1199.21)"
       d="M 44.5,0 89,73 H 0 Z"
       id="path122"
       inkscape:connector-curvature="0"
       style="fill:url(#gradient_6);stroke:none" />
  </g>
  <defs
     id="defs134">
    <clipPath
       id="clip_9">
      <rect
         x="1714.2949"
         y="867.34668"
         width="329.86804"
         height="441.82324"
         id="rect126"
         style="clip-rule:evenodd" />
    </clipPath>
    <linearGradient
       id="gradient_7"
       gradientUnits="userSpaceOnUse"
       x1="89"
       y1="55.282463"
       x2="0"
       y2="17.694422">
      <stop
         offset="0"
         stop-color="rgb(251,171,125)"
         id="stop129" />
      <stop
         offset="1"
         stop-color="rgb(247,206,104)"
         id="stop131" />
    </linearGradient>
  </defs>
  <g
     clip-path="url(#clip_9)"
     id="g138"
     transform="translate(-303.85937,-285.58)">
    <path
       transform="matrix(0.9996,0,0,0.9996,1714.29,1282.18)"
       d="M 44.5,0 89,73 H 0 Z"
       id="path136"
       inkscape:connector-curvature="0"
       style="fill:url(#gradient_7);stroke:none" />
  </g>
  <defs
     id="defs148">
    <clipPath
       id="clip_10">
      <rect
         x="1714.2949"
         y="867.34668"
         width="329.86804"
         height="441.82324"
         id="rect140"
         style="clip-rule:evenodd" />
    </clipPath>
    <linearGradient
       id="gradient_8"
       gradientUnits="userSpaceOnUse"
       x1="89"
       y1="55.282463"
       x2="0"
       y2="17.694422">
      <stop
         offset="0"
         stop-color="rgb(251,171,125)"
         id="stop143" />
      <stop
         offset="1"
         stop-color="rgb(247,206,104)"
         id="stop145" />
    </linearGradient>
  </defs>
  <g
     clip-path="url(#clip_10)"
     id="g152"
     transform="translate(-303.85937,-285.58)">
    <path
       transform="matrix(0.9996,0,0,0.9996,1813.26,867.347)"
       d="M 44.5,0 89,73 H 0 Z"
       id="path150"
       inkscape:connector-curvature="0"
       style="fill:url(#gradient_8);stroke:none" />
  </g>
  <defs
     id="defs162">
    <clipPath
       id="clip_11">
      <rect
         x="1714.2949"
         y="867.34668"
         width="329.86804"
         height="441.82324"
         id="rect154"
         style="clip-rule:evenodd" />
    </clipPath>
    <linearGradient
       id="gradient_9"
       gradientUnits="userSpaceOnUse"
       x1="89"
       y1="55.282463"
       x2="0"
       y2="17.694422">
      <stop
         offset="0"
         stop-color="rgb(251,171,125)"
         id="stop157" />
      <stop
         offset="1"
         stop-color="rgb(247,206,104)"
         id="stop159" />
    </linearGradient>
  </defs>
  <g
     clip-path="url(#clip_11)"
     id="g166"
     transform="translate(-303.85937,-285.58)">
    <path
       transform="matrix(0.9996,0,0,0.9996,1813.26,950.313)"
       d="M 44.5,0 89,73 H 0 Z"
       id="path164"
       inkscape:connector-curvature="0"
       style="fill:url(#gradient_9);stroke:none" />
  </g>
  <defs
     id="defs176">
    <clipPath
       id="clip_12">
      <rect
         x="1714.2949"
         y="867.34668"
         width="329.86804"
         height="441.82324"
         id="rect168"
         style="clip-rule:evenodd" />
    </clipPath>
    <linearGradient
       id="gradient_10"
       gradientUnits="userSpaceOnUse"
       x1="89"
       y1="55.282463"
       x2="0"
       y2="17.694422">
      <stop
         offset="0"
         stop-color="rgb(251,171,125)"
         id="stop171" />
      <stop
         offset="1"
         stop-color="rgb(247,206,104)"
         id="stop173" />
    </linearGradient>
  </defs>
  <g
     clip-path="url(#clip_12)"
     id="g180"
     transform="translate(-303.85937,-285.58)">
    <path
       transform="matrix(0.9996,0,0,0.9996,1813.26,1033.28)"
       d="M 44.5,0 89,73 H 0 Z"
       id="path178"
       inkscape:connector-curvature="0"
       style="fill:url(#gradient_10);stroke:none" />
  </g>
  <defs
     id="defs190">
    <clipPath
       id="clip_13">
      <rect
         x="1714.2949"
         y="867.34668"
         width="329.86804"
         height="441.82324"
         id="rect182"
         style="clip-rule:evenodd" />
    </clipPath>
    <linearGradient
       id="gradient_11"
       gradientUnits="userSpaceOnUse"
       x1="89"
       y1="55.282463"
       x2="0"
       y2="17.694422">
      <stop
         offset="0"
         stop-color="rgb(251,171,125)"
         id="stop185" />
      <stop
         offset="1"
         stop-color="rgb(247,206,104)"
         id="stop187" />
    </linearGradient>
  </defs>
  <g
     clip-path="url(#clip_13)"
     id="g194"
     transform="translate(-303.85937,-285.58)">
    <path
       transform="matrix(0.9996,0,0,0.9996,1813.26,1116.25)"
       d="M 44.5,0 89,73 H 0 Z"
       id="path192"
       inkscape:connector-curvature="0"
       style="fill:url(#gradient_11);stroke:none" />
  </g>
  <defs
     id="defs204">
    <clipPath
       id="clip_14">
      <rect
         x="1714.2949"
         y="867.34668"
         width="329.86804"
         height="441.82324"
         id="rect196"
         style="clip-rule:evenodd" />
    </clipPath>
    <linearGradient
       id="gradient_12"
       gradientUnits="userSpaceOnUse"
       x1="89"
       y1="55.282463"
       x2="0"
       y2="17.694422">
      <stop
         offset="0"
         stop-color="rgb(251,171,125)"
         id="stop199" />
      <stop
         offset="1"
         stop-color="rgb(247,206,104)"
         id="stop201" />
    </linearGradient>
  </defs>
  <g
     clip-path="url(#clip_14)"
     id="g208"
     transform="translate(-303.85937,-285.58)">
    <path
       transform="matrix(0.9996,0,0,0.9996,1813.26,1199.21)"
       d="M 44.5,0 89,73 H 0 Z"
       id="path206"
       inkscape:connector-curvature="0"
       style="fill:url(#gradient_12);stroke:none" />
  </g>
  <defs
     id="defs218">
    <clipPath
       id="clip_15">
      <rect
         x="1714.2949"
         y="867.34668"
         width="329.86804"
         height="441.82324"
         id="rect210"
         style="clip-rule:evenodd" />
    </clipPath>
    <linearGradient
       id="gradient_13"
       gradientUnits="userSpaceOnUse"
       x1="89"
       y1="55.282463"
       x2="0"
       y2="17.694422">
      <stop
         offset="0"
         stop-color="rgb(251,171,125)"
         id="stop213" />
      <stop
         offset="1"
         stop-color="rgb(247,206,104)"
         id="stop215" />
    </linearGradient>
  </defs>
  <g
     clip-path="url(#clip_15)"
     id="g222"
     transform="translate(-303.85937,-285.58)">
    <path
       transform="matrix(0.9996,0,0,0.9996,1813.26,1282.18)"
       d="M 44.5,0 89,73 H 0 Z"
       id="path220"
       inkscape:connector-curvature="0"
       style="fill:url(#gradient_13);stroke:none" />
  </g>
  <defs
     id="defs232">
    <clipPath
       id="clip_16">
      <rect
         x="1714.2949"
         y="867.34668"
         width="329.86804"
         height="441.82324"
         id="rect224"
         style="clip-rule:evenodd" />
    </clipPath>
    <linearGradient
       id="gradient_14"
       gradientUnits="userSpaceOnUse"
       x1="89"
       y1="55.282463"
       x2="0"
       y2="17.694422">
      <stop
         offset="0"
         stop-color="rgb(251,171,125)"
         id="stop227" />
      <stop
         offset="1"
         stop-color="rgb(247,206,104)"
         id="stop229" />
    </linearGradient>
  </defs>
  <g
     clip-path="url(#clip_16)"
     id="g236"
     transform="translate(-303.85937,-285.58)">
    <path
       transform="matrix(0.9996,0,0,0.9996,1912.22,867.347)"
       d="M 44.5,0 89,73 H 0 Z"
       id="path234"
       inkscape:connector-curvature="0"
       style="fill:url(#gradient_14);stroke:none" />
  </g>
  <defs
     id="defs246">
    <clipPath
       id="clip_17">
      <rect
         x="1714.2949"
         y="867.34668"
         width="329.86804"
         height="441.82324"
         id="rect238"
         style="clip-rule:evenodd" />
    </clipPath>
    <linearGradient
       id="gradient_15"
       gradientUnits="userSpaceOnUse"
       x1="89"
       y1="55.282463"
       x2="0"
       y2="17.694422">
      <stop
         offset="0"
         stop-color="rgb(251,171,125)"
         id="stop241" />
      <stop
         offset="1"
         stop-color="rgb(247,206,104)"
         id="stop243" />
    </linearGradient>
  </defs>
  <g
     clip-path="url(#clip_17)"
     id="g250"
     transform="translate(-303.85937,-285.58)">
    <path
       transform="matrix(0.9996,0,0,0.9996,1912.22,950.313)"
       d="M 44.5,0 89,73 H 0 Z"
       id="path248"
       inkscape:connector-curvature="0"
       style="fill:url(#gradient_15);stroke:none" />
  </g>
  <defs
     id="defs260">
    <clipPath
       id="clip_18">
      <rect
         x="1714.2949"
         y="867.34668"
         width="329.86804"
         height="441.82324"
         id="rect252"
         style="clip-rule:evenodd" />
    </clipPath>
    <linearGradient
       id="gradient_16"
       gradientUnits="userSpaceOnUse"
       x1="89"
       y1="55.282463"
       x2="0"
       y2="17.694422">
      <stop
         offset="0"
         stop-color="rgb(251,171,125)"
         id="stop255" />
      <stop
         offset="1"
         stop-color="rgb(247,206,104)"
         id="stop257" />
    </linearGradient>
  </defs>
  <g
     clip-path="url(#clip_18)"
     id="g264"
     transform="translate(-303.85937,-285.58)">
    <path
       transform="matrix(0.9996,0,0,0.9996,1912.22,1033.28)"
       d="M 44.5,0 89,73 H 0 Z"
       id="path262"
       inkscape:connector-curvature="0"
       style="fill:url(#gradient_16);stroke:none" />
  </g>
  <defs
     id="defs274">
    <clipPath
       id="clip_19">
      <rect
         x="1714.2949"
         y="867.34668"
         width="329.86804"
         height="441.82324"
         id="rect266"
         style="clip-rule:evenodd" />
    </clipPath>
    <linearGradient
       id="gradient_17"
       gradientUnits="userSpaceOnUse"
       x1="89"
       y1="55.282463"
       x2="0"
       y2="17.694422">
      <stop
         offset="0"
         stop-color="rgb(251,171,125)"
         id="stop269" />
      <stop
         offset="1"
         stop-color="rgb(247,206,104)"
         id="stop271" />
    </linearGradient>
  </defs>
  <g
     clip-path="url(#clip_19)"
     id="g278"
     transform="translate(-303.85937,-285.58)">
    <path
       transform="matrix(0.9996,0,0,0.9996,1912.22,1116.25)"
       d="M 44.5,0 89,73 H 0 Z"
       id="path276"
       inkscape:connector-curvature="0"
       style="fill:url(#gradient_17);stroke:none" />
  </g>
  <defs
     id="defs288">
    <clipPath
       id="clip_20">
      <rect
         x="1714.2949"
         y="867.34668"
         width="329.86804"
         height="441.82324"
         id="rect280"
         style="clip-rule:evenodd" />
    </clipPath>
    <linearGradient
       id="gradient_18"
       gradientUnits="userSpaceOnUse"
       x1="89"
       y1="55.282463"
       x2="0"
       y2="17.694422">
      <stop
         offset="0"
         stop-color="rgb(251,171,125)"
         id="stop283" />
      <stop
         offset="1"
         stop-color="rgb(247,206,104)"
         id="stop285" />
    </linearGradient>
  </defs>
  <g
     clip-path="url(#clip_20)"
     id="g292"
     transform="translate(-303.85937,-285.58)">
    <path
       transform="matrix(0.9996,0,0,0.9996,1912.22,1199.21)"
       d="M 44.5,0 89,73 H 0 Z"
       id="path290"
       inkscape:connector-curvature="0"
       style="fill:url(#gradient_18);stroke:none" />
  </g>
  <defs
     id="defs302">
    <clipPath
       id="clip_21">
      <rect
         x="1714.2949"
         y="867.34668"
         width="329.86804"
         height="441.82324"
         id="rect294"
         style="clip-rule:evenodd" />
    </clipPath>
    <linearGradient
       id="gradient_19"
       gradientUnits="userSpaceOnUse"
       x1="89"
       y1="55.282463"
       x2="0"
       y2="17.694422">
      <stop
         offset="0"
         stop-color="rgb(251,171,125)"
         id="stop297" />
      <stop
         offset="1"
         stop-color="rgb(247,206,104)"
         id="stop299" />
    </linearGradient>
  </defs>
  <g
     clip-path="url(#clip_21)"
     id="g306"
     transform="translate(-303.85937,-285.58)">
    <path
       transform="matrix(0.9996,0,0,0.9996,1912.22,1282.18)"
       d="M 44.5,0 89,73 H 0 Z"
       id="path304"
       inkscape:connector-curvature="0"
       style="fill:url(#gradient_19);stroke:none" />
  </g>
  <defs
     id="defs316">
    <clipPath
       id="clip_22">
      <rect
         x="1714.2949"
         y="867.34668"
         width="329.86804"
         height="441.82324"
         id="rect308"
         style="clip-rule:evenodd" />
    </clipPath>
    <linearGradient
       id="gradient_20"
       gradientUnits="userSpaceOnUse"
       x1="89"
       y1="55.282463"
       x2="0"
       y2="17.694422">
      <stop
         offset="0"
         stop-color="rgb(251,171,125)"
         id="stop311" />
      <stop
         offset="1"
         stop-color="rgb(247,206,104)"
         id="stop313" />
    </linearGradient>
  </defs>
  <g
     clip-path="url(#clip_22)"
     id="g320"
     transform="translate(-303.85937,-285.58)">
    <path
       transform="matrix(0.9996,0,0,0.9996,2011.18,867.347)"
       d="M 44.5,0 89,73 H 0 Z"
       id="path318"
       inkscape:connector-curvature="0"
       style="fill:url(#gradient_20);stroke:none" />
  </g>
  <defs
     id="defs330">
    <clipPath
       id="clip_23">
      <rect
         x="1714.2949"
         y="867.34668"
         width="329.86804"
         height="441.82324"
         id="rect322"
         style="clip-rule:evenodd" />
    </clipPath>
    <linearGradient
       id="gradient_21"
       gradientUnits="userSpaceOnUse"
       x1="89"
       y1="55.282463"
       x2="0"
       y2="17.694422">
      <stop
         offset="0"
         stop-color="rgb(251,171,125)"
         id="stop325" />
      <stop
         offset="1"
         stop-color="rgb(247,206,104)"
         id="stop327" />
    </linearGradient>
  </defs>
  <g
     clip-path="url(#clip_23)"
     id="g334"
     transform="translate(-303.85937,-285.58)">
    <path
       transform="matrix(0.9996,0,0,0.9996,2011.18,950.313)"
       d="M 44.5,0 89,73 H 0 Z"
       id="path332"
       inkscape:connector-curvature="0"
       style="fill:url(#gradient_21);stroke:none" />
  </g>
  <defs
     id="defs344">
    <clipPath
       id="clip_24">
      <rect
         x="1714.2949"
         y="867.34668"
         width="329.86804"
         height="441.82324"
         id="rect336"
         style="clip-rule:evenodd" />
    </clipPath>
    <linearGradient
       id="gradient_22"
       gradientUnits="userSpaceOnUse"
       x1="89"
       y1="55.282463"
       x2="0"
       y2="17.694422">
      <stop
         offset="0"
         stop-color="rgb(251,171,125)"
         id="stop339" />
      <stop
         offset="1"
         stop-color="rgb(247,206,104)"
         id="stop341" />
    </linearGradient>
  </defs>
  <g
     clip-path="url(#clip_24)"
     id="g348"
     transform="translate(-303.85937,-285.58)">
    <path
       transform="matrix(0.9996,0,0,0.9996,2011.18,1033.28)"
       d="M 44.5,0 89,73 H 0 Z"
       id="path346"
       inkscape:connector-curvature="0"
       style="fill:url(#gradient_22);stroke:none" />
  </g>
  <defs
     id="defs358">
    <clipPath
       id="clip_25">
      <rect
         x="1714.2949"
         y="867.34668"
         width="329.86804"
         height="441.82324"
         id="rect350"
         style="clip-rule:evenodd" />
    </clipPath>
    <linearGradient
       id="gradient_23"
       gradientUnits="userSpaceOnUse"
       x1="89"
       y1="55.282463"
       x2="0"
       y2="17.694422">
      <stop
         offset="0"
         stop-color="rgb(251,171,125)"
         id="stop353" />
      <stop
         offset="1"
         stop-color="rgb(247,206,104)"
         id="stop355" />
    </linearGradient>
  </defs>
  <g
     clip-path="url(#clip_25)"
     id="g362"
     transform="translate(-303.85937,-285.58)">
    <path
       transform="matrix(0.9996,0,0,0.9996,2011.18,1116.25)"
       d="M 44.5,0 89,73 H 0 Z"
       id="path360"
       inkscape:connector-curvature="0"
       style="fill:url(#gradient_23);stroke:none" />
  </g>
  <defs
     id="defs372">
    <clipPath
       id="clip_26">
      <rect
         x="1714.2949"
         y="867.34668"
         width="329.86804"
         height="441.82324"
         id="rect364"
         style="clip-rule:evenodd" />
    </clipPath>
    <linearGradient
       id="gradient_24"
       gradientUnits="userSpaceOnUse"
       x1="89"
       y1="55.282463"
       x2="0"
       y2="17.694422">
      <stop
         offset="0"
         stop-color="rgb(251,171,125)"
         id="stop367" />
      <stop
         offset="1"
         stop-color="rgb(247,206,104)"
         id="stop369" />
    </linearGradient>
  </defs>
  <g
     clip-path="url(#clip_26)"
     id="g376"
     transform="translate(-303.85937,-285.58)">
    <path
       transform="matrix(0.9996,0,0,0.9996,2011.18,1199.21)"
       d="M 44.5,0 89,73 H 0 Z"
       id="path374"
       inkscape:connector-curvature="0"
       style="fill:url(#gradient_24);stroke:none" />
  </g>
  <defs
     id="defs386">
    <clipPath
       id="clip_27">
      <rect
         x="1714.2949"
         y="867.34668"
         width="329.86804"
         height="441.82324"
         id="rect378"
         style="clip-rule:evenodd" />
    </clipPath>
    <linearGradient
       id="gradient_25"
       gradientUnits="userSpaceOnUse"
       x1="89"
       y1="55.282463"
       x2="0"
       y2="17.694422">
      <stop
         offset="0"
         stop-color="rgb(251,171,125)"
         id="stop381" />
      <stop
         offset="1"
         stop-color="rgb(247,206,104)"
         id="stop383" />
    </linearGradient>
  </defs>
  <g
     clip-path="url(#clip_27)"
     id="g390"
     transform="translate(-303.85937,-285.58)">
    <path
       transform="matrix(0.9996,0,0,0.9996,2011.18,1282.18)"
       d="M 44.5,0 89,73 H 0 Z"
       id="path388"
       inkscape:connector-curvature="0"
       style="fill:url(#gradient_25);stroke:none" />
  </g>
</svg>
