<?xml version="1.0" encoding="UTF-8" standalone="no"?>
<svg
   xmlns:dc="http://purl.org/dc/elements/1.1/"
   xmlns:cc="http://creativecommons.org/ns#"
   xmlns:rdf="http://www.w3.org/1999/02/22-rdf-syntax-ns#"
   xmlns:svg="http://www.w3.org/2000/svg"
   xmlns="http://www.w3.org/2000/svg"
   xmlns:sodipodi="http://sodipodi.sourceforge.net/DTD/sodipodi-0.dtd"
   xmlns:inkscape="http://www.inkscape.org/namespaces/inkscape"
   width="1740.3036"
   height="1023.5898"
   version="1.1"
   id="svg439"
   sodipodi:docname="ab7.svg"
   inkscape:version="0.92.2 (5c3e80d, 2017-08-06)">
  <metadata
     id="metadata443">
    <rdf:RDF>
      <cc:Work
         rdf:about="">
        <dc:format>image/svg+xml</dc:format>
        <dc:type
           rdf:resource="http://purl.org/dc/dcmitype/StillImage" />
      </cc:Work>
    </rdf:RDF>
  </metadata>
  <sodipodi:namedview
     pagecolor="#ffffff"
     bordercolor="#666666"
     borderopacity="1"
     objecttolerance="10"
     gridtolerance="10"
     guidetolerance="10"
     inkscape:pageopacity="0"
     inkscape:pageshadow="2"
     inkscape:window-width="1600"
     inkscape:window-height="1133"
     id="namedview441"
     showgrid="false"
     inkscape:zoom="0.13485714"
     inkscape:cx="886.904"
     inkscape:cy="434.16986"
     inkscape:window-x="-9"
     inkscape:window-y="-9"
     inkscape:window-maximized="1"
     inkscape:current-layer="svg439" />
  <rect
     stroke-miterlimit="4"
     width="1740.3036"
     height="1023.5904"
     id="rect2"
     x="0"
     y="0"
     style="fill:none;stroke:#9b9b9b;stroke-width:2;stroke-miterlimit:4;stroke-opacity:0.39215686" />
  <rect
     width="1740.3036"
     height="1023.5904"
     id="rect4"
     x="0"
     y="0"
     style="fill:#ffffff;stroke:none;stroke-width:0.99959999" />
  <text
     font-size="14"
     x="-5.2734376e-005"
     y="-7.0004101"
     id="text6"
     style="font-size:14px;font-family:'Segoe UI';fill:#7f7f7f;stroke:none">ab7</text>
  <text
     font-size="14"
     x="26.735298"
     y="-7.0004101"
     id="text8"
     style="font-size:14px;font-family:'Segoe UI';fill:#bdbdbd;stroke:none">1741×1024</text>
  <defs
     id="defs13">
    <clipPath
       id="clip_0">
      <rect
         x="303.59595"
         y="285.57959"
         width="1740.3036"
         height="1023.5903"
         id="rect10"
         style="clip-rule:evenodd" />
    </clipPath>
  </defs>
  <g
     clip-path="url(#clip_0)"
     id="g17"
     transform="translate(-303.596,-285.58)">
    <path
       transform="matrix(0.9996,0,0,0.9996,303.596,285.58)"
       d="M 0,0 H 1741 V 1024 H 0 Z"
       id="path15"
       inkscape:connector-curvature="0"
       style="fill:#ffffff;stroke:none" />
  </g>
  <defs
     id="defs31">
    <clipPath
       id="clip_1">
      <rect
         x="303.59595"
         y="285.57959"
         width="1740.3036"
         height="1023.5903"
         id="rect19"
         style="clip-rule:evenodd" />
    </clipPath>
    <linearGradient
       id="gradient_0"
       gradientUnits="userSpaceOnUse"
       x1="1207"
       y1="603.5"
       x2="0"
       y2="603.5">
      <stop
         offset="0"
         stop-color="rgb(254,154,139)"
         id="stop22" />
      <stop
         offset="0.40849304"
         stop-color="rgb(253,134,139)"
         id="stop24" />
      <stop
         offset="0.73149109"
         stop-color="rgb(249,116,143)"
         id="stop26" />
      <stop
         offset="1"
         stop-color="rgb(247,140,159)"
         id="stop28" />
    </linearGradient>
  </defs>
  <g
     clip-path="url(#clip_1)"
     id="g35"
     transform="translate(-303.596,-285.58)">
    <path
       transform="matrix(0.9996,0,0,0.9996,1174.25,0.693604)"
       d="M 603.5,1207 C 936.804,1207 1207,936.804 1207,603.5 1207,270.196 936.804,0 603.5,0 270.196,0 0,270.196 0,603.5 0,936.804 270.196,1207 603.5,1207 Z"
       id="path33"
       inkscape:connector-curvature="0"
       style="fill:url(#gradient_0);stroke:none" />
  </g>
  <defs
     id="defs40">
    <clipPath
       id="clip_2">
      <rect
         x="303.59595"
         y="285.57959"
         width="1740.3036"
         height="1023.5903"
         id="rect37"
         style="clip-rule:evenodd" />
    </clipPath>
  </defs>
  <g
     clip-path="url(#clip_2)"
     id="g44"
     transform="translate(-303.596,-285.58)">
    <path
       transform="matrix(0.9996,0,0,0.9996,0.717285,869.346)"
       d="m 440.344,880.688 c 243.195,0 440.344,-197.149 440.344,-440.344 C 880.688,197.149 683.539,0 440.344,0 197.149,0 0,197.149 0,440.344 0,683.539 197.149,880.688 440.344,880.688 Z"
       id="path42"
       inkscape:connector-curvature="0"
       style="fill:#ffffff;stroke:none" />
  </g>
  <defs
     id="defs49">
    <clipPath
       id="clip_3">
      <rect
         x="353.57593"
         y="516.48706"
         width="174.92999"
         height="674.72998"
         id="rect46"
         style="clip-rule:evenodd" />
    </clipPath>
  </defs>
  <g
     clip-path="url(#clip_3)"
     id="g53"
     transform="translate(-303.596,-285.58)">
    <path
       transform="matrix(0.9996,0,0,0.9996,354.188,516.487)"
       d="M 11.8882,0 23.7764,8.63729 19.2355,22.6127 H 4.54089 L 0,8.63729 Z m 35,0 11.8882,8.63729 -4.5409,13.97541 H 39.5409 L 35,8.63729 Z M 93.7764,8.63729 81.8882,0 70,8.63729 74.5409,22.6127 H 89.2355 Z M 116.888,0 128.776,8.63729 124.236,22.6127 H 109.541 L 105,8.63729 Z M 163.776,8.63729 151.888,0 140,8.63729 144.541,22.6127 h 14.695 z M 11.8882,45 23.7764,53.6373 19.2355,67.6127 H 4.54089 L 0,53.6373 Z M 58.7764,53.6373 46.8882,45 35,53.6373 39.5409,67.6127 H 54.2355 Z M 81.8882,45 93.7764,53.6373 89.2355,67.6127 H 74.5409 L 70,53.6373 Z M 128.776,53.6373 116.888,45 105,53.6373 l 4.541,13.9754 h 14.695 z M 151.888,45 l 11.888,8.6373 -4.54,13.9754 H 144.541 L 140,53.6373 Z M 23.7764,98.6373 11.8882,90 0,98.6373 4.54089,112.613 H 19.2355 Z M 46.8882,90 58.7764,98.6373 54.2355,112.613 H 39.5409 L 35,98.6373 Z M 93.7764,98.6373 81.8882,90 70,98.6373 74.5409,112.613 H 89.2355 Z M 116.888,90 l 11.888,8.6373 -4.54,13.9757 H 109.541 L 105,98.6373 Z M 163.776,98.6373 151.888,90 140,98.6373 l 4.541,13.9757 h 14.695 z M 11.8882,135 l 11.8882,8.637 -4.5409,13.976 H 4.54089 L 0,143.637 Z M 58.7764,143.637 46.8882,135 35,143.637 39.5409,157.613 H 54.2355 Z M 81.8882,135 l 11.8882,8.637 -4.5409,13.976 H 74.5409 L 70,143.637 Z M 128.776,143.637 116.888,135 105,143.637 l 4.541,13.976 h 14.695 z m 23.112,-8.637 11.888,8.637 -4.54,13.976 H 144.541 L 140,143.637 Z M 23.7764,188.637 11.8882,180 0,188.637 4.54089,202.613 H 19.2355 Z M 46.8882,180 l 11.8882,8.637 -4.5409,13.976 H 39.5409 L 35,188.637 Z M 93.7764,188.637 81.8882,180 70,188.637 74.5409,202.613 H 89.2355 Z M 116.888,180 l 11.888,8.637 -4.54,13.976 H 109.541 L 105,188.637 Z m 46.888,8.637 L 151.888,180 140,188.637 l 4.541,13.976 h 14.695 z M 11.8882,225 l 11.8882,8.637 -4.5409,13.976 H 4.54089 L 0,233.637 Z M 58.7764,233.637 46.8882,225 35,233.637 39.5409,247.613 H 54.2355 Z M 81.8882,225 l 11.8882,8.637 -4.5409,13.976 H 74.5409 L 70,233.637 Z M 128.776,233.637 116.888,225 105,233.637 l 4.541,13.976 h 14.695 z m 23.112,-8.637 11.888,8.637 -4.54,13.976 H 144.541 L 140,233.637 Z M 23.7764,278.637 11.8882,270 0,278.637 4.54089,292.613 H 19.2355 Z M 46.8882,270 l 11.8882,8.637 -4.5409,13.976 H 39.5409 L 35,278.637 Z M 93.7764,278.637 81.8882,270 70,278.637 74.5409,292.613 H 89.2355 Z M 116.888,270 l 11.888,8.637 -4.54,13.976 H 109.541 L 105,278.637 Z m 46.888,8.637 L 151.888,270 140,278.637 l 4.541,13.976 h 14.695 z M 11.8882,315 l 11.8882,8.637 -4.5409,13.976 H 4.54089 L 0,323.637 Z M 58.7764,323.637 46.8882,315 35,323.637 39.5409,337.613 H 54.2355 Z M 81.8882,315 l 11.8882,8.637 -4.5409,13.976 H 74.5409 L 70,323.637 Z M 128.776,323.637 116.888,315 105,323.637 l 4.541,13.976 h 14.695 z m 23.112,-8.637 11.888,8.637 -4.54,13.976 H 144.541 L 140,323.637 Z M 23.7764,368.637 11.8882,360 0,368.637 4.54089,382.613 H 19.2355 Z M 46.8882,360 l 11.8882,8.637 -4.5409,13.976 H 39.5409 L 35,368.637 Z M 93.7764,368.637 81.8882,360 70,368.637 74.5409,382.613 H 89.2355 Z M 116.888,360 l 11.888,8.637 -4.54,13.976 H 109.541 L 105,368.637 Z m 46.888,8.637 L 151.888,360 140,368.637 l 4.541,13.976 h 14.695 z M 11.8882,405 l 11.8882,8.637 -4.5409,13.976 H 4.54089 L 0,413.637 Z M 58.7764,413.637 46.8882,405 35,413.637 39.5409,427.613 H 54.2355 Z M 81.8882,405 l 11.8882,8.637 -4.5409,13.976 H 74.5409 L 70,413.637 Z M 128.776,413.637 116.888,405 105,413.637 l 4.541,13.976 h 14.695 z m 23.112,-8.637 11.888,8.637 -4.54,13.976 H 144.541 L 140,413.637 Z M 23.7764,458.637 11.8882,450 0,458.637 4.54089,472.613 H 19.2355 Z M 46.8882,450 l 11.8882,8.637 -4.5409,13.976 H 39.5409 L 35,458.637 Z M 93.7764,458.637 81.8882,450 70,458.637 74.5409,472.613 H 89.2355 Z M 116.888,450 l 11.888,8.637 -4.54,13.976 H 109.541 L 105,458.637 Z m 46.888,8.637 L 151.888,450 140,458.637 l 4.541,13.976 h 14.695 z M 11.8882,495 l 11.8882,8.637 -4.5409,13.976 H 4.54089 L 0,503.637 Z M 58.7764,503.637 46.8882,495 35,503.637 39.5409,517.613 H 54.2355 Z M 81.8882,495 l 11.8882,8.637 -4.5409,13.976 H 74.5409 L 70,503.637 Z M 128.776,503.637 116.888,495 105,503.637 l 4.541,13.976 h 14.695 z m 23.112,-8.637 11.888,8.637 -4.54,13.976 H 144.541 L 140,503.637 Z M 23.7764,548.637 11.8882,540 0,548.637 4.54089,562.613 H 19.2355 Z M 46.8882,540 l 11.8882,8.637 -4.5409,13.976 H 39.5409 L 35,548.637 Z M 93.7764,548.637 81.8882,540 70,548.637 74.5409,562.613 H 89.2355 Z M 116.888,540 l 11.888,8.637 -4.54,13.976 H 109.541 L 105,548.637 Z m 46.888,8.637 L 151.888,540 140,548.637 l 4.541,13.976 h 14.695 z M 11.8882,585 l 11.8882,8.637 -4.5409,13.976 H 4.54089 L 0,593.637 Z M 58.7764,593.637 46.8882,585 35,593.637 39.5409,607.613 H 54.2355 Z M 81.8882,585 l 11.8882,8.637 -4.5409,13.976 H 74.5409 L 70,593.637 Z M 128.776,593.637 116.888,585 105,593.637 l 4.541,13.976 h 14.695 z m 23.112,-8.637 11.888,8.637 -4.54,13.976 H 144.541 L 140,593.637 Z M 23.7764,638.637 11.8882,630 0,638.637 4.54089,652.613 H 19.2355 Z M 46.8882,630 l 11.8882,8.637 -4.5409,13.976 H 39.5409 L 35,638.637 Z M 93.7764,638.637 81.8882,630 70,638.637 74.5409,652.613 H 89.2355 Z M 116.888,630 l 11.888,8.637 -4.54,13.976 H 109.541 L 105,638.637 Z m 46.888,8.637 L 151.888,630 140,638.637 l 4.541,13.976 h 14.695 z"
       id="path51"
       inkscape:connector-curvature="0"
       style="fill:#50e2c1;fill-rule:evenodd;stroke:none" />
  </g>
  <defs
     id="defs65">
    <clipPath
       id="clip_4">
      <rect
         x="1714.0317"
         y="867.34668"
         width="329.8678"
         height="441.82324"
         id="rect55"
         style="clip-rule:evenodd" />
    </clipPath>
    <linearGradient
       id="gradient_1"
       gradientUnits="userSpaceOnUse"
       x1="89"
       y1="0"
       x2="0"
       y2="73">
      <stop
         offset="0"
         stop-color="rgb(164,68,178)"
         id="stop58" />
      <stop
         offset="0.51708984"
         stop-color="rgb(211,23,114)"
         id="stop60" />
      <stop
         offset="1"
         stop-color="rgb(255,0,102)"
         id="stop62" />
    </linearGradient>
  </defs>
  <g
     clip-path="url(#clip_4)"
     id="g69"
     transform="translate(-303.596,-285.58)">
    <path
       transform="matrix(0.9996,0,0,0.9996,1714.03,867.347)"
       d="M 44.5,0 89,73 H 0 Z"
       id="path67"
       inkscape:connector-curvature="0"
       style="fill:url(#gradient_1);stroke:none" />
  </g>
  <defs
     id="defs81">
    <clipPath
       id="clip_5">
      <rect
         x="1714.0317"
         y="867.34668"
         width="329.8678"
         height="441.82324"
         id="rect71"
         style="clip-rule:evenodd" />
    </clipPath>
    <linearGradient
       id="gradient_2"
       gradientUnits="userSpaceOnUse"
       x1="89"
       y1="0"
       x2="0"
       y2="73">
      <stop
         offset="0"
         stop-color="rgb(164,68,178)"
         id="stop74" />
      <stop
         offset="0.51708984"
         stop-color="rgb(211,23,114)"
         id="stop76" />
      <stop
         offset="1"
         stop-color="rgb(255,0,102)"
         id="stop78" />
    </linearGradient>
  </defs>
  <g
     clip-path="url(#clip_5)"
     id="g85"
     transform="translate(-303.596,-285.58)">
    <path
       transform="matrix(0.9996,0,0,0.9996,1714.03,950.313)"
       d="M 44.5,0 89,73 H 0 Z"
       id="path83"
       inkscape:connector-curvature="0"
       style="fill:url(#gradient_2);stroke:none" />
  </g>
  <defs
     id="defs97">
    <clipPath
       id="clip_6">
      <rect
         x="1714.0317"
         y="867.34668"
         width="329.8678"
         height="441.82324"
         id="rect87"
         style="clip-rule:evenodd" />
    </clipPath>
    <linearGradient
       id="gradient_3"
       gradientUnits="userSpaceOnUse"
       x1="89"
       y1="0"
       x2="0"
       y2="73">
      <stop
         offset="0"
         stop-color="rgb(164,68,178)"
         id="stop90" />
      <stop
         offset="0.51708984"
         stop-color="rgb(211,23,114)"
         id="stop92" />
      <stop
         offset="1"
         stop-color="rgb(255,0,102)"
         id="stop94" />
    </linearGradient>
  </defs>
  <g
     clip-path="url(#clip_6)"
     id="g101"
     transform="translate(-303.596,-285.58)">
    <path
       transform="matrix(0.9996,0,0,0.9996,1714.03,1033.28)"
       d="M 44.5,0 89,73 H 0 Z"
       id="path99"
       inkscape:connector-curvature="0"
       style="fill:url(#gradient_3);stroke:none" />
  </g>
  <defs
     id="defs113">
    <clipPath
       id="clip_7">
      <rect
         x="1714.0317"
         y="867.34668"
         width="329.8678"
         height="441.82324"
         id="rect103"
         style="clip-rule:evenodd" />
    </clipPath>
    <linearGradient
       id="gradient_4"
       gradientUnits="userSpaceOnUse"
       x1="89"
       y1="0"
       x2="0"
       y2="73">
      <stop
         offset="0"
         stop-color="rgb(164,68,178)"
         id="stop106" />
      <stop
         offset="0.51708984"
         stop-color="rgb(211,23,114)"
         id="stop108" />
      <stop
         offset="1"
         stop-color="rgb(255,0,102)"
         id="stop110" />
    </linearGradient>
  </defs>
  <g
     clip-path="url(#clip_7)"
     id="g117"
     transform="translate(-303.596,-285.58)">
    <path
       transform="matrix(0.9996,0,0,0.9996,1714.03,1116.25)"
       d="M 44.5,0 89,73 H 0 Z"
       id="path115"
       inkscape:connector-curvature="0"
       style="fill:url(#gradient_4);stroke:none" />
  </g>
  <defs
     id="defs129">
    <clipPath
       id="clip_8">
      <rect
         x="1714.0317"
         y="867.34668"
         width="329.8678"
         height="441.82324"
         id="rect119"
         style="clip-rule:evenodd" />
    </clipPath>
    <linearGradient
       id="gradient_5"
       gradientUnits="userSpaceOnUse"
       x1="89"
       y1="0"
       x2="0"
       y2="73">
      <stop
         offset="0"
         stop-color="rgb(164,68,178)"
         id="stop122" />
      <stop
         offset="0.51708984"
         stop-color="rgb(211,23,114)"
         id="stop124" />
      <stop
         offset="1"
         stop-color="rgb(255,0,102)"
         id="stop126" />
    </linearGradient>
  </defs>
  <g
     clip-path="url(#clip_8)"
     id="g133"
     transform="translate(-303.596,-285.58)">
    <path
       transform="matrix(0.9996,0,0,0.9996,1714.03,1199.21)"
       d="M 44.5,0 89,73 H 0 Z"
       id="path131"
       inkscape:connector-curvature="0"
       style="fill:url(#gradient_5);stroke:none" />
  </g>
  <defs
     id="defs145">
    <clipPath
       id="clip_9">
      <rect
         x="1714.0317"
         y="867.34668"
         width="329.8678"
         height="441.82324"
         id="rect135"
         style="clip-rule:evenodd" />
    </clipPath>
    <linearGradient
       id="gradient_6"
       gradientUnits="userSpaceOnUse"
       x1="89"
       y1="0"
       x2="0"
       y2="73">
      <stop
         offset="0"
         stop-color="rgb(164,68,178)"
         id="stop138" />
      <stop
         offset="0.51708984"
         stop-color="rgb(211,23,114)"
         id="stop140" />
      <stop
         offset="1"
         stop-color="rgb(255,0,102)"
         id="stop142" />
    </linearGradient>
  </defs>
  <g
     clip-path="url(#clip_9)"
     id="g149"
     transform="translate(-303.596,-285.58)">
    <path
       transform="matrix(0.9996,0,0,0.9996,1714.03,1282.18)"
       d="M 44.5,0 89,73 H 0 Z"
       id="path147"
       inkscape:connector-curvature="0"
       style="fill:url(#gradient_6);stroke:none" />
  </g>
  <defs
     id="defs161">
    <clipPath
       id="clip_10">
      <rect
         x="1714.0317"
         y="867.34668"
         width="329.8678"
         height="441.82324"
         id="rect151"
         style="clip-rule:evenodd" />
    </clipPath>
    <linearGradient
       id="gradient_7"
       gradientUnits="userSpaceOnUse"
       x1="89"
       y1="0"
       x2="0"
       y2="73">
      <stop
         offset="0"
         stop-color="rgb(164,68,178)"
         id="stop154" />
      <stop
         offset="0.51708984"
         stop-color="rgb(211,23,114)"
         id="stop156" />
      <stop
         offset="1"
         stop-color="rgb(255,0,102)"
         id="stop158" />
    </linearGradient>
  </defs>
  <g
     clip-path="url(#clip_10)"
     id="g165"
     transform="translate(-303.596,-285.58)">
    <path
       transform="matrix(0.9996,0,0,0.9996,1812.99,867.347)"
       d="M 44.5,0 89,73 H 0 Z"
       id="path163"
       inkscape:connector-curvature="0"
       style="fill:url(#gradient_7);stroke:none" />
  </g>
  <defs
     id="defs177">
    <clipPath
       id="clip_11">
      <rect
         x="1714.0317"
         y="867.34668"
         width="329.8678"
         height="441.82324"
         id="rect167"
         style="clip-rule:evenodd" />
    </clipPath>
    <linearGradient
       id="gradient_8"
       gradientUnits="userSpaceOnUse"
       x1="89"
       y1="0"
       x2="0"
       y2="73">
      <stop
         offset="0"
         stop-color="rgb(164,68,178)"
         id="stop170" />
      <stop
         offset="0.51708984"
         stop-color="rgb(211,23,114)"
         id="stop172" />
      <stop
         offset="1"
         stop-color="rgb(255,0,102)"
         id="stop174" />
    </linearGradient>
  </defs>
  <g
     clip-path="url(#clip_11)"
     id="g181"
     transform="translate(-303.596,-285.58)">
    <path
       transform="matrix(0.9996,0,0,0.9996,1812.99,950.313)"
       d="M 44.5,0 89,73 H 0 Z"
       id="path179"
       inkscape:connector-curvature="0"
       style="fill:url(#gradient_8);stroke:none" />
  </g>
  <defs
     id="defs193">
    <clipPath
       id="clip_12">
      <rect
         x="1714.0317"
         y="867.34668"
         width="329.8678"
         height="441.82324"
         id="rect183"
         style="clip-rule:evenodd" />
    </clipPath>
    <linearGradient
       id="gradient_9"
       gradientUnits="userSpaceOnUse"
       x1="89"
       y1="0"
       x2="0"
       y2="73">
      <stop
         offset="0"
         stop-color="rgb(164,68,178)"
         id="stop186" />
      <stop
         offset="0.51708984"
         stop-color="rgb(211,23,114)"
         id="stop188" />
      <stop
         offset="1"
         stop-color="rgb(255,0,102)"
         id="stop190" />
    </linearGradient>
  </defs>
  <g
     clip-path="url(#clip_12)"
     id="g197"
     transform="translate(-303.596,-285.58)">
    <path
       transform="matrix(0.9996,0,0,0.9996,1812.99,1033.28)"
       d="M 44.5,0 89,73 H 0 Z"
       id="path195"
       inkscape:connector-curvature="0"
       style="fill:url(#gradient_9);stroke:none" />
  </g>
  <defs
     id="defs209">
    <clipPath
       id="clip_13">
      <rect
         x="1714.0317"
         y="867.34668"
         width="329.8678"
         height="441.82324"
         id="rect199"
         style="clip-rule:evenodd" />
    </clipPath>
    <linearGradient
       id="gradient_10"
       gradientUnits="userSpaceOnUse"
       x1="89"
       y1="0"
       x2="0"
       y2="73">
      <stop
         offset="0"
         stop-color="rgb(164,68,178)"
         id="stop202" />
      <stop
         offset="0.51708984"
         stop-color="rgb(211,23,114)"
         id="stop204" />
      <stop
         offset="1"
         stop-color="rgb(255,0,102)"
         id="stop206" />
    </linearGradient>
  </defs>
  <g
     clip-path="url(#clip_13)"
     id="g213"
     transform="translate(-303.596,-285.58)">
    <path
       transform="matrix(0.9996,0,0,0.9996,1812.99,1116.25)"
       d="M 44.5,0 89,73 H 0 Z"
       id="path211"
       inkscape:connector-curvature="0"
       style="fill:url(#gradient_10);stroke:none" />
  </g>
  <defs
     id="defs225">
    <clipPath
       id="clip_14">
      <rect
         x="1714.0317"
         y="867.34668"
         width="329.8678"
         height="441.82324"
         id="rect215"
         style="clip-rule:evenodd" />
    </clipPath>
    <linearGradient
       id="gradient_11"
       gradientUnits="userSpaceOnUse"
       x1="89"
       y1="0"
       x2="0"
       y2="73">
      <stop
         offset="0"
         stop-color="rgb(164,68,178)"
         id="stop218" />
      <stop
         offset="0.51708984"
         stop-color="rgb(211,23,114)"
         id="stop220" />
      <stop
         offset="1"
         stop-color="rgb(255,0,102)"
         id="stop222" />
    </linearGradient>
  </defs>
  <g
     clip-path="url(#clip_14)"
     id="g229"
     transform="translate(-303.596,-285.58)">
    <path
       transform="matrix(0.9996,0,0,0.9996,1812.99,1199.21)"
       d="M 44.5,0 89,73 H 0 Z"
       id="path227"
       inkscape:connector-curvature="0"
       style="fill:url(#gradient_11);stroke:none" />
  </g>
  <defs
     id="defs241">
    <clipPath
       id="clip_15">
      <rect
         x="1714.0317"
         y="867.34668"
         width="329.8678"
         height="441.82324"
         id="rect231"
         style="clip-rule:evenodd" />
    </clipPath>
    <linearGradient
       id="gradient_12"
       gradientUnits="userSpaceOnUse"
       x1="89"
       y1="0"
       x2="0"
       y2="73">
      <stop
         offset="0"
         stop-color="rgb(164,68,178)"
         id="stop234" />
      <stop
         offset="0.51708984"
         stop-color="rgb(211,23,114)"
         id="stop236" />
      <stop
         offset="1"
         stop-color="rgb(255,0,102)"
         id="stop238" />
    </linearGradient>
  </defs>
  <g
     clip-path="url(#clip_15)"
     id="g245"
     transform="translate(-303.596,-285.58)">
    <path
       transform="matrix(0.9996,0,0,0.9996,1812.99,1282.18)"
       d="M 44.5,0 89,73 H 0 Z"
       id="path243"
       inkscape:connector-curvature="0"
       style="fill:url(#gradient_12);stroke:none" />
  </g>
  <defs
     id="defs257">
    <clipPath
       id="clip_16">
      <rect
         x="1714.0317"
         y="867.34668"
         width="329.8678"
         height="441.82324"
         id="rect247"
         style="clip-rule:evenodd" />
    </clipPath>
    <linearGradient
       id="gradient_13"
       gradientUnits="userSpaceOnUse"
       x1="89"
       y1="0"
       x2="0"
       y2="73">
      <stop
         offset="0"
         stop-color="rgb(164,68,178)"
         id="stop250" />
      <stop
         offset="0.51708984"
         stop-color="rgb(211,23,114)"
         id="stop252" />
      <stop
         offset="1"
         stop-color="rgb(255,0,102)"
         id="stop254" />
    </linearGradient>
  </defs>
  <g
     clip-path="url(#clip_16)"
     id="g261"
     transform="translate(-303.596,-285.58)">
    <path
       transform="matrix(0.9996,0,0,0.9996,1911.95,867.347)"
       d="M 44.5,0 89,73 H 0 Z"
       id="path259"
       inkscape:connector-curvature="0"
       style="fill:url(#gradient_13);stroke:none" />
  </g>
  <defs
     id="defs273">
    <clipPath
       id="clip_17">
      <rect
         x="1714.0317"
         y="867.34668"
         width="329.8678"
         height="441.82324"
         id="rect263"
         style="clip-rule:evenodd" />
    </clipPath>
    <linearGradient
       id="gradient_14"
       gradientUnits="userSpaceOnUse"
       x1="89"
       y1="0"
       x2="0"
       y2="73">
      <stop
         offset="0"
         stop-color="rgb(164,68,178)"
         id="stop266" />
      <stop
         offset="0.51708984"
         stop-color="rgb(211,23,114)"
         id="stop268" />
      <stop
         offset="1"
         stop-color="rgb(255,0,102)"
         id="stop270" />
    </linearGradient>
  </defs>
  <g
     clip-path="url(#clip_17)"
     id="g277"
     transform="translate(-303.596,-285.58)">
    <path
       transform="matrix(0.9996,0,0,0.9996,1911.95,950.313)"
       d="M 44.5,0 89,73 H 0 Z"
       id="path275"
       inkscape:connector-curvature="0"
       style="fill:url(#gradient_14);stroke:none" />
  </g>
  <defs
     id="defs289">
    <clipPath
       id="clip_18">
      <rect
         x="1714.0317"
         y="867.34668"
         width="329.8678"
         height="441.82324"
         id="rect279"
         style="clip-rule:evenodd" />
    </clipPath>
    <linearGradient
       id="gradient_15"
       gradientUnits="userSpaceOnUse"
       x1="89"
       y1="0"
       x2="0"
       y2="73">
      <stop
         offset="0"
         stop-color="rgb(164,68,178)"
         id="stop282" />
      <stop
         offset="0.51708984"
         stop-color="rgb(211,23,114)"
         id="stop284" />
      <stop
         offset="1"
         stop-color="rgb(255,0,102)"
         id="stop286" />
    </linearGradient>
  </defs>
  <g
     clip-path="url(#clip_18)"
     id="g293"
     transform="translate(-303.596,-285.58)">
    <path
       transform="matrix(0.9996,0,0,0.9996,1911.95,1033.28)"
       d="M 44.5,0 89,73 H 0 Z"
       id="path291"
       inkscape:connector-curvature="0"
       style="fill:url(#gradient_15);stroke:none" />
  </g>
  <defs
     id="defs305">
    <clipPath
       id="clip_19">
      <rect
         x="1714.0317"
         y="867.34668"
         width="329.8678"
         height="441.82324"
         id="rect295"
         style="clip-rule:evenodd" />
    </clipPath>
    <linearGradient
       id="gradient_16"
       gradientUnits="userSpaceOnUse"
       x1="89"
       y1="0"
       x2="0"
       y2="73">
      <stop
         offset="0"
         stop-color="rgb(164,68,178)"
         id="stop298" />
      <stop
         offset="0.51708984"
         stop-color="rgb(211,23,114)"
         id="stop300" />
      <stop
         offset="1"
         stop-color="rgb(255,0,102)"
         id="stop302" />
    </linearGradient>
  </defs>
  <g
     clip-path="url(#clip_19)"
     id="g309"
     transform="translate(-303.596,-285.58)">
    <path
       transform="matrix(0.9996,0,0,0.9996,1911.95,1116.25)"
       d="M 44.5,0 89,73 H 0 Z"
       id="path307"
       inkscape:connector-curvature="0"
       style="fill:url(#gradient_16);stroke:none" />
  </g>
  <defs
     id="defs321">
    <clipPath
       id="clip_20">
      <rect
         x="1714.0317"
         y="867.34668"
         width="329.8678"
         height="441.82324"
         id="rect311"
         style="clip-rule:evenodd" />
    </clipPath>
    <linearGradient
       id="gradient_17"
       gradientUnits="userSpaceOnUse"
       x1="89"
       y1="0"
       x2="0"
       y2="73">
      <stop
         offset="0"
         stop-color="rgb(164,68,178)"
         id="stop314" />
      <stop
         offset="0.51708984"
         stop-color="rgb(211,23,114)"
         id="stop316" />
      <stop
         offset="1"
         stop-color="rgb(255,0,102)"
         id="stop318" />
    </linearGradient>
  </defs>
  <g
     clip-path="url(#clip_20)"
     id="g325"
     transform="translate(-303.596,-285.58)">
    <path
       transform="matrix(0.9996,0,0,0.9996,1911.95,1199.21)"
       d="M 44.5,0 89,73 H 0 Z"
       id="path323"
       inkscape:connector-curvature="0"
       style="fill:url(#gradient_17);stroke:none" />
  </g>
  <defs
     id="defs337">
    <clipPath
       id="clip_21">
      <rect
         x="1714.0317"
         y="867.34668"
         width="329.8678"
         height="441.82324"
         id="rect327"
         style="clip-rule:evenodd" />
    </clipPath>
    <linearGradient
       id="gradient_18"
       gradientUnits="userSpaceOnUse"
       x1="89"
       y1="0"
       x2="0"
       y2="73">
      <stop
         offset="0"
         stop-color="rgb(164,68,178)"
         id="stop330" />
      <stop
         offset="0.51708984"
         stop-color="rgb(211,23,114)"
         id="stop332" />
      <stop
         offset="1"
         stop-color="rgb(255,0,102)"
         id="stop334" />
    </linearGradient>
  </defs>
  <g
     clip-path="url(#clip_21)"
     id="g341"
     transform="translate(-303.596,-285.58)">
    <path
       transform="matrix(0.9996,0,0,0.9996,1911.95,1282.18)"
       d="M 44.5,0 89,73 H 0 Z"
       id="path339"
       inkscape:connector-curvature="0"
       style="fill:url(#gradient_18);stroke:none" />
  </g>
  <defs
     id="defs353">
    <clipPath
       id="clip_22">
      <rect
         x="1714.0317"
         y="867.34668"
         width="329.8678"
         height="441.82324"
         id="rect343"
         style="clip-rule:evenodd" />
    </clipPath>
    <linearGradient
       id="gradient_19"
       gradientUnits="userSpaceOnUse"
       x1="89"
       y1="0"
       x2="0"
       y2="73">
      <stop
         offset="0"
         stop-color="rgb(164,68,178)"
         id="stop346" />
      <stop
         offset="0.51708984"
         stop-color="rgb(211,23,114)"
         id="stop348" />
      <stop
         offset="1"
         stop-color="rgb(255,0,102)"
         id="stop350" />
    </linearGradient>
  </defs>
  <g
     clip-path="url(#clip_22)"
     id="g357"
     transform="translate(-303.596,-285.58)">
    <path
       transform="matrix(0.9996,0,0,0.9996,2010.91,867.347)"
       d="M 44.5,0 89,73 H 0 Z"
       id="path355"
       inkscape:connector-curvature="0"
       style="fill:url(#gradient_19);stroke:none" />
  </g>
  <defs
     id="defs369">
    <clipPath
       id="clip_23">
      <rect
         x="1714.0317"
         y="867.34668"
         width="329.8678"
         height="441.82324"
         id="rect359"
         style="clip-rule:evenodd" />
    </clipPath>
    <linearGradient
       id="gradient_20"
       gradientUnits="userSpaceOnUse"
       x1="89"
       y1="0"
       x2="0"
       y2="73">
      <stop
         offset="0"
         stop-color="rgb(164,68,178)"
         id="stop362" />
      <stop
         offset="0.51708984"
         stop-color="rgb(211,23,114)"
         id="stop364" />
      <stop
         offset="1"
         stop-color="rgb(255,0,102)"
         id="stop366" />
    </linearGradient>
  </defs>
  <g
     clip-path="url(#clip_23)"
     id="g373"
     transform="translate(-303.596,-285.58)">
    <path
       transform="matrix(0.9996,0,0,0.9996,2010.91,950.313)"
       d="M 44.5,0 89,73 H 0 Z"
       id="path371"
       inkscape:connector-curvature="0"
       style="fill:url(#gradient_20);stroke:none" />
  </g>
  <defs
     id="defs385">
    <clipPath
       id="clip_24">
      <rect
         x="1714.0317"
         y="867.34668"
         width="329.8678"
         height="441.82324"
         id="rect375"
         style="clip-rule:evenodd" />
    </clipPath>
    <linearGradient
       id="gradient_21"
       gradientUnits="userSpaceOnUse"
       x1="89"
       y1="0"
       x2="0"
       y2="73">
      <stop
         offset="0"
         stop-color="rgb(164,68,178)"
         id="stop378" />
      <stop
         offset="0.51708984"
         stop-color="rgb(211,23,114)"
         id="stop380" />
      <stop
         offset="1"
         stop-color="rgb(255,0,102)"
         id="stop382" />
    </linearGradient>
  </defs>
  <g
     clip-path="url(#clip_24)"
     id="g389"
     transform="translate(-303.596,-285.58)">
    <path
       transform="matrix(0.9996,0,0,0.9996,2010.91,1033.28)"
       d="M 44.5,0 89,73 H 0 Z"
       id="path387"
       inkscape:connector-curvature="0"
       style="fill:url(#gradient_21);stroke:none" />
  </g>
  <defs
     id="defs401">
    <clipPath
       id="clip_25">
      <rect
         x="1714.0317"
         y="867.34668"
         width="329.8678"
         height="441.82324"
         id="rect391"
         style="clip-rule:evenodd" />
    </clipPath>
    <linearGradient
       id="gradient_22"
       gradientUnits="userSpaceOnUse"
       x1="89"
       y1="0"
       x2="0"
       y2="73">
      <stop
         offset="0"
         stop-color="rgb(164,68,178)"
         id="stop394" />
      <stop
         offset="0.51708984"
         stop-color="rgb(211,23,114)"
         id="stop396" />
      <stop
         offset="1"
         stop-color="rgb(255,0,102)"
         id="stop398" />
    </linearGradient>
  </defs>
  <g
     clip-path="url(#clip_25)"
     id="g405"
     transform="translate(-303.596,-285.58)">
    <path
       transform="matrix(0.9996,0,0,0.9996,2010.91,1116.25)"
       d="M 44.5,0 89,73 H 0 Z"
       id="path403"
       inkscape:connector-curvature="0"
       style="fill:url(#gradient_22);stroke:none" />
  </g>
  <defs
     id="defs417">
    <clipPath
       id="clip_26">
      <rect
         x="1714.0317"
         y="867.34668"
         width="329.8678"
         height="441.82324"
         id="rect407"
         style="clip-rule:evenodd" />
    </clipPath>
    <linearGradient
       id="gradient_23"
       gradientUnits="userSpaceOnUse"
       x1="89"
       y1="0"
       x2="0"
       y2="73">
      <stop
         offset="0"
         stop-color="rgb(164,68,178)"
         id="stop410" />
      <stop
         offset="0.51708984"
         stop-color="rgb(211,23,114)"
         id="stop412" />
      <stop
         offset="1"
         stop-color="rgb(255,0,102)"
         id="stop414" />
    </linearGradient>
  </defs>
  <g
     clip-path="url(#clip_26)"
     id="g421"
     transform="translate(-303.596,-285.58)">
    <path
       transform="matrix(0.9996,0,0,0.9996,2010.91,1199.21)"
       d="M 44.5,0 89,73 H 0 Z"
       id="path419"
       inkscape:connector-curvature="0"
       style="fill:url(#gradient_23);stroke:none" />
  </g>
  <defs
     id="defs433">
    <clipPath
       id="clip_27">
      <rect
         x="1714.0317"
         y="867.34668"
         width="329.8678"
         height="441.82324"
         id="rect423"
         style="clip-rule:evenodd" />
    </clipPath>
    <linearGradient
       id="gradient_24"
       gradientUnits="userSpaceOnUse"
       x1="89"
       y1="0"
       x2="0"
       y2="73">
      <stop
         offset="0"
         stop-color="rgb(164,68,178)"
         id="stop426" />
      <stop
         offset="0.51708984"
         stop-color="rgb(211,23,114)"
         id="stop428" />
      <stop
         offset="1"
         stop-color="rgb(255,0,102)"
         id="stop430" />
    </linearGradient>
  </defs>
  <g
     clip-path="url(#clip_27)"
     id="g437"
     transform="translate(-303.596,-285.58)">
    <path
       transform="matrix(0.9996,0,0,0.9996,2010.91,1282.18)"
       d="M 44.5,0 89,73 H 0 Z"
       id="path435"
       inkscape:connector-curvature="0"
       style="fill:url(#gradient_24);stroke:none" />
  </g>
</svg>
