<?xml version="1.0" encoding="UTF-8" standalone="no"?>
<!-- Created with Inkscape (http://www.inkscape.org/) -->

<svg
   xmlns:dc="http://purl.org/dc/elements/1.1/"
   xmlns:cc="http://creativecommons.org/ns#"
   xmlns:rdf="http://www.w3.org/1999/02/22-rdf-syntax-ns#"
   xmlns:svg="http://www.w3.org/2000/svg"
   xmlns="http://www.w3.org/2000/svg"
   xmlns:sodipodi="http://sodipodi.sourceforge.net/DTD/sodipodi-0.dtd"
   xmlns:inkscape="http://www.inkscape.org/namespaces/inkscape"
   version="1.1"
   id="svg2"
   xml:space="preserve"
   width="800"
   height="400"
   viewBox="0 0 800 400"
   sodipodi:docname="banner.svg"
   inkscape:version="0.92.3 (2405546, 2018-03-11)"><metadata
     id="metadata8"><rdf:RDF><cc:Work
         rdf:about=""><dc:format>image/svg+xml</dc:format><dc:type
           rdf:resource="http://purl.org/dc/dcmitype/StillImage" /><dc:title></dc:title></cc:Work></rdf:RDF></metadata><defs
     id="defs6"><clipPath
       clipPathUnits="userSpaceOnUse"
       id="clipPath20"><path
         d="M 0,0 H 500 V 500 H 0 Z"
         id="path18"
         inkscape:connector-curvature="0" /></clipPath><clipPath
       clipPathUnits="userSpaceOnUse"
       id="clipPath28"><path
         d="M 192.06,651.877 H 781.381 V -49.4273 H 192.06 Z"
         id="path26"
         inkscape:connector-curvature="0" /></clipPath><linearGradient
       x1="0"
       y1="0"
       x2="1"
       y2="0"
       gradientUnits="userSpaceOnUse"
       gradientTransform="matrix(578.48181,-220.83014,-220.83014,-578.48181,172.17528,416.37686)"
       spreadMethod="pad"
       id="linearGradient38"><stop
         style="stop-opacity:1;stop-color:#4f2280"
         offset="0"
         id="stop34" /><stop
         style="stop-opacity:1;stop-color:#d4145a"
         offset="1"
         id="stop36" /></linearGradient><clipPath
       clipPathUnits="userSpaceOnUse"
       id="clipPath60"><path
         d="M -144.307,637.412 H 422.005 V 57.2773 h -566.312 z"
         id="path58"
         inkscape:connector-curvature="0" /></clipPath><linearGradient
       x1="0"
       y1="0"
       x2="1"
       y2="0"
       gradientUnits="userSpaceOnUse"
       gradientTransform="matrix(548.56549,-87.404533,87.404533,548.56549,-128.80786,398.11877)"
       spreadMethod="pad"
       id="linearGradient70"><stop
         style="stop-opacity:1;stop-color:#4f2280"
         offset="0"
         id="stop66" /><stop
         style="stop-opacity:1;stop-color:#d4145a"
         offset="1"
         id="stop68" /></linearGradient><clipPath
       clipPathUnits="userSpaceOnUse"
       id="clipPath92"><path
         d="M 0,500 H 500 V 0 H 0 Z"
         id="path90"
         inkscape:connector-curvature="0" /></clipPath><clipPath
       clipPathUnits="userSpaceOnUse"
       id="clipPath104"><path
         d="m 28.5,400 c -1.933,0 -3.5,-1.567 -3.5,-3.5 v 0 -293 c 0,-1.932 1.567,-3.5 3.5,-3.5 v 0 h 443 c 1.932,0 3.5,1.568 3.5,3.5 v 0 293 c 0,1.933 -1.568,3.5 -3.5,3.5 v 0 z"
         id="path102"
         inkscape:connector-curvature="0" /></clipPath><linearGradient
       x1="0"
       y1="0"
       x2="1"
       y2="0"
       gradientUnits="userSpaceOnUse"
       gradientTransform="matrix(-100.00001,296.00003,296.00003,100.00001,465.10632,81.373756)"
       spreadMethod="pad"
       id="linearGradient130"><stop
         style="stop-opacity:1;stop-color:#4f2280"
         offset="0"
         id="stop126" /><stop
         style="stop-opacity:1;stop-color:#d4145a"
         offset="1"
         id="stop128" /></linearGradient><linearGradient
       x1="0"
       y1="0"
       x2="1"
       y2="0"
       gradientUnits="userSpaceOnUse"
       gradientTransform="matrix(-78,184.5,184.5,78,384.29242,184.92091)"
       spreadMethod="pad"
       id="linearGradient150"><stop
         style="stop-opacity:1;stop-color:#4f2280"
         offset="0"
         id="stop146" /><stop
         style="stop-opacity:1;stop-color:#d4145a"
         offset="1"
         id="stop148" /></linearGradient><linearGradient
       x1="0"
       y1="0"
       x2="1"
       y2="0"
       gradientUnits="userSpaceOnUse"
       gradientTransform="matrix(-92.999992,317.5,317.5,92.999992,412.2742,130.01575)"
       spreadMethod="pad"
       id="linearGradient170"><stop
         style="stop-opacity:1;stop-color:#4f2280"
         offset="0"
         id="stop166" /><stop
         style="stop-opacity:1;stop-color:#d4145a"
         offset="1"
         id="stop168" /></linearGradient><clipPath
       clipPathUnits="userSpaceOnUse"
       id="clipPath180"><path
         d="m 28.5,400 c -1.933,0 -3.5,-1.567 -3.5,-3.5 v 0 -293 c 0,-1.932 1.567,-3.5 3.5,-3.5 v 0 h 443 c 1.932,0 3.5,1.568 3.5,3.5 v 0 293 c 0,1.933 -1.568,3.5 -3.5,3.5 v 0 z"
         id="path178"
         inkscape:connector-curvature="0" /></clipPath><clipPath
       clipPathUnits="userSpaceOnUse"
       id="clipPath188"><path
         d="M 190.424,482.458 H 517.045 V 204.2 H 190.424 Z"
         id="path186"
         inkscape:connector-curvature="0" /></clipPath><clipPath
       clipPathUnits="userSpaceOnUse"
       id="clipPath204"><path
         d="M 0,500 H 500 V 0 H 0 Z"
         id="path202"
         inkscape:connector-curvature="0" /></clipPath><clipPath
       clipPathUnits="userSpaceOnUse"
       id="clipPath252"><path
         d="m 361.91,287.15 h 54.18 v -30.48 h -54.18 z"
         id="path250"
         inkscape:connector-curvature="0" /></clipPath><linearGradient
       x1="0"
       y1="0"
       x2="1"
       y2="0"
       gradientUnits="userSpaceOnUse"
       gradientTransform="matrix(0,27.115494,27.115494,0,389,251.75)"
       spreadMethod="pad"
       id="linearGradient262"><stop
         style="stop-opacity:1;stop-color:#4f2280"
         offset="0"
         id="stop258" /><stop
         style="stop-opacity:1;stop-color:#d4145a"
         offset="1"
         id="stop260" /></linearGradient><clipPath
       clipPathUnits="userSpaceOnUse"
       id="clipPath284"><path
         d="m 376.5,269.17 h 25 v -25 h -25 z"
         id="path282"
         inkscape:connector-curvature="0" /></clipPath><linearGradient
       x1="0"
       y1="0"
       x2="1"
       y2="0"
       gradientUnits="userSpaceOnUse"
       gradientTransform="matrix(0,27.115494,27.115494,0,389,251.75)"
       spreadMethod="pad"
       id="linearGradient294"><stop
         style="stop-opacity:1;stop-color:#4f2280"
         offset="0"
         id="stop290" /><stop
         style="stop-opacity:1;stop-color:#d4145a"
         offset="1"
         id="stop292" /></linearGradient><clipPath
       clipPathUnits="userSpaceOnUse"
       id="clipPath320"><path
         d="m 402.81,244.45 h 19.32 v -33.88 h -19.32 z"
         id="path318"
         inkscape:connector-curvature="0" /></clipPath><clipPath
       clipPathUnits="userSpaceOnUse"
       id="clipPath352"><path
         d="m 406.806,248.45 h 33.877 v -33.877 h -33.877 z"
         id="path350"
         inkscape:connector-curvature="0" /></clipPath><linearGradient
       x1="0"
       y1="0"
       x2="1"
       y2="0"
       gradientUnits="userSpaceOnUse"
       gradientTransform="matrix(0,42.75,42.75,0,423.74426,215)"
       spreadMethod="pad"
       id="linearGradient362"><stop
         style="stop-opacity:1;stop-color:#4f2280"
         offset="0"
         id="stop358" /><stop
         style="stop-opacity:1;stop-color:#d4145a"
         offset="1"
         id="stop360" /></linearGradient><clipPath
       clipPathUnits="userSpaceOnUse"
       id="clipPath410"><path
         d="m 378.875,201.054 h 20.25 v -10.125 h -20.25 z"
         id="path408"
         inkscape:connector-curvature="0" /></clipPath><linearGradient
       x1="0"
       y1="0"
       x2="1"
       y2="0"
       gradientUnits="userSpaceOnUse"
       gradientTransform="matrix(20.25,0,0,-20.25,378.875,195.99196)"
       spreadMethod="pad"
       id="linearGradient420"><stop
         style="stop-opacity:1;stop-color:#4f2280"
         offset="0"
         id="stop416" /><stop
         style="stop-opacity:1;stop-color:#d4145a"
         offset="1"
         id="stop418" /></linearGradient><clipPath
       clipPathUnits="userSpaceOnUse"
       id="clipPath442"><path
         d="m 366.917,282.667 h 44.166 v -2 h -44.166 z"
         id="path440"
         inkscape:connector-curvature="0" /></clipPath><linearGradient
       x1="0"
       y1="0"
       x2="1"
       y2="0"
       gradientUnits="userSpaceOnUse"
       gradientTransform="matrix(44.166016,0,0,-44.166016,366.91699,281.6665)"
       spreadMethod="pad"
       id="linearGradient452"><stop
         style="stop-opacity:1;stop-color:#4f2280"
         offset="0"
         id="stop448" /><stop
         style="stop-opacity:1;stop-color:#d4145a"
         offset="1"
         id="stop450" /></linearGradient><clipPath
       clipPathUnits="userSpaceOnUse"
       id="clipPath478"><path
         d="m 312.91,320.755 h 54.18 v -97.69 h -54.18 z"
         id="path476"
         inkscape:connector-curvature="0" /></clipPath><clipPath
       clipPathUnits="userSpaceOnUse"
       id="clipPath494"><path
         d="m 317.256,316.409 h 22.976 v -22.977 h -22.976 z"
         id="path492"
         inkscape:connector-curvature="0" /></clipPath><clipPath
       clipPathUnits="userSpaceOnUse"
       id="clipPath508"><path
         d="m 330.417,292.146 h 9.815 v -9.815 h -9.815 z"
         id="path506"
         inkscape:connector-curvature="0" /></clipPath><clipPath
       clipPathUnits="userSpaceOnUse"
       id="clipPath522"><path
         d="M 315.077,143.157 H 367.09 V 136.75 H 315.077 Z"
         id="path520"
         inkscape:connector-curvature="0" /></clipPath><clipPath
       clipPathUnits="userSpaceOnUse"
       id="clipPath614"><path
         d="M 323.489,312.053 H 334 v -14.265 h -10.511 z"
         id="path612"
         inkscape:connector-curvature="0" /></clipPath><linearGradient
       x1="0"
       y1="0"
       x2="1"
       y2="0"
       gradientUnits="userSpaceOnUse"
       gradientTransform="matrix(0,-9.5818844,-9.5818844,0,328.74435,311.25)"
       spreadMethod="pad"
       id="linearGradient624"><stop
         style="stop-opacity:1;stop-color:#4f2280"
         offset="0"
         id="stop620" /><stop
         style="stop-opacity:1;stop-color:#d4145a"
         offset="1"
         id="stop622" /></linearGradient><clipPath
       clipPathUnits="userSpaceOnUse"
       id="clipPath646"><path
         d="m 326.515,308.961 h 4.458 v -4.458 h -4.458 z"
         id="path644"
         inkscape:connector-curvature="0" /></clipPath><linearGradient
       x1="0"
       y1="0"
       x2="1"
       y2="0"
       gradientUnits="userSpaceOnUse"
       gradientTransform="matrix(0,-9.5818844,-9.5818844,0,328.74438,311.25)"
       spreadMethod="pad"
       id="linearGradient656"><stop
         style="stop-opacity:1;stop-color:#4f2280"
         offset="0"
         id="stop652" /><stop
         style="stop-opacity:1;stop-color:#d4145a"
         offset="1"
         id="stop654" /></linearGradient><clipPath
       clipPathUnits="userSpaceOnUse"
       id="clipPath710"><path
         d="M 0,500 H 500 V 0 H 0 Z"
         id="path708"
         inkscape:connector-curvature="0" /></clipPath><clipPath
       clipPathUnits="userSpaceOnUse"
       id="clipPath726"><path
         d="M 0,500 H 500 V 0 H 0 Z"
         id="path724"
         inkscape:connector-curvature="0" /></clipPath><clipPath
       clipPathUnits="userSpaceOnUse"
       id="clipPath746"><path
         d="M 0,500 H 500 V 0 H 0 Z"
         id="path744"
         inkscape:connector-curvature="0" /></clipPath><clipPath
       clipPathUnits="userSpaceOnUse"
       id="clipPath758"><path
         d="M 0,500 H 500 V 0 H 0 Z"
         id="path756"
         inkscape:connector-curvature="0" /></clipPath></defs><sodipodi:namedview
     pagecolor="#ffffff"
     bordercolor="#666666"
     borderopacity="1"
     objecttolerance="10"
     gridtolerance="10"
     guidetolerance="10"
     inkscape:pageopacity="0"
     inkscape:pageshadow="2"
     inkscape:window-width="1600"
     inkscape:window-height="847"
     id="namedview4"
     showgrid="false"
     inkscape:zoom="0.60258213"
     inkscape:cx="614.63877"
     inkscape:cy="181.81404"
     inkscape:window-x="-8"
     inkscape:window-y="-8"
     inkscape:window-maximized="1"
     inkscape:current-layer="g10" /><g
     id="g10"
     inkscape:groupmode="layer"
     inkscape:label="390033-PCMO8J-500"
     transform="matrix(1.3333333,0,0,-1.3333333,-225.83304,533.33332)"><g
       id="g114"
       transform="translate(294.3748,-3.7500002e-6)"><g
         id="g116"><g
           id="g122"><g
             id="g124"><path
               d="m 187.632,400 c 14.147,-47.395 53.468,-51.428 81.701,-62.667 v 0 c 28.834,-11.477 29.644,-29.986 27.667,-52 v 0 c -2.037,-22.676 28.664,-23.67 30.5,-49.735 v 0 c 1.75,-24.848 16.616,-46.14 58.433,-46.14 v 0 h 23.629 c 9.938,0 34.188,5.792 34.188,35.542 v 0 c 0,29.75 -2.25,40 12,52 v 0 c 4.628,3.897 11.762,6.16 19.25,8.637 v 0 110.863 c 0,1.933 -1.568,3.5 -3.5,3.5 v 0 z"
               style="fill:url(#linearGradient130);stroke:none"
               id="path132"
               inkscape:connector-curvature="0" /></g></g></g></g><g
       id="g134"
       transform="translate(294.3748,-3.7500002e-6)"><g
         id="g136"><g
           id="g142"><g
             id="g144"><path
               d="m 285.828,327.703 c 12.568,-11.109 12.666,-25.74 11.172,-42.37 v 0 c -2.037,-22.676 28.664,-23.67 30.5,-49.735 v 0 c 1.75,-24.848 16.616,-46.14 58.433,-46.14 v 0 h 23.629 c 9.938,0 34.188,5.792 34.188,35.542 v 0 c 0,29.75 -2.25,40 12,52 v 0 c 2.659,2.239 6.146,3.939 10.052,5.45 v 0 c -16.187,42.664 -57.442,72.985 -105.781,72.985 v 0 c -28.389,0 -54.333,-10.458 -74.193,-27.732"
               style="fill:url(#linearGradient150);stroke:none"
               id="path152"
               inkscape:connector-curvature="0" /></g></g></g></g><g
       id="g154"
       transform="translate(294.3748,-3.7500002e-6)"><g
         id="g156"><g
           id="g162"><g
             id="g164"><path
               d="m 307.172,264.791 c 8.469,-7.38 19.262,-14.062 20.328,-29.193 v 0 c 1.75,-24.848 16.616,-46.14 58.433,-46.14 v 0 h 23.629 c 9.938,0 34.188,5.792 34.188,35.542 v 0 c 0,29.75 -2.25,40 12,52 v 0 c 2.139,1.801 4.813,3.253 7.81,4.539 v 0 c -19.181,14.972 -43.32,23.897 -69.539,23.897 v 0 c -34.897,0 -66.102,-15.804 -86.849,-40.645"
               style="fill:url(#linearGradient170);stroke:none"
               id="path172"
               inkscape:connector-curvature="0" /></g></g></g></g><g
       id="g174"
       transform="translate(294.3748,-3.7500002e-6)"><g
         id="g176"
         clip-path="url(#clipPath180)"><g
           id="g182"><g
             id="g184" /><g
             id="g196"><g
               clip-path="url(#clipPath188)"
               id="g194"
               style="opacity:0.30000299"><g
                 transform="translate(348.9473,481.5146)"
                 id="g192"><path
                   d="m 0,0 c -61.379,0 -120.897,-10.204 -145.371,-32.053 -9.185,-8.201 -13.196,-17.733 -11.92,-28.331 7.637,-63.428 42.647,-72.167 73.537,-79.878 5.312,-1.326 10.328,-2.579 15.128,-4.083 28.479,-8.927 30.546,-26.903 30.243,-47.74 -0.152,-10.523 6.959,-15.568 14.489,-20.91 7.91,-5.611 16.089,-11.414 17.92,-23.92 2.686,-18.346 13.721,-39.396 50.171,-39.397 2.512,0 5.139,0.099 7.898,0.307 l 22.368,1.683 c 5.171,0.388 12.867,2.596 18.957,7.63 7.817,6.462 11.321,15.852 10.414,27.913 -0.273,3.645 -0.561,6.979 -0.824,10.048 -1.795,20.856 -2.537,29.489 8.63,40.426 4.015,3.933 10.311,6.552 16.976,9.324 14.353,5.968 30.619,12.733 28.294,35.095 -0.857,8.239 1.526,18.878 4.285,31.198 4.14,18.486 8.833,39.44 3.547,58.05 -6.114,21.529 -24.589,35.673 -56.48,43.241 C 76.723,-3.914 38.001,0 0,0 m 44.155,-277.314 c -37.134,0 -48.374,21.509 -51.119,40.254 -1.768,12.083 -9.77,17.76 -17.509,23.249 -7.75,5.499 -15.07,10.692 -14.91,21.741 0.308,21.156 -1.673,38.034 -29.542,46.771 -4.771,1.495 -9.774,2.744 -15.071,4.067 -31.203,7.789 -66.569,16.617 -74.288,80.729 -1.318,10.941 2.804,20.764 12.248,29.195 18.917,16.89 59.11,27.999 113.176,31.282 48.627,2.953 101.468,-0.935 141.352,-10.399 32.277,-7.658 50.99,-22.031 57.212,-43.939 5.356,-18.855 0.633,-39.94 -3.533,-58.543 -2.74,-12.234 -5.107,-22.799 -4.267,-30.875 2.404,-23.103 -14.229,-30.02 -28.903,-36.123 -6.574,-2.734 -12.783,-5.316 -16.662,-9.115 -10.829,-10.606 -10.099,-19.101 -8.333,-39.626 0.264,-3.071 0.551,-6.409 0.826,-10.059 0.933,-12.402 -2.692,-22.078 -10.775,-28.758 -6.271,-5.183 -14.195,-7.457 -19.52,-7.857 l -22.368,-1.683 c -2.794,-0.21 -5.468,-0.311 -8.014,-0.311"
                   style="fill:#da4444;fill-opacity:1;fill-rule:nonzero;stroke:none"
                   id="path190"
                   inkscape:connector-curvature="0" /></g></g></g></g></g></g><g
       id="g198"
       transform="translate(294.3748,-3.7500002e-6)"><g
         id="g200"
         clip-path="url(#clipPath204)"><g
           id="g206"
           transform="translate(278.7803,316.8247)"><path
             d="m 0,0 c 4.483,-4.561 11.052,-6.396 17.026,-3.075 4.58,2.544 7.333,7.299 7.868,12.284 C 21.17,7.32 16.694,5.407 11.916,3.677 7.748,2.169 3.672,0.916 0,0"
             style="fill:#ff6666;fill-opacity:1;fill-rule:nonzero;stroke:none"
             id="path208"
             inkscape:connector-curvature="0" /></g><g
           id="g210"
           transform="translate(302.6221,333.7715)"><path
             d="m 0,0 c -0.078,0.205 -0.163,0.403 -0.26,0.6 -0.15,0.347 -0.326,0.684 -0.508,1.015 -4.069,7.32 -13.544,9.561 -21.06,5.388 -6.329,-3.518 -8.462,-10.019 -6.544,-16.353 0.054,-0.214 0.126,-0.42 0.199,-0.632 0.337,-0.98 0.77,-1.95 1.297,-2.904 0.717,-1.291 1.564,-2.471 2.528,-3.524 3.743,0.916 7.92,2.199 12.201,3.744 4.909,1.775 9.49,3.737 13.26,5.67 C 1.263,-4.618 0.906,-2.22 0,0"
             style="fill:#ff6666;fill-opacity:1;fill-rule:nonzero;stroke:none"
             id="path212"
             inkscape:connector-curvature="0" /></g><g
           id="g214"
           transform="translate(313.293,334.0317)"><path
             d="m 0,0 c -0.5,1.383 -3.367,1.651 -8.517,0.794 -0.774,-0.128 -1.579,-0.28 -2.414,-0.454 0.097,-0.197 0.182,-0.395 0.26,-0.6 0.778,0.161 1.532,0.302 2.257,0.419 0.958,0.16 1.818,0.278 2.578,0.355 1.739,0.173 2.993,0.151 3.835,-0.004 0.848,-0.148 1.281,-0.421 1.397,-0.732 0.276,-0.76 -1.087,-2.555 -5.759,-5.288 -0.982,-0.576 -2.047,-1.154 -3.195,-1.746 -3.77,-1.933 -8.351,-3.895 -13.26,-5.67 -4.281,-1.545 -8.458,-2.828 -12.201,-3.744 -1.852,-0.456 -3.591,-0.817 -5.184,-1.086 -5.34,-0.89 -7.534,-0.386 -7.811,0.381 -0.446,1.239 3.003,3.992 9.17,7.133 -0.073,0.212 -0.145,0.418 -0.199,0.632 -6.059,-3.059 -10.253,-6.106 -9.574,-7.987 0.402,-1.122 2.358,-1.507 5.815,-1.162 0.819,0.082 1.717,0.204 2.7,0.367 1.715,0.288 3.593,0.682 5.589,1.185 3.672,0.916 7.748,2.169 11.916,3.677 4.779,1.73 9.254,3.643 12.978,5.532 1.291,0.645 2.491,1.295 3.583,1.933 4.189,2.452 6.241,4.394 6.104,5.768 C 0.058,-0.194 0.035,-0.094 0,0"
             style="fill:#fbc96b;fill-opacity:1;fill-rule:nonzero;stroke:none"
             id="path216"
             inkscape:connector-curvature="0" /></g><g
           id="g218"
           transform="translate(279.9121,333.8477)"><path
             d="m 0,0 c -0.81,-0.349 -1.634,0.144 -1.974,0.933 -0.34,0.789 -0.092,1.629 0.718,1.978 0.81,0.35 1.754,0.025 2.094,-0.765 C 1.179,1.358 0.811,0.35 0,0"
             style="fill:#ef5b5b;fill-opacity:1;fill-rule:nonzero;stroke:none"
             id="path220"
             inkscape:connector-curvature="0" /></g><g
           id="g222"
           transform="translate(277.2764,332.3203)"><path
             d="M 0,0 C -0.431,-0.186 -0.869,0.077 -1.05,0.496 -1.231,0.916 -1.099,1.363 -0.668,1.549 -0.237,1.734 0.265,1.562 0.446,1.142 0.627,0.722 0.431,0.186 0,0"
             style="fill:#ef5b5b;fill-opacity:1;fill-rule:nonzero;stroke:none"
             id="path224"
             inkscape:connector-curvature="0" /></g><g
           id="g226"
           transform="translate(296.6201,315.6279)"><path
             d="M 0,0 C -0.431,-0.186 -0.869,0.076 -1.05,0.496 -1.231,0.916 -1.099,1.362 -0.668,1.548 -0.237,1.734 0.266,1.562 0.446,1.142 0.627,0.722 0.432,0.186 0,0"
             style="fill:#ef5b5b;fill-opacity:1;fill-rule:nonzero;stroke:none"
             id="path228"
             inkscape:connector-curvature="0" /></g><g
           id="g230"
           transform="translate(371.958,318.853)"><path
             d="m 0,0 c -0.263,0 -0.507,-0.076 -0.719,-0.2 l -4.735,4.736 c 0.118,0.209 0.19,0.446 0.19,0.703 0,0.793 -0.642,1.436 -1.434,1.436 -0.793,0 -1.436,-0.643 -1.436,-1.436 0,-0.257 0.072,-0.494 0.191,-0.703 l -4.745,-4.744 C -12.902,-0.079 -13.152,0 -13.422,0 c -0.257,0 -0.494,-0.073 -0.703,-0.191 l -4.727,4.727 c 0.119,0.209 0.191,0.446 0.191,0.703 0,0.793 -0.643,1.436 -1.435,1.436 -0.793,0 -1.435,-0.643 -1.435,-1.436 0,-0.792 0.642,-1.435 1.435,-1.435 0.257,0 0.494,0.073 0.702,0.191 l 4.728,-4.727 c -0.118,-0.209 -0.19,-0.447 -0.19,-0.703 0,-0.793 0.642,-1.436 1.434,-1.436 0.793,0 1.436,0.643 1.436,1.436 0,0.244 -0.067,0.47 -0.174,0.671 l 4.759,4.759 c 0.208,-0.118 0.446,-0.191 0.703,-0.191 0.257,0 0.494,0.073 0.702,0.191 l 4.743,-4.743 c -0.112,-0.205 -0.183,-0.437 -0.183,-0.687 0,-0.793 0.643,-1.436 1.436,-1.436 0.793,0 1.436,0.643 1.436,1.436 C 1.436,-0.643 0.793,0 0,0"
             style="fill:#ffffff;fill-opacity:1;fill-rule:nonzero;stroke:none"
             id="path232"
             inkscape:connector-curvature="0" /></g><g
           id="g234"
           transform="translate(422.1299,289.9302)"><path
             d="m 0,0 v -108.67 c 0,-1.8 -1.46,-3.26 -3.26,-3.26 H -63 c -1.8,0 -3.26,1.46 -3.26,3.26 V 0 c 0,1.8 1.46,3.27 3.26,3.27 H -3.26 C -1.46,3.27 0,1.8 0,0"
             style="fill:#da4444;fill-opacity:1;fill-rule:nonzero;stroke:none"
             id="path236"
             inkscape:connector-curvature="0" /></g><g
           id="g238"
           transform="translate(416.0898,285.3901)"><path
             d="m 0,0 v -94.17 c 0,-0.97 -0.79,-1.76 -1.77,-1.76 h -50.64 c -0.98,0 -1.77,0.79 -1.77,1.76 V 0 c 0,0.97 0.79,1.76 1.77,1.76 H -1.77 C -0.79,1.76 0,0.97 0,0"
             style="fill:#fbc96b;fill-opacity:1;fill-rule:nonzero;stroke:none"
             id="path240"
             inkscape:connector-curvature="0" /></g><g
           id="g242"
           transform="translate(389,180.8047)"><path
             d="m 0,0 v 0 c -1.693,0 -3.067,1.373 -3.067,3.066 0,1.695 1.374,3.068 3.067,3.068 1.694,0 3.067,-1.373 3.067,-3.068 C 3.067,1.373 1.694,0 0,0"
             style="fill:#ff6666;fill-opacity:1;fill-rule:nonzero;stroke:none"
             id="path244"
             inkscape:connector-curvature="0" /></g><g
           id="g246"><g
             id="g248" /><g
             id="g276"><g
               clip-path="url(#clipPath252)"
               id="g274"
               style="opacity:0.33000201"><g
                 id="g272"><g
                   id="g270"><g
                     id="g268"><g
                       id="g266"><path
                         d="m 416.09,285.39 v -28.72 h -54.18 v 28.72 c 0,0.97 0.79,1.76 1.77,1.76 h 50.64 c 0.98,0 1.77,-0.79 1.77,-1.76"
                         style="fill:url(#linearGradient262);stroke:none"
                         id="path264"
                         inkscape:connector-curvature="0" /></g></g></g></g></g></g></g><g
           id="g278"><g
             id="g280" /><g
             id="g308"><g
               clip-path="url(#clipPath284)"
               id="g306"
               style="opacity:0.33000201"><g
                 id="g304"><g
                   id="g302"><g
                     id="g300"><g
                       id="g298"><path
                         d="m 401.5,256.67 c 0,-6.903 -5.597,-12.5 -12.5,-12.5 -6.903,0 -12.5,5.597 -12.5,12.5 0,6.904 5.597,12.5 12.5,12.5 6.903,0 12.5,-5.596 12.5,-12.5"
                         style="fill:url(#linearGradient294);stroke:none"
                         id="path296"
                         inkscape:connector-curvature="0" /></g></g></g></g></g></g></g><g
           id="g310"
           transform="translate(391.0225,256.2485)"><path
             d="m 0,0 c 0.618,0.555 1.009,1.357 1.009,2.253 v 1.492 c 0,1.659 -1.28,3.107 -2.939,3.156 C -3.646,6.953 -5.054,5.577 -5.054,3.872 V 2.253 c 0,-0.896 0.391,-1.698 1.009,-2.253 -2.039,-0.68 -3.622,-2.357 -4.166,-4.453 -0.211,-0.817 0.437,-1.607 1.28,-1.607 h 9.817 c 0.843,0 1.491,0.79 1.28,1.607 C 3.622,-2.357 2.039,-0.68 0,0"
             style="fill:#ffffff;fill-opacity:1;fill-rule:nonzero;stroke:none"
             id="path312"
             inkscape:connector-curvature="0" /></g><g
           id="g314"><g
             id="g316" /><g
             id="g328"><g
               clip-path="url(#clipPath320)"
               id="g326"
               style="opacity:0.19999701"><g
                 transform="translate(422.1299,244.2803)"
                 id="g324"><path
                   d="m 0,0 v -33.54 c -0.78,-0.11 -1.58,-0.17 -2.39,-0.17 -9.35,0 -16.93,7.59 -16.93,16.939 0,9.361 7.58,16.941 16.93,16.941 0.19,0 0.38,-0.01 0.57,-0.021 C -1.2,0.13 -0.6,0.08 0,0"
                   style="fill:#000000;fill-opacity:1;fill-rule:nonzero;stroke:none"
                   id="path322"
                   inkscape:connector-curvature="0" /></g></g></g></g><g
           id="g330"
           transform="translate(438.001,222.373)"><path
             d="m 0,0 c 1.7,2.636 2.682,5.772 2.682,9.139 0,6.978 -4.216,12.968 -10.247,15.559 L -14.257,9.139 Z"
             style="fill:#4c37a8;fill-opacity:1;fill-rule:nonzero;stroke:none"
             id="path332"
             inkscape:connector-curvature="0" /></g><g
           id="g334"
           transform="translate(429.1836,215.4746)"><path
             d="m 0,0 -5.439,16.037 0.563,16.921 c -0.19,0.012 -0.374,0.018 -0.563,0.018 -9.351,0 -16.939,-7.582 -16.939,-16.939 0,-9.351 7.588,-16.939 16.939,-16.939 1.901,0 3.733,0.316 5.439,0.902"
             style="fill:#552283;fill-opacity:1;fill-rule:nonzero;stroke:none"
             id="path336"
             inkscape:connector-curvature="0" /></g><g
           id="g338"
           transform="translate(429.1836,215.4746)"><path
             d="M 0,0 C 3.671,1.234 6.772,3.699 8.817,6.898 L -5.439,16.037 Z"
             style="fill:#eb5259;fill-opacity:1;fill-rule:nonzero;stroke:none"
             id="path340"
             inkscape:connector-curvature="0" /></g><g
           id="g342"
           transform="translate(430.4355,247.0713)"><path
             d="M 0,0 C -1.89,0.821 -3.957,1.298 -6.128,1.361 L -6.691,-15.56 Z"
             style="fill:#c5d7d8;fill-opacity:1;fill-rule:nonzero;stroke:none"
             id="path344"
             inkscape:connector-curvature="0" /></g><g
           id="g346"><g
             id="g348" /><g
             id="g376"><g
               clip-path="url(#clipPath352)"
               id="g374"
               style="opacity:0.33000201"><g
                 id="g372"><g
                   id="g370"><g
                     id="g368"><g
                       id="g366"><path
                         d="m 430.436,247.071 c -1.89,0.822 -3.957,1.298 -6.129,1.362 -0.19,0.011 -0.373,0.017 -0.563,0.017 -9.35,0 -16.938,-7.582 -16.938,-16.938 0,-9.352 7.588,-16.94 16.938,-16.94 1.902,0 3.734,0.317 5.44,0.903 3.67,1.234 6.772,3.699 8.817,6.898 1.7,2.636 2.682,5.773 2.682,9.139 0,6.978 -4.216,12.968 -10.247,15.559"
                         style="fill:url(#linearGradient362);stroke:none"
                         id="path364"
                         inkscape:connector-curvature="0" /></g></g></g></g></g></g></g><g
           id="g378"
           transform="translate(389,240.8301)"><path
             d="M 0,0 C -0.271,0 -0.521,0.11 -0.71,0.3 -0.9,0.48 -1,0.74 -1,1 c 0,0.13 0.02,0.26 0.08,0.39 0.05,0.12 0.12,0.23 0.21,0.32 0.05,0.05 0.1,0.09 0.149,0.12 0.061,0.04 0.121,0.07 0.181,0.1 0.06,0.02 0.12,0.04 0.18,0.05 0.13,0.03 0.269,0.03 0.389,0 C 0.26,1.97 0.319,1.95 0.38,1.93 0.439,1.9 0.5,1.87 0.55,1.83 0.609,1.8 0.66,1.76 0.71,1.71 0.8,1.62 0.87,1.51 0.92,1.39 0.97,1.26 1,1.14 1,1 1,0.74 0.899,0.48 0.71,0.3 0.52,0.11 0.27,0 0,0"
             style="fill:#ffffff;fill-opacity:1;fill-rule:nonzero;stroke:none"
             id="path380"
             inkscape:connector-curvature="0" /></g><g
           id="g382"
           transform="translate(388,238)"><path
             d="M 0,0 C 0,0.55 0.45,1 1,1 1.55,1 2,0.55 2,0 2,-0.55 1.55,-1 1,-1 0.45,-1 0,-0.55 0,0 m 0,-3.83 c 0,0.55 0.45,1 1,1 0.55,0 1,-0.45 1,-1 0,-0.55 -0.45,-1 -1,-1 -0.55,0 -1,0.45 -1,1"
             style="fill:#ffffff;fill-opacity:1;fill-rule:nonzero;stroke:none"
             id="path384"
             inkscape:connector-curvature="0" /></g><g
           id="g386"
           transform="translate(389,229.3301)"><path
             d="M 0,0 C -0.271,0 -0.521,0.11 -0.71,0.3 -0.8,0.39 -0.87,0.5 -0.931,0.62 -0.98,0.74 -1,0.87 -1,1 c 0,0.271 0.109,0.521 0.29,0.71 0.05,0.05 0.1,0.09 0.149,0.13 0.061,0.03 0.121,0.06 0.181,0.09 0.06,0.02 0.12,0.04 0.18,0.05 0.13,0.03 0.269,0.03 0.389,0 C 0.26,1.97 0.319,1.95 0.38,1.93 0.439,1.9 0.5,1.87 0.55,1.84 0.609,1.8 0.66,1.76 0.71,1.71 0.8,1.62 0.87,1.51 0.92,1.39 0.97,1.26 1,1.13 1,1 1,0.74 0.899,0.49 0.71,0.3 0.52,0.11 0.27,0 0,0"
             style="fill:#ffffff;fill-opacity:1;fill-rule:nonzero;stroke:none"
             id="path388"
             inkscape:connector-curvature="0" /></g><g
           id="g390"
           transform="translate(391.6299,230.3301)"><path
             d="M 0,0 C 0,0.561 0.439,1 0.99,1 1.55,1 2,0.561 2,0 2,-0.55 1.55,-1 0.99,-1 0.439,-1 0,-0.55 0,0 m 3.62,0 c 0,0.561 0.45,1 1,1 0.55,0 1,-0.439 1,-1 0,-0.55 -0.45,-1 -1,-1 -0.55,0 -1,0.45 -1,1 m 3.62,0 c 0,0.561 0.449,1 1,1 0.56,0 1,-0.439 1,-1 0,-0.55 -0.44,-1 -1,-1 -0.551,0 -1,0.45 -1,1"
             style="fill:#ffffff;fill-opacity:1;fill-rule:nonzero;stroke:none"
             id="path392"
             inkscape:connector-curvature="0" /></g><g
           id="g394"
           transform="translate(403.5,229.3301)"><path
             d="M 0,0 C -0.271,0 -0.521,0.11 -0.71,0.3 -0.9,0.48 -1,0.74 -1,1 c 0,0.271 0.109,0.521 0.29,0.71 0.38,0.37 1.04,0.37 1.42,0 C 0.89,1.521 1,1.271 1,1 1,0.74 0.899,0.48 0.71,0.3 0.52,0.11 0.27,0 0,0"
             style="fill:#ffffff;fill-opacity:1;fill-rule:nonzero;stroke:none"
             id="path396"
             inkscape:connector-curvature="0" /></g><path
           d="m 400.167,221.373 h -33.334 v 2 h 33.334 z"
           style="fill:#dda345;fill-opacity:1;fill-rule:nonzero;stroke:none"
           id="path398"
           inkscape:connector-curvature="0" /><path
           d="m 400.167,215.333 h -33.334 v 2 h 33.334 z"
           style="fill:#dda345;fill-opacity:1;fill-rule:nonzero;stroke:none"
           id="path400"
           inkscape:connector-curvature="0" /><path
           d="m 379.5,209.57 h -12.667 v 2 H 379.5 Z"
           style="fill:#dda345;fill-opacity:1;fill-rule:nonzero;stroke:none"
           id="path402"
           inkscape:connector-curvature="0" /><g
           id="g404"><g
             id="g406" /><g
             id="g434"><g
               clip-path="url(#clipPath410)"
               id="g432"
               style="opacity:0.33000201"><g
                 id="g430"><g
                   id="g428"><g
                     id="g426"><g
                       id="g424"><path
                         d="m 378.875,190.93 c 0,5.591 4.533,10.125 10.125,10.125 5.592,0 10.125,-4.534 10.125,-10.125"
                         style="fill:url(#linearGradient420);stroke:none"
                         id="path422"
                         inkscape:connector-curvature="0" /></g></g></g></g></g></g></g><g
           id="g436"><g
             id="g438" /><g
             id="g466"><g
               clip-path="url(#clipPath442)"
               id="g464"><g
                 id="g462"><g
                   id="g460"><g
                     id="g458"><g
                       id="g456"><path
                         d="m 411.083,280.667 h -44.166 v 2 h 44.166 z"
                         style="fill:url(#linearGradient452);stroke:none"
                         id="path454"
                         inkscape:connector-curvature="0" /></g></g></g></g></g></g></g><g
           id="g468"
           transform="translate(372.8398,306.8301)"><path
             d="M 0,0 C 0,0.56 0.44,1 1,1 1.55,1 2,0.56 2,0 2,-0.55 1.55,-1 1,-1 0.44,-1 0,-0.55 0,0 M 4,0 C 4,0.56 4.44,1 5,1 5.55,1 6,0.56 6,0 6,-0.55 5.55,-1 5,-1 4.44,-1 4,-0.55 4,0 M 8,0 C 8,0.56 8.44,1 9,1 9.55,1 10,0.56 10,0 10,-0.55 9.55,-1 9,-1 8.44,-1 8,-0.55 8,0 m 4,0 c 0,0.56 0.44,1 1,1 0.55,0 1,-0.44 1,-1 0,-0.55 -0.45,-1 -1,-1 -0.56,0 -1,0.45 -1,1 m 4,0 c 0,0.56 0.44,1 1,1 0.55,0 1,-0.44 1,-1 0,-0.55 -0.45,-1 -1,-1 -0.56,0 -1,0.45 -1,1 m 4,0 c 0,0.56 0.44,1 1,1 0.55,0 1,-0.44 1,-1 0,-0.55 -0.45,-1 -1,-1 -0.56,0 -1,0.45 -1,1 m 4,0 c 0,0.56 0.44,1 1,1 0.55,0 1,-0.44 1,-1 0,-0.55 -0.45,-1 -1,-1 -0.56,0 -1,0.45 -1,1 m 4,0 c 0,0.56 0.44,1 1,1 0.55,0 1,-0.44 1,-1 0,-0.55 -0.45,-1 -1,-1 -0.56,0 -1,0.45 -1,1 m 4,0 c 0,0.56 0.45,1 1,1 0.55,0 1,-0.44 1,-1 0,-0.55 -0.45,-1 -1,-1 -0.55,0 -1,0.45 -1,1 m 4,0 c 0,0.56 0.44,1 1,1 0.55,0 1,-0.44 1,-1 0,-0.55 -0.45,-1 -1,-1 -0.56,0 -1,0.45 -1,1 m 4,0 c 0,0.56 0.44,1 1,1 0.55,0 1,-0.44 1,-1 0,-0.55 -0.45,-1 -1,-1 -0.56,0 -1,0.45 -1,1 m 4,0 c 0,0.56 0.44,1 1,1 0.55,0 1,-0.44 1,-1 0,-0.55 -0.45,-1 -1,-1 -0.56,0 -1,0.45 -1,1 m 4,0 c 0,0.56 0.44,1 1,1 0.55,0 1,-0.44 1,-1 0,-0.55 -0.45,-1 -1,-1 -0.56,0 -1,0.45 -1,1 m 4,0 c 0,0.56 0.44,1 1,1 0.55,0 1,-0.44 1,-1 0,-0.55 -0.45,-1 -1,-1 -0.56,0 -1,0.45 -1,1 m 4,0 c 0,0.56 0.44,1 1,1 0.55,0 1,-0.44 1,-1 0,-0.55 -0.45,-1 -1,-1 -0.56,0 -1,0.45 -1,1 m 1,-3 c 0,0.56 0.44,1 1,1 0.55,0 1,-0.44 1,-1 0,-0.55 -0.45,-1 -1,-1 -0.56,0 -1,0.45 -1,1 m 0,-4 c 0,0.56 0.44,1 1,1 0.55,0 1,-0.44 1,-1 0,-0.55 -0.45,-1 -1,-1 -0.56,0 -1,0.45 -1,1 m 0,-4 c 0,0.56 0.44,1 1,1 0.55,0 1,-0.44 1,-1 0,-0.55 -0.45,-1 -1,-1 -0.56,0 -1,0.45 -1,1 m 0,-4 c 0,0.56 0.44,1 1,1 0.55,0 1,-0.44 1,-1 0,-0.55 -0.45,-1 -1,-1 -0.56,0 -1,0.45 -1,1 m 0,-4 c 0,0.56 0.44,1 1,1 0.55,0 1,-0.44 1,-1 0,-0.55 -0.45,-1 -1,-1 -0.56,0 -1,0.45 -1,1 m 0,-4 c 0,0.56 0.44,1 1,1 0.55,0 1,-0.44 1,-1 0,-0.55 -0.45,-1 -1,-1 -0.56,0 -1,0.45 -1,1 m 0,-4 c 0,0.56 0.44,1 1,1 0.55,0 1,-0.44 1,-1 0,-0.55 -0.45,-1 -1,-1 -0.56,0 -1,0.45 -1,1 m 0,-4 c 0,0.56 0.44,1 1,1 0.55,0 1,-0.44 1,-1 0,-0.55 -0.45,-1 -1,-1 -0.56,0 -1,0.45 -1,1 m 0,-4 c 0,0.56 0.44,1 1,1 0.55,0 1,-0.44 1,-1 0,-0.55 -0.45,-1 -1,-1 -0.56,0 -1,0.45 -1,1 m 0,-4 c 0,0.56 0.44,1 1,1 0.55,0 1,-0.44 1,-1 0,-0.55 -0.45,-1 -1,-1 -0.56,0 -1,0.45 -1,1 m 0,-4 c 0,0.56 0.44,1 1,1 0.55,0 1,-0.44 1,-1 0,-0.55 -0.45,-1 -1,-1 -0.56,0 -1,0.45 -1,1 m 0,-4 c 0,0.56 0.44,1 1,1 0.55,0 1,-0.44 1,-1 0,-0.55 -0.45,-1 -1,-1 -0.56,0 -1,0.45 -1,1 m 0,-4 c 0,0.56 0.44,1 1,1 0.55,0 1,-0.44 1,-1 0,-0.55 -0.45,-1 -1,-1 -0.56,0 -1,0.45 -1,1"
             style="fill:#ffffff;fill-opacity:1;fill-rule:nonzero;stroke:none"
             id="path470"
             inkscape:connector-curvature="0" /></g><g
           id="g472"><g
             id="g474" /><g
             id="g486"><g
               clip-path="url(#clipPath478)"
               id="g484"
               style="opacity:0.5"><g
                 transform="translate(367.0898,318.9951)"
                 id="g482"><path
                   d="m 0,0 v -94.17 c 0,-0.97 -0.79,-1.76 -1.77,-1.76 h -50.64 c -0.98,0 -1.77,0.79 -1.77,1.76 V 0 c 0,0.97 0.79,1.76 1.77,1.76 H -1.77 C -0.79,1.76 0,0.97 0,0"
                   style="fill:#fbc96b;fill-opacity:1;fill-rule:nonzero;stroke:none"
                   id="path480"
                   inkscape:connector-curvature="0" /></g></g></g></g><g
           id="g488"><g
             id="g490" /><g
             id="g500"><g
               clip-path="url(#clipPath494)"
               id="g498"
               style="opacity:0.60000598"><path
                 d="m 340.232,293.433 h -22.977 v 22.976 h 22.977 z"
                 style="fill:#ea5d3f;fill-opacity:1;fill-rule:nonzero;stroke:none"
                 id="path496"
                 inkscape:connector-curvature="0" /></g></g></g><g
           id="g502"><g
             id="g504" /><g
             id="g514"><g
               clip-path="url(#clipPath508)"
               id="g512"
               style="opacity:0.60000598"><path
                 d="m 340.232,282.331 h -9.815 v 9.816 h 9.815 z"
                 style="fill:#ff6666;fill-opacity:1;fill-rule:nonzero;stroke:none"
                 id="path510"
                 inkscape:connector-curvature="0" /></g></g></g><g
           id="g516"><g
             id="g518" /><g
             id="g530"><g
               clip-path="url(#clipPath522)"
               id="g528"
               style="opacity:0.32000703"><g
                 transform="translate(367.0898,139.9531)"
                 id="g526"><path
                   d="m 0,0 c 0,-1.769 -11.644,-3.203 -26.006,-3.203 -14.363,0 -26.007,1.434 -26.007,3.203 0,1.77 11.644,3.204 26.007,3.204 C -11.644,3.204 0,1.77 0,0"
                   style="fill:#d8bda7;fill-opacity:1;fill-rule:nonzero;stroke:none"
                   id="path524"
                   inkscape:connector-curvature="0" /></g></g></g></g><g
           id="g532"
           transform="translate(382.7158,242.0928)"><path
             d="m 0,0 c 0.19,0.048 0.313,-0.063 0.044,-0.252 -0.561,-0.392 -1.384,-1.516 -1.71,-1.92 -0.481,-0.595 -1.265,-1.887 -2.256,-2.579 -0.992,-0.691 -5.535,-2.68 -6.252,-2.77 -0.679,-0.086 -1.939,0.062 -0.397,2.927 0.809,1.506 1.292,1.771 2.233,2.136 0.817,0.316 2.722,1.225 3.007,1.13 0.285,-0.096 0.105,-0.52 -1.879,-1.703 -0.312,-0.364 1.38,-0.865 2.014,-0.744 0.634,0.122 1.038,2.312 1.446,2.698 0.353,0.335 0.682,0.387 0.891,0.31 0.216,-0.078 -0.226,-0.667 -0.528,-1.359 -0.302,-0.692 -0.107,-1.095 -0.107,-1.095 0,0 1.622,2.114 2.242,2.577 C -0.681,-0.218 -0.637,-0.159 0,0"
             style="fill:#e49f98;fill-opacity:1;fill-rule:nonzero;stroke:none"
             id="path534"
             inkscape:connector-curvature="0" /></g><g
           id="g536"
           transform="translate(369.3711,232.7695)"><path
             d="m 0,0 c 0,0 1.216,1.491 2.267,3.333 0.436,0.765 2.694,1.764 4.281,1.495 0,0 0.836,2.773 1.339,3.04 C 8.39,8.136 8.796,8 8.505,7.452 8.214,6.905 7.763,5.32 7.763,5.32 c 0,0 1.242,-0.497 1.423,0.593 0.18,1.09 1.098,2.594 1.769,2.761 0.67,0.167 0.725,-0.05 0.177,-0.709 C 10.583,7.306 10.35,6.148 10.482,5.806 10.616,5.462 9.353,4.435 8.279,3.787 7.206,3.14 4.3,1.846 3.472,0.975 2.645,0.104 -1.72,-5.971 -1.72,-5.971 l -3.139,1.544 z"
             style="fill:#f8b7b0;fill-opacity:1;fill-rule:nonzero;stroke:none"
             id="path538"
             inkscape:connector-curvature="0" /></g><g
           id="g540"
           transform="translate(342.2783,244.7705)"><path
             d="M 0,0 C 4.146,-0.553 6.772,1.751 7.603,2.811 8.432,3.87 5.759,4.93 4.792,5.99 4.379,6.441 4.209,7.177 4.198,8.113 4.18,9.377 4.447,11.01 4.792,12.809 l -8.34,1.475 c 0,0 0.277,-4.193 0.277,-5.76 0,-0.28 -0.034,-0.518 -0.102,-0.73 C -3.677,6.817 -4.676,6.401 -6.267,5.114 -8.202,3.548 -4.147,0.553 0,0"
             style="fill:#f8b7b0;fill-opacity:1;fill-rule:nonzero;stroke:none"
             id="path542"
             inkscape:connector-curvature="0" /></g><g
           id="g544"
           transform="translate(337.3037,261.6572)"><path
             d="m 0,0 c -0.716,0.069 -1.147,-0.076 -1.378,3.202 -0.099,1.406 -0.093,2.627 1.278,4.072 0,0 1.76,0.381 1.964,-1.879 C 2.069,3.133 1.521,0.419 0,0"
             style="fill:#1c1e38;fill-opacity:1;fill-rule:nonzero;stroke:none"
             id="path546"
             inkscape:connector-curvature="0" /></g><g
           id="g548"
           transform="translate(339.0078,253.2954)"><path
             d="m 0,0 c 0,-0.103 -0.004,-0.201 -0.015,-0.293 0.929,-0.864 1.994,-1.515 2.859,-1.515 1.344,0 3.002,0.671 4.64,2.084 0.063,1.145 0.293,2.522 0.579,4.009 L -0.276,5.759 C -0.276,5.759 0,1.566 0,0"
             style="fill:#e49f98;fill-opacity:1;fill-rule:nonzero;stroke:none"
             id="path550"
             inkscape:connector-curvature="0" /></g><g
           id="g552"
           transform="translate(348.6055,261.6084)"><path
             d="m 0,0 c -0.358,-3.587 -0.6,-5.325 -2.166,-6.793 -1.566,-1.469 -3.179,-2.166 -4.469,-2.166 -1.613,0 -4.009,2.546 -4.424,4.063 -0.429,1.572 -1.021,5.619 -0.506,9.547 0.26,1.991 2.718,4.406 5.253,4.406 C -3.778,9.057 0.875,8.763 0,0"
             style="fill:#f8b7b0;fill-opacity:1;fill-rule:nonzero;stroke:none"
             id="path554"
             inkscape:connector-curvature="0" /></g><g
           id="g556"
           transform="translate(336.3086,260.6509)"><path
             d="M 0,0 C 0.291,-1.308 1.083,-2.245 1.769,-2.092 2.453,-1.939 2.772,-0.755 2.481,0.553 2.189,1.861 1.397,2.798 0.713,2.645 0.027,2.493 -0.292,1.308 0,0"
             style="fill:#f8b7b0;fill-opacity:1;fill-rule:nonzero;stroke:none"
             id="path558"
             inkscape:connector-curvature="0" /></g><g
           id="g560"
           transform="translate(348.8057,268.0386)"><path
             d="m 0,0 c 0,0 -2.892,-1.595 -7.526,-0.938 -4.35,0.616 -4.347,1.675 -4.347,1.675 0,0 0.753,2.903 3.747,3.087 2.995,0.185 7.28,0 8.126,-3.824"
             style="fill:#1c1e38;fill-opacity:1;fill-rule:nonzero;stroke:none"
             id="path562"
             inkscape:connector-curvature="0" /></g><g
           id="g564"
           transform="translate(348.0986,261.6572)"><path
             d="m 0,0 c -0.716,0.069 -1.148,-0.076 -1.378,3.202 -0.1,1.406 -0.093,2.627 1.278,4.072 0,0 1.759,0.381 1.964,-1.879 C 2.069,3.133 1.521,0.419 0,0"
             style="fill:#1c1e38;fill-opacity:1;fill-rule:nonzero;stroke:none"
             id="path566"
             inkscape:connector-curvature="0" /></g><g
           id="g568"
           transform="translate(361.373,229.2549)"><path
             d="m 0,0 8.445,4.265 0.751,-5.318 -12.21,-6.465 -5.344,11.98 c 0,0 -0.087,-17.886 -0.323,-20.368 -0.23,-2.424 -0.814,-2.67 -1.858,-2.67 h -16.895 c -1.152,0 -1.979,1.239 -1.782,3.44 0.16,1.782 1.295,16.34 0.815,22.852 0,0 -0.836,-5.595 -1.353,-11.764 l 10.568,-9.304 -1.44,-4.21 -15.005,10.229 c 0,0 0.14,20.818 4.613,24.973 1.721,1.597 5.918,4.485 7.761,4.854 l 4.662,-2.693 0.4,-1.056 0.234,1.088 2.998,2.241 c 2.765,-0.472 6.758,-3.236 7.342,-4.373 C -6.26,15.049 0,0 0,0"
             style="fill:#f22f5d;fill-opacity:1;fill-rule:nonzero;stroke:none"
             id="path570"
             inkscape:connector-curvature="0" /></g><g
           id="g572"
           transform="translate(347.5361,261.731)"><path
             d="M 0,0 C -0.507,-1.241 -0.391,-2.462 0.26,-2.727 0.909,-2.993 1.847,-2.202 2.354,-0.961 2.86,0.279 2.744,1.5 2.095,1.766 1.445,2.031 0.507,1.24 0,0"
             style="fill:#f8b7b0;fill-opacity:1;fill-rule:nonzero;stroke:none"
             id="path574"
             inkscape:connector-curvature="0" /></g><g
           id="g576"
           transform="translate(338.501,253.0029)"><path
             d="m 0,0 c 0,0 -0.953,-0.555 -1.201,-1.977 0,0 1.131,-2.28 3.734,-4.684 0,0 0.659,2.283 1.744,2.714 z"
             style="fill:#cc1d4f;fill-opacity:1;fill-rule:nonzero;stroke:none"
             id="path578"
             inkscape:connector-curvature="0" /></g><g
           id="g580"
           transform="translate(346.9805,253.1343)"><path
             d="m 0,0 c 0,0 0.473,-1.076 0.357,-2.361 0,0 -1.153,-2.773 -3.2,-4.401 0,0 0.267,1.665 -0.725,2.716 z"
             style="fill:#cc1d4f;fill-opacity:1;fill-rule:nonzero;stroke:none"
             id="path582"
             inkscape:connector-curvature="0" /></g><g
           id="g584"
           transform="translate(332.8242,224.1465)"><path
             d="m 0,0 c -0.13,-2.548 -0.285,-4.941 -0.415,-6.77 l -2.369,1.615 c 0.533,1.899 1.626,4.707 2.058,5.794 z"
             style="fill:#cc1d4f;fill-opacity:1;fill-rule:nonzero;stroke:none"
             id="path586"
             inkscape:connector-curvature="0" /></g><g
           id="g588"
           transform="translate(330.6357,145.5947)"><path
             d="M 0,0 C 0.325,-1.204 0.893,-2.097 0.496,-2.787 0.1,-3.479 0.364,-3.939 0.805,-4.907 c 0.44,-0.968 1.816,-2.878 -1.82,-2.948 -3.89,-0.077 -5.845,0.92 -5.185,3.041 0.661,2.119 0.577,2.81 0.533,3.501 -0.044,0.691 0.148,1.41 0.589,1.825 C -4.638,0.926 -0.572,2.119 0,0"
             style="fill:#4c37a8;fill-opacity:1;fill-rule:nonzero;stroke:none"
             id="path590"
             inkscape:connector-curvature="0" /></g><g
           id="g592"
           transform="translate(352.5215,146.9541)"><path
             d="m 0,0 c 0.328,-0.741 2.027,-2.525 4.47,-3.797 2.441,-1.271 7.556,-2.377 4.515,-3.114 -3.041,-0.737 -5.068,-0.646 -9.675,0.875 -1.936,0.553 -1.751,0.645 -3.826,0.553 -2.073,-0.092 -3.593,-0.645 -2.626,3.364 C -6.174,1.889 -1.06,2.396 0,0"
             style="fill:#4c37a8;fill-opacity:1;fill-rule:nonzero;stroke:none"
             id="path594"
             inkscape:connector-curvature="0" /></g><g
           id="g596"
           transform="translate(332.168,212.4404)"><path
             d="m 0,0 c 0,0 0,0.853 0.747,0.953 0.747,0.101 1.867,0.352 10.191,0.352 8.325,0 9.659,-0.201 9.659,-0.77 0,0 0.853,-28.234 0.64,-32.951 -0.214,-4.718 -0.854,-28.102 -0.64,-30.21 0.214,-2.107 0.674,-3.713 0.674,-3.713 l -3.022,0.803 c 0,0 -4.66,-2.677 -5.194,-3.58 -0.534,-0.903 -0.076,2.003 -0.356,4.985 -0.284,3.044 0.427,27.679 0.534,31.102 0.107,3.423 -2.028,21.538 -2.028,21.538 H 9.711 c 0,0 -4.322,-14.302 -4.962,-18.115 -0.641,-3.814 -1.239,-6.341 -1.726,-8.331 -0.706,-2.889 -3.59,-24.621 -3.91,-26.627 -0.32,-2.008 0,-4.124 0,-4.124 l -1.758,1.743 c 0,0 -4.07,-0.397 -4.71,-1.869 0,0 1.912,30.978 2.979,35.193 C -3.309,-29.405 0,0 0,0"
             style="fill:#fcba6b;fill-opacity:1;fill-rule:nonzero;stroke:none"
             id="path598"
             inkscape:connector-curvature="0" /></g><g
           id="g600"
           transform="translate(339.8809,259.0366)"><path
             d="m 0,0 c 0.06,-0.527 0.598,-0.94 1.254,-0.94 0.516,0 0.96,0.256 1.151,0.625 C 2.123,-0.507 1.764,-0.623 1.369,-0.623 0.793,-0.623 0.286,-0.375 0,0"
             style="fill:#e49f98;fill-opacity:1;fill-rule:nonzero;stroke:none"
             id="path602"
             inkscape:connector-curvature="0" /></g><g
           id="g604"
           transform="translate(370.6299,234.6768)"><path
             d="m 0,0 c 0,0 0.857,-4.94 0.776,-6.704 l -3.18,-1.817 0.336,7.398 z"
             style="fill:#cc1d4f;fill-opacity:1;fill-rule:nonzero;stroke:none"
             id="path606"
             inkscape:connector-curvature="0" /></g><g
           id="g608"><g
             id="g610" /><g
             id="g638"><g
               clip-path="url(#clipPath614)"
               id="g636"
               style="opacity:0.33000201"><g
                 id="g634"><g
                   id="g632"><g
                     id="g630"><g
                       id="g628"><path
                         d="m 334,306.798 c 0,-2.902 -5.256,-9.01 -5.256,-9.01 0,0 -5.256,6.108 -5.256,9.01 0,2.903 2.354,5.255 5.256,5.255 2.902,0 5.256,-2.352 5.256,-5.255"
                         style="fill:url(#linearGradient624);stroke:none"
                         id="path626"
                         inkscape:connector-curvature="0" /></g></g></g></g></g></g></g><g
           id="g640"><g
             id="g642" /><g
             id="g670"><g
               clip-path="url(#clipPath646)"
               id="g668"
               style="opacity:0.33000201"><g
                 id="g666"><g
                   id="g664"><g
                     id="g662"><g
                       id="g660"><path
                         d="m 330.974,306.732 c 0,-1.231 -0.998,-2.229 -2.23,-2.229 -1.23,0 -2.228,0.998 -2.228,2.229 0,1.231 0.998,2.229 2.228,2.229 1.232,0 2.23,-0.998 2.23,-2.229"
                         style="fill:url(#linearGradient656);stroke:none"
                         id="path658"
                         inkscape:connector-curvature="0" /></g></g></g></g></g></g></g><g
           id="g672"
           transform="translate(301.5068,258.3022)"><path
             d="m 0,0 c -4.064,-2.226 -5.56,-7.343 -3.333,-11.407 2.227,-4.064 7.343,-5.559 11.407,-3.333 4.064,2.227 5.559,7.344 3.332,11.407 C 9.181,0.731 4.063,2.226 0,0 m 9.083,-16.583 c -5.08,-2.782 -11.476,-0.914 -14.259,4.166 -2.782,5.081 -0.914,11.477 4.166,14.26 5.08,2.782 11.477,0.913 14.259,-4.166 2.783,-5.08 0.914,-11.476 -4.166,-14.26"
             style="fill:#fbc96b;fill-opacity:1;fill-rule:nonzero;stroke:none"
             id="path674"
             inkscape:connector-curvature="0" /></g><g
           id="g676"
           transform="translate(310.04,252.1978)"><path
             d="M 0,0 -3.992,-2.187 C -4.5,-2.465 -5.139,-2.279 -5.418,-1.77 l -3.195,5.834 c -0.28,0.509 -0.093,1.148 0.416,1.426 0.509,0.279 1.147,0.093 1.426,-0.416 L -4.08,0.161 -1.009,1.843 C -0.5,2.121 0.139,1.935 0.417,1.426 0.695,0.917 0.509,0.279 0,0"
             style="fill:#fbc96b;fill-opacity:1;fill-rule:nonzero;stroke:none"
             id="path678"
             inkscape:connector-curvature="0" /></g></g></g></g></svg>