<?xml version="1.0" encoding="UTF-8" standalone="no"?>
<!-- Created with Inkscape (http://www.inkscape.org/) -->

<svg
   xmlns:dc="http://purl.org/dc/elements/1.1/"
   xmlns:cc="http://creativecommons.org/ns#"
   xmlns:rdf="http://www.w3.org/1999/02/22-rdf-syntax-ns#"
   xmlns:svg="http://www.w3.org/2000/svg"
   xmlns="http://www.w3.org/2000/svg"
   xmlns:sodipodi="http://sodipodi.sourceforge.net/DTD/sodipodi-0.dtd"
   xmlns:inkscape="http://www.inkscape.org/namespaces/inkscape"
   version="1.1"
   id="svg2"
   xml:space="preserve"
   width="666.66669"
   height="666.66669"
   viewBox="0 0 666.66669 666.66669"
   sodipodi:docname="404085-PD1EQZ-44.svg"
   inkscape:version="0.92.3 (2405546, 2018-03-11)"><metadata
     id="metadata8"><rdf:RDF><cc:Work
         rdf:about=""><dc:format>image/svg+xml</dc:format><dc:type
           rdf:resource="http://purl.org/dc/dcmitype/StillImage" /><dc:title></dc:title></cc:Work></rdf:RDF></metadata><defs
     id="defs6"><clipPath
       clipPathUnits="userSpaceOnUse"
       id="clipPath50"><path
         d="M 0,0 H 500 V 500 H 0 Z"
         id="path48"
         inkscape:connector-curvature="0" /></clipPath><clipPath
       clipPathUnits="userSpaceOnUse"
       id="clipPath460"><path
         d="M 0,0 H 500 V 499.683 H 0 Z"
         id="path458"
         inkscape:connector-curvature="0" /></clipPath><clipPath
       clipPathUnits="userSpaceOnUse"
       id="clipPath478"><path
         d="M 0,500 H 500 V 0 H 0 Z"
         id="path476"
         inkscape:connector-curvature="0" /></clipPath><clipPath
       clipPathUnits="userSpaceOnUse"
       id="clipPath658"><path
         d="M 0,500 H 500 V 0 H 0 Z"
         id="path656"
         inkscape:connector-curvature="0" /></clipPath></defs><sodipodi:namedview
     pagecolor="#ffffff"
     bordercolor="#666666"
     borderopacity="1"
     objecttolerance="10"
     gridtolerance="10"
     guidetolerance="10"
     inkscape:pageopacity="0"
     inkscape:pageshadow="2"
     inkscape:window-width="1600"
     inkscape:window-height="847"
     id="namedview4"
     showgrid="false"
     inkscape:zoom="0.70799998"
     inkscape:cx="414.34804"
     inkscape:cy="330.02259"
     inkscape:window-x="-8"
     inkscape:window-y="-8"
     inkscape:window-maximized="1"
     inkscape:current-layer="g10" /><g
     id="g10"
     inkscape:groupmode="layer"
     inkscape:label="404085-PD1EQZ-44"
     transform="matrix(1.3333333,0,0,-1.3333333,0,666.66667)"><g
       id="g472"
       transform="translate(10.242135,45.498783)"><g
         id="g474"
         clip-path="url(#clipPath478)"><g
           id="g480"
           transform="translate(117.2446,233.4121)"><path
             d="m 0,0 c 0,0 -7.818,-1.251 -10.319,3.128 -2.502,4.378 -4.066,41.903 -4.066,41.903 L 10.632,56.289 27.519,48.471 26.581,1.877 Z"
             style="fill:#26354f;fill-opacity:1;fill-rule:nonzero;stroke:none"
             id="path482"
             inkscape:connector-curvature="0" /></g><g
           id="g484"
           transform="translate(121.606,319.3472)"><path
             d="m 0,0 c -2.301,1.914 -5.55,2.625 -8.439,1.844 -2.89,-0.781 -5.34,-3.031 -6.363,-5.844 -0.719,-1.975 -0.852,-4.321 -2.407,-5.734 -0.8,-0.726 -1.86,-1.081 -2.89,-1.406 -3.01,-0.952 -6.077,-1.839 -8.805,-3.428 -2.727,-1.589 -5.13,-3.997 -5.986,-7.035 -0.364,-1.291 -0.435,-2.681 -0.077,-3.973 0.188,-0.68 0.491,-1.329 0.612,-2.023 0.431,-2.483 -1.517,-4.77 -1.711,-7.281 -0.251,-3.223 2.402,-5.943 5.184,-7.591 3.815,-2.26 8.526,-3.411 12.744,-2.042 4.218,1.37 7.575,5.738 6.84,10.112 -0.363,2.165 -1.607,4.497 -0.501,6.393 0.687,1.177 2.07,1.725 3.121,2.593 2.106,1.738 2.758,5.009 1.481,7.421 -0.471,0.89 -1.165,1.658 -1.553,2.588 -0.387,0.93 -0.374,2.153 0.409,2.785 0.604,0.488 1.489,0.492 2.103,0.965 0.919,0.708 0.851,2.11 0.533,3.225 -0.318,1.115 -0.798,2.297 -0.412,3.389 0.293,0.832 1.028,1.414 1.728,1.949 1.382,1.057 2.764,2.114 4.145,3.171"
             style="fill:#34d2ad;fill-opacity:1;fill-rule:nonzero;stroke:none"
             id="path486"
             inkscape:connector-curvature="0" /></g><g
           id="g488"
           transform="translate(135.7202,325.3735)"><path
             d="m 0,0 c -1.273,1.064 -3.041,1.331 -4.699,1.256 -4.14,-0.184 -8.15,-2.325 -10.606,-5.662 -2.457,-3.336 -3.309,-7.802 -2.254,-11.809 0.241,-0.917 0.582,-1.82 1.134,-2.592 1.436,-2.007 4.004,-2.789 6.384,-3.443 2.079,-0.572 5.721,-1.649 7.475,-0.398 0,0 -3.163,8.357 -1.673,13.545 C -2.749,-3.917 0,0 0,0"
             style="fill:#34d2ad;fill-opacity:1;fill-rule:nonzero;stroke:none"
             id="path490"
             inkscape:connector-curvature="0" /></g><g
           id="g492"
           transform="translate(140.813,323.6758)"><path
             d="m 0,0 1.786,-13.441 c 0.72,-2.689 -0.883,-5.45 -3.574,-6.159 l -1.589,-0.417 -0.182,-8.575 c 0,0 -1.772,-2.004 -6.031,-2.083 -4.13,-0.077 -6.109,2.302 -5.912,2.336 l 0.512,24.192 z"
             style="fill:#ffd4a8;fill-opacity:1;fill-rule:nonzero;stroke:none"
             id="path494"
             inkscape:connector-curvature="0" /></g><g
           id="g496"
           transform="translate(125.7168,313.1094)"><path
             d="m 0,0 c 0,0 1.971,-1.264 1.796,4.587 0,0 13.986,-1.489 16.457,2.229 2.472,3.719 -2.447,8.319 -9.744,7.329 C 1.212,13.155 -1.715,11.28 -1.715,11.28 L -3.239,8.4 -2.67,3.27 Z"
             style="fill:#34d2ad;fill-opacity:1;fill-rule:nonzero;stroke:none"
             id="path498"
             inkscape:connector-curvature="0" /></g><g
           id="g500"
           transform="translate(125.7168,313.1094)"><path
             d="M 0,0 C 0,0 -3.632,2.99 -4.646,0.887 -5.66,-1.215 1.753,-4.015 1.753,-4.015 Z"
             style="fill:#ffd4a8;fill-opacity:1;fill-rule:nonzero;stroke:none"
             id="path502"
             inkscape:connector-curvature="0" /></g><g
           id="g504"
           transform="translate(137.0142,203.6152)"><path
             d="m 0,0 9.405,-132.714 c 0,0 10.854,-7.683 11.21,-6.262 0.702,2.81 -6.933,11.376 -6.933,11.376 0,0 8.355,94.1 9.111,128.165 0.218,9.811 -6.835,25.469 -6.835,25.469 L -0.546,25.071 Z"
             style="fill:#ffcdba;fill-opacity:1;fill-rule:nonzero;stroke:none"
             id="path506"
             inkscape:connector-curvature="0" /></g><g
           id="g508"
           transform="translate(114.4209,203.6152)"><path
             d="m 0,0 9.405,-132.714 c 0,0 10.854,-7.683 11.209,-6.262 0.703,2.81 -6.932,11.376 -6.932,11.376 0,0 8.355,94.1 9.11,128.165 0.219,9.811 -6.834,25.469 -6.834,25.469 l -4.975,-6.572 z"
             style="fill:#ffcdba;fill-opacity:1;fill-rule:nonzero;stroke:none"
             id="path510"
             inkscape:connector-curvature="0" /></g><g
           id="g512"
           transform="translate(153.3286,230)"><path
             d="m 0,0 c 0,0 12.018,-16.156 5.717,-58.391 0,0 -19.683,-6.895 -43.397,-0.753 0,0 -7.775,40.063 6.125,61.392 l 14.028,0.719 z"
             style="fill:#26354f;fill-opacity:1;fill-rule:nonzero;stroke:none"
             id="path514"
             inkscape:connector-curvature="0" /></g><g
           id="g516"
           transform="translate(150.6963,76.0156)"><path
             d="m 0,0 c 0,0 8.692,-9.435 8.074,-11.292 -0.619,-1.857 -12.535,5.571 -12.535,5.571 l -2.012,22.594 8.975,0.154 z"
             style="fill:#34d2ad;fill-opacity:1;fill-rule:nonzero;stroke:none"
             id="path518"
             inkscape:connector-curvature="0" /></g><g
           id="g520"
           transform="translate(128.1025,76.0156)"><path
             d="m 0,0 c 0,0 8.693,-9.435 8.074,-11.292 -0.619,-1.857 -12.535,5.571 -12.535,5.571 l -2.012,22.594 8.975,0.154 z"
             style="fill:#34d2ad;fill-opacity:1;fill-rule:nonzero;stroke:none"
             id="path522"
             inkscape:connector-curvature="0" /></g><g
           id="g524"
           transform="translate(118.6646,274.4502)"><path
             d="M 0,0 0.161,0.083 C 0.183,0.096 0.169,0.087 0.176,0.09 L 0.182,0.094 0.083,0.029 -0.206,-0.17 c -0.223,-0.171 -0.455,-0.355 -0.701,-0.568 -0.494,-0.41 -0.999,-0.891 -1.48,-1.423 -0.971,-1.062 -1.855,-2.311 -2.66,-3.663 -1.571,-2.745 -2.827,-5.916 -3.593,-9.38 -0.807,-3.452 -1.213,-7.138 -1.343,-10.921 -0.102,-3.794 0.109,-7.669 0.467,-11.585 0.826,-7.835 2.51,-15.759 4.603,-23.644 2.122,-7.886 4.674,-15.745 7.417,-23.598 l 0.007,-0.021 c 0.415,-1.187 -0.212,-2.485 -1.4,-2.9 -1.035,-0.361 -2.409,-0.003 -2.954,0.9 -4.364,7.227 -8.115,14.791 -11.552,22.626 l -1.29,2.943 -1.19,2.995 c -0.385,1.004 -0.791,2 -1.16,3.013 l -1.066,3.064 c -1.449,4.081 -2.589,8.304 -3.606,12.596 -0.964,4.314 -1.644,8.741 -2.002,13.282 -0.317,4.549 -0.208,9.227 0.495,13.975 0.702,4.741 2.142,9.566 4.516,14.167 1.218,2.291 2.703,4.499 4.479,6.573 0.889,1.036 1.862,2.033 2.941,2.989 0.537,0.475 1.124,0.936 1.735,1.389 0.334,0.233 0.634,0.451 1,0.687 l 0.561,0.352 0.344,0.2 0.184,0.104 0.334,0.176 C -3.21,16.124 1.553,14.549 3.519,10.639 5.485,6.729 3.91,1.966 0,0"
             style="fill:#ffd4a8;fill-opacity:1;fill-rule:nonzero;stroke:none"
             id="path526"
             inkscape:connector-curvature="0" /></g><g
           id="g528"
           transform="translate(144.832,278.2368)"><path
             d="m 0,0 c 2.876,-0.347 5.785,-0.931 8.563,-1.797 2.778,-0.833 5.463,-1.967 7.64,-3.313 1.083,-0.663 2.035,-1.373 2.675,-2.003 0.666,-0.635 0.873,-1.083 0.96,-1.019 0.05,0.014 0.121,0.094 0.163,0.036 0.037,-0.053 0.028,-0.241 -0.137,-0.528 -0.338,-0.572 -1.115,-1.426 -2.179,-2.177 -2.127,-1.542 -4.995,-2.88 -7.975,-3.974 -2.995,-1.106 -6.167,-2.029 -9.388,-2.868 -6.461,-1.642 -13.154,-2.853 -19.89,-3.945 l -0.014,-0.002 c -1.24,-0.201 -2.083,-1.37 -1.882,-2.611 0.177,-1.094 1.108,-1.878 2.176,-1.91 6.936,-0.216 13.907,-0.143 20.963,0.491 3.532,0.309 7.082,0.769 10.679,1.542 3.599,0.775 7.246,1.758 11.042,3.679 1.884,0.982 3.875,2.236 5.724,4.309 0.916,1.042 1.787,2.352 2.4,3.911 0.619,1.553 0.922,3.367 0.824,5.088 -0.088,1.726 -0.531,3.316 -1.109,4.675 -0.583,1.362 -1.295,2.542 -2.047,3.556 -1.513,2.04 -3.16,3.608 -4.847,4.955 -3.388,2.662 -6.918,4.561 -10.551,6.124 -3.645,1.521 -7.396,2.683 -11.284,3.429 L 2.442,15.66 C -1.858,16.485 -6.014,13.667 -6.839,9.366 -7.664,5.065 -4.846,0.91 -0.544,0.085 -0.37,0.051 -0.174,0.021 0,0"
             style="fill:#ffd4a8;fill-opacity:1;fill-rule:nonzero;stroke:none"
             id="path530"
             inkscape:connector-curvature="0" /></g><g
           id="g532"
           transform="translate(124.6968,297.6182)"><path
             d="m 0,0 13.091,0.604 0.403,-3.424 c 0,0 9.957,1.386 13.381,-1.232 3.424,-2.618 1.3,-33.219 -0.311,-40.067 -1.611,-6.848 6.668,-29.193 6.668,-29.193 0,0 -23.363,-7.653 -41.892,-0.604 0,0 6.848,20.946 3.021,34.038 -3.827,13.091 -7.513,30.868 -7.513,30.868 0,0 5.298,3.975 12.749,5.385 z"
             style="fill:#e0a5db;fill-opacity:1;fill-rule:nonzero;stroke:none"
             id="path534"
             inkscape:connector-curvature="0" /></g><g
           id="g536"
           transform="translate(119.9961,192.8311)"><path
             d="m 0,0 c 0,0 4.968,-6.12 4.689,-6.516 -0.805,-1.148 -3.557,1.854 -3.557,1.854 0,0 2.931,-7.628 1.809,-8.056 -0.688,-0.261 -2.722,3.842 -2.722,3.842 0,0 0.654,-4.084 -0.271,-4.52 -0.901,-0.425 -2.282,4.633 -2.282,4.633 0,0 0.071,-2.913 -0.818,-3.242 -0.612,-0.226 -1.94,10.038 -1.94,10.038 z"
             style="fill:#ffd4a8;fill-opacity:1;fill-rule:nonzero;stroke:none"
             id="path538"
             inkscape:connector-curvature="0" /></g><g
           id="g540"
           transform="translate(118.1328,292.5122)"><path
             d="m 0,0 c 0,0 -3.382,-39.175 1.691,-51.012 0,0 2.254,9.019 0.563,13.246 L 4.509,1.409 Z"
             style="fill:#26354f;fill-opacity:1;fill-rule:nonzero;stroke:none"
             id="path542"
             inkscape:connector-curvature="0" /></g><g
           id="g544"
           transform="translate(140.1157,294.7666)"><path
             d="m 0,0 c 0,0 2.536,0.846 3.382,0.564 0.846,-0.282 12.964,-22.547 9.582,-54.958 0,0 -1.974,4.94 -2.538,12.55 C 9.863,-34.235 6.2,-11.837 0,0"
             style="fill:#26354f;fill-opacity:1;fill-rule:nonzero;stroke:none"
             id="path546"
             inkscape:connector-curvature="0" /></g><g
           id="g548"
           transform="translate(124.2632,236.1885)"><path
             d="M 0,0 26.633,2.808 23.527,39.147 -3.914,36.966 -0.124,0"
             style="fill:#ffffff;fill-opacity:1;fill-rule:nonzero;stroke:none"
             id="path550"
             inkscape:connector-curvature="0" /></g><g
           id="g552"
           transform="translate(154.542,263.4614)"><path
             d="m 0,0 c -2.995,-1.106 -6.167,-2.028 -9.388,-2.868 -3.754,-0.954 -7.586,-1.762 -11.46,-2.486 l 0.305,-6.084 c 4.146,0.038 8.312,0.216 12.508,0.594 3.532,0.309 7.082,0.769 10.679,1.541 3.599,0.776 7.246,1.759 11.042,3.679 z"
             style="fill:#ffd4a8;fill-opacity:1;fill-rule:nonzero;stroke:none"
             id="path554"
             inkscape:connector-curvature="0" /></g><g
           id="g556"
           transform="translate(137.9321,257.4272)"><path
             d="m 0,0 c 0,0 -6.843,3.916 -7.188,3.578 -1.005,-0.981 2.402,-3.213 2.402,-3.213 0,0 -8.004,1.663 -8.245,0.487 -0.147,-0.722 4.233,-2.067 4.233,-2.067 0,0 -4.138,-0.014 -4.42,-0.997 -0.274,-0.957 4.944,-1.504 4.944,-1.504 0,0 -2.889,-0.4 -3.07,-1.331 -0.125,-0.64 10.223,-0.296 10.223,-0.296 z"
             style="fill:#ffd4a8;fill-opacity:1;fill-rule:nonzero;stroke:none"
             id="path558"
             inkscape:connector-curvature="0" /></g><g
           id="g560"
           transform="translate(349.085,84.0537)"><path
             d="M 0,0 C 0,0 -19.947,3.641 -21.793,0.342 -23.638,-2.954 0.014,-6.636 0.014,-6.636 Z"
             style="fill:#004d72;fill-opacity:1;fill-rule:nonzero;stroke:none"
             id="path562"
             inkscape:connector-curvature="0" /></g><g
           id="g564"
           transform="translate(383.5293,88.541)"><path
             d="M 0,0 C 0,0 -19.211,2.061 -21.057,-1.237 -22.901,-4.533 0.48,-6.332 0.48,-6.332 Z"
             style="fill:#004d72;fill-opacity:1;fill-rule:nonzero;stroke:none"
             id="path566"
             inkscape:connector-curvature="0" /></g><g
           id="g568"
           transform="translate(325.5859,227.2373)"><path
             d="m 0,0 14.94,-145.605 8.847,-1.362 c 0,0 6.771,64.733 6.036,117.717 0,0 15.253,-76.87 18.694,-112.429 l 9.776,-1.821 c 0,0 -4.955,62.059 -4.382,117.691 0.105,10.159 1.721,24.662 0.438,36.865 z"
             style="fill:#34d2ad;fill-opacity:1;fill-rule:nonzero;stroke:none"
             id="path570"
             inkscape:connector-curvature="0" /></g><g
           id="g572"
           transform="translate(345.8105,335.2275)"><path
             d="m 0,0 c -0.926,0.818 -1.774,1.526 -2.202,2.684 -0.426,1.16 0.134,4.231 1.182,4.884 1.222,0.762 2.78,0.086 4.206,-0.116 2.136,-0.303 4.253,0.53 6.399,0.763 2.145,0.233 4.751,-0.47 5.411,-2.525 0.135,-0.422 0.246,-0.953 0.672,-1.076 0.184,-0.052 0.377,-0.009 0.565,0.011 1.664,0.157 2.829,-1.793 2.734,-3.461 -0.095,-1.668 -0.965,-3.187 -1.35,-4.813 -0.846,-3.559 0.64,-7.539 -0.919,-10.848 -1.228,-2.605 -5.099,-4.907 -7.768,-3.032 l 3.411,15.068 z"
             style="fill:#004d72;fill-opacity:1;fill-rule:nonzero;stroke:none"
             id="path574"
             inkscape:connector-curvature="0" /></g><g
           id="g576"
           transform="translate(339.3926,340.6348)"><path
             d="m 0,0 -1.228,-14.906 -0.118,-1.436 c -0.708,-3.29 1.395,-6.529 4.688,-7.222 l 1.945,-0.408 0.737,-10.345 c 0,0 2.261,-2.314 7.41,-2.153 4.992,0.156 7.239,3.149 6.999,3.178 l -2.078,29.188 z"
             style="fill:#ffd4a8;fill-opacity:1;fill-rule:nonzero;stroke:none"
             id="path578"
             inkscape:connector-curvature="0" /></g><g
           id="g580"
           transform="translate(357.8076,328.4468)"><path
             d="m 0,0 c 0,0 -1.887,-1.347 -2.004,4.449 0,0 -17.808,-1.033 -20.436,2.522 -2.628,3.555 -1.717,9.734 5.548,9.116 7.266,-0.618 18.031,-4.846 18.031,-4.846 L 2.788,8.468 2.479,3.366 Z"
             style="fill:#004d72;fill-opacity:1;fill-rule:nonzero;stroke:none"
             id="path582"
             inkscape:connector-curvature="0" /></g><g
           id="g584"
           transform="translate(346.5254,317.6885)"><path
             d="m 0,0 c -0.818,0.44 -1.709,0.738 -2.509,1.21 -2.044,1.208 -3.333,3.594 -3.222,5.966 0.101,2.189 1.289,4.253 1.183,6.441 -0.079,1.632 -0.86,3.345 -0.165,4.822 0.298,0.632 0.836,1.122 1.422,1.501 2.165,1.406 4.912,1.443 7.493,1.434 1.453,-0.005 2.922,-0.012 4.335,-0.349 3.601,-0.858 6.54,-4.015 7.139,-7.667 0.468,-2.856 0.68,-4.112 -0.174,-6.655 -0.55,-1.638 0.367,-3.52 -0.53,-5.037 C 11.647,-3.957 4.518,-2.429 0,0"
             style="fill:#004d72;fill-opacity:1;fill-rule:nonzero;stroke:none"
             id="path586"
             inkscape:connector-curvature="0" /></g><g
           id="g588"
           transform="translate(361.1445,308.104)"><path
             d="m 0,0 -14.048,-0.501 c 0,0 -21.721,2.371 -23.339,-9.284 -2.215,-15.944 0.681,-75.096 0.681,-75.096 l 55.632,0.573 c 0,0 4.183,61.853 -2.615,79.012 C 14.55,-0.852 0,0 0,0"
             style="fill:#ff519b;fill-opacity:1;fill-rule:nonzero;stroke:none"
             id="path590"
             inkscape:connector-curvature="0" /></g><g
           id="g592"
           transform="translate(324.4385,300.6484)"><path
             d="m 0,0 c 0,0 -14.468,-37.586 -9.88,-88.63 l 8.228,-0.242 14.843,57.328 z"
             style="fill:#ff519b;fill-opacity:1;fill-rule:nonzero;stroke:none"
             id="path594"
             inkscape:connector-curvature="0" /></g><g
           id="g596"
           transform="translate(316.4941,213.4697)"><path
             d="m 0,0 c 0,0 1.937,-13.308 9.679,-12.34 0,0 3.387,2.661 1.694,7.259 l -3.63,5.565 z"
             style="fill:#ffd4a8;fill-opacity:1;fill-rule:nonzero;stroke:none"
             id="path598"
             inkscape:connector-curvature="0" /></g><g
           id="g600"
           transform="translate(340.2822,328.4419)"><path
             d="m 0,0 c 0,0 2.694,2.537 3.805,1.189 1.109,-1.348 -4.44,-4.122 -4.44,-4.122 z"
             style="fill:#ffd4a8;fill-opacity:1;fill-rule:nonzero;stroke:none"
             id="path602"
             inkscape:connector-curvature="0" /></g><g
           id="g604"
           transform="translate(326.1592,255.3398)"><path
             d="M 0,0 3.441,-50.471 -4.015,-49.896 -5.161,0 Z"
             style="fill:#004d72;fill-opacity:1;fill-rule:nonzero;stroke:none"
             id="path606"
             inkscape:connector-curvature="0" /></g><g
           id="g608"
           transform="translate(323.9951,205.2432)"><path
             d="M 0,0 -1.359,47.399 H 0.87 L 3.63,-0.483"
             style="fill:#ffffff;fill-opacity:1;fill-rule:nonzero;stroke:none"
             id="path610"
             inkscape:connector-curvature="0" /></g><g
           id="g612"
           transform="translate(337.166,258.269)"><path
             d="m 0,0 c 0,0 -5.787,-9.645 -10.932,-8.681 l 0.323,-6.43 c 0,0 11.252,2.572 12.538,10.288 z"
             style="fill:#e0a5db;fill-opacity:1;fill-rule:nonzero;stroke:none"
             id="path614"
             inkscape:connector-curvature="0" /></g><g
           id="g616"
           transform="translate(338.4521,307.7803)"><path
             d="m 0,0 c 0,0 3.857,-3.537 5.465,-17.361 l 6.431,0.643 C 11.896,-16.718 9.966,1.929 0,0"
             style="fill:#e0a5db;fill-opacity:1;fill-rule:nonzero;stroke:none"
             id="path618"
             inkscape:connector-curvature="0" /></g><g
           id="g620"
           transform="translate(361.1445,308.104)"><path
             d="m 0,0 c 0,0 7.528,-4.503 6.886,-13.505 l 5.465,-0.643 C 12.351,-14.148 10.154,2.896 0,0"
             style="fill:#e0a5db;fill-opacity:1;fill-rule:nonzero;stroke:none"
             id="path622"
             inkscape:connector-curvature="0" /></g><g
           id="g624"
           transform="translate(357.5264,296.2842)"><path
             d="m 0,0 c 0,0 -16.775,-0.86 -20.646,-9.033 -3.872,-8.173 -1.291,-52.907 6.881,-54.198 8.173,-1.29 37.854,-5.162 40.865,0.43 3.01,5.592 8.529,56.245 -4.806,60.116 C 11.959,0.316 0,0 0,0"
             style="fill:#004d72;fill-opacity:1;fill-rule:evenodd;stroke:none"
             id="path626"
             inkscape:connector-curvature="0" /></g><g
           id="g628"
           transform="translate(344.1924,293.2734)"><path
             d="M 0,0 C 0,0 15.915,9.463 37.853,0 59.79,-9.463 47.746,-36.563 31.831,-36.132 15.915,-35.702 8.173,-1.291 0,0"
             style="fill:#34d2ad;fill-opacity:1;fill-rule:evenodd;stroke:none"
             id="path630"
             inkscape:connector-curvature="0" /></g><g
           id="g632"
           transform="translate(377.9961,260.9482)"><path
             d="M 0,0 C 1.931,0 1.934,3 0,3 -1.93,3 -1.933,0 0,0"
             style="fill:#f4eaf3;fill-opacity:1;fill-rule:nonzero;stroke:none"
             id="path634"
             inkscape:connector-curvature="0" /></g><g
           id="g636"
           transform="translate(347.7754,239.2998)"><path
             d="M 0,0 C 0,0 5.144,35.044 -0.965,46.939 Z"
             style="fill:#003c5c;fill-opacity:1;fill-rule:nonzero;stroke:none"
             id="path638"
             inkscape:connector-curvature="0" /></g></g></g></g></svg>