<?xml version="1.0" encoding="utf-8" ?>
<svg xmlns="http://www.w3.org/2000/svg" xmlns:xlink="http://www.w3.org/1999/xlink" width="800" height="600">
	<rect fill="none" stroke="rgb(155,155,155)" stroke-width="2" stroke-miterlimit="4" stroke-opacity="0.39215687" width="800" height="600"/>
	<rect fill="rgb(255,255,255)" fill-opacity="0" stroke="none" width="800" height="600"/>
	<text fill="rgb(127,127,127)" stroke="none" font-size="14" font-family="Segoe UI" x="0" y="-7">
			daydream
	</text>
	<text fill="rgb(189,189,189)" stroke="none" font-size="14" font-family="Segoe UI" x="65.59082" y="-7">
			800×600
	</text>
	<defs>
		<clipPath id="clip_0">
			<rect width="800" height="600" clip-rule="evenodd"/>
		</clipPath>
	</defs>
	<g clip-path="url(#clip_0)">
		<path fill="rgb(146,148,151)" stroke="none" transform="translate(288.753 265.391)" d="M0 65.5608L0 0L20.0534 0C30.1255 0 38.1809 3.03831 44.2253 9.11201C50.2697 15.1857 53.2905 23.0742 53.2905 32.7804C53.2905 42.4866 50.2697 50.3751 44.2253 56.4488C38.1809 62.5254 30.1255 65.5608 20.0534 65.5608L0 65.5608ZM155.747 60.1592C159.96 64.7371 164.962 67.0261 170.763 67.0261C174.179 67.0261 177.247 66.2914 179.966 64.8279C182.68 63.3614 184.711 61.532 186.054 59.3337L186.42 59.3337L186.42 65.5596L194.479 65.5596L194.479 0.00175625L186.054 0.00175625L186.054 20.6933L186.42 26.9192L186.054 26.9192C184.711 24.7239 182.68 22.8915 179.966 21.428C177.247 19.9615 174.179 19.2298 170.763 19.2298C164.962 19.2298 159.96 21.5187 155.747 26.0967C151.535 30.6747 149.428 36.3503 149.428 43.1265C149.428 49.9027 151.535 55.5812 155.747 60.1592ZM20.0534 57.5025L8.42415 57.5025L8.42415 8.05826L20.0534 8.05826C27.62 8.05826 33.6176 10.2419 38.0433 14.6061C42.4691 18.9704 44.6819 25.0295 44.6819 32.7804C44.6819 40.5957 42.4691 46.6665 38.0433 51.0015C33.6176 55.3365 27.62 57.5025 20.0534 57.5025ZM251.087 67.0252C244.31 67.0252 238.802 64.7685 234.56 60.249C230.316 55.7325 228.197 50.0247 228.197 43.1285C228.197 36.5953 230.258 30.9811 234.376 26.2802C238.497 21.5793 243.76 19.2289 250.171 19.2289C256.824 19.2289 262.151 21.3979 266.149 25.7299C270.145 30.065 272.147 35.8635 272.147 43.1285L272.053 44.6828L236.621 44.6828C236.864 49.2022 238.374 52.7733 241.152 55.3959C243.93 58.0215 247.179 59.3329 250.902 59.3329C256.947 59.3329 261.036 56.7687 263.173 51.6434L270.681 54.7549C269.217 58.2352 266.805 61.1506 263.448 63.501C260.09 65.8485 255.969 67.0252 251.087 67.0252ZM78.2863 67.0261C72.4848 67.0261 67.4824 64.7371 63.2704 60.1592C59.0583 55.5812 56.9508 49.9027 56.9508 43.1265C56.9508 36.3503 59.0583 30.6747 63.2704 26.0967C67.4824 21.5187 72.4848 19.2298 78.2863 19.2298C81.7022 19.2298 84.7698 19.9615 87.4891 21.428C90.2025 22.8915 92.2339 24.7239 93.5774 26.9192L93.9433 26.9192L93.9433 20.6933L102.002 20.6933L102.002 65.5596L93.9433 65.5596L93.9433 59.3337L93.5774 59.3337C92.2339 61.532 90.2025 63.3614 87.4891 64.8279C84.7698 66.2914 81.7022 67.0261 78.2863 67.0261ZM327.86 65.5599L327.86 20.6936L335.918 20.6936L335.918 26.9195L336.284 26.9195C337.566 24.7857 339.533 22.9679 342.191 21.4722C344.846 19.9765 347.483 19.2301 350.108 19.2301C357.069 19.2301 361.796 22.0986 364.302 27.8357C367.964 22.0986 373.183 19.2301 379.959 19.2301C385.269 19.2301 389.267 20.9219 391.954 24.3115C394.638 27.6981 395.982 32.2936 395.982 38.0922L395.982 65.5599L387.558 65.5599L387.558 39.3742C387.558 34.8578 386.735 31.6526 385.087 29.7588C383.439 27.8679 380.934 26.9195 377.579 26.9195C374.283 26.9195 371.549 28.3245 369.383 31.1316C367.214 33.9416 366.134 37.1467 366.134 40.7471L366.134 65.5599L357.71 65.5599L357.71 39.3742C357.71 34.8578 356.885 31.6526 355.237 29.7588C353.589 27.8679 351.086 26.9195 347.729 26.9195C344.433 26.9195 341.699 28.3245 339.533 31.1316C337.367 33.9416 336.284 37.1467 336.284 40.7471L336.284 65.5599L327.86 65.5599ZM210.663 28.0177L210.663 20.6942L202.605 20.6942L202.605 65.5605L211.029 65.5605L211.029 41.0199C211.029 36.9336 212.325 33.7109 214.922 31.3605C217.515 29.013 220.826 27.8363 224.856 27.8363C225.954 27.8363 227.084 27.8977 228.243 28.0177L228.243 19.778C227.145 19.658 226.135 19.5965 225.222 19.5965C222.046 19.5965 219.131 20.3429 216.476 21.8387C213.821 23.3344 212.003 25.3951 211.029 28.0177L210.663 28.0177ZM150.391 20.6942L127.041 74.532C123.807 82.3474 118.954 86.2521 112.485 86.2521C110.345 86.2521 108.273 85.8247 106.259 84.97L108.364 77.6465C109.704 78.2553 111.08 78.5626 112.485 78.5626C114.071 78.5626 115.368 78.1353 116.375 77.2806C117.382 76.4229 118.374 74.9594 119.352 72.8841L124.021 62.7213L105.524 20.6942L114.68 20.6942L128.048 52.9243L128.233 52.9243L141.235 20.6942L150.391 20.6942ZM79.6591 59.3337C83.6253 59.3337 86.9973 57.8673 89.778 54.9373C92.5529 52.0072 93.9433 48.0703 93.9433 43.1265C93.9433 38.1826 92.5529 34.2457 89.778 31.3157C86.9973 28.3857 83.6253 26.9192 79.6591 26.9192C75.7514 26.9192 72.3941 28.4003 69.587 31.3625C66.7799 34.3218 65.3749 38.2441 65.3749 43.1265C65.3749 48.0118 66.7799 51.9341 69.587 54.8933C72.3941 57.8556 75.7514 59.3337 79.6591 59.3337ZM182.255 54.9373C179.474 57.8673 176.102 59.3337 172.136 59.3337C168.229 59.3337 164.871 57.8556 162.064 54.8933C159.257 51.9341 157.852 48.0118 157.852 43.1265C157.852 38.2441 159.257 34.3218 162.064 31.3625C164.871 28.4003 168.229 26.9192 172.136 26.9192C176.102 26.9192 179.474 28.3857 182.255 31.3157C185.03 34.2457 186.42 38.1826 186.42 43.1265C186.42 48.0703 185.03 52.0072 182.255 54.9373ZM259.648 30.3986C261.814 32.7198 262.988 35.161 263.173 37.7251L237.168 37.7251C238.023 34.4292 239.595 31.8036 241.884 29.8513C244.173 27.8989 246.875 26.9213 249.989 26.9213C254.26 26.9213 257.479 28.0804 259.648 30.3986ZM296.776 67.0261C290.974 67.0261 285.972 64.7371 281.76 60.1592C277.548 55.5812 275.44 49.9027 275.44 43.1265C275.44 36.3503 277.548 30.6747 281.76 26.0967C285.972 21.5187 290.974 19.2298 296.776 19.2298C300.191 19.2298 303.259 19.9615 305.978 21.428C308.692 22.8915 310.723 24.7239 312.067 26.9192L312.432 26.9192L312.432 20.6933L320.491 20.6933L320.491 65.5596L312.432 65.5596L312.432 59.3337L312.067 59.3337C310.723 61.532 308.692 63.3614 305.978 64.8279C303.259 66.2914 300.191 67.0261 296.776 67.0261M298.148 59.3337C302.115 59.3337 305.487 57.8673 308.267 54.9373C311.042 52.0072 312.432 48.0703 312.432 43.1265C312.432 38.1826 311.042 34.2457 308.267 31.3157C305.487 28.3857 302.115 26.9192 298.148 26.9192C294.241 26.9192 290.883 28.4003 288.076 31.3625C285.269 34.3218 283.864 38.2441 283.864 43.1265C283.864 48.0118 285.269 51.9341 288.076 54.8933C290.883 57.8556 294.241 59.3337 298.148 59.3337" fill-rule="evenodd"/>
	</g>
	<defs>
		<clipPath id="clip_1">
			<rect width="800" height="600" clip-rule="evenodd"/>
		</clipPath>
	</defs>
	<g clip-path="url(#clip_1)">
		<path fill="rgb(255,255,255)" stroke="none" transform="translate(125.635 234.699)" d="M88.4832 24.9184L88.6402 24.8026C85.3366 4.2454 64.7736 -3.31381 51.8242 1.31119C44.6043 3.88982 38.6445 10.7052 39.5752 20.6216C41.7419 21.4485 44.1708 22.6563 46.6753 24.2375C44.8341 23.0938 42.8953 22.0634 40.8637 21.1583C40.4949 20.9914 39.9621 20.7768 39.5903 20.6276L42.74 50.874L42.7342 50.8738L39.5775 20.6402C20.1226 13.2225 2.85034 26.9025 0.38097 40.4295C-0.995809 47.9715 2.12607 56.6549 11.1793 60.8071C11.4211 60.6129 11.6713 60.4181 11.9298 60.223C11.6718 60.4198 11.3958 60.638 11.1806 60.809L38.9319 73.1989L38.9313 73.1997L11.1826 60.8184C-4.96873 73.958 -1.68344 95.8626 8.79665 104.765C14.6349 109.724 23.6172 111.076 31.7344 105.329C31.7353 105.335 31.7362 105.341 31.7371 105.347L31.7382 105.346C35.0489 125.893 55.51 134.188 68.4564 129.564C75.6763 126.986 81.5463 119.883 80.6156 109.967L80.6099 109.965L77.6133 79.7907C79.5898 79.8843 81.5726 79.8573 83.5502 79.7081C81.6257 79.8579 79.6492 79.8931 77.6331 79.7927L80.6179 109.955C100.073 117.373 117.395 103.68 119.865 90.1532C121.24 82.6178 118.067 74.1336 109.032 69.9775L109.048 69.9649L109.071 69.9754C125.223 56.8358 121.985 34.9311 111.505 26.029C105.664 21.0671 96.7573 19.0581 88.6366 24.8167L88.636 24.8123L88.4832 24.9184ZM31.4975 103.266C31.3667 101.752 31.3082 100.246 31.3193 98.7531C31.2985 100.344 31.3624 101.857 31.4975 103.266ZM36.1885 78.0937C36.8872 76.6612 37.6557 75.263 38.4907 73.9037C37.6371 75.2805 36.8718 76.6811 36.1885 78.0937ZM88.7086 25.5941C88.7635 26.159 88.8146 26.7402 88.8591 27.3361C88.8351 27.0626 88.8088 26.7889 88.7801 26.5148C88.7566 26.3003 88.7337 25.9419 88.7086 25.5941ZM63.9762 42.9921L63.9789 42.9972L78.8474 32.0248L63.9762 42.9921ZM88.5422 38.4743Q88.5197 38.6201 88.4963 38.7661C88.7407 37.1681 88.9051 35.5491 88.9858 33.9133C88.9203 35.3978 88.7814 36.9243 88.5422 38.4743ZM58.458 34.5996C60.3495 36.916 62.0206 39.4016 63.458 42.022C62.0045 39.3115 60.3045 36.8361 58.458 34.5996ZM32.3768 51.501C35.4102 50.9854 38.4757 50.7645 41.5297 50.8321C38.4285 50.7066 35.3486 50.9644 32.3768 51.501ZM13.9311 58.8156C13.3729 59.1864 12.8199 59.5703 12.2727 59.9675C12.7952 59.5831 13.3488 59.1982 13.9311 58.8156ZM107.943 70.8037C105.009 72.9165 101.913 74.6509 98.714 76.0155C102.352 74.4872 105.486 72.6531 107.943 70.8037ZM61.1953 95.1818C59.3772 92.888 57.7339 90.376 56.3742 87.6639L56.3773 87.6616C57.753 90.3097 59.3635 92.8278 61.1953 95.1818ZM79.6592 109.581C78.3401 109.023 76.9431 108.329 75.5061 107.506C76.7925 108.229 78.1228 108.898 79.4954 109.509C79.55 109.533 79.6046 109.557 79.6592 109.581Z" fill-rule="evenodd"/>
	</g>
	<defs>
		<clipPath id="clip_2">
			<rect width="800" height="600" clip-rule="evenodd"/>
		</clipPath>
	</defs>
	<g clip-path="url(#clip_2)">
		<path fill="rgb(255,255,255)" fill-opacity="0.64705884" stroke="none" transform="translate(125.705 253.195)" d="M42.6671 32.3505L39.5076 2.09019C20.0527 -5.32746 2.78043 8.35247 0.31106 21.8795C-1.06572 29.4214 2.05616 38.1049 11.1093 42.2571C17.5619 37.0763 30.0321 31.4281 42.6671 32.3505Z"/>
	</g>
	<defs>
		<clipPath id="clip_3">
			<rect width="800" height="600" clip-rule="evenodd"/>
		</clipPath>
	</defs>
	<g clip-path="url(#clip_3)">
		<path fill="rgb(255,255,255)" fill-opacity="0.64705884" stroke="none" transform="matrix(0.5 -0.866025 0.866025 0.5 115.242 328.676)" d="M42.7029 32.3046L39.5506 2.0786C20.0958 -5.33905 2.7685 8.45836 0.299134 21.9854C-1.07765 29.5273 2.24881 37.9903 11.302 42.1425C17.7435 36.9409 29.4858 31.6441 42.7029 32.3046Z"/>
	</g>
	<defs>
		<clipPath id="clip_4">
			<rect width="800" height="600" clip-rule="evenodd"/>
		</clipPath>
	</defs>
	<g clip-path="url(#clip_4)">
		<path fill="rgb(255,255,255)" fill-opacity="0.64705884" stroke="none" transform="matrix(-0.5 -0.866025 0.866025 -0.5 175.377 375.366)" d="M42.6367 32.2723L39.6515 2.1006C20.1967 -5.31705 2.77485 8.25835 0.305478 21.7854C-1.0713 29.3273 2.14458 37.9621 11.1978 42.1143C17.5877 36.9414 29.8298 31.5163 42.6367 32.2723Z"/>
	</g>
	<defs>
		<clipPath id="clip_5">
			<rect width="800" height="600" clip-rule="evenodd"/>
		</clipPath>
	</defs>
	<g clip-path="url(#clip_5)">
		<path fill="rgb(255,255,255)" fill-opacity="0.64705884" stroke="none" transform="matrix(-1 -8.74228e-08 8.74228e-08 -1 245.807 346.689)" d="M42.5392 32.2515L39.5545 2.08893C20.0996 -5.32872 2.77697 8.36392 0.307601 21.891C-1.06918 29.4329 2.11059 37.9252 11.1638 42.0774C17.4199 36.9404 29.0991 31.5822 42.5392 32.2515Z"/>
	</g>
	<defs>
		<clipPath id="clip_6">
			<rect width="800" height="600" clip-rule="evenodd"/>
		</clipPath>
	</defs>
	<g clip-path="url(#clip_6)">
		<path fill="rgb(255,255,255)" fill-opacity="0.64705884" stroke="none" transform="matrix(-0.5 0.866025 -0.866025 -0.5 256.316 271.356)" d="M42.6017 32.2853L39.613 2.08268C20.1581 -5.33497 2.80678 8.42095 0.337407 21.948C-1.03937 29.4899 1.67583 38.2102 10.729 42.3623C13.8952 40.0593 17.8785 37.4447 22.5969 35.612C28.4353 33.3442 35.1626 31.9586 42.6017 32.2853Z"/>
	</g>
	<defs>
		<clipPath id="clip_7">
			<rect width="800" height="600" clip-rule="evenodd"/>
		</clipPath>
	</defs>
	<g clip-path="url(#clip_7)">
		<path fill="rgb(255,255,255)" fill-opacity="0.64705884" stroke="none" transform="matrix(0.5 0.866025 -0.866025 0.5 196.518 224.579)" d="M42.4976 32.5229L39.0757 2.05614C19.6208 -5.36151 2.79288 8.66697 0.323515 22.194C-1.05326 29.7359 1.86918 38.305 10.9224 42.4571C17.2231 37.3348 29.1746 31.7624 42.4976 32.5229Z"/>
	</g>
</svg>
