<svg id="ab398683-79ae-42aa-8342-363f843f88d7" data-name="Layer 1" xmlns="http://www.w3.org/2000/svg" width="991" height="723.71743" viewBox="0 0 991 723.71743"><title>augmented reality</title><path d="M1095.5,359.89653v147.654h-800V402.36068a418.24924,418.24924,0,0,1,78.15189-155.95781l558.37134-89.94094a422.273,422.273,0,0,1,48.059,36.64139L649.0865,319.36492l366.4388-91.08017a421.70316,421.70316,0,0,1,40.83546,53.73L981.576,337.93032l84.49789-39.99158a420.547,420.547,0,0,1,21.15608,41.67934Q1091.62228,349.6307,1095.5,359.89653Z" transform="translate(-104.5 -88.14129)" fill="#f2f2f2"/><path d="M886.32124,130.50025a418.54154,418.54154,0,0,0-184.07019-42.359c-129.814,0-245.87459,58.863-322.9623,151.34911C511.29415,210.56679,741.12607,160.49839,886.32124,130.50025Z" transform="translate(-104.5 -88.14129)" fill="#f2f2f2"/><path d="M1095.5,364.98517V620.63074H301.66033a12.365,12.365,0,0,1-6.16033-10.692V397.71088a58.08259,58.08259,0,0,1,58.09285-58.0928h716.54A25.36888,25.36888,0,0,1,1095.5,364.98517Z" transform="translate(-104.5 -88.14129)" fill="#2f2e41"/><path d="M1017.019,609.84646c0-10.162-5.1564-18.39988-11.51716-18.39988-3.99789,0-7.51893,3.25561-9.584,8.1966a5.77716,5.77716,0,0,0-2.201-.44165,6.90073,6.90073,0,0,0-5.15708,2.65617c-1.86151-6.16065-5.80883-10.41112-10.37768-10.41112-4.27185,0-7.99769,3.71855-9.986,9.23725a6.29153,6.29153,0,0,0-3.94176-1.4823c-4.88149,0-8.83875,6.3221-8.83875,14.12082a20.58011,20.58011,0,0,0,1.39253,7.60352h57.88813A26.17032,26.17032,0,0,0,1017.019,609.84646Z" transform="translate(-104.5 -88.14129)" fill="#3f3d56"/><path d="M430.5211,604.77263c0-14.545-5.1564-26.336-11.51716-26.336-3.99789,0-7.51893,4.65978-9.584,11.73188a4.31936,4.31936,0,0,0-2.201-.63213c-1.9253,0-3.7054,1.412-5.15708,3.80181-1.86151-8.81782-5.80883-14.90156-10.37768-14.90156-4.27185,0-7.99769,5.3224-9.986,13.22139a5.34832,5.34832,0,0,0-3.94175-2.12164c-4.88149,0-8.83875,9.0489-8.83875,20.21132a40.901,40.901,0,0,0,1.39253,10.883h57.88813A51.52361,51.52361,0,0,0,430.5211,604.77263Z" transform="translate(-104.5 -88.14129)" fill="#3f3d56"/><path d="M361.32278,461.981H367.23a10.15635,10.15635,0,0,1,10.12658,10.12658v64.135a17.7215,17.7215,0,0,0,17.7215,17.7215h0a17.7215,17.7215,0,0,0,17.7215-17.7215V380.96829a10.15635,10.15635,0,0,1,10.12658-10.12658h5.90717a10.15636,10.15636,0,0,1,10.12659,10.12658V536.24257a17.72149,17.72149,0,0,0,17.7215,17.7215h0a17.72149,17.72149,0,0,0,17.7215-17.7215V441.72779a10.15636,10.15636,0,0,1,10.12659-10.12659h5.90717a10.15635,10.15635,0,0,1,10.12658,10.12659v94.51478a17.7215,17.7215,0,0,0,17.7215,17.7215h0a17.7215,17.7215,0,0,0,17.7215-17.7215v-28.692A10.15635,10.15635,0,0,1,546.13291,497.424h5.90717a10.15636,10.15636,0,0,1,10.12659,10.12658v28.692a17.72149,17.72149,0,0,0,17.7215,17.7215h0a17.72149,17.72149,0,0,0,17.7215-17.7215v-100.422A10.15636,10.15636,0,0,1,607.73629,425.694h5.90717A10.15635,10.15635,0,0,1,623.77,435.82061v100.422a17.7215,17.7215,0,0,0,17.7215,17.7215h0a17.7215,17.7215,0,0,0,17.7215-17.7215V408.81639a10.15635,10.15635,0,0,1,10.12658-10.12658h5.90718a10.15635,10.15635,0,0,1,10.12658,10.12658V536.24257a17.72149,17.72149,0,0,0,17.7215,17.7215h0a17.7215,17.7215,0,0,0,17.72151-17.7215v-64.135A10.15635,10.15635,0,0,1,730.943,461.981h5.90717a10.15635,10.15635,0,0,1,10.12658,10.12658v64.135a17.7215,17.7215,0,0,0,17.7215,17.7215h0a17.7215,17.7215,0,0,0,17.7215-17.7215V441.72779a10.15635,10.15635,0,0,1,10.12658-10.12659h5.90718a10.15635,10.15635,0,0,1,10.12658,10.12659v94.51478a17.7215,17.7215,0,0,0,17.7215,17.7215h7.91013a18.30493,18.30493,0,0,0,12.83561-5.50484,10.07086,10.07086,0,0,1,7.10238-2.934H860.057a10.0709,10.0709,0,0,1,7.10239,2.934,18.30489,18.30489,0,0,0,12.8356,5.50484h7.91013a17.72149,17.72149,0,0,0,17.7215-17.7215v-9.28272a10.15635,10.15635,0,0,1,10.12658-10.12658h5.90718a10.15635,10.15635,0,0,1,10.12658,10.12658v9.28272a17.7215,17.7215,0,0,0,17.7215,17.7215h0a17.7215,17.7215,0,0,0,17.7215-17.7215v-100.422A10.15635,10.15635,0,0,1,977.35654,425.694h5.90717a10.15636,10.15636,0,0,1,10.12659,10.12658v100.422a17.72149,17.72149,0,0,0,17.7215,17.7215h0a17.72149,17.72149,0,0,0,17.7215-17.7215v-64.135a10.15636,10.15636,0,0,1,10.12659-10.12658h5.90717a10.101,10.101,0,0,1,7.59494,3.46185V367.61569a35.59255,35.59255,0,0,0-35.59255-35.59255H381.88825a30.69205,30.69205,0,0,0-30.69205,30.692V472.10753A10.15635,10.15635,0,0,1,361.32278,461.981Z" transform="translate(-104.5 -88.14129)" fill="#3f3d56"/><rect x="746.94898" y="262.8208" width="4.95761" height="195.82573" fill="#2f2e41"/><path d="M902.15824,375.92184c.27844,59.85659-36.49789,109.97469-45.7553,121.63715-1.34174,1.67931-2.10126,2.56543-2.10126,2.56543s-1.05485-1.19835-2.85232-3.45995c-9.6962-12.17721-41.038-55.24047-45.59491-108.19406-.03379-.37131-.06753-.74262-.09287-1.11393q-.43033-5.43042-.46412-10.9958a154.41851,154.41851,0,0,1,2.32912-27.13922c.076-.49791.16878-.98738.25315-1.48524,9.9578-54.72577,45.27428-95.57807,45.27428-95.57807a207.59164,207.59164,0,0,1,19.89031,28.32068c.15189.25315.30378.5063.44723.75951a231.74091,231.74091,0,0,1,12.211,23.60335c.135.2785.25316.557.37131.83544C894.884,325.61806,902.04008,349.81214,902.15824,375.92184Z" transform="translate(-104.5 -88.14129)" fill="#6c63ff"/><rect x="442.30763" y="225.69" width="4.95761" height="195.82573" fill="#2f2e41"/><path d="M597.51839,338.787c.31559,68.47538-47.86046,124.20886-47.86046,124.20886s-48.68773-55.28705-49.00332-123.76243S548.51507,215.0246,548.51507,215.0246,597.20279,270.31164,597.51839,338.787Z" transform="translate(-104.5 -88.14129)" fill="#6c63ff"/><path d="M463.58935,390.16082c-1.36846,2.18292-3.144,2.13158-4.74479,1.128s-2.4207-2.57927-1.05223-4.76219,6.00788-3.14285,6.00788-3.14285S464.95782,387.97791,463.58935,390.16082Z" transform="translate(-104.5 -88.14129)" opacity="0.1"/><path d="M787.64,416.32116c-1.36847,2.18292-3.144,2.13158-4.7448,1.128s-2.4207-2.57926-1.05223-4.76218,6.00789-3.14285,6.00789-3.14285S789.00845,414.13824,787.64,416.32116Z" transform="translate(-104.5 -88.14129)" opacity="0.1"/><path d="M610.07027,402.92044c.5759,2.5112-.71589,3.73039-2.55744,4.15271s-3.53551-.11212-4.11141-2.62333,2.02588-6.47055,2.02588-6.47055S609.49436,400.40923,610.07027,402.92044Z" transform="translate(-104.5 -88.14129)" opacity="0.1"/><path d="M899.52174,494.05968c.5759,2.5112-.71589,3.73039-2.55744,4.15271s-3.5355-.11212-4.11141-2.62333,2.02589-6.47055,2.02589-6.47055S898.94584,491.54847,899.52174,494.05968Z" transform="translate(-104.5 -88.14129)" opacity="0.1"/><path d="M585.65361,443.7101c.98982,4.31609-1.23041,6.41154-4.39554,7.1374s-6.07658-.19271-7.0664-4.5088,3.48195-11.12112,3.48195-11.12112S584.6638,439.394,585.65361,443.7101Z" transform="translate(-104.5 -88.14129)" opacity="0.1"/><path d="M708.59653,465.315c-2.0754,3.91166-5.12547,4.04367-7.994,2.5217s-4.46931-4.12155-2.39391-8.03321,9.90961-6.13214,9.90961-6.13214S710.67193,461.40338,708.59653,465.315Z" transform="translate(-104.5 -88.14129)" opacity="0.1"/><path d="M831.44281,509.9596c-.57679,4.3904-3.38821,5.58047-6.60784,5.15749s-5.62826-2.29884-5.05147-6.68924,7.14022-9.20981,7.14022-9.20981S832.0196,505.5692,831.44281,509.9596Z" transform="translate(-104.5 -88.14129)" opacity="0.1"/><rect x="482.2762" y="317.95487" width="120.25529" height="0.84389" transform="translate(-168.28324 397.87487) rotate(-45.87045)" fill="#3f3d56"/><rect x="490.71502" y="346.64685" width="120.25529" height="0.84389" transform="translate(-186.31439 412.64621) rotate(-45.87045)" fill="#3f3d56"/><path d="M873.49155,281.23834l-65.865,67.98312c.076-.49791.16878-.98738.25315-1.48524l65.16459-67.25739C873.19621,280.732,873.3481,280.98513,873.49155,281.23834Z" transform="translate(-104.5 -88.14129)" fill="#3f3d56"/><rect x="791.13696" y="371.96301" width="120.25529" height="0.84448" transform="translate(-113.0033 636.55257) rotate(-45.90938)" fill="#3f3d56"/><path d="M886.07385,305.67713l-80.2194,82.79328-1.18991,1.232-.60757-.59073,1.70461-1.75524,79.941-82.51479C885.83754,305.12019,885.9557,305.39868,886.07385,305.67713Z" transform="translate(-104.5 -88.14129)" fill="#3f3d56"/><path d="M542.40075,290.81039H531.8482V280.25784h10.55255Zm-9.74082-.81174H541.589v-8.92908h-8.92908Z" transform="translate(-104.5 -88.14129)" fill="#2f2e41"/><path d="M856.3248,430.89478H845.77225V420.34223H856.3248ZM846.584,430.083h8.92908V421.154H846.584Z" transform="translate(-104.5 -88.14129)" fill="#2f2e41"/><circle cx="318.49353" cy="96.42357" r="12.59086" fill="#6c63ff" opacity="0.4"/><circle cx="295.19104" cy="102.43712" r="8.83239" fill="#6c63ff" opacity="0.4"/><circle cx="867.60743" cy="64.1407" r="26.36954" fill="#6c63ff" opacity="0.4"/><circle cx="829.98574" cy="97.6816" r="18.49803" fill="#6c63ff" opacity="0.4"/><path d="M446.50279,564.00794l-.80149-.01565a185.88,185.88,0,0,1,2.84513-26.56412c3.4658-18.78719,9.22883-31.1257,17.129-36.6727l.46023.6559C447.68076,514.369,446.51218,563.51288,446.50279,564.00794Z" transform="translate(-104.5 -88.14129)" fill="#2f2e41"/><path d="M456.52137,563.81618l-.80148-.01566c.01722-.88758.51815-21.80607,8.75334-27.58788l.46023.6559C457.03052,542.41711,456.52529,563.60289,456.52137,563.81618Z" transform="translate(-104.5 -88.14129)" fill="#2f2e41"/><circle cx="366.19532" cy="409.33544" r="4.00743" fill="#6c63ff"/><circle cx="364.21078" cy="443.79936" r="4.00743" fill="#6c63ff"/><path d="M454.65342,503.88646a17.80066,17.80066,0,0,1-1.20981,9.11315,16.22241,16.22241,0,0,1-2.72736-17.4205A17.80062,17.80062,0,0,1,454.65342,503.88646Z" transform="translate(-104.5 -88.14129)" fill="#2f2e41"/><path d="M467.75258,515.56963a17.80059,17.80059,0,0,1-9.18455.39658,16.2224,16.2224,0,0,1,16.67881-5.721A17.80062,17.80062,0,0,1,467.75258,515.56963Z" transform="translate(-104.5 -88.14129)" fill="#2f2e41"/><path d="M467.90056,546.0907a12.47677,12.47677,0,0,1-6.43763.278,11.37062,11.37062,0,0,1,11.69049-4.01A12.47674,12.47674,0,0,1,467.90056,546.0907Z" transform="translate(-104.5 -88.14129)" fill="#2f2e41"/><polygon points="344 723.717 0 723.717 0 721.717 343 721.717 344 723.717" fill="#2f2e41"/><path d="M177.98548,781.92023s-6.03477,25.23633-.54861,26.33356,32.36833.74308,38.95172,1.84031,20.29878-.74308,20.29878-5.68062-14.264-8.22924-14.264-8.22924-20.29878-10.97232-20.8474-11.52093S177.98548,781.92023,177.98548,781.92023Z" transform="translate(-104.5 -88.14129)" fill="#2f2e41"/><path d="M182.923,633.24535s1.64585,18.65293,1.64585,20.29878-1.64585,27.43079,0,28.528-1.09723,8.77786-1.09723,11.52093-8.77785,48.27819-6.58339,65.8339-3.29169,15.90986-1.64585,17.55571,1.64585,1.64584,1.64585,4.93754S194.444,787.955,194.444,787.955l19.20155-121.24409-9.87508-36.20864Z" transform="translate(-104.5 -88.14129)" fill="#575a89"/><path d="M182.923,633.24535s1.64585,18.65293,1.64585,20.29878-1.64585,27.43079,0,28.528-1.09723,8.77786-1.09723,11.52093-8.77785,48.27819-6.58339,65.8339-3.29169,15.90986-1.64585,17.55571,1.64585,1.64584,1.64585,4.93754S194.444,787.955,194.444,787.955l19.20155-121.24409-9.87508-36.20864Z" transform="translate(-104.5 -88.14129)" opacity="0.1"/><path d="M185.6661,789.60085s-5.48615,19.75017,0,20.8474,32.36834-1.25692,38.95173-.15969,20.29878,1.25692,20.29878-3.68062-14.264-8.22924-14.264-8.22924-20.29879-10.97231-20.8474-11.52093S185.6661,789.60085,185.6661,789.60085Z" transform="translate(-104.5 -88.14129)" fill="#2f2e41"/><path d="M177.98548,611.30071s-6.58339,15.90986,1.09723,24.1391,16.45848,24.68771,16.45848,25.78494S180.18,771.49653,182.37441,778.62853s1.64585,11.52094,1.09723,12.61817,5.48616,7.132,12.06955,7.132,16.45847-4.93754,17.5557-9.32647-1.64584-42.24341-1.09723-49.37542,3.2917-17.5557,4.38893-19.75017,7.132-4.38892,8.22924-10.97231,9.87508-90.52161,7.132-93.26469S177.98548,611.30071,177.98548,611.30071Z" transform="translate(-104.5 -88.14129)" fill="#575a89"/><circle cx="115.18028" cy="378.32486" r="18.65294" fill="#ffb9b9"/><path d="M208.15935,475.79261s3.84031,20.29879,1.09723,22.49325S230.104,503.772,230.104,503.772s2.74308-26.88218,3.2917-29.62526S208.15935,475.79261,208.15935,475.79261Z" transform="translate(-104.5 -88.14129)" fill="#ffb9b9"/><path d="M233.39568,502.12617s-6.58339-19.20155-33.46557-13.7154c0,0-4.93754,1.64585-3.29169,3.2917s3.29169,1.64585,1.09723,3.29169-4.93754,0-3.29169,1.64585-14.81263,11.52093-13.7154,30.17387-3.84031,44.9865,0,49.37542-2.74308,23.59048-1.64585,27.43079-6.58339,8.77786-3.29169,10.4237,62.5422,11.52094,64.18805,0,.54861-3.29169,2.19446-6.03477,2.19446-7.68062,1.09723-13.7154-3.84031-20.8474-2.74308-26.33355,0-51.56989-3.29169-57.056S233.39568,502.12617,233.39568,502.12617Z" transform="translate(-104.5 -88.14129)" fill="#6c63ff"/><path d="M221.87475,635.98843s-8.22924,31.2711,2.19446,31.2711,9.87508-32.36834,9.87508-32.36834Z" transform="translate(-104.5 -88.14129)" fill="#ffb9b9"/><path d="M227.90952,466.46614c0,1.591-2.30416,2.60044-5.87565,2.83085h-.00549a29.89117,29.89117,0,0,1-4.54256-.08777c-2.28219-.20847-3.22586,1.9366-3.61543,4.76747-.63634,4.66873.25241,11.21371-.7735,12.23962-1.41547,1.41541-11.7349-.00549-14.96076-3.21488a2.981,2.981,0,0,1-.94909-1.72266,9.16645,9.16645,0,0,0-2.75407-5.1186c-1.90368-2.07924-4.61381-4.38343-7.66963-8.04818-5.48616-6.58339,0-7.132,1.64584-12.06955s4.38893-6.58339,4.38893-9.87508,12.61816-6.03478,23.04186-5.48616,8.22924,13.7154,8.22924,13.7154.61994,1.591,1.36056,3.64281a57.21627,57.21627,0,0,1,2.43582,7.911A3.98654,3.98654,0,0,1,227.90952,466.46614Z" transform="translate(-104.5 -88.14129)" fill="#2f2e41"/><polygon points="138.222 356.38 138.222 351.443 123.41 352.54 121.385 360.733 125.538 366.006 135.479 359.672 138.222 356.38" fill="#575a89"/><polygon points="138.222 356.38 138.222 351.443 123.41 352.54 121.385 360.733 125.538 366.006 135.479 359.672 138.222 356.38" opacity="0.1"/><path d="M251.5,454.94521l-9.87508,2.74308-9.87509,6.03477-3.88424,2.22738-5.83172,3.34655h-.00549l-8.158,4.6797-15.73426,9.02474a2.981,2.981,0,0,1-.94909-1.72266,9.16645,9.16645,0,0,0-2.75407-5.1186l30.9968-18.12076,2.47975-1.44835L242.72215,439.584Z" transform="translate(-104.5 -88.14129)" fill="#575a89"/><path d="M225.71506,510.35541s-18.65294-1.09723-20.29879,26.33356S204.319,589.9047,204.319,590.45331s7.68062,52.66712,14.81263,52.66712,12.61816-1.09723,14.264-3.84031-4.38893-42.24342-4.38893-42.24342-2.74308-41.6948,1.64585-54.86158S235.59014,512.00125,225.71506,510.35541Z" transform="translate(-104.5 -88.14129)" opacity="0.1"/><path d="M228.45814,507.61233s-18.65294-1.09723-20.29879,26.33356-1.09723,53.21573-1.09723,53.76434,7.68062,52.66712,14.81263,52.66712,12.61816-1.09723,14.264-3.84031-4.38893-42.24342-4.38893-42.24342-2.74308-41.6948,1.64585-54.86158S238.33322,509.25818,228.45814,507.61233Z" transform="translate(-104.5 -88.14129)" fill="#6c63ff"/></svg>