<?xml version="1.0" encoding="UTF-8" standalone="no"?>
<!-- Created with Inkscape (http://www.inkscape.org/) -->

<svg
   xmlns:dc="http://purl.org/dc/elements/1.1/"
   xmlns:cc="http://creativecommons.org/ns#"
   xmlns:rdf="http://www.w3.org/1999/02/22-rdf-syntax-ns#"
   xmlns:svg="http://www.w3.org/2000/svg"
   xmlns="http://www.w3.org/2000/svg"
   xmlns:sodipodi="http://sodipodi.sourceforge.net/DTD/sodipodi-0.dtd"
   xmlns:inkscape="http://www.inkscape.org/namespaces/inkscape"
   version="1.1"
   id="svg2"
   xml:space="preserve"
   width="666"
   height="666"
   viewBox="0 0 666 666"
   sodipodi:docname="android.svg"
   inkscape:version="0.92.3 (2405546, 2018-03-11)"><metadata
     id="metadata8"><rdf:RDF><cc:Work
         rdf:about=""><dc:format>image/svg+xml</dc:format><dc:type
           rdf:resource="http://purl.org/dc/dcmitype/StillImage" /><dc:title></dc:title></cc:Work></rdf:RDF></metadata><defs
     id="defs6"><clipPath
       clipPathUnits="userSpaceOnUse"
       id="clipPath20"><path
         d="M 0,500 H 500 V 0 H 0 Z"
         id="path18"
         inkscape:connector-curvature="0" /></clipPath><clipPath
       clipPathUnits="userSpaceOnUse"
       id="clipPath28"><path
         d="M 60.4547,383.347 H 171.939 V 350.814 H 60.4547 Z"
         id="path26"
         inkscape:connector-curvature="0" /></clipPath><clipPath
       clipPathUnits="userSpaceOnUse"
       id="clipPath44"><path
         d="m 367.062,323.202 h 91.966 v -24.171 h -91.966 z"
         id="path42"
         inkscape:connector-curvature="0" /></clipPath><clipPath
       clipPathUnits="userSpaceOnUse"
       id="clipPath60"><path
         d="m 217.449,457.657 h 91.966 V 430.82 h -91.966 z"
         id="path58"
         inkscape:connector-curvature="0" /></clipPath><clipPath
       clipPathUnits="userSpaceOnUse"
       id="clipPath148"><path
         d="M 0,500 H 500 V 0 H 0 Z"
         id="path146"
         inkscape:connector-curvature="0" /></clipPath><clipPath
       clipPathUnits="userSpaceOnUse"
       id="clipPath164"><path
         d="M 0,500 H 500 V 0 H 0 Z"
         id="path162"
         inkscape:connector-curvature="0" /></clipPath><clipPath
       clipPathUnits="userSpaceOnUse"
       id="clipPath172"><path
         d="m 221.857,329.104 h 29.358 v -4.561 h -29.358 z"
         id="path170"
         inkscape:connector-curvature="0" /></clipPath><clipPath
       clipPathUnits="userSpaceOnUse"
       id="clipPath192"><path
         d="M 0,500 H 500 V 0 H 0 Z"
         id="path190"
         inkscape:connector-curvature="0" /></clipPath><clipPath
       clipPathUnits="userSpaceOnUse"
       id="clipPath204"><path
         d="m 221.857,295.872 h 16.558 v -4.561 h -16.558 z"
         id="path202"
         inkscape:connector-curvature="0" /></clipPath><clipPath
       clipPathUnits="userSpaceOnUse"
       id="clipPath224"><path
         d="M 0,500 H 500 V 0 H 0 Z"
         id="path222"
         inkscape:connector-curvature="0" /></clipPath><clipPath
       clipPathUnits="userSpaceOnUse"
       id="clipPath236"><path
         d="m 221.857,260.784 h 7.899 v -4.561 h -7.899 z"
         id="path234"
         inkscape:connector-curvature="0" /></clipPath><clipPath
       clipPathUnits="userSpaceOnUse"
       id="clipPath256"><path
         d="M 0,500 H 500 V 0 H 0 Z"
         id="path254"
         inkscape:connector-curvature="0" /></clipPath><clipPath
       clipPathUnits="userSpaceOnUse"
       id="clipPath268"><path
         d="m 221.857,225.524 h 19.761 v -4.56 h -19.761 z"
         id="path266"
         inkscape:connector-curvature="0" /></clipPath><clipPath
       clipPathUnits="userSpaceOnUse"
       id="clipPath288"><path
         d="M 0,500 H 500 V 0 H 0 Z"
         id="path286"
         inkscape:connector-curvature="0" /></clipPath><clipPath
       clipPathUnits="userSpaceOnUse"
       id="clipPath304"><path
         d="M 190.759,82.7442 H 318.234 V 78.5279 H 190.759 Z"
         id="path302"
         inkscape:connector-curvature="0" /></clipPath><clipPath
       clipPathUnits="userSpaceOnUse"
       id="clipPath360"><path
         d="M 54.9715,98.0868 H 182.447 V 93.8705 H 54.9715 Z"
         id="path358"
         inkscape:connector-curvature="0" /></clipPath><clipPath
       clipPathUnits="userSpaceOnUse"
       id="clipPath468"><path
         d="m 134.521,298.408 h 3.748 v -1.768 h -3.748 z"
         id="path466"
         inkscape:connector-curvature="0" /></clipPath><clipPath
       clipPathUnits="userSpaceOnUse"
       id="clipPath484"><path
         d="m 146.543,299.246 h 3.748 v -1.768 h -3.748 z"
         id="path482"
         inkscape:connector-curvature="0" /></clipPath><clipPath
       clipPathUnits="userSpaceOnUse"
       id="clipPath524"><path
         d="M 0,500 H 500 V 0 H 0 Z"
         id="path522"
         inkscape:connector-curvature="0" /></clipPath></defs><sodipodi:namedview
     pagecolor="#ffffff"
     bordercolor="#666666"
     borderopacity="1"
     objecttolerance="10"
     gridtolerance="10"
     guidetolerance="10"
     inkscape:pageopacity="0"
     inkscape:pageshadow="2"
     inkscape:window-width="1600"
     inkscape:window-height="847"
     id="namedview4"
     showgrid="false"
     inkscape:pagecheckerboard="true"
     inkscape:zoom="0.68265104"
     inkscape:cx="255.83527"
     inkscape:cy="349.18323"
     inkscape:window-x="-8"
     inkscape:window-y="-8"
     inkscape:window-maximized="1"
     inkscape:current-layer="g10" /><g
     id="g10"
     inkscape:groupmode="layer"
     inkscape:label="493398-PHFWXU-195"
     transform="matrix(1.3333333,0,0,-1.3333333,0,665.99998)"><g
       id="g14"
       transform="translate(-7.2497438,-26.436104)"><g
         id="g16"
         clip-path="url(#clipPath20)"><g
           id="g22"><g
             id="g24" /><g
             id="g36"><g
               clip-path="url(#clipPath28)"
               id="g34"
               style="opacity:0.33000201"><g
                 transform="translate(60.4547,350.8137)"
                 id="g32"><path
                   d="M 0,0 111.484,0.348 83.046,6.152 c 0,0 1.161,31.921 -12.769,25.536 C 56.348,25.305 55.768,11.375 55.768,11.375 55.768,11.375 50.544,24.144 43,19.5 35.455,14.857 31.972,6.732 31.972,6.732 c 0,0 -2.708,9.187 -7.545,9.708 C 20.292,16.886 12.425,8.147 8.302,3.232 Z"
                   style="fill:#e5cbcb;fill-opacity:1;fill-rule:nonzero;stroke:none"
                   id="path30"
                   inkscape:connector-curvature="0" /></g></g></g></g><g
           id="g38"><g
             id="g40" /><g
             id="g52"><g
               clip-path="url(#clipPath44)"
               id="g50"
               style="opacity:0.33000201"><g
                 transform="translate(367.0621,299.0309)"
                 id="g48"><path
                   d="M 0,0 91.967,0.258 68.507,4.57 c 0,0 0.957,23.717 -10.533,18.973 C 46.483,18.8 46.005,8.451 46.005,8.451 c 0,0 -4.31,9.487 -10.533,6.037 -6.224,-3.449 -9.097,-9.486 -9.097,-9.486 0,0 -2.234,6.826 -6.224,7.213 C 16.739,12.545 10.25,6.053 6.849,2.401 Z"
                   style="fill:#e5cbcb;fill-opacity:1;fill-rule:nonzero;stroke:none"
                   id="path46"
                   inkscape:connector-curvature="0" /></g></g></g></g><g
           id="g54"><g
             id="g56" /><g
             id="g68"><g
               clip-path="url(#clipPath60)"
               id="g66"
               style="opacity:0.33000201"><g
                 transform="translate(217.4494,430.82)"
                 id="g64"><path
                   d="m 0,0 91.966,0.287 -23.46,4.788 c 0,0 0.958,26.332 -10.533,21.066 C 46.483,20.874 46.004,9.383 46.004,9.383 c 0,0 -4.308,10.534 -10.533,6.703 -6.223,-3.83 -9.096,-10.533 -9.096,-10.533 0,0 -2.234,7.579 -6.224,8.009 C 16.739,13.929 10.25,6.721 6.849,2.666 Z"
                   style="fill:#e5cbcb;fill-opacity:1;fill-rule:nonzero;stroke:none"
                   id="path62"
                   inkscape:connector-curvature="0" /></g></g></g></g><g
           id="g70"
           transform="translate(365.9567,385.529)"><path
             d="m 0,0 5.04,-14.519 c 0.213,-0.614 -0.151,-1.244 -0.772,-1.459 l -6.952,-2.413 c -0.531,-0.185 -1.213,0.081 -1.427,0.695 l -5.04,14.519 c -5.393,0.194 -10.414,3.591 -12.31,9.053 -2.438,7.023 1.292,14.729 8.338,17.175 C -6.082,25.495 1.619,21.758 4.058,14.735 5.954,9.273 4.117,3.496 0,0 m -41.981,51.821 c -3.066,8.831 1.616,18.511 10.447,21.576 8.825,3.064 18.502,-1.63 21.568,-10.462 L -6.934,54.198 -38.948,43.084 Z M 13.272,61.212 6.278,58.784 3.245,67.521 C -2.349,83.636 -20.018,92.193 -36.119,86.604 -52.228,81.012 -60.774,63.354 -55.181,47.239 l 3.034,-8.737 -7.017,-2.436 c -5.456,-1.894 -8.388,-7.932 -6.491,-13.395 l 19.737,-56.854 c 1.925,-5.545 7.971,-8.48 13.427,-6.586 l 72.436,25.147 c 5.545,1.925 8.478,7.977 6.553,13.521 L 26.761,54.754 c -1.897,5.462 -7.945,8.383 -13.489,6.458"
             style="fill:#b7afef;fill-opacity:1;fill-rule:nonzero;stroke:none"
             id="path72"
             inkscape:connector-curvature="0" /></g><g
           id="g74"
           transform="translate(331.317,165.8688)"><path
             d="m 0,0 c -1.721,3.354 2.309,6.945 6.02,7.608 3.71,0.663 7.915,0.156 10.87,2.496 3.945,3.125 3.743,9.941 8.115,12.435 3.509,2.003 8.154,0.092 11.872,1.675 4.618,1.966 5.917,8.4 10.448,10.56 3.612,1.722 8.335,-0.224 10.179,-3.775 1.844,-3.552 0.995,-8.142 -1.561,-11.22 -1.999,-2.407 -4.959,-4.095 -6.201,-6.967 -1.944,-4.498 1.125,-9.948 -0.665,-14.509 -3.305,-8.425 -18.92,-5.889 -21.633,-14.523 -0.603,-1.922 -0.349,-3.994 -0.507,-6.003 -0.467,-5.974 -4.679,-11.194 -9.882,-14.17 -5.202,-2.976 -11.288,-4.008 -17.267,-4.426 -2.442,-0.171 -5.017,-0.222 -7.195,0.898 -2.049,1.055 -3.475,3.017 -4.588,5.034 C -19.175,-21.86 -22.135,-4.885 0,0"
             style="fill:#49bb9a;fill-opacity:1;fill-rule:nonzero;stroke:none"
             id="path76"
             inkscape:connector-curvature="0" /></g><g
           id="g78"
           transform="translate(216.1544,172.7927)"><path
             d="m 0,0 c 3.861,2.551 1.714,8.819 -1.856,11.764 -3.571,2.944 -8.373,4.932 -10.124,9.215 -2.338,5.719 1.982,12.887 -1.192,18.188 -2.547,4.255 -8.667,5.01 -11.69,8.94 -3.756,4.885 -1.271,12.55 -4.816,17.589 -2.826,4.018 -9.051,4.78 -13.161,2.092 -4.111,-2.688 -5.968,-8.109 -5.088,-12.941 0.688,-3.78 2.838,-7.367 2.437,-11.187 -0.628,-5.981 -7.194,-9.964 -8.027,-15.92 -1.539,-11.002 16.692,-17.693 14.393,-28.562 -0.511,-2.419 -2.031,-4.483 -3.072,-6.726 -3.098,-6.673 -1.736,-14.793 2.036,-21.108 3.773,-6.317 9.661,-11.086 15.804,-15.134 2.51,-1.654 5.234,-3.259 8.238,-3.372 2.827,-0.106 5.533,1.134 7.939,2.622 C 7.345,-34.931 20.734,-18.556 0,0"
             style="fill:#ffab26;fill-opacity:1;fill-rule:nonzero;stroke:none"
             id="path80"
             inkscape:connector-curvature="0" /></g><g
           id="g82"
           transform="translate(317.4498,158.9968)"><path
             d="m 0,0 c 5.399,2.329 10.262,6.637 14.293,10.798 10.873,11.223 17.613,25.88 21.159,40.967 3.208,13.653 3.924,27.77 3.253,41.744 -0.057,1.182 -1.903,1.189 -1.847,0 C 38.365,62.116 32.132,23.593 4.037,4.485 2.467,3.418 0.818,2.35 -0.933,1.595 -2.021,1.125 -1.081,-0.466 0,0"
             style="fill:#fc816d;fill-opacity:1;fill-rule:nonzero;stroke:none"
             id="path84"
             inkscape:connector-curvature="0" /></g><g
           id="g86"
           transform="translate(353.1559,216.0446)"><path
             d="M 0,0 C 0,0 1.779,10.169 15.253,11.779 15.253,11.779 10.338,-0.256 0,0"
             style="fill:#fc816d;fill-opacity:1;fill-rule:nonzero;stroke:none"
             id="path88"
             inkscape:connector-curvature="0" /></g><g
           id="g90"
           transform="translate(348.7389,201.0134)"><path
             d="M 0,0 C 0,0 4.104,9.473 17.582,7.893 17.582,7.893 9.993,-2.662 0,0"
             style="fill:#fc816d;fill-opacity:1;fill-rule:nonzero;stroke:none"
             id="path92"
             inkscape:connector-curvature="0" /></g><g
           id="g94"
           transform="translate(343.0153,187.7643)"><path
             d="M 0,0 C 0,0 6.123,8.313 18.903,3.753 18.903,3.753 9.143,-4.833 0,0"
             style="fill:#fc816d;fill-opacity:1;fill-rule:nonzero;stroke:none"
             id="path96"
             inkscape:connector-curvature="0" /></g><g
           id="g98"
           transform="translate(355.2252,231.8356)"><path
             d="M 0,0 C 0,0 1.749,9.997 14.994,11.58 14.994,11.58 10.163,-0.251 0,0"
             style="fill:#fc816d;fill-opacity:1;fill-rule:nonzero;stroke:none"
             id="path100"
             inkscape:connector-curvature="0" /></g><g
           id="g102"
           transform="translate(355.4049,249.2087)"><path
             d="M 0,0 C 0,0 -7.541,6.792 -1.848,18.855 -1.848,18.855 5.61,8.478 0,0"
             style="fill:#fc816d;fill-opacity:1;fill-rule:nonzero;stroke:none"
             id="path104"
             inkscape:connector-curvature="0" /></g><g
           id="g106"
           transform="translate(355.4508,238.904)"><path
             d="M 0,0 C 0,0 -9.98,1.843 -11.44,15.102 -11.44,15.102 0.346,10.16 0,0"
             style="fill:#fc816d;fill-opacity:1;fill-rule:nonzero;stroke:none"
             id="path108"
             inkscape:connector-curvature="0" /></g><g
           id="g110"
           transform="translate(354.4557,223.6735)"><path
             d="M 0,0 C 0,0 -9.98,1.842 -11.44,15.101 -11.44,15.101 0.346,10.159 0,0"
             style="fill:#fc816d;fill-opacity:1;fill-rule:nonzero;stroke:none"
             id="path112"
             inkscape:connector-curvature="0" /></g><g
           id="g114"
           transform="translate(351.8639,209.4079)"><path
             d="M 0,0 C 0,0 -9.826,2.537 -10.354,15.866 -10.354,15.866 1.058,10.111 0,0"
             style="fill:#fc816d;fill-opacity:1;fill-rule:nonzero;stroke:none"
             id="path116"
             inkscape:connector-curvature="0" /></g><g
           id="g118"
           transform="translate(347.3356,195.1569)"><path
             d="M 0,0 C 0,0 -9.826,2.537 -10.354,15.866 -10.354,15.866 1.058,10.11 0,0"
             style="fill:#fc816d;fill-opacity:1;fill-rule:nonzero;stroke:none"
             id="path120"
             inkscape:connector-curvature="0" /></g><g
           id="g122"
           transform="translate(319.1647,123.2175)"><path
             d="m 0,0 h -101.125 c -11.679,0 -21.147,9.468 -21.147,21.147 v 238.927 c 0,11.679 9.468,21.148 21.147,21.148 H 0 c 11.679,0 21.147,-9.469 21.147,-21.148 V 21.147 C 21.147,9.468 11.679,0 0,0"
             style="fill:#6d55b1;fill-opacity:1;fill-rule:nonzero;stroke:none"
             id="path124"
             inkscape:connector-curvature="0" /></g><g
           id="g126"
           transform="translate(318.8805,133.1569)"><path
             d="m 0,0 h -100.557 c -8.18,0 -14.811,6.631 -14.811,14.811 v 233.391 c 0,8.18 6.631,14.811 14.811,14.811 H 0 c 8.18,0 14.811,-6.631 14.811,-14.811 V 14.811 C 14.811,6.631 8.18,0 0,0"
             style="fill:#f1ecec;fill-opacity:1;fill-rule:nonzero;stroke:none"
             id="path128"
             inkscape:connector-curvature="0" /></g><g
           id="g130"
           transform="translate(307.5553,396.1701)"><path
             d="m 0,0 h -8.466 c -2.597,0 -4.703,-2.106 -4.703,-4.704 v -3.361 c 0,-2.598 -2.106,-4.703 -4.704,-4.703 h -37.753 c -2.598,0 -4.703,2.105 -4.703,4.703 v 3.361 c 0,2.598 -2.106,4.704 -4.704,4.704 H -89.072 V 2.413 H 0 Z"
             style="fill:#6d55b1;fill-opacity:1;fill-rule:nonzero;stroke:none"
             id="path132"
             inkscape:connector-curvature="0" /></g><g
           id="g134"
           transform="translate(272.2194,355.6354)"><path
             d="m 0,0 c 0.553,0.295 0.933,0.871 0.933,1.54 0,0.969 -0.785,1.753 -1.752,1.753 -0.969,0 -1.754,-0.784 -1.754,-1.753 0,-0.669 0.382,-1.245 0.933,-1.54 -1.106,-0.35 -1.914,-1.389 -1.914,-2.607 v -1.379 h 5.469 v 1.379 C 1.915,-1.389 1.106,-0.35 0,0"
             style="fill:#34336c;fill-opacity:1;fill-rule:nonzero;stroke:none"
             id="path136"
             inkscape:connector-curvature="0" /></g></g></g><text
       transform="scale(1,-1)"
       style="font-variant:normal;font-weight:normal;font-stretch:normal;font-size:6.02680016px;font-family:Montserrat;-inkscape-font-specification:Montserrat-Regular;writing-mode:lr-tb;fill:#34336c;fill-opacity:1;fill-rule:nonzero;stroke:none"
       id="text140"
       x="240.81906"
       y="-315.52631"><tspan
         x="240.81906 245.15233 247.49072 251.04051 254.59631 256.92868 260.56888 262.14789 266.439 269.77783 273.11667 276.89548 280.95151 285.03165"
         y="-315.52631"
         sodipodi:role="line"
         id="tspan138">Create Account</tspan></text>
<g
       id="g142"
       transform="translate(-7.2497438,-26.436104)"><g
         id="g144"
         clip-path="url(#clipPath148)"><g
           id="g150"
           transform="translate(294.0309,171.7311)"><path
             d="m 0,0 h -52.212 c -0.54,0 -0.979,0.437 -0.979,0.979 v 10.205 c 0,0.541 0.439,0.978 0.979,0.978 H 0 c 0.54,0 0.979,-0.437 0.979,-0.978 V 0.979 C 0.979,0.437 0.54,0 0,0"
             style="fill:#bd3d61;fill-opacity:1;fill-rule:nonzero;stroke:none"
             id="path152"
             inkscape:connector-curvature="0" /></g></g></g><text
       transform="scale(1,-1)"
       style="font-variant:normal;font-weight:normal;font-stretch:normal;font-size:4.48929977px;font-family:Montserrat;-inkscape-font-specification:Montserrat-Regular;writing-mode:lr-tb;fill:#f3f4e9;fill-opacity:1;fill-rule:nonzero;stroke:none"
       id="text156"
       x="251.32886"
       y="-150.05611"><tspan
         x="251.32886 254.57462 257.28616 260.36581 261.57343 263.76871 265.50607 268.21759"
         y="-150.05611"
         sodipodi:role="line"
         id="tspan154">Register</tspan></text>
<g
       id="g158"
       transform="translate(-7.2497438,-26.436104)"><g
         id="g160"
         clip-path="url(#clipPath164)"><g
           id="g166"><g
             id="g168" /><g
             id="g180"><g
               clip-path="url(#clipPath172)"
               id="g178"
               style="opacity:0.57000703"><text
                 transform="matrix(1,0,0,-1,221.8569,325.6177)"
                 style="font-variant:normal;font-weight:normal;font-stretch:normal;font-size:4.10150003px;font-family:Montserrat;-inkscape-font-specification:Montserrat-Regular;writing-mode:lr-tb;fill:#34336c;fill-opacity:1;fill-rule:nonzero;stroke:none"
                 id="text176"><tspan
                   x="0 2.7439034 7.0955949 9.51548 10.618784 11.722087 12.79668 15.716537 18.497355 21.278172 22.869965 25.347269 27.352903"
                   y="0"
                   sodipodi:role="line"
                   id="tspan174">Email Address</tspan></text>
</g></g></g></g></g><g
       id="g186"
       transform="translate(-7.2497438,-26.436104)"><g
         id="g188"
         clip-path="url(#clipPath192)"><g
           id="g194"
           transform="translate(318.1823,306.2297)"><path
             d="m 0,0 h -93.566 c -1.524,0 -2.759,1.235 -2.759,2.759 v 9.412 c 0,1.523 1.235,2.759 2.759,2.759 L 0,14.93 c 1.524,0 2.759,-1.236 2.759,-2.759 V 2.759 C 2.759,1.235 1.524,0 0,0 Z"
             style="fill:none;stroke:#34336c;stroke-width:0.5;stroke-linecap:butt;stroke-linejoin:miter;stroke-miterlimit:10;stroke-dasharray:none;stroke-opacity:1"
             id="path196"
             inkscape:connector-curvature="0" /></g><g
           id="g198"><g
             id="g200" /><g
             id="g212"><g
               clip-path="url(#clipPath204)"
               id="g210"
               style="opacity:0.52000397"><text
                 transform="matrix(1,0,0,-1,221.8569,292.3857)"
                 style="font-variant:normal;font-weight:normal;font-stretch:normal;font-size:4.10150003px;font-family:Montserrat;-inkscape-font-specification:Montserrat-Regular;writing-mode:lr-tb;fill:#34336c;fill-opacity:1;fill-rule:nonzero;stroke:none"
                 id="text208"><tspan
                   x="0 2.8546441 5.4262843 8.186594 10.963309 12.628518 14.334332"
                   y="0"
                   sodipodi:role="line"
                   id="tspan206">Country</tspan></text>
</g></g></g></g></g><g
       id="g218"
       transform="translate(-7.2497438,-26.436104)"><g
         id="g220"
         clip-path="url(#clipPath224)"><g
           id="g226"
           transform="translate(318.1823,272.8688)"><path
             d="m 0,0 h -93.566 c -1.524,0 -2.759,1.235 -2.759,2.759 v 9.412 c 0,1.524 1.235,2.759 2.759,2.759 L 0,14.93 c 1.524,0 2.759,-1.235 2.759,-2.759 V 2.759 C 2.759,1.235 1.524,0 0,0 Z"
             style="fill:none;stroke:#34336c;stroke-width:0.5;stroke-linecap:butt;stroke-linejoin:miter;stroke-miterlimit:10;stroke-dasharray:none;stroke-opacity:1"
             id="path228"
             inkscape:connector-curvature="0" /></g><g
           id="g230"><g
             id="g232" /><g
             id="g244"><g
               clip-path="url(#clipPath236)"
               id="g242"
               style="opacity:0.52000397"><text
                 transform="matrix(1,0,0,-1,221.8569,257.2979)"
                 style="font-variant:normal;font-weight:normal;font-stretch:normal;font-size:4.10150003px;font-family:Montserrat;-inkscape-font-specification:Montserrat-Regular;writing-mode:lr-tb;fill:#34336c;fill-opacity:1;fill-rule:nonzero;stroke:none"
                 id="text240"><tspan
                   x="0 2.9489784 4.0522819 5.6772962"
                   y="0"
                   sodipodi:role="line"
                   id="tspan238">City</tspan></text>
</g></g></g></g></g><g
       id="g250"
       transform="translate(-7.2497438,-26.436104)"><g
         id="g252"
         clip-path="url(#clipPath256)"><g
           id="g258"
           transform="translate(318.1823,237.78)"><path
             d="m 0,0 h -93.566 c -1.524,0 -2.759,1.234 -2.759,2.759 v 9.411 c 0,1.524 1.235,2.759 2.759,2.759 H 0 c 1.524,0 2.759,-1.235 2.759,-2.759 V 2.759 C 2.759,1.234 1.524,0 0,0 Z"
             style="fill:none;stroke:#34336c;stroke-width:0.5;stroke-linecap:butt;stroke-linejoin:miter;stroke-miterlimit:10;stroke-dasharray:none;stroke-opacity:1"
             id="path260"
             inkscape:connector-curvature="0" /></g><g
           id="g262"><g
             id="g264" /><g
             id="g276"><g
               clip-path="url(#clipPath268)"
               id="g274"
               style="opacity:0.52000397"><text
                 transform="matrix(1,0,0,-1,221.8569,222.0381)"
                 style="font-variant:normal;font-weight:normal;font-stretch:normal;font-size:4.10150003px;font-family:Montserrat;-inkscape-font-specification:Montserrat-Regular;writing-mode:lr-tb;fill:#34336c;fill-opacity:1;fill-rule:nonzero;stroke:none"
                 id="text272"><tspan
                   x="0 2.8837647 5.3036494 7.3092833 9.274312 12.818418 15.390059 16.98185"
                   y="0"
                   sodipodi:role="line"
                   id="tspan270">Password</tspan></text>
</g></g></g></g></g><g
       id="g290"
       transform="translate(310.93256,176.0851)"><path
         d="m 0,0 h -93.566 c -1.524,0 -2.759,1.235 -2.759,2.759 v 9.412 c 0,1.523 1.235,2.759 2.759,2.759 L 0,14.93 c 1.524,0 2.759,-1.236 2.759,-2.759 V 2.759 C 2.759,1.235 1.524,0 0,0 Z"
         style="fill:none;stroke:#34336c;stroke-width:0.5;stroke-linecap:butt;stroke-linejoin:miter;stroke-miterlimit:10;stroke-dasharray:none;stroke-opacity:1"
         id="path292"
         inkscape:connector-curvature="0" /></g><g
       id="g298"
       transform="translate(-7.2497438,-26.436104)"><g
         id="g300" /><g
         id="g312"><g
           clip-path="url(#clipPath304)"
           id="g310"
           style="opacity:0.25"><g
             transform="translate(318.234,80.6364)"
             id="g308"><path
               d="m 0,0 c 0,1.164 -28.536,2.107 -63.737,2.107 -35.202,0 -63.738,-0.943 -63.738,-2.107 0,-1.165 28.536,-2.108 63.738,-2.108 C -28.536,-2.108 0,-1.165 0,0"
               style="fill:#6d55b1;fill-opacity:1;fill-rule:nonzero;stroke:none"
               id="path306"
               inkscape:connector-curvature="0" /></g></g></g></g><g
       id="g314"
       transform="translate(253.97836,189.0597)"><path
         d="m 0,0 c 0,0 6.334,-9.78 7.768,-5.542 1.434,4.238 2.311,6.832 2.311,6.832 0,0 -1.799,2.949 -2.751,2.042 C 6.332,2.383 5.04,4.107 5.04,4.107 Z"
         style="fill:#ffbb9a;fill-opacity:1;fill-rule:nonzero;stroke:none"
         id="path316"
         inkscape:connector-curvature="0" /></g><g
       id="g318"
       transform="translate(285.28406,239.6407)"><path
         d="m 0,0 2.617,15.197 c 1.718,0.554 3.486,1.881 2.88,3.935 -0.303,1.025 -1.105,1.569 -2.052,1.926 -0.356,0.135 -2.185,0.66 -2.313,-0.045 0.002,0.01 0.996,5.477 0.996,5.477 l -17.823,8.601 c 0,0 -1.624,-10.908 -1.644,-11.035 0.026,0.17 -1.732,0.564 -1.97,0.539 -0.895,-0.095 -1.767,-0.93 -2.119,-1.714 -0.927,-2.068 0.867,-4.682 3.107,-4.717 0,0 0.305,-4.894 1.44,-6.63 1.135,-1.736 6.375,-2.936 6.375,-2.936 l -0.575,-6.616 z"
         style="fill:#ffbb9a;fill-opacity:1;fill-rule:nonzero;stroke:none"
         id="path320"
         inkscape:connector-curvature="0" /></g><g
       id="g322"
       transform="translate(291.30356,238.3951)"><path
         d="m 0,0 c -8.054,2.26 -19.365,4.249 -19.365,4.249 l -7.504,-53.442 31.613,0.976 z"
         style="fill:#ffab26;fill-opacity:1;fill-rule:nonzero;stroke:none"
         id="path324"
         inkscape:connector-curvature="0" /></g><g
       id="g326"
       transform="translate(291.30356,238.3951)"><path
         d="m 0,0 c 10.516,-2.755 20.897,-4.835 31.711,-5.955 -2.408,10.953 -3.726,19.327 -6.873,28.631 3.005,0.761 8.868,2.26 11.873,3.02 0,0 9.956,-34.687 6.935,-39.312 -5.143,-7.87 -30.757,-2.688 -30.757,-2.688 l -12.117,2.159 z"
         style="fill:#ffab26;fill-opacity:1;fill-rule:nonzero;stroke:none"
         id="path328"
         inkscape:connector-curvature="0" /></g><g
       id="g330"
       transform="translate(237.16106,226.6295)"><path
         d="m 0,0 c 0,0 33.935,16.6 35.494,15.988 1.56,-0.612 2.885,-8.306 2.885,-8.306 0,0 -12.302,-7.826 -31.324,-16.669 l 17.302,-23.551 -8.62,-6.182 c 0,0 -23.758,26.702 -22.854,32.22 C -6.42,-2.241 0,0 0,0"
         style="fill:#ffab26;fill-opacity:1;fill-rule:nonzero;stroke:none"
         id="path332"
         inkscape:connector-curvature="0" /></g><g
       id="g334"
       transform="translate(327.50286,263.9615)"><path
         d="m 0,0 c 0,0 -1.404,9.817 -1.572,10.097 -0.168,0.28 -0.168,2.013 -2.69,1.595 0,0 -0.168,3.111 -1.624,3.167 -1.457,0.056 -3.081,-0.336 -3.081,-0.336 0,0 -1.639,7.976 -2.704,9.358 -1.162,1.51 -2.786,-2.467 -0.266,-12.189 0,0 1.397,-6.612 0.981,-6.855 -1.128,-0.657 -2.678,-0.538 -4.824,3.131 -2.279,3.897 -5.119,2.577 -3.719,-0.447 1.4,-3.026 3.386,-6.939 4.674,-8.004 1.288,-1.064 4.01,-0.904 4.01,-0.904 l 0.399,-1.264 z"
         style="fill:#ffbb9a;fill-opacity:1;fill-rule:nonzero;stroke:none"
         id="path336"
         inkscape:connector-curvature="0" /></g><g
       id="g338"
       transform="translate(296.04776,190.1779)"><path
         d="m 0,0 c -3.808,-57.831 -16.735,-129.203 -16.735,-129.203 l 12.661,-5.359 h -26.963 l 17.684,126.21 h -6.057 l -44.734,-126.291 h -26.933 l 15.322,5.586 44.718,132.189 z"
         style="fill:#5f4456;fill-opacity:1;fill-rule:nonzero;stroke:none"
         id="path340"
         inkscape:connector-curvature="0" /></g><g
       id="g342"
       transform="translate(289.56236,260.2955)"><path
         d="m 0,0 c 1.507,3.014 3.27,10.327 -1.306,12.36 -2.374,1.056 -4.836,2.575 -6.654,3.792 -2.788,1.867 -6.254,2.609 -9.488,1.711 -0.519,-0.144 -1.026,-0.328 -1.501,-0.562 C -22.143,15.733 -24.3,7.247 -24.3,7.247 l 3.139,-0.787 c 0,0 3.501,-15.566 9.259,-18.766 l 5.752,-1.218 3.403,-0.764 z"
         style="fill:#d06940;fill-opacity:1;fill-rule:nonzero;stroke:none"
         id="path344"
         inkscape:connector-curvature="0" /></g><g
       id="g346"
       transform="translate(285.39146,273.735)"><path
         d="m 0,0 c 0.024,0.933 -0.012,1.86 -0.107,2.788 -0.039,0.378 -0.635,0.381 -0.596,0 C -0.607,1.86 -0.571,0.933 -0.596,0 -0.605,-0.383 -0.01,-0.383 0,0"
         style="fill:#d06940;fill-opacity:1;fill-rule:nonzero;stroke:none"
         id="path348"
         inkscape:connector-curvature="0" /></g><g
       id="g350"
       transform="translate(285.39146,273.6173)"><path
         d="M 0,0 C 0.395,0.25 0.525,0.704 0.741,1.098 1.017,1.599 1.334,2.072 1.681,2.525 1.913,2.83 1.396,3.126 1.167,2.826 0.893,2.468 0.637,2.099 0.406,1.711 0.211,1.382 0.028,0.723 -0.3,0.514 -0.623,0.31 -0.324,-0.206 0,0"
         style="fill:#d06940;fill-opacity:1;fill-rule:nonzero;stroke:none"
         id="path352"
         inkscape:connector-curvature="0" /></g><g
       id="g354"
       transform="translate(-7.2497438,-26.436104)"><g
         id="g356" /><g
         id="g368"><g
           clip-path="url(#clipPath360)"
           id="g366"
           style="opacity:0.25"><g
             transform="translate(182.4469,95.9782)"
             id="g364"><path
               d="m 0,0 c 0,1.165 -28.536,2.108 -63.738,2.108 -35.201,0 -63.738,-0.943 -63.738,-2.108 0,-1.164 28.537,-2.107 63.738,-2.107 C -28.536,-2.107 0,-1.164 0,0"
               style="fill:#6d55b1;fill-opacity:1;fill-rule:nonzero;stroke:none"
               id="path362"
               inkscape:connector-curvature="0" /></g></g></g></g><g
       id="g370"
       transform="translate(133.38856,290.8204)"><path
         d="m 0,0 c -1.196,0.274 -2.313,0.316 -3.843,0.458 -2.281,0.212 -4.362,-1.265 -6.088,-2.771 -1.727,-1.506 -2.971,-3.481 -4.089,-5.481 -1.142,-2.043 -2.207,-4.41 -1.533,-6.652 0.172,-0.571 0.455,-1.125 0.447,-1.721 -0.025,-1.853 -2.58,-2.553 -3.378,-4.226 -0.988,-2.066 1.028,-4.851 -0.339,-6.689 -0.682,-0.918 -1.995,-1.207 -2.641,-2.15 -0.508,-0.741 -0.487,-1.709 -0.447,-2.606 0.009,-0.185 0.026,-0.39 0.162,-0.516 0.113,-0.104 0.277,-0.124 0.431,-0.138 7.3,-0.702 14.526,0.877 21.826,0.175 0.882,-0.085 1.771,-0.169 2.65,-0.066 1.262,0.149 2.444,0.677 3.6,1.204 6.311,2.876 12.628,3.622 18.794,6.795 0.258,0.133 0.532,0.282 0.662,0.542 0.099,0.2 0.097,0.434 0.074,0.655 -0.165,1.625 -1.366,3.097 -2.924,3.586 -1.607,0.504 -3.533,0.064 -4.875,1.082 -0.967,0.734 -1.318,2.023 -1.446,3.231 -0.259,2.455 0.021,5.294 -1.756,7.007 -1.391,1.341 -3.624,1.487 -5.021,2.822 C 9.47,-4.699 9.041,-3.64 8.398,-2.746 6.518,-0.128 3.315,1.391 0,0"
         style="fill:#5f4456;fill-opacity:1;fill-rule:nonzero;stroke:none"
         id="path372"
         inkscape:connector-curvature="0" /></g><g
       id="g374"
       transform="translate(121.18786,206.4601)"><path
         d="m 0,0 -40.694,-128.781 -16.017,-6.176 h 23.769 L 13.005,-13.63 c 0.295,0.779 1.041,1.295 1.873,1.295 1.191,0 2.12,-1.033 1.993,-2.217 L 4.764,-134.957 h 24.06 l -16.065,5.311 c 0,0 14.968,70.014 18.299,91.92 3.331,21.907 -1.497,37.385 -1.497,37.385 0,0 -15.598,4.946 -29.561,0.341"
         style="fill:#4a648f;fill-opacity:1;fill-rule:nonzero;stroke:none"
         id="path376"
         inkscape:connector-curvature="0" /></g><g
       id="g378"
       transform="translate(121.66496,252.8102)"><path
         d="m 0,0 c 3.73,3.896 18.558,4.345 23.918,2.144 5.361,-2.202 15.224,-30.676 15.224,-30.676 L 29.333,-32.383 23.246,-8.578 4.17,-5.95 Z"
         style="fill:#fc816d;fill-opacity:1;fill-rule:nonzero;stroke:none"
         id="path380"
         inkscape:connector-curvature="0" /></g><g
       id="g382"
       transform="translate(146.72746,240.7355)"><path
         d="m 0,0 c 0,0 1.671,3.942 2.027,6.984 0.357,3.042 -3.779,6.017 -3.779,6.017 l -22.444,-5.816 1.395,-13.369 -3.293,-27.012 28.518,-1.059 -2.866,34.143"
         style="fill:#fc816d;fill-opacity:1;fill-rule:nonzero;stroke:none"
         id="path384"
         inkscape:connector-curvature="0" /></g><g
       id="g386"
       transform="translate(124.24066,239.9655)"><path
         d="M 0,0 C -0.096,0 -0.192,0.03 -0.274,0.091 -0.475,0.243 -0.516,0.529 -0.366,0.73 L 1.229,2.854 C 1.381,3.056 1.667,3.098 1.868,2.945 2.07,2.794 2.11,2.509 1.958,2.307 L 0.365,0.183 C 0.275,0.063 0.138,0 0,0"
         style="fill:#3096bd;fill-opacity:1;fill-rule:nonzero;stroke:none"
         id="path388"
         inkscape:connector-curvature="0" /></g><g
       id="g390"
       transform="translate(109.99406,202.9376)"><path
         d="M 0,0 C 1.715,0.999 3.431,1.997 5.146,2.995"
         style="fill:#6dcbee;fill-opacity:1;fill-rule:nonzero;stroke:none"
         id="path392"
         inkscape:connector-curvature="0" /></g><g
       id="g394"
       transform="translate(132.20986,256.0255)"><path
         d="m 0,0 c -0.312,2.981 1.212,6.005 -3.597,7.931 -6.63,2.656 -8.051,25.517 3.924,25.568 C 12.303,33.55 11.715,18.46 11.667,13.98 11.62,9.5 7.675,8.359 6.689,6.737 5.703,5.116 6.554,0 6.554,0 Z"
         style="fill:#ffbb9a;fill-opacity:1;fill-rule:nonzero;stroke:none"
         id="path396"
         inkscape:connector-curvature="0" /></g><g
       id="g398"
       transform="translate(125.41546,273.339)"><path
         d="m 0,0 c 0,-1.468 -1.029,-2.659 -2.299,-2.659 -1.27,0 -2.299,1.191 -2.299,2.659 0,1.468 1.029,2.659 2.299,2.659 C -1.029,2.659 0,1.468 0,0"
         style="fill:#ffbb9a;fill-opacity:1;fill-rule:nonzero;stroke:none"
         id="path400"
         inkscape:connector-curvature="0" /></g><g
       id="g402"
       transform="translate(146.90026,275.3932)"><path
         d="m 0,0 c 0,-1.468 -1.029,-2.659 -2.299,-2.659 -1.27,0 -2.3,1.191 -2.3,2.659 0,1.469 1.03,2.659 2.3,2.659 C -1.029,2.659 0,1.469 0,0"
         style="fill:#ffbb9a;fill-opacity:1;fill-rule:nonzero;stroke:none"
         id="path404"
         inkscape:connector-curvature="0" /></g><g
       id="g406"
       transform="translate(73.122456,170.0753)"><path
         d="m 0,0 c -7.654,0 -13.859,6.205 -13.859,13.858 0,7.655 6.205,13.86 13.859,13.86 7.654,0 13.859,-6.205 13.859,-13.86 C 13.859,6.205 7.654,0 0,0 m 121.062,56.914 -3.551,8.998 -100.4,-39.415 C 13.236,31.735 7.015,35.132 0,35.132 c -11.749,0 -21.273,-9.525 -21.273,-21.274 0,-11.748 9.524,-21.272 21.273,-21.272 11.749,0 21.273,9.524 21.273,21.272 0,0.874 -0.059,1.734 -0.161,2.579 l 76.46,30.964 4.199,-9.236 9.326,4.273 -3.283,7.349 3.021,1.6 3.556,-7.071 6.671,3.563 -3.695,7.538 z"
         style="fill:#b7afef;fill-opacity:1;fill-rule:nonzero;stroke:none"
         id="path408"
         inkscape:connector-curvature="0" /></g><g
       id="g410"
       transform="translate(121.66496,252.8102)"><path
         d="m 0,0 c 0,0 -25.314,-22.539 -25.453,-26.722 -0.139,-4.184 14.914,-26.189 14.914,-26.189 l 7.525,4.758 -10.539,19.728 17.147,16.35 c 0,0 0.561,-3.799 1.933,-4.832 L 6.29,-1.866 Z"
         style="fill:#fc816d;fill-opacity:1;fill-rule:nonzero;stroke:none"
         id="path412"
         inkscape:connector-curvature="0" /></g><g
       id="g414"
       transform="translate(141.47456,284.2672)"><path
         d="m 0,0 c -3.291,-0.169 -17.875,-1.653 -17.875,-1.653 0,0 2.132,8.755 8.937,9.099 C 0,7.897 0,0 0,0"
         style="fill:#5f4456;fill-opacity:1;fill-rule:nonzero;stroke:none"
         id="path416"
         inkscape:connector-curvature="0" /></g><g
       id="g418"
       transform="translate(123.61706,275.0216)"><path
         d="m 0,0 c 0,0 11.818,1.107 13.889,6.686 0,0 3.924,-5.017 6.222,-4.765 0,0 0.377,6.6 -1.052,7.493 C 17.63,10.307 -0.5,8.466 -0.5,8.466 -0.5,8.466 -0.969,4.245 0,0"
         style="fill:#5f4456;fill-opacity:1;fill-rule:nonzero;stroke:none"
         id="path420"
         inkscape:connector-curvature="0" /></g><g
       id="g422"
       transform="translate(111.44226,200.1671)"><path
         d="m 0,0 c 0,0 3.229,-6.808 3.414,-6.973 0.185,-0.165 0.575,-1.423 2.31,-0.551 0,0 0.823,-2.22 1.892,-1.933 1.07,0.288 2.16,0.937 2.16,0.937 0,0 1.297,-1.726 2.258,-0.814 1.123,1.067 0.06,2.252 -0.741,3.537 0,0 -2.501,4.484 -2.254,4.753 0.67,0.732 1.822,0.994 4.205,-1.185 2.531,-2.315 4.295,-0.717 2.598,1.163 C 14.144,0.812 11.823,3.206 10.648,3.688 9.474,4.17 7.536,3.441 7.536,3.441 L 6.961,4.269 Z"
         style="fill:#ffbb9a;fill-opacity:1;fill-rule:nonzero;stroke:none"
         id="path424"
         inkscape:connector-curvature="0" /></g><g
       id="g426"
       transform="translate(163.19666,214.4405)"><path
         d="m 0,0 c 0,0 -1.813,-5.153 -4.979,-6.019 -3.167,-0.865 -20.922,-4.47 -20.922,-4.47 v 7.022 z"
         style="fill:#fc816d;fill-opacity:1;fill-rule:nonzero;stroke:none"
         id="path428"
         inkscape:connector-curvature="0" /></g><g
       id="g430"
       transform="translate(137.29576,210.132)"><path
         d="m 0,0 h -1.353 c 0,0 -0.304,0.95 -0.496,1.262 -0.554,0.899 -7.987,1.845 -7.851,0.873 0.137,-0.973 1.359,-1.213 3.979,-1.698 0,0 -9.802,-2.378 -8.88,-3.155 0.922,-0.776 7.037,1.008 7.037,1.008 0,0 -6.633,-2.157 -6.164,-3.628 0.27,-0.843 6.992,1.139 6.992,1.139 0,0 -6.846,-2.449 -5.633,-3.275 1.214,-0.825 8.784,1.034 9.512,1.293 0.728,0.26 1.008,1.667 1.008,1.667 L 0,-4.199 Z"
         style="fill:#ffbb9a;fill-opacity:1;fill-rule:nonzero;stroke:none"
         id="path432"
         inkscape:connector-curvature="0" /></g><g
       id="g434"
       transform="translate(131.71476,294.3888)"><path
         d="M 0,0 C 0.26,-1.084 0.369,-2.434 0.991,-3.381 1.249,-3.774 1.883,-3.408 1.624,-3.012 1.05,-2.137 0.947,-0.808 0.707,0.195 0.597,0.653 -0.11,0.459 0,0"
         style="fill:#5f4456;fill-opacity:1;fill-rule:nonzero;stroke:none"
         id="path436"
         inkscape:connector-curvature="0" /></g><g
       id="g438"
       transform="translate(133.30756,290.9401)"><path
         d="M 0,0 C 0.374,0.666 0.774,1.314 1.201,1.947 1.466,2.339 0.832,2.706 0.568,2.317 0.141,1.684 -0.259,1.036 -0.633,0.37 -0.864,-0.042 -0.231,-0.412 0,0"
         style="fill:#5f4456;fill-opacity:1;fill-rule:nonzero;stroke:none"
         id="path440"
         inkscape:connector-curvature="0" /></g><g
       id="g442"
       transform="translate(134.72546,275.5299)"><path
         d="M 0,0 C -0.027,-0.843 -0.007,-1.68 0.091,-2.519 0.142,-2.948 0.101,-3.714 0.399,-4.041 0.569,-4.227 0.926,-4.215 1.142,-4.249 1.945,-4.373 2.755,-4.465 3.561,-4.573 3.518,-4.469 3.475,-4.364 3.431,-4.26 2.746,-4.91 2.007,-5.389 1.14,-5.756 0.924,-5.848 1.11,-6.164 1.325,-6.073 c 0.898,0.381 1.66,0.885 2.365,1.554 0.128,0.122 0.017,0.293 -0.129,0.312 C 2.721,-4.094 1.01,-4.189 0.574,-3.302 0.165,-2.469 0.337,-0.888 0.366,0 0.374,0.236 0.007,0.236 0,0"
         style="fill:#ff9f77;fill-opacity:1;fill-rule:nonzero;stroke:none"
         id="path444"
         inkscape:connector-curvature="0" /></g><g
       id="g446"
       transform="translate(138.48726,273.0099)"><path
         d="M 0,0 C 0.105,0.835 -0.426,2.792 0.627,3.196 1.563,3.556 2.154,2.777 2.301,1.987 2.394,1.492 2.481,0.996 2.572,0.5 2.614,0.268 2.967,0.366 2.925,0.597 2.704,1.812 2.652,3.89 0.841,3.643 -0.846,3.413 -0.23,1.075 -0.366,0 -0.396,-0.233 -0.029,-0.231 0,0"
         style="fill:#55433e;fill-opacity:1;fill-rule:nonzero;stroke:none"
         id="path448"
         inkscape:connector-curvature="0" /></g><g
       id="g450"
       transform="translate(129.03116,272.5094)"><path
         d="M 0,0 C 0.105,0.836 -0.426,2.792 0.627,3.197 1.563,3.556 2.154,2.777 2.301,1.987 2.394,1.492 2.481,0.996 2.572,0.5 2.614,0.269 2.967,0.367 2.925,0.598 2.704,1.813 2.652,3.89 0.84,3.643 -0.846,3.413 -0.23,1.075 -0.366,0 -0.396,-0.233 -0.029,-0.231 0,0"
         style="fill:#55433e;fill-opacity:1;fill-rule:nonzero;stroke:none"
         id="path452"
         inkscape:connector-curvature="0" /></g><g
       id="g454"
       transform="translate(131.52876,270.3844)"><path
         d="m 0,0 c 0.394,-3.049 5.556,-3.661 7.453,-1.81 0.17,0.165 -0.09,0.424 -0.259,0.259 C 5.61,-3.096 0.72,-2.735 0.367,0 0.337,0.23 -0.03,0.233 0,0"
         style="fill:#ff9f77;fill-opacity:1;fill-rule:nonzero;stroke:none"
         id="path456"
         inkscape:connector-curvature="0" /></g><g
       id="g458"
       transform="translate(131.45546,269.8722)"><path
         d="M 0,0 C 0.105,0.323 0.432,0.533 0.771,0.476 1.001,0.437 1.101,0.791 0.868,0.829 0.326,0.92 -0.181,0.625 -0.353,0.098 -0.426,-0.127 -0.073,-0.224 0,0"
         style="fill:#ff9f77;fill-opacity:1;fill-rule:nonzero;stroke:none"
         id="path460"
         inkscape:connector-curvature="0" /></g><g
       id="g462"
       transform="translate(-7.2497438,-26.436104)"><g
         id="g464" /><g
         id="g476"><g
           clip-path="url(#clipPath468)"
           id="g474"
           style="opacity:0.27999902"><g
             transform="translate(138.2462,298.0353)"
             id="g472"><path
               d="m 0,0 c 0.163,-0.409 -0.559,-1.077 -1.661,-1.313 -0.533,-0.119 -1.09,-0.101 -1.402,-0.001 -0.303,0.099 -0.517,0.207 -0.63,0.4 -0.049,0.098 -0.045,0.221 0.031,0.352 0.075,0.13 0.224,0.261 0.407,0.365 0.37,0.203 0.76,0.342 1.256,0.451 C -1.038,0.458 -0.162,0.414 0,0"
               style="fill:#ff8379;fill-opacity:1;fill-rule:nonzero;stroke:none"
               id="path470"
               inkscape:connector-curvature="0" /></g></g></g></g><g
       id="g478"
       transform="translate(-7.2497438,-26.436104)"><g
         id="g480" /><g
         id="g492"><g
           clip-path="url(#clipPath484)"
           id="g490"
           style="opacity:0.27999902"><g
             transform="translate(150.2687,298.8737)"
             id="g488"><path
               d="m 0,0 c 0.163,-0.409 -0.56,-1.077 -1.661,-1.313 -0.533,-0.119 -1.09,-0.101 -1.402,-0.001 -0.303,0.099 -0.518,0.207 -0.63,0.4 -0.049,0.098 -0.046,0.221 0.031,0.352 0.075,0.13 0.224,0.26 0.407,0.365 0.37,0.202 0.759,0.342 1.255,0.451 0.961,0.204 1.837,0.16 2,-0.254"
               style="fill:#ff8379;fill-opacity:1;fill-rule:nonzero;stroke:none"
               id="path486"
               inkscape:connector-curvature="0" /></g></g></g></g><g
       id="g494"
       transform="translate(122.96276,274.7174)"><path
         d="m 0,0 c -0.72,-0.025 -1.104,-0.697 -1.04,-1.37 0.065,-0.682 0.544,-1.204 1.235,-1.252 0.235,-0.017 0.234,0.35 0,0.366 C -0.774,-2.188 -1.083,-0.404 0,-0.367 0.235,-0.358 0.236,0.008 0,0"
         style="fill:#ff9f77;fill-opacity:1;fill-rule:nonzero;stroke:none"
         id="path496"
         inkscape:connector-curvature="0" /></g><g
       id="g498"
       transform="translate(121.98376,273.7174)"><path
         d="m 0,0 c 0.348,-0.437 0.878,-0.667 1.435,-0.631 0.233,0.015 0.235,0.381 0,0.366 C 0.963,-0.295 0.553,-0.109 0.259,0.259 0.112,0.443 -0.146,0.183 0,0"
         style="fill:#ff9f77;fill-opacity:1;fill-rule:nonzero;stroke:none"
         id="path500"
         inkscape:connector-curvature="0" /></g><g
       id="g502"
       transform="translate(144.41936,274.0875)"><path
         d="M 0,0 C 0.793,-0.189 1.231,0.532 1.331,1.219 1.441,1.977 0.975,2.712 0.169,2.785 -0.065,2.807 -0.064,2.44 0.169,2.419 0.684,2.372 1.028,1.857 0.985,1.377 0.944,0.912 0.71,0.208 0.098,0.353 -0.132,0.408 -0.229,0.055 0,0"
         style="fill:#ff9f77;fill-opacity:1;fill-rule:nonzero;stroke:none"
         id="path504"
         inkscape:connector-curvature="0" /></g><g
       id="g506"
       transform="translate(144.64106,275.1686)"><path
         d="M 0,0 C 0.346,0.312 0.564,0.713 0.631,1.175 0.664,1.406 0.311,1.506 0.278,1.273 0.219,0.868 0.045,0.533 -0.259,0.259 -0.435,0.101 -0.175,-0.158 0,0"
         style="fill:#ff9f77;fill-opacity:1;fill-rule:nonzero;stroke:none"
         id="path508"
         inkscape:connector-curvature="0" /></g></g></svg>