<?xml version="1.0" encoding="UTF-8" standalone="no"?>
<!-- Created with Inkscape (http://www.inkscape.org/) -->

<svg
   xmlns:dc="http://purl.org/dc/elements/1.1/"
   xmlns:cc="http://creativecommons.org/ns#"
   xmlns:rdf="http://www.w3.org/1999/02/22-rdf-syntax-ns#"
   xmlns:svg="http://www.w3.org/2000/svg"
   xmlns="http://www.w3.org/2000/svg"
   xmlns:sodipodi="http://sodipodi.sourceforge.net/DTD/sodipodi-0.dtd"
   xmlns:inkscape="http://www.inkscape.org/namespaces/inkscape"
   version="1.1"
   id="svg2"
   xml:space="preserve"
   width="666.66669"
   height="666.66669"
   viewBox="0 0 666.66669 666.66669"
   sodipodi:docname="393094-PCQ7YW-679.svg"
   inkscape:version="0.92.3 (2405546, 2018-03-11)"><metadata
     id="metadata8"><rdf:RDF><cc:Work
         rdf:about=""><dc:format>image/svg+xml</dc:format><dc:type
           rdf:resource="http://purl.org/dc/dcmitype/StillImage" /><dc:title></dc:title></cc:Work></rdf:RDF></metadata><defs
     id="defs6"><clipPath
       clipPathUnits="userSpaceOnUse"
       id="clipPath20"><path
         d="m 256.442,276.362 h -12.884 l -22.233,217.376 h 57.35 z"
         id="path18"
         inkscape:connector-curvature="0" /></clipPath><linearGradient
       x1="0"
       y1="0"
       x2="1"
       y2="0"
       gradientUnits="userSpaceOnUse"
       gradientTransform="matrix(0,221.23198,221.23198,0,250,229.18747)"
       spreadMethod="pad"
       id="linearGradient36"><stop
         style="stop-opacity:1;stop-color:#ffffff"
         offset="0"
         id="stop30" /><stop
         style="stop-opacity:0;stop-color:#ffffff"
         offset="0.995247"
         id="stop32" /><stop
         style="stop-opacity:0;stop-color:#ffffff"
         offset="1"
         id="stop34" /></linearGradient><mask
       maskUnits="userSpaceOnUse"
       x="0"
       y="0"
       width="1"
       height="1"
       id="mask38"><g
         id="g48"><g
           id="g46"><g
             id="g44"><g
               id="g42"><path
                 d="M -32768,32767 H 32767 V -32768 H -32768 Z"
                 style="fill:url(#linearGradient36);stroke:none"
                 id="path40"
                 inkscape:connector-curvature="0" /></g></g></g></g></mask><linearGradient
       x1="0"
       y1="0"
       x2="1"
       y2="0"
       gradientUnits="userSpaceOnUse"
       gradientTransform="matrix(0,221.23198,221.23198,0,250,229.18747)"
       spreadMethod="pad"
       id="linearGradient60"><stop
         style="stop-opacity:1;stop-color:#ffffff"
         offset="0"
         id="stop54" /><stop
         style="stop-opacity:1;stop-color:#00c2b1"
         offset="0.995247"
         id="stop56" /><stop
         style="stop-opacity:1;stop-color:#00c2b1"
         offset="1"
         id="stop58" /></linearGradient><clipPath
       clipPathUnits="userSpaceOnUse"
       id="clipPath70"><path
         d="m 243.558,223.638 h 12.884 L 278.675,6.262 h -57.35 z"
         id="path68"
         inkscape:connector-curvature="0" /></clipPath><linearGradient
       x1="0"
       y1="0"
       x2="1"
       y2="0"
       gradientUnits="userSpaceOnUse"
       gradientTransform="matrix(0,-221.23198,-221.23198,0,250,270.81253)"
       spreadMethod="pad"
       id="linearGradient86"><stop
         style="stop-opacity:1;stop-color:#ffffff"
         offset="0"
         id="stop80" /><stop
         style="stop-opacity:0;stop-color:#ffffff"
         offset="0.995247"
         id="stop82" /><stop
         style="stop-opacity:0;stop-color:#ffffff"
         offset="1"
         id="stop84" /></linearGradient><mask
       maskUnits="userSpaceOnUse"
       x="0"
       y="0"
       width="1"
       height="1"
       id="mask88"><g
         id="g98"><g
           id="g96"><g
             id="g94"><g
               id="g92"><path
                 d="M -32768,32767 H 32767 V -32768 H -32768 Z"
                 style="fill:url(#linearGradient86);stroke:none"
                 id="path90"
                 inkscape:connector-curvature="0" /></g></g></g></g></mask><linearGradient
       x1="0"
       y1="0"
       x2="1"
       y2="0"
       gradientUnits="userSpaceOnUse"
       gradientTransform="matrix(0,-221.23198,-221.23198,0,250,270.81253)"
       spreadMethod="pad"
       id="linearGradient110"><stop
         style="stop-opacity:1;stop-color:#ffffff"
         offset="0"
         id="stop104" /><stop
         style="stop-opacity:1;stop-color:#00c2b1"
         offset="0.995247"
         id="stop106" /><stop
         style="stop-opacity:1;stop-color:#00c2b1"
         offset="1"
         id="stop108" /></linearGradient><clipPath
       clipPathUnits="userSpaceOnUse"
       id="clipPath120"><path
         d="m 276.362,243.558 v 12.884 l 217.376,22.233 v -57.35 z"
         id="path118"
         inkscape:connector-curvature="0" /></clipPath><linearGradient
       x1="0"
       y1="0"
       x2="1"
       y2="0"
       gradientUnits="userSpaceOnUse"
       gradientTransform="matrix(221.23198,0,0,-221.23198,229.18747,250)"
       spreadMethod="pad"
       id="linearGradient136"><stop
         style="stop-opacity:1;stop-color:#ffffff"
         offset="0"
         id="stop130" /><stop
         style="stop-opacity:0;stop-color:#ffffff"
         offset="0.995247"
         id="stop132" /><stop
         style="stop-opacity:0;stop-color:#ffffff"
         offset="1"
         id="stop134" /></linearGradient><mask
       maskUnits="userSpaceOnUse"
       x="0"
       y="0"
       width="1"
       height="1"
       id="mask138"><g
         id="g148"><g
           id="g146"><g
             id="g144"><g
               id="g142"><path
                 d="M -32768,32767 H 32767 V -32768 H -32768 Z"
                 style="fill:url(#linearGradient136);stroke:none"
                 id="path140"
                 inkscape:connector-curvature="0" /></g></g></g></g></mask><linearGradient
       x1="0"
       y1="0"
       x2="1"
       y2="0"
       gradientUnits="userSpaceOnUse"
       gradientTransform="matrix(221.23198,0,0,-221.23198,229.18747,250)"
       spreadMethod="pad"
       id="linearGradient160"><stop
         style="stop-opacity:1;stop-color:#ffffff"
         offset="0"
         id="stop154" /><stop
         style="stop-opacity:1;stop-color:#00c2b1"
         offset="0.995247"
         id="stop156" /><stop
         style="stop-opacity:1;stop-color:#00c2b1"
         offset="1"
         id="stop158" /></linearGradient><clipPath
       clipPathUnits="userSpaceOnUse"
       id="clipPath170"><path
         d="M 223.638,256.442 V 243.558 L 6.262,221.325 v 57.35 z"
         id="path168"
         inkscape:connector-curvature="0" /></clipPath><linearGradient
       x1="0"
       y1="0"
       x2="1"
       y2="0"
       gradientUnits="userSpaceOnUse"
       gradientTransform="matrix(-221.23198,0,0,221.23198,270.81253,250)"
       spreadMethod="pad"
       id="linearGradient186"><stop
         style="stop-opacity:1;stop-color:#ffffff"
         offset="0"
         id="stop180" /><stop
         style="stop-opacity:0;stop-color:#ffffff"
         offset="0.995247"
         id="stop182" /><stop
         style="stop-opacity:0;stop-color:#ffffff"
         offset="1"
         id="stop184" /></linearGradient><mask
       maskUnits="userSpaceOnUse"
       x="0"
       y="0"
       width="1"
       height="1"
       id="mask188"><g
         id="g198"><g
           id="g196"><g
             id="g194"><g
               id="g192"><path
                 d="M -32768,32767 H 32767 V -32768 H -32768 Z"
                 style="fill:url(#linearGradient186);stroke:none"
                 id="path190"
                 inkscape:connector-curvature="0" /></g></g></g></g></mask><linearGradient
       x1="0"
       y1="0"
       x2="1"
       y2="0"
       gradientUnits="userSpaceOnUse"
       gradientTransform="matrix(-221.23198,0,0,221.23198,270.81253,250)"
       spreadMethod="pad"
       id="linearGradient210"><stop
         style="stop-opacity:1;stop-color:#ffffff"
         offset="0"
         id="stop204" /><stop
         style="stop-opacity:1;stop-color:#00c2b1"
         offset="0.995247"
         id="stop206" /><stop
         style="stop-opacity:1;stop-color:#00c2b1"
         offset="1"
         id="stop208" /></linearGradient><clipPath
       clipPathUnits="userSpaceOnUse"
       id="clipPath220"><path
         d="m 273.196,264.085 -9.11,9.112 137.986,169.428 40.553,-40.553 z"
         id="path218"
         inkscape:connector-curvature="0" /></clipPath><linearGradient
       x1="0"
       y1="0"
       x2="1"
       y2="0"
       gradientUnits="userSpaceOnUse"
       gradientTransform="matrix(156.43463,156.43463,156.43463,-156.43463,235.28333,235.28333)"
       spreadMethod="pad"
       id="linearGradient236"><stop
         style="stop-opacity:1;stop-color:#ffffff"
         offset="0"
         id="stop230" /><stop
         style="stop-opacity:0;stop-color:#ffffff"
         offset="0.995247"
         id="stop232" /><stop
         style="stop-opacity:0;stop-color:#ffffff"
         offset="1"
         id="stop234" /></linearGradient><mask
       maskUnits="userSpaceOnUse"
       x="0"
       y="0"
       width="1"
       height="1"
       id="mask238"><g
         id="g248"><g
           id="g246"><g
             id="g244"><g
               id="g242"><path
                 d="M -32768,32767 H 32767 V -32768 H -32768 Z"
                 style="fill:url(#linearGradient236);stroke:none"
                 id="path240"
                 inkscape:connector-curvature="0" /></g></g></g></g></mask><linearGradient
       x1="0"
       y1="0"
       x2="1"
       y2="0"
       gradientUnits="userSpaceOnUse"
       gradientTransform="matrix(156.43463,156.43463,156.43463,-156.43463,235.28333,235.28333)"
       spreadMethod="pad"
       id="linearGradient260"><stop
         style="stop-opacity:1;stop-color:#ffffff"
         offset="0"
         id="stop254" /><stop
         style="stop-opacity:1;stop-color:#00c2b1"
         offset="0.995247"
         id="stop256" /><stop
         style="stop-opacity:1;stop-color:#00c2b1"
         offset="1"
         id="stop258" /></linearGradient><clipPath
       clipPathUnits="userSpaceOnUse"
       id="clipPath270"><path
         d="m 226.803,235.914 9.112,-9.11 L 97.928,57.375 57.375,97.928 Z"
         id="path268"
         inkscape:connector-curvature="0" /></clipPath><linearGradient
       x1="0"
       y1="0"
       x2="1"
       y2="0"
       gradientUnits="userSpaceOnUse"
       gradientTransform="matrix(-156.43463,-156.43463,-156.43463,156.43463,264.71667,264.71667)"
       spreadMethod="pad"
       id="linearGradient286"><stop
         style="stop-opacity:1;stop-color:#ffffff"
         offset="0"
         id="stop280" /><stop
         style="stop-opacity:0;stop-color:#ffffff"
         offset="0.995247"
         id="stop282" /><stop
         style="stop-opacity:0;stop-color:#ffffff"
         offset="1"
         id="stop284" /></linearGradient><mask
       maskUnits="userSpaceOnUse"
       x="0"
       y="0"
       width="1"
       height="1"
       id="mask288"><g
         id="g298"><g
           id="g296"><g
             id="g294"><g
               id="g292"><path
                 d="M -32768,32767 H 32767 V -32768 H -32768 Z"
                 style="fill:url(#linearGradient286);stroke:none"
                 id="path290"
                 inkscape:connector-curvature="0" /></g></g></g></g></mask><linearGradient
       x1="0"
       y1="0"
       x2="1"
       y2="0"
       gradientUnits="userSpaceOnUse"
       gradientTransform="matrix(-156.43463,-156.43463,-156.43463,156.43463,264.71667,264.71667)"
       spreadMethod="pad"
       id="linearGradient310"><stop
         style="stop-opacity:1;stop-color:#ffffff"
         offset="0"
         id="stop304" /><stop
         style="stop-opacity:1;stop-color:#00c2b1"
         offset="0.995247"
         id="stop306" /><stop
         style="stop-opacity:1;stop-color:#00c2b1"
         offset="1"
         id="stop308" /></linearGradient><clipPath
       clipPathUnits="userSpaceOnUse"
       id="clipPath320"><path
         d="m 264.086,226.804 9.11,9.11 L 442.625,97.928 402.072,57.375 Z"
         id="path318"
         inkscape:connector-curvature="0" /></clipPath><linearGradient
       x1="0"
       y1="0"
       x2="1"
       y2="0"
       gradientUnits="userSpaceOnUse"
       gradientTransform="matrix(156.43463,-156.43463,-156.43463,-156.43463,235.28333,264.71667)"
       spreadMethod="pad"
       id="linearGradient336"><stop
         style="stop-opacity:1;stop-color:#ffffff"
         offset="0"
         id="stop330" /><stop
         style="stop-opacity:0;stop-color:#ffffff"
         offset="0.995247"
         id="stop332" /><stop
         style="stop-opacity:0;stop-color:#ffffff"
         offset="1"
         id="stop334" /></linearGradient><mask
       maskUnits="userSpaceOnUse"
       x="0"
       y="0"
       width="1"
       height="1"
       id="mask338"><g
         id="g348"><g
           id="g346"><g
             id="g344"><g
               id="g342"><path
                 d="M -32768,32767 H 32767 V -32768 H -32768 Z"
                 style="fill:url(#linearGradient336);stroke:none"
                 id="path340"
                 inkscape:connector-curvature="0" /></g></g></g></g></mask><linearGradient
       x1="0"
       y1="0"
       x2="1"
       y2="0"
       gradientUnits="userSpaceOnUse"
       gradientTransform="matrix(156.43463,-156.43463,-156.43463,-156.43463,235.28333,264.71667)"
       spreadMethod="pad"
       id="linearGradient360"><stop
         style="stop-opacity:1;stop-color:#ffffff"
         offset="0"
         id="stop354" /><stop
         style="stop-opacity:1;stop-color:#00c2b1"
         offset="0.995247"
         id="stop356" /><stop
         style="stop-opacity:1;stop-color:#00c2b1"
         offset="1"
         id="stop358" /></linearGradient><clipPath
       clipPathUnits="userSpaceOnUse"
       id="clipPath370"><path
         d="m 235.915,273.197 -9.112,-9.112 -169.428,137.987 40.553,40.553 z"
         id="path368"
         inkscape:connector-curvature="0" /></clipPath><linearGradient
       x1="0"
       y1="0"
       x2="1"
       y2="0"
       gradientUnits="userSpaceOnUse"
       gradientTransform="matrix(-156.43463,156.43463,156.43463,156.43463,264.71667,235.28333)"
       spreadMethod="pad"
       id="linearGradient386"><stop
         style="stop-opacity:1;stop-color:#ffffff"
         offset="0"
         id="stop380" /><stop
         style="stop-opacity:0;stop-color:#ffffff"
         offset="0.995247"
         id="stop382" /><stop
         style="stop-opacity:0;stop-color:#ffffff"
         offset="1"
         id="stop384" /></linearGradient><mask
       maskUnits="userSpaceOnUse"
       x="0"
       y="0"
       width="1"
       height="1"
       id="mask388"><g
         id="g398"><g
           id="g396"><g
             id="g394"><g
               id="g392"><path
                 d="M -32768,32767 H 32767 V -32768 H -32768 Z"
                 style="fill:url(#linearGradient386);stroke:none"
                 id="path390"
                 inkscape:connector-curvature="0" /></g></g></g></g></mask><linearGradient
       x1="0"
       y1="0"
       x2="1"
       y2="0"
       gradientUnits="userSpaceOnUse"
       gradientTransform="matrix(-156.43463,156.43463,156.43463,156.43463,264.71667,235.28333)"
       spreadMethod="pad"
       id="linearGradient410"><stop
         style="stop-opacity:1;stop-color:#ffffff"
         offset="0"
         id="stop404" /><stop
         style="stop-opacity:1;stop-color:#00c2b1"
         offset="0.995247"
         id="stop406" /><stop
         style="stop-opacity:1;stop-color:#00c2b1"
         offset="1"
         id="stop408" /></linearGradient><clipPath
       clipPathUnits="userSpaceOnUse"
       id="clipPath420"><path
         d="M 0,500 H 500 V 0 H 0 Z"
         id="path418"
         inkscape:connector-curvature="0" /></clipPath><clipPath
       clipPathUnits="userSpaceOnUse"
       id="clipPath804"><path
         d="m 214.069,173.591 h 17.598 V 65.7424 h -17.598 z"
         id="path802"
         inkscape:connector-curvature="0" /></clipPath><clipPath
       clipPathUnits="userSpaceOnUse"
       id="clipPath820"><path
         d="m 223.053,127.965 h 11.47 V 83.5861 h -11.47 z"
         id="path818"
         inkscape:connector-curvature="0" /></clipPath><clipPath
       clipPathUnits="userSpaceOnUse"
       id="clipPath836"><path
         d="m 215.803,53.504 h 68.394 v -7.0312 h -68.394 z"
         id="path834"
         inkscape:connector-curvature="0" /></clipPath><clipPath
       clipPathUnits="userSpaceOnUse"
       id="clipPath852"><path
         d="m 292.987,206.976 h 33.317 v -34.949 h -33.317 z"
         id="path850"
         inkscape:connector-curvature="0" /></clipPath><clipPath
       clipPathUnits="userSpaceOnUse"
       id="clipPath980"><path
         d="M 0,500 H 500 V 0 H 0 Z"
         id="path978"
         inkscape:connector-curvature="0" /></clipPath></defs><sodipodi:namedview
     pagecolor="#ffffff"
     bordercolor="#666666"
     borderopacity="1"
     objecttolerance="10"
     gridtolerance="10"
     guidetolerance="10"
     inkscape:pageopacity="0"
     inkscape:pageshadow="2"
     inkscape:window-width="1600"
     inkscape:window-height="847"
     id="namedview4"
     showgrid="false"
     inkscape:zoom="0.50063159"
     inkscape:cx="322.52094"
     inkscape:cy="317.67281"
     inkscape:window-x="-8"
     inkscape:window-y="-8"
     inkscape:window-maximized="1"
     inkscape:current-layer="g414" /><g
     id="g10"
     inkscape:groupmode="layer"
     inkscape:label="393094-PCQ7YW-679"
     transform="matrix(1.3333333,0,0,-1.3333333,0,666.66667)"><g
       id="g14"
       transform="translate(1.3879395e-5,1.1206054e-6)"><g
         id="g16"
         clip-path="url(#clipPath20)"><g
           id="g22"><g
             id="g24" /><g
             id="g50"
             mask="url(#mask38)"><g
               id="g52"><path
                 d="m 256.442,276.362 h -12.884 l -22.233,217.376 h 57.35 z"
                 style="fill:url(#linearGradient60);stroke:none"
                 id="path62"
                 inkscape:connector-curvature="0" /></g></g></g></g></g><g
       id="g64"
       transform="translate(1.3879395e-5,1.1206054e-6)"><g
         id="g66"
         clip-path="url(#clipPath70)"><g
           id="g72"><g
             id="g74" /><g
             id="g100"
             mask="url(#mask88)"><g
               id="g102"><path
                 d="m 243.558,223.638 h 12.884 L 278.675,6.262 h -57.35 z"
                 style="fill:url(#linearGradient110);stroke:none"
                 id="path112"
                 inkscape:connector-curvature="0" /></g></g></g></g></g><g
       id="g114"
       transform="translate(1.3879395e-5,1.1206054e-6)"><g
         id="g116"
         clip-path="url(#clipPath120)"><g
           id="g122"><g
             id="g124" /><g
             id="g150"
             mask="url(#mask138)"><g
               id="g152"><path
                 d="m 276.362,243.558 v 12.884 l 217.376,22.233 v -57.35 z"
                 style="fill:url(#linearGradient160);stroke:none"
                 id="path162"
                 inkscape:connector-curvature="0" /></g></g></g></g></g><g
       id="g164"
       transform="translate(1.3879395e-5,1.1206054e-6)"><g
         id="g166"
         clip-path="url(#clipPath170)"><g
           id="g172"><g
             id="g174" /><g
             id="g200"
             mask="url(#mask188)"><g
               id="g202"><path
                 d="M 223.638,256.442 V 243.558 L 6.262,221.325 v 57.35 z"
                 style="fill:url(#linearGradient210);stroke:none"
                 id="path212"
                 inkscape:connector-curvature="0" /></g></g></g></g></g><g
       id="g214"
       transform="translate(1.3879395e-5,1.1206054e-6)"><g
         id="g216"
         clip-path="url(#clipPath220)"><g
           id="g222"><g
             id="g224" /><g
             id="g250"
             mask="url(#mask238)"><g
               id="g252"><path
                 d="m 273.196,264.085 -9.11,9.112 137.986,169.428 40.553,-40.553 z"
                 style="fill:url(#linearGradient260);stroke:none"
                 id="path262"
                 inkscape:connector-curvature="0" /></g></g></g></g></g><g
       id="g264"
       transform="translate(1.3879395e-5,1.1206054e-6)"><g
         id="g266"
         clip-path="url(#clipPath270)"><g
           id="g272"><g
             id="g274" /><g
             id="g300"
             mask="url(#mask288)"><g
               id="g302"><path
                 d="m 226.803,235.914 9.112,-9.11 L 97.928,57.375 57.375,97.928 Z"
                 style="fill:url(#linearGradient310);stroke:none"
                 id="path312"
                 inkscape:connector-curvature="0" /></g></g></g></g></g><g
       id="g314"
       transform="translate(1.3879395e-5,1.1206054e-6)"><g
         id="g316"
         clip-path="url(#clipPath320)"><g
           id="g322"><g
             id="g324" /><g
             id="g350"
             mask="url(#mask338)"><g
               id="g352"><path
                 d="m 264.086,226.804 9.11,9.11 L 442.625,97.928 402.072,57.375 Z"
                 style="fill:url(#linearGradient360);stroke:none"
                 id="path362"
                 inkscape:connector-curvature="0" /></g></g></g></g></g><g
       id="g364"
       transform="translate(1.3879395e-5,1.1206054e-6)"><g
         id="g366"
         clip-path="url(#clipPath370)"><g
           id="g372"><g
             id="g374" /><g
             id="g400"
             mask="url(#mask388)"><g
               id="g402"><path
                 d="m 235.915,273.197 -9.112,-9.112 -169.428,137.987 40.553,40.553 z"
                 style="fill:url(#linearGradient410);stroke:none"
                 id="path412"
                 inkscape:connector-curvature="0" /></g></g></g></g></g><g
       id="g414"
       transform="translate(1.3879395e-5,1.1206054e-6)"><g
         id="g416"
         clip-path="url(#clipPath420)"><g
           id="g422"
           transform="translate(270.6562,344.8281)"><path
             d="m 0,0 c 0,0 4.815,8.604 10.833,4.917 9.792,-6 6.667,-19.5 6.667,-19.5 l -2.25,6 c 0,0 3,-9.5 -1.75,-16 l 0.5,6.25 c 0,0 -3.75,-9 -10.5,-10 -6.75,-1 -7.75,-1 -8.5,-5 -0.75,-4 4.738,-6.659 3,-6.375 -6.125,1 -5.5,8.75 -5.5,8.75 l -1,-5.625 c 0,0 -7.75,15 -7.25,22 0.5,7 3.75,11.75 3.75,11.75 l -4,-1.5 c 0,0 12,19.083 16,4.333"
             style="fill:#303030;fill-opacity:1;fill-rule:nonzero;stroke:none"
             id="path424"
             inkscape:connector-curvature="0" /></g><g
           id="g426"
           transform="translate(276.5645,323.9722)"><path
             d="m 0,0 c 3.209,5.798 8.092,12.272 -3.325,18.272 -1.839,0.967 -6.191,0.219 -7.917,0.292 -1.204,0.051 -1.344,-1.221 -2.423,-1.386 -7.876,-1.198 -12.333,-7.36 -12.333,-7.36 0,0 7.222,-11.045 -14.255,-25.065 -2.509,-1.638 15.413,-29.705 17.178,-19.314 C -17.075,0.772 -1.928,-3.482 0,0"
             style="fill:#f9c0a5;fill-opacity:1;fill-rule:nonzero;stroke:none"
             id="path428"
             inkscape:connector-curvature="0" /></g><g
           id="g430"
           transform="translate(257.9062,338.7861)"><path
             d="M 0,0 C 0,0 3.5,0.958 7.393,-4.146 7.782,-4.658 7.582,-5.397 6.964,-5.575 5.282,-6.059 2.145,-6.684 -0.667,-5.708 -5.739,-3.948 0,0 0,0"
             style="fill:#f94542;fill-opacity:1;fill-rule:nonzero;stroke:none"
             id="path432"
             inkscape:connector-curvature="0" /></g><g
           id="g434"
           transform="translate(264.8701,333.2109)"><path
             d="m 0,0 c 0.023,0.007 0.036,0.026 0.059,0.035 -0.691,0.499 -1.561,0.811 -2.523,0.811 -1.306,0 -2.453,-0.56 -3.183,-1.413 C -3.444,-0.819 -1.292,-0.372 0,0"
             style="fill:#972626;fill-opacity:1;fill-rule:nonzero;stroke:none"
             id="path436"
             inkscape:connector-curvature="0" /></g><g
           id="g438"
           transform="translate(264.5723,333.8281)"><path
             d="m 0,0 c 0,0 -3.416,3.333 -7.083,3.667 0,0 3.333,-0.959 -0.167,-1.084 0,0 -1,0.5 -0.5,1.334 0,0.056 0.608,0.53 1.004,0.832 0.223,0.171 0.496,0.252 0.775,0.224 C -4.721,4.845 -1.191,4.12 0,0"
             style="fill:#eaf9f9;fill-opacity:1;fill-rule:nonzero;stroke:none"
             id="path440"
             inkscape:connector-curvature="0" /></g><g
           id="g442"
           transform="translate(255.5937,334.0571)"><path
             d="m 0,0 c -0.009,-0.007 -0.018,-0.021 -0.026,-0.029 0.35,-0.354 0.887,-0.678 1.672,-0.95 0.643,-0.224 1.304,-0.355 1.96,-0.431 0.006,0.011 0.019,0.035 0.019,0.035 0,0 0.562,0.5 -0.125,1.125 C 2.813,0.375 0.695,0.534 0,0"
             style="fill:#eaf9f9;fill-opacity:1;fill-rule:nonzero;stroke:none"
             id="path444"
             inkscape:connector-curvature="0" /></g><g
           id="g446"
           transform="translate(257.2393,333.0781)"><path
             d="M 0,0 C 1.579,-0.548 3.254,-0.584 4.723,-0.431 3.881,0.013 2.801,0.292 1.604,0.292 0.968,0.292 0.363,0.211 -0.192,0.074 -0.128,0.049 -0.068,0.023 0,0"
             style="fill:#ffadad;fill-opacity:1;fill-rule:nonzero;stroke:none"
             id="path448"
             inkscape:connector-curvature="0" /></g><g
           id="g450"
           transform="translate(250.1025,322.5063)"><path
             d="m 0,0 c 0.846,-8.204 -3.778,-26.255 -4.879,-30.396 0.145,-0.173 0.291,-0.347 0.436,-0.515 l 9.261,4.844 c 4.218,17.5 11.02,22.593 15.914,24.778 C 18.87,-0.437 16.96,0.465 15.054,1.405 3.554,7.072 0.464,11.284 0.464,11.284 0.464,11.284 3.362,6.833 0,0"
             style="fill:#e8ab8f;fill-opacity:1;fill-rule:nonzero;stroke:none"
             id="path452"
             inkscape:connector-curvature="0" /></g><g
           id="g454"
           transform="translate(276.6562,325.6611)"><path
             d="M 0,0 C 0,0 2.416,-0.583 0.583,-3.083 -1.25,-5.583 -6.917,-5.667 -5.5,-2.5 -4.084,0.667 0,0 0,0"
             style="fill:#f9c0a5;fill-opacity:1;fill-rule:nonzero;stroke:none"
             id="path456"
             inkscape:connector-curvature="0" /></g><g
           id="g458"
           transform="translate(269.1562,337.9946)"><path
             d="m 0,0 c 0,0 4.75,2.25 6.125,-3.75 0,0 -1.188,4 -6.125,3.75"
             style="fill:#972626;fill-opacity:1;fill-rule:nonzero;stroke:none"
             id="path460"
             inkscape:connector-curvature="0" /></g><g
           id="g462"
           transform="translate(271.1562,339.4946)"><path
             d="M 0,0 C 0,0 6.666,1.75 6,-4.417 6,-4.417 4.937,0.25 0,0"
             style="fill:#303030;fill-opacity:1;fill-rule:nonzero;stroke:none"
             id="path464"
             inkscape:connector-curvature="0" /></g><g
           id="g466"
           transform="translate(264.6143,342.6196)"><path
             d="M 0,0 C 0,0 3.75,-0.167 3.971,-2.25 3.971,-2.25 4.542,2.125 0,0"
             style="fill:#303030;fill-opacity:1;fill-rule:nonzero;stroke:none"
             id="path468"
             inkscape:connector-curvature="0" /></g><g
           id="g470"
           transform="translate(266.8096,339.7271)"><path
             d="m 0,0 c 0,0 0.513,2.726 -4.237,1.059 0,0 3.042,0.542 4.237,-1.059"
             style="fill:#972626;fill-opacity:1;fill-rule:nonzero;stroke:none"
             id="path472"
             inkscape:connector-curvature="0" /></g><g
           id="g474"
           transform="translate(263.9687,339.6196)"><path
             d="m 0,0 -0.788,0.731 c 0,0 0.351,0.894 2.475,0.081 C 3.813,0 5.25,0.5 5.25,0.5 L 1.375,-2.313 Z"
             style="fill:#ffcbb2;fill-opacity:1;fill-rule:nonzero;stroke:none"
             id="path476"
             inkscape:connector-curvature="0" /></g><g
           id="g478"
           transform="translate(261.9687,339.3071)"><path
             d="M 0,0 1.212,1.044 C 1.696,1.461 2.45,1.235 2.626,0.621 L 3.375,-2 c 0,0 -1,1.375 -3.375,2"
             style="fill:#e8ab8f;fill-opacity:1;fill-rule:nonzero;stroke:none"
             id="path480"
             inkscape:connector-curvature="0" /></g><g
           id="g482"
           transform="translate(276.1562,324.5571)"><path
             d="m 0,0 c 0,0 0.375,-2.313 -2.875,-2.313 0,0 1.563,0.688 1.25,1.313 -0.312,0.625 -1.188,0.563 -1.188,0.563 0,0 1.626,0.125 1.751,-0.25 C -0.937,-1.062 -1,-1.562 -1,-1.562 Z"
             style="fill:#e8ab8f;fill-opacity:1;fill-rule:nonzero;stroke:none"
             id="path484"
             inkscape:connector-curvature="0" /></g><g
           id="g486"
           transform="translate(272.0312,326.2446)"><path
             d="m 0,0 c 0,0 5,0.625 5.5,4.125 0,0 1.875,0.542 3.541,2.125 1.551,1.472 -2.666,-8.125 -2.666,-8.125 0,0 -1,1.75 -5.5,-0.25 z"
             style="fill:#303030;fill-opacity:1;fill-rule:nonzero;stroke:none"
             id="path488"
             inkscape:connector-curvature="0" /></g><g
           id="g490"
           transform="translate(279.8437,442.7383)"><path
             d="m 0,0 c 1.265,-2.467 4.849,-1.956 7.26,-0.186 2.43,1.785 2.967,4.643 2.578,7.03 -1.025,6.29 -8.387,9.051 -15.247,5.829 -8.768,-4.116 -10.933,-12.538 -11.175,-20.017 -0.119,-3.675 1.473,-10.394 -4.136,-12.094 -3.542,-1.074 -5.323,1.84 -6.089,4.188 -0.514,1.576 -0.443,3.951 2.057,4.601 2.41,0.626 4.133,-2.141 1.118,-2.077 0.148,-0.87 0.295,-1.74 0.443,-2.61 0.174,0.09 0.349,0.18 0.524,0.269 1.957,1.004 0.207,3.326 -1.744,2.326 l -0.525,-0.27 c -1.243,-0.637 -0.983,-2.579 0.442,-2.61 2.35,-0.049 5.466,0.571 6.181,2.997 0.673,2.287 -1.577,4.447 -3.9,4.909 -2.752,0.548 -5.798,-0.851 -7.311,-3.077 -1.872,-2.751 -0.735,-5.903 0.768,-8.262 1.563,-2.45 3.935,-4.018 7.496,-3.435 3.3,0.54 6.04,2.568 7.233,5.316 1.419,3.273 0.726,6.87 0.83,10.162 0.14,4.469 0.699,9.494 4.154,13.388 3.187,3.591 9.401,6.729 13.517,3.42 C 5.86,8.682 6.579,6.91 6.578,5.204 6.577,4.418 6.486,3.497 5.987,2.761 5.753,2.417 3.451,0.723 3.261,1.093 2.43,2.716 -0.843,1.643 0,0"
             style="fill:#f8ab00;fill-opacity:1;fill-rule:nonzero;stroke:none"
             id="path492"
             inkscape:connector-curvature="0" /></g><g
           id="g494"
           transform="translate(308.3721,408.2144)"><path
             d="m 0,0 -5.667,16.906 -1.811,5.401 -5.667,16.905 c -0.334,0.999 -1.58,1.482 -2.781,1.08 -1.201,-0.403 -1.902,-1.539 -1.568,-2.538 l 0.067,-0.201 c -4.124,-1.383 -7.711,-3.979 -9.937,-7.332 -1.469,-2.21 -2.811,-4.979 -3.318,-8.156 -0.691,-4.334 -4.131,-8.224 -8.965,-9.844 l -0.311,-0.104 c -3.162,-1.06 -6.544,-1.032 -9.402,0.078 l -3.238,1.257 c -1.399,0.543 -3.054,0.557 -4.601,0.038 l 2.366,-7.058 1.811,-5.401 2.366,-7.059 c 1.547,0.519 2.859,1.528 3.648,2.804 l 1.826,2.954 c 1.612,2.609 4.293,4.67 7.455,5.73 l 0.311,0.104 c 4.835,1.621 9.924,0.59 13.087,-2.451 2.32,-2.23 5.059,-3.63 7.563,-4.509 3.798,-1.333 8.225,-1.244 12.35,0.139 l 0.067,-0.201 C -4.014,-2.457 -2.77,-2.94 -1.568,-2.538 -0.367,-2.135 0.335,-0.999 0,0"
             style="fill:#f8ab00;fill-opacity:1;fill-rule:nonzero;stroke:none"
             id="path496"
             inkscape:connector-curvature="0" /></g><g
           id="g498"
           transform="translate(277.7832,422.5972)"><path
             d="m 0,0 c 1.654,1.681 4.473,5.525 6.066,7.359 2.158,2.48 5.324,4.57 8.909,5.974 0.435,0.17 10.856,-29.436 11.302,-29.286 l -9.978,29.766 -0.051,0.153 c -0.253,0.755 0.516,1.693 1.716,2.096 1.201,0.402 2.38,0.117 2.633,-0.639 l -3.153,9.406 c -0.335,0.999 -1.58,1.483 -2.781,1.08 -1.201,-0.403 -1.902,-1.539 -1.568,-2.538 L 13.162,23.17 C 9.038,21.788 5.451,19.191 3.225,15.838 1.756,13.628 0.414,10.859 -0.093,7.682 -0.784,3.349 -4.225,-0.542 -9.059,-2.162 l -0.31,-0.104 c -3.162,-1.06 -6.544,-1.032 -9.402,0.078 l -3.238,1.257 c -1.399,0.543 -3.054,0.557 -4.601,0.038 l 2.347,-7.003 c 1.547,0.519 4.433,0.809 7.246,1.234 0,0 14.28,3.88 17.017,6.662"
             style="fill:#d98e00;fill-opacity:1;fill-rule:nonzero;stroke:none"
             id="path500"
             inkscape:connector-curvature="0" /></g><g
           id="g502"
           transform="translate(293.2705,402.6831)"><path
             d="m 0,0 c -0.478,2.731 2.69,4.483 5.682,4.524 3.015,0.041 5.166,-1.917 6.294,-4.055 2.972,-5.638 -1.238,-12.277 -8.653,-13.842 -9.477,-1.999 -16.281,3.416 -20.982,9.238 -2.31,2.86 -5.09,9.181 -10.589,7.157 -3.474,-1.277 -3.14,-4.676 -2.336,-7.011 0.54,-1.568 2.028,-3.421 4.415,-2.431 2.301,0.953 2.008,4.198 -0.359,2.331 -0.407,0.782 -0.814,1.566 -1.221,2.348 0.194,0.034 0.388,0.068 0.581,0.102 2.167,0.378 2.17,-2.53 0.01,-2.907 -0.194,-0.034 -0.387,-0.068 -0.58,-0.101 -1.377,-0.241 -2.34,1.466 -1.221,2.348 1.846,1.457 4.705,2.84 6.738,1.334 1.915,-1.418 1.422,-4.498 -0.153,-6.267 -1.865,-2.096 -5.14,-2.814 -7.688,-1.951 -3.153,1.067 -4.145,4.268 -4.367,7.056 -0.23,2.897 0.718,5.577 3.91,7.258 2.96,1.558 6.368,1.593 8.976,0.118 3.106,-1.756 4.721,-5.044 6.787,-7.609 2.806,-3.481 6.28,-7.154 11.384,-8.179 4.707,-0.945 11.559,0.297 12.848,5.418 0.434,1.725 -0.061,3.573 -1.09,4.934 C 7.912,0.439 7.284,1.12 6.442,1.406 6.048,1.54 3.19,1.503 3.262,1.093 3.576,-0.703 0.318,-1.818 0,0"
             style="fill:#f8ab00;fill-opacity:1;fill-rule:nonzero;stroke:none"
             id="path504"
             inkscape:connector-curvature="0" /></g><g
           id="g506"
           transform="translate(288.126,418.2627)"><path
             d="M 0,0 C 0.017,0.045 0.037,0.086 0.061,0.126 0.037,0.086 0.019,0.043 0.003,-0.002 Z M 1.762,0.839 C 1.765,0.869 1.77,0.897 1.776,0.925 1.77,0.897 1.767,0.869 1.765,0.839 Z m -2.435,-6.463 c 0.069,0.045 0.13,0.099 0.179,0.16 1.139,-0.508 2.682,-0.086 3.13,0.25 l 0.002,-10e-4 c 0.008,0.007 0.017,0.015 0.025,0.022 0.02,0.017 0.036,0.033 0.05,0.047 0.083,0.093 0.14,0.2 0.17,0.313 1.313,-0.059 2.621,1.176 2.766,1.476 0.019,0.039 0.035,0.079 0.046,0.12 0.037,0.12 0.04,0.236 0.022,0.347 1.286,0.433 2.095,2.275 2.133,2.539 0.003,0.016 0.004,0.031 0.005,0.046 0.013,0.11 0.008,0.277 -0.126,0.498 1.047,0.848 1.313,3.048 1.3,3.506 H 9.03 C 9.029,3.705 9.029,3.711 9.028,3.717 9.027,3.736 9.025,3.75 9.023,3.761 8.997,3.905 8.929,4.039 8.833,4.145 8.617,4.391 8.275,4.533 8.043,4.606 7.525,4.769 7.024,4.713 6.601,4.454 6.28,5.167 5.666,5.631 4.83,5.776 4.666,5.816 4.488,5.803 4.324,5.727 4.079,5.613 3.922,5.385 3.889,5.133 L 3.867,5.047 C 3.778,4.697 3.597,3.978 3.595,3.256 3.416,3.182 3.274,3.042 3.195,2.87 L 3.189,2.873 C 3.031,2.646 2.679,2.138 2.471,1.526 2.163,1.505 1.892,1.3 1.795,0.998 1.853,1.178 1.963,1.306 2.025,1.349 1.809,1.212 1.335,0.916 0.956,0.455 0.796,0.508 0.626,0.505 0.472,0.454 0.479,0.456 0.489,0.463 0.496,0.465 0.239,0.427 -0.32,0.342 -0.838,0.063 -0.966,0.183 -1.127,0.251 -1.291,0.267 V 0.271 C -1.568,0.34 -2.193,0.495 -2.818,0.428 -2.829,0.454 -2.841,0.48 -2.854,0.505 -2.928,0.646 -3.04,0.755 -3.172,0.825 L -3.223,0.859 C -3.792,1.245 -4.538,1.696 -5.274,1.77 -5.968,1.834 -6.602,1.473 -7.013,0.779 -7.103,0.628 -7.168,0.492 -7.212,0.366 -7.814,-0.242 -7.986,-1.054 -7.7,-1.907 c 0.033,-0.097 0.07,-0.194 0.115,-0.292 0.479,-1.074 2.15,-2.399 3.054,-2.52 l -0.001,-0.017 c 0.073,-0.007 0.146,-0.002 0.218,0.014 0.037,0.005 0.071,0.013 0.103,0.024 0.044,0.015 0.086,0.034 0.125,0.057 0.884,-0.87 2.523,-1.23 3.214,-1.062 l 0.002,-0.008 c 0.042,0.012 0.083,0.028 0.121,0.047 0.028,0.012 0.054,0.026 0.076,0.04 M 4.954,9.366 C 5.443,9.414 5.878,9.67 6.193,10.11 6.338,10.312 6.53,10.639 6.549,10.972 6.56,11.108 6.533,11.249 6.473,11.375 6.468,11.384 6.46,11.397 6.451,11.411 6.447,11.417 6.443,11.423 6.439,11.43 H 6.437 c -0.267,0.379 -1.81,1.99 -3.152,2.021 -0.028,0.243 -0.116,0.378 -0.187,0.457 -0.013,0.015 -0.026,0.029 -0.039,0.042 -0.182,0.183 -1.968,1.169 -3.238,0.746 -0.052,0.098 -0.124,0.19 -0.225,0.262 -0.034,0.026 -0.071,0.048 -0.11,0.069 -0.297,0.152 -2.09,0.349 -3.097,-0.489 -0.092,0.071 -0.202,0.123 -0.323,0.146 -0.021,0.004 -0.044,0.006 -0.069,0.008 -0.011,0 -0.022,10e-4 -0.033,0.002 l -0.001,-0.002 c -0.56,-10e-4 -2.05,-0.597 -2.649,-1.686 -0.076,0.018 -0.157,0.025 -0.238,0.019 -0.027,-0.002 -0.055,-0.007 -0.085,-0.014 -0.043,-0.008 -0.084,-0.02 -0.125,-0.035 l 0.003,-0.008 c -0.654,-0.283 -1.746,-1.56 -1.926,-2.784 -0.045,-0.006 -0.089,-0.016 -0.132,-0.03 -0.034,-0.01 -0.066,-0.025 -0.098,-0.043 C -9.353,10.08 -9.414,10.04 -9.469,9.99 l 0.011,-0.012 c -0.647,-0.642 -1.184,-2.706 -0.918,-3.849 0.023,-0.105 0.052,-0.206 0.084,-0.304 0.287,-0.854 0.91,-1.397 1.76,-1.521 0.11,-0.074 0.246,-0.143 0.409,-0.21 0.747,-0.305 1.47,-0.211 1.987,0.261 0.539,0.499 0.863,1.309 1.084,1.96 l 0.021,0.058 c 0.062,0.135 0.087,0.291 0.06,0.447 -0.005,0.028 -0.01,0.055 -0.018,0.082 0.527,0.317 0.932,0.809 1.147,1.075 0.109,0.108 0.186,0.25 0.213,0.41 0.568,0.088 1.063,0.351 1.331,0.497 0.134,0.055 0.252,0.148 0.337,0.272 0.565,-0.134 1.118,-0.093 1.42,-0.066 0.151,-0.003 0.304,0.038 0.435,0.124 C 0.418,8.86 1.003,8.664 1.325,8.558 1.482,8.486 1.662,8.467 1.834,8.511 2.27,7.936 2.849,7.472 3.13,7.247 L 3.199,7.19 C 3.377,7.01 3.641,6.922 3.904,6.979 4.081,7.018 4.23,7.114 4.337,7.244 4.916,7.856 5.129,8.6 4.954,9.366"
             style="fill:#d98e00;fill-opacity:1;fill-rule:nonzero;stroke:none"
             id="path508"
             inkscape:connector-curvature="0" /></g><g
           id="g510"
           transform="translate(284.8848,430.1499)"><path
             d="M 0,0 C 0.02,-0.002 -0.678,1.067 -0.064,1.869 0.571,2.723 2.397,2.499 2.384,2.454 1.376,1.814 0.576,0.958 0,0"
             style="fill:#ffb31f;fill-opacity:1;fill-rule:nonzero;stroke:none"
             id="path512"
             inkscape:connector-curvature="0" /></g><g
           id="g514"
           transform="translate(286.9229,430.8477)"><path
             d="M 0,0 C -0.676,-0.539 -2.03,-0.664 -2.038,-0.698 -1.462,0.261 -0.662,1.117 0.346,1.756 0.366,1.748 0.694,0.57 0,0"
             style="fill:#ffc443;fill-opacity:1;fill-rule:nonzero;stroke:none"
             id="path516"
             inkscape:connector-curvature="0" /></g><g
           id="g518"
           transform="translate(284.9414,429.9756)"><path
             d="M 0,0 C -0.016,-0.011 0.187,-1.197 0.915,-1.625 1.613,-2.034 2.639,-1.835 2.66,-1.859 1.926,-1.09 1.022,-0.44 0,0"
             style="fill:#ffc443;fill-opacity:1;fill-rule:nonzero;stroke:none"
             id="path520"
             inkscape:connector-curvature="0" /></g><g
           id="g522"
           transform="translate(287.0342,429.9102)"><path
             d="m 0,0 c -0.781,0.653 -2.122,0.095 -2.093,0.065 1.023,-0.44 1.926,-1.09 2.66,-1.859 C 0.549,-1.799 0.741,-0.619 0,0"
             style="fill:#ffb31f;fill-opacity:1;fill-rule:nonzero;stroke:none"
             id="path524"
             inkscape:connector-curvature="0" /></g><g
           id="g526"
           transform="translate(287.5605,430.439)"><path
             d="M 0,0 C 0.021,-0.01 -0.397,1.227 0.436,1.705 1.301,2.226 3.108,1.268 3.085,1.229 1.876,1.084 0.836,0.635 0,0"
             style="fill:#ffb31f;fill-opacity:1;fill-rule:nonzero;stroke:none"
             id="path528"
             inkscape:connector-curvature="0" /></g><g
           id="g530"
           transform="translate(289.8154,430.2422)"><path
             d="M 0,0 C -0.841,-0.197 -2.239,0.225 -2.255,0.197 -1.419,0.832 -0.379,1.281 0.83,1.425 0.85,1.408 0.866,0.219 0,0"
             style="fill:#ffc443;fill-opacity:1;fill-rule:nonzero;stroke:none"
             id="path532"
             inkscape:connector-curvature="0" /></g><g
           id="g534"
           transform="translate(287.5713,430.2598)"><path
             d="M 0,0 C -0.019,-0.004 -0.132,-1.149 0.487,-1.822 1.079,-2.462 2.183,-2.711 2.199,-2.745 1.653,-1.746 0.91,-0.798 0,0"
             style="fill:#ffc443;fill-opacity:1;fill-rule:nonzero;stroke:none"
             id="path536"
             inkscape:connector-curvature="0" /></g><g
           id="g538"
           transform="translate(289.6748,429.3574)"><path
             d="M 0,0 C -0.625,0.914 -2.127,0.942 -2.104,0.902 -1.193,0.104 -0.45,-0.844 0.096,-1.843 0.076,-1.84 0.592,-0.864 0,0"
             style="fill:#ffb31f;fill-opacity:1;fill-rule:nonzero;stroke:none"
             id="path540"
             inkscape:connector-curvature="0" /></g><g
           id="g542"
           transform="translate(290.3584,429.6079)"><path
             d="M 0,0 C 0.019,-0.019 -0.077,1.268 0.912,1.335 1.943,1.436 3.587,-0.282 3.556,-0.315 2.236,0.147 1.033,0.21 0,0"
             style="fill:#ffb31f;fill-opacity:1;fill-rule:nonzero;stroke:none"
             id="path544"
             inkscape:connector-curvature="0" /></g><g
           id="g546"
           transform="translate(292.6523,428.415)"><path
             d="M 0,0 C -0.942,0.232 -2.271,1.215 -2.294,1.193 -1.261,1.403 -0.058,1.34 1.262,0.877 1.278,0.851 0.974,-0.221 0,0"
             style="fill:#ffc443;fill-opacity:1;fill-rule:nonzero;stroke:none"
             id="path548"
             inkscape:connector-curvature="0" /></g><g
           id="g550"
           transform="translate(290.3213,429.4429)"><path
             d="M 0,0 C -0.02,0.004 -0.448,-0.969 0.008,-1.838 0.442,-2.66 1.537,-3.41 1.549,-3.454 1.239,-2.288 0.721,-1.102 0,0"
             style="fill:#ffc443;fill-opacity:1;fill-rule:nonzero;stroke:none"
             id="path552"
             inkscape:connector-curvature="0" /></g><g
           id="g554"
           transform="translate(292.2656,427.6895)"><path
             d="M 0,0 C -0.416,1.125 -1.96,1.804 -1.944,1.753 -1.224,0.652 -0.705,-0.535 -0.396,-1.7 -0.415,-1.69 0.392,-1.061 0,0"
             style="fill:#ffb31f;fill-opacity:1;fill-rule:nonzero;stroke:none"
             id="path556"
             inkscape:connector-curvature="0" /></g><g
           id="g558"
           transform="translate(279.8135,423.3091)"><path
             d="M 0,0 C 0.011,0.019 -1.027,-0.04 -1.318,1.251 -1.635,2.616 -0.665,4.434 -0.642,4.378 -0.65,2.865 -0.42,1.375 0,0"
             style="fill:#ffb31f;fill-opacity:1;fill-rule:nonzero;stroke:none"
             id="path560"
             inkscape:connector-curvature="0" /></g><g
           id="g562"
           transform="translate(280.2246,426.1079)"><path
             d="M 0,0 C 0.065,-1.083 -0.436,-2.751 -0.411,-2.799 -0.831,-1.424 -1.062,0.066 -1.053,1.579 -1.038,1.593 -0.084,1.14 0,0"
             style="fill:#ffc443;fill-opacity:1;fill-rule:nonzero;stroke:none"
             id="path564"
             inkscape:connector-curvature="0" /></g><g
           id="g566"
           transform="translate(279.958,423.2529)"><path
             d="M 0,0 C 0.002,-0.03 0.906,-0.627 1.514,-0.073 2.096,0.465 2.418,1.704 2.443,1.705 1.59,1.451 0.738,0.906 0,0"
             style="fill:#ffc443;fill-opacity:1;fill-rule:nonzero;stroke:none"
             id="path568"
             inkscape:connector-curvature="0" /></g><g
           id="g570"
           transform="translate(280.917,425.582)"><path
             d="m 0,0 c -0.8,-0.375 -0.997,-2.327 -0.959,-2.329 0.738,0.906 1.59,1.451 2.443,1.705 C 1.479,-0.649 0.754,0.372 0,0"
             style="fill:#ffb31f;fill-opacity:1;fill-rule:nonzero;stroke:none"
             id="path572"
             inkscape:connector-curvature="0" /></g><g
           id="g574"
           transform="translate(280.7881,426.5103)"><path
             d="M 0,0 C 0.016,0.013 -1.018,0.425 -0.979,1.629 -0.947,2.9 0.465,4.066 0.475,4.014 0.082,2.694 -0.066,1.324 0,0"
             style="fill:#ffb31f;fill-opacity:1;fill-rule:nonzero;stroke:none"
             id="path576"
             inkscape:connector-curvature="0" /></g><g
           id="g578"
           transform="translate(281.8965,428.7031)"><path
             d="m 0,0 c -0.21,-0.978 -1.12,-2.149 -1.108,-2.193 -0.067,1.324 0.082,2.694 0.474,4.014 C -0.615,1.828 0.207,1.027 0,0"
             style="fill:#ffc443;fill-opacity:1;fill-rule:nonzero;stroke:none"
             id="path580"
             inkscape:connector-curvature="0" /></g><g
           id="g582"
           transform="translate(280.916,426.3989)"><path
             d="M 0,0 C -0.006,-0.024 0.731,-0.927 1.467,-0.738 2.172,-0.553 2.803,0.388 2.828,0.381 1.925,0.518 0.951,0.417 0,0"
             style="fill:#ffc443;fill-opacity:1;fill-rule:nonzero;stroke:none"
             id="path584"
             inkscape:connector-curvature="0" /></g><g
           id="g586"
           transform="translate(282.4443,427.9521)"><path
             d="M 0,0 C -0.882,0.004 -1.565,-1.542 -1.528,-1.553 -0.577,-1.136 0.396,-1.035 1.3,-1.172 1.289,-1.191 0.835,0.003 0,0"
             style="fill:#ffb31f;fill-opacity:1;fill-rule:nonzero;stroke:none"
             id="path588"
             inkscape:connector-curvature="0" /></g><g
           id="g590"
           transform="translate(282.5527,428.8154)"><path
             d="M 0,0 C 0.019,0.005 -0.894,0.797 -0.548,1.839 -0.194,2.941 1.502,3.426 1.498,3.377 0.768,2.348 0.271,1.187 0,0"
             style="fill:#ffb31f;fill-opacity:1;fill-rule:nonzero;stroke:none"
             id="path592"
             inkscape:connector-curvature="0" /></g><g
           id="g594"
           transform="translate(284.2061,430.3086)"><path
             d="m 0,0 c -0.461,-0.798 -1.654,-1.455 -1.653,-1.493 0.271,1.186 0.767,2.347 1.498,3.377 C -0.135,1.883 0.471,0.838 0,0"
             style="fill:#ffc443;fill-opacity:1;fill-rule:nonzero;stroke:none"
             id="path596"
             inkscape:connector-curvature="0" /></g><g
           id="g598"
           transform="translate(282.6504,428.6641)"><path
             d="M 0,0 C -0.012,-0.018 0.482,-1.12 1.254,-1.259 1.994,-1.392 2.86,-0.797 2.885,-0.812 2.026,-0.332 1.041,-0.033 0,0"
             style="fill:#ffc443;fill-opacity:1;fill-rule:nonzero;stroke:none"
             id="path600"
             inkscape:connector-curvature="0" /></g><g
           id="g602"
           transform="translate(284.5537,429.418)"><path
             d="M 0,0 C -0.871,0.349 -1.937,-0.733 -1.903,-0.754 -0.862,-0.787 0.123,-1.086 0.981,-1.566 0.966,-1.578 0.826,-0.328 0,0"
             style="fill:#ffb31f;fill-opacity:1;fill-rule:nonzero;stroke:none"
             id="path604"
             inkscape:connector-curvature="0" /></g><g
           id="g606"
           transform="translate(289.7061,415.7666)"><path
             d="M 0,0 C 0.015,0.014 0.103,-1.26 1.075,-1.53 2.097,-1.828 3.419,-0.548 3.382,-0.521 2.191,-0.619 1.038,-0.417 0,0"
             style="fill:#ffb31f;fill-opacity:1;fill-rule:nonzero;stroke:none"
             id="path608"
             inkscape:connector-curvature="0" /></g><g
           id="g610"
           transform="translate(291.7529,416.4385)"><path
             d="M 0,0 C -0.864,0.022 -2.021,-0.694 -2.047,-0.672 -1.009,-1.089 0.145,-1.291 1.335,-1.193 1.346,-1.174 0.898,-0.037 0,0"
             style="fill:#ffc443;fill-opacity:1;fill-rule:nonzero;stroke:none"
             id="path612"
             inkscape:connector-curvature="0" /></g><g
           id="g614"
           transform="translate(289.6465,415.9399)"><path
             d="M 0,0 C -0.02,-0.001 -0.572,1.067 -0.249,1.848 0.062,2.595 0.999,3.055 1.002,3.087 0.88,2.031 0.551,0.967 0,0"
             style="fill:#ffc443;fill-opacity:1;fill-rule:nonzero;stroke:none"
             id="path616"
             inkscape:connector-curvature="0" /></g><g
           id="g618"
           transform="translate(291.2764,417.2529)"><path
             d="m 0,0 c -0.229,-0.992 -1.635,-1.354 -1.63,-1.313 0.551,0.967 0.88,2.031 1.002,3.087 C -0.646,1.767 0.219,0.94 0,0"
             style="fill:#ffb31f;fill-opacity:1;fill-rule:nonzero;stroke:none"
             id="path620"
             inkscape:connector-curvature="0" /></g><g
           id="g622"
           transform="translate(292.0156,417.1489)"><path
             d="M 0,0 C 0.01,0.021 0.423,-1.219 1.375,-1.098 2.38,-0.993 3.244,0.862 3.202,0.879 2.15,0.265 1.05,-0.003 0,0"
             style="fill:#ffb31f;fill-opacity:1;fill-rule:nonzero;stroke:none"
             id="path624"
             inkscape:connector-curvature="0" /></g><g
           id="g626"
           transform="translate(293.6963,418.6646)"><path
             d="m 0,0 c -0.789,-0.349 -1.651,-1.529 -1.681,-1.516 1.05,-0.003 2.151,0.265 3.202,0.879 C 1.526,-0.611 0.823,0.348 0,0"
             style="fill:#ffc443;fill-opacity:1;fill-rule:nonzero;stroke:none"
             id="path628"
             inkscape:connector-curvature="0" /></g><g
           id="g630"
           transform="translate(291.917,417.2983)"><path
             d="M 0,0 C -0.018,-0.008 -0.799,0.837 -0.71,1.748 -0.624,2.615 0.106,3.479 0.1,3.516 0.267,2.39 0.245,1.185 0,0"
             style="fill:#ffc443;fill-opacity:1;fill-rule:nonzero;stroke:none"
             id="path632"
             inkscape:connector-curvature="0" /></g><g
           id="g634"
           transform="translate(293.0508,419.2861)"><path
             d="m 0,0 c 0.052,-1.106 -1.129,-2.034 -1.134,-1.988 0.245,1.185 0.267,2.39 0.1,3.516 C -1.048,1.514 -0.048,1.046 0,0"
             style="fill:#ffb31f;fill-opacity:1;fill-rule:nonzero;stroke:none"
             id="path636"
             inkscape:connector-curvature="0" /></g><g
           id="g638"
           transform="translate(293.748,419.4985)"><path
             d="M 0,0 C 0.003,0.026 0.702,-1.059 1.532,-0.516 2.415,0.025 2.691,2.386 2.646,2.395 1.873,1.23 0.95,0.455 0,0"
             style="fill:#ffb31f;fill-opacity:1;fill-rule:nonzero;stroke:none"
             id="path640"
             inkscape:connector-curvature="0" /></g><g
           id="g642"
           transform="translate(294.8594,421.8325)"><path
             d="m 0,0 c -0.612,-0.753 -1.081,-2.339 -1.111,-2.334 0.95,0.455 1.873,1.23 2.646,2.395 C 1.532,0.091 0.644,0.763 0,0"
             style="fill:#ffc443;fill-opacity:1;fill-rule:nonzero;stroke:none"
             id="path644"
             inkscape:connector-curvature="0" /></g><g
           id="g646"
           transform="translate(293.6182,419.6074)"><path
             d="M 0,0 C -0.014,-0.015 -0.941,0.502 -1.102,1.471 -1.25,2.389 -0.828,3.647 -0.846,3.689 -0.39,2.573 -0.089,1.313 0,0"
             style="fill:#ffc443;fill-opacity:1;fill-rule:nonzero;stroke:none"
             id="path648"
             inkscape:connector-curvature="0" /></g><g
           id="g650"
           transform="translate(294.1133,422.1787)"><path
             d="M 0,0 C 0.347,-1.149 -0.477,-2.621 -0.495,-2.571 -0.584,-1.258 -0.885,0.001 -1.341,1.118 -1.351,1.098 -0.327,1.083 0,0"
             style="fill:#ffb31f;fill-opacity:1;fill-rule:nonzero;stroke:none"
             id="path652"
             inkscape:connector-curvature="0" /></g><g
           id="g654"
           transform="translate(281.5361,418.1689)"><path
             d="M 0,0 C 0.021,-0.009 -0.844,-0.587 -0.297,-1.793 0.272,-3.073 2.143,-3.939 2.127,-3.881 1.209,-2.678 0.494,-1.35 0,0"
             style="fill:#ffb31f;fill-opacity:1;fill-rule:nonzero;stroke:none"
             id="path656"
             inkscape:connector-curvature="0" /></g><g
           id="g658"
           transform="translate(283.5518,416.1831)"><path
             d="M 0,0 C -0.601,0.904 -2.006,1.933 -2.016,1.986 -1.521,0.636 -0.808,-0.692 0.111,-1.895 0.132,-1.897 0.62,-0.96 0,0"
             style="fill:#ffc443;fill-opacity:1;fill-rule:nonzero;stroke:none"
             id="path660"
             inkscape:connector-curvature="0" /></g><g
           id="g662"
           transform="translate(281.6182,418.3008)"><path
             d="M 0,0 C -0.017,0.024 0.345,1.046 1.163,0.97 1.952,0.892 2.956,0.098 2.978,0.111 2.144,-0.2 1.135,-0.278 0,0"
             style="fill:#ffc443;fill-opacity:1;fill-rule:nonzero;stroke:none"
             id="path664"
             inkscape:connector-curvature="0" /></g><g
           id="g666"
           transform="translate(283.7871,417.02)"><path
             d="M 0,0 C -0.864,-0.182 -2.197,1.256 -2.169,1.281 -1.034,1.002 -0.025,1.081 0.809,1.392 0.79,1.41 0.826,0.158 0,0"
             style="fill:#ffb31f;fill-opacity:1;fill-rule:nonzero;stroke:none"
             id="path668"
             inkscape:connector-curvature="0" /></g><g
           id="g670"
           transform="translate(284.2441,416.2017)"><path
             d="M 0,0 C 0.02,0 -0.557,-0.953 0.2,-1.89 0.992,-2.885 2.821,-2.964 2.797,-2.917 1.689,-2.101 0.744,-1.096 0,0"
             style="fill:#ffb31f;fill-opacity:1;fill-rule:nonzero;stroke:none"
             id="path672"
             inkscape:connector-curvature="0" /></g><g
           id="g674"
           transform="translate(286.4502,415.1201)"><path
             d="M 0,0 C -0.757,0.654 -2.189,1.04 -2.206,1.082 -1.462,-0.015 -0.517,-1.019 0.591,-1.835 0.61,-1.83 0.783,-0.695 0,0"
             style="fill:#ffc443;fill-opacity:1;fill-rule:nonzero;stroke:none"
             id="path676"
             inkscape:connector-curvature="0" /></g><g
           id="g678"
           transform="translate(284.2783,416.3677)"><path
             d="M 0,0 C -0.019,0.016 0.024,1.181 0.726,1.473 1.4,1.75 2.471,1.38 2.487,1.4 1.849,0.747 1.011,0.241 0,0"
             style="fill:#ffc443;fill-opacity:1;fill-rule:nonzero;stroke:none"
             id="path680"
             inkscape:connector-curvature="0" /></g><g
           id="g682"
           transform="translate(286.4346,416.0493)"><path
             d="m 0,0 c -0.701,-0.535 -2.179,0.288 -2.156,0.318 1.01,0.241 1.848,0.747 2.487,1.401 C 0.311,1.727 0.668,0.5 0,0"
             style="fill:#ffb31f;fill-opacity:1;fill-rule:nonzero;stroke:none"
             id="path684"
             inkscape:connector-curvature="0" /></g><g
           id="g686"
           transform="translate(287.041,415.4258)"><path
             d="M 0,0 C 0.019,0.007 -0.232,-1.174 0.672,-1.798 1.617,-2.464 3.264,-1.829 3.231,-1.792 2.028,-1.411 0.932,-0.783 0,0"
             style="fill:#ffb31f;fill-opacity:1;fill-rule:nonzero;stroke:none"
             id="path688"
             inkscape:connector-curvature="0" /></g><g
           id="g690"
           transform="translate(289.2607,415.231)"><path
             d="M 0,0 C -0.849,0.359 -2.197,0.163 -2.22,0.195 -1.288,-0.588 -0.191,-1.216 1.012,-1.597 1.027,-1.584 0.881,-0.386 0,0"
             style="fill:#ffc443;fill-opacity:1;fill-rule:nonzero;stroke:none"
             id="path692"
             inkscape:connector-curvature="0" /></g><g
           id="g694"
           transform="translate(287.0273,415.605)"><path
             d="M 0,0 C -0.02,0.007 -0.289,1.185 0.242,1.761 0.753,2.313 1.803,2.36 1.813,2.387 1.417,1.487 0.812,0.654 0,0"
             style="fill:#ffc443;fill-opacity:1;fill-rule:nonzero;stroke:none"
             id="path696"
             inkscape:connector-curvature="0" /></g><g
           id="g698"
           transform="translate(289.001,416.1509)"><path
             d="M 0,0 C -0.484,-0.803 -1.988,-0.582 -1.974,-0.546 -1.162,0.108 -0.557,0.941 -0.16,1.841 -0.181,1.842 0.462,0.759 0,0"
             style="fill:#ffb31f;fill-opacity:1;fill-rule:nonzero;stroke:none"
             id="path700"
             inkscape:connector-curvature="0" /></g><g
           id="g702"
           transform="translate(255.6719,390.8628)"><path
             d="m 0,0 -12.955,38.646 6.41,2.148 L 6.409,2.148 Z"
             style="fill:#8e6c5c;fill-opacity:1;fill-rule:nonzero;stroke:none"
             id="path704"
             inkscape:connector-curvature="0" /></g><g
           id="g706"
           transform="translate(244.0991,435.3506)"><path
             d="M 0,0 16.197,-48.316 2.015,-53.07 -14.182,-4.754 Z"
             style="fill:#8e6c5c;fill-opacity:1;fill-rule:nonzero;stroke:none"
             id="path708"
             inkscape:connector-curvature="0" /></g><g
           id="g710"
           transform="translate(244.1538,426.418)"><path
             d="M 0,0 10.802,-32.223 3.074,-34.813 -7.728,-2.591 Z"
             style="fill:#ffc443;fill-opacity:1;fill-rule:nonzero;stroke:none"
             id="path712"
             inkscape:connector-curvature="0" /></g><g
           id="g714"
           transform="translate(296.96,268.4131)"><path
             d="m 0,0 c -3.56,0.766 -6.001,2.722 -7.646,4.803 l -6.492,-9.138 -6,25.333 c -1.786,7.147 -9.599,12.809 -17.143,16.742 -16.898,-5.033 -16.34,10.329 -16.023,13.342 -3.278,19.763 11.204,36.572 23.864,52.382 l -14.199,4.868 C -97.54,59.13 -102.522,-22.635 -102.522,-22.635 l 65.376,-9.699 c -10.158,12.165 1.342,18.832 -4.478,19.509 -1.233,0.144 1.766,2.545 1.986,3.657 0.21,1.053 -1.046,1.919 -0.745,2.858 2.398,7.481 7.245,11.308 7.245,11.308 0.376,-31.606 20.334,-38.667 20.334,-38.667 z"
             style="fill:#00c2b1;fill-opacity:1;fill-rule:nonzero;stroke:none"
             id="path716"
             inkscape:connector-curvature="0" /></g><g
           id="g718"
           transform="translate(237.125,265.8662)"><path
             d="M 0,0 C -0.638,0.368 -1.378,0.279 -1.655,-0.2 -1.931,-0.678 -1.638,-1.364 -1,-1.732 -0.362,-2.101 0.378,-2.011 0.655,-1.533 0.931,-1.055 0.638,-0.368 0,0 M 6.132,6.623 C 5.619,6.419 5.424,5.699 5.696,5.014 5.968,4.33 6.604,3.941 7.118,4.145 7.631,4.349 7.826,5.069 7.554,5.753 7.282,6.437 6.646,6.827 6.132,6.623 m 0.972,8.052 c -0.736,0 -1.333,-0.447 -1.333,-1 0,-0.552 0.597,-1 1.333,-1 0.737,0 1.334,0.448 1.334,1 0,0.553 -0.597,1 -1.334,1 m 0.65,8.734 C 7.916,23.937 7.477,24.54 6.773,24.756 6.069,24.973 5.367,24.72 5.205,24.192 5.042,23.664 5.481,23.061 6.186,22.845 6.89,22.628 7.591,22.881 7.754,23.409 m 3.081,8.347 c -0.704,0.217 -1.406,-0.036 -1.568,-0.564 -0.162,-0.528 0.277,-1.131 0.981,-1.347 0.704,-0.217 1.406,0.036 1.568,0.564 0.163,0.528 -0.277,1.131 -0.981,1.347"
             style="fill:#00dec7;fill-opacity:1;fill-rule:nonzero;stroke:none"
             id="path720"
             inkscape:connector-curvature="0" /></g><g
           id="g722"
           transform="translate(236.3711,256.2651)"><path
             d="M 0,0 -0.242,0.97 C 1.879,1.5 2.009,6.005 1.88,7.697 l -0.014,0.191 2.692,3.5 0.112,0.051 c 0.06,0.028 5.981,2.745 7.432,3.712 0.33,0.381 -0.593,2.955 -1.268,4.835 -1.154,3.222 -2.592,7.23 -2.455,10.52 0.221,5.285 3.904,8.305 5.116,9.159 l -1.548,3.354 0.511,0.186 c 0.027,0.009 2.688,0.983 3.858,1.92 0.169,0.135 0.192,0.25 0.191,0.345 -0.003,0.527 -0.8,1.319 -1.186,1.62 l 0.615,0.789 c 0.16,-0.124 1.563,-1.248 1.571,-2.401 0.003,-0.443 -0.193,-0.835 -0.566,-1.134 -0.976,-0.781 -2.76,-1.539 -3.634,-1.885 l 1.464,-3.171 -0.384,-0.231 C 14.339,39.028 9.614,36.111 9.378,30.464 9.25,27.37 10.65,23.463 11.776,20.324 c 1.189,-3.318 1.908,-5.32 0.88,-6.005 C 11.237,13.373 6.058,10.977 5.2,10.582 L 2.89,7.579 C 2.951,6.429 3.092,0.772 0,0"
             style="fill:#00ac9a;fill-opacity:1;fill-rule:nonzero;stroke:none"
             id="path724"
             inkscape:connector-curvature="0" /></g><g
           id="g726"
           transform="translate(290.6562,268.7446)"><path
             d="M 0,0 -13,-24.5 C -26.5,-6.25 -25.75,11 -25.75,11 -31.75,-18.25 -7,-32.75 -7,-32.75 l 10.75,29.5 z"
             style="fill:#00ac9a;fill-opacity:1;fill-rule:nonzero;stroke:none"
             id="path728"
             inkscape:connector-curvature="0" /></g><g
           id="g730"
           transform="translate(199.4893,248.0781)"><path
             d="M 0,0 C 0.333,-4 4.333,1.667 4.333,1.667 4.333,1.667 5,18 4.667,20 4.333,22 0,0 0,0"
             style="fill:#00ac9a;fill-opacity:1;fill-rule:nonzero;stroke:none"
             id="path732"
             inkscape:connector-curvature="0" /></g><g
           id="g734"
           transform="translate(254.4893,256.0781)"><path
             d="m 0,0 c -0.398,3.581 -68.333,36.167 1.5,101.5 0,0 -16.123,-5.188 -15.833,-1.333 0.5,6.666 3.783,11.095 3.783,11.095 C -21.875,98.828 -43.804,63.171 -37.583,33.417 -30.667,0.333 -10.5,-0.167 -10.5,-0.167 c 0,0 -15.5,5.167 -17.833,23.5 0,0 6.666,-16 28.333,-23.333"
             style="fill:#00ac9a;fill-opacity:1;fill-rule:nonzero;stroke:none"
             id="path736"
             inkscape:connector-curvature="0" /></g><g
           id="g738"
           transform="translate(248.2808,301.4946)"><path
             d="m 0,0 c 0.996,-0.337 -3.313,3.437 -3.875,5.375 -0.49,1.693 -0.156,3.118 0.271,4.095 -1.02,2.542 -1.163,5.341 -1.109,7.14 -2.38,-2.62 -9.912,-11.493 -9.912,-18.86 0,0 4.375,12.375 8.875,13.375 0,0 -2,-8.5 5.75,-11.125"
             style="fill:#00ac9a;fill-opacity:1;fill-rule:nonzero;stroke:none"
             id="path740"
             inkscape:connector-curvature="0" /></g><g
           id="g742"
           transform="translate(261.9062,279.7446)"><path
             d="M 0,0 C -7.5,-10.5 -18.75,-3 -18.75,-3 L -6.5,-17.5 c 0,0 3.25,9.75 8.25,14.25 l 3.75,10 C 5.5,6.75 1.571,2.201 0,0"
             style="fill:#00ac9a;fill-opacity:1;fill-rule:nonzero;stroke:none"
             id="path744"
             inkscape:connector-curvature="0" /></g><g
           id="g746"
           transform="translate(275.1562,262.9946)"><path
             d="M 0,0 7,3.25 -2.5,1 l 2,-9.25 z"
             style="fill:#00ac9a;fill-opacity:1;fill-rule:nonzero;stroke:none"
             id="path748"
             inkscape:connector-curvature="0" /></g><g
           id="g750"
           transform="translate(252.2812,306.6196)"><path
             d="M 0,0 0.625,1.25 4,2.75 8.188,1.187 l 2.687,-4 C 10.875,-2.813 3.313,-3 1.25,-2 -0.812,-1 0,0 0,0"
             style="fill:#00ac9a;fill-opacity:1;fill-rule:nonzero;stroke:none"
             id="path752"
             inkscape:connector-curvature="0" /></g><g
           id="g754"
           transform="translate(250.1558,305.9111)"><path
             d="m 0,0 5.667,3 2.083,-7.917 7.375,2.25 -0.375,5.75 -8.917,1.084 z"
             style="fill:#00dec7;fill-opacity:1;fill-rule:nonzero;stroke:none"
             id="path756"
             inkscape:connector-curvature="0" /></g><g
           id="g758"
           transform="translate(254.2812,305.9946)"><path
             d="m 0,0 c 0,0 16.5,-19.375 35.125,-8.125 0,0 -7.625,-10.125 -16.5,-8.25 -8.875,1.875 -18,10.5 -19.375,15.25 z"
             style="fill:#f77727;fill-opacity:1;fill-rule:nonzero;stroke:none"
             id="path760"
             inkscape:connector-curvature="0" /></g><g
           id="g762"
           transform="translate(252.3223,307.4111)"><path
             d="m 0,0 c 0,0 12.334,-37.333 45.334,-7 0,0 2.319,3.556 1.895,14.094 -0.024,0.561 -0.633,0.898 -1.116,0.61 L 36,1.667 c 0,0 -4.185,-23.174 -20.333,-17 C 4.334,-11 0,0 0,0"
             style="fill:#d14d00;fill-opacity:1;fill-rule:nonzero;stroke:none"
             id="path764"
             inkscape:connector-curvature="0" /></g><g
           id="g766"
           transform="translate(248.4058,307.1611)"><path
             d="m 0,0 c 0,0 3,2.333 4.667,1.333 1.666,-1 2.916,-2.916 2.916,-2.916 l -2,-1.917 c 0,0 -3.5,0.167 -5.583,3.5"
             style="fill:#d14d00;fill-opacity:1;fill-rule:nonzero;stroke:none"
             id="path768"
             inkscape:connector-curvature="0" /></g><g
           id="g770"
           transform="translate(246.8228,311.9111)"><path
             d="m 0,0 c 0,0 0,-3.333 3.333,-5.25 0,0 2.584,-1.417 1.167,-1.667 C 3.083,-7.167 0.833,-5.5 -0.167,-2.833 -1.167,-0.167 0,0 0,0"
             style="fill:#f77727;fill-opacity:1;fill-rule:nonzero;stroke:none"
             id="path772"
             inkscape:connector-curvature="0" /></g><g
           id="g774"
           transform="translate(248.2393,306.4946)"><path
             d="m 0,0 3.083,5.667 -6.666,8.083 -1,-0.5 C -4.583,13.25 -5.5,2.667 0,0"
             style="fill:#00dec7;fill-opacity:1;fill-rule:nonzero;stroke:none"
             id="path776"
             inkscape:connector-curvature="0" /></g><g
           id="g778"
           transform="translate(253.3213,376.7451)"><path
             d="M 0,0 14.198,-4.868 C 14.197,-4.869 14.196,-4.87 14.195,-4.872 20.042,2.431 25.557,8.238 28.862,11.56 l 6.098,0.94 2.333,2.708 1.708,-0.042 c 0,0 1.023,0.805 0.792,1.5 -0.75,2.25 -2.282,1.44 -2.875,2.625 -1.109,2.219 -2.331,4.702 -2.75,5.709 -0.649,1.558 -0.608,3.761 -2.833,3.5 C 18.585,27 23.835,18.5 20.696,15.578 12.077,10.318 4.396,4.265 -2.468,-2.309 -1.657,-1.532 -0.834,-0.762 0,0"
             style="fill:#f9c0a5;fill-opacity:1;fill-rule:nonzero;stroke:none"
             id="path780"
             inkscape:connector-curvature="0" /></g><g
           id="g782"
           transform="translate(301.4062,293.7446)"><path
             d="m 0,0 h -13.75 l -3.5,-4.5 c 0,0 0.25,-2.75 2.5,-3.25 1.01,-0.225 1.563,0.458 1.871,1.278 0.445,-3.058 3.852,-6.909 4.997,-8.13 l -4.21,-5.927 c 1.645,-2.081 4.086,-4.036 7.646,-4.803 l 3.696,9.719 C 1.75,-9.726 0,0 0,0"
             style="fill:#f9c0a5;fill-opacity:1;fill-rule:nonzero;stroke:none"
             id="path784"
             inkscape:connector-curvature="0" /></g><g
           id="g786"
           transform="translate(194.1558,250.0781)"><path
             d="M 0,0 C 0,0 19,18.667 64.935,1.807 L 63,-3.334 c 0,0 43.683,-20.046 54.837,-54.304 l -61.752,-25.068 5.842,-17.944 c 0,0 -2.466,-3.51 -7.312,1.678 -4.846,5.188 -13.392,24.507 -13.392,24.507 l 47.117,27.069 c 0,0 -24.868,22.35 -52.24,16.37 0,0 -29.334,-44.284 -17.535,-102.688 0,0 1.158,-28.491 -6.97,-27.078 -8.128,1.413 -3.339,26.879 -3.339,26.879 0,0 -25.886,56.453 -8.256,133.913"
             style="fill:#303030;fill-opacity:1;fill-rule:nonzero;stroke:none"
             id="path788"
             inkscape:connector-curvature="0" /></g><g
           id="g790"
           transform="translate(256.4893,382.4111)"><path
             d="m 0,0 c 0,0 7.667,9.333 15,-7.333 l -6.333,-9.334 c 0,0 -7,11.667 -17.334,8.334 z"
             style="fill:#00dec7;fill-opacity:1;fill-rule:nonzero;stroke:none"
             id="path792"
             inkscape:connector-curvature="0" /></g><g
           id="g794"
           transform="translate(287.8574,274.5781)"><path
             d="m 0,0 c 0,0 5.431,-6.167 11.465,-5.5 l -5.129,-14 c 0,0 -8.75,-0.167 -12.371,12.5 z"
             style="fill:#00dec7;fill-opacity:1;fill-rule:nonzero;stroke:none"
             id="path796"
             inkscape:connector-curvature="0" /></g><g
           id="g798"><g
             id="g800" /><g
             id="g812"><g
               clip-path="url(#clipPath804)"
               id="g810"
               style="opacity:0.19999701"><g
                 transform="translate(231.6665,65.7422)"
                 id="g808"><path
                   d="m 0,0 c -3.391,8.519 -6.151,17.282 -8.581,26.128 -2.413,8.853 -4.341,17.836 -5.922,26.877 l -1.049,6.806 -0.815,6.836 c -0.305,2.277 -0.47,4.567 -0.637,6.856 -0.151,2.291 -0.411,4.574 -0.433,6.872 -0.417,9.176 -0.008,18.373 1.067,27.474 l -0.415,-6.861 c -0.054,-1.142 -0.184,-2.281 -0.177,-3.426 l -0.01,-3.434 -0.03,-3.431 c -0.012,-1.143 -0.039,-2.287 0.036,-3.429 l 0.298,-6.855 c 0.622,-9.122 1.536,-18.234 3.15,-27.243 1.494,-9.024 3.43,-17.975 5.678,-26.847 1.132,-4.434 2.336,-8.851 3.653,-13.237 C -2.92,8.686 -1.5,4.33 0,0"
                   style="fill:#303030;fill-opacity:1;fill-rule:nonzero;stroke:none"
                   id="path806"
                   inkscape:connector-curvature="0" /></g></g></g></g><g
           id="g814"><g
             id="g816" /><g
             id="g828"><g
               clip-path="url(#clipPath820)"
               id="g826"
               style="opacity:0.19999701"><g
                 transform="translate(234.5229,83.5859)"
                 id="g824"><path
                   d="m 0,0 c -1.615,3.48 -2.98,7.071 -4.242,10.695 -1.267,3.623 -2.332,7.314 -3.35,11.015 -0.95,3.72 -1.81,7.466 -2.47,11.249 -0.691,3.776 -1.132,7.598 -1.408,11.42 0.38,-1.883 0.614,-3.781 1.03,-5.651 l 0.529,-2.819 0.604,-2.803 c 0.813,-3.733 1.66,-7.46 2.681,-11.141 C -5.693,18.26 -4.62,14.591 -3.514,10.932 -2.965,9.1 -2.393,7.274 -1.798,5.456 -1.231,3.628 -0.612,1.817 0,0"
                   style="fill:#303030;fill-opacity:1;fill-rule:nonzero;stroke:none"
                   id="path822"
                   inkscape:connector-curvature="0" /></g></g></g></g><g
           id="g830"><g
             id="g832" /><g
             id="g844"><g
               clip-path="url(#clipPath836)"
               id="g842"
               style="opacity:0.30000299"><g
                 transform="translate(215.8027,49.9883)"
                 id="g840"><path
                   d="M 0,0 C 0,1.941 15.311,3.516 34.197,3.516 53.084,3.516 68.395,1.941 68.395,0 68.395,-1.941 53.084,-3.516 34.197,-3.516 15.311,-3.516 0,-1.941 0,0"
                   style="fill:#303030;fill-opacity:1;fill-rule:nonzero;stroke:none"
                   id="path838"
                   inkscape:connector-curvature="0" /></g></g></g></g><g
           id="g846"><g
             id="g848" /><g
             id="g860"><g
               clip-path="url(#clipPath852)"
               id="g858"
               style="opacity:0.30000299"><g
                 transform="translate(314.3115,206.9756)"
                 id="g856"><path
                   d="m 0,0 c 2.075,-3.302 4.016,-6.673 5.939,-10.053 1.9,-3.392 3.759,-6.805 5.579,-10.239 l 0.474,-0.896 -0.939,-0.423 c -2.66,-1.197 -5.309,-2.42 -7.99,-3.573 -2.667,-1.18 -5.353,-2.317 -8.044,-3.444 -5.395,-2.227 -10.809,-4.408 -16.344,-6.32 5.128,2.826 10.376,5.384 15.643,7.895 2.64,1.243 5.285,2.475 7.949,3.664 2.65,1.217 5.334,2.364 8.004,3.536 l -0.464,-1.319 c -1.735,3.478 -3.43,6.975 -5.084,10.493 C 3.092,-7.148 1.478,-3.609 0,0"
                   style="fill:#303030;fill-opacity:1;fill-rule:nonzero;stroke:none"
                   id="path854"
                   inkscape:connector-curvature="0" /></g></g></g></g><g
           id="g862"
           transform="translate(160.0605,453.394)"><path
             d="m 0,0 c -2.366,2.358 -4.193,4.386 -4.292,7.887 -0.085,3.028 0.677,6.025 0.731,9.052 0.035,1.932 -2.965,1.932 -3,0 C -6.631,13.024 -7.906,8.953 -6.978,5.065 -6.265,2.081 -4.231,-0.019 -2.121,-2.122 -0.752,-3.486 1.37,-1.365 0,0"
             style="fill:#00c2b1;fill-opacity:1;fill-rule:nonzero;stroke:none"
             id="path864"
             inkscape:connector-curvature="0" /></g><g
           id="g866"
           transform="translate(168.8867,400.7319)"><path
             d="m 0,0 c -0.396,-1.024 -1.838,-1.843 -2.697,-2.419 -1.067,-0.716 -2.182,-1.352 -3.28,-2.018 -1.648,-1 -0.143,-3.595 1.514,-2.59 2.605,1.58 6.188,3.21 7.356,6.23 C 3.59,1.004 0.69,1.785 0,0"
             style="fill:#00c2b1;fill-opacity:1;fill-rule:nonzero;stroke:none"
             id="path868"
             inkscape:connector-curvature="0" /></g><g
           id="g870"
           transform="translate(111.6577,413.7275)"><path
             d="m 0,0 c -1.13,-1.434 -1.955,-3.246 -1.015,-5.002 1.011,-1.89 2.521,-1.651 4.194,-1.772 -0.165,-1.553 -1.305,-3.19 -1.469,-4.69 -0.162,-1.483 0.219,-2.579 1.238,-3.658 1.329,-1.405 3.448,0.719 2.122,2.122 -1.124,1.188 0.426,3.537 0.782,4.747 0.326,1.107 0.428,2.061 0.2,3.189 C 5.956,-4.584 5.48,-4.118 5.004,-4.017 3.641,-3.727 1.157,-4.347 2.15,-2.143 2.724,-0.869 5.585,1.5 6.948,0.212 8.351,-1.114 10.476,1.004 9.07,2.333 6.027,5.209 2.184,2.77 0,0"
             style="fill:#00c2b1;fill-opacity:1;fill-rule:nonzero;stroke:none"
             id="path872"
             inkscape:connector-curvature="0" /></g><g
           id="g874"
           transform="translate(349.2949,450.4185)"><path
             d="m 0,0 c 0.213,-0.066 0.427,-0.132 0.64,-0.198 0.307,-0.095 0.628,-0.066 0.917,0.047 0.07,-0.036 0.134,-0.069 0.153,-0.08 0.148,-0.102 0.167,-0.116 0.057,-0.041 0.074,-0.066 0.144,-0.135 0.211,-0.207 0.564,-0.582 1.554,-0.566 2.121,0 0.582,0.582 0.566,1.538 0,2.121 C 3.079,2.694 1.451,3.375 0,2.893 -1.401,2.428 -1.446,0.448 0,0"
             style="fill:#00c2b1;fill-opacity:1;fill-rule:nonzero;stroke:none"
             id="path876"
             inkscape:connector-curvature="0" /></g><g
           id="g878"
           transform="translate(353.8447,411.0601)"><path
             d="m 0,0 c -1.857,-0.708 -4.598,-2.08 -7.027,-2.511 1.881,1.948 4.695,3.868 6.581,4.338 1.873,0.466 1.079,3.36 -0.797,2.893 -2.399,-0.598 -4.076,-2.242 -6.007,-3.687 -1.668,-1.248 -3.089,-2.325 -4.035,-4.233 -0.418,-0.844 -0.095,-1.949 0.896,-2.203 2.409,-0.617 5.073,0.131 7.571,1.075 -0.856,-0.901 -1.798,-1.776 -2.237,-2.543 -0.982,-1.719 -2.036,-3.832 -1.957,-5.856 0.076,-1.924 3.076,-1.934 3,0 -0.189,4.831 5.991,6.851 5.91,11.28 C 1.883,-0.552 0.94,0.358 0,0"
             style="fill:#00c2b1;fill-opacity:1;fill-rule:nonzero;stroke:none"
             id="path880"
             inkscape:connector-curvature="0" /></g><g
           id="g882"
           transform="translate(376.5,355)"><path
             d="m 0,0 v 7.333 c 0,1.931 -3,1.934 -3,0 V 0 c 0,-1.93 3,-1.934 3,0"
             style="fill:#00c2b1;fill-opacity:1;fill-rule:nonzero;stroke:none"
             id="path884"
             inkscape:connector-curvature="0" /></g><g
           id="g886"
           transform="translate(386.333,330.5)"><path
             d="m 0,0 c -0.928,-0.028 -1.796,-0.373 -2.394,-1.106 -0.511,-0.627 -0.614,-1.508 0,-2.122 0.529,-0.527 1.607,-0.63 2.122,0 0.057,0.077 0.121,0.149 0.189,0.216 0.002,10e-4 0.003,10e-4 0.005,0.003 0.008,0.002 0.014,0.004 0.021,0.007 C -0.038,-3.001 -0.024,-3.001 0,-3 0.784,-2.976 1.537,-2.327 1.5,-1.5 1.465,-0.708 0.841,0.025 0,0"
             style="fill:#00c2b1;fill-opacity:1;fill-rule:nonzero;stroke:none"
             id="path888"
             inkscape:connector-curvature="0" /></g><g
           id="g890"
           transform="translate(106.7915,308.3643)"><path
             d="m 0,0 c -0.313,0.676 -0.841,1.246 -1.672,1.63 -0.846,0.392 -1.728,0.418 -2.627,0.591 -1.177,0.227 -2.283,0.555 -3.493,0.581 -1.931,0.043 -1.93,-2.957 0,-3 1.205,-0.026 2.354,-0.429 3.539,-0.61 0.809,-0.123 1.804,-0.08 1.645,-1.141 -0.192,-1.28 1.449,-2.777 2.507,-1.459 0.335,0.417 0.651,0.835 0.938,1.287 C 1.436,-1.177 0.823,-0.28 0,0"
             style="fill:#00c2b1;fill-opacity:1;fill-rule:nonzero;stroke:none"
             id="path892"
             inkscape:connector-curvature="0" /></g><g
           id="g894"
           transform="translate(159.2725,343.394)"><path
             d="m 0,0 -1.333,-1.333 c -0.573,-0.573 -0.573,-1.549 0,-2.122 0.575,-0.574 1.546,-0.574 2.121,0 0.444,0.445 0.889,0.889 1.334,1.333 0.572,0.574 0.572,1.549 0,2.122 C 1.547,0.575 0.575,0.575 0,0"
             style="fill:#00c2b1;fill-opacity:1;fill-rule:nonzero;stroke:none"
             id="path896"
             inkscape:connector-curvature="0" /></g><g
           id="g898"
           transform="translate(425.9346,456.4463)"><path
             d="m 0,0 c -3.259,-1.224 -7.041,-3.279 -8.12,-6.888 -1.055,-3.524 2.624,-5.362 5.453,-6.005 1.88,-0.427 2.683,2.465 0.798,2.893 -0.878,0.2 -1.844,0.413 -2.598,0.931 -1.126,0.772 -0.816,1.509 -0.105,2.538 1.269,1.838 3.336,2.875 5.37,3.638 C 2.588,-2.22 1.812,0.681 0,0"
             style="fill:#00c2b1;fill-opacity:1;fill-rule:nonzero;stroke:none"
             id="path900"
             inkscape:connector-curvature="0" /></g><g
           id="g902"
           transform="translate(433.7568,420.2954)"><path
             d="m 0,0 c -0.665,0.389 -1.688,0.189 -2.052,-0.539 -0.222,-0.444 -0.444,-0.888 -0.667,-1.333 -0.362,-0.724 -0.192,-1.625 0.538,-2.052 0.665,-0.389 1.689,-0.189 2.053,0.538 0.222,0.445 0.444,0.889 0.666,1.334 C 0.9,-1.328 0.731,-0.428 0,0"
             style="fill:#00c2b1;fill-opacity:1;fill-rule:nonzero;stroke:none"
             id="path904"
             inkscape:connector-curvature="0" /></g><g
           id="g906"
           transform="translate(421,330.5)"><path
             d="m 0,0 c -1.931,0 -1.934,-3 0,-3 1.931,0 1.934,3 0,3"
             style="fill:#00c2b1;fill-opacity:1;fill-rule:nonzero;stroke:none"
             id="path908"
             inkscape:connector-curvature="0" /></g><g
           id="g910"
           transform="translate(406.2207,268.0654)"><path
             d="m 0,0 c -0.223,-1.249 -0.289,-2.52 -0.468,-3.775 -0.154,-1.092 -0.263,-2.778 -1.146,-3.563 -1.447,-1.285 0.681,-3.401 2.121,-2.121 2.274,2.021 1.901,5.938 2.386,8.662 C 3.229,1.09 0.338,1.9 0,0"
             style="fill:#00c2b1;fill-opacity:1;fill-rule:nonzero;stroke:none"
             id="path912"
             inkscape:connector-curvature="0" /></g><g
           id="g914"
           transform="translate(348.2109,283.3022)"><path
             d="M 0,0 C 0.015,-0.009 0.031,-0.012 0.046,-0.021 0.036,-0.012 0.026,-0.003 0.014,0.007 0.011,0.006 0.007,0.002 0.004,0.001 0.003,0.001 0.002,0 0,0"
             style="fill:#00c2b1;fill-opacity:1;fill-rule:nonzero;stroke:none"
             id="path916"
             inkscape:connector-curvature="0" /></g><g
           id="g918"
           transform="translate(349.8701,282.7725)"><path
             d="M 0,0 C -0.458,0.126 -0.921,0.297 -1.383,0.4 -1.469,0.419 -1.542,0.464 -1.613,0.509 -1.379,0.274 -2.311,0.293 -1.659,0.53 -1.744,0.585 -1.826,0.644 -1.92,0.682 -1.784,0.626 -1.699,0.579 -1.646,0.537 -1.23,0.692 -0.728,1.264 -0.32,1.5 0.176,1.789 0.692,2.041 1.221,2.266 2.99,3.021 1.464,5.606 -0.294,4.856 -2.308,3.997 -6.097,1.82 -4.459,-0.887 c 0.683,-1.127 2.022,-1.551 3.217,-1.888 1.094,-0.308 2.382,-0.297 2.205,-1.664 -0.245,-1.91 2.757,-1.892 3,0 C 4.306,-1.779 2.229,-0.614 0,0"
             style="fill:#00c2b1;fill-opacity:1;fill-rule:nonzero;stroke:none"
             id="path920"
             inkscape:connector-curvature="0" /></g><g
           id="g922"
           transform="translate(139.2725,234.0605)"><path
             d="m 0,0 c -0.81,-0.744 -2.61,-0.25 -3.606,-0.228 -1.931,0.044 -1.931,-2.956 0,-3 2.037,-0.044 4.087,-0.401 5.728,1.107 C 3.546,-0.812 1.42,1.306 0,0"
             style="fill:#00c2b1;fill-opacity:1;fill-rule:nonzero;stroke:none"
             id="path924"
             inkscape:connector-curvature="0" /></g><g
           id="g926"
           transform="translate(209.9346,363.7798)"><path
             d="m 0,0 c -0.794,-0.163 -1.252,-1.101 -1.048,-1.845 0.213,-0.775 0.952,-1.144 1.701,-1.053 0.016,-0.008 0.022,-0.009 0.048,-0.022 -0.027,0.014 -0.034,0.018 -0.042,0.022 h 0.003 c 0.029,-0.014 0.087,-0.042 0.115,-0.056 0.265,-0.132 0.429,-0.259 0.626,-0.425 0.432,-0.366 0.829,-0.771 1.268,-1.128 0.628,-0.511 1.508,-0.614 2.122,0 0.527,0.528 0.631,1.608 0,2.121 C 3.363,-1.223 2.058,0.423 0,0"
             style="fill:#00c2b1;fill-opacity:1;fill-rule:nonzero;stroke:none"
             id="path928"
             inkscape:connector-curvature="0" /></g><g
           id="g930"
           transform="translate(227.6812,471.9858)"><path
             d="m 0,0 c -0.112,0.671 -0.834,1.063 -1.446,1.102 -1.389,0.085 -2.903,-0.65 -3.992,-1.459 -0.649,-0.482 -0.979,-1.299 -0.539,-2.053 0.375,-0.64 1.399,-1.024 2.053,-0.538 0.418,0.311 0.878,0.594 1.358,0.8 0.071,0.03 0.122,0.04 0.187,0.065 0.386,-0.333 0.962,-0.478 1.43,-0.349 0.847,0.233 1.182,1.043 1.048,1.845 C 0.066,-0.391 0.033,-0.196 0,0"
             style="fill:#00c2b1;fill-opacity:1;fill-rule:nonzero;stroke:none"
             id="path932"
             inkscape:connector-curvature="0" /></g><g
           id="g934"
           transform="translate(59.6665,455.8335)"><path
             d="m 0,0 c -1.878,0.065 -3.599,-0.717 -5.494,-0.694 -2.138,0.026 -4.24,-0.14 -6.185,0.894 -1.453,0.772 -3.115,-1.155 -1.818,-2.356 0.145,-0.135 0.291,-0.27 0.436,-0.405 0.365,-0.337 0.775,-0.445 1.161,-0.4 1.519,-0.551 3.039,-0.685 4.755,-0.704 1.243,-0.013 2.5,-0.116 3.735,0.055 1.167,0.162 2.214,0.652 3.41,0.61 1.931,-0.067 1.929,2.933 0,3"
             style="fill:#00c2b1;fill-opacity:1;fill-rule:nonzero;stroke:none"
             id="path936"
             inkscape:connector-curvature="0" /></g><g
           id="g938"
           transform="translate(53.5762,356.9619)"><path
             d="m 0,0 c -2.375,-1.615 -5.513,-2.729 -6.689,-5.563 -0.313,-0.754 0.338,-1.642 1.047,-1.845 0.86,-0.247 1.537,0.303 1.846,1.047 0.362,0.875 1.65,1.536 2.401,2.007 0.961,0.601 1.971,1.125 2.909,1.764 C 3.102,-1.511 1.603,1.09 0,0"
             style="fill:#00c2b1;fill-opacity:1;fill-rule:nonzero;stroke:none"
             id="path940"
             inkscape:connector-curvature="0" /></g><g
           id="g942"
           transform="translate(71.3989,249.1133)"><path
             d="m 0,0 c -1.971,0.268 -3.675,1.633 -5.732,1.387 -0.811,-0.097 -1.491,-0.62 -1.5,-1.5 -0.008,-0.737 0.696,-1.597 1.5,-1.5 1.714,0.205 3.26,-1.052 4.934,-1.28 0.809,-0.11 1.601,0.196 1.845,1.047 C 1.248,-1.147 0.802,-0.109 0,0"
             style="fill:#00c2b1;fill-opacity:1;fill-rule:nonzero;stroke:none"
             id="path944"
             inkscape:connector-curvature="0" /></g><g
           id="g946"
           transform="translate(379,207.833)"><path
             d="m 0,0 c -2.191,-0.293 -3.332,-1.966 -4.768,-3.463 -1.387,-1.447 -2.494,-2.836 -3.178,-4.652 -1.607,-0.531 -0.801,-3.168 1.011,-2.831 0.181,0.034 0.362,0.067 0.542,0.1 0.502,0.094 0.916,0.577 1.048,1.048 0.449,1.612 1.263,2.741 2.418,3.931 0.684,0.705 1.902,2.73 2.927,2.867 1.886,0.253 1.91,3.257 0,3"
             style="fill:#00c2b1;fill-opacity:1;fill-rule:nonzero;stroke:none"
             id="path948"
             inkscape:connector-curvature="0" /></g><g
           id="g950"
           transform="translate(386.4238,158.2949)"><path
             d="M 0,0 C -0.889,0.444 -1.777,0.889 -2.667,1.334 -3.391,1.695 -4.291,1.526 -4.719,0.796 -5.108,0.131 -4.908,-0.893 -4.181,-1.257 L -1.515,-2.59 C -0.79,-2.952 0.11,-2.783 0.538,-2.052 0.927,-1.387 0.728,-0.363 0,0"
             style="fill:#00c2b1;fill-opacity:1;fill-rule:nonzero;stroke:none"
             id="path952"
             inkscape:connector-curvature="0" /></g><g
           id="g954"
           transform="translate(423.7051,216.4238)"><path
             d="m 0,0 c -1.235,-2.085 -2.882,-3.849 -4.433,-5.696 -1.232,-1.47 0.879,-3.603 2.121,-2.121 1.713,2.04 3.538,4.001 4.902,6.302 C 3.576,0.15 0.984,1.661 0,0"
             style="fill:#00c2b1;fill-opacity:1;fill-rule:nonzero;stroke:none"
             id="path956"
             inkscape:connector-curvature="0" /></g><g
           id="g958"
           transform="translate(457.2725,346.0605)"><path
             d="m 0,0 c -1.575,-1.562 -1.122,-3.738 -1.105,-5.727 0.014,-1.93 3.014,-1.934 3,0 -0.008,0.963 -0.534,2.852 0.226,3.606 C 3.494,-0.759 1.373,1.362 0,0"
             style="fill:#00c2b1;fill-opacity:1;fill-rule:nonzero;stroke:none"
             id="path960"
             inkscape:connector-curvature="0" /></g><g
           id="g962"
           transform="translate(69,164.5)"><path
             d="m 0,0 h -6 c -1.93,0 -1.934,-3 0,-3 h 6 c 1.93,0 1.934,3 0,3"
             style="fill:#00c2b1;fill-opacity:1;fill-rule:nonzero;stroke:none"
             id="path964"
             inkscape:connector-curvature="0" /></g><g
           id="g966"
           transform="translate(113.5,169)"><path
             d="m 0,0 c 0.023,-5.163 0.995,-10.583 -1.795,-15.243 -0.995,-1.66 1.598,-3.171 2.59,-1.514 C 3.901,-11.57 3.026,-5.769 3,0 2.991,1.93 -0.009,1.934 0,0"
             style="fill:#00c2b1;fill-opacity:1;fill-rule:nonzero;stroke:none"
             id="path968"
             inkscape:connector-curvature="0" /></g><g
           id="g970"
           transform="translate(109,118.5)"><path
             d="m 0,0 c -1.93,0 -1.934,-3 0,-3 1.93,0 1.934,3 0,3"
             style="fill:#00c2b1;fill-opacity:1;fill-rule:nonzero;stroke:none"
             id="path972"
             inkscape:connector-curvature="0" /></g></g></g></g></svg>