<?xml version="1.0" encoding="utf-8" ?>
<svg xmlns="http://www.w3.org/2000/svg" xmlns:xlink="http://www.w3.org/1999/xlink" width="5200" height="1865">
	<rect fill="none" stroke="rgb(155,155,155)" stroke-width="2" stroke-miterlimit="4" stroke-opacity="0.39215687" width="5200" height="1865"/>
	<rect fill="rgb(255,255,255)" stroke="none" width="5200" height="1865"/>
	<text fill="rgb(127,127,127)" stroke="none" font-size="14" font-family="Segoe UI" x="0" y="-7">
			Subtle_Devices
	</text>
	<text fill="rgb(189,189,189)" stroke="none" font-size="14" font-family="Segoe UI" x="95.655273" y="-7">
			5200×1865
	</text>
	<defs>
		<clipPath id="clip_0">
			<rect width="5200" height="1865" clip-rule="evenodd"/>
		</clipPath>
	</defs>
	<g clip-path="url(#clip_0)">
		<path fill="rgb(234,239,241)" stroke="none" transform="translate(1527 681)" d="M417 807.836C417 843.272 388.241 872 352.765 872L64.2348 872C28.7593 872 0 843.272 0 807.836L0 64.164C0 28.7276 28.7593 0 64.2348 0L352.765 0C388.241 0 417 28.7276 417 64.164L417 807.836Z"/>
	</g>
	<defs>
		<clipPath id="clip_1">
			<rect width="5200" height="1865" clip-rule="evenodd"/>
		</clipPath>
	</defs>
	<g clip-path="url(#clip_1)">
		<path fill="none" stroke="rgb(203,210,212)" stroke-width="6" stroke-miterlimit="4" transform="translate(1527 681)" d="M417 807.836C417 843.272 388.241 872 352.765 872L64.2348 872C28.7593 872 0 843.272 0 807.836L0 64.164C0 28.7276 28.7593 0 64.2348 0L352.765 0C388.241 0 417 28.7276 417 64.164L417 807.836L417 807.836Z"/>
	</g>
	<defs>
		<clipPath id="clip_2">
			<rect width="5200" height="1865" clip-rule="evenodd"/>
		</clipPath>
	</defs>
	<g clip-path="url(#clip_2)">
		<path fill="rgb(221,227,229)" stroke="none" transform="translate(1546 783)" d="M379 668.893C379 670.057 378.055 671 376.889 671L2.11142 671C0.944861 671 0 670.057 0 668.893L0 2.10675C0 0.942771 0.944861 0 2.11142 0L376.889 0C378.055 0 379 0.942771 379 2.10675L379 668.893Z"/>
	</g>
	<defs>
		<clipPath id="clip_3">
			<rect width="5200" height="1865" clip-rule="evenodd"/>
		</clipPath>
	</defs>
	<g clip-path="url(#clip_3)">
		<path fill="rgb(186,193,195)" stroke="none" transform="translate(1701 731)" d="M70 4C70 6.20933 68.5311 8 66.7188 8L3.28125 8C1.46891 8 0 6.20933 0 4C0 1.79067 1.46891 0 3.28125 0L66.7188 0C68.5311 0 70 1.79067 70 4"/>
	</g>
	<defs>
		<clipPath id="clip_4">
			<rect width="5200" height="1865" clip-rule="evenodd"/>
		</clipPath>
	</defs>
	<g clip-path="url(#clip_4)">
		<path fill="rgb(186,193,195)" stroke="none" transform="translate(1664 730)" d="M5 10C2.243 10 0 7.757 0 5C0 2.243 2.243 0 5 0C7.757 0 10 2.243 10 5C10 7.757 7.757 10 5 10"/>
	</g>
	<defs>
		<clipPath id="clip_5">
			<rect width="5200" height="1865" clip-rule="evenodd"/>
		</clipPath>
	</defs>
	<g clip-path="url(#clip_5)">
		<path fill="rgb(208,215,218)" stroke="none" transform="translate(1661 727)" d="M8 0C3.58857 0 0 3.58857 0 8C0 12.4114 3.58857 16 8 16C12.4114 16 16 12.4114 16 8C16 3.58857 12.4114 0 8 0M8 4.57143C9.89371 4.57143 11.4286 6.10629 11.4286 8C11.4286 9.89371 9.89371 11.4286 8 11.4286C6.10629 11.4286 4.57143 9.89371 4.57143 8C4.57143 6.10629 6.10629 4.57143 8 4.57143"/>
	</g>
	<defs>
		<clipPath id="clip_6">
			<rect width="5200" height="1865" clip-rule="evenodd"/>
		</clipPath>
	</defs>
	<g clip-path="url(#clip_6)">
		<path fill="rgb(186,193,195)" stroke="none" transform="translate(1731 701)" d="M10 5C10 2.23889 7.76111 0 5 0C2.23889 0 0 2.23889 0 5C0 7.76111 2.23889 10 5 10C7.76111 10 10 7.76111 10 5"/>
	</g>
	<defs>
		<clipPath id="clip_7">
			<rect width="5200" height="1865" clip-rule="evenodd"/>
		</clipPath>
	</defs>
	<g clip-path="url(#clip_7)">
		<path fill="rgb(234,239,241)" stroke="none" transform="translate(1709 1472)" d="M54 27C54 12.0883 41.9117 0 27 0C12.0883 0 0 12.0883 0 27C0 41.9117 12.0883 54 27 54C41.9117 54 54 41.9117 54 27"/>
	</g>
	<defs>
		<clipPath id="clip_8">
			<rect width="5200" height="1865" clip-rule="evenodd"/>
		</clipPath>
	</defs>
	<g clip-path="url(#clip_8)">
		<path fill="none" stroke="rgb(203,210,212)" stroke-width="4" stroke-miterlimit="4" transform="translate(1709 1472)" d="M54 27C54 12.0883 41.9117 0 27 0C12.0883 0 0 12.0883 0 27C0 41.9117 12.0883 54 27 54C41.9117 54 54 41.9117 54 27"/>
	</g>
	<defs>
		<clipPath id="clip_9">
			<rect width="5200" height="1865" clip-rule="evenodd"/>
		</clipPath>
	</defs>
	<g clip-path="url(#clip_9)">
		<path fill="rgb(52,52,52)" stroke="none" transform="translate(1548 785)" d="M375 664.906C375 666.063 374.065 667 372.911 667L2.08914 667C0.934889 667 0 666.063 0 664.906L0 2.09419C0 0.937151 0.934889 0 2.08914 0L372.911 0C374.065 0 375 0.937151 375 2.09419L375 664.906Z"/>
	</g>
	<defs>
		<clipPath id="clip_10">
			<rect width="5200" height="1865" clip-rule="evenodd"/>
		</clipPath>
	</defs>
	<g clip-path="url(#clip_10)">
		<path fill="rgb(234,239,241)" stroke="none" transform="translate(369 310)" d="M59 0L819 0Q820.511 0 822.012 0.0687793Q823.513 0.137559 825.001 0.274977Q826.489 0.412395 827.961 0.618172Q829.432 0.823948 830.885 1.09766Q832.337 1.37138 833.768 1.71248Q835.198 2.05357 836.603 2.46135Q838.008 2.86913 839.385 3.34277Q840.762 3.8164 842.108 4.35492Q843.455 4.89344 844.767 5.49575Q846.08 6.09805 847.357 6.76292Q848.633 7.42779 849.871 8.15386Q851.109 8.87992 852.305 9.66571Q853.501 10.4515 854.654 11.2954Q855.807 12.1393 856.913 13.0396Q858.019 13.9399 859.077 14.8948Q860.135 15.8497 861.143 16.8571Q862.15 17.8646 863.105 18.9227Q864.06 19.9807 864.96 21.0871Q865.861 22.1936 866.705 23.3461Q867.549 24.4987 868.334 25.6951Q869.12 26.8914 869.846 28.1291Q870.572 29.3669 871.237 30.6434Q871.902 31.9199 872.505 33.2327Q873.107 34.5454 873.645 35.8917Q874.184 37.238 874.657 38.6151Q875.131 39.9922 875.539 41.3973Q875.947 42.8024 876.288 44.2326Q876.629 45.6628 876.902 47.1152Q877.176 48.5676 877.382 50.0392Q877.588 51.5109 877.725 52.9988Q877.862 54.4866 877.931 55.9877Q878 57.4888 878 59L878 1184Q878 1185.51 877.931 1187.01Q877.862 1188.51 877.725 1190Q877.588 1191.49 877.382 1192.96Q877.176 1194.43 876.902 1195.88Q876.629 1197.34 876.288 1198.77Q875.947 1200.2 875.539 1201.6Q875.131 1203.01 874.657 1204.39Q874.184 1205.76 873.645 1207.11Q873.107 1208.45 872.505 1209.77Q871.902 1211.08 871.237 1212.36Q870.572 1213.63 869.846 1214.87Q869.12 1216.11 868.334 1217.31Q867.549 1218.5 866.705 1219.65Q865.861 1220.81 864.96 1221.91Q864.06 1223.02 863.105 1224.08Q862.15 1225.14 861.143 1226.14Q860.135 1227.15 859.077 1228.11Q858.019 1229.06 856.913 1229.96Q855.807 1230.86 854.654 1231.7Q853.501 1232.55 852.305 1233.33Q851.109 1234.12 849.871 1234.85Q848.633 1235.57 847.357 1236.24Q846.08 1236.9 844.767 1237.5Q843.455 1238.11 842.108 1238.65Q840.762 1239.18 839.385 1239.66Q838.008 1240.13 836.603 1240.54Q835.198 1240.95 833.768 1241.29Q832.337 1241.63 830.885 1241.9Q829.432 1242.18 827.961 1242.38Q826.489 1242.59 825.001 1242.72Q823.513 1242.86 822.012 1242.93Q820.511 1243 819 1243L59 1243Q57.4888 1243 55.9877 1242.93Q54.4866 1242.86 52.9988 1242.72Q51.5109 1242.59 50.0392 1242.38Q48.5676 1242.18 47.1152 1241.9Q45.6628 1241.63 44.2326 1241.29Q42.8024 1240.95 41.3973 1240.54Q39.9922 1240.13 38.6151 1239.66Q37.238 1239.18 35.8917 1238.65Q34.5454 1238.11 33.2327 1237.5Q31.9199 1236.9 30.6434 1236.24Q29.3669 1235.57 28.1292 1234.85Q26.8914 1234.12 25.6951 1233.33Q24.4987 1232.55 23.3461 1231.7Q22.1936 1230.86 21.0871 1229.96Q19.9807 1229.06 18.9227 1228.11Q17.8646 1227.15 16.8571 1226.14Q15.8497 1225.14 14.8948 1224.08Q13.9399 1223.02 13.0396 1221.91Q12.1393 1220.81 11.2954 1219.65Q10.4515 1218.5 9.66571 1217.31Q8.87992 1216.11 8.15386 1214.87Q7.42779 1213.63 6.76292 1212.36Q6.09805 1211.08 5.49575 1209.77Q4.89344 1208.45 4.35492 1207.11Q3.8164 1205.76 3.34277 1204.39Q2.86913 1203.01 2.46135 1201.6Q2.05357 1200.2 1.71248 1198.77Q1.37138 1197.34 1.09766 1195.88Q0.823948 1194.43 0.618172 1192.96Q0.412395 1191.49 0.274977 1190Q0.137559 1188.51 0.0687793 1187.01Q0 1185.51 0 1184L0 59Q0 57.4888 0.0687793 55.9877Q0.137559 54.4866 0.274977 52.9988Q0.412395 51.5109 0.618172 50.0392Q0.823948 48.5676 1.09766 47.1152Q1.37138 45.6628 1.71248 44.2326Q2.05357 42.8024 2.46135 41.3973Q2.86913 39.9922 3.34277 38.6151Q3.8164 37.238 4.35492 35.8917Q4.89344 34.5454 5.49575 33.2327Q6.09805 31.9199 6.76292 30.6434Q7.42779 29.3669 8.15386 28.1292Q8.87992 26.8914 9.66571 25.6951Q10.4515 24.4987 11.2954 23.3461Q12.1393 22.1936 13.0396 21.0871Q13.9399 19.9807 14.8948 18.9227Q15.8497 17.8646 16.8571 16.8571Q17.8646 15.8497 18.9227 14.8948Q19.9807 13.9399 21.0871 13.0396Q22.1936 12.1393 23.3461 11.2954Q24.4987 10.4515 25.6951 9.66571Q26.8914 8.87992 28.1291 8.15386Q29.3669 7.42779 30.6434 6.76292Q31.9199 6.09805 33.2327 5.49575Q34.5454 4.89344 35.8917 4.35492Q37.238 3.8164 38.6151 3.34277Q39.9922 2.86913 41.3973 2.46135Q42.8024 2.05357 44.2326 1.71248Q45.6628 1.37138 47.1152 1.09766Q48.5676 0.823948 50.0392 0.618172Q51.5109 0.412395 52.9988 0.274977Q54.4866 0.137559 55.9877 0.0687793Q57.4888 0 59 0Z"/>
	</g>
	<defs>
		<clipPath id="clip_11">
			<rect width="5200" height="1865" clip-rule="evenodd"/>
		</clipPath>
	</defs>
	<g clip-path="url(#clip_11)">
		<path fill="none" stroke="rgb(203,210,212)" stroke-width="6" stroke-miterlimit="4" transform="translate(369 310)" d="M59 0L819 0Q820.511 0 822.012 0.0687793Q823.513 0.137559 825.001 0.274977Q826.489 0.412395 827.961 0.618172Q829.432 0.823948 830.885 1.09766Q832.337 1.37138 833.768 1.71248Q835.198 2.05357 836.603 2.46135Q838.008 2.86913 839.385 3.34277Q840.762 3.8164 842.108 4.35492Q843.455 4.89344 844.767 5.49575Q846.08 6.09805 847.357 6.76292Q848.633 7.42779 849.871 8.15386Q851.109 8.87992 852.305 9.66571Q853.501 10.4515 854.654 11.2954Q855.807 12.1393 856.913 13.0396Q858.019 13.9399 859.077 14.8948Q860.135 15.8497 861.143 16.8571Q862.15 17.8646 863.105 18.9227Q864.06 19.9807 864.96 21.0871Q865.861 22.1936 866.705 23.3461Q867.549 24.4987 868.334 25.6951Q869.12 26.8914 869.846 28.1291Q870.572 29.3669 871.237 30.6434Q871.902 31.9199 872.505 33.2327Q873.107 34.5454 873.645 35.8917Q874.184 37.238 874.657 38.6151Q875.131 39.9922 875.539 41.3973Q875.947 42.8024 876.288 44.2326Q876.629 45.6628 876.902 47.1152Q877.176 48.5676 877.382 50.0392Q877.588 51.5109 877.725 52.9988Q877.862 54.4866 877.931 55.9877Q878 57.4888 878 59L878 1184Q878 1185.51 877.931 1187.01Q877.862 1188.51 877.725 1190Q877.588 1191.49 877.382 1192.96Q877.176 1194.43 876.902 1195.88Q876.629 1197.34 876.288 1198.77Q875.947 1200.2 875.539 1201.6Q875.131 1203.01 874.657 1204.39Q874.184 1205.76 873.645 1207.11Q873.107 1208.45 872.505 1209.77Q871.902 1211.08 871.237 1212.36Q870.572 1213.63 869.846 1214.87Q869.12 1216.11 868.334 1217.31Q867.549 1218.5 866.705 1219.65Q865.861 1220.81 864.96 1221.91Q864.06 1223.02 863.105 1224.08Q862.15 1225.14 861.143 1226.14Q860.135 1227.15 859.077 1228.11Q858.019 1229.06 856.913 1229.96Q855.807 1230.86 854.654 1231.7Q853.501 1232.55 852.305 1233.33Q851.109 1234.12 849.871 1234.85Q848.633 1235.57 847.357 1236.24Q846.08 1236.9 844.767 1237.5Q843.455 1238.11 842.108 1238.65Q840.762 1239.18 839.385 1239.66Q838.008 1240.13 836.603 1240.54Q835.198 1240.95 833.768 1241.29Q832.337 1241.63 830.885 1241.9Q829.432 1242.18 827.961 1242.38Q826.489 1242.59 825.001 1242.72Q823.513 1242.86 822.012 1242.93Q820.511 1243 819 1243L59 1243Q57.4888 1243 55.9877 1242.93Q54.4866 1242.86 52.9988 1242.72Q51.5109 1242.59 50.0392 1242.38Q48.5676 1242.18 47.1152 1241.9Q45.6628 1241.63 44.2326 1241.29Q42.8024 1240.95 41.3973 1240.54Q39.9922 1240.13 38.6151 1239.66Q37.238 1239.18 35.8917 1238.65Q34.5454 1238.11 33.2327 1237.5Q31.9199 1236.9 30.6434 1236.24Q29.3669 1235.57 28.1292 1234.85Q26.8914 1234.12 25.6951 1233.33Q24.4987 1232.55 23.3461 1231.7Q22.1936 1230.86 21.0871 1229.96Q19.9807 1229.06 18.9227 1228.11Q17.8646 1227.15 16.8571 1226.14Q15.8497 1225.14 14.8948 1224.08Q13.9399 1223.02 13.0396 1221.91Q12.1393 1220.81 11.2954 1219.65Q10.4515 1218.5 9.66571 1217.31Q8.87992 1216.11 8.15386 1214.87Q7.42779 1213.63 6.76292 1212.36Q6.09805 1211.08 5.49575 1209.77Q4.89344 1208.45 4.35492 1207.11Q3.8164 1205.76 3.34277 1204.39Q2.86913 1203.01 2.46135 1201.6Q2.05357 1200.2 1.71248 1198.77Q1.37138 1197.34 1.09766 1195.88Q0.823948 1194.43 0.618172 1192.96Q0.412395 1191.49 0.274977 1190Q0.137559 1188.51 0.0687793 1187.01Q0 1185.51 0 1184L0 59Q0 57.4888 0.0687793 55.9877Q0.137559 54.4866 0.274977 52.9988Q0.412395 51.5109 0.618172 50.0392Q0.823948 48.5676 1.09766 47.1152Q1.37138 45.6628 1.71248 44.2326Q2.05357 42.8024 2.46135 41.3973Q2.86913 39.9922 3.34277 38.6151Q3.8164 37.238 4.35492 35.8917Q4.89344 34.5454 5.49575 33.2327Q6.09805 31.9199 6.76292 30.6434Q7.42779 29.3669 8.15386 28.1292Q8.87992 26.8914 9.66571 25.6951Q10.4515 24.4987 11.2954 23.3461Q12.1393 22.1936 13.0396 21.0871Q13.9399 19.9807 14.8948 18.9227Q15.8497 17.8646 16.8571 16.8571Q17.8646 15.8497 18.9227 14.8948Q19.9807 13.9399 21.0871 13.0396Q22.1936 12.1393 23.3461 11.2954Q24.4987 10.4515 25.6951 9.66571Q26.8914 8.87992 28.1291 8.15386Q29.3669 7.42779 30.6434 6.76292Q31.9199 6.09805 33.2327 5.49575Q34.5454 4.89344 35.8917 4.35492Q37.238 3.8164 38.6151 3.34277Q39.9922 2.86913 41.3973 2.46135Q42.8024 2.05357 44.2326 1.71248Q45.6628 1.37138 47.1152 1.09766Q48.5676 0.823948 50.0392 0.618172Q51.5109 0.412395 52.9988 0.274977Q54.4866 0.137559 55.9877 0.0687793Q57.4888 0 59 0Z"/>
	</g>
	<defs>
		<clipPath id="clip_12">
			<rect width="5200" height="1865" clip-rule="evenodd"/>
		</clipPath>
	</defs>
	<g clip-path="url(#clip_12)">
		<path fill="rgb(221,227,229)" stroke="none" transform="translate(422 418)" d="M2 0L770 0Q770.103 0 770.203 0.00932124Q770.304 0.0186425 770.403 0.037209Q770.501 0.0557754 770.597 0.0834357Q770.692 0.111096 770.783 0.147624Q770.875 0.184153 770.961 0.229252Q771.048 0.27435 771.129 0.327651Q771.21 0.380953 771.285 0.442021Q771.36 0.50309 771.429 0.571429Q771.497 0.639767 771.558 0.714818Q771.619 0.789868 771.672 0.871019Q771.726 0.95217 771.771 1.03876Q771.816 1.12535 771.852 1.21667Q771.889 1.30799 771.917 1.4033Q771.944 1.49861 771.963 1.59713Q771.981 1.69564 771.991 1.79657Q772 1.89749 772 2L772 1026Q772 1026.1 771.991 1026.2Q771.981 1026.3 771.963 1026.4Q771.944 1026.5 771.917 1026.6Q771.889 1026.69 771.852 1026.78Q771.816 1026.87 771.771 1026.96Q771.726 1027.05 771.672 1027.13Q771.619 1027.21 771.558 1027.29Q771.497 1027.36 771.429 1027.43Q771.36 1027.5 771.285 1027.56Q771.21 1027.62 771.129 1027.67Q771.048 1027.73 770.961 1027.77Q770.875 1027.82 770.783 1027.85Q770.692 1027.89 770.597 1027.92Q770.501 1027.94 770.403 1027.96Q770.304 1027.98 770.203 1027.99Q770.103 1028 770 1028L2 1028Q1.89749 1028 1.79657 1027.99Q1.69564 1027.98 1.59713 1027.96Q1.49861 1027.94 1.4033 1027.92Q1.30799 1027.89 1.21667 1027.85Q1.12535 1027.82 1.03876 1027.77Q0.95217 1027.73 0.871019 1027.67Q0.789868 1027.62 0.714818 1027.56Q0.639767 1027.5 0.571429 1027.43Q0.50309 1027.36 0.442021 1027.29Q0.380953 1027.21 0.327651 1027.13Q0.27435 1027.05 0.229252 1026.96Q0.184153 1026.87 0.147624 1026.78Q0.111096 1026.69 0.0834357 1026.6Q0.0557754 1026.5 0.037209 1026.4Q0.0186425 1026.3 0.00932124 1026.2Q0 1026.1 0 1026L0 2Q0 1.89749 0.00932124 1.79657Q0.0186425 1.69564 0.037209 1.59713Q0.0557754 1.49861 0.0834357 1.4033Q0.111096 1.30799 0.147624 1.21667Q0.184153 1.12535 0.229252 1.03876Q0.27435 0.95217 0.327651 0.871019Q0.380953 0.789868 0.442021 0.714818Q0.50309 0.639767 0.571429 0.571429Q0.639767 0.50309 0.714818 0.442021Q0.789868 0.380953 0.871019 0.327651Q0.95217 0.27435 1.03876 0.229252Q1.12535 0.184153 1.21667 0.147624Q1.30799 0.111096 1.4033 0.0834357Q1.49861 0.0557754 1.59713 0.037209Q1.69564 0.0186425 1.79657 0.00932124Q1.89749 0 2 0Z"/>
	</g>
	<defs>
		<clipPath id="clip_13">
			<path d="M836 1501C836 1516.46 823.464 1529 808 1529C792.536 1529 780 1516.46 780 1501C780 1485.54 792.536 1473 808 1473C823.464 1473 836 1485.54 836 1501Z" clip-rule="evenodd"/>
		</clipPath>
	</defs>
	<g clip-path="url(#clip_13)">
		<path fill="none" stroke="rgb(203,210,212)" stroke-width="8" stroke-miterlimit="4" transform="translate(780 1473)" d="M28 56C43.464 56 56 43.464 56 28C56 12.536 43.464 0 28 0C12.536 0 0 12.536 0 28C0 43.464 12.536 56 28 56Z"/>
	</g>
	<defs>
		<clipPath id="clip_14">
			<rect width="5200" height="1865" clip-rule="evenodd"/>
		</clipPath>
	</defs>
	<g clip-path="url(#clip_14)">
		<path fill="rgb(186,193,195)" stroke="none" transform="translate(803 359)" d="M5 10C2.243 10 0 7.757 0 5C0 2.243 2.243 0 5 0C7.757 0 10 2.243 10 5C10 7.757 7.757 10 5 10"/>
	</g>
	<defs>
		<clipPath id="clip_15">
			<rect width="5200" height="1865" clip-rule="evenodd"/>
		</clipPath>
	</defs>
	<g clip-path="url(#clip_15)">
		<path fill="rgb(208,215,218)" stroke="none" transform="translate(800 356)" d="M8 0C3.58857 0 0 3.58857 0 8C0 12.4114 3.58857 16 8 16C12.4114 16 16 12.4114 16 8C16 3.58857 12.4114 0 8 0M8 4.57143C9.89371 4.57143 11.4286 6.10629 11.4286 8C11.4286 9.89371 9.89371 11.4286 8 11.4286C6.10629 11.4286 4.57143 9.89371 4.57143 8C4.57143 6.10629 6.10629 4.57143 8 4.57143"/>
	</g>
	<defs>
		<clipPath id="clip_16">
			<rect width="5200" height="1865" clip-rule="evenodd"/>
		</clipPath>
	</defs>
	<g clip-path="url(#clip_16)">
		<path fill="rgb(52,52,52)" stroke="none" transform="translate(424 420)" d="M2 0L766 0Q766.103 0 766.203 0.00932124Q766.305 0.0186425 766.403 0.037209Q766.501 0.0557754 766.597 0.0834357Q766.692 0.111096 766.783 0.147624Q766.875 0.184153 766.961 0.229252Q767.048 0.27435 767.129 0.327651Q767.21 0.380953 767.285 0.442021Q767.36 0.50309 767.429 0.571429Q767.497 0.639767 767.558 0.714818Q767.619 0.789868 767.672 0.871019Q767.726 0.95217 767.771 1.03876Q767.816 1.12535 767.852 1.21667Q767.889 1.30799 767.917 1.4033Q767.944 1.49861 767.963 1.59713Q767.981 1.69564 767.991 1.79657Q768 1.89749 768 2L768 1022Q768 1022.1 767.991 1022.2Q767.981 1022.3 767.963 1022.4Q767.944 1022.5 767.917 1022.6Q767.889 1022.69 767.852 1022.78Q767.816 1022.87 767.771 1022.96Q767.726 1023.05 767.672 1023.13Q767.619 1023.21 767.558 1023.29Q767.497 1023.36 767.429 1023.43Q767.36 1023.5 767.285 1023.56Q767.21 1023.62 767.129 1023.67Q767.048 1023.73 766.961 1023.77Q766.875 1023.82 766.783 1023.85Q766.692 1023.89 766.597 1023.92Q766.501 1023.94 766.403 1023.96Q766.304 1023.98 766.204 1023.99Q766.103 1024 766 1024L2 1024Q1.89749 1024 1.79657 1023.99Q1.69564 1023.98 1.59713 1023.96Q1.49861 1023.94 1.4033 1023.92Q1.30799 1023.89 1.21667 1023.85Q1.12535 1023.82 1.03876 1023.77Q0.95217 1023.73 0.871019 1023.67Q0.789868 1023.62 0.714818 1023.56Q0.639767 1023.5 0.571429 1023.43Q0.50309 1023.36 0.442021 1023.29Q0.380953 1023.21 0.327651 1023.13Q0.27435 1023.05 0.229252 1022.96Q0.184153 1022.87 0.147624 1022.78Q0.111096 1022.69 0.0834357 1022.6Q0.0557754 1022.5 0.037209 1022.4Q0.0186425 1022.3 0.00932124 1022.2Q0 1022.1 0 1022L0 2Q0 1.89749 0.00932124 1.79657Q0.0186425 1.69564 0.037209 1.59713Q0.0557754 1.49861 0.0834357 1.4033Q0.111096 1.30799 0.147624 1.21667Q0.184153 1.12535 0.229252 1.03876Q0.27435 0.95217 0.327651 0.871019Q0.380953 0.789868 0.442021 0.714818Q0.50309 0.639767 0.571429 0.571429Q0.639767 0.50309 0.714818 0.442021Q0.789868 0.380953 0.871019 0.327651Q0.95217 0.27435 1.03876 0.229252Q1.12535 0.184153 1.21667 0.147624Q1.30799 0.111096 1.4033 0.0834357Q1.49861 0.0557754 1.59713 0.037209Q1.69564 0.0186425 1.79657 0.00932124Q1.89749 0 2 0Z"/>
	</g>
	<defs>
		<clipPath id="clip_17">
			<rect width="5200" height="1865" clip-rule="evenodd"/>
		</clipPath>
	</defs>
	<g clip-path="url(#clip_17)">
		<path fill="rgb(234,239,241)" stroke="none" transform="translate(4425 753)" d="M16 0L390 0Q390.41 0 390.817 0.018652Q391.224 0.037304 391.627 0.07457Q392.031 0.111836 392.43 0.16764Q392.829 0.223444 393.223 0.297672Q393.617 0.3719 394.005 0.4644Q394.393 0.556901 394.774 0.667485Q395.155 0.77807 395.528 0.906513Q395.902 1.03496 396.267 1.18099Q396.632 1.32703 396.988 1.49037Q397.344 1.65371 397.69 1.83401Q398.036 2.01431 398.372 2.21122Q398.707 2.40811 399.032 2.62121Q399.356 2.83431 399.669 3.06316Q399.981 3.29202 400.281 3.53617Q400.582 3.78032 400.868 4.03927Q401.155 4.29821 401.429 4.57143Q401.702 4.84464 401.961 5.13157Q402.22 5.41849 402.464 5.71854Q402.708 6.01859 402.937 6.33115Q403.166 6.64372 403.379 6.96815Q403.592 7.29259 403.789 7.62824Q403.986 7.96389 404.166 8.31007Q404.346 8.65625 404.51 9.01225Q404.673 9.36826 404.819 9.73335Q404.965 10.0985 405.094 10.4719Q405.222 10.8454 405.333 11.2264Q405.443 11.6074 405.536 11.9953Q405.628 12.3831 405.702 12.777Q405.777 13.1709 405.832 13.57Q405.888 13.9691 405.925 14.3725Q405.963 14.776 405.981 15.1831Q406 15.5902 406 16L406 784Q406 784.41 405.981 784.817Q405.963 785.224 405.925 785.627Q405.888 786.031 405.832 786.43Q405.777 786.829 405.702 787.223Q405.628 787.617 405.536 788.005Q405.443 788.393 405.333 788.774Q405.222 789.155 405.094 789.528Q404.965 789.902 404.819 790.267Q404.673 790.632 404.51 790.988Q404.346 791.344 404.166 791.69Q403.986 792.036 403.789 792.372Q403.592 792.707 403.379 793.032Q403.166 793.356 402.937 793.669Q402.708 793.982 402.464 794.281Q402.22 794.582 401.961 794.869Q401.702 795.155 401.429 795.429Q401.155 795.702 400.868 795.961Q400.582 796.22 400.281 796.464Q399.981 796.708 399.669 796.937Q399.356 797.166 399.032 797.379Q398.707 797.592 398.372 797.789Q398.036 797.986 397.69 798.166Q397.344 798.346 396.988 798.51Q396.632 798.673 396.267 798.819Q395.902 798.965 395.528 799.094Q395.155 799.222 394.774 799.333Q394.393 799.443 394.005 799.536Q393.617 799.628 393.223 799.702Q392.829 799.777 392.43 799.832Q392.031 799.888 391.627 799.925Q391.224 799.963 390.817 799.981Q390.41 800 390 800L16 800Q15.5902 800 15.1831 799.981Q14.776 799.963 14.3725 799.925Q13.9691 799.888 13.57 799.832Q13.1709 799.777 12.777 799.702Q12.3831 799.628 11.9953 799.536Q11.6074 799.443 11.2264 799.333Q10.8454 799.222 10.4719 799.094Q10.0985 798.965 9.73336 798.819Q9.36826 798.673 9.01226 798.51Q8.65625 798.346 8.31007 798.166Q7.96389 797.986 7.62824 797.789Q7.29259 797.592 6.96815 797.379Q6.64372 797.166 6.33115 796.937Q6.01859 796.708 5.71854 796.464Q5.41849 796.22 5.13157 795.961Q4.84464 795.702 4.57143 795.429Q4.29821 795.155 4.03927 794.869Q3.78032 794.582 3.53617 794.281Q3.29202 793.982 3.06316 793.669Q2.83431 793.356 2.62121 793.032Q2.40811 792.707 2.21122 792.372Q2.01431 792.036 1.83401 791.69Q1.65371 791.344 1.49037 790.988Q1.32703 790.632 1.18099 790.267Q1.03496 789.902 0.906513 789.528Q0.77807 789.155 0.667485 788.774Q0.556901 788.393 0.4644 788.005Q0.3719 787.617 0.297672 787.223Q0.223444 786.829 0.16764 786.43Q0.111836 786.031 0.07457 785.627Q0.037304 785.224 0.018652 784.817Q0 784.41 0 784L0 16Q0 15.5902 0.018652 15.1831Q0.037304 14.776 0.07457 14.3725Q0.111836 13.9691 0.16764 13.57Q0.223444 13.1709 0.297672 12.777Q0.3719 12.3831 0.4644 11.9953Q0.556901 11.6074 0.667485 11.2264Q0.77807 10.8454 0.906513 10.4719Q1.03496 10.0985 1.18099 9.73336Q1.32703 9.36826 1.49037 9.01226Q1.65371 8.65625 1.83401 8.31007Q2.01431 7.96389 2.21122 7.62824Q2.40811 7.29259 2.62121 6.96815Q2.83431 6.64372 3.06316 6.33115Q3.29202 6.01859 3.53617 5.71854Q3.78032 5.41849 4.03927 5.13157Q4.29821 4.84464 4.57143 4.57143Q4.84464 4.29821 5.13157 4.03927Q5.41849 3.78032 5.71854 3.53617Q6.01859 3.29202 6.33115 3.06316Q6.64372 2.83431 6.96815 2.62121Q7.29259 2.40811 7.62824 2.21122Q7.96389 2.01431 8.31007 1.83401Q8.65625 1.65371 9.01225 1.49037Q9.36826 1.32703 9.73335 1.18099Q10.0985 1.03496 10.4719 0.906513Q10.8454 0.77807 11.2264 0.667485Q11.6074 0.556901 11.9953 0.4644Q12.3831 0.3719 12.777 0.297672Q13.1709 0.223444 13.57 0.16764Q13.9691 0.111836 14.3725 0.07457Q14.776 0.037304 15.1831 0.018652Q15.5902 0 16 0Z"/>
	</g>
	<defs>
		<clipPath id="clip_18">
			<rect width="5200" height="1865" clip-rule="evenodd"/>
		</clipPath>
	</defs>
	<g clip-path="url(#clip_18)">
		<path fill="none" stroke="rgb(203,210,212)" stroke-width="6" stroke-miterlimit="4" transform="translate(4425 753)" d="M16 0L390 0Q390.41 0 390.817 0.018652Q391.224 0.037304 391.627 0.07457Q392.031 0.111836 392.43 0.16764Q392.829 0.223444 393.223 0.297672Q393.617 0.3719 394.005 0.4644Q394.393 0.556901 394.774 0.667485Q395.155 0.77807 395.528 0.906513Q395.902 1.03496 396.267 1.18099Q396.632 1.32703 396.988 1.49037Q397.344 1.65371 397.69 1.83401Q398.036 2.01431 398.372 2.21122Q398.707 2.40811 399.032 2.62121Q399.356 2.83431 399.669 3.06316Q399.981 3.29202 400.281 3.53617Q400.582 3.78032 400.868 4.03927Q401.155 4.29821 401.429 4.57143Q401.702 4.84464 401.961 5.13157Q402.22 5.41849 402.464 5.71854Q402.708 6.01859 402.937 6.33115Q403.166 6.64372 403.379 6.96815Q403.592 7.29259 403.789 7.62824Q403.986 7.96389 404.166 8.31007Q404.346 8.65625 404.51 9.01225Q404.673 9.36826 404.819 9.73335Q404.965 10.0985 405.094 10.4719Q405.222 10.8454 405.333 11.2264Q405.443 11.6074 405.536 11.9953Q405.628 12.3831 405.702 12.777Q405.777 13.1709 405.832 13.57Q405.888 13.9691 405.925 14.3725Q405.963 14.776 405.981 15.1831Q406 15.5902 406 16L406 784Q406 784.41 405.981 784.817Q405.963 785.224 405.925 785.627Q405.888 786.031 405.832 786.43Q405.777 786.829 405.702 787.223Q405.628 787.617 405.536 788.005Q405.443 788.393 405.333 788.774Q405.222 789.155 405.094 789.528Q404.965 789.902 404.819 790.267Q404.673 790.632 404.51 790.988Q404.346 791.344 404.166 791.69Q403.986 792.036 403.789 792.372Q403.592 792.707 403.379 793.032Q403.166 793.356 402.937 793.669Q402.708 793.982 402.464 794.281Q402.22 794.582 401.961 794.869Q401.702 795.155 401.429 795.429Q401.155 795.702 400.868 795.961Q400.582 796.22 400.281 796.464Q399.981 796.708 399.669 796.937Q399.356 797.166 399.032 797.379Q398.707 797.592 398.372 797.789Q398.036 797.986 397.69 798.166Q397.344 798.346 396.988 798.51Q396.632 798.673 396.267 798.819Q395.902 798.965 395.528 799.094Q395.155 799.222 394.774 799.333Q394.393 799.443 394.005 799.536Q393.617 799.628 393.223 799.702Q392.829 799.777 392.43 799.832Q392.031 799.888 391.627 799.925Q391.224 799.963 390.817 799.981Q390.41 800 390 800L16 800Q15.5902 800 15.1831 799.981Q14.776 799.963 14.3725 799.925Q13.9691 799.888 13.57 799.832Q13.1709 799.777 12.777 799.702Q12.3831 799.628 11.9953 799.536Q11.6074 799.443 11.2264 799.333Q10.8454 799.222 10.4719 799.094Q10.0985 798.965 9.73336 798.819Q9.36826 798.673 9.01226 798.51Q8.65625 798.346 8.31007 798.166Q7.96389 797.986 7.62824 797.789Q7.29259 797.592 6.96815 797.379Q6.64372 797.166 6.33115 796.937Q6.01859 796.708 5.71854 796.464Q5.41849 796.22 5.13157 795.961Q4.84464 795.702 4.57143 795.429Q4.29821 795.155 4.03927 794.869Q3.78032 794.582 3.53617 794.281Q3.29202 793.982 3.06316 793.669Q2.83431 793.356 2.62121 793.032Q2.40811 792.707 2.21122 792.372Q2.01431 792.036 1.83401 791.69Q1.65371 791.344 1.49037 790.988Q1.32703 790.632 1.18099 790.267Q1.03496 789.902 0.906513 789.528Q0.77807 789.155 0.667485 788.774Q0.556901 788.393 0.4644 788.005Q0.3719 787.617 0.297672 787.223Q0.223444 786.829 0.16764 786.43Q0.111836 786.031 0.07457 785.627Q0.037304 785.224 0.018652 784.817Q0 784.41 0 784L0 16Q0 15.5902 0.018652 15.1831Q0.037304 14.776 0.07457 14.3725Q0.111836 13.9691 0.16764 13.57Q0.223444 13.1709 0.297672 12.777Q0.3719 12.3831 0.4644 11.9953Q0.556901 11.6074 0.667485 11.2264Q0.77807 10.8454 0.906513 10.4719Q1.03496 10.0985 1.18099 9.73336Q1.32703 9.36826 1.49037 9.01226Q1.65371 8.65625 1.83401 8.31007Q2.01431 7.96389 2.21122 7.62824Q2.40811 7.29259 2.62121 6.96815Q2.83431 6.64372 3.06316 6.33115Q3.29202 6.01859 3.53617 5.71854Q3.78032 5.41849 4.03927 5.13157Q4.29821 4.84464 4.57143 4.57143Q4.84464 4.29821 5.13157 4.03927Q5.41849 3.78032 5.71854 3.53617Q6.01859 3.29202 6.33115 3.06316Q6.64372 2.83431 6.96815 2.62121Q7.29259 2.40811 7.62824 2.21122Q7.96389 2.01431 8.31007 1.83401Q8.65625 1.65371 9.01225 1.49037Q9.36826 1.32703 9.73335 1.18099Q10.0985 1.03496 10.4719 0.906513Q10.8454 0.77807 11.2264 0.667485Q11.6074 0.556901 11.9953 0.4644Q12.3831 0.3719 12.777 0.297672Q13.1709 0.223444 13.57 0.16764Q13.9691 0.111836 14.3725 0.07457Q14.776 0.037304 15.1831 0.018652Q15.5902 0 16 0Z"/>
	</g>
	<defs>
		<clipPath id="clip_19">
			<rect width="5200" height="1865" clip-rule="evenodd"/>
		</clipPath>
	</defs>
	<g clip-path="url(#clip_19)">
		<path fill="rgb(186,193,195)" stroke="none" transform="translate(4698 796)" d="M5 10C2.243 10 0 7.757 0 5C0 2.243 2.243 0 5 0C7.757 0 10 2.243 10 5C10 7.757 7.757 10 5 10"/>
	</g>
	<defs>
		<clipPath id="clip_20">
			<rect width="5200" height="1865" clip-rule="evenodd"/>
		</clipPath>
	</defs>
	<g clip-path="url(#clip_20)">
		<path fill="rgb(208,215,218)" stroke="none" transform="translate(4695 793)" d="M8 0C3.58857 0 0 3.58857 0 8C0 12.4114 3.58857 16 8 16C12.4114 16 16 12.4114 16 8C16 3.58857 12.4114 0 8 0M8 4.57143C9.89371 4.57143 11.4286 6.10629 11.4286 8C11.4286 9.89371 9.89371 11.4286 8 11.4286C6.10629 11.4286 4.57143 9.89371 4.57143 8C4.57143 6.10629 6.10629 4.57143 8 4.57143"/>
	</g>
	<defs>
		<clipPath id="clip_21">
			<rect width="5200" height="1865" clip-rule="evenodd"/>
		</clipPath>
	</defs>
	<g clip-path="url(#clip_21)">
		<path fill="rgb(221,227,229)" stroke="none" transform="translate(4446 831)" d="M2 0L362 0Q362.102 0 362.203 0.00932124Q362.304 0.0186425 362.403 0.037209Q362.501 0.0557754 362.597 0.0834357Q362.692 0.111096 362.783 0.147624Q362.875 0.184153 362.961 0.229252Q363.048 0.27435 363.129 0.327651Q363.21 0.380953 363.285 0.442021Q363.36 0.50309 363.429 0.571429Q363.497 0.639767 363.558 0.714818Q363.619 0.789868 363.672 0.871019Q363.726 0.95217 363.771 1.03876Q363.816 1.12535 363.852 1.21667Q363.889 1.30799 363.917 1.4033Q363.944 1.49861 363.963 1.59713Q363.981 1.69564 363.991 1.79657Q364 1.89749 364 2L364 642Q364 642.103 363.991 642.203Q363.981 642.304 363.963 642.403Q363.944 642.502 363.917 642.597Q363.889 642.692 363.852 642.783Q363.816 642.875 363.771 642.961Q363.726 643.048 363.672 643.129Q363.619 643.21 363.558 643.285Q363.497 643.36 363.429 643.429Q363.36 643.497 363.285 643.558Q363.21 643.619 363.129 643.672Q363.048 643.726 362.961 643.771Q362.875 643.816 362.783 643.852Q362.692 643.889 362.597 643.917Q362.501 643.944 362.403 643.963Q362.304 643.981 362.203 643.991Q362.102 644 362 644L2 644Q1.89749 644 1.79657 643.991Q1.69564 643.981 1.59713 643.963Q1.49861 643.944 1.4033 643.917Q1.30799 643.889 1.21667 643.852Q1.12535 643.816 1.03876 643.771Q0.95217 643.726 0.871019 643.672Q0.789868 643.619 0.714818 643.558Q0.639767 643.497 0.571429 643.429Q0.50309 643.36 0.442021 643.285Q0.380953 643.21 0.327651 643.129Q0.27435 643.048 0.229252 642.961Q0.184153 642.875 0.147624 642.783Q0.111096 642.692 0.0834357 642.597Q0.0557754 642.502 0.037209 642.403Q0.0186425 642.304 0.00932124 642.203Q0 642.103 0 642L0 2Q0 1.89749 0.00932124 1.79657Q0.0186425 1.69564 0.037209 1.59713Q0.0557754 1.49861 0.0834357 1.4033Q0.111096 1.30799 0.147624 1.21667Q0.184153 1.12535 0.229252 1.03876Q0.27435 0.95217 0.327651 0.871019Q0.380953 0.789868 0.442021 0.714818Q0.50309 0.639767 0.571429 0.571429Q0.639767 0.50309 0.714818 0.442021Q0.789868 0.380953 0.871019 0.327651Q0.95217 0.27435 1.03876 0.229252Q1.12535 0.184153 1.21667 0.147624Q1.30799 0.111096 1.4033 0.0834357Q1.49861 0.0557754 1.59713 0.037209Q1.69564 0.0186425 1.79657 0.00932124Q1.89749 0 2 0Z"/>
	</g>
	<defs>
		<clipPath id="clip_22">
			<rect width="5200" height="1865" clip-rule="evenodd"/>
		</clipPath>
	</defs>
	<g clip-path="url(#clip_22)">
		<path fill="rgb(186,193,195)" stroke="none" transform="translate(4593 777)" d="M4 0L66 0Q66.205 0 66.4069 0.0186425Q66.6087 0.037285 66.8058 0.0744179Q67.0028 0.111551 67.1934 0.166871Q67.384 0.222192 67.5667 0.295249Q67.7493 0.368306 67.9225 0.458503Q68.0957 0.5487 68.258 0.655303Q68.4203 0.761905 68.5704 0.884043Q68.7205 1.00618 68.8571 1.14286Q68.9938 1.27953 69.116 1.42964Q69.2381 1.57974 69.3447 1.74204Q69.4513 1.90434 69.5415 2.07752Q69.6317 2.2507 69.7048 2.43334Q69.7778 2.61598 69.8331 2.8066Q69.8885 2.99721 69.9256 3.19425Q69.9627 3.39129 69.9814 3.59314Q70 3.79499 70 4L70 4Q70 4.20502 69.9814 4.40687Q69.9627 4.60871 69.9256 4.80575Q69.8885 5.00279 69.8331 5.1934Q69.7778 5.38402 69.7048 5.56666Q69.6317 5.7493 69.5415 5.92248Q69.4513 6.09566 69.3447 6.25796Q69.2381 6.42026 69.116 6.57037Q68.9938 6.72047 68.8571 6.85714Q68.7205 6.99382 68.5704 7.11596Q68.4203 7.2381 68.258 7.3447Q68.0957 7.4513 67.9225 7.5415Q67.7493 7.63169 67.5667 7.70475Q67.384 7.77781 67.1934 7.83313Q67.0028 7.88845 66.8058 7.92558Q66.6087 7.96272 66.4069 7.98136Q66.205 8 66 8L4 8Q3.79499 8 3.59314 7.98136Q3.39129 7.96272 3.19425 7.92558Q2.99721 7.88845 2.8066 7.83313Q2.61598 7.77781 2.43334 7.70475Q2.2507 7.63169 2.07752 7.5415Q1.90434 7.4513 1.74204 7.3447Q1.57974 7.2381 1.42964 7.11596Q1.27953 6.99382 1.14286 6.85714Q1.00618 6.72047 0.884043 6.57037Q0.761905 6.42026 0.655303 6.25796Q0.5487 6.09566 0.458503 5.92248Q0.368306 5.7493 0.295249 5.56666Q0.222192 5.38402 0.166871 5.1934Q0.111551 5.00279 0.0744179 4.80575Q0.037285 4.60871 0.0186425 4.40687Q0 4.20502 0 4L0 4Q0 3.79499 0.0186425 3.59314Q0.037285 3.39129 0.0744179 3.19425Q0.111551 2.99721 0.166871 2.8066Q0.222192 2.61598 0.295249 2.43334Q0.368306 2.2507 0.458503 2.07752Q0.5487 1.90434 0.655303 1.74204Q0.761905 1.57974 0.884043 1.42964Q1.00618 1.27953 1.14286 1.14286Q1.27953 1.00618 1.42964 0.884043Q1.57974 0.761905 1.74204 0.655303Q1.90434 0.5487 2.07752 0.458503Q2.2507 0.368306 2.43334 0.295249Q2.61598 0.222192 2.8066 0.166871Q2.99721 0.111551 3.19425 0.0744179Q3.39129 0.037285 3.59314 0.0186425Q3.79499 0 4 0Z"/>
	</g>
	<defs>
		<clipPath id="clip_23">
			<rect width="5200" height="1865" clip-rule="evenodd"/>
		</clipPath>
	</defs>
	<g clip-path="url(#clip_23)">
		<path fill="rgb(186,193,195)" stroke="none" transform="translate(4545 794)" d="M7 0L23 0Q23.1793 0 23.3574 0.00816025Q23.5355 0.0163205 23.712 0.0326244Q23.8885 0.0489282 24.0631 0.0733424Q24.2377 0.0977566 24.4101 0.130231Q24.5824 0.162706 24.7521 0.203175Q24.9218 0.243644 25.0885 0.292025Q25.2552 0.340406 25.4186 0.396599Q25.5819 0.452793 25.7417 0.516685Q25.9014 0.580577 26.0571 0.652038Q26.2129 0.723498 26.3643 0.80238Q26.5158 0.881263 26.6626 0.967407Q26.8095 1.05355 26.9514 1.14678Q27.0934 1.24001 27.2301 1.34013Q27.3669 1.44026 27.4981 1.54707Q27.6294 1.65389 27.7549 1.76718Q27.8805 1.88047 28 2Q28.1195 2.11953 28.2328 2.24506Q28.3461 2.37059 28.4529 2.50186Q28.5597 2.63313 28.6599 2.76988Q28.76 2.90663 28.8532 3.04857Q28.9465 3.19051 29.0326 3.33736Q29.1187 3.4842 29.1976 3.63566Q29.2765 3.78711 29.348 3.94286Q29.4194 4.09861 29.4833 4.25834Q29.5472 4.41807 29.6034 4.58146Q29.6596 4.74484 29.708 4.91155Q29.7564 5.07825 29.7968 5.24794Q29.8373 5.41762 29.8698 5.58994Q29.9022 5.76226 29.9267 5.93686Q29.9511 6.11146 29.9674 6.28799Q29.9837 6.46452 29.9918 6.64261Q30 6.8207 30 7L30 7Q30 7.1793 29.9918 7.35739Q29.9837 7.53549 29.9674 7.71201Q29.9511 7.88854 29.9267 8.06314Q29.9022 8.23774 29.8698 8.41006Q29.8373 8.58238 29.7968 8.75207Q29.7564 8.92175 29.708 9.08846Q29.6596 9.25516 29.6034 9.41854Q29.5472 9.58193 29.4833 9.74166Q29.4194 9.90139 29.348 10.0571Q29.2765 10.2129 29.1976 10.3643Q29.1187 10.5158 29.0326 10.6626Q28.9465 10.8095 28.8532 10.9514Q28.76 11.0934 28.6599 11.2301Q28.5597 11.3669 28.4529 11.4981Q28.3461 11.6294 28.2328 11.7549Q28.1195 11.8805 28 12Q27.8805 12.1195 27.7549 12.2328Q27.6294 12.3461 27.4981 12.4529Q27.3669 12.5597 27.2301 12.6599Q27.0934 12.76 26.9514 12.8532Q26.8095 12.9465 26.6626 13.0326Q26.5158 13.1187 26.3643 13.1976Q26.2129 13.2765 26.0571 13.348Q25.9014 13.4194 25.7417 13.4833Q25.5819 13.5472 25.4185 13.6034Q25.2552 13.6596 25.0885 13.708Q24.9218 13.7564 24.7521 13.7968Q24.5824 13.8373 24.4101 13.8698Q24.2377 13.9022 24.0631 13.9267Q23.8885 13.9511 23.712 13.9674Q23.5355 13.9837 23.3574 13.9918Q23.1793 14 23 14L7 14Q6.8207 14 6.64261 13.9918Q6.46452 13.9837 6.28799 13.9674Q6.11146 13.9511 5.93686 13.9267Q5.76226 13.9022 5.58994 13.8698Q5.41762 13.8373 5.24794 13.7968Q5.07825 13.7564 4.91155 13.708Q4.74484 13.6596 4.58146 13.6034Q4.41807 13.5472 4.25834 13.4833Q4.09861 13.4194 3.94286 13.348Q3.78711 13.2765 3.63566 13.1976Q3.4842 13.1187 3.33736 13.0326Q3.19051 12.9465 3.04857 12.8532Q2.90663 12.76 2.76988 12.6599Q2.63313 12.5597 2.50186 12.4529Q2.37059 12.3461 2.24506 12.2328Q2.11953 12.1195 2 12Q1.88047 11.8805 1.76718 11.7549Q1.65389 11.6294 1.54707 11.4981Q1.44026 11.3669 1.34013 11.2301Q1.24001 11.0934 1.14678 10.9514Q1.05355 10.8095 0.967407 10.6626Q0.881263 10.5158 0.80238 10.3643Q0.723498 10.2129 0.652038 10.0571Q0.580577 9.90139 0.516685 9.74166Q0.452793 9.58193 0.396599 9.41854Q0.340406 9.25516 0.292025 9.08846Q0.243644 8.92175 0.203175 8.75207Q0.162706 8.58238 0.130231 8.41006Q0.0977566 8.23774 0.0733424 8.06314Q0.0489282 7.88854 0.0326244 7.71201Q0.0163205 7.53549 0.00816025 7.35739Q0 7.1793 0 7L0 7Q0 6.8207 0.00816025 6.64261Q0.0163205 6.46452 0.0326244 6.28799Q0.0489282 6.11146 0.0733424 5.93686Q0.0977566 5.76226 0.130231 5.58994Q0.162706 5.41762 0.203175 5.24794Q0.243644 5.07825 0.292025 4.91155Q0.340406 4.74484 0.396599 4.58146Q0.452793 4.41807 0.516685 4.25834Q0.580577 4.09861 0.652038 3.94286Q0.723498 3.78711 0.80238 3.63566Q0.881263 3.4842 0.967407 3.33736Q1.05355 3.19051 1.14678 3.04857Q1.24001 2.90663 1.34013 2.76988Q1.44026 2.63313 1.54707 2.50186Q1.65389 2.37059 1.76718 2.24506Q1.88047 2.11953 2 2Q2.11953 1.88047 2.24506 1.76718Q2.37059 1.65389 2.50186 1.54707Q2.63313 1.44026 2.76988 1.34013Q2.90663 1.24001 3.04857 1.14678Q3.19051 1.05355 3.33736 0.967407Q3.4842 0.881263 3.63566 0.80238Q3.78711 0.723498 3.94286 0.652038Q4.09861 0.580577 4.25834 0.516685Q4.41807 0.452793 4.58146 0.396599Q4.74484 0.340406 4.91155 0.292025Q5.07825 0.243644 5.24794 0.203175Q5.41762 0.162706 5.58994 0.130231Q5.76226 0.0977566 5.93686 0.0733424Q6.11146 0.0489282 6.28799 0.0326244Q6.46452 0.0163205 6.64261 0.00816025Q6.8207 0 7 0Z"/>
	</g>
	<defs>
		<clipPath id="clip_24">
			<rect width="5200" height="1865" clip-rule="evenodd"/>
		</clipPath>
	</defs>
	<g clip-path="url(#clip_24)">
		<path fill="rgb(186,193,195)" stroke="none" transform="translate(4593 1521)" d="M4 0L66 0Q66.205 0 66.4069 0.0186425Q66.6087 0.037285 66.8058 0.0744179Q67.0028 0.111551 67.1934 0.166871Q67.384 0.222192 67.5667 0.295249Q67.7493 0.368306 67.9225 0.458503Q68.0957 0.5487 68.258 0.655303Q68.4203 0.761905 68.5704 0.884043Q68.7205 1.00618 68.8571 1.14286Q68.9938 1.27953 69.116 1.42964Q69.2381 1.57974 69.3447 1.74204Q69.4513 1.90434 69.5415 2.07752Q69.6317 2.2507 69.7048 2.43334Q69.7778 2.61598 69.8331 2.8066Q69.8885 2.99721 69.9256 3.19425Q69.9627 3.39129 69.9814 3.59314Q70 3.79499 70 4L70 4Q70 4.20502 69.9814 4.40687Q69.9627 4.60871 69.9256 4.80575Q69.8885 5.00279 69.8331 5.1934Q69.7778 5.38402 69.7048 5.56666Q69.6317 5.7493 69.5415 5.92248Q69.4513 6.09566 69.3447 6.25796Q69.2381 6.42026 69.116 6.57037Q68.9938 6.72047 68.8571 6.85714Q68.7205 6.99382 68.5704 7.11596Q68.4203 7.2381 68.258 7.3447Q68.0957 7.4513 67.9225 7.5415Q67.7493 7.63169 67.5667 7.70475Q67.384 7.77781 67.1934 7.83313Q67.0028 7.88845 66.8058 7.92558Q66.6087 7.96272 66.4069 7.98136Q66.205 8 66 8L4 8Q3.79499 8 3.59314 7.98136Q3.39129 7.96272 3.19425 7.92558Q2.99721 7.88845 2.8066 7.83313Q2.61598 7.77781 2.43334 7.70475Q2.2507 7.63169 2.07752 7.5415Q1.90434 7.4513 1.74204 7.3447Q1.57974 7.2381 1.42964 7.11596Q1.27953 6.99382 1.14286 6.85714Q1.00618 6.72047 0.884043 6.57037Q0.761905 6.42026 0.655303 6.25796Q0.5487 6.09566 0.458503 5.92248Q0.368306 5.7493 0.295249 5.56666Q0.222192 5.38402 0.166871 5.1934Q0.111551 5.00279 0.0744179 4.80575Q0.037285 4.60871 0.0186425 4.40687Q0 4.20502 0 4L0 4Q0 3.79499 0.0186425 3.59314Q0.037285 3.39129 0.0744179 3.19425Q0.111551 2.99721 0.166871 2.8066Q0.222192 2.61598 0.295249 2.43334Q0.368306 2.2507 0.458503 2.07752Q0.5487 1.90434 0.655303 1.74204Q0.761905 1.57974 0.884043 1.42964Q1.00618 1.27953 1.14286 1.14286Q1.27953 1.00618 1.42964 0.884043Q1.57974 0.761905 1.74204 0.655303Q1.90434 0.5487 2.07752 0.458503Q2.2507 0.368306 2.43334 0.295249Q2.61598 0.222192 2.8066 0.166871Q2.99721 0.111551 3.19425 0.0744179Q3.39129 0.037285 3.59314 0.0186425Q3.79499 0 4 0Z"/>
	</g>
	<defs>
		<clipPath id="clip_25">
			<rect width="5200" height="1865" clip-rule="evenodd"/>
		</clipPath>
	</defs>
	<g clip-path="url(#clip_25)">
		<path fill="rgb(52,52,52)" stroke="none" transform="translate(4448 833)" d="M2 0L358 0Q358.103 0 358.203 0.00932124Q358.304 0.0186425 358.403 0.037209Q358.501 0.0557754 358.597 0.0834357Q358.692 0.111096 358.783 0.147624Q358.875 0.184153 358.961 0.229252Q359.048 0.27435 359.129 0.327651Q359.21 0.380953 359.285 0.442021Q359.36 0.50309 359.429 0.571429Q359.497 0.639767 359.558 0.714818Q359.619 0.789868 359.672 0.871019Q359.726 0.95217 359.771 1.03876Q359.816 1.12535 359.852 1.21667Q359.889 1.30799 359.917 1.4033Q359.944 1.49861 359.963 1.59713Q359.981 1.69564 359.991 1.79657Q360 1.89749 360 2L360 638Q360 638.103 359.991 638.203Q359.981 638.304 359.963 638.403Q359.944 638.501 359.917 638.597Q359.889 638.692 359.852 638.783Q359.816 638.875 359.771 638.961Q359.726 639.048 359.672 639.129Q359.619 639.21 359.558 639.285Q359.497 639.36 359.429 639.429Q359.36 639.497 359.285 639.558Q359.21 639.619 359.129 639.672Q359.048 639.726 358.961 639.771Q358.875 639.816 358.783 639.852Q358.692 639.889 358.597 639.917Q358.501 639.944 358.403 639.963Q358.304 639.981 358.203 639.991Q358.103 640 358 640L2 640Q1.89749 640 1.79657 639.991Q1.69564 639.981 1.59713 639.963Q1.49861 639.944 1.4033 639.917Q1.30799 639.889 1.21667 639.852Q1.12535 639.816 1.03876 639.771Q0.95217 639.726 0.871019 639.672Q0.789868 639.619 0.714818 639.558Q0.639767 639.497 0.571429 639.429Q0.50309 639.36 0.442021 639.285Q0.380953 639.21 0.327651 639.129Q0.27435 639.048 0.229252 638.961Q0.184153 638.875 0.147624 638.783Q0.111096 638.692 0.0834357 638.597Q0.0557754 638.501 0.037209 638.403Q0.0186425 638.304 0.00932124 638.203Q0 638.103 0 638L0 2Q0 1.89749 0.00932124 1.79657Q0.0186425 1.69564 0.037209 1.59713Q0.0557754 1.49861 0.0834357 1.4033Q0.111096 1.30799 0.147624 1.21667Q0.184153 1.12535 0.229252 1.03876Q0.27435 0.95217 0.327651 0.871019Q0.380953 0.789868 0.442021 0.714818Q0.50309 0.639767 0.571429 0.571429Q0.639767 0.50309 0.714818 0.442021Q0.789868 0.380953 0.871019 0.327651Q0.95217 0.27435 1.03876 0.229252Q1.12535 0.184153 1.21667 0.147624Q1.30799 0.111096 1.4033 0.0834357Q1.49861 0.0557754 1.59713 0.037209Q1.69564 0.0186425 1.79657 0.00932124Q1.89749 0 2 0Z"/>
	</g>
	<defs>
		<clipPath id="clip_26">
			<rect width="5200" height="1865" clip-rule="evenodd"/>
		</clipPath>
	</defs>
	<g clip-path="url(#clip_26)">
		<path fill="rgb(234,239,241)" stroke="none" transform="matrix(-4.37114e-08 -1 1 -4.37114e-08 2398.5 1516.5)" d="M18 0L1007 0Q1008.51 0 1010.01 0.0687793Q1011.51 0.137559 1013 0.274977Q1014.49 0.412395 1015.96 0.618172Q1017.43 0.823948 1018.88 1.09766Q1020.34 1.37138 1021.77 1.71248Q1023.2 2.05357 1024.6 2.46135Q1026.01 2.86913 1027.39 3.34277Q1028.76 3.8164 1030.11 4.35492Q1031.45 4.89344 1032.77 5.49575Q1034.08 6.09805 1035.36 6.76292Q1036.63 7.42779 1037.87 8.15386Q1039.11 8.87992 1040.31 9.66571Q1041.5 10.4515 1042.65 11.2954Q1043.81 12.1393 1044.91 13.0396Q1046.02 13.9399 1047.08 14.8948Q1048.14 15.8497 1049.14 16.8571Q1050.15 17.8646 1051.11 18.9227Q1052.06 19.9807 1052.96 21.0871Q1053.86 22.1936 1054.7 23.3461Q1055.55 24.4987 1056.33 25.6951Q1057.12 26.8914 1057.85 28.1291Q1058.57 29.3669 1059.24 30.6434Q1059.9 31.9199 1060.5 33.2327Q1061.11 34.5454 1061.65 35.8917Q1062.18 37.238 1062.66 38.6151Q1063.13 39.9922 1063.54 41.3973Q1063.95 42.8024 1064.29 44.2326Q1064.63 45.6628 1064.9 47.1152Q1065.18 48.5676 1065.38 50.0392Q1065.59 51.5109 1065.73 52.9988Q1065.86 54.4866 1065.93 55.9877Q1066 57.4888 1066 59L1066 1512Q1066 1513.51 1065.93 1515.01Q1065.86 1516.51 1065.73 1518Q1065.59 1519.49 1065.38 1520.96Q1065.18 1522.43 1064.9 1523.88Q1064.63 1525.34 1064.29 1526.77Q1063.95 1528.2 1063.54 1529.6Q1063.13 1531.01 1062.66 1532.39Q1062.18 1533.76 1061.65 1535.11Q1061.11 1536.45 1060.5 1537.77Q1059.9 1539.08 1059.24 1540.36Q1058.57 1541.63 1057.85 1542.87Q1057.12 1544.11 1056.33 1545.31Q1055.55 1546.5 1054.7 1547.65Q1053.86 1548.81 1052.96 1549.91Q1052.06 1551.02 1051.11 1552.08Q1050.15 1553.14 1049.14 1554.14Q1048.14 1555.15 1047.08 1556.11Q1046.02 1557.06 1044.91 1557.96Q1043.81 1558.86 1042.65 1559.7Q1041.5 1560.55 1040.31 1561.33Q1039.11 1562.12 1037.87 1562.85Q1036.63 1563.57 1035.36 1564.24Q1034.08 1564.9 1032.77 1565.5Q1031.45 1566.11 1030.11 1566.65Q1028.76 1567.18 1027.39 1567.66Q1026.01 1568.13 1024.6 1568.54Q1023.2 1568.95 1021.77 1569.29Q1020.34 1569.63 1018.88 1569.9Q1017.43 1570.18 1015.96 1570.38Q1014.49 1570.59 1013 1570.73Q1011.51 1570.86 1010.01 1570.93Q1008.51 1571 1007 1571L18 1571Q17.539 1571 17.081 1570.98Q16.623 1570.96 16.1691 1570.92Q15.7152 1570.87 15.2662 1570.81Q14.8172 1570.75 14.3741 1570.67Q13.931 1570.58 13.4947 1570.48Q13.0584 1570.37 12.6297 1570.25Q12.201 1570.13 11.7809 1569.98Q11.3608 1569.84 10.95 1569.67Q10.5393 1569.51 10.1388 1569.32Q9.73829 1569.14 9.34883 1568.94Q8.95938 1568.73 8.58178 1568.51Q8.20417 1568.29 7.83917 1568.05Q7.47418 1567.81 7.12255 1567.55Q6.77092 1567.3 6.43336 1567.02Q6.0958 1566.75 5.77301 1566.46Q5.45022 1566.16 5.14286 1565.86Q4.83549 1565.55 4.54418 1565.23Q4.25286 1564.9 3.97819 1564.57Q3.70352 1564.23 3.44606 1563.88Q3.1886 1563.53 2.94886 1563.16Q2.70913 1562.8 2.48762 1562.42Q2.2661 1562.04 2.06326 1561.65Q1.86042 1561.26 1.67667 1560.86Q1.49291 1560.46 1.32862 1560.05Q1.16433 1559.64 1.01983 1559.22Q0.875329 1558.8 0.750921 1558.37Q0.626513 1557.94 0.52245 1557.51Q0.418387 1557.07 0.334881 1556.63Q0.251374 1556.18 0.188595 1555.73Q0.125815 1555.29 0.0838912 1554.83Q0.041967 1554.38 0.0209835 1553.92Q0 1553.46 0 1553L0 18Q0 17.539 0.0209835 17.081Q0.041967 16.623 0.0838912 16.1691Q0.125815 15.7152 0.188595 15.2662Q0.251374 14.8172 0.334881 14.3741Q0.418387 13.931 0.52245 13.4947Q0.626513 13.0584 0.750921 12.6297Q0.875329 12.201 1.01983 11.7809Q1.16433 11.3608 1.32862 10.95Q1.49291 10.5393 1.67667 10.1388Q1.86042 9.73829 2.06326 9.34883Q2.2661 8.95938 2.48762 8.58178Q2.70913 8.20417 2.94886 7.83917Q3.1886 7.47418 3.44606 7.12255Q3.70352 6.77092 3.97819 6.43336Q4.25286 6.0958 4.54418 5.77301Q4.83549 5.45022 5.14286 5.14286Q5.45022 4.83549 5.77301 4.54418Q6.09581 4.25286 6.43336 3.97819Q6.77092 3.70352 7.12255 3.44606Q7.47418 3.1886 7.83917 2.94886Q8.20417 2.70913 8.58177 2.48762Q8.95938 2.2661 9.34883 2.06326Q9.73829 1.86042 10.1388 1.67667Q10.5393 1.49291 10.95 1.32862Q11.3608 1.16433 11.7809 1.01983Q12.201 0.875329 12.6297 0.750921Q13.0584 0.626513 13.4947 0.52245Q13.931 0.418387 14.3741 0.334881Q14.8172 0.251374 15.2662 0.188595Q15.7152 0.125815 16.1691 0.0838912Q16.623 0.041967 17.081 0.0209835Q17.539 0 18 0Z"/>
	</g>
	<defs>
		<clipPath id="clip_27">
			<rect width="5200" height="1865" clip-rule="evenodd"/>
		</clipPath>
	</defs>
	<g clip-path="url(#clip_27)">
		<path fill="none" stroke="rgb(203,210,212)" stroke-width="6" stroke-miterlimit="4" transform="matrix(-4.37114e-08 -1 1 -4.37114e-08 2398.5 1516.5)" d="M18 0L1007 0Q1008.51 0 1010.01 0.0687793Q1011.51 0.137559 1013 0.274977Q1014.49 0.412395 1015.96 0.618172Q1017.43 0.823948 1018.88 1.09766Q1020.34 1.37138 1021.77 1.71248Q1023.2 2.05357 1024.6 2.46135Q1026.01 2.86913 1027.39 3.34277Q1028.76 3.8164 1030.11 4.35492Q1031.45 4.89344 1032.77 5.49575Q1034.08 6.09805 1035.36 6.76292Q1036.63 7.42779 1037.87 8.15386Q1039.11 8.87992 1040.31 9.66571Q1041.5 10.4515 1042.65 11.2954Q1043.81 12.1393 1044.91 13.0396Q1046.02 13.9399 1047.08 14.8948Q1048.14 15.8497 1049.14 16.8571Q1050.15 17.8646 1051.11 18.9227Q1052.06 19.9807 1052.96 21.0871Q1053.86 22.1936 1054.7 23.3461Q1055.55 24.4987 1056.33 25.6951Q1057.12 26.8914 1057.85 28.1291Q1058.57 29.3669 1059.24 30.6434Q1059.9 31.9199 1060.5 33.2327Q1061.11 34.5454 1061.65 35.8917Q1062.18 37.238 1062.66 38.6151Q1063.13 39.9922 1063.54 41.3973Q1063.95 42.8024 1064.29 44.2326Q1064.63 45.6628 1064.9 47.1152Q1065.18 48.5676 1065.38 50.0392Q1065.59 51.5109 1065.73 52.9988Q1065.86 54.4866 1065.93 55.9877Q1066 57.4888 1066 59L1066 1512Q1066 1513.51 1065.93 1515.01Q1065.86 1516.51 1065.73 1518Q1065.59 1519.49 1065.38 1520.96Q1065.18 1522.43 1064.9 1523.88Q1064.63 1525.34 1064.29 1526.77Q1063.95 1528.2 1063.54 1529.6Q1063.13 1531.01 1062.66 1532.39Q1062.18 1533.76 1061.65 1535.11Q1061.11 1536.45 1060.5 1537.77Q1059.9 1539.08 1059.24 1540.36Q1058.57 1541.63 1057.85 1542.87Q1057.12 1544.11 1056.33 1545.31Q1055.55 1546.5 1054.7 1547.65Q1053.86 1548.81 1052.96 1549.91Q1052.06 1551.02 1051.11 1552.08Q1050.15 1553.14 1049.14 1554.14Q1048.14 1555.15 1047.08 1556.11Q1046.02 1557.06 1044.91 1557.96Q1043.81 1558.86 1042.65 1559.7Q1041.5 1560.55 1040.31 1561.33Q1039.11 1562.12 1037.87 1562.85Q1036.63 1563.57 1035.36 1564.24Q1034.08 1564.9 1032.77 1565.5Q1031.45 1566.11 1030.11 1566.65Q1028.76 1567.18 1027.39 1567.66Q1026.01 1568.13 1024.6 1568.54Q1023.2 1568.95 1021.77 1569.29Q1020.34 1569.63 1018.88 1569.9Q1017.43 1570.18 1015.96 1570.38Q1014.49 1570.59 1013 1570.73Q1011.51 1570.86 1010.01 1570.93Q1008.51 1571 1007 1571L18 1571Q17.539 1571 17.081 1570.98Q16.623 1570.96 16.1691 1570.92Q15.7152 1570.87 15.2662 1570.81Q14.8172 1570.75 14.3741 1570.67Q13.931 1570.58 13.4947 1570.48Q13.0584 1570.37 12.6297 1570.25Q12.201 1570.13 11.7809 1569.98Q11.3608 1569.84 10.95 1569.67Q10.5393 1569.51 10.1388 1569.32Q9.73829 1569.14 9.34883 1568.94Q8.95938 1568.73 8.58178 1568.51Q8.20417 1568.29 7.83917 1568.05Q7.47418 1567.81 7.12255 1567.55Q6.77092 1567.3 6.43336 1567.02Q6.0958 1566.75 5.77301 1566.46Q5.45022 1566.16 5.14286 1565.86Q4.83549 1565.55 4.54418 1565.23Q4.25286 1564.9 3.97819 1564.57Q3.70352 1564.23 3.44606 1563.88Q3.1886 1563.53 2.94886 1563.16Q2.70913 1562.8 2.48762 1562.42Q2.2661 1562.04 2.06326 1561.65Q1.86042 1561.26 1.67667 1560.86Q1.49291 1560.46 1.32862 1560.05Q1.16433 1559.64 1.01983 1559.22Q0.875329 1558.8 0.750921 1558.37Q0.626513 1557.94 0.52245 1557.51Q0.418387 1557.07 0.334881 1556.63Q0.251374 1556.18 0.188595 1555.73Q0.125815 1555.29 0.0838912 1554.83Q0.041967 1554.38 0.0209835 1553.92Q0 1553.46 0 1553L0 18Q0 17.539 0.0209835 17.081Q0.041967 16.623 0.0838912 16.1691Q0.125815 15.7152 0.188595 15.2662Q0.251374 14.8172 0.334881 14.3741Q0.418387 13.931 0.52245 13.4947Q0.626513 13.0584 0.750921 12.6297Q0.875329 12.201 1.01983 11.7809Q1.16433 11.3608 1.32862 10.95Q1.49291 10.5393 1.67667 10.1388Q1.86042 9.73829 2.06326 9.34883Q2.2661 8.95938 2.48762 8.58178Q2.70913 8.20417 2.94886 7.83917Q3.1886 7.47418 3.44606 7.12255Q3.70352 6.77092 3.97819 6.43336Q4.25286 6.0958 4.54418 5.77301Q4.83549 5.45022 5.14286 5.14286Q5.45022 4.83549 5.77301 4.54418Q6.09581 4.25286 6.43336 3.97819Q6.77092 3.70352 7.12255 3.44606Q7.47418 3.1886 7.83917 2.94886Q8.20417 2.70913 8.58177 2.48762Q8.95938 2.2661 9.34883 2.06326Q9.73829 1.86042 10.1388 1.67667Q10.5393 1.49291 10.95 1.32862Q11.3608 1.16433 11.7809 1.01983Q12.201 0.875329 12.6297 0.750921Q13.0584 0.626513 13.4947 0.52245Q13.931 0.418387 14.3741 0.334881Q14.8172 0.251374 15.2662 0.188595Q15.7152 0.125815 16.1691 0.0838912Q16.623 0.041967 17.081 0.0209835Q17.539 0 18 0Z"/>
	</g>
	<defs>
		<clipPath id="clip_28">
			<rect width="5200" height="1865" clip-rule="evenodd"/>
		</clipPath>
	</defs>
	<g clip-path="url(#clip_28)">
		<path fill="rgb(186,193,195)" stroke="none" transform="translate(3180 492)" d="M5 10C2.243 10 0 7.757 0 5C0 2.243 2.243 0 5 0C7.757 0 10 2.243 10 5C10 7.757 7.757 10 5 10"/>
	</g>
	<defs>
		<clipPath id="clip_29">
			<rect width="5200" height="1865" clip-rule="evenodd"/>
		</clipPath>
	</defs>
	<g clip-path="url(#clip_29)">
		<path fill="rgb(208,215,218)" stroke="none" transform="translate(3176 489)" d="M8 0C3.58857 0 0 3.58857 0 8C0 12.4114 3.58857 16 8 16C12.4114 16 16 12.4114 16 8C16 3.58857 12.4114 0 8 0M8 4.57143C9.89371 4.57143 11.4286 6.10629 11.4286 8C11.4286 9.89371 9.89371 11.4286 8 11.4286C6.10629 11.4286 4.57143 9.89371 4.57143 8C4.57143 6.10629 6.10629 4.57143 8 4.57143"/>
	</g>
	<defs>
		<clipPath id="clip_30">
			<rect width="5200" height="1865" clip-rule="evenodd"/>
		</clipPath>
	</defs>
	<g clip-path="url(#clip_30)">
		<path fill="rgb(221,227,229)" stroke="none" transform="translate(2463 535)" d="M2 0L1442 0Q1442.1 0 1442.2 0.00932124Q1442.3 0.0186425 1442.4 0.037209Q1442.5 0.0557754 1442.6 0.0834357Q1442.69 0.111096 1442.78 0.147624Q1442.88 0.184153 1442.96 0.229252Q1443.05 0.27435 1443.13 0.327651Q1443.21 0.380953 1443.29 0.442021Q1443.36 0.50309 1443.43 0.571429Q1443.5 0.639767 1443.56 0.714818Q1443.62 0.789868 1443.67 0.871019Q1443.73 0.95217 1443.77 1.03876Q1443.82 1.12535 1443.85 1.21667Q1443.89 1.30799 1443.92 1.4033Q1443.94 1.49861 1443.96 1.59713Q1443.98 1.69564 1443.99 1.79657Q1444 1.89749 1444 2L1444 902Q1444 902.103 1443.99 902.204Q1443.98 902.304 1443.96 902.403Q1443.94 902.502 1443.92 902.597Q1443.89 902.692 1443.85 902.783Q1443.82 902.875 1443.77 902.961Q1443.73 903.048 1443.67 903.129Q1443.62 903.21 1443.56 903.285Q1443.5 903.36 1443.43 903.429Q1443.36 903.497 1443.29 903.558Q1443.21 903.619 1443.13 903.672Q1443.05 903.726 1442.96 903.771Q1442.87 903.816 1442.78 903.852Q1442.69 903.889 1442.6 903.917Q1442.5 903.944 1442.4 903.963Q1442.3 903.981 1442.2 903.991Q1442.1 904 1442 904L2 904Q1.89749 904 1.79657 903.991Q1.69564 903.981 1.59713 903.963Q1.49861 903.944 1.4033 903.917Q1.30799 903.889 1.21667 903.852Q1.12535 903.816 1.03876 903.771Q0.95217 903.726 0.871019 903.672Q0.789868 903.619 0.714818 903.558Q0.639767 903.497 0.571429 903.429Q0.50309 903.36 0.442021 903.285Q0.380953 903.21 0.327651 903.129Q0.27435 903.048 0.229252 902.961Q0.184153 902.875 0.147624 902.783Q0.111096 902.692 0.0834357 902.597Q0.0557754 902.502 0.037209 902.403Q0.0186425 902.304 0.00932124 902.204Q0 902.103 0 902L0 2Q0 1.89749 0.00932124 1.79657Q0.0186425 1.69564 0.037209 1.59713Q0.0557754 1.49861 0.0834357 1.4033Q0.111096 1.30799 0.147624 1.21667Q0.184153 1.12535 0.229252 1.03876Q0.27435 0.95217 0.327651 0.871019Q0.380953 0.789868 0.442021 0.714818Q0.50309 0.639767 0.571429 0.571429Q0.639767 0.50309 0.714818 0.442021Q0.789868 0.380953 0.871019 0.327651Q0.95217 0.27435 1.03876 0.229252Q1.12535 0.184153 1.21667 0.147624Q1.30799 0.111096 1.4033 0.0834357Q1.49861 0.0557754 1.59713 0.037209Q1.69564 0.0186425 1.79657 0.00932124Q1.89749 0 2 0Z"/>
	</g>
	<defs>
		<clipPath id="clip_31">
			<rect width="5200" height="1865" clip-rule="evenodd"/>
		</clipPath>
	</defs>
	<g clip-path="url(#clip_31)">
		<path fill="none" stroke="rgb(203,210,212)" stroke-width="12" stroke-miterlimit="4" transform="translate(2225 1519)" d="M0 1.99904L0 13.1182C0 13.1182 52.998 32.4697 241 34.999C429.508 34.6944 1611 34.999 1611 34.999C1611 34.999 1841.59 36.2822 1918.58 12.3174L1918.58 2.91518Q1918.58 2.81267 1918.57 2.71174Q1918.56 2.61081 1918.54 2.51228Q1918.52 2.41376 1918.49 2.31844Q1918.47 2.22311 1918.43 2.13178Q1918.39 2.04044 1918.35 1.95383Q1918.3 1.86722 1918.25 1.78604Q1918.2 1.70486 1918.13 1.62978Q1918.07 1.5547 1918 1.48633Q1917.94 1.41796 1917.86 1.35686Q1917.79 1.29575 1917.71 1.24241Q1917.62 1.18907 1917.54 1.14393Q1917.45 1.09879 1917.36 1.06222Q1917.27 1.02565 1917.17 0.997943Q1917.08 0.970237 1916.98 0.951623Q1916.88 0.93301 1916.78 0.92364Q1916.68 0.914271 1916.58 0.914222L2 -3.85393e-06Q1.89749 -5.28022e-05 1.79657 0.00922025Q1.69564 0.0184933 1.59713 0.0370127Q1.49861 0.0555321 1.4033 0.0831469Q1.30799 0.110762 1.21667 0.147246Q1.12535 0.183731 1.03876 0.228789Q0.95217 0.273846 0.871019 0.327108Q0.789868 0.380371 0.714818 0.441404Q0.639767 0.502437 0.571429 0.570743Q0.50309 0.639048 0.442021 0.71407Q0.380952 0.789092 0.327651 0.870217Q0.27435 0.951342 0.229251 1.03791Q0.184153 1.12448 0.147624 1.21578Q0.111096 1.30708 0.0834357 1.40238Q0.0557754 1.49767 0.0372089 1.59618Q0.0186425 1.69469 0.00932124 1.79561Q0 1.89653 0 1.99904Z"/>
	</g>
	<defs>
		<clipPath id="clip_32">
			<rect width="5200" height="1865" clip-rule="evenodd"/>
		</clipPath>
	</defs>
	<g clip-path="url(#clip_32)">
		<path fill="rgb(203,210,212)" stroke="none" transform="translate(2224 1531)" d="M1921 0C1921 0 1901.22 24 1490.55 23.1429C1355.17 22.8603 1161.21 22.8549 962 22.9746C760.438 22.8549 566.052 22.8598 430.448 23.1429C19.7842 24 0 0 0 0L961 0L1921 0Z"/>
	</g>
	<defs>
		<clipPath id="clip_33">
			<rect width="5200" height="1865" clip-rule="evenodd"/>
		</clipPath>
	</defs>
	<g clip-path="url(#clip_33)">
		<path fill="rgb(234,239,241)" stroke="none" transform="translate(2224 1519)" d="M2 0L1919 0Q1919.1 0 1919.2 0.00932124Q1919.3 0.0186425 1919.4 0.037209Q1919.5 0.0557754 1919.6 0.0834357Q1919.69 0.111096 1919.78 0.147624Q1919.88 0.184153 1919.96 0.229252Q1920.05 0.27435 1920.13 0.327651Q1920.21 0.380953 1920.29 0.442021Q1920.36 0.50309 1920.43 0.571429Q1920.5 0.639767 1920.56 0.714818Q1920.62 0.789868 1920.67 0.871019Q1920.73 0.95217 1920.77 1.03876Q1920.82 1.12535 1920.85 1.21667Q1920.89 1.30799 1920.92 1.4033Q1920.94 1.49861 1920.96 1.59713Q1920.98 1.69564 1920.99 1.79657Q1921 1.89749 1921 2L1921 12L0 12L0 2Q0 1.89749 0.00932124 1.79657Q0.0186425 1.69564 0.037209 1.59713Q0.0557754 1.49861 0.0834357 1.4033Q0.111096 1.30799 0.147624 1.21667Q0.184153 1.12535 0.229252 1.03876Q0.27435 0.95217 0.327651 0.871019Q0.380953 0.789868 0.442021 0.714818Q0.50309 0.639767 0.571429 0.571429Q0.639767 0.50309 0.714818 0.442021Q0.789868 0.380953 0.871019 0.327651Q0.95217 0.27435 1.03876 0.229252Q1.12535 0.184153 1.21667 0.147624Q1.30799 0.111096 1.4033 0.0834357Q1.49861 0.0557754 1.59713 0.037209Q1.69564 0.0186425 1.79657 0.00932124Q1.89749 0 2 0Z"/>
	</g>
	<defs>
		<clipPath id="clip_34">
			<rect width="5200" height="1865" clip-rule="evenodd"/>
		</clipPath>
	</defs>
	<g clip-path="url(#clip_34)">
		<path fill="rgb(217,224,227)" stroke="none" transform="translate(3003 1519)" d="M0 0L364 0L364 12C364 12 318.152 16 182.719 16C47.2852 16 0 12 0 12L0 0Z"/>
	</g>
	<defs>
		<clipPath id="clip_35">
			<rect width="5200" height="1865" clip-rule="evenodd"/>
		</clipPath>
	</defs>
	<g clip-path="url(#clip_35)">
		<path fill="rgb(52,52,52)" stroke="none" transform="translate(2465 537)" d="M2 0L1438 0Q1438.1 0 1438.2 0.00932124Q1438.3 0.0186425 1438.4 0.037209Q1438.5 0.0557754 1438.6 0.0834357Q1438.69 0.111096 1438.78 0.147624Q1438.87 0.184153 1438.96 0.229252Q1439.05 0.27435 1439.13 0.327651Q1439.21 0.380953 1439.29 0.442021Q1439.36 0.50309 1439.43 0.571429Q1439.5 0.639767 1439.56 0.714818Q1439.62 0.789868 1439.67 0.871019Q1439.73 0.95217 1439.77 1.03876Q1439.82 1.12535 1439.85 1.21667Q1439.89 1.30799 1439.92 1.4033Q1439.94 1.49861 1439.96 1.59713Q1439.98 1.69564 1439.99 1.79657Q1440 1.89749 1440 2L1440 898Q1440 898.103 1439.99 898.203Q1439.98 898.304 1439.96 898.403Q1439.94 898.501 1439.92 898.597Q1439.89 898.692 1439.85 898.783Q1439.82 898.875 1439.77 898.961Q1439.73 899.048 1439.67 899.129Q1439.62 899.21 1439.56 899.285Q1439.5 899.36 1439.43 899.429Q1439.36 899.497 1439.29 899.558Q1439.21 899.619 1439.13 899.672Q1439.05 899.726 1438.96 899.771Q1438.87 899.816 1438.78 899.852Q1438.69 899.889 1438.6 899.917Q1438.5 899.944 1438.4 899.963Q1438.3 899.981 1438.2 899.991Q1438.1 900 1438 900L2 900Q1.89749 900 1.79657 899.991Q1.69564 899.981 1.59713 899.963Q1.49861 899.944 1.4033 899.917Q1.30799 899.889 1.21667 899.852Q1.12535 899.816 1.03876 899.771Q0.95217 899.726 0.871019 899.672Q0.789868 899.619 0.714818 899.558Q0.639767 899.497 0.571429 899.429Q0.50309 899.36 0.442021 899.285Q0.380953 899.21 0.327651 899.129Q0.27435 899.048 0.229252 898.961Q0.184153 898.875 0.147624 898.783Q0.111096 898.692 0.0834357 898.597Q0.0557754 898.501 0.037209 898.403Q0.0186425 898.304 0.00932124 898.203Q0 898.103 0 898L0 2Q0 1.89749 0.00932124 1.79657Q0.0186425 1.69564 0.037209 1.59713Q0.0557754 1.49861 0.0834357 1.4033Q0.111096 1.30799 0.147624 1.21667Q0.184153 1.12535 0.229252 1.03876Q0.27435 0.95217 0.327651 0.871019Q0.380953 0.789868 0.442021 0.714818Q0.50309 0.639767 0.571429 0.571429Q0.639767 0.50309 0.714818 0.442021Q0.789868 0.380953 0.871019 0.327651Q0.95217 0.27435 1.03876 0.229252Q1.12535 0.184153 1.21667 0.147624Q1.30799 0.111096 1.4033 0.0834357Q1.49861 0.0557754 1.59713 0.037209Q1.69564 0.0186425 1.79657 0.00932124Q1.89749 0 2 0Z"/>
	</g>
</svg>
