<?xml version="1.0" encoding="UTF-8" standalone="no"?>
<!-- Created with Inkscape (http://www.inkscape.org/) -->

<svg
   xmlns:dc="http://purl.org/dc/elements/1.1/"
   xmlns:cc="http://creativecommons.org/ns#"
   xmlns:rdf="http://www.w3.org/1999/02/22-rdf-syntax-ns#"
   xmlns:svg="http://www.w3.org/2000/svg"
   xmlns="http://www.w3.org/2000/svg"
   xmlns:sodipodi="http://sodipodi.sourceforge.net/DTD/sodipodi-0.dtd"
   xmlns:inkscape="http://www.inkscape.org/namespaces/inkscape"
   version="1.1"
   id="svg2"
   xml:space="preserve"
   width="666.66669"
   height="666.66669"
   viewBox="0 0 666.66669 666.66669"
   sodipodi:docname="369727-PBABD0-705.svg"
   inkscape:version="0.92.3 (2405546, 2018-03-11)"><metadata
     id="metadata8"><rdf:RDF><cc:Work
         rdf:about=""><dc:format>image/svg+xml</dc:format><dc:type
           rdf:resource="http://purl.org/dc/dcmitype/StillImage" /><dc:title></dc:title></cc:Work></rdf:RDF></metadata><defs
     id="defs6"><clipPath
       clipPathUnits="userSpaceOnUse"
       id="clipPath20"><path
         d="M 0,500 H 500 V 0 H 0 Z"
         id="path18"
         inkscape:connector-curvature="0" /></clipPath><clipPath
       clipPathUnits="userSpaceOnUse"
       id="clipPath300"><path
         d="M 97.9716,303.899 H 229.669 V 194.428 H 97.9716 Z"
         id="path298"
         inkscape:connector-curvature="0" /></clipPath><clipPath
       clipPathUnits="userSpaceOnUse"
       id="clipPath304"><path
         d="m 97.972,225.448 56.283,78.451 63.452,-23.289 11.962,-47.615 c 0,0 -68.676,-38.951 -71.473,-38.564 -2.796,0.386 -52.447,3.085 -52.447,3.085 z"
         id="path302"
         inkscape:connector-curvature="0" /></clipPath><linearGradient
       x1="0"
       y1="0"
       x2="1"
       y2="0"
       gradientUnits="userSpaceOnUse"
       gradientTransform="matrix(90.461792,62.023308,62.023308,-90.461792,102.74377,207.27673)"
       spreadMethod="pad"
       id="linearGradient314"><stop
         style="stop-opacity:1;stop-color:#ffffff"
         offset="0"
         id="stop310" /><stop
         style="stop-opacity:0;stop-color:#ffffff"
         offset="1"
         id="stop312" /></linearGradient><mask
       maskUnits="userSpaceOnUse"
       x="0"
       y="0"
       width="1"
       height="1"
       id="mask316"><g
         id="g326"><g
           id="g324"><g
             id="g322"><g
               id="g320"><path
                 d="M -32768,32767 H 32767 V -32768 H -32768 Z"
                 style="fill:url(#linearGradient314);stroke:none"
                 id="path318"
                 inkscape:connector-curvature="0" /></g></g></g></g></mask><linearGradient
       x1="0"
       y1="0"
       x2="1"
       y2="0"
       gradientUnits="userSpaceOnUse"
       gradientTransform="matrix(90.461792,62.023308,62.023308,-90.461792,102.74377,207.27673)"
       spreadMethod="pad"
       id="linearGradient332"><stop
         style="stop-opacity:1;stop-color:#ffffff"
         offset="0"
         id="stop328" /><stop
         style="stop-opacity:1;stop-color:#00a2a0"
         offset="1"
         id="stop330" /></linearGradient><clipPath
       clipPathUnits="userSpaceOnUse"
       id="clipPath388"><path
         d="M 69.135,187.116 422.533,159.05 v 28.066 z"
         id="path386"
         inkscape:connector-curvature="0" /></clipPath><linearGradient
       x1="0"
       y1="0"
       x2="1"
       y2="0"
       gradientUnits="userSpaceOnUse"
       gradientTransform="matrix(24.699846,113.9995,113.9995,-24.699846,243.54813,162.53131)"
       spreadMethod="pad"
       id="linearGradient402"><stop
         style="stop-opacity:0;stop-color:#ffffff"
         offset="0"
         id="stop398" /><stop
         style="stop-opacity:0.70000763;stop-color:#ffffff"
         offset="1"
         id="stop400" /></linearGradient><mask
       maskUnits="userSpaceOnUse"
       x="0"
       y="0"
       width="1"
       height="1"
       id="mask404"><g
         id="g414"><g
           id="g412"><g
             id="g410"><g
               id="g408"><path
                 d="M -32768,32767 H 32767 V -32768 H -32768 Z"
                 style="fill:url(#linearGradient402);stroke:none"
                 id="path406"
                 inkscape:connector-curvature="0" /></g></g></g></g></mask><linearGradient
       x1="0"
       y1="0"
       x2="1"
       y2="0"
       gradientUnits="userSpaceOnUse"
       gradientTransform="matrix(24.699846,113.9995,113.9995,-24.699846,243.54813,162.53131)"
       spreadMethod="pad"
       id="linearGradient424"><stop
         style="stop-opacity:1;stop-color:#686476"
         offset="0"
         id="stop420" /><stop
         style="stop-opacity:1;stop-color:#524e64"
         offset="1"
         id="stop422" /></linearGradient><clipPath
       clipPathUnits="userSpaceOnUse"
       id="clipPath434"><path
         d="M 0,500 H 500 V 0 H 0 Z"
         id="path432"
         inkscape:connector-curvature="0" /></clipPath><clipPath
       clipPathUnits="userSpaceOnUse"
       id="clipPath476"><path
         d="M 261.513,303.899 H 393.211 V 194.428 H 261.513 Z"
         id="path474"
         inkscape:connector-curvature="0" /></clipPath><clipPath
       clipPathUnits="userSpaceOnUse"
       id="clipPath480"><path
         d="m 393.211,225.448 -56.283,78.451 -63.453,-23.289 -11.961,-47.615 c 0,0 68.675,-38.951 71.472,-38.564 2.796,0.386 52.448,3.085 52.448,3.085 z"
         id="path478"
         inkscape:connector-curvature="0" /></clipPath><linearGradient
       x1="0"
       y1="0"
       x2="1"
       y2="0"
       gradientUnits="userSpaceOnUse"
       gradientTransform="matrix(-90.461792,62.023308,-62.023308,-90.461792,388.43838,207.27673)"
       spreadMethod="pad"
       id="linearGradient490"><stop
         style="stop-opacity:1;stop-color:#ffffff"
         offset="0"
         id="stop486" /><stop
         style="stop-opacity:0;stop-color:#ffffff"
         offset="1"
         id="stop488" /></linearGradient><mask
       maskUnits="userSpaceOnUse"
       x="0"
       y="0"
       width="1"
       height="1"
       id="mask492"><g
         id="g502"><g
           id="g500"><g
             id="g498"><g
               id="g496"><path
                 d="M -32768,32767 H 32767 V -32768 H -32768 Z"
                 style="fill:url(#linearGradient490);stroke:none"
                 id="path494"
                 inkscape:connector-curvature="0" /></g></g></g></g></mask><linearGradient
       x1="0"
       y1="0"
       x2="1"
       y2="0"
       gradientUnits="userSpaceOnUse"
       gradientTransform="matrix(-90.461792,62.023308,-62.023308,-90.461792,388.43838,207.27673)"
       spreadMethod="pad"
       id="linearGradient508"><stop
         style="stop-opacity:1;stop-color:#ffffff"
         offset="0"
         id="stop504" /><stop
         style="stop-opacity:1;stop-color:#00a2a0"
         offset="1"
         id="stop506" /></linearGradient><clipPath
       clipPathUnits="userSpaceOnUse"
       id="clipPath616"><path
         d="M 0,500 H 500 V 0 H 0 Z"
         id="path614"
         inkscape:connector-curvature="0" /></clipPath></defs><sodipodi:namedview
     pagecolor="#ffffff"
     bordercolor="#666666"
     borderopacity="1"
     objecttolerance="10"
     gridtolerance="10"
     guidetolerance="10"
     inkscape:pageopacity="0"
     inkscape:pageshadow="2"
     inkscape:window-width="1600"
     inkscape:window-height="847"
     id="namedview4"
     showgrid="false"
     inkscape:zoom="0.70799998"
     inkscape:cx="403.19506"
     inkscape:cy="290.03198"
     inkscape:window-x="-8"
     inkscape:window-y="-8"
     inkscape:window-maximized="1"
     inkscape:current-layer="g10" /><g
     id="g10"
     inkscape:groupmode="layer"
     inkscape:label="369727-PBABD0-705"
     transform="matrix(1.3333333,0,0,-1.3333333,0,666.66667)"><g
       id="g14"
       transform="translate(1.2765139,31.157701)"><g
         id="g16"
         clip-path="url(#clipPath20)"><g
           id="g22"
           transform="translate(438.3828,65.7148)"><path
             d="m 0,0 c 0,-11.666 -85.477,-21.123 -190.917,-21.123 -105.44,0 -190.917,9.457 -190.917,21.123 0,11.666 85.477,21.123 190.917,21.123 C -85.477,21.123 0,11.666 0,0"
             style="fill:#151e1c;fill-opacity:1;fill-rule:nonzero;stroke:none"
             id="path24"
             inkscape:connector-curvature="0" /></g><g
           id="g26"
           transform="translate(343.1348,256.9253)"><path
             d="m 0,0 c -1.093,3.463 -2.366,7.028 -1.911,10.631 0.604,4.775 4.169,8.849 4.469,13.653 0.294,4.691 -2.638,9.04 -6.211,12.093 -6.232,5.326 -14.97,7.797 -22.949,5.914 C -34.58,40.407 -41.466,33.979 -43.321,25.995 -43.98,23.157 -44.034,20.192 -44.869,17.4 -47.915,7.213 -59.864,2.651 -65.796,-6.173 c -5.046,-7.505 -5.107,-17.734 -1.234,-25.906 3.873,-8.172 11.259,-14.348 19.545,-17.974 9.762,-4.273 22.442,-4.696 29.886,2.93 7.351,7.531 4.342,18.04 9.49,26.102 C -2.844,-12.775 3.719,-11.773 0,0"
             style="fill:#ffffff;fill-opacity:1;fill-rule:nonzero;stroke:none"
             id="path28"
             inkscape:connector-curvature="0" /></g><g
           id="g30"
           transform="translate(335.3193,243.5)"><path
             d="m 0,0 c 4.217,-3.562 6.066,-12.155 7.184,-22.209 1.117,-10.055 0.757,-27.523 2.433,-31.992 0,0 -5.614,-4.101 -7.29,-3.542 C 0.652,-57.185 -3.324,-29.256 -5,-20.598 -6.676,-11.939 0,0 0,0"
             style="fill:#f6d1a0;fill-opacity:1;fill-rule:nonzero;stroke:none"
             id="path32"
             inkscape:connector-curvature="0" /></g><g
           id="g34"
           transform="translate(334.5059,282.9253)"><path
             d="M 0,0 C -5.298,-0.921 -10.674,5.499 -14.802,3.723 -18.93,1.948 -19.69,-9.192 -22.736,-9.18 c -6.002,6.327 -5.921,-1.79 -4.056,-5.028 0.961,-1.667 3.407,-1.623 3.407,-1.623 0,0 1.523,-9.929 8.578,-13.671 3.794,-2.012 9.532,0.213 13.173,5.824 3.641,5.611 6.071,22.334 6.071,22.334 0,0 -0.206,2.079 -4.437,1.344"
             style="fill:#f6d1a0;fill-opacity:1;fill-rule:nonzero;stroke:none"
             id="path36"
             inkscape:connector-curvature="0" /></g><g
           id="g38"
           transform="translate(322.7998,256.4639)"><path
             d="m 0,0 c -0.567,-2.838 0.757,-8.892 0.757,-8.892 0,0 -12.129,1.713 -15.724,2.47 0,0 5.287,9.843 5.707,13.831 z"
             style="fill:#f6d1a0;fill-opacity:1;fill-rule:nonzero;stroke:none"
             id="path40"
             inkscape:connector-curvature="0" /></g><g
           id="g42"
           transform="translate(316.5566,250.2207)"><path
             d="m 0,0 -4.881,2.974 c 0,0 -5.304,-2.413 -10.033,-3.359 -4.73,-0.946 -5.79,-1.592 -5.79,-1.592 0,0 5.002,-19.401 19.38,-19.59 14.378,-0.19 17.216,18.54 17.216,18.54 L 6.621,0.378 Z"
             style="fill:#f6d1a0;fill-opacity:1;fill-rule:nonzero;stroke:none"
             id="path44"
             inkscape:connector-curvature="0" /></g><g
           id="g46"
           transform="translate(332.4727,213.6748)"><path
             d="m 0,0 c -6.62,-11.476 -2.304,-16.267 -1.187,-22.411 1.575,-8.658 6.008,-13.119 9.025,-18.766 -9.033,-1.556 -12.96,-10.953 -21.233,-9.736 -13.762,2.024 -23.19,-0.674 -31.302,-0.135 1.802,18.816 1.171,26.331 2.968,39.805 1.798,13.497 5.911,29.413 5.911,29.413 0,0 0.6,4.499 0.299,8.397 -0.299,3.9 -3.002,8.002 -3.002,8.002 l 11.002,2.646 c 0,0 7.949,-7.948 14.247,-6.448 6.298,1.5 7.736,5.636 7.736,5.636 C 2.563,34.304 4.585,32.26 4.585,32.26 5.917,29.877 0.677,17.381 0.677,17.381 1.577,13.482 4.189,7.262 0,0"
             style="fill:#9193ef;fill-opacity:1;fill-rule:nonzero;stroke:none"
             id="path48"
             inkscape:connector-curvature="0" /></g><g
           id="g50"
           transform="translate(293.0557,245.7891)"><path
             d="m 0,0 c 0,0 -6.338,-3.617 -5.428,-9.933 0.909,-6.315 26.574,-39.286 26.574,-39.286 0,0 -0.377,-4.006 10.735,-5.812 11.354,-1.846 28.38,0.088 28.38,0.088 l 2.458,6.847 c 0,0 -15.987,1.46 -21.312,3.568 -8.069,3.193 -13.761,3.63 -13.761,3.63 0,0 -16.059,24.874 -18.116,28.633 C 7.475,-8.504 7.476,-1.552 0,0"
             style="fill:#f6d1a0;fill-opacity:1;fill-rule:nonzero;stroke:none"
             id="path52"
             inkscape:connector-curvature="0" /></g><g
           id="g54"
           transform="translate(329.5762,271.0889)"><path
             d="m 0,0 c 0.272,-2.435 1.514,-4.544 1.518,-7.047 0,-0.177 -0.119,-0.329 -0.285,-0.381 -1.129,-0.355 -2.415,-0.603 -3.5,-0.026 -0.199,0.106 -0.094,0.38 0.104,0.398 0.733,0.066 1.826,-0.214 2.501,0.152 0.756,0.41 0.176,1.974 -0.008,2.678 -0.366,1.406 -0.786,2.763 -0.883,4.22 C -0.577,0.354 -0.039,0.348 0,0"
             style="fill:#2a3231;fill-opacity:1;fill-rule:nonzero;stroke:none"
             id="path56"
             inkscape:connector-curvature="0" /></g><g
           id="g58"
           transform="translate(322.7627,262.4722)"><path
             d="M 0,0 C 1.844,-1.727 4.605,-2.62 7.067,-2.071 7.413,-1.995 7.597,-2.439 7.305,-2.635 5.032,-4.163 1.051,-2.271 -0.417,-0.322 -0.605,-0.073 -0.211,0.198 0,0"
             style="fill:#2a3231;fill-opacity:1;fill-rule:nonzero;stroke:none"
             id="path60"
             inkscape:connector-curvature="0" /></g><g
           id="g62"
           transform="translate(324.75,271.7451)"><path
             d="M 0,0 0.038,-0.009 C -0.181,0.375 -0.398,0.759 -0.616,1.143 -0.627,1.107 -0.637,1.071 -0.647,1.036 -0.566,1.175 -0.485,1.313 -0.404,1.453 -0.433,1.427 -0.461,1.401 -0.49,1.375 -0.35,1.458 -0.209,1.539 -0.069,1.621 -0.105,1.611 -0.143,1.601 -0.179,1.59 H 0.333 C 0.297,1.601 0.261,1.611 0.225,1.622 v -1.873 c 0.013,0.003 0.026,0.006 0.039,0.009 0.557,0.134 0.753,0.691 0.68,1.199 C 0.89,1.341 0.528,1.628 0.184,1.733 -0.365,1.902 -0.817,1.528 -1.015,1.053 -1.02,1.041 -1.024,1.029 -1.029,1.017 -1.212,0.578 -0.868,0.034 -0.468,-0.127 0.003,-0.316 0.459,-0.137 0.743,0.27 0.751,0.281 0.759,0.292 0.766,0.302 0.321,0.186 -0.123,0.069 -0.567,-0.047 c -0.042,0.031 -0.085,0.062 -0.128,0.093 -0.084,0.144 -0.168,0.287 -0.251,0.432 0.004,-0.014 0.008,-0.026 0.011,-0.04 0.227,0.4 0.454,0.8 0.68,1.199 C -0.267,1.632 -0.279,1.627 -0.291,1.622 -1.331,1.196 -1.139,-0.14 -0.033,-0.286 0.705,-0.383 1.14,0.256 1.223,0.895 1.289,1.396 0.745,1.831 0.287,1.831 -0.187,1.831 -0.692,1.401 -0.649,0.895 -0.639,0.81 -0.636,0.725 -0.64,0.64 -0.643,0.267 -0.343,0.036 0,0"
             style="fill:#2a3231;fill-opacity:1;fill-rule:nonzero;stroke:none"
             id="path64"
             inkscape:connector-curvature="0" /></g><g
           id="g66"
           transform="translate(332.3672,269.9087)"><path
             d="M 0,0 V -0.042 C 0.171,0.181 0.341,0.405 0.511,0.628 0.539,0.635 0.566,0.642 0.595,0.648 0.834,0.465 1.074,0.283 1.313,0.1 1.303,0.131 1.291,0.162 1.279,0.193 v -0.404 c 0.008,0.036 0.016,0.071 0.023,0.107 -0.25,-0.19 -0.5,-0.381 -0.751,-0.571 C 0.702,-0.661 0.849,-0.648 1,-0.646 2.393,-0.631 1.862,1.637 0.564,0.961 0.494,0.919 0.42,0.884 0.344,0.854 0.051,0.731 -0.265,0.468 -0.228,0.104 c 0.033,-0.313 0.107,-0.486 0.295,-0.729 0.163,-0.212 0.488,-0.243 0.726,-0.192 0.019,0.004 0.04,0.008 0.06,0.013 0.306,0.065 0.548,0.402 0.541,0.71 C 1.393,-0.077 1.393,-0.06 1.392,-0.042 1.386,0.198 1.265,0.44 1.047,0.559 1.035,0.565 1.022,0.572 1.01,0.579 0.566,0.82 0.001,0.521 0,0"
             style="fill:#2a3231;fill-opacity:1;fill-rule:nonzero;stroke:none"
             id="path68"
             inkscape:connector-curvature="0" /></g><g
           id="g70"
           transform="translate(306.2871,227.667)"><path
             d="m 0,0 -12.056,-6.987 c 0,0 -13.589,13.121 -3.562,25.018 C -5.592,29.929 0,0 0,0"
             style="fill:#9193ef;fill-opacity:1;fill-rule:nonzero;stroke:none"
             id="path72"
             inkscape:connector-curvature="0" /></g><g
           id="g74"
           transform="translate(331.8066,227.0088)"><path
             d="m 0,0 11.739,2.976 c 0,0 0.426,15.628 -9.494,17.895 C -7.676,23.138 0,0 0,0"
             style="fill:#9193ef;fill-opacity:1;fill-rule:nonzero;stroke:none"
             id="path76"
             inkscape:connector-curvature="0" /></g><g
           id="g78"
           transform="translate(336.3066,275.8335)"><path
             d="m 0,0 c -0.715,0.36 -1.459,0.621 -2.211,0.894 -0.547,0.198 -1.18,-0.224 -1.325,-0.753 -0.163,-0.593 0.2,-1.135 0.752,-1.326 0.671,-0.232 1.327,-0.472 2.021,-0.624 C 0.28,-2.038 1.051,-0.529 0,0"
             style="fill:#ffffff;fill-opacity:1;fill-rule:nonzero;stroke:none"
             id="path80"
             inkscape:connector-curvature="0" /></g><g
           id="g82"
           transform="translate(326.7178,278.3022)"><path
             d="m 0,0 c -1.033,0.043 -2.342,0.288 -3.289,-0.183 -0.651,-0.324 -0.651,-1.399 0,-1.723 C -2.34,-2.378 -1.033,-2.133 0,-2.089 1.344,-2.033 1.346,-0.057 0,0"
             style="fill:#ffffff;fill-opacity:1;fill-rule:nonzero;stroke:none"
             id="path84"
             inkscape:connector-curvature="0" /></g><g
           id="g86"
           transform="translate(334.2471,133.6807)"><path
             d="m 0,0 h -74.069 c -2.75,0 -5,2.25 -5,5 v 3.524 c 0,2.75 2.25,5 5,5 H 0 c 2.75,0 5,-2.25 5,-5 V 5 C 5,2.25 2.75,0 0,0"
             style="fill:#ffffff;fill-opacity:1;fill-rule:nonzero;stroke:none"
             id="path88"
             inkscape:connector-curvature="0" /></g><g
           id="g90"
           transform="translate(276.9043,78.7129)"><path
             d="m 0,0 c 0,-2.439 -1.979,-4.418 -4.418,-4.418 -2.439,0 -4.417,1.979 -4.417,4.418 0,2.439 1.978,4.417 4.417,4.417 C -1.979,4.417 0,2.439 0,0"
             style="fill:#ffffff;fill-opacity:1;fill-rule:nonzero;stroke:none"
             id="path92"
             inkscape:connector-curvature="0" /></g><g
           id="g94"
           transform="translate(330.0723,78.7129)"><path
             d="m 0,0 c 0,-2.439 -1.978,-4.418 -4.418,-4.418 -2.439,0 -4.417,1.979 -4.417,4.418 0,2.439 1.978,4.417 4.417,4.417 C -1.978,4.417 0,2.439 0,0"
             style="fill:#ffffff;fill-opacity:1;fill-rule:nonzero;stroke:none"
             id="path96"
             inkscape:connector-curvature="0" /></g><g
           id="g98"
           transform="translate(302.3623,78.7129)"><path
             d="m 0,0 c 0,-2.439 -1.978,-4.418 -4.417,-4.418 -2.439,0 -4.418,1.979 -4.418,4.418 0,2.439 1.979,4.417 4.418,4.417 C -1.978,4.417 0,2.439 0,0"
             style="fill:#ffffff;fill-opacity:1;fill-rule:nonzero;stroke:none"
             id="path100"
             inkscape:connector-curvature="0" /></g><g
           id="g102"
           transform="translate(273.1504,78.7119)"><path
             d="m 0,0 h -1.328 v 2.29 c 0,5.472 4.452,9.923 9.924,9.923 h 16.711 v 44.336 h 1.328 V 10.885 H 8.596 C 3.856,10.885 0,7.029 0,2.29 Z"
             style="fill:#ffffff;fill-opacity:1;fill-rule:nonzero;stroke:none"
             id="path104"
             inkscape:connector-curvature="0" /></g><g
           id="g106"
           transform="translate(325.8281,78.7119)"><path
             d="m 0,0 h -1.328 v 2.29 c 0,4.739 -3.856,8.595 -8.595,8.595 h -18.04 v 45.664 h 1.328 V 12.213 H -9.923 C -4.451,12.213 0,7.762 0,2.29 Z"
             style="fill:#ffffff;fill-opacity:1;fill-rule:nonzero;stroke:none"
             id="path108"
             inkscape:connector-curvature="0" /></g><path
           d="m 298.609,78.712 h -1.328 v 11.549 h 1.328 z"
           style="fill:#ffffff;fill-opacity:1;fill-rule:nonzero;stroke:none"
           id="path110"
           inkscape:connector-curvature="0" /><path
           d="m 303.042,90.653 h -9.802 v 22.348 h 9.802 z"
           style="fill:#ffffff;fill-opacity:1;fill-rule:nonzero;stroke:none"
           id="path112"
           inkscape:connector-curvature="0" /><path
           d="m 301.081,109.472 h -6.272 v 30.364 h 6.272 z"
           style="fill:#ffffff;fill-opacity:1;fill-rule:nonzero;stroke:none"
           id="path114"
           inkscape:connector-curvature="0" /><g
           id="g116"
           transform="translate(316.7852,153.8467)"><path
             d="M 0,0 C 0,0 28.822,0.614 33.383,-7.058 42.504,-22.402 15.82,-77.781 15.82,-77.781 l -4.894,2.816 4.42,62.448 -30.218,6.75 c 0,0 15.334,-5.838 17.907,-10.319 7.028,-12.238 0.682,-58.373 0.682,-58.373 h -6.882 c 0,0 -14.601,61.272 -16.117,61.272 -1.518,0 -27.154,12.883 -27.154,12.883 z"
             style="fill:#f6d1a0;fill-opacity:1;fill-rule:nonzero;stroke:none"
             id="path118"
             inkscape:connector-curvature="0" /></g><g
           id="g120"
           transform="translate(335.6426,81.2188)"><path
             d="m 0,0 c 0,0 4.21,-9.74 10.066,-10.895 5.857,-1.153 7.269,-5.728 -2.825,-4.774 -10.094,0.954 -12.543,7.918 -12.543,7.918 l -0.989,-6.63 -1.767,0.093 -0.394,14.31 z"
             style="fill:#7c83e6;fill-opacity:1;fill-rule:nonzero;stroke:none"
             id="path122"
             inkscape:connector-curvature="0" /></g><g
           id="g124"
           transform="translate(321.4082,80.4121)"><path
             d="m 0,0 c 0,0 4.99,-9.537 10.862,-10.604 5.873,-1.068 6.82,-5.041 -3.287,-4.235 -10.107,0.806 -12.762,7.01 -12.762,7.01 l -0.891,-6.644 -1.768,0.068 -0.605,14.302 z"
             style="fill:#9193ef;fill-opacity:1;fill-rule:nonzero;stroke:none"
             id="path126"
             inkscape:connector-curvature="0" /></g><g
           id="g128"
           transform="translate(168.8447,78.5361)"><path
             d="m 0,0 c 0,-2.439 -1.978,-4.418 -4.417,-4.418 -2.44,0 -4.417,1.979 -4.417,4.418 0,2.439 1.977,4.417 4.417,4.417 C -1.978,4.417 0,2.439 0,0"
             style="fill:#ffffff;fill-opacity:1;fill-rule:nonzero;stroke:none"
             id="path130"
             inkscape:connector-curvature="0" /></g><g
           id="g132"
           transform="translate(223.2505,78.7129)"><path
             d="m 0,0 c 0,-2.439 -1.978,-4.418 -4.417,-4.418 -2.44,0 -4.418,1.979 -4.418,4.418 0,2.439 1.978,4.417 4.418,4.417 C -1.978,4.417 0,2.439 0,0"
             style="fill:#ffffff;fill-opacity:1;fill-rule:nonzero;stroke:none"
             id="path134"
             inkscape:connector-curvature="0" /></g><g
           id="g136"
           transform="translate(195.5405,78.7129)"><path
             d="m 0,0 c 0,-2.439 -1.978,-4.418 -4.417,-4.418 -2.44,0 -4.417,1.979 -4.417,4.418 0,2.439 1.977,4.417 4.417,4.417 C -1.978,4.417 0,2.439 0,0"
             style="fill:#ffffff;fill-opacity:1;fill-rule:nonzero;stroke:none"
             id="path138"
             inkscape:connector-curvature="0" /></g><g
           id="g140"
           transform="translate(166.3291,78.7119)"><path
             d="m 0,0 h -1.328 v 2.29 c 0,5.472 4.452,9.923 9.923,9.923 h 16.712 v 44.336 h 1.328 V 10.885 H 8.595 C 3.856,10.885 0,7.029 0,2.29 Z"
             style="fill:#ffffff;fill-opacity:1;fill-rule:nonzero;stroke:none"
             id="path142"
             inkscape:connector-curvature="0" /></g><g
           id="g144"
           transform="translate(219.0063,78.7119)"><path
             d="m 0,0 h -1.328 v 2.29 c 0,4.739 -3.856,8.595 -8.595,8.595 h -18.039 v 45.664 h 1.328 V 12.213 H -9.923 C -4.451,12.213 0,7.762 0,2.29 Z"
             style="fill:#ffffff;fill-opacity:1;fill-rule:nonzero;stroke:none"
             id="path146"
             inkscape:connector-curvature="0" /></g><path
           d="m 191.788,78.712 h -1.328 v 11.549 h 1.328 z"
           style="fill:#ffffff;fill-opacity:1;fill-rule:nonzero;stroke:none"
           id="path148"
           inkscape:connector-curvature="0" /><path
           d="m 196.22,90.653 h -9.801 v 22.348 h 9.801 z"
           style="fill:#ffffff;fill-opacity:1;fill-rule:nonzero;stroke:none"
           id="path150"
           inkscape:connector-curvature="0" /><path
           d="m 194.26,109.472 h -6.273 v 30.364 h 6.273 z"
           style="fill:#ffffff;fill-opacity:1;fill-rule:nonzero;stroke:none"
           id="path152"
           inkscape:connector-curvature="0" /><g
           id="g154"
           transform="translate(222.0835,133.6807)"><path
             d="m 0,0 h -74.069 c -2.75,0 -5,2.25 -5,5 v 3.524 c 0,2.75 2.25,5 5,5 H 0 c 2.75,0 5,-2.25 5,-5 V 5 C 5,2.25 2.75,0 0,0"
             style="fill:#ffffff;fill-opacity:1;fill-rule:nonzero;stroke:none"
             id="path156"
             inkscape:connector-curvature="0" /></g><g
           id="g158"
           transform="translate(106.3774,210.8437)"><path
             d="m 0,0 9.164,-0.861 c 4.762,2.061 6.425,2.246 16.182,6.44 8.239,3.541 17.409,9.474 17.409,9.474 l 5.401,13.382 c 4.793,0.304 15.523,-3.308 15.523,-3.308 0,0 -10.708,-20.588 -14.375,-22.479 C 45.638,0.759 20.061,-6.474 9.944,-6.879 6.758,-7.006 0.117,-4.646 0.117,-4.646 Z"
             style="fill:#f6d1a0;fill-opacity:1;fill-rule:nonzero;stroke:none"
             id="path160"
             inkscape:connector-curvature="0" /></g><g
           id="g162"
           transform="translate(158.5435,253.2378)"><path
             d="M 0,0 C 0,0 12.815,-2.146 12.597,-13.668 12.456,-21.174 2.161,-35.194 2.161,-35.194 c 0,0 -5.653,7.827 -12.611,10.002 0,0 4.519,13.255 5.901,17.401 C -2.812,-2.58 0,0 0,0"
             style="fill:#ffffff;fill-opacity:1;fill-rule:nonzero;stroke:none"
             id="path164"
             inkscape:connector-curvature="0" /></g><g
           id="g166"
           transform="translate(155.2915,266.54)"><path
             d="m 0,0 c 0.787,-2.985 2.187,-6.273 5.117,-7.245 2.693,-0.893 5.554,0.548 7.992,2 2.868,1.708 5.776,3.581 7.611,6.37 2.783,4.232 5.035,9.402 4.722,14.458 -0.11,1.787 -2.726,3.979 -3.811,5.403 -0.766,1.006 -1.909,1.646 -3.051,2.19 -2.711,1.29 -5.605,2.195 -8.569,2.678 C 5.063,26.66 -0.438,25.554 -1.427,20.12 -2.604,13.653 -1.659,6.29 0,0"
             style="fill:#f6d1a0;fill-opacity:1;fill-rule:nonzero;stroke:none"
             id="path168"
             inkscape:connector-curvature="0" /></g><g
           id="g170"
           transform="translate(162.5244,278.0615)"><path
             d="m 0,0 c 0,-0.747 0.605,-1.353 1.353,-1.353 0.746,0 1.352,0.606 1.352,1.353 0,0.747 -0.606,1.353 -1.352,1.353 C 0.605,1.353 0,0.747 0,0"
             style="fill:#2a3231;fill-opacity:1;fill-rule:nonzero;stroke:none"
             id="path172"
             inkscape:connector-curvature="0" /></g><g
           id="g174"
           transform="translate(154.8442,278.0615)"><path
             d="M 0,0 C 0,-0.747 0.605,-1.353 1.353,-1.353 2.1,-1.353 2.705,-0.747 2.705,0 2.705,0.747 2.1,1.353 1.353,1.353 0.605,1.353 0,0.747 0,0"
             style="fill:#2a3231;fill-opacity:1;fill-rule:nonzero;stroke:none"
             id="path176"
             inkscape:connector-curvature="0" /></g><g
           id="g178"
           transform="translate(165.0835,281.6909)"><path
             d="m 0,0 c -2.122,0 -3.848,-1.723 -3.848,-3.84 0,-2.117 1.726,-3.84 3.848,-3.84 2.122,0 3.848,1.723 3.848,3.84 C 3.848,-1.723 2.122,0 0,0 m 0,-8.551 c -2.602,0 -4.719,2.114 -4.719,4.711 0,2.598 2.117,4.711 4.719,4.711 2.602,0 4.719,-2.113 4.719,-4.711 0,-2.597 -2.117,-4.711 -4.719,-4.711"
             style="fill:#ffffff;fill-opacity:1;fill-rule:nonzero;stroke:none"
             id="path180"
             inkscape:connector-curvature="0" /></g><g
           id="g182"
           transform="translate(157.98,280.3608)"><path
             d="M 0,0 -0.695,0.525 C -0.116,1.292 0.741,1.744 1.719,1.799 2.774,1.858 3.841,1.432 4.578,0.657 L 3.946,0.057 C 3.383,0.649 2.562,0.976 1.768,0.93 1.05,0.889 0.422,0.559 0,0"
             style="fill:#ffffff;fill-opacity:1;fill-rule:nonzero;stroke:none"
             id="path184"
             inkscape:connector-curvature="0" /></g><g
           id="g186"
           transform="translate(154.6782,281.6909)"><path
             d="m 0,0 c -2.122,0 -3.848,-1.723 -3.848,-3.84 0,-2.117 1.726,-3.84 3.848,-3.84 2.122,0 3.848,1.723 3.848,3.84 C 3.848,-1.723 2.122,0 0,0 m 0,-8.551 c -2.602,0 -4.719,2.114 -4.719,4.711 0,2.598 2.117,4.711 4.719,4.711 2.602,0 4.719,-2.113 4.719,-4.711 0,-2.597 -2.117,-4.711 -4.719,-4.711"
             style="fill:#ffffff;fill-opacity:1;fill-rule:nonzero;stroke:none"
             id="path188"
             inkscape:connector-curvature="0" /></g><g
           id="g190"
           transform="translate(190.1841,258.4019)"><path
             d="m 0,0 c 0,0 -0.055,0.976 -3.534,1.846 -0.998,0.249 -2.246,0.251 -3.04,0.946 -2.815,2.462 -5.402,7.043 -6.362,10.419 -0.142,0.5 -0.28,1.03 -0.149,1.534 -2.351,-1.994 -4.623,-4.079 -6.81,-6.252 -0.748,-0.743 -5.276,-0.322 -4.729,-1.331 0.153,-0.282 4.966,-3.398 3.288,-5.635 -0.608,-0.811 -5.462,-3.16 -5.462,-3.16 l -3.044,-16.959 8.914,-5 c 0,0 10.002,2.174 16.525,5.652 C 2.119,-14.46 0,0 0,0"
             style="fill:#f6d1a0;fill-opacity:1;fill-rule:nonzero;stroke:none"
             id="path192"
             inkscape:connector-curvature="0" /></g><g
           id="g194"
           transform="translate(186.6504,260.2476)"><path
             d="m 0,0 c 0,0 -2.609,-4.783 -9.132,-7.61 -6.522,-2.826 -12.393,5.653 -12.393,5.653 l -6.582,-5.053 c 0,0 -0.593,-23.117 2.233,-35.728 2.827,-12.611 5.437,-30.316 5.437,-30.316 0,0 2.915,-4.274 6.64,-4.527 4.558,-0.307 10.837,3.262 20.755,1.483 11.004,-1.973 19.196,-0.241 19.196,-0.241 0,0 -8.465,41.366 -10.422,49.628 -1.957,8.262 -7.035,25.189 -7.035,25.189 0,0 -4.348,1.087 -8.697,1.522"
             style="fill:#eeeeee;fill-opacity:1;fill-rule:nonzero;stroke:none"
             id="path196"
             inkscape:connector-curvature="0" /></g><g
           id="g198"
           transform="translate(159.7266,280.9844)"><path
             d="m 0,0 c 0.049,-2.606 -1,-4.566 -2.089,-6.849 -0.477,-1 -0.882,-2.367 -0.489,-3.466 0.056,-0.158 0.195,-0.289 0.373,-0.284 1.011,0.03 2.169,0.725 3.087,1.137 0.377,0.168 0.108,0.812 -0.282,0.67 -0.432,-0.156 -0.872,-0.385 -1.313,-0.505 -0.94,-0.256 -1.102,-0.408 -1.14,0.589 -0.047,1.229 1.05,2.566 1.51,3.681 C 0.333,-3.39 0.583,-1.761 0.434,0 0.411,0.273 -0.005,0.283 0,0"
             style="fill:#2a3231;fill-opacity:1;fill-rule:nonzero;stroke:none"
             id="path200"
             inkscape:connector-curvature="0" /></g><g
           id="g202"
           transform="translate(163.2246,283.3882)"><path
             d="M 0,0 C 0.531,-0.174 1.102,-0.163 1.655,-0.212 2.239,-0.264 2.819,-0.344 3.402,-0.413 4.15,-0.501 4.333,0.793 3.582,0.913 2.479,1.087 1.097,1.362 0,1.089 -0.564,0.949 -0.509,0.166 0,0"
             style="fill:#9193ef;fill-opacity:1;fill-rule:nonzero;stroke:none"
             id="path204"
             inkscape:connector-curvature="0" /></g><g
           id="g206"
           transform="translate(154.5508,283.3682)"><path
             d="m 0,0 c 0.923,-0.15 1.862,0.007 2.799,-0.056 0.873,-0.059 0.845,1.254 0,1.344 C 1.83,1.392 0.698,1.371 -0.099,0.758 -0.343,0.571 -0.396,0.064 0,0"
             style="fill:#9193ef;fill-opacity:1;fill-rule:nonzero;stroke:none"
             id="path208"
             inkscape:connector-curvature="0" /></g><g
           id="g210"
           transform="translate(169.48,278.2373)"><path
             d="M 0,0 C 0.923,0.106 2.091,0.346 2.975,0.624 3.849,0.898 4.814,1.097 5.602,1.572 5.861,1.729 5.76,2.159 5.445,2.153 4.524,2.136 3.606,1.771 2.739,1.481 1.86,1.188 0.636,1.041 -0.145,0.532 c -0.214,-0.14 0.14,-0.679 0.443,-0.644 z"
             style="fill:#ffffff;fill-opacity:1;fill-rule:nonzero;stroke:none"
             id="path212"
             inkscape:connector-curvature="0" /></g><g
           id="g214"
           transform="translate(162.603,285.5317)"><path
             d="m 0,0 c -4.231,0.279 -8.681,0.304 -12.379,2.229 -1.798,0.937 -3.412,2.431 -3.756,4.316 -0.344,1.886 1.036,4.073 3.093,4.208 0.423,0.028 0.885,-0.02 1.239,0.198 0.453,0.278 0.528,0.854 0.596,1.355 0.46,3.354 3.282,6.737 6.927,6.655 2.973,-0.067 5.74,-2.355 8.619,-1.662 0.886,0.213 1.663,0.694 2.475,1.086 2.442,1.179 5.317,1.57 8.021,1.089 2.854,-0.506 5.88,-2.757 5.181,-5.372 -0.233,-0.874 -0.859,-1.634 -1.026,-2.52 -0.596,-3.164 4.444,-4.74 5.44,-7.815 0.906,-2.799 -1.861,-5.586 -1.648,-8.501 0.118,-1.62 1.063,-3.524 -0.171,-4.676 -0.658,-0.615 -1.781,-0.769 -2.222,-1.532 -0.602,-1.041 0.518,-2.222 0.616,-3.399 0.121,-1.459 -1.545,-2.682 -3.117,-2.559 -1.573,0.124 -2.88,1.286 -3.498,2.632 -0.619,1.347 -0.665,2.854 -0.616,4.317 2.662,0.748 4.301,5.136 1.796,6.257 -1.336,0.598 -2.757,-0.853 -3.263,-2.083 C 9.663,-1.581 5.441,0 0,0"
             style="fill:#9193ef;fill-opacity:1;fill-rule:nonzero;stroke:none"
             id="path216"
             inkscape:connector-curvature="0" /></g><g
           id="g218"
           transform="translate(157.1924,267.2324)"><path
             d="m 0,0 c -0.417,-0.903 -0.203,-2.058 0.511,-2.751 0.322,-0.313 0.762,-0.54 1.208,-0.489 0.446,0.051 0.862,0.447 0.826,0.895 -0.013,0.165 -0.08,0.345 0.008,0.486 0.086,0.136 0.271,0.159 0.432,0.168 0.6,0.032 1.334,-0.006 1.616,-0.538 0.086,-0.161 0.114,-0.349 0.212,-0.504 0.231,-0.368 0.745,-0.413 1.178,-0.378 0.624,0.051 1.241,0.188 1.828,0.407 0.299,0.111 0.597,0.248 0.815,0.48 0.218,0.232 0.339,0.578 0.23,0.877 -0.09,0.248 -0.314,0.419 -0.53,0.572 C 6.454,0.561 1.513,3.274 0,0"
             style="fill:#f6d1a0;fill-opacity:1;fill-rule:nonzero;stroke:none"
             id="path220"
             inkscape:connector-curvature="0" /></g><g
           id="g222"
           transform="translate(158.124,267.2524)"><path
             d="M 0,0 C 0.993,-0.624 3.052,-0.646 4.011,0.066 4.24,0.236 4.188,0.646 3.856,0.64 3.231,0.629 2.63,0.388 1.996,0.356 1.365,0.324 0.743,0.454 0.115,0.424 -0.11,0.413 -0.195,0.123 0,0"
             style="fill:#2a3231;fill-opacity:1;fill-rule:nonzero;stroke:none"
             id="path224"
             inkscape:connector-curvature="0" /></g><g
           id="g226"
           transform="translate(124.437,203.3594)"><path
             d="m 0,0 9.802,4.083 9.066,-1.591 c 4.912,1.675 6.584,1.727 16.645,5.127 8.495,2.872 18.111,8.053 18.111,8.053 l 10.03,17.703 c 4.803,-0.078 11.631,-9.332 11.631,-9.332 0,0 -12.318,-19.667 -16.124,-21.258 C 55.355,1.193 25.84,-4.475 15.724,-4.07 12.538,-3.943 6.693,-0.9 6.693,-0.9 l -4.978,-1.564 -5.874,-4.634 -1.146,0.813 2.26,2.878 z"
             style="fill:#f6d1a0;fill-opacity:1;fill-rule:nonzero;stroke:none"
             id="path228"
             inkscape:connector-curvature="0" /></g><g
           id="g230"
           transform="translate(195.3472,258.7256)"><path
             d="M 0,0 C 0,0 13.48,-2.174 13.263,-13.697 13.121,-21.203 2.827,-35.223 2.827,-35.223 c 0,0 -5.653,7.827 -12.611,10.002 0,0 5.436,10.654 5.87,15.002 C -3.479,-5.87 0,0 0,0"
             style="fill:#ffffff;fill-opacity:1;fill-rule:nonzero;stroke:none"
             id="path232"
             inkscape:connector-curvature="0" /></g><g
           id="g234"
           transform="translate(159.9902,81.4092)"><path
             d="m 0,0 1.041,-9.362 -7.473,0.363 0.472,9.092 z"
             style="fill:#f6d1a0;fill-opacity:1;fill-rule:nonzero;stroke:none"
             id="path236"
             inkscape:connector-curvature="0" /></g><g
           id="g238"
           transform="translate(151.356,72.7441)"><path
             d="m 0,0 c 0,0 -23.765,-7.547 -21.729,-11.149 2.036,-3.603 32.536,5.874 32.536,5.874 l -1.132,4.578 z"
             style="fill:#00fa99;fill-opacity:1;fill-rule:nonzero;stroke:none"
             id="path240"
             inkscape:connector-curvature="0" /></g><g
           id="g242"
           transform="translate(129.562,61.8584)"><path
             d="m 0,0 c -0.045,-0.008 0.24,-0.528 1.15,-0.716 0.44,-0.096 0.986,-0.093 1.587,-0.077 0.583,0.014 1.288,-0.022 2.056,0.014 0.771,0.031 1.624,0.112 2.522,0.308 0.879,0.204 1.811,0.42 2.787,0.646 1.966,0.475 4.11,0.993 6.36,1.537 4.526,1.053 8.532,2.32 11.461,3.256 1.455,0.558 2.523,1.136 3.317,1.411 0.785,0.291 1.248,0.367 1.242,0.433 C 32.48,6.865 31.99,6.903 31.142,6.702 30.293,6.52 29.14,6.008 27.728,5.55 24.816,4.783 20.775,3.605 16.253,2.555 14.009,1.987 11.871,1.447 9.91,0.951 8.944,0.699 8.021,0.458 7.151,0.23 6.308,0.015 5.5,-0.099 4.753,-0.167 4.011,-0.218 3.328,-0.266 2.708,-0.309 2.104,-0.371 1.603,-0.42 1.2,-0.382 0.386,-0.319 0.05,0.062 0,0"
             style="fill:#f2f2f4;fill-opacity:1;fill-rule:nonzero;stroke:none"
             id="path244"
             inkscape:connector-curvature="0" /></g><g
           id="g246"
           transform="translate(143.3726,65.8799)"><path
             d="M 0,0 C 0.254,0.001 0.27,1.16 -0.446,2.232 -1.132,3.299 -1.968,3.879 -2.137,3.727 -2.324,3.562 -1.795,2.73 -1.181,1.771 -0.547,0.819 -0.236,-0.013 0,0"
             style="fill:#ffffff;fill-opacity:1;fill-rule:nonzero;stroke:none"
             id="path248"
             inkscape:connector-curvature="0" /></g><g
           id="g250"
           transform="translate(144.9097,67.3887)"><path
             d="M 0,0 C 0.205,0.077 0.112,1.11 -0.545,2.27 -0.881,2.843 -1.34,3.284 -1.729,3.501 -2.12,3.722 -2.409,3.744 -2.464,3.645 -2.569,3.424 -1.851,2.834 -1.291,1.826 -0.717,0.823 -0.239,-0.095 0,0"
             style="fill:#ffffff;fill-opacity:1;fill-rule:nonzero;stroke:none"
             id="path252"
             inkscape:connector-curvature="0" /></g><g
           id="g254"
           transform="translate(147.0767,67.4033)"><path
             d="M 0,0 C 0.109,-0.013 0.268,0.296 0.262,0.84 0.261,1.38 0.035,2.12 -0.419,2.783 -1.348,4.113 -2.548,4.646 -2.666,4.463 -2.821,4.259 -1.926,3.44 -1.137,2.296 -0.31,1.164 -0.237,0.037 0,0"
             style="fill:#ffffff;fill-opacity:1;fill-rule:nonzero;stroke:none"
             id="path256"
             inkscape:connector-curvature="0" /></g><g
           id="g258"
           transform="translate(147.395,71.7363)"><path
             d="M 0,0 C 0.013,-0.062 0.291,-0.026 0.717,0.134 1.146,0.281 1.752,0.558 2.49,0.736 2.833,0.818 3.31,0.85 3.407,0.673 3.446,0.667 3.468,0.533 3.475,0.546 3.498,0.773 3.49,0.652 3.419,0.629 3.265,0.53 3.031,0.436 2.799,0.352 2.322,0.188 1.789,0.049 1.242,-0.049 0.997,-0.098 0.626,-0.136 0.536,-0.127 0.554,-0.149 0.357,0.042 0.287,0.297 -0.057,1.308 -0.102,2.584 0.134,3.431 0.168,3.53 0.208,3.609 0.239,3.65 0.259,3.681 0.286,3.664 0.164,3.688 0.057,3.75 0.13,3.728 0.149,3.643 0.179,3.566 0.198,3.459 0.216,3.357 0.277,2.932 0.275,2.489 0.273,2.094 0.234,0.498 0.167,-0.521 0.305,-0.533 0.405,-0.541 0.685,0.42 0.885,2.057 0.927,2.47 0.97,2.918 0.931,3.441 0.916,3.575 0.903,3.71 0.856,3.868 0.799,4.01 0.765,4.245 0.417,4.408 0.041,4.521 -0.181,4.32 -0.336,4.18 -0.479,4.021 -0.554,3.863 -0.615,3.711 -0.835,3.104 -0.859,2.515 -0.853,1.896 c 0.025,-0.619 0.082,-1.249 0.331,-1.914 0.139,-0.304 0.253,-0.733 0.864,-0.95 0.511,-0.053 0.731,0.035 1.057,0.083 0.599,0.12 1.153,0.283 1.682,0.488 C 3.346,-0.285 3.6,-0.181 3.865,0.01 3.939,0.078 3.998,0.108 4.077,0.214 4.116,0.27 4.151,0.328 4.18,0.387 4.208,0.464 4.218,0.588 4.204,0.685 4.123,0.915 4.076,1.037 3.921,1.177 3.646,1.454 3.278,1.492 3.027,1.472 2.756,1.461 2.534,1.393 2.325,1.327 1.508,1.041 0.956,0.677 0.568,0.437 0.186,0.184 -0.012,0.058 0,0"
             style="fill:#ffffff;fill-opacity:1;fill-rule:nonzero;stroke:none"
             id="path260"
             inkscape:connector-curvature="0" /></g><g
           id="g262"
           transform="translate(186.4731,78.7607)"><path
             d="m 0,0 1.042,-9.362 -7.473,0.363 0.472,9.092 z"
             style="fill:#f6d1a0;fill-opacity:1;fill-rule:nonzero;stroke:none"
             id="path264"
             inkscape:connector-curvature="0" /></g><g
           id="g266"
           transform="translate(177.8389,70.0957)"><path
             d="m 0,0 c 0,0 -23.765,-7.547 -21.729,-11.149 2.036,-3.603 32.536,5.874 32.536,5.874 l -1.131,4.578 z"
             style="fill:#00fa99;fill-opacity:1;fill-rule:nonzero;stroke:none"
             id="path268"
             inkscape:connector-curvature="0" /></g><g
           id="g270"
           transform="translate(156.0449,59.2109)"><path
             d="m 0,0 c -0.045,-0.009 0.241,-0.529 1.15,-0.717 0.441,-0.095 0.986,-0.093 1.587,-0.077 0.583,0.014 1.289,-0.021 2.056,0.014 0.771,0.031 1.624,0.113 2.522,0.308 0.88,0.204 1.811,0.42 2.787,0.646 1.966,0.475 4.11,0.993 6.36,1.537 4.526,1.053 8.532,2.32 11.461,3.256 1.455,0.558 2.523,1.137 3.317,1.411 0.785,0.291 1.249,0.367 1.242,0.434 C 32.48,6.864 31.99,6.902 31.143,6.701 30.293,6.519 29.14,6.008 27.728,5.549 24.817,4.783 20.775,3.604 16.253,2.554 14.009,1.986 11.871,1.446 9.91,0.95 8.944,0.698 8.022,0.457 7.151,0.229 6.308,0.014 5.5,-0.099 4.753,-0.168 4.011,-0.219 3.328,-0.267 2.708,-0.31 2.104,-0.372 1.604,-0.42 1.2,-0.382 0.386,-0.32 0.05,0.062 0,0"
             style="fill:#ffffff;fill-opacity:1;fill-rule:nonzero;stroke:none"
             id="path272"
             inkscape:connector-curvature="0" /></g><g
           id="g274"
           transform="translate(169.8555,63.2314)"><path
             d="M 0,0 C 0.254,0.001 0.27,1.161 -0.446,2.232 -1.132,3.3 -1.968,3.879 -2.136,3.727 -2.324,3.562 -1.795,2.73 -1.181,1.771 -0.547,0.819 -0.236,-0.013 0,0"
             style="fill:#ffffff;fill-opacity:1;fill-rule:nonzero;stroke:none"
             id="path276"
             inkscape:connector-curvature="0" /></g><g
           id="g278"
           transform="translate(171.3926,64.7402)"><path
             d="M 0,0 C 0.205,0.077 0.112,1.11 -0.544,2.27 -0.881,2.843 -1.34,3.284 -1.729,3.501 -2.12,3.722 -2.409,3.745 -2.463,3.646 -2.569,3.424 -1.851,2.834 -1.291,1.826 -0.717,0.823 -0.239,-0.095 0,0"
             style="fill:#ffffff;fill-opacity:1;fill-rule:nonzero;stroke:none"
             id="path280"
             inkscape:connector-curvature="0" /></g><g
           id="g282"
           transform="translate(173.5596,64.7549)"><path
             d="M 0,0 C 0.109,-0.013 0.268,0.297 0.262,0.84 0.261,1.38 0.036,2.12 -0.419,2.783 -1.347,4.113 -2.548,4.646 -2.666,4.464 -2.82,4.259 -1.926,3.441 -1.137,2.296 -0.31,1.164 -0.237,0.038 0,0"
             style="fill:#ffffff;fill-opacity:1;fill-rule:nonzero;stroke:none"
             id="path284"
             inkscape:connector-curvature="0" /></g><g
           id="g286"
           transform="translate(173.8779,69.0879)"><path
             d="M 0,0 C 0.013,-0.062 0.292,-0.025 0.717,0.135 1.146,0.281 1.752,0.558 2.49,0.736 2.833,0.818 3.311,0.85 3.407,0.674 3.446,0.668 3.468,0.533 3.475,0.547 3.498,0.773 3.49,0.652 3.419,0.629 3.265,0.53 3.031,0.436 2.8,0.352 2.322,0.189 1.789,0.049 1.242,-0.049 0.997,-0.098 0.626,-0.136 0.536,-0.126 0.554,-0.149 0.357,0.042 0.287,0.297 -0.057,1.308 -0.102,2.584 0.134,3.432 0.168,3.53 0.208,3.61 0.239,3.65 0.259,3.681 0.286,3.664 0.164,3.688 0.058,3.75 0.13,3.728 0.149,3.643 0.179,3.566 0.199,3.459 0.216,3.357 0.277,2.932 0.275,2.489 0.273,2.095 0.234,0.498 0.167,-0.521 0.305,-0.532 0.405,-0.541 0.685,0.42 0.885,2.057 0.927,2.47 0.97,2.918 0.931,3.441 0.917,3.575 0.904,3.71 0.856,3.868 0.8,4.01 0.765,4.245 0.417,4.408 0.041,4.521 -0.181,4.32 -0.336,4.18 -0.479,4.021 -0.554,3.863 -0.615,3.711 -0.834,3.104 -0.859,2.515 -0.853,1.896 c 0.025,-0.619 0.082,-1.248 0.331,-1.913 0.139,-0.305 0.253,-0.733 0.864,-0.951 0.511,-0.053 0.731,0.035 1.058,0.083 0.598,0.121 1.152,0.283 1.681,0.489 C 3.346,-0.285 3.6,-0.18 3.865,0.01 3.939,0.078 3.998,0.108 4.077,0.214 4.116,0.27 4.151,0.328 4.18,0.387 4.208,0.464 4.218,0.588 4.205,0.685 4.123,0.915 4.076,1.037 3.921,1.178 3.646,1.454 3.278,1.492 3.027,1.472 2.756,1.461 2.534,1.393 2.326,1.327 1.508,1.041 0.956,0.677 0.568,0.437 0.186,0.185 -0.011,0.058 0,0"
             style="fill:#ffffff;fill-opacity:1;fill-rule:nonzero;stroke:none"
             id="path288"
             inkscape:connector-curvature="0" /></g><g
           id="g290"
           transform="translate(172.1777,153.8467)"><path
             d="m 0,0 c 0,0 -30.039,-1.129 -34.599,-8.802 -9.121,-15.344 13.922,-67.024 13.922,-67.024 l 9.751,0.861 -1.915,57.604 c -0.085,2.546 1.607,4.81 4.073,5.451 l 15.24,9.37 c 0,0 -7.061,-5.153 -9.634,-9.634 -7.029,-12.238 8.187,-65.839 8.187,-65.839 l 11.035,0.883 c 0,0 1.543,64.151 3.06,64.151 1.517,0 27.316,12.675 27.316,12.675 z"
             style="fill:#9193ef;fill-opacity:1;fill-rule:nonzero;stroke:none"
             id="path292"
             inkscape:connector-curvature="0" /></g><g
           id="g294"><g
             id="g296" /><g
             id="g350"><g
               clip-path="url(#clipPath300)"
               id="g348"
               style="opacity:0.39999402"><g
                 id="g346"><g
                   clip-path="url(#clipPath304)"
                   id="g344"><g
                     id="g342"><g
                       id="g334" /><g
                       mask="url(#mask316)"
                       id="g340"><g
                         id="g338"><path
                           d="m 97.972,225.448 56.283,78.451 63.452,-23.289 11.962,-47.615 c 0,0 -68.676,-38.951 -71.473,-38.564 -2.796,0.386 -52.447,3.085 -52.447,3.085 z"
                           style="fill:url(#linearGradient332);stroke:none"
                           id="path336"
                           inkscape:connector-curvature="0" /></g></g></g></g></g></g></g></g><g
           id="g352"
           transform="translate(224.1855,207.6816)"><path
             d="m 0,0 c 0.817,-3.93 1.864,-7.894 4.14,-11.379 2.276,-3.485 5.953,-6.476 10.493,-7.416 2.058,-0.426 4.202,-0.419 6.319,-0.371 2.323,0.053 4.75,0.179 6.752,1.187 2.61,1.313 3.979,3.847 5.039,6.272 1.795,4.102 3.156,8.341 4.064,12.651 0.523,2.488 0.862,5.185 -0.497,7.431 -1.842,3.041 -6.158,4.265 -10.113,4.816 C 19.624,14.107 10.573,14.575 4.275,12.289 -1.223,10.292 -0.892,4.29 0,0"
             style="fill:#ffffff;fill-opacity:1;fill-rule:nonzero;stroke:none"
             id="path354"
             inkscape:connector-curvature="0" /></g><g
           id="g356"
           transform="translate(239.0361,216.1963)"><path
             d="m 0,0 c 5.216,-0.261 10.868,0.423 14.151,1.934 0.658,0.302 1.243,0.69 0.932,1.06 C 14.716,3.431 13.327,3.611 12.116,3.718 5.845,4.271 -1.098,4.521 -7.235,3.632 -16.227,2.329 -4.772,0.238 0,0"
             style="fill:#2a3231;fill-opacity:1;fill-rule:nonzero;stroke:none"
             id="path358"
             inkscape:connector-curvature="0" /></g><g
           id="g360"
           transform="translate(223.8159,290.9624)"><path
             d="m 0,0 c -15.299,-3.353 -8.947,-32.254 4.954,-53.811 12.98,-20.131 12.728,-18.65 13.19,-20.878 0,0 13.904,81.713 -18.144,74.689"
             style="fill:#00fa99;fill-opacity:1;fill-rule:nonzero;stroke:none"
             id="path362"
             inkscape:connector-curvature="0" /></g><g
           id="g364"
           transform="translate(241.6172,299.1768)"><path
             d="m 0,0 c -24.422,1.072 -8.02,-60.246 0.53,-83.021 0,0 18.636,82.18 -0.53,83.021"
             style="fill:#00e987;fill-opacity:1;fill-rule:nonzero;stroke:none"
             id="path366"
             inkscape:connector-curvature="0" /></g><g
           id="g368"
           transform="translate(240.707,216.1523)"><path
             d="m 0,0 c 0,0 0.818,-0.012 1.091,-0.008 0.275,0.004 1.1,0.04 1.1,0.04 C 7.374,11.646 42.647,65.375 20.829,68.091 2.352,70.392 -3.785,19.005 -1.312,7.145 -0.74,4.042 -0.286,1.551 0,0"
             style="fill:#00fa99;fill-opacity:1;fill-rule:nonzero;stroke:none"
             id="path370"
             inkscape:connector-curvature="0" /></g><path
           d="m 113.266,79.204 h -5.975 v 98.169 h 5.975 z"
           style="fill:#ffffff;fill-opacity:1;fill-rule:nonzero;stroke:none"
           id="path372"
           inkscape:connector-curvature="0" /><path
           d="m 393.092,79.204 h -5.975 v 98.169 h 5.975 z"
           style="fill:#ffffff;fill-opacity:1;fill-rule:nonzero;stroke:none"
           id="path374"
           inkscape:connector-curvature="0" /><path
           d="M 424.554,139.369 H 69.567 v 48.056 h 354.987 z"
           style="fill:#eeeeee;fill-opacity:1;fill-rule:nonzero;stroke:none"
           id="path376"
           inkscape:connector-curvature="0" /><path
           d="m 74.904,64.528 h -5.975 v 122.519 h 5.975 z"
           style="fill:#ffffff;fill-opacity:1;fill-rule:nonzero;stroke:none"
           id="path378"
           inkscape:connector-curvature="0" /><path
           d="m 428.565,64.528 h -5.975 v 122.519 h 5.975 z"
           style="fill:#ffffff;fill-opacity:1;fill-rule:nonzero;stroke:none"
           id="path380"
           inkscape:connector-curvature="0" /></g></g><g
       id="g382"
       transform="translate(1.2765139,31.157701)"><g
         id="g384"
         clip-path="url(#clipPath388)"><g
           id="g390"><g
             id="g392" /><g
             id="g416"
             mask="url(#mask404)"><g
               id="g418"><path
                 d="M 69.135,187.116 422.533,159.05 v 28.066 z"
                 style="fill:url(#linearGradient424);stroke:none"
                 id="path426"
                 inkscape:connector-curvature="0" /></g></g></g></g></g><g
       id="g428"
       transform="translate(1.2765139,31.157701)"><g
         id="g430"
         clip-path="url(#clipPath434)"><path
           d="M 441.711,183.984 H 55.736 v 8.168 h 385.975 z"
           style="fill:#ffffff;fill-opacity:1;fill-rule:nonzero;stroke:none"
           id="path436"
           inkscape:connector-curvature="0" /><g
           id="g438"
           transform="translate(170.5713,192.1523)"><path
             d="M 0,0 H -53.196 V 3.899 H 0 c 1.077,0 1.95,-0.873 1.95,-1.95 C 1.95,0.872 1.077,0 0,0"
             style="fill:#00e987;fill-opacity:1;fill-rule:nonzero;stroke:none"
             id="path440"
             inkscape:connector-curvature="0" /></g><g
           id="g442"
           transform="translate(155.9761,192.1523)"><path
             d="m 0,0 h -51.297 c -2.269,0 -4.254,1.526 -4.836,3.719 l -9.054,34.111 c -0.842,3.175 1.551,6.286 4.836,6.286 h 44.793 c 2.269,0 4.254,-1.526 4.836,-3.72 z"
             style="fill:#00fa99;fill-opacity:1;fill-rule:nonzero;stroke:none"
             id="path444"
             inkscape:connector-curvature="0" /></g><g
           id="g446"
           transform="translate(95.6255,236.2686)"><path
             d="m 0,0 c -3.285,0 -5.679,-3.111 -4.836,-6.286 l 9.054,-34.111 c 0.279,-1.052 0.887,-1.944 1.688,-2.594 L 37.089,0 Z"
             style="fill:#00e987;fill-opacity:1;fill-rule:nonzero;stroke:none"
             id="path448"
             inkscape:connector-curvature="0" /></g><g
           id="g450"
           transform="translate(125.7666,211.1895)"><path
             d="m 0,0 c 0.562,-2.225 -0.838,-4.028 -3.127,-4.028 -2.289,0 -4.601,1.803 -5.162,4.028 -0.562,2.226 0.838,4.029 3.127,4.029 2.289,0 4.6,-1.803 5.162,-4.029"
             style="fill:#ffffff;fill-opacity:1;fill-rule:nonzero;stroke:none"
             id="path452"
             inkscape:connector-curvature="0" /></g><g
           id="g454"
           transform="translate(170.5713,192.1523)"><path
             d="M 0,0 H -53.196 V 3.899 H 0 c 1.077,0 1.95,-0.873 1.95,-1.95 C 1.95,0.872 1.077,0 0,0"
             style="fill:#00e987;fill-opacity:1;fill-rule:nonzero;stroke:none"
             id="path456"
             inkscape:connector-curvature="0" /></g><g
           id="g458"
           transform="translate(155.9761,192.1523)"><path
             d="m 0,0 h -51.297 c -2.269,0 -4.254,1.526 -4.836,3.719 l -9.054,34.111 c -0.842,3.175 1.551,6.286 4.836,6.286 h 44.793 c 2.269,0 4.254,-1.526 4.836,-3.72 z"
             style="fill:#00fa99;fill-opacity:1;fill-rule:nonzero;stroke:none"
             id="path460"
             inkscape:connector-curvature="0" /></g><g
           id="g462"
           transform="translate(95.6255,236.2686)"><path
             d="m 0,0 c -3.285,0 -5.679,-3.111 -4.836,-6.286 l 9.054,-34.111 c 0.279,-1.052 0.887,-1.944 1.688,-2.594 L 37.089,0 Z"
             style="fill:#00e987;fill-opacity:1;fill-rule:nonzero;stroke:none"
             id="path464"
             inkscape:connector-curvature="0" /></g><g
           id="g466"
           transform="translate(125.7666,211.1895)"><path
             d="m 0,0 c 0.562,-2.225 -0.838,-4.028 -3.127,-4.028 -2.289,0 -4.601,1.803 -5.162,4.028 -0.562,2.226 0.838,4.029 3.127,4.029 2.289,0 4.6,-1.803 5.162,-4.029"
             style="fill:#ffffff;fill-opacity:1;fill-rule:nonzero;stroke:none"
             id="path468"
             inkscape:connector-curvature="0" /></g><g
           id="g470"><g
             id="g472" /><g
             id="g526"><g
               clip-path="url(#clipPath476)"
               id="g524"
               style="opacity:0.39999402"><g
                 id="g522"><g
                   clip-path="url(#clipPath480)"
                   id="g520"><g
                     id="g518"><g
                       id="g510" /><g
                       mask="url(#mask492)"
                       id="g516"><g
                         id="g514"><path
                           d="m 393.211,225.448 -56.283,78.451 -63.453,-23.289 -11.961,-47.615 c 0,0 68.675,-38.951 71.472,-38.564 2.796,0.386 52.448,3.085 52.448,3.085 z"
                           style="fill:url(#linearGradient508);stroke:none"
                           id="path512"
                           inkscape:connector-curvature="0" /></g></g></g></g></g></g></g></g><g
           id="g528"
           transform="translate(318.5371,192.1523)"><path
             d="M 0,0 H 53.195 V 3.899 H 0 c -1.077,0 -1.95,-0.873 -1.95,-1.95 C -1.95,0.872 -1.077,0 0,0"
             style="fill:#00e987;fill-opacity:1;fill-rule:nonzero;stroke:none"
             id="path530"
             inkscape:connector-curvature="0" /></g><g
           id="g532"
           transform="translate(333.1318,192.1523)"><path
             d="m 0,0 h 51.297 c 2.269,0 4.254,1.526 4.836,3.719 l 9.054,34.111 c 0.842,3.175 -1.551,6.286 -4.836,6.286 H 15.558 c -2.269,0 -4.254,-1.526 -4.836,-3.72 z"
             style="fill:#00fa99;fill-opacity:1;fill-rule:nonzero;stroke:none"
             id="path534"
             inkscape:connector-curvature="0" /></g><g
           id="g536"
           transform="translate(393.4824,236.2686)"><path
             d="m 0,0 c 3.285,0 5.679,-3.111 4.836,-6.286 l -9.054,-34.111 c -0.279,-1.052 -0.886,-1.944 -1.688,-2.594 L -37.089,0 Z"
             style="fill:#00e987;fill-opacity:1;fill-rule:nonzero;stroke:none"
             id="path538"
             inkscape:connector-curvature="0" /></g><g
           id="g540"
           transform="translate(363.3408,211.1895)"><path
             d="m 0,0 c -0.562,-2.225 0.839,-4.028 3.128,-4.028 2.289,0 4.6,1.803 5.162,4.028 C 8.852,2.226 7.451,4.029 5.162,4.029 2.873,4.029 0.562,2.226 0,0"
             style="fill:#ffffff;fill-opacity:1;fill-rule:nonzero;stroke:none"
             id="path542"
             inkscape:connector-curvature="0" /></g><g
           id="g544"
           transform="translate(66.1479,341.2383)"><path
             d="m 0,0 v -26.734 c 0,-5.076 4.114,-9.19 9.189,-9.19 h 19.813 l 8.502,-12.439 7.61,13.244 h 19.007 c 5.075,0 9.19,4.115 9.19,9.19 V 0 c 0,5.076 -4.115,9.19 -9.19,9.19 H 9.189 C 4.114,9.19 0,5.076 0,0"
             style="fill:#eeeeee;fill-opacity:1;fill-rule:nonzero;stroke:none"
             id="path546"
             inkscape:connector-curvature="0" /></g><path
           d="m 94.685,323.719 h -1.487 v 1.487 h 1.487 z m 0,2.974 h -1.487 v 1.487 h 1.487 z m -1.487,-4.461 h -2.974 v 1.487 h 2.974 z m 0,5.949 h -2.974 v 1.487 h 2.974 z m -2.974,-4.462 h -1.487 v 4.461 h 1.487 z"
           style="fill:#2a3231;fill-opacity:1;fill-rule:nonzero;stroke:none"
           id="path548"
           inkscape:connector-curvature="0" /><path
           d="m 103.369,325.207 h 1.487 v -1.487 h -1.487 z m -2.974,0 h 2.974 v 1.487 h -2.974 z m 0,4.46 h 4.461 v -1.487 h -4.461 z m -1.487,-5.948 h 4.461 v -1.487 h -4.461 z m 0,4.462 h 1.487 v -1.487 h -1.487 z"
           style="fill:#2a3231;fill-opacity:1;fill-rule:nonzero;stroke:none"
           id="path550"
           inkscape:connector-curvature="0" /><path
           d="m 113.541,325.207 h 1.487 v -1.487 h -1.487 z m -2.975,0 h 2.974 v 1.487 h -2.974 z m 0,4.46 h 4.461 v -1.487 h -4.461 z m -1.487,-5.948 h 4.461 v -1.487 h -4.461 z m 0,4.462 h 1.487 v -1.487 h -1.487 z"
           style="fill:#2a3231;fill-opacity:1;fill-rule:nonzero;stroke:none"
           id="path552"
           inkscape:connector-curvature="0" /><g
           id="g554"
           transform="translate(162.9658,383.9038)"><path
             d="m 0,0 v -26.735 c 0,-5.076 4.114,-9.19 9.19,-9.19 h 19.812 l 8.502,-12.438 7.61,13.244 h 19.007 c 5.075,0 9.19,4.114 9.19,9.19 V 0 c 0,5.075 -4.115,9.189 -9.19,9.189 H 9.19 C 4.114,9.189 0,5.075 0,0"
             style="fill:#eeeeee;fill-opacity:1;fill-rule:nonzero;stroke:none"
             id="path556"
             inkscape:connector-curvature="0" /></g><path
           d="m 173.393,368.063 h 1.433 v -1.433 h -1.433 z m 0,5.733 h 1.433 v -1.433 h -1.433 z m -1.434,-4.299 h 1.433 v -1.433 h -1.433 z m 0,2.866 h 1.433 v -1.433 h -1.433 z m -1.433,-1.433 h 1.433 v -1.433 h -1.433 z"
           style="fill:#2a3231;fill-opacity:1;fill-rule:nonzero;stroke:none"
           id="path558"
           inkscape:connector-curvature="0" /><path
           d="m 183.195,370.93 h -1.433 v 2.866 h 1.433 z m -1.433,-1.433 h -1.433 v 1.433 h 1.433 z m -1.433,-2.867 h -1.433 v 2.866 h 1.433 z"
           style="fill:#2a3231;fill-opacity:1;fill-rule:nonzero;stroke:none"
           id="path560"
           inkscape:connector-curvature="0" /><path
           d="m 192.998,368.063 h -1.433 v 1.433 h 1.433 z m 0,2.867 h -1.433 v 1.433 h 1.433 z m -1.434,-4.3 h -2.866 v 1.433 h 2.866 z m 0,5.733 h -2.866 v 1.433 h 2.866 z m -2.866,-4.3 h -1.433 v 4.299 h 1.433 z"
           style="fill:#2a3231;fill-opacity:1;fill-rule:nonzero;stroke:none"
           id="path562"
           inkscape:connector-curvature="0" /><path
           d="m 202.8,368.063 h -1.433 v 4.299 h 1.433 z m -1.433,-1.433 h -2.866 v 1.433 h 2.866 z m 0,5.733 h -2.866 v 1.433 h 2.866 z m -2.866,-4.3 h -1.433 v 4.299 h 1.433 z"
           style="fill:#2a3231;fill-opacity:1;fill-rule:nonzero;stroke:none"
           id="path564"
           inkscape:connector-curvature="0" /><path
           d="m 212.603,368.063 h -1.433 v 4.299 h 1.433 z m -5.733,-1.433 v 7.166 h 4.299 v -1.433 h -2.866 v -4.3 h 2.866 v -1.433 z"
           style="fill:#2a3231;fill-opacity:1;fill-rule:nonzero;stroke:none"
           id="path566"
           inkscape:connector-curvature="0" /><g
           id="g568"
           transform="translate(220.9722,372.3628)"><path
             d="M 0,0 H -2.866 V -1.433 H 0 V -2.866 H -2.866 V -4.299 H 0 V -5.732 H -4.299 V 1.433 H 0 Z"
             style="fill:#2a3231;fill-opacity:1;fill-rule:nonzero;stroke:none"
             id="path570"
             inkscape:connector-curvature="0" /></g><path
           d="m 227.909,370.93 h 1.433 v -1.433 h -1.433 z m -1.433,-1.433 h 1.433 v -1.433 h -1.433 z m 0,2.866 h 1.433 v -1.433 h -1.433 z m -1.434,-4.3 h 1.433 v -1.433 h -1.433 z m 0,5.733 h 1.433 v -1.433 h -1.433 z"
           style="fill:#2a3231;fill-opacity:1;fill-rule:nonzero;stroke:none"
           id="path572"
           inkscape:connector-curvature="0" /><g
           id="g574"
           transform="translate(361.0469,322.4863)"><path
             d="m 0,0 v -26.734 c 0,-5.076 4.115,-9.19 9.19,-9.19 h 19.813 l 8.501,-12.439 7.611,13.244 h 19.006 c 5.076,0 9.191,4.115 9.191,9.19 V 0 c 0,5.076 -4.115,9.19 -9.191,9.19 H 9.19 C 4.115,9.19 0,5.076 0,0"
             style="fill:#eeeeee;fill-opacity:1;fill-rule:nonzero;stroke:none"
             id="path576"
             inkscape:connector-curvature="0" /></g><path
           d="m 390.14,306.883 h 1.487 v -1.487 h -1.487 z m 0,5.948 h 1.487 v -1.487 h -1.487 z m -1.488,-4.461 h 1.487 v -1.487 h -1.487 z m 0,2.974 h 1.487 v -1.487 h -1.487 z m -1.486,-1.487 h 1.486 v -1.487 h -1.486 z"
           style="fill:#2a3231;fill-opacity:1;fill-rule:nonzero;stroke:none"
           id="path578"
           inkscape:connector-curvature="0" /><path
           d="m 400.312,309.857 h -1.487 v 2.974 h 1.487 z m -1.488,-1.487 h -1.487 v 1.487 h 1.487 z m -1.487,-2.974 h -1.486 v 2.974 h 1.486 z"
           style="fill:#2a3231;fill-opacity:1;fill-rule:nonzero;stroke:none"
           id="path580"
           inkscape:connector-curvature="0" /><path
           d="m 407.508,309.857 h 1.487 v -1.487 h -1.487 z m -1.487,-1.487 h 1.487 v -1.487 h -1.487 z m 0,2.974 h 1.487 v -1.487 h -1.487 z m -1.487,-4.461 h 1.486 v -1.487 h -1.486 z m 0,5.948 h 1.486 v -1.487 h -1.486 z"
           style="fill:#2a3231;fill-opacity:1;fill-rule:nonzero;stroke:none"
           id="path582"
           inkscape:connector-curvature="0" /><g
           id="g584"
           transform="translate(269.9883,372.4829)"><path
             d="m 0,0 v -26.735 c 0,-5.075 4.115,-9.19 9.19,-9.19 h 19.813 l 8.501,-12.438 7.611,13.244 h 19.006 c 5.076,0 9.191,4.115 9.191,9.19 V 0 c 0,5.075 -4.115,9.19 -9.191,9.19 H 9.19 C 4.115,9.19 0,5.075 0,0"
             style="fill:#eeeeee;fill-opacity:1;fill-rule:nonzero;stroke:none"
             id="path586"
             inkscape:connector-curvature="0" /></g><g
           id="g588"
           transform="translate(289.7852,354.5039)"><path
             d="M 0,0 V 7.435 H 1.486 V 4.461 H 4.461 V 7.435 H 5.948 V 0 H 4.461 V 2.974 H 1.486 V 0 Z"
             style="fill:#2a3231;fill-opacity:1;fill-rule:nonzero;stroke:none"
             id="path590"
             inkscape:connector-curvature="0" /></g><g
           id="g592"
           transform="translate(301.4424,354.5039)"><path
             d="M 0,0 V 5.948 H -1.486 V 7.435 H 2.975 V 5.948 H 1.487 V 0 Z"
             style="fill:#2a3231;fill-opacity:1;fill-rule:nonzero;stroke:none"
             id="path594"
             inkscape:connector-curvature="0" /></g><path
           d="m 314.589,361.939 h 1.486 v -7.435 h -1.486 z m -1.487,-1.487 h 1.487 v -1.487 h -1.487 z m -1.488,-1.487 h 1.487 v -1.487 h -1.487 z m -1.487,1.487 h 1.487 v -1.487 h -1.487 z m -1.486,1.487 h 1.486 v -7.435 h -1.486 z"
           style="fill:#2a3231;fill-opacity:1;fill-rule:nonzero;stroke:none"
           id="path596"
           inkscape:connector-curvature="0" /><g
           id="g598"
           transform="translate(321.7852,355.9907)"><path
             d="M 0,0 H 2.975 V -1.487 H -1.486 V 5.948 H 0 Z"
             style="fill:#2a3231;fill-opacity:1;fill-rule:nonzero;stroke:none"
             id="path600"
             inkscape:connector-curvature="0" /></g></g></g></g></svg>