<?xml version="1.0" encoding="UTF-8" standalone="no"?>
<!-- Created with Inkscape (http://www.inkscape.org/) -->

<svg
   xmlns:dc="http://purl.org/dc/elements/1.1/"
   xmlns:cc="http://creativecommons.org/ns#"
   xmlns:rdf="http://www.w3.org/1999/02/22-rdf-syntax-ns#"
   xmlns:svg="http://www.w3.org/2000/svg"
   xmlns="http://www.w3.org/2000/svg"
   xmlns:sodipodi="http://sodipodi.sourceforge.net/DTD/sodipodi-0.dtd"
   xmlns:inkscape="http://www.inkscape.org/namespaces/inkscape"
   version="1.1"
   id="svg2"
   xml:space="preserve"
   width="666.66669"
   height="666.66669"
   viewBox="0 0 666.66669 666.66669"
   sodipodi:docname="404338-PD3H9O-233.svg"
   inkscape:version="0.92.3 (2405546, 2018-03-11)"><metadata
     id="metadata8"><rdf:RDF><cc:Work
         rdf:about=""><dc:format>image/svg+xml</dc:format><dc:type
           rdf:resource="http://purl.org/dc/dcmitype/StillImage" /><dc:title></dc:title></cc:Work></rdf:RDF></metadata><defs
     id="defs6"><clipPath
       clipPathUnits="userSpaceOnUse"
       id="clipPath20"><path
         d="M 0,500 H 500 V 0 H 0 Z"
         id="path18"
         inkscape:connector-curvature="0" /></clipPath><clipPath
       clipPathUnits="userSpaceOnUse"
       id="clipPath28"><path
         d="m 54,427.999 h 394 v -283 H 54 Z"
         id="path26"
         inkscape:connector-curvature="0" /></clipPath><clipPath
       clipPathUnits="userSpaceOnUse"
       id="clipPath868"><path
         d="M 0,500 H 500 V 0 H 0 Z"
         id="path866"
         inkscape:connector-curvature="0" /></clipPath></defs><sodipodi:namedview
     pagecolor="#ffffff"
     bordercolor="#666666"
     borderopacity="1"
     objecttolerance="10"
     gridtolerance="10"
     guidetolerance="10"
     inkscape:pageopacity="0"
     inkscape:pageshadow="2"
     inkscape:window-width="1600"
     inkscape:window-height="847"
     id="namedview4"
     showgrid="false"
     inkscape:zoom="0.70799998"
     inkscape:cx="213.47047"
     inkscape:cy="248.57331"
     inkscape:window-x="-8"
     inkscape:window-y="-8"
     inkscape:window-maximized="1"
     inkscape:current-layer="g10" /><g
     id="g10"
     inkscape:groupmode="layer"
     inkscape:label="404338-PD3H9O-233"
     transform="matrix(1.3333333,0,0,-1.3333333,0,666.66667)"><g
       id="g14"><g
         id="g16"
         clip-path="url(#clipPath20)"><g
           id="g22"><g
             id="g24" /><g
             id="g36"><g
               clip-path="url(#clipPath28)"
               id="g34"
               style="opacity:0.69999701"><g
                 transform="translate(428.2793,144.999)"
                 id="g32"><path
                   d="m 0,0 c 12.63,25.986 19.721,55.164 19.721,86 0,108.8 -88.2,197 -197,197 -108.801,0 -197,-88.2 -197,-197 0,-30.836 7.091,-60.014 19.72,-86 z"
                   style="fill:#ffffff;fill-opacity:1;fill-rule:nonzero;stroke:none"
                   id="path30"
                   inkscape:connector-curvature="0" /></g></g></g></g><g
           id="g38"
           transform="translate(183.6187,112)"><path
             d="m 0,0 c 0,-6.627 -26.863,-12 -60,-12 -33.137,0 -60,5.373 -60,12 0,6.627 26.863,12 60,12 C -26.863,12 0,6.627 0,0"
             style="fill:#b4c7df;fill-opacity:1;fill-rule:nonzero;stroke:none"
             id="path40"
             inkscape:connector-curvature="0" /></g><g
           id="g42"
           transform="translate(283.6182,112)"><path
             d="m 0,0 c 0,-6.627 -26.862,-12 -60,-12 -33.137,0 -60,5.373 -60,12 0,6.627 26.863,12 60,12 C -26.862,12 0,6.627 0,0"
             style="fill:#b4c7df;fill-opacity:1;fill-rule:nonzero;stroke:none"
             id="path44"
             inkscape:connector-curvature="0" /></g><g
           id="g46"
           transform="translate(370.6182,112)"><path
             d="m 0,0 c 0,-6.627 -26.862,-12 -60,-12 -33.137,0 -60,5.373 -60,12 0,6.627 26.863,12 60,12 C -26.862,12 0,6.627 0,0"
             style="fill:#b4c7df;fill-opacity:1;fill-rule:nonzero;stroke:none"
             id="path48"
             inkscape:connector-curvature="0" /></g><g
           id="g50"
           transform="translate(442.6182,112)"><path
             d="m 0,0 c 0,-6.627 -26.863,-12 -60,-12 -33.137,0 -60,5.373 -60,12 0,6.627 26.863,12 60,12 C -26.863,12 0,6.627 0,0"
             style="fill:#b4c7df;fill-opacity:1;fill-rule:nonzero;stroke:none"
             id="path52"
             inkscape:connector-curvature="0" /></g><g
           id="g54"
           transform="translate(189.3271,328.189)"><path
             d="m 0,0 c 0,0 -9.321,-11.149 -10.966,-20.778 -1.644,-9.629 -5.208,-37.503 -1.644,-42.571 3.563,-5.068 7.675,-5.068 8.772,-5.068 1.096,0 51.812,-3.547 51.538,4.562 -0.274,8.108 -5.209,61.574 -5.209,61.574 C 42.491,-2.281 20.56,9.122 0,0"
             style="fill:#35324c;fill-opacity:1;fill-rule:nonzero;stroke:none"
             id="path56"
             inkscape:connector-curvature="0" /></g><g
           id="g58"
           transform="translate(241.3437,315.7734)"><path
             d="m 0,0 c 0,0 5.908,-42.624 6.33,-48.954 0.422,-6.33 -1.266,-35.448 -1.266,-35.448 l -5.908,0.422 -12.304,79.045 z"
             style="fill:#ffb197;fill-opacity:1;fill-rule:nonzero;stroke:none"
             id="path60"
             inkscape:connector-curvature="0" /></g><g
           id="g62"
           transform="translate(228.7109,332.2036)"><path
             d="m 0,0 c -3.632,0.888 -15.346,2.572 -23.828,2.667 v 0.035 c 0,0 -0.088,-0.006 -0.249,-0.017 -0.16,0.011 -0.249,0.017 -0.249,0.017 V 2.667 c -3.146,-0.236 -14.46,-0.079 -18.077,-6.108 -3.987,-6.645 -6.024,-60.763 -6.024,-60.763 H 1.907 C 1.907,-64.204 1.473,-0.36 0,0"
             style="fill:#f45c5c;fill-opacity:1;fill-rule:nonzero;stroke:none"
             id="path64"
             inkscape:connector-curvature="0" /></g><g
           id="g66"
           transform="translate(185.6216,330.6938)"><path
             d="m 0,0 c 0,0 -23.139,-31.906 -25.624,-39.775 -2.493,-7.894 -3.281,-10.238 2.548,-13.058 6.419,-3.106 10.345,4.468 11.784,9.873 2.305,8.656 8.152,22.302 8.518,23.398 C -2.258,-18.013 0,0 0,0"
             style="fill:#f98e72;fill-opacity:1;fill-rule:nonzero;stroke:none"
             id="path68"
             inkscape:connector-curvature="0" /></g><g
           id="g70"
           transform="translate(219.9487,153.124)"><path
             d="M 0,0 0.318,-26.341 1.534,-29.262 9.188,-31.175 8.632,5.653 Z"
             style="fill:#ffb197;fill-opacity:1;fill-rule:nonzero;stroke:none"
             id="path72"
             inkscape:connector-curvature="0" /></g><g
           id="g74"
           transform="translate(197.5151,149.2812)"><path
             d="M 0,0 -1.562,-22.621 -7.564,-21.614 -9.032,1.35 Z"
             style="fill:#ffb197;fill-opacity:1;fill-rule:nonzero;stroke:none"
             id="path76"
             inkscape:connector-curvature="0" /></g><g
           id="g78"
           transform="translate(180.2842,268)"><path
             d="m 0,0 8.216,-122.655 8.803,-0.383 3.314,111.371 10,-0.333 c 0,0 5.667,-66.333 5.334,-67.333 -0.334,-1 3.687,-43.88 3.687,-43.88 l 10.021,0.371 L 52,-78.333 50.333,0 Z"
             style="fill:#6072bb;fill-opacity:1;fill-rule:nonzero;stroke:none"
             id="path80"
             inkscape:connector-curvature="0" /></g><g
           id="g82"
           transform="translate(227.8789,126.0439)"><path
             d="M 0,0 C 0,0 -1.443,3.339 0.451,3.609 2.346,3.88 3.338,2.707 3.338,2.707 l 4.512,-5.233 2.346,-3.789 -3.61,1.713 z"
             style="fill:#e0b14b;fill-opacity:1;fill-rule:nonzero;stroke:none"
             id="path84"
             inkscape:connector-curvature="0" /></g><g
           id="g86"
           transform="translate(220.5708,127.7588)"><path
             d="m 0,0 c 0,0 1.474,-3.705 3.068,-3.067 0.902,0.36 2.526,3.338 3.699,2.886 1.173,-0.451 5.684,-3.88 7.399,-4.782 1.714,-0.902 -3.52,5.955 -3.52,5.955 0,0 4.422,-4.691 5.956,-5.504 1.533,-0.811 14.525,-4.24 14.796,-8.301 l -0.224,-2.616 c 0,0 -4.287,-3.88 -14.302,-0.451 -10.015,3.429 -15.699,4.061 -17.503,4.782 C -2.436,-10.376 -1.443,-0.091 0,0"
             style="fill:#f3d289;fill-opacity:1;fill-rule:nonzero;stroke:none"
             id="path88"
             inkscape:connector-curvature="0" /></g><g
           id="g90"
           transform="translate(239.5181,113.2324)"><path
             d="m 0,0 c -4.782,0.812 -12.722,4.331 -15.79,4.691 -1.767,0.208 -3.53,0.835 -4.711,1.33 0.108,-1.352 0.395,-2.381 0.922,-2.592 1.805,-0.722 7.489,-1.354 17.504,-4.783 10.015,-3.428 14.302,0.452 14.302,0.452 l 0.224,2.616 C 11.278,-0.361 4.782,-0.812 0,0"
             style="fill:#ffffff;fill-opacity:1;fill-rule:nonzero;stroke:none"
             id="path92"
             inkscape:connector-curvature="0" /></g><g
           id="g94"
           transform="translate(230.4956,123.3789)"><path
             d="M 0,0 C -0.082,0 -0.165,0.021 -0.242,0.062 -0.483,0.196 -0.571,0.5 -0.437,0.742 -0.389,0.83 0.77,2.896 2.36,3.202 3,3.331 3.637,3.149 4.196,2.691 4.41,2.517 4.441,2.202 4.267,1.988 4.092,1.773 3.777,1.742 3.563,1.918 3.232,2.188 2.9,2.287 2.551,2.221 1.612,2.041 0.707,0.743 0.437,0.258 0.346,0.093 0.176,0 0,0"
             style="fill:#ffffff;fill-opacity:1;fill-rule:nonzero;stroke:none"
             id="path96"
             inkscape:connector-curvature="0" /></g><g
           id="g98"
           transform="translate(232.0298,121.9355)"><path
             d="M 0,0 C -0.082,0 -0.165,0.021 -0.242,0.062 -0.483,0.196 -0.571,0.5 -0.437,0.742 -0.389,0.83 0.77,2.896 2.36,3.202 3.001,3.331 3.637,3.15 4.196,2.691 4.41,2.517 4.441,2.202 4.267,1.988 4.092,1.773 3.777,1.743 3.563,1.918 3.232,2.188 2.9,2.287 2.551,2.221 1.612,2.041 0.707,0.743 0.437,0.258 0.346,0.093 0.176,0 0,0"
             style="fill:#ffffff;fill-opacity:1;fill-rule:nonzero;stroke:none"
             id="path100"
             inkscape:connector-curvature="0" /></g><g
           id="g102"
           transform="translate(233.9233,120.9424)"><path
             d="M 0,0 C -0.081,0 -0.164,0.021 -0.241,0.062 -0.482,0.196 -0.57,0.5 -0.437,0.742 -0.388,0.83 0.771,2.896 2.361,3.202 3,3.33 3.638,3.149 4.197,2.691 4.411,2.517 4.442,2.202 4.268,1.988 4.093,1.773 3.777,1.743 3.564,1.918 3.232,2.188 2.9,2.288 2.552,2.221 1.613,2.041 0.708,0.743 0.438,0.258 0.347,0.093 0.177,0 0,0"
             style="fill:#ffffff;fill-opacity:1;fill-rule:nonzero;stroke:none"
             id="path104"
             inkscape:connector-curvature="0" /></g><g
           id="g106"
           transform="translate(235.9087,120.041)"><path
             d="M 0,0 C -0.081,0 -0.164,0.021 -0.241,0.062 -0.482,0.196 -0.57,0.5 -0.437,0.742 -0.388,0.83 0.771,2.896 2.36,3.202 3,3.325 3.637,3.148 4.196,2.69 4.41,2.516 4.441,2.201 4.267,1.987 4.092,1.772 3.776,1.742 3.563,1.917 3.232,2.188 2.899,2.286 2.551,2.22 1.612,2.041 0.708,0.742 0.438,0.258 0.347,0.093 0.177,0 0,0"
             style="fill:#ffffff;fill-opacity:1;fill-rule:nonzero;stroke:none"
             id="path108"
             inkscape:connector-curvature="0" /></g><g
           id="g110"
           transform="translate(171.2446,312.7632)"><path
             d="M 0,0 11.963,-14.954 23.5,20.936 c 0,0 -12.818,0 -15.596,-4.486 C 5.61,12.744 1.135,6.609 0,0"
             style="fill:#f45c5c;fill-opacity:1;fill-rule:nonzero;stroke:none"
             id="path112"
             inkscape:connector-curvature="0" /></g><g
           id="g114"
           transform="translate(217.6587,150.3848)"><path
             d="M 0,0 13.298,-0.034 12.816,-5.821 0.866,-5.746 Z"
             style="fill:#7584e6;fill-opacity:1;fill-rule:nonzero;stroke:none"
             id="path116"
             inkscape:connector-curvature="0" /></g><g
           id="g118"
           transform="translate(186.4507,150.5518)"><path
             d="M 0,0 13.488,-0.025 13.006,-5.813 0.866,-5.747 Z"
             style="fill:#7584e6;fill-opacity:1;fill-rule:nonzero;stroke:none"
             id="path120"
             inkscape:connector-curvature="0" /></g><g
           id="g122"
           transform="translate(180.4014,283.5493)"><path
             d="m 0,0 c 2.888,2.008 7.846,23.496 8.825,26.875 2.059,7.108 2.897,15.818 2.828,23.219 C 9.131,51.106 6.327,50.317 3.79,49.341 1.154,39.476 -3.697,11.427 -3.365,1.221 -2.473,0.405 -1.209,0.001 0,0"
             style="fill:#524e64;fill-opacity:1;fill-rule:nonzero;stroke:none"
             id="path124"
             inkscape:connector-curvature="0" /></g><g
           id="g126"
           transform="translate(188.814,312)"><path
             d="m 0,0 c 0,-3.422 -2.774,-6.197 -6.196,-6.197 -3.423,0 -6.197,2.775 -6.197,6.197 0,3.422 2.774,6.197 6.197,6.197 C -2.774,6.197 0,3.422 0,0"
             style="fill:#ffb197;fill-opacity:1;fill-rule:nonzero;stroke:none"
             id="path128"
             inkscape:connector-curvature="0" /></g><g
           id="g130"
           transform="translate(178.1279,308.9302)"><path
             d="m 0,0 -17.639,-19.874 c 0,0 -7.593,-10.232 -0.179,-13.887 5.334,-2.63 9.696,2.911 12.472,6.311 0.49,0.6 9.513,24.086 9.513,24.086 z"
             style="fill:#ffb197;fill-opacity:1;fill-rule:nonzero;stroke:none"
             id="path132"
             inkscape:connector-curvature="0" /></g><g
           id="g134"
           transform="translate(217.3081,333.7773)"><path
             d="m 0,0 c -3.554,0.566 -7.843,1.042 -12.425,1.093 v 0.035 c 0,0 -0.088,-0.005 -0.249,-0.017 -0.16,0.012 -0.249,0.017 -0.249,0.017 V 1.093 c -1.659,-0.124 -5.588,-0.149 -9.463,-1.019 -0.141,-2.039 10.93,-14.252 10.93,-14.252 0,0 10.974,10.938 11.456,14.178"
             style="fill:#ffb197;fill-opacity:1;fill-rule:nonzero;stroke:none"
             id="path136"
             inkscape:connector-curvature="0" /></g><g
           id="g138"
           transform="translate(204.8833,346.6611)"><path
             d="m 0,0 v 0 c -2.752,0 -4.983,-2.231 -4.983,-4.983 v -9.303 c 0,-2.752 2.231,-4.983 4.983,-4.983 2.752,0 4.983,2.231 4.983,4.983 v 9.303 C 4.983,-2.231 2.752,0 0,0"
             style="fill:#ffb197;fill-opacity:1;fill-rule:nonzero;stroke:none"
             id="path140"
             inkscape:connector-curvature="0" /></g><g
           id="g142"
           transform="translate(204.8833,349.6611)"><path
             d="m 0,0 v 0 c -2.752,0 -4.983,-2.231 -4.983,-4.983 v -6.395 c 1.579,-0.474 3.25,-0.735 4.983,-0.735 1.733,0 3.404,0.261 4.983,0.735 v 6.395 C 4.983,-2.231 2.752,0 0,0"
             style="fill:#f98e72;fill-opacity:1;fill-rule:nonzero;stroke:none"
             id="path144"
             inkscape:connector-curvature="0" /></g><g
           id="g146"
           transform="translate(222.2295,357.6543)"><path
             d="m 0,0 c 0,-9.58 -7.766,-17.346 -17.346,-17.346 -9.58,0 -17.346,7.766 -17.346,17.346 0,9.58 7.766,17.346 17.346,17.346 C -7.766,17.346 0,9.58 0,0"
             style="fill:#ffb197;fill-opacity:1;fill-rule:nonzero;stroke:none"
             id="path148"
             inkscape:connector-curvature="0" /></g><g
           id="g150"
           transform="translate(193.4116,356.6548)"><path
             d="m 0,0 c 0,-2.88 -2.335,-5.215 -5.215,-5.215 -2.881,0 -5.216,2.335 -5.216,5.215 0,2.881 2.335,5.216 5.216,5.216 C -2.335,5.216 0,2.881 0,0"
             style="fill:#ffb197;fill-opacity:1;fill-rule:nonzero;stroke:none"
             id="path152"
             inkscape:connector-curvature="0" /></g><g
           id="g154"
           transform="translate(226.2925,356.6548)"><path
             d="m 0,0 c 0,-2.88 -2.335,-5.215 -5.216,-5.215 -2.88,0 -5.215,2.335 -5.215,5.215 0,2.881 2.335,5.216 5.215,5.216 C -2.335,5.216 0,2.881 0,0"
             style="fill:#ffb197;fill-opacity:1;fill-rule:nonzero;stroke:none"
             id="path156"
             inkscape:connector-curvature="0" /></g><g
           id="g158"
           transform="translate(200.002,355.9282)"><path
             d="m 0,0 c 0,-0.707 -0.577,-1.28 -1.29,-1.28 -0.712,0 -1.289,0.573 -1.289,1.28 0,0.707 0.577,1.28 1.289,1.28 C -0.577,1.28 0,0.707 0,0"
             style="fill:#35324c;fill-opacity:1;fill-rule:nonzero;stroke:none"
             id="path160"
             inkscape:connector-curvature="0" /></g><g
           id="g162"
           transform="translate(212.0923,355.9282)"><path
             d="m 0,0 c 0,-0.707 -0.577,-1.28 -1.29,-1.28 -0.712,0 -1.289,0.573 -1.289,1.28 0,0.707 0.577,1.28 1.289,1.28 C -0.577,1.28 0,0.707 0,0"
             style="fill:#35324c;fill-opacity:1;fill-rule:nonzero;stroke:none"
             id="path164"
             inkscape:connector-curvature="0" /></g><g
           id="g166"
           transform="translate(194.7246,359.4126)"><path
             d="M 0,0 -0.729,0.684 C 1.85,3.435 5.232,2.795 5.376,2.767 L 5.181,1.786 C 5.062,1.811 2.19,2.336 0,0"
             style="fill:#35324c;fill-opacity:1;fill-rule:nonzero;stroke:none"
             id="path168"
             inkscape:connector-curvature="0" /></g><g
           id="g170"
           transform="translate(214.6294,359.4126)"><path
             d="m 0,0 c -2.189,2.335 -5.059,1.81 -5.181,1.786 l -0.194,0.981 c 0.143,0.028 3.526,0.666 6.104,-2.083 z"
             style="fill:#35324c;fill-opacity:1;fill-rule:nonzero;stroke:none"
             id="path172"
             inkscape:connector-curvature="0" /></g><g
           id="g174"
           transform="translate(184.4185,109.1621)"><path
             d="M 0,0 C 0,0 -0.746,-2.747 -0.344,-4.261 0.057,-5.773 1.621,-8.498 5.417,-8.616 9.213,-8.734 14.158,-8.977 13.862,1.63 Z"
             style="fill:#ffffff;fill-opacity:1;fill-rule:nonzero;stroke:none"
             id="path176"
             inkscape:connector-curvature="0" /></g><g
           id="g178"
           transform="translate(190.0073,126.0879)"><path
             d="M 0,0 C 0.337,0.599 -0.736,5.085 2.396,4.932 5.529,4.778 5.887,3.283 5.656,1.077 5.425,-1.128 3.978,-10.13 3.978,-10.13 l -4.392,-0.4 z"
             style="fill:#e0b14b;fill-opacity:1;fill-rule:nonzero;stroke:none"
             id="path180"
             inkscape:connector-curvature="0" /></g><g
           id="g182"
           transform="translate(189.3501,129.2109)"><path
             d="m 0,0 c 0,0 -1.336,-7.751 -1.475,-8.052 -0.139,-0.3 -4.143,-12.24 -3.566,-14.119 0.417,-1.354 2.756,-3.291 7.762,-3.102 3.852,0.145 6.696,3.667 6.125,7.478 -0.506,3.382 -1.142,9.775 -1.138,9.871 0.01,0.185 -0.619,8.04 -0.619,8.04 0,0 -3.669,-5.505 -3.961,-12.28 l -1.351,0.072 C 1.777,-12.092 2.114,0.38 0,0"
             style="fill:#f3d289;fill-opacity:1;fill-rule:nonzero;stroke:none"
             id="path184"
             inkscape:connector-curvature="0" /></g><g
           id="g186"
           transform="translate(195.2139,125.3105)"><path
             d="M 0,0 C -0.129,0 -0.259,0.05 -0.357,0.149 -2.513,2.346 -4.787,0.477 -4.883,0.396 -5.093,0.218 -5.408,0.243 -5.587,0.454 -5.766,0.665 -5.741,0.979 -5.531,1.157 -4.479,2.056 -1.896,3.144 0.357,0.851 0.55,0.653 0.547,0.337 0.35,0.144 0.253,0.048 0.126,0 0,0"
             style="fill:#ffffff;fill-opacity:1;fill-rule:nonzero;stroke:none"
             id="path188"
             inkscape:connector-curvature="0" /></g><g
           id="g190"
           transform="translate(194.8848,122.7471)"><path
             d="M 0,0 C -0.129,0 -0.259,0.05 -0.357,0.149 -2.512,2.345 -4.788,0.476 -4.883,0.396 -5.093,0.216 -5.408,0.243 -5.587,0.453 -5.766,0.664 -5.741,0.978 -5.531,1.156 -4.48,2.055 -1.898,3.146 0.357,0.851 0.55,0.653 0.547,0.337 0.351,0.144 0.253,0.048 0.126,0 0,0"
             style="fill:#ffffff;fill-opacity:1;fill-rule:nonzero;stroke:none"
             id="path192"
             inkscape:connector-curvature="0" /></g><g
           id="g194"
           transform="translate(194.5557,120.1836)"><path
             d="M 0,0 C -0.129,0 -0.259,0.05 -0.357,0.149 -2.513,2.345 -4.787,0.476 -4.883,0.395 -5.093,0.217 -5.408,0.242 -5.587,0.453 -5.766,0.664 -5.741,0.978 -5.531,1.156 -4.48,2.055 -1.898,3.146 0.357,0.851 0.55,0.653 0.547,0.337 0.351,0.144 0.253,0.048 0.126,0 0,0"
             style="fill:#ffffff;fill-opacity:1;fill-rule:nonzero;stroke:none"
             id="path196"
             inkscape:connector-curvature="0" /></g><g
           id="g198"
           transform="translate(194.2266,117.6191)"><path
             d="M 0,0 C -0.129,0 -0.259,0.05 -0.357,0.149 -2.513,2.344 -4.787,0.476 -4.883,0.395 -5.093,0.216 -5.408,0.243 -5.587,0.453 -5.766,0.664 -5.741,0.978 -5.531,1.156 -4.48,2.055 -1.898,3.146 0.357,0.851 0.55,0.653 0.547,0.337 0.351,0.144 0.253,0.048 0.126,0 0,0"
             style="fill:#ffffff;fill-opacity:1;fill-rule:nonzero;stroke:none"
             id="path200"
             inkscape:connector-curvature="0" /></g><g
           id="g202"
           transform="translate(243.3853,312.3413)"><path
             d="m 0,0 -11.963,-14.954 -11.536,35.89 c 0,0 12.818,0 15.595,-4.487 C -5.61,12.744 -1.135,6.609 0,0"
             style="fill:#f45c5c;fill-opacity:1;fill-rule:nonzero;stroke:none"
             id="path204"
             inkscape:connector-curvature="0" /></g><g
           id="g206"
           transform="translate(229.7729,283.5493)"><path
             d="m 0,0 c -2.888,2.008 -7.846,23.496 -8.825,26.875 -2.059,7.108 -2.897,15.818 -2.828,23.219 2.522,1.012 5.326,0.223 7.863,-0.753 C -1.154,39.476 3.697,11.427 3.365,1.221 2.473,0.405 1.209,0.001 0,0"
             style="fill:#524e64;fill-opacity:1;fill-rule:nonzero;stroke:none"
             id="path208"
             inkscape:connector-curvature="0" /></g><g
           id="g210"
           transform="translate(212.7759,369.9312)"><path
             d="m 0,0 c -1.712,-1.522 -5.314,-1.697 -7.486,-1.582 -1.645,0.087 -3.285,0.296 -4.907,0.623 -1.456,0.293 -2.923,0.695 -4.193,1.554 -1.965,1.329 -3.3,3.695 -3.804,6.23 -0.503,2.534 -0.209,8.176 0.546,10.629 C -14.543,11.95 -8.099,13.2 -2.947,10.645 -1.861,10.106 -0.772,9.217 -0.528,7.9 0.141,8.903 1.517,8.232 2.506,7.666 4.649,6.438 6.847,5.034 8.133,2.732 8.858,1.435 9.246,-0.082 9.38,-1.61 9.66,-4.773 9.411,-8.754 7.718,-11.285 7.012,-8.339 6.632,-6.014 5.497,-3.892 4.362,-1.77 2.185,0.073 0,0"
             style="fill:#35324c;fill-opacity:1;fill-rule:nonzero;stroke:none"
             id="path212"
             inkscape:connector-curvature="0" /></g><g
           id="g214"
           transform="translate(189.0771,359.854)"><path
             d="m 0,0 c -0.909,1.285 -1.845,2.633 -2.139,4.229 -0.287,1.563 0.078,3.179 0.553,4.685 0.606,1.921 1.393,3.774 2.346,5.516 0.54,0.987 1.181,1.986 2.135,2.462 C 4.37,17.628 6.203,16.819 6.769,15.14 7.301,13.559 5.996,11.717 5.314,10.368 3.562,6.903 1.164,3.801 0,0"
             style="fill:#35324c;fill-opacity:1;fill-rule:nonzero;stroke:none"
             id="path216"
             inkscape:connector-curvature="0" /></g><g
           id="g218"
           transform="translate(199.146,350.5503)"><path
             d="m 0,0 c 0.444,-2.852 2.904,-5.038 5.881,-5.038 2.977,0 5.436,2.186 5.881,5.038 z"
             style="fill:#953d49;fill-opacity:1;fill-rule:nonzero;stroke:none"
             id="path220"
             inkscape:connector-curvature="0" /></g><g
           id="g222"
           transform="translate(199.146,350.5503)"><path
             d="m 0,0 c 0.107,-0.686 0.333,-1.331 0.651,-1.918 h 8.114 c 0.765,0 1.386,0.621 1.386,1.386 V 0 Z"
             style="fill:#ffffff;fill-opacity:1;fill-rule:nonzero;stroke:none"
             id="path224"
             inkscape:connector-curvature="0" /></g><g
           id="g226"
           transform="translate(181.0845,256.0562)"><path
             d="M 0,0 0.111,0.042 C 5.024,1.853 8.118,6.727 7.665,11.944 H -0.8 Z"
             style="fill:#3c57a4;fill-opacity:1;fill-rule:nonzero;stroke:none"
             id="path228"
             inkscape:connector-curvature="0" /></g><g
           id="g230"
           transform="translate(230.6177,268)"><path
             d="m 0,0 h -10.426 l 1.941,-6.019 c 0.769,-2.382 2.174,-4.506 4.058,-6.154 1.609,-1.407 3.523,-3.023 4.768,-3.886 z"
             style="fill:#3c57a4;fill-opacity:1;fill-rule:nonzero;stroke:none"
             id="path232"
             inkscape:connector-curvature="0" /></g><g
           id="g234"
           transform="translate(226.2012,229.4268)"><path
             d="m 0,0 0.164,-21.751 0.201,-0.582 c 0.988,-2.849 4.843,-3.268 6.42,-0.697 l 0.334,0.545 1.099,22.83 z"
             style="fill:#e05452;fill-opacity:1;fill-rule:nonzero;stroke:none"
             id="path236"
             inkscape:connector-curvature="0" /></g><g
           id="g238"
           transform="translate(253.793,230.082)"><path
             d="m 0,0 -19.374,-0.311 -4.391,-25.079 20.488,2.085 c 2.546,0.21 4.461,2.41 4.316,4.961 z"
             style="fill:#e05452;fill-opacity:1;fill-rule:nonzero;stroke:none"
             id="path240"
             inkscape:connector-curvature="0" /></g><g
           id="g242"
           transform="translate(227.1885,229.5986)"><path
             d="m 0,0 0.275,-20.386 c 0,0 -0.088,-2.197 1.998,-2.24 2.085,-0.043 1.742,2.593 1.742,2.593 L 4.649,0.142 Z"
             style="fill:#ffffff;fill-opacity:1;fill-rule:nonzero;stroke:none"
             id="path244"
             inkscape:connector-curvature="0" /></g><g
           id="g246"
           transform="translate(247.896,228.0195)"><path
             d="m 0,0 c 0,-3.422 -2.774,-6.196 -6.197,-6.196 -3.422,0 -6.197,2.774 -6.197,6.196 0,3.422 2.775,6.196 6.197,6.196 C -2.774,6.196 0,3.422 0,0"
             style="fill:#ffb197;fill-opacity:1;fill-rule:nonzero;stroke:none"
             id="path248"
             inkscape:connector-curvature="0" /></g><g
           id="g250"
           transform="translate(130.1841,325.9248)"><path
             d="m 0,0 c -0.913,1.21 -2.212,2.056 -3.686,2.416 -3.632,0.888 -11.133,2.435 -19.615,2.53 L -23.3,4.98 c 0,0 -0.089,-0.005 -0.249,-0.016 -0.161,0.011 -0.25,0.016 -0.25,0.016 l 0.001,-0.034 c -3.147,-0.237 -14.461,-0.079 -18.078,-6.109 -3.987,-6.644 -6.023,-60.762 -6.023,-60.762 H 2.434 c 0,0 -0.952,24.402 -2.785,42.446 4.769,-8.791 11.146,-20.181 11.146,-20.67 0,-0.775 6.455,-11.361 6.455,-11.361 0,0 7.813,0.559 11.577,3.075 C 33.672,-45.195 6.49,-8.601 0,0"
             style="fill:#443036;fill-opacity:1;fill-rule:nonzero;stroke:none"
             id="path252"
             inkscape:connector-curvature="0" /></g><g
           id="g254"
           transform="translate(87.6006,328.6187)"><path
             d="m 0,0 c 0,0 -4.038,-12.528 -4.763,-18.016 -0.725,-5.487 -8.969,-45.353 -8.969,-45.353 h 3 c 0,0 8.04,43.8 8.558,45.767 0.517,1.968 5.192,15.733 5.192,15.733 z"
             style="fill:#70203e;fill-opacity:1;fill-rule:nonzero;stroke:none"
             id="path256"
             inkscape:connector-curvature="0" /></g><g
           id="g258"
           transform="translate(102.8042,308.9648)"><path
             d="M 0,0 3.459,3.081 27.942,6.32 33.894,-28.408 8.28,-31.572 Z"
             style="fill:#e05452;fill-opacity:1;fill-rule:nonzero;stroke:none"
             id="path260"
             inkscape:connector-curvature="0" /></g><g
           id="g262"
           transform="translate(104.0034,308.3545)"><path
             d="m 0,0 c 0,0 2.034,2.486 2.26,2.486 0.226,0 23.655,3.315 23.655,3.315 l 5.574,-32.921 -3.013,-2.41 -23.429,-1.582 z"
             style="fill:#ffffff;fill-opacity:1;fill-rule:nonzero;stroke:none"
             id="path264"
             inkscape:connector-curvature="0" /></g><g
           id="g266"
           transform="translate(133.5449,278.2993)"><path
             d="m 0,0 -25.828,-3.693 -4.913,34.359 25.828,3.692 z"
             style="fill:#e05452;fill-opacity:1;fill-rule:nonzero;stroke:none"
             id="path268"
             inkscape:connector-curvature="0" /></g><g
           id="g270"
           transform="translate(97.8232,303.4463)"><path
             d="M 0,0 3.459,3.081 27.942,6.32 33.894,-28.408 8.28,-31.572 Z"
             style="fill:#9193ef;fill-opacity:1;fill-rule:nonzero;stroke:none"
             id="path272"
             inkscape:connector-curvature="0" /></g><g
           id="g274"
           transform="translate(99.0225,302.8359)"><path
             d="m 0,0 c 0,0 2.034,2.486 2.26,2.486 0.226,0 23.655,3.315 23.655,3.315 l 5.574,-32.921 -3.013,-2.41 -23.429,-1.582 z"
             style="fill:#ffffff;fill-opacity:1;fill-rule:nonzero;stroke:none"
             id="path276"
             inkscape:connector-curvature="0" /></g><g
           id="g278"
           transform="translate(128.564,272.7812)"><path
             d="m 0,0 -25.828,-3.693 -4.913,34.358 25.828,3.693 z"
             style="fill:#9193ef;fill-opacity:1;fill-rule:nonzero;stroke:none"
             id="path280"
             inkscape:connector-curvature="0" /></g><g
           id="g282"
           transform="translate(109.4878,284.1689)"><path
             d="m 0,0 c 0,-3.682 -2.985,-6.667 -6.667,-6.667 -3.681,0 -6.666,2.985 -6.666,6.667 0,3.682 2.985,6.667 6.666,6.667 C -2.985,6.667 0,3.682 0,0"
             style="fill:#ffb197;fill-opacity:1;fill-rule:nonzero;stroke:none"
             id="path284"
             inkscape:connector-curvature="0" /></g><g
           id="g286"
           transform="translate(87.6216,326.6938)"><path
             d="m 0,0 c 0,0 -24.611,-31.502 -27.096,-39.372 -2.493,-7.893 -2.722,-13.331 3.106,-16.151 6.42,-3.106 13.115,5.853 14.554,11.257 2.305,8.657 6.297,23.608 6.662,24.704 C -2.257,-18.013 0,0 0,0"
             style="fill:#443036;fill-opacity:1;fill-rule:nonzero;stroke:none"
             id="path288"
             inkscape:connector-curvature="0" /></g><g
           id="g290"
           transform="translate(133.1768,138.4941)"><path
             d="m 0,0 1.929,-17.846 2.653,-4.099 5.788,2.412 L 7.958,-8.44 5.788,2.171 Z"
             style="fill:#ffb197;fill-opacity:1;fill-rule:nonzero;stroke:none"
             id="path292"
             inkscape:connector-curvature="0" /></g><g
           id="g294"
           transform="translate(102.5156,140.2812)"><path
             d="m 0,0 0.556,-17.941 -2.061,-4.427 -6.066,1.589 0.856,11.32 0.683,10.809 z"
             style="fill:#ffb197;fill-opacity:1;fill-rule:nonzero;stroke:none"
             id="path296"
             inkscape:connector-curvature="0" /></g><g
           id="g298"
           transform="translate(82.2847,264)"><path
             d="M 0,0 5.333,-77.333 13,-129 h 8 l -0.333,53.333 4.666,64 3,-0.333 c 0,0 13.667,-66.333 13.334,-67.333 -0.334,-1 9.183,-54.613 9.183,-54.613 h 8 L 58,-78.333 50.333,0 Z"
             style="fill:#f45c5c;fill-opacity:1;fill-rule:nonzero;stroke:none"
             id="path300"
             inkscape:connector-curvature="0" /></g><g
           id="g302"
           transform="translate(141.9409,122.7598)"><path
             d="M 0,0 C 0,0 -1.444,3.338 0.451,3.608 2.346,3.879 3.338,2.706 3.338,2.706 l 4.512,-5.232 2.345,-3.79 -3.609,1.714 z"
             style="fill:#35324c;fill-opacity:1;fill-rule:nonzero;stroke:none"
             id="path304"
             inkscape:connector-curvature="0" /></g><g
           id="g306"
           transform="translate(134.6328,124.4736)"><path
             d="m 0,0 c 0,0 1.474,-3.705 3.067,-3.067 0.903,0.36 2.527,3.338 3.7,2.886 1.172,-0.451 5.684,-3.88 7.398,-4.781 1.714,-0.902 -3.519,5.954 -3.519,5.954 0,0 4.421,-4.691 5.955,-5.504 1.534,-0.811 14.526,-4.24 14.797,-8.3 l -0.224,-2.617 c 0,0 -4.287,-3.88 -14.302,-0.451 -10.015,3.429 -15.699,4.061 -17.504,4.782 C -2.436,-10.376 -1.444,-0.09 0,0"
             style="fill:#524e64;fill-opacity:1;fill-rule:nonzero;stroke:none"
             id="path308"
             inkscape:connector-curvature="0" /></g><g
           id="g310"
           transform="translate(153.5796,109.9473)"><path
             d="m 0,0 c -4.782,0.812 -12.722,4.331 -15.789,4.691 -1.768,0.208 -3.531,0.835 -4.712,1.33 0.108,-1.351 0.395,-2.381 0.922,-2.592 1.805,-0.722 7.489,-1.354 17.504,-4.783 10.015,-3.427 14.303,0.452 14.303,0.452 l 0.223,2.617 C 11.278,-0.36 4.782,-0.812 0,0"
             style="fill:#ffffff;fill-opacity:1;fill-rule:nonzero;stroke:none"
             id="path312"
             inkscape:connector-curvature="0" /></g><g
           id="g314"
           transform="translate(144.5571,120.0938)"><path
             d="M 0,0 C -0.082,0 -0.165,0.02 -0.241,0.062 -0.483,0.196 -0.571,0.5 -0.437,0.742 -0.389,0.83 0.77,2.896 2.36,3.202 3.001,3.329 3.637,3.15 4.196,2.691 4.41,2.517 4.442,2.202 4.267,1.988 4.092,1.774 3.777,1.742 3.563,1.918 3.232,2.188 2.9,2.287 2.549,2.221 1.606,2.039 0.706,0.742 0.438,0.258 0.347,0.093 0.176,0 0,0"
             style="fill:#eef2f7;fill-opacity:1;fill-rule:nonzero;stroke:none"
             id="path316"
             inkscape:connector-curvature="0" /></g><g
           id="g318"
           transform="translate(146.0908,118.6504)"><path
             d="M 0,0 C -0.082,0 -0.165,0.021 -0.241,0.062 -0.483,0.196 -0.571,0.5 -0.437,0.742 -0.389,0.83 0.77,2.896 2.361,3.202 3,3.329 3.637,3.15 4.197,2.691 4.411,2.517 4.442,2.202 4.268,1.988 4.093,1.774 3.778,1.743 3.564,1.918 3.232,2.188 2.901,2.288 2.55,2.221 1.607,2.039 0.706,0.742 0.438,0.258 0.347,0.093 0.176,0 0,0"
             style="fill:#eef2f7;fill-opacity:1;fill-rule:nonzero;stroke:none"
             id="path320"
             inkscape:connector-curvature="0" /></g><g
           id="g322"
           transform="translate(147.9858,117.6582)"><path
             d="M 0,0 C -0.082,0 -0.165,0.021 -0.242,0.062 -0.483,0.196 -0.571,0.5 -0.437,0.742 -0.389,0.83 0.77,2.896 2.36,3.202 3,3.325 3.637,3.148 4.197,2.69 4.41,2.516 4.442,2.2 4.267,1.987 4.092,1.773 3.777,1.741 3.563,1.917 3.232,2.188 2.901,2.286 2.55,2.221 1.612,2.041 0.708,0.743 0.438,0.258 0.347,0.093 0.176,0 0,0"
             style="fill:#eef2f7;fill-opacity:1;fill-rule:nonzero;stroke:none"
             id="path324"
             inkscape:connector-curvature="0" /></g><g
           id="g326"
           transform="translate(149.9707,116.7559)"><path
             d="M 0,0 C -0.082,0 -0.165,0.02 -0.241,0.062 -0.483,0.196 -0.571,0.5 -0.437,0.742 -0.389,0.83 0.77,2.896 2.36,3.202 3,3.33 3.637,3.149 4.196,2.691 4.41,2.517 4.442,2.202 4.267,1.988 4.092,1.774 3.777,1.743 3.563,1.918 3.232,2.188 2.902,2.287 2.549,2.221 1.606,2.039 0.706,0.742 0.438,0.258 0.347,0.093 0.176,0 0,0"
             style="fill:#eef2f7;fill-opacity:1;fill-rule:nonzero;stroke:none"
             id="path328"
             inkscape:connector-curvature="0" /></g><g
           id="g330"
           transform="translate(96.3633,123.5918)"><path
             d="M 0,0 C 0,0 1.444,3.338 -0.451,3.608 -2.346,3.88 -3.338,2.706 -3.338,2.706 l -4.512,-5.232 -2.345,-3.79 3.609,1.714 z"
             style="fill:#35324c;fill-opacity:1;fill-rule:nonzero;stroke:none"
             id="path332"
             inkscape:connector-curvature="0" /></g><g
           id="g334"
           transform="translate(103.6714,125.3057)"><path
             d="m 0,0 c 0,0 -1.474,-3.705 -3.067,-3.067 -0.903,0.36 -2.527,3.338 -3.7,2.886 -1.172,-0.451 -5.684,-3.879 -7.398,-4.781 -1.714,-0.902 3.519,5.954 3.519,5.954 0,0 -4.421,-4.691 -5.955,-5.503 -1.534,-0.812 -14.526,-4.241 -14.797,-8.301 l 0.224,-2.617 c 0,0 4.287,-3.879 14.302,-0.45 10.015,3.428 15.699,4.06 17.504,4.781 C 2.437,-10.376 1.444,-0.09 0,0"
             style="fill:#524e64;fill-opacity:1;fill-rule:nonzero;stroke:none"
             id="path336"
             inkscape:connector-curvature="0" /></g><g
           id="g338"
           transform="translate(84.7246,110.7793)"><path
             d="M 0,0 C 4.782,0.812 12.722,4.331 15.789,4.692 17.557,4.9 19.32,5.526 20.501,6.021 20.393,4.67 20.106,3.64 19.579,3.429 17.774,2.707 12.09,2.075 2.075,-1.353 -7.94,-4.781 -12.228,-0.901 -12.228,-0.901 l -0.223,2.616 C -11.278,-0.36 -4.782,-0.812 0,0"
             style="fill:#ffffff;fill-opacity:1;fill-rule:nonzero;stroke:none"
             id="path340"
             inkscape:connector-curvature="0" /></g><g
           id="g342"
           transform="translate(93.7476,120.9258)"><path
             d="M 0,0 C -0.176,0 -0.347,0.093 -0.438,0.258 -0.708,0.743 -1.612,2.041 -2.551,2.221 -2.902,2.29 -3.232,2.188 -3.563,1.918 -3.778,1.742 -4.092,1.774 -4.267,1.988 -4.442,2.202 -4.41,2.517 -4.196,2.691 -3.637,3.149 -3,3.33 -2.36,3.202 -0.77,2.896 0.389,0.83 0.437,0.742 0.571,0.5 0.483,0.196 0.242,0.062 0.165,0.021 0.082,0 0,0"
             style="fill:#eef2f7;fill-opacity:1;fill-rule:nonzero;stroke:none"
             id="path344"
             inkscape:connector-curvature="0" /></g><g
           id="g346"
           transform="translate(92.2139,119.4824)"><path
             d="M 0,0 C -0.176,0 -0.346,0.093 -0.438,0.258 -0.708,0.743 -1.613,2.041 -2.551,2.221 -2.902,2.29 -3.233,2.188 -3.564,1.918 -3.778,1.743 -4.092,1.774 -4.268,1.988 -4.442,2.202 -4.411,2.517 -4.197,2.691 -3.638,3.149 -3.002,3.33 -2.361,3.202 -0.77,2.896 0.389,0.83 0.437,0.742 0.571,0.5 0.483,0.196 0.242,0.062 0.165,0.021 0.082,0 0,0"
             style="fill:#eef2f7;fill-opacity:1;fill-rule:nonzero;stroke:none"
             id="path348"
             inkscape:connector-curvature="0" /></g><g
           id="g350"
           transform="translate(90.3188,118.4902)"><path
             d="M 0,0 C -0.176,0 -0.347,0.093 -0.438,0.258 -0.708,0.743 -1.612,2.041 -2.551,2.221 -2.901,2.289 -3.232,2.188 -3.563,1.918 -3.777,1.743 -4.093,1.774 -4.267,1.988 -4.442,2.202 -4.41,2.517 -4.196,2.691 -3.637,3.149 -3,3.328 -2.36,3.202 -0.77,2.896 0.389,0.83 0.437,0.742 0.571,0.5 0.483,0.196 0.242,0.062 0.165,0.021 0.082,0 0,0"
             style="fill:#eef2f7;fill-opacity:1;fill-rule:nonzero;stroke:none"
             id="path352"
             inkscape:connector-curvature="0" /></g><g
           id="g354"
           transform="translate(88.334,117.5879)"><path
             d="M 0,0 C -0.176,0 -0.347,0.093 -0.438,0.258 -0.708,0.743 -1.612,2.041 -2.551,2.221 -2.903,2.29 -3.233,2.188 -3.563,1.918 -3.778,1.743 -4.092,1.775 -4.267,1.988 -4.442,2.202 -4.41,2.517 -4.196,2.691 -3.637,3.149 -3,3.329 -2.36,3.202 -0.77,2.896 0.389,0.83 0.437,0.742 0.571,0.5 0.483,0.196 0.242,0.062 0.165,0.021 0.082,0 0,0"
             style="fill:#eef2f7;fill-opacity:1;fill-rule:nonzero;stroke:none"
             id="path356"
             inkscape:connector-curvature="0" /></g><g
           id="g358"
           transform="translate(131.8521,133.6963)"><path
             d="m 0,0 10.488,-0.025 -0.482,-5.787 -9.14,0.066 z"
             style="fill:#ce3d3d;fill-opacity:1;fill-rule:nonzero;stroke:none"
             id="path360"
             inkscape:connector-curvature="0" /></g><g
           id="g362"
           transform="translate(94.0688,136.1934)"><path
             d="m 0,0 10.488,-0.025 -0.482,-5.788 -9.14,0.066 z"
             style="fill:#ce3d3d;fill-opacity:1;fill-rule:nonzero;stroke:none"
             id="path364"
             inkscape:connector-curvature="0" /></g><g
           id="g366"
           transform="translate(106.123,285.2593)"><path
             d="M 0,0 C 0,0 40.631,3.624 42.542,0.255 46.257,-6.292 45.7,-9.295 41.311,-10.844 36.921,-12.394 -2.84,-5.68 -2.84,-5.68 Z"
             style="fill:#ffb197;fill-opacity:1;fill-rule:nonzero;stroke:none"
             id="path368"
             inkscape:connector-curvature="0" /></g><g
           id="g370"
           transform="translate(85.9854,297.5083)"><path
             d="M 0,0 C 2.888,2.008 4.262,5.537 5.241,8.916 7.3,16.024 8.317,23.435 8.248,30.836 5.726,31.849 2.743,32.358 0.207,31.382 -2.43,21.517 -3.697,11.427 -3.365,1.221 -2.473,0.405 -1.209,0.001 0,0"
             style="fill:#e89b48;fill-opacity:1;fill-rule:nonzero;stroke:none"
             id="path372"
             inkscape:connector-curvature="0" /></g><g
           id="g374"
           transform="translate(117.2573,321.1538)"><path
             d="m 0,0 c 0.785,0.941 1.568,5.384 2.051,8.624 -3.554,0.565 -7.843,1.042 -12.425,1.093 v 0.034 c 0,0 -0.088,-0.005 -0.249,-0.016 -0.16,0.011 -0.249,0.016 -0.249,0.016 V 9.717 C -12.531,9.592 -16.46,9.568 -20.335,8.698 -20.476,6.658 -20.603,2.514 -19.477,1.012 -17.959,-1.012 -1.265,-1.518 0,0"
             style="fill:#ffb197;fill-opacity:1;fill-rule:nonzero;stroke:none"
             id="path376"
             inkscape:connector-curvature="0" /></g><g
           id="g378"
           transform="translate(107.6182,252.3335)"><path
             d="M 0,0 -11.702,0.238 -4.667,-64 Z"
             style="fill:#ce3d3d;fill-opacity:1;fill-rule:nonzero;stroke:none"
             id="path380"
             inkscape:connector-curvature="0" /></g><g
           id="g382"
           transform="translate(106.8838,342.6611)"><path
             d="m 0,0 v 0 c -2.752,0 -4.983,-2.231 -4.983,-4.983 v -9.303 c 0,-2.752 2.231,-4.983 4.983,-4.983 2.752,0 4.983,2.231 4.983,4.983 v 9.303 C 4.983,-2.231 2.752,0 0,0"
             style="fill:#ffb197;fill-opacity:1;fill-rule:nonzero;stroke:none"
             id="path384"
             inkscape:connector-curvature="0" /></g><g
           id="g386"
           transform="translate(106.8838,344.6611)"><path
             d="m 0,0 v 0 c -2.752,0 -4.983,-2.231 -4.983,-4.983 v -6.395 c 1.579,-0.474 3.25,-0.735 4.983,-0.735 1.733,0 3.404,0.261 4.983,0.735 v 6.395 C 4.983,-2.231 2.752,0 0,0"
             style="fill:#f98e72;fill-opacity:1;fill-rule:nonzero;stroke:none"
             id="path388"
             inkscape:connector-curvature="0" /></g><g
           id="g390"
           transform="translate(118.5649,375.6558)"><path
             d="m 0,0 c 0,-6.452 -5.229,-11.682 -11.681,-11.682 -6.452,0 -11.682,5.23 -11.682,11.682 0,6.451 5.23,11.681 11.682,11.681 C -5.229,11.681 0,6.451 0,0"
             style="fill:#a1616b;fill-opacity:1;fill-rule:nonzero;stroke:none"
             id="path392"
             inkscape:connector-curvature="0" /></g><g
           id="g394"
           transform="translate(124.23,356.6543)"><path
             d="m 0,0 c 0,-9.58 -7.766,-17.346 -17.346,-17.346 -9.58,0 -17.346,7.766 -17.346,17.346 0,9.58 7.766,17.346 17.346,17.346 C -7.766,17.346 0,9.58 0,0"
             style="fill:#f45c5c;fill-opacity:1;fill-rule:nonzero;stroke:none"
             id="path396"
             inkscape:connector-curvature="0" /></g><g
           id="g398"
           transform="translate(124.23,352.6543)"><path
             d="m 0,0 c 0,-9.58 -7.766,-17.346 -17.346,-17.346 -9.58,0 -17.346,7.766 -17.346,17.346 0,9.58 7.766,17.346 17.346,17.346 C -7.766,17.346 0,9.58 0,0"
             style="fill:#ffb197;fill-opacity:1;fill-rule:nonzero;stroke:none"
             id="path400"
             inkscape:connector-curvature="0" /></g><g
           id="g402"
           transform="translate(95.4121,351.6548)"><path
             d="m 0,0 c 0,-2.88 -2.335,-5.215 -5.216,-5.215 -2.88,0 -5.215,2.335 -5.215,5.215 0,2.88 2.335,5.216 5.215,5.216 C -2.335,5.216 0,2.88 0,0"
             style="fill:#ffb197;fill-opacity:1;fill-rule:nonzero;stroke:none"
             id="path404"
             inkscape:connector-curvature="0" /></g><g
           id="g406"
           transform="translate(128.293,351.6548)"><path
             d="m 0,0 c 0,-2.88 -2.335,-5.215 -5.216,-5.215 -2.88,0 -5.215,2.335 -5.215,5.215 0,2.88 2.335,5.216 5.215,5.216 C -2.335,5.216 0,2.88 0,0"
             style="fill:#ffb197;fill-opacity:1;fill-rule:nonzero;stroke:none"
             id="path408"
             inkscape:connector-curvature="0" /></g><g
           id="g410"
           transform="translate(89.749,355.728)"><path
             d="m 0,0 c 0,0 12.422,14.899 27.009,11.356 0,0 -8.574,8.611 -17.331,4.146 C -0.95,10.084 0,0 0,0"
             style="fill:#a1616b;fill-opacity:1;fill-rule:nonzero;stroke:none"
             id="path412"
             inkscape:connector-curvature="0" /></g><g
           id="g414"
           transform="translate(102.0024,352.9282)"><path
             d="m 0,0 c 0,-0.707 -0.577,-1.28 -1.29,-1.28 -0.712,0 -1.289,0.573 -1.289,1.28 0,0.707 0.577,1.28 1.289,1.28 C -0.577,1.28 0,0.707 0,0"
             style="fill:#752b19;fill-opacity:1;fill-rule:nonzero;stroke:none"
             id="path416"
             inkscape:connector-curvature="0" /></g><g
           id="g418"
           transform="translate(114.0928,352.9282)"><path
             d="m 0,0 c 0,-0.707 -0.577,-1.28 -1.29,-1.28 -0.712,0 -1.289,0.573 -1.289,1.28 0,0.707 0.577,1.28 1.289,1.28 C -0.577,1.28 0,0.707 0,0"
             style="fill:#752b19;fill-opacity:1;fill-rule:nonzero;stroke:none"
             id="path420"
             inkscape:connector-curvature="0" /></g><g
           id="g422"
           transform="translate(102.0024,358.689)"><path
             d="M 0,0 C 0,0 -3.224,0.645 -5.642,-1.935"
             style="fill:none;stroke:#752b19;stroke-width:0.75;stroke-linecap:butt;stroke-linejoin:miter;stroke-miterlimit:10;stroke-dasharray:none;stroke-opacity:1"
             id="path424"
             inkscape:connector-curvature="0" /></g><g
           id="g426"
           transform="translate(111.3525,358.689)"><path
             d="M 0,0 C 0,0 3.224,0.645 5.642,-1.935"
             style="fill:none;stroke:#752b19;stroke-width:0.75;stroke-linecap:butt;stroke-linejoin:miter;stroke-miterlimit:10;stroke-dasharray:none;stroke-opacity:1"
             id="path428"
             inkscape:connector-curvature="0" /></g><g
           id="g430"
           transform="translate(114.5566,346.23)"><path
             d="M 0,0 C 0,0 -3.385,-3.463 -8.469,-2.336"
             style="fill:none;stroke:#752b19;stroke-width:0.75;stroke-linecap:butt;stroke-linejoin:miter;stroke-miterlimit:10;stroke-dasharray:none;stroke-opacity:1"
             id="path432"
             inkscape:connector-curvature="0" /></g><g
           id="g434"
           transform="translate(59.8066,249.7393)"><path
             d="m 0,0 c -1.274,-2.792 -2.219,-5.864 -1.789,-8.903 0.491,-3.464 2.733,-6.482 5.464,-8.668 1.571,-1.259 3.421,-2.325 5.433,-2.38 2.602,-0.071 5.008,1.598 6.493,3.735 5.494,7.908 8.003,23.469 1.844,31.751 -2.052,2.759 -4.53,4.274 -7.365,1.717 C 7.93,15.313 6.619,11.435 5.105,8.976 3.3,6.042 1.434,3.142 0,0"
             style="fill:#e89b48;fill-opacity:1;fill-rule:nonzero;stroke:none"
             id="path436"
             inkscape:connector-curvature="0" /></g><g
           id="g438"
           transform="translate(60.7549,235.6914)"><path
             d="m 0,0 c 2.616,5.335 5.231,10.669 7.846,16.004 2.036,4.153 4.392,8.931 5.169,13.491 2.37,1.716 5.843,1.359 8.198,-0.379 2.355,-1.737 3.686,-4.595 4.153,-7.484 0.466,-2.889 0.158,-5.843 -0.216,-8.745 C 24.175,5.309 22.676,-2.43 18.556,-8.864 13.848,-10.698 8.49,-10.427 4.244,-7.688 1.798,-6.111 0.383,-2.886 0,0"
             style="fill:#cf8841;fill-opacity:1;fill-rule:nonzero;stroke:none"
             id="path440"
             inkscape:connector-curvature="0" /></g><g
           id="g442"
           transform="translate(78.7939,267.6089)"><path
             d="m 0,0 c -2.296,1.814 -5.369,2.894 -8.191,2.117 -1.233,-0.34 -2.348,-1.008 -3.423,-1.701 -3.101,-1.998 -6.024,-4.272 -8.723,-6.786 -0.467,-0.435 -0.954,-0.924 -1.055,-1.554 -0.077,-0.476 0.08,-0.956 0.253,-1.407 0.651,-1.702 1.547,-3.311 2.652,-4.761 0.552,-0.725 1.185,-1.432 2.019,-1.803 0.884,-0.392 1.901,-0.361 2.851,-0.177 2.628,0.508 4.904,2.086 7.093,3.626 C -1.322,-8.788 7.504,-5.929 0,0"
             style="fill:#c7772e;fill-opacity:1;fill-rule:nonzero;stroke:none"
             id="path444"
             inkscape:connector-curvature="0" /></g><g
           id="g446"
           transform="translate(80.0649,258.79)"><path
             d="m 0,0 c -1.979,0 -3.589,-1.61 -3.589,-3.589 0,-1.979 1.61,-3.589 3.589,-3.589 1.979,0 3.589,1.61 3.589,3.589 C 3.589,-1.61 1.979,0 0,0 m 0,-8.178 c -2.53,0 -4.589,2.058 -4.589,4.589 C -4.589,-1.059 -2.53,1 0,1 2.53,1 4.589,-1.059 4.589,-3.589 4.589,-6.12 2.53,-8.178 0,-8.178"
             style="fill:#f3d289;fill-opacity:1;fill-rule:nonzero;stroke:none"
             id="path448"
             inkscape:connector-curvature="0" /></g><g
           id="g450"
           transform="translate(61.2417,259.2344)"><path
             d="m 0,0 c 0,0 -2.293,-3.997 -1.435,-9.495 l 0.792,-0.667 c 0,0 0.828,8.646 1.915,8.801 z"
             style="fill:#70203e;fill-opacity:1;fill-rule:nonzero;stroke:none"
             id="path452"
             inkscape:connector-curvature="0" /></g><g
           id="g454"
           transform="translate(91.9487,329.1206)"><path
             d="m 0,0 -9.831,-72.621 -4,0.5 10.767,72.345 z"
             style="fill:#783d1e;fill-opacity:1;fill-rule:nonzero;stroke:none"
             id="path456"
             inkscape:connector-curvature="0" /></g><g
           id="g458"
           transform="translate(90.8145,307.4165)"><path
             d="m 0,0 c 0,-3.422 -2.774,-6.196 -6.196,-6.196 -3.423,0 -6.197,2.774 -6.197,6.196 0,3.422 2.774,6.197 6.197,6.197 C -2.774,6.197 0,3.422 0,0"
             style="fill:#ffb197;fill-opacity:1;fill-rule:nonzero;stroke:none"
             id="path460"
             inkscape:connector-curvature="0" /></g><g
           id="g462"
           transform="translate(80.1284,304.9302)"><path
             d="m 0,0 -17.639,-19.874 c 0,0 -6.603,-8.118 1.006,-11.349 7.608,-3.232 6.61,-0.941 9.385,2.459 0.49,0.6 11.414,25.4 11.414,25.4 z"
             style="fill:#ffb197;fill-opacity:1;fill-rule:nonzero;stroke:none"
             id="path464"
             inkscape:connector-curvature="0" /></g><g
           id="g466"
           transform="translate(116.6982,365.0635)"><path
             d="M 0,0 C 1.228,-2.591 2.948,-4.912 4.657,-7.214 4.988,-7.661 5.326,-8.113 5.769,-8.45 6.167,-8.753 6.645,-8.953 7.141,-9.024 7.308,-7.195 6.148,-5.553 5.271,-3.94 4.62,-2.744 4.092,-1.459 3.208,-0.422 2.434,0.488 1.424,1.162 0.392,1.748 -0.127,2.042 -0.423,2.345 -0.562,1.707 -0.666,1.228 -0.198,0.417 0,0"
             style="fill:#a1616b;fill-opacity:1;fill-rule:nonzero;stroke:none"
             id="path468"
             inkscape:connector-curvature="0" /></g><g
           id="g470"
           transform="translate(276.2256,341.0142)"><path
             d="m 0,0 c -1.463,-2.021 -3.308,-3.97 -3.627,-6.444 -0.199,-1.549 0.242,-3.115 0.866,-4.546 2.527,-5.792 8.056,-9.921 14.085,-11.811 6.03,-1.889 12.529,-1.755 18.776,-0.803 4.303,0.655 8.781,1.812 11.88,4.868 1.036,1.02 1.915,2.313 1.991,3.763 0.037,0.706 -0.118,1.408 -0.323,2.084 -0.991,3.286 -3.115,6.109 -4.421,9.283 -1.672,4.061 -1.949,8.535 -2.699,12.862 -0.75,4.327 -2.137,8.811 -5.416,11.733 -3.094,2.759 -7.564,3.707 -11.641,2.96 C 13.837,22.916 8.545,18.873 5.854,13.851 3.433,9.33 3.112,4.3 0,0"
             style="fill:#a1616b;fill-opacity:1;fill-rule:nonzero;stroke:none"
             id="path472"
             inkscape:connector-curvature="0" /></g><g
           id="g474"
           transform="translate(278.3555,319.9175)"><path
             d="m 0,0 c 0,0 -9.32,-11.149 -10.966,-20.778 -1.644,-9.629 -5.208,-37.503 -1.644,-42.571 3.563,-5.068 7.675,-5.068 8.772,-5.068 1.097,0 51.813,-3.547 51.538,4.562 -0.274,8.108 -5.209,61.574 -5.209,61.574 0,0 -21.93,11.403 -42.491,2.281"
             style="fill:#f45c5c;fill-opacity:1;fill-rule:nonzero;stroke:none"
             id="path476"
             inkscape:connector-curvature="0" /></g><g
           id="g478"
           transform="translate(327.1289,306.7183)"><path
             d="m 0,0 c -2.569,4.871 -4.927,9.234 -6.343,11.838 -0.882,1.623 -2.391,2.801 -4.181,3.257 -4.784,1.218 -14.556,3.524 -20.351,3.622 -7.892,0.134 -16.346,-2.145 -19.978,-3.032 -1.472,-0.361 -2.772,-1.206 -3.685,-2.417 -6.49,-8.601 -33.672,-45.195 -28.827,-48.435 3.763,-2.516 11.578,-3.074 11.578,-3.074 0,0 6.454,10.586 6.454,11.36 0,0.489 6.376,11.88 11.145,20.671 -1.833,-18.044 -2.636,-35.272 -2.636,-35.272 H -7.49 c 0,0 0.082,13.26 -1.436,30.558 0.369,-1.369 1.104,-3.092 2.015,-4.984"
             style="fill:#f3d289;fill-opacity:1;fill-rule:nonzero;stroke:none"
             id="path480"
             inkscape:connector-curvature="0" /></g><g
           id="g482"
           transform="translate(271.7842,248.4941)"><path
             d="m 0,0 c 0,0 4.666,-58.334 6.333,-64.334 1.667,-6 8.654,-58.48 8.654,-58.48 0,0 3.346,-0.52 4.679,-0.186 1.334,0.333 4.334,47.666 1,59 -1.438,4.892 -0.333,59 -0.333,59 l 7.667,0.333 0.666,-57 c 0,0 -0.895,-15.884 -0.666,-20 0.666,-12 5.333,-41.333 5.333,-41.333 0,0 4.333,-1.334 4.667,0.666 0.333,2 4.333,58.334 4.333,58.334 L 46.666,10 4,8 Z"
             style="fill:#ffb197;fill-opacity:1;fill-rule:nonzero;stroke:none"
             id="path484"
             inkscape:connector-curvature="0" /></g><g
           id="g486"
           transform="translate(326.6699,306.7173)"><path
             d="m 0,0 c 9.85,-13.856 22.63,-37.466 18.672,-37.862 -9.413,-0.941 -11.586,1.059 -11.586,1.059 0,0 -2.047,7.281 -4.444,10.816 -0.916,1.349 -6.637,8.373 -10.876,16.116 C -3.86,-8.014 -1.02,-2.351 0,0"
             style="fill:#ffb197;fill-opacity:1;fill-rule:nonzero;stroke:none"
             id="path488"
             inkscape:connector-curvature="0" /></g><g
           id="g490"
           transform="translate(270.3027,265.1919)"><path
             d="m 0,0 -7.325,-49.307 c 0,0 8.315,-6.653 37.143,-6.653 28.828,0 32.155,7.761 32.155,7.761 L 49.333,0 Z"
             style="fill:#443036;fill-opacity:1;fill-rule:nonzero;stroke:none"
             id="path492"
             inkscape:connector-curvature="0" /></g><g
           id="g494"
           transform="translate(286.4141,127.8535)"><path
             d="M 0,0 C 0,0 1.356,3.138 -0.424,3.392 -2.204,3.646 -3.137,2.544 -3.137,2.544 l -4.239,-4.918 -2.205,-3.561 3.392,1.612 z"
             style="fill:#ce3d3d;fill-opacity:1;fill-rule:nonzero;stroke:none"
             id="path496"
             inkscape:connector-curvature="0" /></g><g
           id="g498"
           transform="translate(293.2812,129.4648)"><path
             d="m 0,0 c 0,0 -1.385,-3.481 -2.882,-2.883 -0.848,0.339 -2.374,3.137 -3.476,2.713 -1.103,-0.424 -5.342,-3.645 -6.953,-4.493 -1.611,-0.848 3.307,5.596 3.307,5.596 0,0 -4.155,-4.41 -5.597,-5.172 -1.44,-0.763 -13.65,-3.986 -13.904,-7.8 l 0.21,-2.459 c 0,0 4.029,-3.647 13.441,-0.424 9.411,3.222 14.752,3.816 16.448,4.493 C 2.29,-9.75 1.357,-0.085 0,0"
             style="fill:#f45c5c;fill-opacity:1;fill-rule:nonzero;stroke:none"
             id="path500"
             inkscape:connector-curvature="0" /></g><g
           id="g502"
           transform="translate(275.4766,115.8145)"><path
             d="m 0,0 c 4.494,0.763 11.955,4.069 14.838,4.409 1.66,0.195 3.318,0.783 4.428,1.248 C 19.164,4.388 18.894,3.42 18.398,3.222 16.703,2.544 11.361,1.95 1.95,-1.271 -7.461,-4.494 -11.49,-0.848 -11.49,-0.848 L -11.7,1.611 C -10.598,-0.339 -4.493,-0.763 0,0"
             style="fill:#ffffff;fill-opacity:1;fill-rule:nonzero;stroke:none"
             id="path504"
             inkscape:connector-curvature="0" /></g><g
           id="g506"
           transform="translate(283.9561,125.3486)"><path
             d="M 0,0 C -0.166,0 -0.326,0.087 -0.412,0.242 -0.665,0.698 -1.516,1.918 -2.397,2.087 -2.728,2.152 -3.038,2.057 -3.349,1.803 -3.551,1.638 -3.846,1.668 -4.01,1.868 -4.175,2.069 -4.145,2.365 -3.943,2.529 -3.418,2.96 -2.82,3.13 -2.219,3.009 -0.724,2.722 0.365,0.78 0.41,0.697 0.536,0.47 0.453,0.185 0.227,0.059 0.154,0.02 0.077,0 0,0"
             style="fill:#eef2f7;fill-opacity:1;fill-rule:nonzero;stroke:none"
             id="path508"
             inkscape:connector-curvature="0" /></g><g
           id="g510"
           transform="translate(282.5146,123.9922)"><path
             d="M 0,0 C -0.165,0 -0.325,0.088 -0.412,0.242 -0.665,0.698 -1.516,1.918 -2.397,2.087 -2.728,2.152 -3.038,2.057 -3.35,1.803 -3.55,1.639 -3.846,1.668 -4.011,1.869 -4.175,2.069 -4.145,2.365 -3.944,2.529 -3.419,2.96 -2.821,3.13 -2.219,3.01 -0.724,2.722 0.365,0.78 0.41,0.697 0.536,0.47 0.453,0.185 0.227,0.059 0.155,0.02 0.077,0 0,0"
             style="fill:#eef2f7;fill-opacity:1;fill-rule:nonzero;stroke:none"
             id="path512"
             inkscape:connector-curvature="0" /></g><g
           id="g514"
           transform="translate(280.7334,123.0605)"><path
             d="M 0,0 C -0.165,0 -0.325,0.087 -0.411,0.242 -0.665,0.698 -1.515,1.918 -2.396,2.086 -2.727,2.15 -3.037,2.056 -3.349,1.802 -3.55,1.638 -3.846,1.667 -4.01,1.868 c -0.164,0.201 -0.134,0.496 0.067,0.66 0.526,0.431 1.124,0.599 1.725,0.481 C -0.723,2.722 0.365,0.779 0.411,0.697 0.537,0.47 0.454,0.184 0.228,0.059 0.155,0.019 0.077,0 0,0"
             style="fill:#eef2f7;fill-opacity:1;fill-rule:nonzero;stroke:none"
             id="path516"
             inkscape:connector-curvature="0" /></g><g
           id="g518"
           transform="translate(278.8682,122.2119)"><path
             d="M 0,0 C -0.165,0 -0.325,0.088 -0.411,0.242 -0.664,0.698 -1.515,1.918 -2.396,2.087 -2.728,2.152 -3.038,2.057 -3.349,1.803 -3.55,1.639 -3.846,1.669 -4.01,1.869 c -0.164,0.2 -0.134,0.496 0.067,0.66 0.526,0.431 1.124,0.6 1.725,0.481 C -0.723,2.722 0.365,0.78 0.411,0.697 0.537,0.47 0.454,0.185 0.228,0.059 0.155,0.02 0.077,0 0,0"
             style="fill:#eef2f7;fill-opacity:1;fill-rule:nonzero;stroke:none"
             id="path520"
             inkscape:connector-curvature="0" /></g><g
           id="g522"
           transform="translate(313.8838,127.8721)"><path
             d="M 0,0 C -0.481,0.915 -1.447,1.484 -2.479,1.419 -3.048,1.383 -3.662,1.297 -4.112,1.109 -5.209,0.652 -5.209,-1.816 -4.844,-2.273 c 0.366,-0.457 5.212,-8.503 5.212,-8.503 0,0 4.754,1.554 4.663,2.194 -0.092,0.64 -4.023,6.4 -4.023,6.4 0,0 -0.466,1.151 -1.008,2.182"
             style="fill:#ce3d3d;fill-opacity:1;fill-rule:nonzero;stroke:none"
             id="path524"
             inkscape:connector-curvature="0" /></g><g
           id="g526"
           transform="translate(304.877,126.6563)"><path
             d="m 0,0 c 0,0 -1.569,-5.707 -1.021,-8.633 0,0 -0.093,-0.807 2.833,-2.095 2.927,-1.288 4.712,-6.515 13.033,-5.692 8.32,0.822 7.406,2.011 7.406,2.011 0,0 0.997,6.291 -6.805,8.927 C 11.643,-4.197 9.7,0.633 9.7,0.633 c 0,0 -1.382,0.608 -1.107,-0.58 0.274,-1.189 4.691,-6.537 4.691,-6.537 l -1.37,-0.264 c 0,0 -3.7,6.893 -5.255,7.076 C 5.104,0.511 3.002,-1.775 1.722,-1.409 0.442,-1.044 0,0 0,0"
             style="fill:#f45c5c;fill-opacity:1;fill-rule:nonzero;stroke:none"
             id="path528"
             inkscape:connector-curvature="0" /></g><g
           id="g530"
           transform="translate(319.7217,110.2363)"><path
             d="m 0,0 c 8.32,0.822 7.406,2.011 7.406,2.011 0,0 0.145,0.958 -0.131,2.276 C 6.419,3.665 3.81,2.175 -1.613,2.134 c -6.853,-0.053 -7.011,3.9 -9.963,4.849 -2.012,0.647 -3.588,1.771 -4.401,2.429 -0.007,-0.59 0.022,-1.146 0.112,-1.625 0,0 -0.094,-0.808 2.833,-2.095 C -10.105,4.404 -8.32,-0.823 0,0"
             style="fill:#ffffff;fill-opacity:1;fill-rule:nonzero;stroke:none"
             id="path532"
             inkscape:connector-curvature="0" /></g><g
           id="g534"
           transform="translate(311.4141,124.2471)"><path
             d="M 0,0 C -0.129,0 -0.258,0.044 -0.364,0.133 -0.602,0.334 -0.633,0.688 -0.433,0.927 -0.376,0.993 0.966,2.571 2.515,2.639 3.181,2.659 3.797,2.416 4.3,1.911 4.521,1.691 4.521,1.334 4.3,1.113 4.08,0.894 3.723,0.894 3.502,1.113 3.221,1.396 2.887,1.538 2.567,1.512 1.693,1.476 0.729,0.553 0.432,0.2 0.319,0.068 0.159,0 0,0"
             style="fill:#ffffff;fill-opacity:1;fill-rule:nonzero;stroke:none"
             id="path536"
             inkscape:connector-curvature="0" /></g><g
           id="g538"
           transform="translate(312.5732,122.3496)"><path
             d="m 0,0 c -0.129,0 -0.258,0.044 -0.364,0.133 -0.238,0.201 -0.269,0.555 -0.069,0.794 0.057,0.067 1.4,1.644 2.95,1.712 C 3.177,2.658 3.795,2.415 4.3,1.911 4.521,1.691 4.521,1.334 4.3,1.114 4.08,0.894 3.723,0.894 3.502,1.114 3.222,1.395 2.928,1.514 2.566,1.512 1.694,1.476 0.729,0.553 0.431,0.2 0.319,0.068 0.159,0 0,0"
             style="fill:#ffffff;fill-opacity:1;fill-rule:nonzero;stroke:none"
             id="path540"
             inkscape:connector-curvature="0" /></g><g
           id="g542"
           transform="translate(314.2607,120.7676)"><path
             d="M 0,0 C -0.128,0 -0.257,0.043 -0.362,0.132 -0.602,0.333 -0.633,0.688 -0.432,0.927 -0.376,0.993 0.967,2.571 2.516,2.64 3.177,2.659 3.795,2.416 4.3,1.912 4.52,1.692 4.52,1.335 4.3,1.115 4.079,0.895 3.722,0.895 3.502,1.115 3.22,1.398 2.897,1.52 2.565,1.513 1.686,1.474 0.728,0.553 0.432,0.201 0.32,0.068 0.161,0 0,0"
             style="fill:#ffffff;fill-opacity:1;fill-rule:nonzero;stroke:none"
             id="path544"
             inkscape:connector-curvature="0" /></g><g
           id="g546"
           transform="translate(315.6836,119.0273)"><path
             d="m 0,0 c -0.129,0 -0.258,0.044 -0.364,0.134 -0.238,0.2 -0.269,0.554 -0.069,0.793 0.057,0.067 1.4,1.645 2.95,1.714 C 3.176,2.66 3.795,2.417 4.3,1.913 4.521,1.692 4.521,1.336 4.3,1.115 4.08,0.895 3.723,0.895 3.502,1.115 3.221,1.397 2.91,1.515 2.568,1.513 1.694,1.477 0.729,0.554 0.432,0.201 0.319,0.068 0.159,0 0,0"
             style="fill:#ffffff;fill-opacity:1;fill-rule:nonzero;stroke:none"
             id="path548"
             inkscape:connector-curvature="0" /></g><g
           id="g550"
           transform="translate(318.8018,275.2778)"><path
             d="m 0,0 c -2.889,2.008 -7.846,23.496 -8.825,26.875 -2.06,7.108 -2.898,15.818 -2.828,23.219 2.522,1.012 5.326,0.223 7.863,-0.753 C -1.154,39.476 3.697,11.427 3.364,1.221 2.473,0.405 1.209,0.001 0,0"
             style="fill:#35324c;fill-opacity:1;fill-rule:nonzero;stroke:none"
             id="path552"
             inkscape:connector-curvature="0" /></g><g
           id="g554"
           transform="translate(309.3818,302.3701)"><path
             d="M 0,0 -3.459,3.081 -27.942,6.32 -33.894,-28.408 -8.28,-31.572 Z"
             style="fill:#00b69b;fill-opacity:1;fill-rule:nonzero;stroke:none"
             id="path556"
             inkscape:connector-curvature="0" /></g><g
           id="g558"
           transform="translate(308.1826,301.7598)"><path
             d="m 0,0 c 0,0 -2.033,2.486 -2.26,2.486 -0.225,0 -23.654,3.315 -23.654,3.315 l -5.575,-32.921 3.013,-2.41 23.429,-1.582 z"
             style="fill:#ffffff;fill-opacity:1;fill-rule:nonzero;stroke:none"
             id="path560"
             inkscape:connector-curvature="0" /></g><g
           id="g562"
           transform="translate(278.6416,271.7046)"><path
             d="M 0,0 25.828,-3.693 30.74,30.666 4.912,34.358 Z"
             style="fill:#00b69b;fill-opacity:1;fill-rule:nonzero;stroke:none"
             id="path564"
             inkscape:connector-curvature="0" /></g><g
           id="g566"
           transform="translate(314.3633,296.8516)"><path
             d="M 0,0 -3.459,3.081 -27.942,6.32 -33.894,-28.408 -8.28,-31.572 Z"
             style="fill:#f45c5c;fill-opacity:1;fill-rule:nonzero;stroke:none"
             id="path568"
             inkscape:connector-curvature="0" /></g><g
           id="g570"
           transform="translate(313.1641,296.2412)"><path
             d="m 0,0 c 0,0 -2.034,2.486 -2.26,2.486 -0.226,0 -23.655,3.315 -23.655,3.315 l -5.574,-32.921 3.013,-2.41 23.428,-1.582 z"
             style="fill:#ffffff;fill-opacity:1;fill-rule:nonzero;stroke:none"
             id="path572"
             inkscape:connector-curvature="0" /></g><g
           id="g574"
           transform="translate(283.6221,266.186)"><path
             d="M 0,0 25.828,-3.693 30.741,30.666 4.913,34.359 Z"
             style="fill:#f45c5c;fill-opacity:1;fill-rule:nonzero;stroke:none"
             id="path576"
             inkscape:connector-curvature="0" /></g><g
           id="g578"
           transform="translate(295.8906,336.7231)"><path
             d="m 0,0 h 0.001 c 2.752,0 4.982,-2.231 4.982,-4.983 v -9.303 c 0,-2.752 -2.23,-4.983 -4.982,-4.983 H 0 c -2.752,0 -4.982,2.231 -4.982,4.983 v 9.303 C -4.982,-2.231 -2.752,0 0,0"
             style="fill:#ffb197;fill-opacity:1;fill-rule:nonzero;stroke:none"
             id="path580"
             inkscape:connector-curvature="0" /></g><g
           id="g582"
           transform="translate(295.8906,338.7231)"><path
             d="m 0,0 v 0 c 2.753,0 4.983,-2.231 4.983,-4.983 v -6.395 C 3.404,-11.852 1.733,-12.113 0,-12.113 c -1.732,0 -3.403,0.261 -4.983,0.735 v 6.395 C -4.983,-2.231 -2.752,0 0,0"
             style="fill:#f98e72;fill-opacity:1;fill-rule:nonzero;stroke:none"
             id="path584"
             inkscape:connector-curvature="0" /></g><g
           id="g586"
           transform="translate(278.5449,350.7163)"><path
             d="m 0,0 c 0,-9.58 7.767,-17.346 17.346,-17.346 9.58,0 17.346,7.766 17.346,17.346 0,9.58 -7.766,17.346 -17.346,17.346 C 7.767,17.346 0,9.58 0,0"
             style="fill:#a1616b;fill-opacity:1;fill-rule:nonzero;stroke:none"
             id="path588"
             inkscape:connector-curvature="0" /></g><g
           id="g590"
           transform="translate(278.5449,346.7158)"><path
             d="m 0,0 c 0,-9.58 7.767,-17.346 17.346,-17.346 9.58,0 17.346,7.766 17.346,17.346 0,9.58 -7.766,17.346 -17.346,17.346 C 7.767,17.346 0,9.58 0,0"
             style="fill:#ffb197;fill-opacity:1;fill-rule:nonzero;stroke:none"
             id="path592"
             inkscape:connector-curvature="0" /></g><g
           id="g594"
           transform="translate(307.3623,345.7168)"><path
             d="m 0,0 c 0,-2.88 2.336,-5.216 5.216,-5.216 2.881,0 5.216,2.336 5.216,5.216 0,2.88 -2.335,5.215 -5.216,5.215 C 2.336,5.215 0,2.88 0,0"
             style="fill:#ffb197;fill-opacity:1;fill-rule:nonzero;stroke:none"
             id="path596"
             inkscape:connector-curvature="0" /></g><g
           id="g598"
           transform="translate(274.4824,345.7168)"><path
             d="m 0,0 c 0,-2.88 2.335,-5.216 5.215,-5.216 2.881,0 5.216,2.336 5.216,5.216 0,2.88 -2.335,5.215 -5.216,5.215 C 2.335,5.215 0,2.88 0,0"
             style="fill:#ffb197;fill-opacity:1;fill-rule:nonzero;stroke:none"
             id="path600"
             inkscape:connector-curvature="0" /></g><g
           id="g602"
           transform="translate(300.7725,346.9902)"><path
             d="m 0,0 c 0,-0.707 0.577,-1.28 1.289,-1.28 0.713,0 1.29,0.573 1.29,1.28 0,0.707 -0.577,1.28 -1.29,1.28 C 0.577,1.28 0,0.707 0,0"
             style="fill:#35324c;fill-opacity:1;fill-rule:nonzero;stroke:none"
             id="path604"
             inkscape:connector-curvature="0" /></g><g
           id="g606"
           transform="translate(288.6816,346.9902)"><path
             d="m 0,0 c 0,-0.707 0.578,-1.28 1.29,-1.28 0.712,0 1.29,0.573 1.29,1.28 0,0.707 -0.578,1.28 -1.29,1.28 C 0.578,1.28 0,0.707 0,0"
             style="fill:#35324c;fill-opacity:1;fill-rule:nonzero;stroke:none"
             id="path608"
             inkscape:connector-curvature="0" /></g><g
           id="g610"
           transform="translate(306.1406,350.5601)"><path
             d="m 0,0 c -2.249,2.398 -5.266,1.83 -5.295,1.823 l -0.146,0.736 c 0.139,0.029 3.456,0.654 5.988,-2.046 z"
             style="fill:#a1616b;fill-opacity:1;fill-rule:nonzero;stroke:none"
             id="path612"
             inkscape:connector-curvature="0" /></g><g
           id="g614"
           transform="translate(286.0537,350.5601)"><path
             d="m 0,0 -0.547,0.513 c 2.531,2.699 5.85,2.073 5.989,2.046 L 5.296,1.823 C 5.175,1.847 2.239,2.387 0,0"
             style="fill:#a1616b;fill-opacity:1;fill-rule:nonzero;stroke:none"
             id="path616"
             inkscape:connector-curvature="0" /></g><g
           id="g618"
           transform="translate(295.7705,288.7349)"><path
             d="m 0,0 c 1.565,-3.043 5.302,-4.242 8.345,-2.676 3.043,1.565 4.241,5.301 2.676,8.344 C 9.455,8.712 5.72,9.91 2.676,8.345 -0.367,6.779 -1.565,3.043 0,0"
             style="fill:#ffb197;fill-opacity:1;fill-rule:nonzero;stroke:none"
             id="path620"
             inkscape:connector-curvature="0" /></g><g
           id="g622"
           transform="translate(262.2373,305.8525)"><path
             d="m 0,0 c -9.85,-13.856 -21.826,-32.06 -18.473,-34.301 3.763,-2.516 11.577,-3.074 11.577,-3.074 0,0 6.455,10.585 6.455,11.36 0,0.408 4.436,8.401 8.676,16.143 C 3.861,-8.014 1.021,-2.351 0,0"
             style="fill:#ffb197;fill-opacity:1;fill-rule:nonzero;stroke:none"
             id="path624"
             inkscape:connector-curvature="0" /></g><g
           id="g626"
           transform="translate(269.4297,275.2778)"><path
             d="m 0,0 c 2.889,2.008 7.846,23.496 8.825,26.875 2.059,7.108 2.898,15.818 2.828,23.219 C 9.131,51.106 6.327,50.317 3.79,49.341 1.154,39.476 -3.697,11.427 -3.364,1.221 -2.473,0.405 -1.209,0.001 0,0"
             style="fill:#35324c;fill-opacity:1;fill-rule:nonzero;stroke:none"
             id="path628"
             inkscape:connector-curvature="0" /></g><g
           id="g630"
           transform="translate(296.6523,279.3208)"><path
             d="m 0,0 c 0,0 -40.632,3.625 -42.543,0.256 -3.715,-6.548 -3.157,-9.551 1.231,-11.1 4.39,-1.549 44.152,5.164 44.152,5.164 z"
             style="fill:#ffb197;fill-opacity:1;fill-rule:nonzero;stroke:none"
             id="path632"
             inkscape:connector-curvature="0" /></g><g
           id="g634"
           transform="translate(300.6182,277)"><path
             d="m 0,0 c 0,-3.682 -2.985,-6.667 -6.667,-6.667 -3.682,0 -6.666,2.985 -6.666,6.667 0,3.682 2.984,6.667 6.666,6.667 C -2.985,6.667 0,3.682 0,0"
             style="fill:#ffb197;fill-opacity:1;fill-rule:nonzero;stroke:none"
             id="path636"
             inkscape:connector-curvature="0" /></g><g
           id="g638"
           transform="translate(300.2305,294.1714)"><path
             d="m 0,0 c 0,0 39.226,-11.199 39.8,-15.029 1.118,-7.444 -0.481,-10.047 -5.133,-9.918 -4.653,0.129 -39.356,20.664 -39.356,20.664 z"
             style="fill:#ffb197;fill-opacity:1;fill-rule:nonzero;stroke:none"
             id="path640"
             inkscape:connector-curvature="0" /></g><g
           id="g642"
           transform="translate(296.5879,359.5942)"><path
             d="m 0,0 c -1.093,-1.827 -2.638,-3.342 -4.26,-4.72 -3.872,-3.29 -8.752,-6.034 -13.787,-5.357 0.149,2.316 0.337,4.676 1.224,6.821 1.36,3.294 4.281,5.771 7.545,7.203 2.254,0.989 6.747,2.684 9.23,1.955 C 2.759,5.079 1.085,1.814 0,0"
             style="fill:#a1616b;fill-opacity:1;fill-rule:nonzero;stroke:none"
             id="path644"
             inkscape:connector-curvature="0" /></g><g
           id="g646"
           transform="translate(290.21,340.7163)"><path
             d="m 0,0 c 0.444,-2.852 2.904,-5.037 5.881,-5.037 2.976,0 5.436,2.185 5.881,5.037 z"
             style="fill:#953d49;fill-opacity:1;fill-rule:nonzero;stroke:none"
             id="path648"
             inkscape:connector-curvature="0" /></g><g
           id="g650"
           transform="translate(290.21,340.7168)"><path
             d="m 0,0 c 0.106,-0.686 0.332,-1.331 0.651,-1.918 h 8.114 c 0.765,0 1.386,0.62 1.386,1.386 V 0 Z"
             style="fill:#ffffff;fill-opacity:1;fill-rule:nonzero;stroke:none"
             id="path652"
             inkscape:connector-curvature="0" /></g><g
           id="g654"
           transform="translate(372.3633,152.917)"><path
             d="m 0,0 0.091,-26.342 -1.17,-2.939 -7.623,-2.032 -0.017,36.833 z"
             style="fill:#ffb197;fill-opacity:1;fill-rule:nonzero;stroke:none"
             id="path656"
             inkscape:connector-curvature="0" /></g><g
           id="g658"
           transform="translate(394.8535,149.4238)"><path
             d="m 0,0 1.914,-22.595 5.985,1.1 1.112,22.985 z"
             style="fill:#ffb197;fill-opacity:1;fill-rule:nonzero;stroke:none"
             id="path660"
             inkscape:connector-curvature="0" /></g><g
           id="g662"
           transform="translate(410.2393,268.3955)"><path
             d="m 0,0 -6.311,-122.769 -8.794,-0.518 -5.044,111.306 -9.994,-0.488 c 0,0 -4.636,-66.414 -4.287,-67.409 0.349,-0.994 -3.006,-43.932 -3.006,-43.932 l -10.026,0.216 -3.315,44.463 0.45,78.35 z"
             style="fill:#35324c;fill-opacity:1;fill-rule:nonzero;stroke:none"
             id="path664"
             inkscape:connector-curvature="0" /></g><g
           id="g666"
           transform="translate(374.6953,150.2148)"><path
             d="m 0,0 -13.296,-0.241 0.572,-5.78 11.948,0.261 z"
             style="fill:#bebbd0;fill-opacity:1;fill-rule:nonzero;stroke:none"
             id="path668"
             inkscape:connector-curvature="0" /></g><g
           id="g670"
           transform="translate(405.8975,150.8652)"><path
             d="m 0,0 -13.486,-0.234 0.572,-5.78 12.138,0.255 z"
             style="fill:#bebbd0;fill-opacity:1;fill-rule:nonzero;stroke:none"
             id="path672"
             inkscape:connector-curvature="0" /></g><g
           id="g674"
           transform="translate(409.625,256.4409)"><path
             d="M 0,0 -0.112,0.04 C -5.053,1.774 -8.222,6.6 -7.85,11.823 l 8.464,0.132 z"
             style="fill:#bebbd0;fill-opacity:1;fill-rule:nonzero;stroke:none"
             id="path676"
             inkscape:connector-curvature="0" /></g><g
           id="g678"
           transform="translate(359.9121,267.6143)"><path
             d="m 0,0 10.425,0.162 0.527,-9.997 c -0.731,-2.394 -2.103,-4.54 -3.962,-6.218 -1.587,-1.431 -5.352,-2.569 -7.082,-0.009 z"
             style="fill:#bebbd0;fill-opacity:1;fill-rule:nonzero;stroke:none"
             id="path680"
             inkscape:connector-curvature="0" /></g><g
           id="g682"
           transform="translate(431.4199,254.2715)"><path
             d="m 0,0 c 1.274,-2.792 2.219,-5.865 1.788,-8.903 -0.49,-3.465 -2.732,-6.482 -5.463,-8.669 -1.571,-1.258 -3.421,-2.324 -5.433,-2.379 -2.602,-0.071 -5.007,1.598 -6.493,3.735 -5.494,7.908 -8.003,23.469 -1.843,31.751 2.051,2.759 4.529,4.274 7.364,1.717 2.15,-1.939 3.461,-5.817 4.975,-8.277 C -3.3,6.042 -1.434,3.141 0,0"
             style="fill:#3c57a4;fill-opacity:1;fill-rule:nonzero;stroke:none"
             id="path684"
             inkscape:connector-curvature="0" /></g><g
           id="g686"
           transform="translate(430.4717,240.2227)"><path
             d="m 0,0 -7.846,16.005 c -2.037,4.153 -4.391,8.931 -5.169,13.491 -2.37,1.716 -5.842,1.358 -8.198,-0.379 -2.354,-1.737 -3.686,-4.596 -4.153,-7.485 -0.466,-2.889 -0.157,-5.842 0.216,-8.745 0.975,-7.577 2.474,-15.317 6.594,-21.75 4.708,-1.834 10.066,-1.563 14.312,1.176 C -1.798,-6.11 -0.383,-2.885 0,0"
             style="fill:#6072bb;fill-opacity:1;fill-rule:nonzero;stroke:none"
             id="path688"
             inkscape:connector-curvature="0" /></g><g
           id="g690"
           transform="translate(412.4326,272.1411)"><path
             d="m 0,0 c 2.297,1.814 5.369,2.893 8.19,2.117 1.234,-0.34 2.349,-1.008 3.424,-1.701 3.101,-1.999 6.024,-4.272 8.723,-6.786 0.468,-0.435 0.953,-0.924 1.056,-1.555 0.076,-0.475 -0.081,-0.956 -0.254,-1.406 -0.651,-1.702 -1.547,-3.311 -2.652,-4.761 -0.552,-0.725 -1.185,-1.432 -2.018,-1.803 -0.885,-0.392 -1.902,-0.361 -2.852,-0.178 -2.628,0.509 -4.904,2.087 -7.094,3.627 C 1.322,-8.788 -7.504,-5.93 0,0"
             style="fill:#7584e6;fill-opacity:1;fill-rule:nonzero;stroke:none"
             id="path692"
             inkscape:connector-curvature="0" /></g><g
           id="g694"
           transform="translate(407.5732,259.7334)"><path
             d="m 0,0 c 0,-1.979 1.609,-3.589 3.589,-3.589 1.978,0 3.589,1.61 3.589,3.589 0,1.979 -1.611,3.589 -3.589,3.589 C 1.609,3.589 0,1.979 0,0 M -1,0 C -1,2.53 1.059,4.589 3.589,4.589 6.119,4.589 8.178,2.53 8.178,0 8.178,-2.531 6.119,-4.589 3.589,-4.589 1.059,-4.589 -1,-2.531 -1,0"
             style="fill:#eef2f7;fill-opacity:1;fill-rule:nonzero;stroke:none"
             id="path696"
             inkscape:connector-curvature="0" /></g><g
           id="g698"
           transform="translate(429.9854,263.7661)"><path
             d="m 0,0 c 0,0 2.293,-3.996 1.435,-9.495 l -0.792,-0.667 c 0,0 -0.829,8.646 -1.915,8.801 z"
             style="fill:#35324c;fill-opacity:1;fill-rule:nonzero;stroke:none"
             id="path700"
             inkscape:connector-curvature="0" /></g><g
           id="g702"
           transform="translate(360.8213,331.8394)"><path
             d="m 0,0 c 3.618,0.944 15.305,2.811 23.784,3.037 l -10e-4,0.034 c 0,0 0.089,-0.004 0.249,-0.012 0.161,0.013 0.249,0.02 0.249,0.02 l 0.001,-0.035 c 3.15,-0.187 14.459,0.146 18.17,-5.826 4.09,-6.582 6.966,-60.662 6.966,-60.662 l -50.327,-0.781 c 0,0 -0.558,63.842 0.909,64.225"
             style="fill:#ffffff;fill-opacity:1;fill-rule:nonzero;stroke:none"
             id="path704"
             inkscape:connector-curvature="0" /></g><g
           id="g706"
           transform="translate(403.9297,330.999)"><path
             d="m 0,0 c 0,0 23.631,-31.543 26.238,-39.373 2.616,-7.854 3.44,-10.185 -2.344,-13.095 -6.372,-3.206 -10.414,4.307 -11.936,9.689 C 9.519,-34.16 3.459,-20.606 3.077,-19.517 2.537,-17.976 0,0 0,0"
             style="fill:#f98e72;fill-opacity:1;fill-rule:nonzero;stroke:none"
             id="path708"
             inkscape:connector-curvature="0" /></g><g
           id="g710"
           transform="translate(418.583,313.2939)"><path
             d="m 0,0 -11.729,-15.138 -12.092,35.706 c 0,0 12.815,0.199 15.662,-4.243 C -5.808,12.655 -1.237,6.591 0,0"
             style="fill:#f45c5c;fill-opacity:1;fill-rule:nonzero;stroke:none"
             id="path712"
             inkscape:connector-curvature="0" /></g><g
           id="g714"
           transform="translate(372.1982,333.5903)"><path
             d="M 0,0 C 3.546,0.621 7.826,1.164 12.407,1.286 L 12.406,1.32 c 0,0 0.089,-0.004 0.249,-0.012 0.161,0.013 0.249,0.02 0.249,0.02 L 12.905,1.293 C 14.565,1.195 18.494,1.231 22.383,0.421 22.413,0.06 22.096,-0.627 21.553,-1.513 16.782,-9.299 5.29,-9.397 0.655,-1.529 0.3,-0.926 0.067,-0.404 0,0"
             style="fill:#ffb197;fill-opacity:1;fill-rule:nonzero;stroke:none"
             id="path716"
             inkscape:connector-curvature="0" /></g><g
           id="g718"
           transform="translate(384.4219,346.6655)"><path
             d="m 0,0 v 0 c 2.752,0.042 5.018,-2.154 5.061,-4.906 l 0.144,-9.301 c 0.042,-2.752 -2.154,-5.017 -4.906,-5.06 -2.752,-0.043 -5.017,2.154 -5.06,4.905 l -0.144,9.301 C -4.948,-2.309 -2.752,-0.043 0,0"
             style="fill:#ffb197;fill-opacity:1;fill-rule:nonzero;stroke:none"
             id="path720"
             inkscape:connector-curvature="0" /></g><g
           id="g722"
           transform="translate(384.375,349.665)"><path
             d="m 0,0 v 0 c 2.752,0.043 5.018,-2.153 5.061,-4.905 l 0.099,-6.394 c -1.572,-0.498 -3.238,-0.786 -4.972,-0.813 -1.733,-0.027 -3.408,0.209 -4.994,0.658 L -4.905,-5.06 C -4.948,-2.308 -2.752,-0.042 0,0"
             style="fill:#f98e72;fill-opacity:1;fill-rule:nonzero;stroke:none"
             id="path724"
             inkscape:connector-curvature="0" /></g><g
           id="g726"
           transform="translate(366.9072,357.3877)"><path
             d="M 0,0 C 0.148,-9.579 8.034,-17.223 17.613,-17.075 27.192,-16.926 34.837,-9.04 34.688,0.539 34.539,10.118 26.653,17.762 17.074,17.613 7.496,17.464 -0.148,9.579 0,0"
             style="fill:#ffb197;fill-opacity:1;fill-rule:nonzero;stroke:none"
             id="path728"
             inkscape:connector-curvature="0" /></g><g
           id="g730"
           transform="translate(395.7373,356.8359)"><path
             d="m 0,0 c 0.045,-2.88 2.415,-5.179 5.296,-5.134 2.88,0.045 5.179,2.416 5.134,5.296 C 10.385,3.042 8.014,5.341 5.134,5.296 2.254,5.251 -0.045,2.88 0,0"
             style="fill:#ffb197;fill-opacity:1;fill-rule:nonzero;stroke:none"
             id="path732"
             inkscape:connector-curvature="0" /></g><g
           id="g734"
           transform="translate(362.8604,356.3257)"><path
             d="m 0,0 c 0.045,-2.88 2.416,-5.179 5.296,-5.134 2.88,0.045 5.179,2.416 5.134,5.296 C 10.385,3.042 8.014,5.34 5.134,5.296 2.254,5.251 -0.045,2.88 0,0"
             style="fill:#ffb197;fill-opacity:1;fill-rule:nonzero;stroke:none"
             id="path736"
             inkscape:connector-curvature="0" /></g><g
           id="g738"
           transform="translate(389.1592,356.0068)"><path
             d="M 0,0 C 0.011,-0.707 0.597,-1.271 1.309,-1.259 2.021,-1.249 2.59,-0.667 2.578,0.04 2.567,0.747 1.981,1.311 1.27,1.3 0.557,1.289 -0.012,0.707 0,0"
             style="fill:#35324c;fill-opacity:1;fill-rule:nonzero;stroke:none"
             id="path740"
             inkscape:connector-curvature="0" /></g><g
           id="g742"
           transform="translate(377.0693,355.8193)"><path
             d="m 0,0 c 0.012,-0.707 0.598,-1.271 1.31,-1.26 0.712,0.011 1.281,0.593 1.269,1.3 C 2.568,0.747 1.982,1.311 1.271,1.3 0.558,1.289 -0.011,0.707 0,0"
             style="fill:#35324c;fill-opacity:1;fill-rule:nonzero;stroke:none"
             id="path744"
             inkscape:connector-curvature="0" /></g><g
           id="g746"
           transform="translate(394.3818,359.5728)"><path
             d="m 0,0 0.719,0.695 c -2.622,2.711 -5.994,2.019 -6.138,1.988 l 0.21,-0.978 C -5.089,1.732 -2.227,2.302 0,0"
             style="fill:#be5c00;fill-opacity:1;fill-rule:nonzero;stroke:none"
             id="path748"
             inkscape:connector-curvature="0" /></g><g
           id="g750"
           transform="translate(374.4795,359.2642)"><path
             d="M 0,0 C 2.152,2.369 5.03,1.888 5.152,1.866 L 5.332,2.85 C 5.188,2.875 1.795,3.461 -0.74,0.672 Z"
             style="fill:#be5c00;fill-opacity:1;fill-rule:nonzero;stroke:none"
             id="path752"
             inkscape:connector-curvature="0" /></g><g
           id="g754"
           transform="translate(346.457,311.752)"><path
             d="m 0,0 12.194,-14.767 10.978,36.065 c 0,0 -12.817,-0.199 -15.524,-4.728 C 5.412,12.829 1.032,6.626 0,0"
             style="fill:#f45c5c;fill-opacity:1;fill-rule:nonzero;stroke:none"
             id="path756"
             inkscape:connector-curvature="0" /></g><g
           id="g758"
           transform="translate(399.2764,334.4619)"><path
             d="m 0,0 9.832,-73.43 4,0.5 -10.787,72.836 z"
             style="fill:#35324c;fill-opacity:1;fill-rule:nonzero;stroke:none"
             id="path760"
             inkscape:connector-curvature="0" /></g><g
           id="g762"
           transform="translate(401.0273,312.2578)"><path
             d="m 0,0 c 0.053,-3.422 2.87,-6.153 6.292,-6.1 3.422,0.054 6.153,2.871 6.1,6.292 C 12.339,3.614 9.521,6.345 6.1,6.292 2.678,6.239 -0.053,3.422 0,0"
             style="fill:#ffb197;fill-opacity:1;fill-rule:nonzero;stroke:none"
             id="path764"
             inkscape:connector-curvature="0" /></g><g
           id="g766"
           transform="translate(411.7598,309.3545)"><path
             d="m 0,0 17.945,-19.598 c 0,0 7.752,-10.113 0.396,-13.882 -5.293,-2.713 -9.741,2.76 -12.569,6.116 -0.499,0.593 -9.885,23.935 -9.885,23.935 z"
             style="fill:#ffb197;fill-opacity:1;fill-rule:nonzero;stroke:none"
             id="path768"
             inkscape:connector-curvature="0" /></g><g
           id="g770"
           transform="translate(347.4326,310.8677)"><path
             d="m 0,0 c 0,0 -5.67,-19.891 -5.994,-26.227 -0.323,-6.336 20.118,-34.201 20.118,-34.201 3.801,-1.695 8.132,0.894 8.439,5.044 l 0.011,0.146 -14.485,24.585 5.134,25.924 z"
             style="fill:#ffb197;fill-opacity:1;fill-rule:nonzero;stroke:none"
             id="path772"
             inkscape:connector-curvature="0" /></g><g
           id="g774"
           transform="translate(403.8379,128.126)"><path
             d="M 0,0 C 0,0 -1.502,3.313 0.388,3.616 2.277,3.92 3.29,2.765 3.29,2.765 l 4.603,-5.154 2.411,-3.748 -3.638,1.652 z"
             style="fill:#35324c;fill-opacity:1;fill-rule:nonzero;stroke:none"
             id="path776"
             inkscape:connector-curvature="0" /></g><g
           id="g778"
           transform="translate(396.5,129.7119)"><path
             d="m 0,0 c 0,0 1.539,-3.679 3.121,-3.014 0.897,0.377 2.468,3.382 3.649,2.952 1.18,-0.431 5.751,-3.78 7.48,-4.652 1.73,-0.872 -3.622,5.893 -3.622,5.893 0,0 4.503,-4.615 6.051,-5.399 1.547,-0.785 14.597,-3.986 14.939,-8.041 l -0.178,-2.62 c 0,0 -4.218,-3.954 -14.293,-0.701 C 7.074,-12.329 1.38,-11.797 -0.437,-11.107 -2.254,-10.417 -1.441,-0.115 0,0"
             style="fill:#524e64;fill-opacity:1;fill-rule:nonzero;stroke:none"
             id="path780"
             inkscape:connector-curvature="0" /></g><g
           id="g782"
           transform="translate(415.6992,115.5195)"><path
             d="m 0,0 c -4.796,0.729 -12.796,4.107 -15.869,4.414 -1.771,0.178 -3.545,0.773 -4.735,1.246 0.132,-1.348 0.437,-2.373 0.968,-2.575 1.817,-0.689 7.511,-1.222 17.584,-4.475 10.074,-3.253 14.293,0.702 14.293,0.702 l 0.178,2.62 C 11.282,-0.163 4.795,-0.729 0,0"
             style="fill:#ffffff;fill-opacity:1;fill-rule:nonzero;stroke:none"
             id="path784"
             inkscape:connector-curvature="0" /></g><g
           id="g786"
           transform="translate(406.5,125.5059)"><path
             d="M 0,0 C -0.082,-0.001 -0.165,0.017 -0.242,0.059 -0.486,0.188 -0.579,0.49 -0.45,0.734 -0.403,0.823 0.719,2.91 2.304,3.243 2.942,3.382 3.581,3.214 4.148,2.765 4.365,2.594 4.402,2.28 4.231,2.063 4.06,1.846 3.746,1.809 3.529,1.98 3.193,2.244 2.859,2.338 2.51,2.266 1.57,2.067 0.692,0.755 0.434,0.266 0.346,0.1 0.176,0.004 0,0"
             style="fill:#eef2f7;fill-opacity:1;fill-rule:nonzero;stroke:none"
             id="path788"
             inkscape:connector-curvature="0" /></g><g
           id="g790"
           transform="translate(408.0586,124.0898)"><path
             d="M 0,0 C -0.081,-0.001 -0.165,0.018 -0.242,0.059 -0.486,0.187 -0.579,0.49 -0.45,0.734 -0.403,0.823 0.719,2.909 2.305,3.243 2.941,3.381 3.581,3.214 4.149,2.765 4.366,2.594 4.403,2.279 4.232,2.063 4.062,1.846 3.747,1.81 3.53,1.98 3.193,2.245 2.861,2.339 2.511,2.265 1.571,2.067 0.692,0.755 0.434,0.266 0.345,0.099 0.176,0.003 0,0"
             style="fill:#eef2f7;fill-opacity:1;fill-rule:nonzero;stroke:none"
             id="path792"
             inkscape:connector-curvature="0" /></g><g
           id="g794"
           transform="translate(409.9707,123.1309)"><path
             d="M 0,0 C -0.082,-0.001 -0.165,0.018 -0.243,0.059 -0.486,0.188 -0.579,0.49 -0.45,0.734 -0.403,0.823 0.719,2.91 2.304,3.243 2.941,3.377 3.581,3.212 4.149,2.764 4.365,2.593 4.402,2.277 4.231,2.062 4.061,1.845 3.746,1.808 3.529,1.979 3.193,2.245 2.861,2.337 2.511,2.266 1.576,2.069 0.694,0.756 0.434,0.266 0.345,0.099 0.176,0.003 0,0"
             style="fill:#eef2f7;fill-opacity:1;fill-rule:nonzero;stroke:none"
             id="path796"
             inkscape:connector-curvature="0" /></g><g
           id="g798"
           transform="translate(411.9707,122.2637)"><path
             d="M 0,0 C -0.081,-0.002 -0.164,0.017 -0.242,0.059 -0.486,0.187 -0.579,0.49 -0.449,0.734 -0.402,0.823 0.719,2.909 2.305,3.243 2.942,3.382 3.581,3.213 4.148,2.765 4.366,2.594 4.403,2.279 4.232,2.063 4.061,1.846 3.746,1.809 3.529,1.98 3.194,2.244 2.861,2.338 2.511,2.265 1.571,2.066 0.692,0.754 0.434,0.266 0.346,0.099 0.177,0.003 0,0"
             style="fill:#eef2f7;fill-opacity:1;fill-rule:nonzero;stroke:none"
             id="path800"
             inkscape:connector-curvature="0" /></g><g
           id="g802"
           transform="translate(364.7256,124.8594)"><path
             d="M 0,0 C 0,0 1.443,3.338 -0.451,3.608 -2.346,3.88 -3.338,2.706 -3.338,2.706 l -4.512,-5.232 -2.345,-3.79 3.609,1.714 z"
             style="fill:#35324c;fill-opacity:1;fill-rule:nonzero;stroke:none"
             id="path804"
             inkscape:connector-curvature="0" /></g><g
           id="g806"
           transform="translate(372.0342,126.5732)"><path
             d="m 0,0 c 0,0 -1.474,-3.705 -3.067,-3.067 -0.903,0.36 -2.527,3.338 -3.7,2.886 -1.172,-0.451 -5.684,-3.879 -7.398,-4.781 -1.715,-0.902 3.519,5.954 3.519,5.954 0,0 -4.421,-4.691 -5.956,-5.503 -1.534,-0.812 -14.526,-4.241 -14.796,-8.301 l 0.223,-2.617 c 0,0 4.288,-3.879 14.303,-0.45 10.015,3.428 15.699,4.06 17.504,4.781 C 2.436,-10.376 1.443,-0.09 0,0"
             style="fill:#524e64;fill-opacity:1;fill-rule:nonzero;stroke:none"
             id="path808"
             inkscape:connector-curvature="0" /></g><g
           id="g810"
           transform="translate(353.0869,112.0469)"><path
             d="M 0,0 C 4.782,0.812 12.722,4.331 15.789,4.692 17.557,4.9 19.32,5.526 20.501,6.021 20.393,4.67 20.105,3.64 19.579,3.429 17.774,2.707 12.09,2.075 2.075,-1.353 -7.939,-4.781 -12.228,-0.901 -12.228,-0.901 l -0.223,2.616 C -11.278,-0.36 -4.782,-0.812 0,0"
             style="fill:#ffffff;fill-opacity:1;fill-rule:nonzero;stroke:none"
             id="path812"
             inkscape:connector-curvature="0" /></g><g
           id="g814"
           transform="translate(362.1094,122.1934)"><path
             d="M 0,0 C -0.176,0 -0.347,0.093 -0.437,0.258 -0.707,0.743 -1.612,2.041 -2.551,2.221 -2.902,2.29 -3.232,2.188 -3.563,1.918 -3.777,1.742 -4.092,1.774 -4.267,1.988 -4.441,2.202 -4.41,2.517 -4.196,2.691 -3.637,3.149 -3,3.33 -2.36,3.202 -0.77,2.896 0.389,0.83 0.437,0.742 0.571,0.5 0.483,0.196 0.242,0.062 0.165,0.021 0.082,0 0,0"
             style="fill:#eef2f7;fill-opacity:1;fill-rule:nonzero;stroke:none"
             id="path816"
             inkscape:connector-curvature="0" /></g><g
           id="g818"
           transform="translate(360.5762,120.75)"><path
             d="M 0,0 C -0.176,0 -0.347,0.093 -0.438,0.258 -0.708,0.743 -1.613,2.041 -2.552,2.221 -2.902,2.29 -3.233,2.188 -3.564,1.918 -3.778,1.743 -4.093,1.774 -4.268,1.988 -4.442,2.202 -4.411,2.517 -4.197,2.691 -3.638,3.149 -3.003,3.33 -2.361,3.202 -0.771,2.896 0.389,0.83 0.437,0.742 0.57,0.5 0.482,0.196 0.241,0.062 0.165,0.021 0.082,0 0,0"
             style="fill:#eef2f7;fill-opacity:1;fill-rule:nonzero;stroke:none"
             id="path820"
             inkscape:connector-curvature="0" /></g><g
           id="g822"
           transform="translate(358.6807,119.7578)"><path
             d="M 0,0 C -0.176,0 -0.347,0.093 -0.437,0.258 -0.707,0.743 -1.612,2.041 -2.551,2.221 -2.901,2.289 -3.232,2.188 -3.563,1.918 -3.777,1.743 -4.093,1.774 -4.267,1.988 -4.441,2.202 -4.41,2.517 -4.196,2.691 -3.637,3.149 -3,3.328 -2.36,3.202 -0.77,2.896 0.389,0.83 0.437,0.742 0.571,0.5 0.483,0.196 0.242,0.062 0.165,0.021 0.082,0 0,0"
             style="fill:#eef2f7;fill-opacity:1;fill-rule:nonzero;stroke:none"
             id="path824"
             inkscape:connector-curvature="0" /></g><g
           id="g826"
           transform="translate(356.6963,118.8555)"><path
             d="M 0,0 C -0.176,0 -0.347,0.093 -0.438,0.258 -0.708,0.743 -1.612,2.041 -2.551,2.221 -2.903,2.29 -3.233,2.188 -3.563,1.918 -3.778,1.743 -4.093,1.775 -4.268,1.988 -4.442,2.202 -4.41,2.517 -4.196,2.691 -3.637,3.149 -3.001,3.329 -2.36,3.202 -0.77,2.896 0.389,0.83 0.437,0.742 0.57,0.5 0.482,0.196 0.241,0.062 0.165,0.021 0.082,0 0,0"
             style="fill:#eef2f7;fill-opacity:1;fill-rule:nonzero;stroke:none"
             id="path828"
             inkscape:connector-curvature="0" /></g><g
           id="g830"
           transform="translate(384.4404,347.2827)"><path
             d="m 0,0 c -0.672,0 -1.385,0.071 -2.134,0.237 l 0.162,0.733 c 4.804,-1.066 8.087,2.199 8.12,2.232 L 6.685,2.677 C 6.561,2.551 4.014,0 0,0"
             style="fill:#f3785b;fill-opacity:1;fill-rule:nonzero;stroke:none"
             id="path832"
             inkscape:connector-curvature="0" /></g><g
           id="g834"
           transform="translate(377.7441,360.4575)"><path
             d="m 0,0 c -2.505,0 -4.542,-2.037 -4.542,-4.542 0,-2.504 2.037,-4.541 4.542,-4.541 2.505,0 4.542,2.037 4.542,4.541 C 4.542,-2.037 2.505,0 0,0 m 0,-10.083 c -3.056,0 -5.542,2.486 -5.542,5.541 C -5.542,-1.486 -3.056,1 0,1 3.056,1 5.542,-1.486 5.542,-4.542 5.542,-7.597 3.056,-10.083 0,-10.083"
             style="fill:#35324c;fill-opacity:1;fill-rule:nonzero;stroke:none"
             id="path836"
             inkscape:connector-curvature="0" /></g><g
           id="g838"
           transform="translate(390.6963,360.4575)"><path
             d="m 0,0 c -2.505,0 -4.542,-2.037 -4.542,-4.542 0,-2.504 2.037,-4.541 4.542,-4.541 2.505,0 4.542,2.037 4.542,4.541 C 4.542,-2.037 2.505,0 0,0 m 0,-10.083 c -3.056,0 -5.542,2.486 -5.542,5.541 C -5.542,-1.486 -3.056,1 0,1 3.056,1 5.542,-1.486 5.542,-4.542 5.542,-7.597 3.056,-10.083 0,-10.083"
             style="fill:#35324c;fill-opacity:1;fill-rule:nonzero;stroke:none"
             id="path840"
             inkscape:connector-curvature="0" /></g><g
           id="g842"
           transform="translate(372.4814,356.2173)"><path
             d="M 0,0 -5.563,4.346 -4.948,5.134 0.615,0.788 Z"
             style="fill:#35324c;fill-opacity:1;fill-rule:nonzero;stroke:none"
             id="path844"
             inkscape:connector-curvature="0" /></g><g
           id="g846"
           transform="translate(395.8711,356.3911)"><path
             d="M 0,0 5.563,4.346 4.948,5.134 -0.615,0.788 Z"
             style="fill:#35324c;fill-opacity:1;fill-rule:nonzero;stroke:none"
             id="path848"
             inkscape:connector-curvature="0" /></g><g
           id="g850"
           transform="translate(388.7266,379.2207)"><path
             d="m 0,0 c -2.6,0.633 -5.229,1.181 -7.897,1.373 -1.369,0.098 -2.91,0.038 -3.867,-0.944 -0.958,-0.983 -0.538,-3.118 0.833,-3.128 -4.228,0.26 -8.783,0.441 -12.345,-1.852 -0.406,-0.261 -0.808,-0.569 -1.017,-1.004 -0.426,-0.884 0.128,-1.99 0.96,-2.512 0.832,-0.522 1.854,-0.608 2.834,-0.681 -2.379,-0.933 -5.189,-2.492 -5.068,-5.044 0.094,-1.985 2.492,-3.472 4.312,-2.674 -0.607,-0.604 -1.237,-1.245 -1.481,-2.067 -0.243,-0.821 0.053,-1.871 0.855,-2.172 0.669,-0.251 1.403,0.083 2.029,0.426 3.463,1.896 6.641,4.309 9.398,7.134 -0.758,-0.841 -1.255,-1.916 -1.405,-3.039 -0.048,-0.353 -0.056,-0.736 0.133,-1.038 0.48,-0.763 1.659,-0.405 2.421,0.076 2.925,1.839 5.469,4.278 7.431,7.122 0.047,-1.047 0.094,-2.093 0.14,-3.14 0.013,-0.303 0.049,-0.65 0.297,-0.826 0.219,-0.156 0.518,-0.112 0.781,-0.052 3.65,0.842 6.721,3.905 7.674,7.523 C 8.131,-2.289 3.551,-0.866 0,0"
             style="fill:#be5c00;fill-opacity:1;fill-rule:nonzero;stroke:none"
             id="path852"
             inkscape:connector-curvature="0" /></g><g
           id="g854"
           transform="translate(399.0264,371.7852)"><path
             d="M 0,0 C 0.362,-0.668 0.405,-1.473 0.762,-2.145 1.32,-3.194 2.51,-3.706 3.463,-4.417 4.415,-5.129 5.206,-6.458 4.564,-7.459 3.972,-8.384 2.63,-8.339 1.542,-8.187 c 0.695,-1.161 1.414,-2.418 1.322,-3.769 -0.092,-1.351 -1.406,-2.69 -2.691,-2.267 -1.581,1.89 -2.448,4.363 -2.396,6.827 -0.118,-0.96 -1.22,-1.57 -2.175,-1.42 -0.956,0.15 -1.733,0.865 -2.272,1.667 C -10.253,-1.822 -3.138,5.771 0,0"
             style="fill:#be5c00;fill-opacity:1;fill-rule:nonzero;stroke:none"
             id="path856"
             inkscape:connector-curvature="0" /></g><g
           id="g858"
           transform="translate(386.1104,354.9741)"><path
             d="M 0,0 H -1 C -1,0.515 -1.419,0.934 -1.934,0.934 -2.449,0.934 -2.868,0.515 -2.868,0 h -1 c 0,1.066 0.868,1.934 1.934,1.934 C -0.867,1.934 0,1.066 0,0"
             style="fill:#35324c;fill-opacity:1;fill-rule:nonzero;stroke:none"
             id="path860"
             inkscape:connector-curvature="0" /></g></g></g></g></svg>