<?xml version="1.0" encoding="UTF-8" standalone="no"?>
<!-- Created with Inkscape (http://www.inkscape.org/) -->

<svg
   xmlns:dc="http://purl.org/dc/elements/1.1/"
   xmlns:cc="http://creativecommons.org/ns#"
   xmlns:rdf="http://www.w3.org/1999/02/22-rdf-syntax-ns#"
   xmlns:svg="http://www.w3.org/2000/svg"
   xmlns="http://www.w3.org/2000/svg"
   xmlns:sodipodi="http://sodipodi.sourceforge.net/DTD/sodipodi-0.dtd"
   xmlns:inkscape="http://www.inkscape.org/namespaces/inkscape"
   version="1.1"
   id="svg2"
   xml:space="preserve"
   width="666"
   height="666"
   viewBox="0 0 666 666"
   sodipodi:docname="others.svg"
   inkscape:version="0.92.3 (2405546, 2018-03-11)"><metadata
     id="metadata8"><rdf:RDF><cc:Work
         rdf:about=""><dc:format>image/svg+xml</dc:format><dc:type
           rdf:resource="http://purl.org/dc/dcmitype/StillImage" /><dc:title></dc:title></cc:Work></rdf:RDF></metadata><defs
     id="defs6"><clipPath
       clipPathUnits="userSpaceOnUse"
       id="clipPath20"><path
         d="M 0,500 H 500 V 0 H 0 Z"
         id="path18"
         inkscape:connector-curvature="0" /></clipPath><clipPath
       clipPathUnits="userSpaceOnUse"
       id="clipPath28"><path
         d="m 23.5,124.956 h 453 V 91 h -453 z"
         id="path26"
         inkscape:connector-curvature="0" /></clipPath><clipPath
       clipPathUnits="userSpaceOnUse"
       id="clipPath64"><path
         d="m 119.459,348.486 h 2.442 v -7.31 h -2.442 z"
         id="path62"
         inkscape:connector-curvature="0" /></clipPath><clipPath
       clipPathUnits="userSpaceOnUse"
       id="clipPath104"><path
         d="m 136.909,347.851 h 4.082 v -4.736 h -4.082 z"
         id="path102"
         inkscape:connector-curvature="0" /></clipPath><clipPath
       clipPathUnits="userSpaceOnUse"
       id="clipPath132"><path
         d="m 121.513,343.562 h 7.478 v -3.987 h -7.478 z"
         id="path130"
         inkscape:connector-curvature="0" /></clipPath><clipPath
       clipPathUnits="userSpaceOnUse"
       id="clipPath224"><path
         d="m 359.626,333.668 h 4.208 v -4.466 h -4.208 z"
         id="path222"
         inkscape:connector-curvature="0" /></clipPath><clipPath
       clipPathUnits="userSpaceOnUse"
       id="clipPath252"><path
         d="m 343.038,337.191 h 2.724 v -7.16 h -2.724 z"
         id="path250"
         inkscape:connector-curvature="0" /></clipPath><clipPath
       clipPathUnits="userSpaceOnUse"
       id="clipPath328"><path
         d="m 330.651,225.809 h 6.739 v -18.298 h -6.739 z"
         id="path326"
         inkscape:connector-curvature="0" /></clipPath><clipPath
       clipPathUnits="userSpaceOnUse"
       id="clipPath412"><path
         d="m 227.912,216.109 h 4.767 v -6.126 h -4.767 z"
         id="path410"
         inkscape:connector-curvature="0" /></clipPath><clipPath
       clipPathUnits="userSpaceOnUse"
       id="clipPath428"><path
         d="m 219.148,310.745 h 1.5 v -6.863 h -1.5 z"
         id="path426"
         inkscape:connector-curvature="0" /></clipPath><clipPath
       clipPathUnits="userSpaceOnUse"
       id="clipPath528"><path
         d="m 223.798,305.083 c -0.803,-1.106 -0.827,-1.237 -2.854,-2.114 v 0 c -1.092,-0.473 -0.997,-1.95 -0.228,-2.643 v 0 c 0.769,-0.694 2.118,-0.987 3.824,-0.442 v 0 c 1.36,0.436 2.84,1.975 3.006,3.67 v 0 c 0.167,1.696 -1.102,2.514 -1.78,2.581 v 0 c -0.129,0.013 -0.251,0.023 -0.37,0.023 v 0 c -0.505,0 -0.948,-0.18 -1.598,-1.075"
         id="path526"
         inkscape:connector-curvature="0" /></clipPath><clipPath
       clipPathUnits="userSpaceOnUse"
       id="clipPath540"><path
         d="M 0,500 H 500 V 0 H 0 Z"
         id="path538"
         inkscape:connector-curvature="0" /></clipPath><clipPath
       clipPathUnits="userSpaceOnUse"
       id="clipPath548"><path
         d="m 233.201,310.873 h 4.348 v -4.398 h -4.348 z"
         id="path546"
         inkscape:connector-curvature="0" /></clipPath><clipPath
       clipPathUnits="userSpaceOnUse"
       id="clipPath604"><path
         d="m 417.532,308.329 h 1.641 v -7.389 h -1.641 z"
         id="path602"
         inkscape:connector-curvature="0" /></clipPath><clipPath
       clipPathUnits="userSpaceOnUse"
       id="clipPath640"><path
         d="m 432.644,308.819 h 4.626 v -4.81 h -4.626 z"
         id="path638"
         inkscape:connector-curvature="0" /></clipPath><clipPath
       clipPathUnits="userSpaceOnUse"
       id="clipPath656"><path
         d="m 419.099,303.446 h 6.399 v -4.437 h -6.399 z"
         id="path654"
         inkscape:connector-curvature="0" /></clipPath><clipPath
       clipPathUnits="userSpaceOnUse"
       id="clipPath672"><path
         d="m 420.277,310.163 h 7.913 v -4.738 h -7.913 z"
         id="path670"
         inkscape:connector-curvature="0" /></clipPath><clipPath
       clipPathUnits="userSpaceOnUse"
       id="clipPath688"><path
         d="m 410.217,308.477 h 7.83 v -4.086 h -7.83 z"
         id="path686"
         inkscape:connector-curvature="0" /></clipPath><clipPath
       clipPathUnits="userSpaceOnUse"
       id="clipPath728"><path
         d="m 411.923,276.97 h 2.964 v -5.267 h -2.964 z"
         id="path726"
         inkscape:connector-curvature="0" /></clipPath><clipPath
       clipPathUnits="userSpaceOnUse"
       id="clipPath760"><path
         d="m 394.081,258.875 h 7.24 v -4.548 h -7.24 z"
         id="path758"
         inkscape:connector-curvature="0" /></clipPath><clipPath
       clipPathUnits="userSpaceOnUse"
       id="clipPath776"><path
         d="m 394.107,256.6 h 6.798 v -4.169 h -6.798 z"
         id="path774"
         inkscape:connector-curvature="0" /></clipPath><clipPath
       clipPathUnits="userSpaceOnUse"
       id="clipPath792"><path
         d="m 394.659,254.181 h 5.708 v -3.235 h -5.708 z"
         id="path790"
         inkscape:connector-curvature="0" /></clipPath><clipPath
       clipPathUnits="userSpaceOnUse"
       id="clipPath820"><path
         d="M 0,500 H 500 V 0 H 0 Z"
         id="path818"
         inkscape:connector-curvature="0" /></clipPath></defs><sodipodi:namedview
     pagecolor="#ffffff"
     bordercolor="#666666"
     borderopacity="1"
     objecttolerance="10"
     gridtolerance="10"
     guidetolerance="10"
     inkscape:pageopacity="0"
     inkscape:pageshadow="2"
     inkscape:window-width="1600"
     inkscape:window-height="847"
     id="namedview4"
     showgrid="false"
     inkscape:pagecheckerboard="true"
     inkscape:zoom="0.68265104"
     inkscape:cx="26.903351"
     inkscape:cy="334.1077"
     inkscape:window-x="-8"
     inkscape:window-y="-8"
     inkscape:window-maximized="1"
     inkscape:current-layer="g10" /><g
     id="g10"
     inkscape:groupmode="layer"
     inkscape:label="457647-PFQPJ5-980"
     transform="matrix(1.3333333,0,0,-1.3333333,0,665.99998)"><g
       id="g14"
       transform="translate(6.4999383,19.434384)"><g
         id="g16"
         clip-path="url(#clipPath20)"><g
           id="g22"><g
             id="g24" /><g
             id="g36"><g
               clip-path="url(#clipPath28)"
               id="g34"
               style="opacity:0.14999402"><g
                 transform="translate(476.5,107.9775)"
                 id="g32"><path
                   d="m 0,0 c 0,-9.376 -101.407,-16.978 -226.5,-16.978 -125.092,0 -226.5,7.602 -226.5,16.978 0,9.377 101.408,16.979 226.5,16.979 C -101.407,16.979 0,9.377 0,0"
                   style="fill:#0d131f;fill-opacity:1;fill-rule:nonzero;stroke:none"
                   id="path30"
                   inkscape:connector-curvature="0" /></g></g></g></g><g
           id="g38"
           transform="translate(112.6064,360.104)"><path
             d="m 0,0 c 0,0 2.808,-1.354 4.992,1.83 3.121,4.547 14.661,5.982 18.099,1.435 0,0 7.946,2.779 3.228,-14.907 l -4.717,-17.685 c 0,0 -14.78,6.98 -18.191,14.415 C 0,-7.476 0,0 0,0"
             style="fill:#0a072e;fill-opacity:1;fill-rule:nonzero;stroke:none"
             id="path40"
             inkscape:connector-curvature="0" /></g><g
           id="g42"
           transform="translate(21.415,316.5649)"><path
             d="m 0,0 c -0.282,-0.033 -1.53,-0.64 -1.53,-0.64 0,0 -0.673,-2.7 -0.46,-5.187 0.214,-2.487 3.838,-2.416 6.112,-2.131 C 6.396,-7.674 9.664,1.137 0,0"
             style="fill:#db8b76;fill-opacity:1;fill-rule:nonzero;stroke:none"
             id="path44"
             inkscape:connector-curvature="0" /></g><g
           id="g46"
           transform="translate(158.8853,257.7578)"><path
             d="m 0,0 c -0.362,-0.244 -1.675,1.069 -2.933,2.934 -1.258,1.864 -2.162,3.969 -1.8,4.214 0.361,0.244 1.852,-1.466 3.11,-3.33 C -0.365,1.954 0.362,0.244 0,0"
             style="fill:#0a072e;fill-opacity:1;fill-rule:nonzero;stroke:none"
             id="path48"
             inkscape:connector-curvature="0" /></g><g
           id="g50"
           transform="translate(157.4458,259.4116)"><path
             d="m 0,0 c -0.237,-0.16 -1.098,0.701 -1.922,1.922 -0.824,1.222 -1.416,2.601 -1.179,2.761 0.237,0.16 1.214,-0.96 2.038,-2.182 C -0.239,1.28 0.237,0.16 0,0"
             style="fill:#cc1b39;fill-opacity:1;fill-rule:nonzero;stroke:none"
             id="path52"
             inkscape:connector-curvature="0" /></g><g
           id="g54"
           transform="translate(119.1089,322.1318)"><path
             d="m 0,0 c 0,0 2.792,1.705 2.593,7.887 0,0 -7.342,0.703 -7.579,4.737 -0.34,5.775 0.411,12.909 0.511,18.393 0,0 -0.429,3.091 3.724,5.185 4.153,2.094 14.624,2.892 16.119,-0.798 1.496,-3.689 1.397,-10.27 1.397,-10.27 0,0 1.545,3.241 5.235,2.443 3.689,-0.798 1.844,-12.714 -4.837,-8.427 0,0 -2.305,-16.458 1.185,-18.552 0,0 2.014,-7.418 -8.807,-7.418 C -1.281,-6.82 0,0 0,0"
             style="fill:#fab09d;fill-opacity:1;fill-rule:nonzero;stroke:none"
             id="path56"
             inkscape:connector-curvature="0" /></g><g
           id="g58"><g
             id="g60" /><g
             id="g72"><g
               clip-path="url(#clipPath64)"
               id="g70"><g
                 transform="translate(121.6748,348.4619)"
                 id="g68"><path
                   d="M 0,0 C 0,0 -0.22,-2.066 -1.508,-3.971 -2.423,-5.326 -2.087,-6.262 0,-7.074"
                   style="fill:none;stroke:#21061c;stroke-width:0.45500001;stroke-linecap:butt;stroke-linejoin:miter;stroke-miterlimit:10;stroke-dasharray:none;stroke-opacity:1"
                   id="path66"
                   inkscape:connector-curvature="0" /></g></g></g></g><g
           id="g74"
           transform="translate(125.5181,349.1431)"><path
             d="m 0,0 c -0.333,-0.161 -0.371,-0.663 -0.375,-1.013 -0.006,-0.389 -0.003,-0.884 0.111,-1.25 0.157,-0.501 0.834,-0.549 0.972,0 C 0.83,-1.783 0.9,0.435 0,0"
             style="fill:#611b36;fill-opacity:1;fill-rule:nonzero;stroke:none"
             id="path76"
             inkscape:connector-curvature="0" /></g><g
           id="g78"
           transform="translate(119.3345,349.1807)"><path
             d="m 0,0 c -0.385,-0.151 -0.447,-0.566 -0.485,-0.968 -0.039,-0.411 -0.06,-0.933 0.04,-1.332 0.138,-0.549 0.816,-0.502 0.972,0 0.13,0.415 0.136,1.021 0.095,1.456 C 0.593,-0.534 0.441,0.174 0,0"
             style="fill:#611b36;fill-opacity:1;fill-rule:nonzero;stroke:none"
             id="path80"
             inkscape:connector-curvature="0" /></g><g
           id="g82"
           transform="translate(157.7266,266.6973)"><path
             d="m 0,0 c 0,0 -2.343,-1.521 -5.975,-3.829 -3.631,-2.309 -2.436,-9.147 -2.191,-12.54 0.246,-3.393 1.177,-11.084 1.562,-13.195 0.386,-2.112 1.909,-2.262 1.785,2.01 -0.124,4.274 -0.245,5.406 -0.245,5.406 0,0 2.384,-6.149 3.047,-7.467 0.664,-1.32 2.169,-0.101 0.334,5.459 l -1.836,5.559 c 0,0 5.055,-3.857 6.942,-4.83 1.887,-0.973 1.119,1.559 -0.57,3.327 -1.69,1.77 -4.326,3.962 -4.326,3.962 0,0 0.796,6.749 0.09,8.875 l 3.96,2.071 z"
             style="fill:#fab09d;fill-opacity:1;fill-rule:nonzero;stroke:none"
             id="path84"
             inkscape:connector-curvature="0" /></g><g
           id="g86"
           transform="translate(157.8008,123.5391)"><path
             d="m 0,0 c 0,0 -0.326,-5.015 0,-7.669 0.326,-2.654 14.559,-7.056 21.932,-8.678 0,0 -13.053,7.581 -14.675,10.678 C 5.635,-2.571 5.487,0 5.487,0 Z"
             style="fill:#611b36;fill-opacity:1;fill-rule:nonzero;stroke:none"
             id="path88"
             inkscape:connector-curvature="0" /></g><g
           id="g90"
           transform="translate(114.6045,123.5391)"><path
             d="m 0,0 c 0,0 0.326,-5.015 0,-7.669 -0.326,-2.654 -14.559,-6.088 -21.933,-7.71 0,0 13.054,6.613 14.676,9.71 1.622,3.098 1.77,5.669 1.77,5.669 z"
             style="fill:#611b36;fill-opacity:1;fill-rule:nonzero;stroke:none"
             id="path92"
             inkscape:connector-curvature="0" /></g><g
           id="g94"
           transform="translate(105.7017,256.5986)"><path
             d="m 0,0 h 43.026 c 0,0 8.957,-59.98 18.075,-137.066 0,0 -6.489,-1.61 -10.618,0 0,0 -11.29,47.81 -25.991,120.678 h -6.183 c -2.416,-47.355 -7.414,-120.678 -7.414,-120.678 -4.129,-1.61 -10.618,0 -10.618,0 C -2.672,-112.121 0,0 0,0"
             style="fill:#0a072e;fill-opacity:1;fill-rule:nonzero;stroke:none"
             id="path96"
             inkscape:connector-curvature="0" /></g><g
           id="g98"><g
             id="g100" /><g
             id="g112"><g
               clip-path="url(#clipPath104)"
               id="g110"><g
                 transform="translate(138.2852,345.9277)"
                 id="g108"><path
                   d="m 0,0 c 0.989,1.544 2.333,1.475 2.413,1.469 l 0.038,0.453 c -0.027,0 -3.167,0.217 -3.827,-4.673 l 0.451,-0.062 c 0.13,0.964 0.359,1.701 0.633,2.28 1.654,0.458 2.662,-0.341 2.706,-0.377 l 0.292,0.348 C 2.659,-0.522 1.649,0.293 0,0"
                   style="fill:#21061c;fill-opacity:1;fill-rule:nonzero;stroke:none"
                   id="path106"
                   inkscape:connector-curvature="0" /></g></g></g></g><g
           id="g114"
           transform="translate(136.7661,323.6611)"><path
             d="m 0,0 c 0,0 -7.192,-6.381 -16.937,-0.759 0,0 -6.515,-0.962 -9.888,-0.399 -3.373,0.562 -1.883,-64.239 -1.883,-64.239 0,0 15.307,-7.496 39.335,0 0,0 9.933,48.826 -10.627,65.397"
             style="fill:#fa375a;fill-opacity:1;fill-rule:nonzero;stroke:none"
             id="path116"
             inkscape:connector-curvature="0" /></g><g
           id="g118"
           transform="translate(116.708,322.9771)"><path
             d="m 0,0 c 1.855,0.241 3.32,0.684 3.32,0.684 9.162,-5.286 16.738,0 16.738,0 0.927,-0.818 1.906,-1.399 2.993,-1.855 C 21.808,-2.286 18.218,-4.778 10.896,-4.778 4.521,-4.778 1.373,-1.878 0,0"
             style="fill:#ff5775;fill-opacity:1;fill-rule:nonzero;stroke:none"
             id="path120"
             inkscape:connector-curvature="0" /></g><g
           id="g122"
           transform="translate(164.0908,312.8657)"><path
             d="m 0,0 2.304,-2.016 -8.257,-15.267 -2.305,1.344 c 0,0 4.801,10.658 8.258,15.939"
             style="fill:#c8d6e0;fill-opacity:1;fill-rule:nonzero;stroke:none"
             id="path124"
             inkscape:connector-curvature="0" /></g><g
           id="g126"><g
             id="g128" /><g
             id="g140"><g
               clip-path="url(#clipPath132)"
               id="g138"><g
                 transform="translate(121.5171,339.8027)"
                 id="g136"><path
                   d="M 0,0 C 0,0 5.462,-0.092 7.269,3.66"
                   style="fill:none;stroke:#21061c;stroke-width:0.45500001;stroke-linecap:butt;stroke-linejoin:miter;stroke-miterlimit:10;stroke-dasharray:none;stroke-opacity:1"
                   id="path134"
                   inkscape:connector-curvature="0" /></g></g></g></g><g
           id="g142"
           transform="translate(117.7944,351.2158)"><path
             d="M 0,0 C 0.379,0.388 1.022,0.446 1.521,0.277 2.045,0.1 2.271,-0.355 2.701,-0.644 2.857,-0.749 3.107,-0.679 3.193,-0.515 3.682,0.414 2.556,1.247 1.771,1.428 0.832,1.644 -0.126,1.317 -0.565,0.436 -0.741,0.083 -0.299,-0.306 0,0"
             style="fill:#0a072e;fill-opacity:1;fill-rule:nonzero;stroke:none"
             id="path144"
             inkscape:connector-curvature="0" /></g><g
           id="g146"
           transform="translate(128.7422,352.1899)"><path
             d="m 0,0 c -0.428,0.872 -1.366,1.271 -2.321,1.151 -0.905,-0.113 -2.063,-0.765 -2.152,-1.77 -0.034,-0.383 0.098,-0.828 0.544,-0.858 0.415,-0.028 0.677,0.435 0.922,0.698 0.613,0.657 1.744,0.779 2.48,0.252 C -0.187,-0.771 0.153,-0.312 0,0"
             style="fill:#0a072e;fill-opacity:1;fill-rule:nonzero;stroke:none"
             id="path148"
             inkscape:connector-curvature="0" /></g><g
           id="g150"
           transform="translate(155.2178,264.8701)"><path
             d="m 0,0 -0.568,-0.107 -0.995,-0.639 c 0,0 2.025,-1.208 3.801,-4.726 l 1.102,0.676 c 0,0 -0.746,3.233 -3.34,4.796"
             style="fill:#fa375a;fill-opacity:1;fill-rule:nonzero;stroke:none"
             id="path152"
             inkscape:connector-curvature="0" /></g><g
           id="g154"
           transform="translate(34.3364,308.4761)"><path
             d="M 0,0 C -0.504,0.047 -0.715,2.19 -0.471,4.787 -0.228,7.383 0.511,9.936 1.015,9.888 1.519,9.841 1.598,7.212 1.354,4.616 1.11,2.019 0.504,-0.047 0,0"
             style="fill:#000000;fill-opacity:1;fill-rule:nonzero;stroke:none"
             id="path156"
             inkscape:connector-curvature="0" /></g><g
           id="g158"
           transform="translate(33.2886,310.4092)"><path
             d="M 0,0 C -0.355,0.033 -0.503,1.543 -0.332,3.373 -0.16,5.202 0.36,7 0.715,6.967 1.07,6.933 1.125,5.081 0.954,3.251 0.782,1.422 0.355,-0.034 0,0"
             style="fill:#cc1b39;fill-opacity:1;fill-rule:nonzero;stroke:none"
             id="path160"
             inkscape:connector-curvature="0" /></g><g
           id="g162"
           transform="translate(32.0083,312.4624)"><path
             d="m 0,0 3.465,-1.18 1.082,4.974 c 0,0 -7.335,1.621 -10.797,1.782 v 0 c -3.708,0.485 -10.229,1.25 -14.499,1.25 -3.132,0 -0.503,-3.221 8.806,-3.789"
             style="fill:#fab09d;fill-opacity:1;fill-rule:nonzero;stroke:none"
             id="path164"
             inkscape:connector-curvature="0" /></g><g
           id="g166"
           transform="translate(36.6216,316.8491)"><path
             d="m 0,0 -1.255,0.227 -1.338,0.3 c 0,0 1.029,-2.517 -0.804,-6.986 l 2.887,-0.978 c 0,0 1.332,4.023 0.51,7.437"
             style="fill:#fa375a;fill-opacity:1;fill-rule:nonzero;stroke:none"
             id="path168"
             inkscape:connector-curvature="0" /></g><g
           id="g170"
           transform="translate(139.2319,321.873)"><path
             d="m 0,0 c 0,0 -2.402,-61.871 -1.486,-80.346 0,0 9.636,0.641 13.234,6.574 l 4.853,48.826 c 0,0 19.273,-12.821 -1.681,-32.021 0,0 3.473,-1.911 4.733,-7.148 0,0 20.138,9.91 20.138,29.815 0,19.905 -18.24,28.837 -23.19,30.478 C 11.651,-2.182 6.016,-3.614 0,0"
             style="fill:#15104a;fill-opacity:1;fill-rule:nonzero;stroke:none"
             id="path172"
             inkscape:connector-curvature="0" /></g><g
           id="g174"
           transform="translate(137.7456,249.5884)"><path
             d="m 0,0 c 0,0 -2.213,52.633 1.486,72.376 0,0 5.297,-1.844 8.496,-2.777 C 13.903,68.455 18.489,61.592 8.874,48.75 -0.212,36.614 9.499,42.079 8.236,30.008 6.84,16.662 2.914,18.456 0,0"
             style="fill:#241e69;fill-opacity:1;fill-rule:nonzero;stroke:none"
             id="path176"
             inkscape:connector-curvature="0" /></g><g
           id="g178"
           transform="translate(115.5352,323.2583)"><path
             d="m 0,0 c 0,0 -8.803,1.076 -13.919,-0.251 -5.116,-1.326 -34.431,-10.138 -66.265,-4.643 0,0 0.69,-3.825 -1.015,-9.888 0,0 11.949,-5.554 25.593,-7.26 13.643,-1.706 29.749,-2.463 39.792,-1.516 l 4.548,-51.909 c 0,0 5.073,-5.506 14.609,-6.264 0,0 -0.035,54.885 -3.343,81.731"
             style="fill:#15104a;fill-opacity:1;fill-rule:nonzero;stroke:none"
             id="path180"
             inkscape:connector-curvature="0" /></g><g
           id="g182"
           transform="translate(20.0649,315.499)"><path
             d="m 0,0 v 0 c 0,0 -0.261,-0.821 -0.155,-3.166 0.107,-2.345 1.069,-4.252 4.277,-3.858 3.207,0.395 6.11,2.476 2.842,2.405 -3.269,-0.071 -3.751,0 -3.751,0 0,0 -0.087,3.195 0.624,3.303 0.711,0.108 1.208,-2.45 3.127,-2.876 1.918,-0.427 3.913,-0.209 4.761,1.762 0,0 2.345,1.08 -2.274,2.43 C 4.832,1.35 0.583,3.407 0,0"
             style="fill:#fa9e87;fill-opacity:1;fill-rule:nonzero;stroke:none"
             id="path184"
             inkscape:connector-curvature="0" /></g><g
           id="g186"
           transform="translate(20.0649,315.499)"><path
             d="m 0,0 c 0,0 4.029,-0.918 4.658,-2.105 2.235,-4.219 -3.45,-2.986 -3.866,-3.982 0,0 -0.514,-0.874 1.724,-1.279 2.884,-0.522 9.067,1.279 9.916,5.759 C 13.067,1.745 0,5.045 0,0"
             style="fill:#fab09d;fill-opacity:1;fill-rule:nonzero;stroke:none"
             id="path188"
             inkscape:connector-curvature="0" /></g><g
           id="g190"
           transform="translate(118.8784,249.5884)"><path
             d="m 0,0 c 0,0 2.575,54.055 -1.125,73.798 0,0 -6.615,1.394 -11.068,-2.1 -2.521,-1.978 -8.379,-10.106 1.236,-22.948 9.087,-12.136 -0.624,-6.671 0.639,-18.742 C -8.922,16.662 -2.914,18.456 0,0"
             style="fill:#241e69;fill-opacity:1;fill-rule:nonzero;stroke:none"
             id="path192"
             inkscape:connector-curvature="0" /></g><g
           id="g194"
           transform="translate(135.8032,347.3281)"><path
             d="m 0,0 c 0,0 -1.545,-3.84 -2.339,1.253 -0.793,5.093 -1.587,10.252 -1.587,10.252 0,0 -4.44,1.786 -7.776,-0.794 -3.336,-2.579 -9.151,-3.401 -12.067,-1.19 -2.093,1.587 -2.599,3.968 -2.093,5.952 0.506,1.985 1.888,-1.434 3.578,-1.19 1.69,0.243 2.975,4.774 7.251,6.753 5.5,2.545 13.724,1.307 14.848,-4.174 C 0.528,13.391 2.934,6.155 0,0"
             style="fill:#0a072e;fill-opacity:1;fill-rule:nonzero;stroke:none"
             id="path196"
             inkscape:connector-curvature="0" /></g><g
           id="g198"
           transform="translate(335.0361,272.2607)"><path
             d="m 0,0 c -7.329,-8.262 -16.791,-13.408 -31.572,-7.688 l -5.14,2.347 1.261,5.318 c 0,0 13.089,-6.214 23.142,3.981 1.006,1.02 2.643,4.31 3.535,5.627"
             style="fill:#e09e8d;fill-opacity:1;fill-rule:nonzero;stroke:none"
             id="path200"
             inkscape:connector-curvature="0" /></g><g
           id="g202"
           transform="translate(325.1826,278.7803)"><path
             d="M 0,0 C 7.424,9.072 8.141,25.822 15.952,28.064 26.392,31.06 25.936,12.524 18.383,0.652 15.701,-3.563 12.203,-7.439 7.877,-10.336"
             style="fill:#c6c3e3;fill-opacity:1;fill-rule:nonzero;stroke:none"
             id="path204"
             inkscape:connector-curvature="0" /></g><g
           id="g206"
           transform="translate(326.5596,283.9058)"><path
             d="m 0,0 c 0,0 -1.62,-3.083 -3.573,-4.103 -1.952,-1.02 7.494,-11.493 9.447,-10.473 1.952,1.02 8.964,5.676 5.908,7.124 C 8.727,-6.003 3.848,-3.084 2.656,-1.16 1.464,0.765 1.237,1.081 0,0"
             style="fill:#ddd9f7;fill-opacity:1;fill-rule:nonzero;stroke:none"
             id="path208"
             inkscape:connector-curvature="0" /></g><g
           id="g210"
           transform="translate(339.0273,331.6699)"><path
             d="m 0,0 c 0,0 0.544,5.543 -3.012,8.033 -3.554,2.489 -5.514,7.379 -0.459,9.905 5.055,2.527 4.917,8.794 11.679,5.674 6.762,-3.121 7.849,-2.144 12.896,-1.958 5.048,0.186 5.661,-3.723 5.397,-6.728 -0.263,-3.005 0.135,-6.173 3.14,-8.964 3.005,-2.791 1.09,-8.397 -2.463,-9.254 -3.131,-0.756 -1.753,-8.406 -9.294,-9.527 C 10.344,-13.94 0,0 0,0"
             style="fill:#0a072e;fill-opacity:1;fill-rule:nonzero;stroke:none"
             id="path212"
             inkscape:connector-curvature="0" /></g><g
           id="g214"
           transform="translate(343.4355,306.0903)"><path
             d="m 0,0 c 0,0 0.928,5.276 0.278,12.741 0,0 -4.986,0.658 -6.464,5.191 -1.315,4.033 1.054,9.493 1.098,17.97 l 0.016,0.232 c 0.039,0.369 0.435,1.772 4.066,3.292 4.236,1.774 14.604,1.831 15.82,-1.906 1.217,-3.738 0.662,-10.213 0.662,-10.213 0,0 1.748,3.084 5.326,2.042 3.578,-1.042 0.932,-12.65 -5.35,-7.963 0,0 -3.836,-17.22 -0.544,-19.525 0,0 1.889,-6.275 -8.768,-5.523 C -4.519,-2.909 0,0 0,0"
             style="fill:#fab09d;fill-opacity:1;fill-rule:nonzero;stroke:none"
             id="path216"
             inkscape:connector-curvature="0" /></g><g
           id="g218"><g
             id="g220" /><g
             id="g232"><g
               clip-path="url(#clipPath224)"
               id="g230"><g
                 transform="translate(361.2393,331.9399)"
                 id="g228"><path
                   d="M 0,0 C 1.069,1.398 2.354,1.242 2.431,1.23 L 2.506,1.714 C 2.474,1.723 -0.617,2.153 -1.612,-2.639 l 0.479,-0.099 c 0.195,0.933 0.468,1.638 0.777,2.187 1.641,0.33 2.571,-0.517 2.61,-0.555 l 0.341,0.351 C 2.551,-0.712 1.63,0.154 0,0"
                   style="fill:#21061c;fill-opacity:1;fill-rule:nonzero;stroke:none"
                   id="path226"
                   inkscape:connector-curvature="0" /></g></g></g></g><g
           id="g234"
           transform="translate(347.291,329.8013)"><path
             d="M 0,0 C 1.186,0.835 1.678,0.682 2.335,0.382 2.992,0.083 3.985,-1.173 3.237,-2.817 2.489,-4.461 0.478,-5.5 -1.035,-5.47 c -1.9,0.037 -3.153,0.794 -3.687,1.753 -0.534,0.959 -0.124,2.474 1.133,2.574 C -1.254,-0.958 -1.185,-0.835 0,0"
             style="fill:#f8f8f8;fill-opacity:1;fill-rule:nonzero;stroke:none"
             id="path236"
             inkscape:connector-curvature="0" /></g><g
           id="g238"
           transform="translate(349.0352,336.7578)"><path
             d="M 0,0 C -0.345,-0.131 -0.455,-0.67 -0.512,-1.049 -0.575,-1.47 -0.646,-2.007 -0.59,-2.418 -0.513,-2.983 0.132,-3.124 0.347,-2.546 0.534,-2.042 0.932,0.353 0,0"
             style="fill:#611b36;fill-opacity:1;fill-rule:nonzero;stroke:none"
             id="path240"
             inkscape:connector-curvature="0" /></g><g
           id="g242"
           transform="translate(343.1973,337.4111)"><path
             d="m 0,0 c -0.393,-0.113 -0.515,-0.555 -0.61,-0.986 -0.099,-0.441 -0.198,-1.004 -0.16,-1.45 0.053,-0.612 0.712,-0.651 0.937,-0.127 0.187,0.433 0.282,1.089 0.308,1.566 C 0.492,-0.657 0.45,0.13 0,0"
             style="fill:#611b36;fill-opacity:1;fill-rule:nonzero;stroke:none"
             id="path244"
             inkscape:connector-curvature="0" /></g><g
           id="g246"><g
             id="g248" /><g
             id="g260"><g
               clip-path="url(#clipPath252)"
               id="g258"><g
                 transform="translate(345.5176,337.1855)"
                 id="g256"><path
                   d="m 0,0 c 0,0 -0.023,-1.03 -0.14,-1.647 -0.181,-0.973 -1.059,-2.028 -1.446,-2.541 -0.388,-0.514 -0.904,-1.048 -0.502,-1.855 0.275,-0.552 0.617,-0.953 0.617,-0.953"
                   style="fill:none;stroke:#21061c;stroke-width:0.49000001;stroke-linecap:butt;stroke-linejoin:miter;stroke-miterlimit:10;stroke-dasharray:none;stroke-opacity:1"
                   id="path254"
                   inkscape:connector-curvature="0" /></g></g></g></g><g
           id="g262"
           transform="translate(351.957,337.9146)"><path
             d="M 0,0 C 0.36,0.669 -0.2,1.545 -0.76,1.907 -1.148,2.159 -1.652,2.27 -2.128,2.198 -2.785,2.1 -3.242,1.745 -3.574,1.213 -3.816,0.825 -3.318,0.493 -2.96,0.606 -2.435,0.771 -1.86,1.141 -1.335,0.848 -0.949,0.634 -0.76,0.247 -0.48,-0.064 -0.343,-0.217 -0.101,-0.188 0,0"
             style="fill:#0a072e;fill-opacity:1;fill-rule:nonzero;stroke:none"
             id="path264"
             inkscape:connector-curvature="0" /></g><g
           id="g266"
           transform="translate(341.2422,338.7729)"><path
             d="M 0,0 C 0.371,0.258 0.669,0.616 1.121,0.749 1.727,0.926 2.22,0.433 2.698,0.172 3.094,-0.043 3.462,0.446 3.358,0.786 3.054,1.78 1.872,2.286 0.838,1.883 0.201,1.635 -0.597,0.887 -0.442,0.176 -0.4,-0.02 -0.19,-0.132 0,0"
             style="fill:#0a072e;fill-opacity:1;fill-rule:nonzero;stroke:none"
             id="path268"
             inkscape:connector-curvature="0" /></g><g
           id="g270"
           transform="translate(344.8652,327.0786)"><path
             d="M 0,0 5.878,1.569"
             style="fill:none;stroke:#e6dddd;stroke-width:0.38999999;stroke-linecap:butt;stroke-linejoin:miter;stroke-miterlimit:10;stroke-dasharray:none;stroke-opacity:1"
             id="path272"
             inkscape:connector-curvature="0" /></g><g
           id="g274"
           transform="translate(362.9092,339.188)"><path
             d="m 0,0 c 0,0 -1.904,-3.701 -2.601,-5.375 -0.696,-1.674 -1.641,-1.428 -1.353,0.923 0.287,2.35 1.451,8.852 -1.872,10.134 0,0 -5.565,-3.95 -12.08,-2.412 -6.516,1.538 -6.925,-0.068 -6.925,-0.068 0,0 -1.238,8.192 7.84,8.246 C -7.913,11.502 1.556,8.576 0,0"
             style="fill:#0a072e;fill-opacity:1;fill-rule:nonzero;stroke:none"
             id="path276"
             inkscape:connector-curvature="0" /></g><g
           id="g278"
           transform="translate(367.8135,279.6567)"><path
             d="m 0,0 c 0,0 2.604,5.525 2.494,13.572 -0.11,8.046 -2.824,10.567 -6.064,12.132 -3.241,1.566 -4.951,2.251 -7.105,4.793 0,0 -6.314,-1.357 -10.601,-1.89 l -1.898,-4.376 0.367,5.256 c 0,0 -7.059,-5.351 -9.801,-12.193 -2.744,-6.84 -3.33,-17.498 -5.333,-34.233 -2.003,-16.737 -1.213,-12.776 -1.213,-12.776 0,0 8.08,-5.88 24.65,-3.396 0,0 8.706,17.733 14.504,33.111"
             style="fill:#d1cfeb;fill-opacity:1;fill-rule:nonzero;stroke:none"
             id="path280"
             inkscape:connector-curvature="0" /></g><g
           id="g282"
           transform="translate(365.9141,120.8896)"><path
             d="m 0,0 c 0,0 0.504,-4.936 0.279,-7.566 -0.224,-2.631 -14.142,-6.538 -21.359,-8.407 0,0 12.639,7.001 14.126,10.116 1.488,3.115 1.54,5.657 1.54,5.657 z"
             style="fill:#611b36;fill-opacity:1;fill-rule:nonzero;stroke:none"
             id="path284"
             inkscape:connector-curvature="0" /></g><g
           id="g286"
           transform="translate(303.4453,123.4775)"><path
             d="m 0,0 c 0,0 -2.673,-6.062 -4.198,-8.218 0,0 -12.36,2.26 -23.554,12.533 0,0 16.791,-6.824 19.651,-4.89 2.86,1.932 3.33,3.143 3.33,3.143 z"
             style="fill:#611b36;fill-opacity:1;fill-rule:nonzero;stroke:none"
             id="path288"
             inkscape:connector-curvature="0" /></g><g
           id="g290"
           transform="translate(286.1064,263.9683)"><path
             d="M 0,0 C 1.121,0.042 29.636,-1.527 29.636,-1.527 L 28.169,7.78 30.041,28.068 -5.605,30.122 Z"
             style="fill:#e3e1ff;fill-opacity:1;fill-rule:nonzero;stroke:none"
             id="path292"
             inkscape:connector-curvature="0" /></g><g
           id="g294"
           transform="translate(351.6943,257.0151)"><path
             d="m 0,0 c -8.624,-5.375 -20.307,-5.884 -34.529,-0.009 l -5.172,3.178 2.043,5.505 c 0,0 14.465,-6.393 25.848,-0.356 1.361,0.722 2.589,1.769 3.713,3.056"
             style="fill:#fab09d;fill-opacity:1;fill-rule:nonzero;stroke:none"
             id="path296"
             inkscape:connector-curvature="0" /></g><g
           id="g298"
           transform="translate(343.5977,268.3892)"><path
             d="M 0,0 C 8.289,9.482 11.781,35.334 20.507,35.656 30.416,36.022 28.287,12.542 19.762,0.058 16.734,-4.375 12.844,-8.415 8.097,-11.374"
             style="fill:#ddd9f7;fill-opacity:1;fill-rule:nonzero;stroke:none"
             id="path300"
             inkscape:connector-curvature="0" /></g><g
           id="g302"
           transform="translate(344.1855,270.5469)"><path
             d="m 0,0 c 0,0 -2.133,-3.074 -4.349,-3.905 -2.215,-0.83 6.48,-13.24 8.696,-12.409 2.215,0.83 10.304,4.873 7.237,6.819 -3.067,1.947 -7.887,5.7 -8.904,7.909 C 1.662,0.623 1.461,0.99 0,0"
             style="fill:#e6e6ff;fill-opacity:1;fill-rule:nonzero;stroke:none"
             id="path304"
             inkscape:connector-curvature="0" /></g><g
           id="g306"
           transform="translate(311.9932,260.1846)"><path
             d="m 0,0 c 0,0 -8.462,-1.148 -12.997,-0.005 -4.536,1.143 -8.661,4.84 -4.901,4.417 C -14.139,3.99 -0.638,2.036 0,0"
             style="fill:#fab09d;fill-opacity:1;fill-rule:nonzero;stroke:none"
             id="path308"
             inkscape:connector-curvature="0" /></g><g
           id="g310"
           transform="translate(357.5479,314.2876)"><path
             d="m 0,0 c 0,0 -4.757,-2.984 -11.011,-6.023 0,0 -0.512,-6.385 -1.191,-8.282 0,0 10.366,3.191 14.313,7.83 0,0 -1.606,2.936 -2.111,6.475"
             style="fill:#e3e1ff;fill-opacity:1;fill-rule:nonzero;stroke:none"
             id="path312"
             inkscape:connector-curvature="0" /></g><g
           id="g314"
           transform="translate(345.0068,309.144)"><path
             d="m 0,0 c 0,0 -1.987,-1.946 -2.341,-7.575 0,0 -1.038,2.77 -1.515,5.56 l 2.596,5.713 z"
             style="fill:#e3e1ff;fill-opacity:1;fill-rule:nonzero;stroke:none"
             id="path316"
             inkscape:connector-curvature="0" /></g><g
           id="g318"
           transform="translate(358.2432,214.3398)"><path
             d="m 0,0 c -0.968,16.064 -5.384,29.194 -5.384,29.194 l 1.33,4.542 c -13.753,-2.755 -25.814,1.949 -25.814,1.949 L -30.257,30.99 -62.954,-89.942 c 0,0 3.05,-4.006 8.42,-4.931 l 33.441,88.102 20.071,-87.25 c 0,0 6.093,-2.77 11.578,0.802 0,0 -9.588,77.154 -10.556,93.219"
             style="fill:#241e69;fill-opacity:1;fill-rule:nonzero;stroke:none"
             id="path320"
             inkscape:connector-curvature="0" /></g><g
           id="g322"><g
             id="g324" /><g
             id="g336"><g
               clip-path="url(#clipPath328)"
               id="g334"><g
                 transform="translate(337.1504,207.5693)"
                 id="g332"><path
                   d="M 0,0 C 0,0 -3.087,12.617 -6.285,18.115"
                   style="fill:none;stroke:#21061c;stroke-width:0.49399999;stroke-linecap:butt;stroke-linejoin:miter;stroke-miterlimit:10;stroke-dasharray:none;stroke-opacity:1"
                   id="path330"
                   inkscape:connector-curvature="0" /></g></g></g></g><g
           id="g338"
           transform="translate(283.5361,285.7383)"><path
             d="M 0,0 -7.396,-2.52 8.485,-0.113 Z"
             style="fill:#edeef0;fill-opacity:1;fill-rule:nonzero;stroke:none"
             id="path340"
             inkscape:connector-curvature="0" /></g><g
           id="g342"
           transform="translate(313.7822,278.5605)"><path
             d="m 0,0 5.93,-3.34 -17.563,3.082 z"
             style="fill:#edeef0;fill-opacity:1;fill-rule:nonzero;stroke:none"
             id="path344"
             inkscape:connector-curvature="0" /></g><g
           id="g346"
           transform="translate(314.5068,263.0859)"><path
             d="m 0,0 -0.471,2.604 c 0,0 -1.869,4.985 -4.95,7.306 -3.081,2.319 -1.012,-3.034 -0.602,-3.954 0.408,-0.921 1.008,-3.679 -3.1,-4.125 -5.222,-0.567 -6.469,-0.538 -10.797,0.051 -4.327,0.589 -1.892,-1.632 1.73,-2.833 4.351,-1.443 8.752,-2.019 15.676,-1.95 C 4.41,-2.833 0,0 0,0"
             style="fill:#fab09d;fill-opacity:1;fill-rule:nonzero;stroke:none"
             id="path348"
             inkscape:connector-curvature="0" /></g><g
           id="g350"
           transform="translate(224.9331,289.437)"><path
             d="m 0,0 c 0,0 -9.316,-3.84 -13.791,-0.442 -7.694,5.844 0.578,8.871 -4.602,17.07 -3.031,4.798 -7.622,21.185 13.075,24.88 7.323,1.307 10.07,-2.849 10.07,-2.849 C 13.646,42.322 14.974,22.854 28.207,22.442 40.356,22.064 41.147,7.904 36.179,0.821 31.211,-6.263 43.254,-12.084 34.193,-23.669 25.131,-35.255 11.41,-28.242 6.69,-23.884 1.97,-19.526 3.171,-4.221 0,0"
             style="fill:#611b36;fill-opacity:1;fill-rule:nonzero;stroke:none"
             id="path352"
             inkscape:connector-curvature="0" /></g><g
           id="g354"
           transform="translate(237.9307,267.6826)"><path
             d="m 0,0 c 0.619,-1.018 5.139,2.203 5.139,2.203 0,0 25.38,0.599 21.049,-33.252 0,0 -0.32,-5.434 5.504,-2.405 0,0 16.333,43.658 -25.602,52.398 0,0 -15.269,-3.84 -6.09,-18.944"
             style="fill:#fab09d;fill-opacity:1;fill-rule:nonzero;stroke:none"
             id="path356"
             inkscape:connector-curvature="0" /></g><g
           id="g358"
           transform="translate(258.1875,122.3496)"><path
             d="m 0,0 -0.408,-8.173 c 0,0 -8.098,-5.554 -21.583,-7.114 0,0 9.473,3.251 15.732,9.268 C 0,0 -4.258,10.682 -4.258,10.682 Z"
             style="fill:#241e69;fill-opacity:1;fill-rule:nonzero;stroke:none"
             id="path360"
             inkscape:connector-curvature="0" /></g><g
           id="g362"
           transform="translate(223.9019,136.1816)"><path
             d="m 0,0 c 1.022,-0.36 5.863,-5.203 5.863,-5.203 0,0 -3.868,-12.013 -5.188,-13.799 -1.32,-1.787 -12.848,-4.3 -12.848,-4.3 l 8.669,5.435 2.98,14.12 z"
             style="fill:#241e69;fill-opacity:1;fill-rule:nonzero;stroke:none"
             id="path364"
             inkscape:connector-curvature="0" /></g><g
           id="g366"
           transform="translate(220.9614,288.0601)"><path
             d="m 0,0 c 0,0 -9.157,1.506 -13.067,-12.813 -3.91,-14.32 -1.997,-23.859 -22.704,-31.059 -13.793,-4.796 -6.759,-8.857 6.156,-6.841 12.916,2.014 20.095,7.932 23.441,21.983 C -2.829,-14.679 0,0 0,0"
             style="fill:#fab09d;fill-opacity:1;fill-rule:nonzero;stroke:none"
             id="path368"
             inkscape:connector-curvature="0" /></g><g
           id="g370"
           transform="translate(222.0757,285.4033)"><path
             d="m 0,0 c 1.44,6.399 -0.846,9.062 -0.846,9.062 -1.63,1.349 -6.591,0.715 -7.252,8.863 -0.408,5.032 -1.738,8.664 -2.233,13.212 0,0 -0.854,1.128 3.032,3.55 3.885,2.422 14.033,4.024 15.782,0.429 1.749,-3.595 2.17,-10.219 2.17,-10.219 0,0 1.788,3.538 5.116,1.913 2.317,-1.132 0.514,-9.485 -4.257,-7.898 0,0 -1.939,-10.37 3.641,-21.133 0,0 2.245,-1.456 -8.308,-2.282 C -3.708,-5.329 -1.441,-6.398 0,0"
             style="fill:#fab09d;fill-opacity:1;fill-rule:nonzero;stroke:none"
             id="path372"
             inkscape:connector-curvature="0" /></g><g
           id="g374"
           transform="translate(235.8955,314.7339)"><path
             d="M 0,0 -3.788,-5.617 C -4.141,-6.14 -4.954,-5.911 -4.984,-5.28 -5.162,-1.584 -5.963,5.801 -9.54,5.308 c -4.757,-0.657 -7.94,-8.2 -16.989,-4.319 -5.455,2.34 10.263,12.582 14.339,11.964 C -8.115,12.334 0,0 0,0"
             style="fill:#611b36;fill-opacity:1;fill-rule:nonzero;stroke:none"
             id="path376"
             inkscape:connector-curvature="0" /></g><g
           id="g378"
           transform="translate(183.2261,240.9717)"><path
             d="m 0,0 c 0,0 3.045,-3.52 -0.02,-5.554 -3.065,-2.034 -6.764,-2.772 -7.897,-2.799 -1.135,-0.027 -2.209,1.055 -0.851,2.419 0,0 -2.815,0.303 -1.418,2.407 0,0 -2.544,0.877 -1.134,2.413 0,0 -2.063,0.916 -0.652,2.452 1.41,1.536 8.939,4.661 10.198,2.961 C -0.515,2.598 0,0 0,0"
             style="fill:#fab09d;fill-opacity:1;fill-rule:nonzero;stroke:none"
             id="path380"
             inkscape:connector-curvature="0" /></g><g
           id="g382"
           transform="translate(174.3062,234.9941)"><path
             d="M 0,0 C 0,0 3.819,1.482 5.089,1.151 6.712,0.729 5.298,-0.993 3.395,-1.61 1.493,-2.229 1.002,-2.375 0.158,-2.236 -1.172,-2.018 -0.678,-0.332 0,0"
             style="fill:#fbbcac;fill-opacity:1;fill-rule:nonzero;stroke:none"
             id="path384"
             inkscape:connector-curvature="0" /></g><g
           id="g386"
           transform="translate(173.0146,237.5039)"><path
             d="M 0,0 C 0,0 5.028,1.45 6.295,1.107 8.647,0.472 7.054,-1.002 3.796,-1.854 1.861,-2.359 1.226,-2.723 -0.033,-2.241 -1.292,-1.76 -0.704,-0.272 0,0"
             style="fill:#fbbcac;fill-opacity:1;fill-rule:nonzero;stroke:none"
             id="path388"
             inkscape:connector-curvature="0" /></g><g
           id="g390"
           transform="translate(171.9927,239.9766)"><path
             d="M 0,0 C 0,0 5.385,1.44 6.653,1.098 9.005,0.461 7.851,-1.154 3.796,-1.854 1.825,-2.193 1.226,-2.724 -0.033,-2.242 -1.292,-1.76 -0.704,-0.272 0,0"
             style="fill:#fbbcac;fill-opacity:1;fill-rule:nonzero;stroke:none"
             id="path392"
             inkscape:connector-curvature="0" /></g><g
           id="g394"
           transform="translate(184.3071,240.8271)"><path
             d="m 0,0 c 0,0 -0.915,5.549 -4.14,6.058 -2.506,0.395 -5.947,-4.08 -4.509,-4.898 1.15,-0.655 3.335,1.694 3.335,1.694 0,0 0.956,-3.296 5.314,-2.854"
             style="fill:#fab9a9;fill-opacity:1;fill-rule:nonzero;stroke:none"
             id="path396"
             inkscape:connector-curvature="0" /></g><g
           id="g398"
           transform="translate(244.6167,286.6069)"><path
             d="m 0,0 c 0,0 -5.515,1.758 -9.545,1.89 0,0 -9.249,-5.416 -12.517,0.139 0,0 -4.217,-0.572 -5.718,-1.144 0,0 -2.372,-5.2 -3.384,-15.492 -1.011,-10.293 9.28,-31.864 9.28,-31.864 0,0 3.896,-3.45 17.502,3.369 l 5.842,26.108 c 0,0 -4.716,10.983 -1.46,16.994"
             style="fill:#e3e1ff;fill-opacity:1;fill-rule:nonzero;stroke:none"
             id="path400"
             inkscape:connector-curvature="0" /></g><g
           id="g402"
           transform="translate(219.6553,247.2598)"><path
             d="m 0,0 -0.298,-10.956 c 0,0 -25.983,-38.676 -16.821,-69.745 7.911,-26.83 18.636,-36.127 18.636,-36.127 0,0 4.373,0.013 6.687,4.366 0,0 -22.672,47.316 4.251,76.596 0,0 8.867,-38.469 20.748,-91.353 0,0 4.032,-1.286 8.173,-0.408 0,0 -3.29,74.778 -5.371,92.758 C 33.924,-16.891 21.859,1.865 21.859,1.865 21.859,1.865 11.933,-4.096 0,0"
             style="fill:#fa375a;fill-opacity:1;fill-rule:nonzero;stroke:none"
             id="path404"
             inkscape:connector-curvature="0" /></g><g
           id="g406"><g
             id="g408" /><g
             id="g420"><g
               clip-path="url(#clipPath412)"
               id="g418"><g
                 transform="translate(228.0068,215.8809)"
                 id="g416"><path
                   d="M 0,0 C 0,0 2.59,-1.077 4.442,-5.808"
                   style="fill:none;stroke:#21061c;stroke-width:0.49399999;stroke-linecap:butt;stroke-linejoin:miter;stroke-miterlimit:10;stroke-dasharray:none;stroke-opacity:1"
                   id="path414"
                   inkscape:connector-curvature="0" /></g></g></g></g><g
           id="g422"><g
             id="g424" /><g
             id="g436"><g
               clip-path="url(#clipPath428)"
               id="g434"><g
                 transform="translate(220.248,310.6934)"
                 id="g432"><path
                   d="m 0,0 c 0,0 0.603,-2.609 -0.457,-3.853 -1.058,-1.245 0.18,-2.447 0.74,-2.758"
                   style="fill:none;stroke:#21061c;stroke-width:0.45899999;stroke-linecap:butt;stroke-linejoin:miter;stroke-miterlimit:10;stroke-dasharray:none;stroke-opacity:1"
                   id="path430"
                   inkscape:connector-curvature="0" /></g></g></g></g><g
           id="g438"
           transform="translate(225.897,313.2739)"><path
             d="M 0,0 C 0.243,0.764 -0.487,1.408 -1.153,1.615 -1.777,1.808 -3.021,1.649 -3.162,0.851 -3.216,0.548 -3.064,0.29 -2.741,0.259 c 0.235,-0.023 0.392,0.095 0.616,0.126 0.166,0.024 0.41,-0.001 0.58,-0.029 C -1.129,0.287 -0.8,0.017 -0.426,-0.157 -0.261,-0.235 -0.062,-0.193 0,0"
             style="fill:#611b36;fill-opacity:1;fill-rule:nonzero;stroke:none"
             id="path440"
             inkscape:connector-curvature="0" /></g><g
           id="g442"
           transform="translate(218.103,313.5737)"><path
             d="m 0,0 c -0.287,0.772 -1.201,0.873 -1.899,0.625 -0.694,-0.248 -1.485,-1.099 -1.122,-1.875 0.099,-0.211 0.421,-0.314 0.62,-0.185 0.37,0.242 0.55,0.623 0.972,0.833 0.38,0.189 0.81,0.173 1.217,0.256 C -0.073,-0.317 0.053,-0.142 0,0"
             style="fill:#611b36;fill-opacity:1;fill-rule:nonzero;stroke:none"
             id="path444"
             inkscape:connector-curvature="0" /></g><g
           id="g446"
           transform="translate(296.0098,195.5908)"><path
             d="m 0,0 -32.932,-9.086 c -2.748,-0.759 -5.616,0.869 -6.375,3.617 l -1.28,20.881 c -0.758,2.748 0.87,5.617 3.618,6.375 l 28.775,7.914 c 2.747,0.758 1.934,-1.883 2.692,-4.631 L 3.618,6.375 C 4.376,3.627 2.748,0.759 0,0"
             style="fill:#0a072e;fill-opacity:1;fill-rule:nonzero;stroke:none"
             id="path448"
             inkscape:connector-curvature="0" /></g><g
           id="g450"
           transform="translate(288.3916,225.4795)"><path
             d="m 0,0 -16.994,-4.691 -16.629,-4.563 c 0,0 -7.387,-1.945 0.629,-26.839 0,0 0.897,-3.254 5,-2.121 4.102,1.132 18.817,5.192 18.817,5.192 0,0 14.605,4.029 18.706,5.161 4.103,1.132 3.205,4.385 3.205,4.385 C 6.851,2.007 0,0 0,0"
             style="fill:#241e69;fill-opacity:1;fill-rule:nonzero;stroke:none"
             id="path452"
             inkscape:connector-curvature="0" /></g><g
           id="g454"
           transform="translate(262.0371,190.4893)"><path
             d="m 0,0 -3.474,-0.958 c -0.612,-0.169 -0.821,0.393 -1.102,1.411 l -0.95,3.444 c -0.09,0.326 -0.448,0.46 -0.772,0.371 L -7.619,3.903 C -7.944,3.813 -8.191,3.512 -8.102,3.188 l 0.16,-0.58 0.923,-3.347 c 0.157,-0.568 0.271,-0.98 0.271,-0.98 0,0 0.593,-2.285 2.675,-1.773 0.009,0.003 4.86,1.336 4.86,1.336 0.455,0.147 0.3,0.501 0.21,0.826 L 0.655,-0.092 C 0.558,0.264 0.325,0.09 0,0"
             style="fill:#c6c3e3;fill-opacity:1;fill-rule:nonzero;stroke:none"
             id="path456"
             inkscape:connector-curvature="0" /></g><g
           id="g458"
           transform="translate(294.9707,199.5762)"><path
             d="m 0,0 3.474,0.958 c 0.612,0.169 0.506,0.76 0.225,1.778 l -0.95,3.446 c -0.09,0.324 0.145,0.622 0.47,0.712 L 4.54,7.258 C 4.864,7.348 5.235,7.217 5.324,6.892 L 5.484,6.313 6.407,2.966 C 6.564,2.397 6.679,1.985 6.679,1.985 c 0,0 0.66,-2.265 -1.39,-2.893 -0.009,-0.003 -4.856,-1.346 -4.856,-1.346 -0.467,-0.107 -0.514,0.276 -0.604,0.602 l -0.342,1.238 C -0.61,-0.059 -0.325,-0.09 0,0"
             style="fill:#c6c3e3;fill-opacity:1;fill-rule:nonzero;stroke:none"
             id="path460"
             inkscape:connector-curvature="0" /></g><g
           id="g462"
           transform="translate(280.4277,226.5645)"><path
             d="M 0,0 -2.598,-0.717 C -2.765,-0.763 -2.904,-0.871 -2.99,-1.023 -3.076,-1.177 -3.099,-1.353 -3.053,-1.52 l 0.139,-0.505 c 0.097,-0.347 0.465,-0.547 0.803,-0.455 l 2.598,0.716 c 0.167,0.046 0.308,0.156 0.394,0.307 0.086,0.153 0.108,0.329 0.062,0.496 L 0.804,-0.456 C 0.707,-0.107 0.342,0.086 0,0 m -2.156,-3.009 c -0.558,-0.06 -1.096,0.29 -1.25,0.848 l -0.139,0.506 c -0.082,0.299 -0.043,0.612 0.11,0.883 0.154,0.271 0.403,0.466 0.702,0.547 l 2.597,0.718 C 0.479,0.665 1.124,0.299 1.296,-0.32 l 0.14,-0.505 C 1.517,-1.124 1.479,-1.437 1.325,-1.708 1.171,-1.979 0.922,-2.174 0.623,-2.256 l -2.599,-0.717 c -0.059,-0.017 -0.12,-0.029 -0.18,-0.036"
             style="fill:#c6c3e3;fill-opacity:1;fill-rule:nonzero;stroke:none"
             id="path464"
             inkscape:connector-curvature="0" /></g><g
           id="g466"
           transform="translate(281.29,223.0937)"><path
             d="m 0,0 -2.42,-0.667 c -0.53,-0.146 -0.845,-0.7 -0.698,-1.23 l 1.143,-4.144 c 0.146,-0.53 0.7,-0.844 1.23,-0.697 l 2.421,0.667 c 0.53,0.146 0.844,0.7 0.697,1.23 L 1.23,-0.697 C 1.084,-0.167 0.53,0.146 0,0"
             style="fill:#3b3b3b;fill-opacity:1;fill-rule:nonzero;stroke:none"
             id="path468"
             inkscape:connector-curvature="0" /></g><g
           id="g470"
           transform="translate(279.7197,225.2656)"><path
             d="m 0,0 -0.697,-0.192 c -0.531,-0.147 -0.845,-0.701 -0.699,-1.231 l 0.419,-1.517 c 0.147,-0.531 0.701,-0.845 1.231,-0.699 l 0.697,0.193 c 0.53,0.146 0.844,0.7 0.698,1.23 L 1.23,-0.698 C 1.084,-0.168 0.53,0.146 0,0"
             style="fill:#3b3b3b;fill-opacity:1;fill-rule:nonzero;stroke:none"
             id="path472"
             inkscape:connector-curvature="0" /></g><g
           id="g474"
           transform="translate(281.29,223.0937)"><path
             d="m 0,0 -2.42,-0.667 c -0.53,-0.146 -0.845,-0.7 -0.698,-1.23 l 1.143,-4.144 c 0.146,-0.53 0.7,-0.844 1.23,-0.697 l 2.421,0.667 c 0.53,0.146 0.844,0.7 0.697,1.23 L 1.23,-0.697 C 1.084,-0.167 0.53,0.146 0,0"
             style="fill:#0a072e;fill-opacity:1;fill-rule:nonzero;stroke:none"
             id="path476"
             inkscape:connector-curvature="0" /></g><g
           id="g478"
           transform="translate(279.7197,225.2656)"><path
             d="m 0,0 -0.697,-0.192 c -0.531,-0.147 -0.845,-0.701 -0.699,-1.231 l 0.419,-1.517 c 0.147,-0.531 0.701,-0.845 1.231,-0.699 l 0.697,0.193 c 0.53,0.146 0.844,0.7 0.698,1.23 L 1.23,-0.698 C 1.084,-0.168 0.53,0.146 0,0"
             style="fill:#15104a;fill-opacity:1;fill-rule:nonzero;stroke:none"
             id="path480"
             inkscape:connector-curvature="0" /></g><g
           id="g482"
           transform="translate(262.6562,221.6514)"><path
             d="M 0,0 C -0.034,-0.003 -0.068,-0.009 -0.103,-0.02 L -2.7,-0.735 c -0.347,-0.096 -0.552,-0.457 -0.456,-0.803 l 0.139,-0.506 c 0.046,-0.167 0.156,-0.307 0.308,-0.393 0.152,-0.086 0.328,-0.106 0.495,-0.062 l 2.598,0.717 c 0.167,0.046 0.306,0.155 0.393,0.307 0.087,0.153 0.109,0.329 0.063,0.496 L 0.7,-0.475 C 0.654,-0.308 0.545,-0.168 0.392,-0.081 0.271,-0.013 0.135,0.016 0,0 m -2.26,-3.027 c -0.242,-0.027 -0.484,0.024 -0.701,0.146 -0.271,0.153 -0.466,0.402 -0.548,0.701 l -0.139,0.506 c -0.17,0.618 0.193,1.26 0.812,1.431 l 2.598,0.716 C 0.062,0.559 0.373,0.518 0.645,0.362 0.915,0.209 1.11,-0.04 1.192,-0.339 l 0.14,-0.505 C 1.414,-1.143 1.376,-1.455 1.221,-1.727 1.067,-1.997 0.818,-2.192 0.52,-2.274 l -2.598,-0.717 c -0.06,-0.018 -0.121,-0.03 -0.182,-0.036"
             style="fill:#c6c3e3;fill-opacity:1;fill-rule:nonzero;stroke:none"
             id="path484"
             inkscape:connector-curvature="0" /></g><g
           id="g486"
           transform="translate(263.416,218.1621)"><path
             d="m 0,0 -2.421,-0.668 c -0.53,-0.145 -0.844,-0.699 -0.698,-1.229 l 1.143,-4.144 c 0.147,-0.53 0.701,-0.845 1.23,-0.698 l 2.421,0.668 c 0.53,0.146 0.845,0.7 0.698,1.23 L 1.229,-0.698 C 1.083,-0.168 0.53,0.146 0,0"
             style="fill:#0a072e;fill-opacity:1;fill-rule:nonzero;stroke:none"
             id="path488"
             inkscape:connector-curvature="0" /></g><g
           id="g490"
           transform="translate(261.8457,220.334)"><path
             d="m 0,0 -0.698,-0.192 c -0.53,-0.147 -0.844,-0.701 -0.698,-1.231 l 0.419,-1.517 c 0.146,-0.531 0.7,-0.845 1.23,-0.699 l 0.697,0.193 c 0.53,0.146 0.845,0.7 0.698,1.23 L 1.229,-0.698 C 1.083,-0.168 0.53,0.146 0,0"
             style="fill:#15104a;fill-opacity:1;fill-rule:nonzero;stroke:none"
             id="path492"
             inkscape:connector-curvature="0" /></g><g
           id="g494"
           transform="translate(260.2393,220.7891)"><path
             d="m 0,0 c -0.343,-0.091 -0.693,0.128 -0.748,0.479 -0.185,1.189 -0.355,3.818 1.159,6.215 1.36,2.155 3.671,3.553 6.872,4.159 3.694,1.042 6.82,0.865 9.284,-0.523 C 18.76,9.097 19.796,7.222 20.211,6.244 20.354,5.908 20.166,5.527 19.814,5.431 L 17.81,4.879 C 17.525,4.801 17.219,4.932 17.096,5.199 16.516,6.458 14.422,9.477 8.109,7.671 L 7.957,7.635 C 5.667,7.213 4.069,6.315 3.205,4.966 2.326,3.593 2.369,2.006 2.468,1.202 2.505,0.899 2.32,0.614 2.025,0.537 Z"
             style="fill:#0a072e;fill-opacity:1;fill-rule:nonzero;stroke:none"
             id="path496"
             inkscape:connector-curvature="0" /></g><g
           id="g498"
           transform="translate(265.2676,236.5049)"><path
             d="m 0,0 c 0,0 -3.48,-1.129 -2.366,-6.537 1.113,-5.408 1.876,-6.442 3.033,-6.388 1.157,0.055 1.39,0.985 1.39,0.985 0,0 1.289,-1.008 2.208,0.11 0,0 1.518,-0.729 2.395,0.522 0,0 1.692,-1.261 2.577,0.95 C 10.122,-8.148 7.878,0.419 4.602,0.638 1.325,0.857 0,0 0,0"
             style="fill:#fab09d;fill-opacity:1;fill-rule:nonzero;stroke:none"
             id="path500"
             inkscape:connector-curvature="0" /></g><g
           id="g502"
           transform="translate(235.6768,305.4927)"><path
             d="M 0,0 C 0.015,0.448 -0.337,0.824 -0.785,0.838 -1.233,0.853 -1.608,0.501 -1.624,0.053 -1.638,-0.395 -1.287,-0.771 -0.838,-0.785 -0.39,-0.8 -0.015,-0.448 0,0"
             style="fill:#ffffff;fill-opacity:1;fill-rule:nonzero;stroke:none"
             id="path504"
             inkscape:connector-curvature="0" /></g><g
           id="g506"
           transform="translate(223.7983,305.0825)"><path
             d="M 0,0 C 0.803,1.106 1.289,1.12 1.967,1.053 2.645,0.986 3.915,0.167 3.748,-1.528 3.581,-3.223 2.102,-4.763 0.742,-5.198 c -1.706,-0.546 -3.056,-0.252 -3.825,0.442 -0.768,0.693 -0.863,2.17 0.228,2.642 C -0.828,-1.236 -0.803,-1.106 0,0"
             style="fill:#343943;fill-opacity:1;fill-rule:nonzero;stroke:none"
             id="path508"
             inkscape:connector-curvature="0" /></g><g
           id="g510"
           transform="translate(223.6289,311.1885)"><path
             d="m 0,0 c -0.314,-0.208 -0.302,-0.771 -0.273,-1.16 0.032,-0.434 0.083,-0.985 0.231,-1.382 0.205,-0.545 0.879,-0.54 0.962,0.084 C 0.994,-1.914 0.848,0.562 0,0"
             style="fill:#611b36;fill-opacity:1;fill-rule:nonzero;stroke:none"
             id="path512"
             inkscape:connector-curvature="0" /></g><g
           id="g514"
           transform="translate(217.6665,310.5215)"><path
             d="m 0,0 c -0.366,-0.202 -0.388,-0.669 -0.386,-1.12 0.002,-0.461 0.031,-1.045 0.17,-1.48 0.19,-0.598 0.855,-0.488 0.961,0.084 0.088,0.474 0.035,1.149 -0.048,1.63 C 0.639,-0.543 0.419,0.231 0,0"
             style="fill:#611b36;fill-opacity:1;fill-rule:nonzero;stroke:none"
             id="path516"
             inkscape:connector-curvature="0" /></g><g
           id="g518"
           transform="translate(223.7983,305.0825)"><path
             d="M 0,0 C 0.803,1.106 1.289,1.12 1.967,1.053 2.645,0.986 3.915,0.167 3.748,-1.528 3.581,-3.223 2.102,-4.763 0.742,-5.198 c -1.706,-0.546 -3.056,-0.252 -3.825,0.442 -0.768,0.693 -0.863,2.17 0.228,2.642 C -0.828,-1.236 -0.803,-1.106 0,0"
             style="fill:#0a072e;fill-opacity:1;fill-rule:nonzero;stroke:none"
             id="path520"
             inkscape:connector-curvature="0" /></g></g></g><g
       id="g522"
       transform="translate(6.4999383,19.434384)"><g
         id="g524"
         clip-path="url(#clipPath528)"><g
           id="g530"
           transform="translate(222.9204,298.3594)"><path
             d="M 0,0 C 0,0 -0.653,6.33 5.505,7.562 11.664,8.794 5.745,0.29 0,0"
             style="fill:#fa375a;fill-opacity:1;fill-rule:nonzero;stroke:none"
             id="path532"
             inkscape:connector-curvature="0" /></g></g></g><g
       id="g534"
       transform="translate(6.4999383,19.434384)"><g
         id="g536"
         clip-path="url(#clipPath540)"><g
           id="g542"><g
             id="g544" /><g
             id="g556"><g
               clip-path="url(#clipPath548)"
               id="g554"><g
                 transform="translate(234.8809,309.1934)"
                 id="g552"><path
                   d="m 0,0 c 1.161,1.439 2.501,1.223 2.58,1.208 l 0.088,0.45 C 2.641,1.661 -0.483,2.223 -1.68,-2.608 l 0.445,-0.111 c 0.236,0.952 0.546,1.666 0.884,2.217 1.709,0.277 2.631,-0.633 2.671,-0.674 l 0.331,0.317 C 2.609,-0.815 1.685,0.113 0,0"
                   style="fill:#21061c;fill-opacity:1;fill-rule:nonzero;stroke:none"
                   id="path550"
                   inkscape:connector-curvature="0" /></g></g></g></g><g
           id="g558"
           transform="translate(417.1426,210.9102)"><path
             d="m 0,0 c -0.625,-1.042 -9.427,-14.619 -15.15,-29.062 -5.723,-14.445 8.543,-37.721 24.028,-58.242 1.042,-0.625 5.306,1.94 5.306,1.94 0,0 -15.667,31.074 -15.276,44.486 0.257,8.784 15.246,27.043 15.246,27.043 z"
             style="fill:#fab09d;fill-opacity:1;fill-rule:nonzero;stroke:none"
             id="path560"
             inkscape:connector-curvature="0" /></g><g
           id="g562"
           transform="translate(431.9707,199.4883)"><path
             d="m 0,0 8.089,-82.571 3.585,-2.357 c 0,0 7.873,70.099 7.199,85.939 C 18.199,16.852 0,0 0,0"
             style="fill:#fab09d;fill-opacity:1;fill-rule:nonzero;stroke:none"
             id="path564"
             inkscape:connector-curvature="0" /></g><g
           id="g566"
           transform="translate(406.918,280.6431)"><path
             d="m 0,0 c 0,0 -3.243,-7.703 -4.054,-11.352 -0.81,-3.648 -6.712,-17.704 -6.712,-17.704 0,0 7.523,-9.324 17.119,9.19 C 15.947,-1.351 0,0 0,0"
             style="fill:#e89782;fill-opacity:1;fill-rule:nonzero;stroke:none"
             id="path568"
             inkscape:connector-curvature="0" /></g><g
           id="g570"
           transform="translate(386.7334,277.2939)"><path
             d="m 0,0 c 0,0 -0.346,1.15 -1.035,2.301 -0.691,1.151 -0.231,3.798 0.92,2.532 0,0 -1.956,4.027 1.15,2.876 0,0 -1.495,2.877 -2.301,5.869 -0.805,2.992 0.691,3.682 1.611,1.726 C 1.266,13.348 4.258,6.559 6.789,6.329 9.32,6.099 5.523,9.55 6.559,10.816 7.595,12.082 13.003,6.559 10.355,1.841 7.709,-2.877 0,0 0,0"
             style="fill:#fab09d;fill-opacity:1;fill-rule:nonzero;stroke:none"
             id="path572"
             inkscape:connector-curvature="0" /></g><g
           id="g574"
           transform="translate(387.6709,285.0449)"><path
             d="m 0,0 c 0,0 4.951,-3.826 3.689,-5.101 -1.262,-1.275 -5.242,2.747 -5.242,2.747 0,0 -1.457,3.531 1.553,2.354"
             style="fill:#fbc5b8;fill-opacity:1;fill-rule:nonzero;stroke:none"
             id="path576"
             inkscape:connector-curvature="0" /></g><g
           id="g578"
           transform="translate(386.582,282.7231)"><path
             d="m 0,0 c 0,0 4.277,-3.306 3.188,-4.408 -1.091,-1.102 -4.531,2.373 -4.531,2.373 0,0 -1.258,3.052 1.343,2.035"
             style="fill:#fbbdad;fill-opacity:1;fill-rule:nonzero;stroke:none"
             id="path580"
             inkscape:connector-curvature="0" /></g><g
           id="g582"
           transform="translate(425.8486,294.6499)"><path
             d="m 0,0 c 0,0 10.795,-4.662 19.639,1.323 7.229,4.893 2.125,10.693 -3.252,13.999 -5.858,3.601 -1.776,18.272 -13.422,12.958 0,0 -1.999,7.546 -11.752,4.766 -9.752,-2.78 -13.366,-11.375 -12.693,-17.695 0.671,-6.32 -3.813,-4.757 -5.782,-10.04 C -29.231,0.028 -18.551,-9.34 -4.579,-0.928 -4.201,-0.899 0,0 0,0"
             style="fill:#fa375a;fill-opacity:1;fill-rule:nonzero;stroke:none"
             id="path584"
             inkscape:connector-curvature="0" /></g><g
           id="g586"
           transform="translate(445.4512,122.9834)"><path
             d="m 0,0 -0.674,-8.763 c 0,0 -6.887,-8.232 -20.831,-6.878 0,0 8.175,2.313 12.742,8.901 2.168,3.127 1.349,11.122 1.349,11.122 z"
             style="fill:#fa375a;fill-opacity:1;fill-rule:nonzero;stroke:none"
             id="path588"
             inkscape:connector-curvature="0" /></g><g
           id="g590"
           transform="translate(431.9004,128.4521)"><path
             d="m 0,0 3.809,-9.023 c -1.65,-1.682 -3.989,-3.944 -6.147,-6.451 -1.865,-2.167 -8.071,-3.21 -14.179,-2.488 0,0 11.47,2.696 11.405,7.628 -0.057,4.185 -4.086,7.861 -4.086,7.861 z"
             style="fill:#fa375a;fill-opacity:1;fill-rule:nonzero;stroke:none"
             id="path592"
             inkscape:connector-curvature="0" /></g><g
           id="g594"
           transform="translate(421.874,280.6431)"><path
             d="m 0,0 c 1.417,6.918 -0.09,11.314 -0.09,11.314 -2.743,-0.114 -7.982,-0.271 -9.384,8.605 -0.979,6.208 -1.45,7.745 -3.062,13.823 0,0 -0.943,1.196 3.189,3.885 4.131,2.689 15.022,4.626 16.98,0.793 1.959,-3.834 2.551,-10.955 2.551,-10.955 0,0 1.85,3.846 5.467,2.166 2.518,-1.169 0.752,-10.199 -4.417,-8.59 0,0 -2.51,-12.095 3.722,-23.563 0,0 3.561,-4.941 -7.836,-4.783 C 3.317,-7.251 -1.416,-6.918 0,0"
             style="fill:#fab09d;fill-opacity:1;fill-rule:nonzero;stroke:none"
             id="path596"
             inkscape:connector-curvature="0" /></g><g
           id="g598"><g
             id="g600" /><g
             id="g612"><g
               clip-path="url(#clipPath604)"
               id="g610"><g
                 transform="translate(418.6143,308.269)"
                 id="g608"><path
                   d="m 0,0 c 0,0 0.703,-2.795 -0.41,-4.157 -1.114,-1.362 0.244,-2.63 0.853,-2.954"
                   style="fill:none;stroke:#21061c;stroke-width:0.49399999;stroke-linecap:butt;stroke-linejoin:miter;stroke-miterlimit:10;stroke-dasharray:none;stroke-opacity:1"
                   id="path606"
                   inkscape:connector-curvature="0" /></g></g></g></g><g
           id="g614"
           transform="translate(423.6826,311.2827)"><path
             d="M 0,0 C 0.246,0.827 -0.554,1.505 -1.275,1.714 -1.951,1.909 -3.285,1.711 -3.421,0.85 -3.473,0.522 -3.304,0.248 -2.955,0.221 c 0.253,-0.02 0.419,0.11 0.659,0.149 0.179,0.028 0.442,0.007 0.625,-0.019 0.45,-0.066 0.81,-0.35 1.216,-0.53 C -0.275,-0.258 -0.062,-0.21 0,0"
             style="fill:#c42b47;fill-opacity:1;fill-rule:nonzero;stroke:none"
             id="path616"
             inkscape:connector-curvature="0" /></g><g
           id="g618"
           transform="translate(416.8037,311.4629)"><path
             d="m 0,0 c -0.325,0.825 -1.312,0.914 -2.058,0.632 -0.741,-0.28 -1.575,-1.213 -1.168,-2.042 0.111,-0.225 0.46,-0.328 0.67,-0.185 0.395,0.268 0.58,0.682 1.031,0.917 0.404,0.211 0.868,0.202 1.304,0.301 C -0.072,-0.343 0.06,-0.152 0,0"
             style="fill:#c42b47;fill-opacity:1;fill-rule:nonzero;stroke:none"
             id="path620"
             inkscape:connector-curvature="0" /></g><g
           id="g622"
           transform="translate(435.332,302.9946)"><path
             d="M 0,0 C 0.007,0.483 -0.38,0.879 -0.862,0.886 -1.346,0.893 -1.742,0.506 -1.748,0.023 -1.755,-0.459 -1.369,-0.856 -0.886,-0.863 -0.403,-0.869 -0.006,-0.483 0,0"
             style="fill:#ffffff;fill-opacity:1;fill-rule:nonzero;stroke:none"
             id="path624"
             inkscape:connector-curvature="0" /></g><g
           id="g626"
           transform="translate(422.2432,308.873)"><path
             d="m 0,0 c -0.334,-0.23 -0.309,-0.835 -0.27,-1.254 0.043,-0.467 0.111,-1.059 0.279,-1.483 0.23,-0.582 0.957,-0.562 1.033,0.111 C 1.109,-2.039 0.901,0.623 0,0"
             style="fill:#611b36;fill-opacity:1;fill-rule:nonzero;stroke:none"
             id="path628"
             inkscape:connector-curvature="0" /></g><g
           id="g630"
           transform="translate(415.8389,308.0303)"><path
             d="m 0,0 c -0.39,-0.225 -0.403,-0.728 -0.393,-1.213 0.012,-0.497 0.056,-1.124 0.214,-1.59 0.218,-0.64 0.932,-0.508 1.033,0.11 C 0.939,-2.18 0.868,-1.455 0.77,-0.939 0.698,-0.571 0.446,0.258 0,0"
             style="fill:#611b36;fill-opacity:1;fill-rule:nonzero;stroke:none"
             id="path632"
             inkscape:connector-curvature="0" /></g><g
           id="g634"><g
             id="g636" /><g
             id="g648"><g
               clip-path="url(#clipPath640)"
               id="g646"><g
                 transform="translate(434.3975,306.9614)"
                 id="g644"><path
                   d="M 0,0 C 1.22,1.574 2.667,1.369 2.752,1.355 L 2.837,1.841 C 2.808,1.843 -0.566,2.383 -1.754,-2.842 l 0.482,-0.11 c 0.234,1.029 0.552,1.804 0.905,2.404 1.834,0.335 2.846,-0.626 2.889,-0.669 l 0.35,0.348 C 2.825,-0.822 1.812,0.158 0,0"
                   style="fill:#21061c;fill-opacity:1;fill-rule:nonzero;stroke:none"
                   id="path642"
                   inkscape:connector-curvature="0" /></g></g></g></g><g
           id="g650"><g
             id="g652" /><g
             id="g664"><g
               clip-path="url(#clipPath656)"
               id="g662"><g
                 transform="translate(419.1387,299.2529)"
                 id="g660"><path
                   d="M 0,0 C 0,0 4.312,0.708 6.143,4.075"
                   style="fill:none;stroke:#21061c;stroke-width:0.49399999;stroke-linecap:butt;stroke-linejoin:miter;stroke-miterlimit:10;stroke-dasharray:none;stroke-opacity:1"
                   id="path658"
                   inkscape:connector-curvature="0" /></g></g></g></g><g
           id="g666"><g
             id="g668" /><g
             id="g680"><g
               clip-path="url(#clipPath672)"
               id="g678"
               style="opacity:0.42999303"><g
                 transform="translate(420.2764,306.2593)"
                 id="g676"><path
                   d="M 0,0 C 0,0 1.337,4.929 7.914,3.71 7.914,3.71 6.257,-3.168 0,0"
                   style="fill:#b2c9f0;fill-opacity:1;fill-rule:nonzero;stroke:none"
                   id="path674"
                   inkscape:connector-curvature="0" /></g></g></g></g><g
           id="g682"><g
             id="g684" /><g
             id="g696"><g
               clip-path="url(#clipPath688)"
               id="g694"
               style="opacity:0.42999303"><g
                 transform="translate(410.2178,307.9663)"
                 id="g692"><path
                   d="M 0,0 C 0,0 5.915,2.065 7.83,-2.114 7.83,-2.114 3.915,-6.534 0,0"
                   style="fill:#b2c9f0;fill-opacity:1;fill-rule:nonzero;stroke:none"
                   id="path690"
                   inkscape:connector-curvature="0" /></g></g></g></g><g
           id="g698"
           transform="translate(420.2764,306.2593)"><path
             d="M 0,0 C 0,0 1.337,4.929 7.914,3.71 7.914,3.71 6.257,-3.168 0,0 Z"
             style="fill:none;stroke:#0a072e;stroke-width:0.704;stroke-linecap:butt;stroke-linejoin:miter;stroke-miterlimit:10;stroke-dasharray:none;stroke-opacity:1"
             id="path700"
             inkscape:connector-curvature="0" /></g><g
           id="g702"
           transform="translate(418.0479,305.8521)"><path
             d="M 0,0 C 0,0 0.628,1.337 2.411,0.339"
             style="fill:none;stroke:#0a072e;stroke-width:0.704;stroke-linecap:butt;stroke-linejoin:miter;stroke-miterlimit:10;stroke-dasharray:none;stroke-opacity:1"
             id="path704"
             inkscape:connector-curvature="0" /></g><g
           id="g706"
           transform="translate(410.2178,307.9663)"><path
             d="M 0,0 C 0,0 5.915,2.065 7.83,-2.114 7.83,-2.114 3.915,-6.534 0,0 Z"
             style="fill:none;stroke:#0a072e;stroke-width:0.704;stroke-linecap:butt;stroke-linejoin:miter;stroke-miterlimit:10;stroke-dasharray:none;stroke-opacity:1"
             id="path708"
             inkscape:connector-curvature="0" /></g><g
           id="g710"
           transform="translate(432.4687,308.6216)"><path
             d="M 0,0 -4.492,0.417"
             style="fill:none;stroke:#0a072e;stroke-width:0.704;stroke-linecap:butt;stroke-linejoin:miter;stroke-miterlimit:10;stroke-dasharray:none;stroke-opacity:1"
             id="path712"
             inkscape:connector-curvature="0" /></g><g
           id="g714"
           transform="translate(434.5098,311.7197)"><path
             d="m 0,0 c 0,0 -1.932,-2.046 -2.325,-4.354 -0.393,-2.307 -1.54,-3.438 -2.644,-3.902 -1.103,-0.464 -0.986,0.494 -0.129,2.932 0.858,2.438 1.342,12.249 -2.49,11.482 0,0 -1.885,3.557 -4.463,1.273 -2.577,-2.285 -5.12,-7.509 -11.014,-9.857 -5.894,-2.348 -2.758,0.074 -3.046,3.848 -0.288,3.774 2.698,9.411 11.174,10.248 C -6.459,12.508 -0.618,10.581 0,0"
             style="fill:#fa375a;fill-opacity:1;fill-rule:nonzero;stroke:none"
             id="path716"
             inkscape:connector-curvature="0" /></g><g
           id="g718"
           transform="translate(433.4062,287.8057)"><path
             d="m 0,0 c 0,0 -6.893,-4.325 -10.946,-0.27 0,0 -1.667,-1.397 -6.893,-0.135 -5.225,1.261 -9.37,-4.775 -10.811,-8.92 0,0 2.703,-3.243 7.387,-6.667 0,0 -3.423,-6.306 -0.36,-12.793 3.063,-6.487 7.568,-19.101 7.568,-19.101 0,0 9.731,-4.143 22.704,0.721 0,0 1.802,12.614 5.586,24.326 3.785,11.713 2.928,14.911 -0.856,17.974 0,0 -11.577,1.982 -13.379,4.865"
             style="fill:#ddd9f7;fill-opacity:1;fill-rule:nonzero;stroke:none"
             id="path720"
             inkscape:connector-curvature="0" /></g><g
           id="g722"><g
             id="g724" /><g
             id="g736"><g
               clip-path="url(#clipPath728)"
               id="g734"><g
                 transform="translate(412.1436,271.814)"
                 id="g732"><path
                   d="M 0,0 2.523,5.045"
                   style="fill:none;stroke:#21061c;stroke-width:0.49399999;stroke-linecap:butt;stroke-linejoin:miter;stroke-miterlimit:10;stroke-dasharray:none;stroke-opacity:1"
                   id="path730"
                   inkscape:connector-curvature="0" /></g></g></g></g><g
           id="g738"
           transform="translate(413.6748,240.3037)"><path
             d="m 0,0 -10.837,40.99 c -0.353,1.338 -1.754,2.108 -3.072,1.689 l -17.406,-5.518 c -1.286,-0.408 -1.99,-1.786 -1.568,-3.067 L -22.086,1.339 c 0.285,-0.863 1.029,-1.495 1.928,-1.635 L -2.714,-3.012 C -0.987,-3.28 0.446,-1.689 0,0"
             style="fill:#eaebed;fill-opacity:1;fill-rule:nonzero;stroke:none"
             id="path740"
             inkscape:connector-curvature="0" /></g><g
           id="g742"
           transform="translate(410.7021,249.6504)"><path
             d="m 0,0 c 0,0 1.081,4.1 0.946,7.478 -0.168,4.188 -3.648,4.46 -3.648,4.46 0,0 0.676,-2.027 -0.181,-2.748 -1.364,-1.149 -4.415,-1.667 -7.838,-0.406 -3.424,1.262 -4.8,3.083 -6.082,1.802 -0.36,-0.36 0.361,-1.531 0.361,-1.531 0,0 -1.037,-0.541 0.046,-2.253 0,0 -1.262,-1.171 0.72,-2.477 0,0 -0.864,-0.398 1.126,-2.388 2.252,-2.252 6.712,-4.594 11.848,-6.216 C 2.148,-5.812 0,0 0,0"
             style="fill:#fab09d;fill-opacity:1;fill-rule:nonzero;stroke:none"
             id="path744"
             inkscape:connector-curvature="0" /></g><g
           id="g746"
           transform="translate(407.7295,245.7764)"><path
             d="M 0,0 C 0,0 15.136,-10.541 32.164,-2.162 46.589,4.936 46.759,39.372 37.209,37.029 27.659,34.687 36.058,9.044 22.704,5.136 11.622,1.893 2.252,7.298 2.252,7.298 Z"
             style="fill:#fab09d;fill-opacity:1;fill-rule:nonzero;stroke:none"
             id="path748"
             inkscape:connector-curvature="0" /></g><g
           id="g750"
           transform="translate(393.9971,267.228)"><path
             d="M 0,0 C 0.302,-1.266 -0.172,-2.464 -1.058,-2.675 -1.943,-2.886 -2.907,-2.032 -3.209,-0.766 -3.511,0.5 -3.037,1.698 -2.151,1.91 -1.265,2.121 -0.302,1.266 0,0"
             style="fill:#c7c8c9;fill-opacity:1;fill-rule:nonzero;stroke:none"
             id="path752"
             inkscape:connector-curvature="0" /></g><g
           id="g754"><g
             id="g756" /><g
             id="g768"><g
               clip-path="url(#clipPath760)"
               id="g766"><g
                 transform="translate(401.2422,254.5605)"
                 id="g764"><path
                   d="M 0,0 C 0,0 -4.459,1.487 -6.982,4.145"
                   style="fill:none;stroke:#21061c;stroke-width:0.49399999;stroke-linecap:butt;stroke-linejoin:miter;stroke-miterlimit:10;stroke-dasharray:none;stroke-opacity:1"
                   id="path762"
                   inkscape:connector-curvature="0" /></g></g></g></g><g
           id="g770"><g
             id="g772" /><g
             id="g784"><g
               clip-path="url(#clipPath776)"
               id="g782"><g
                 transform="translate(400.8369,252.6689)"
                 id="g780"><path
                   d="M 0,0 C 0,0 -4.729,1.351 -6.531,3.784"
                   style="fill:none;stroke:#21061c;stroke-width:0.49399999;stroke-linecap:butt;stroke-linejoin:miter;stroke-miterlimit:10;stroke-dasharray:none;stroke-opacity:1"
                   id="path778"
                   inkscape:connector-curvature="0" /></g></g></g></g><g
           id="g786"><g
             id="g788" /><g
             id="g800"><g
               clip-path="url(#clipPath792)"
               id="g798"><g
                 transform="translate(400.2969,251.1821)"
                 id="g796"><path
                   d="M 0,0 C 0,0 -4.055,1.216 -5.451,2.838"
                   style="fill:none;stroke:#21061c;stroke-width:0.49399999;stroke-linecap:butt;stroke-linejoin:miter;stroke-miterlimit:10;stroke-dasharray:none;stroke-opacity:1"
                   id="path794"
                   inkscape:connector-curvature="0" /></g></g></g></g><g
           id="g802"
           transform="translate(419.7568,286.8599)"><path
             d="m 0,0 c 0,0 5,-5.406 15.812,-0.676 0,0 -1.487,0.811 -2.433,2.433 0,0 -7.567,-3.784 -10.811,0 C 2.568,1.757 1.757,-0.135 0,0"
             style="fill:#e6e6ff;fill-opacity:1;fill-rule:nonzero;stroke:none"
             id="path804"
             inkscape:connector-curvature="0" /></g><g
           id="g806"
           transform="translate(435.5684,286.1841)"><path
             d="m 0,0 c 0,0 3.514,-1.487 6.487,-1.622 2.973,-0.135 6.081,-0.27 8.379,-5.27 2.297,-5.001 2.433,-11.352 2.433,-11.352 0,0 -9.191,-1.622 -15.137,-1.352 0,0 -2.026,10.677 -2.162,19.596"
             style="fill:#ddd9f7;fill-opacity:1;fill-rule:nonzero;stroke:none"
             id="path808"
             inkscape:connector-curvature="0" /></g><g
           id="g810"
           transform="translate(441.6045,241.2715)"><path
             d="m 0,0 c 0,0 15.007,-10.234 10.514,-57.408 -0.123,-1.097 -30.552,4.341 -45.677,14.226 l 8.986,24.71 c 0,0 1.311,10.184 1.852,17.932 0,0 12.433,-5.136 24.325,0.54"
             style="fill:#0a072e;fill-opacity:1;fill-rule:nonzero;stroke:none"
             id="path812"
             inkscape:connector-curvature="0" /></g></g></g></g></svg>