<svg id="fd703451-8627-4fb4-b91c-839674386a5c" data-name="Layer 1" xmlns="http://www.w3.org/2000/svg" xmlns:xlink="http://www.w3.org/1999/xlink" width="808.12" height="716.61" viewBox="0 0 808.12 716.61"><defs><linearGradient id="f6d3bb1d-15ec-4854-940f-13280debaf5b" x1="404.06" y1="716.61" x2="404.06" y2="268.61" gradientUnits="userSpaceOnUse"><stop offset="0" stop-color="gray" stop-opacity="0.25"/><stop offset="0.54" stop-color="gray" stop-opacity="0.12"/><stop offset="1" stop-color="gray" stop-opacity="0.1"/></linearGradient><linearGradient id="a498ae23-9b9f-4a47-a94f-6d30dfac653c" x1="210.22" y1="700.35" x2="210.22" y2="285.07" xlink:href="#f6d3bb1d-15ec-4854-940f-13280debaf5b"/><linearGradient id="b738e347-2fdb-4eba-b3a4-d012132b0a3a" x1="428.16" y1="792.05" x2="428.16" y2="376.77" gradientTransform="matrix(-1, 0, 0, 1, 1026.06, -91.7)" xlink:href="#f6d3bb1d-15ec-4854-940f-13280debaf5b"/><linearGradient id="adc2227b-1d66-4476-8773-8f6aa2f7c1bf" x1="175.09" y1="610.02" x2="175.09" y2="495.85" xlink:href="#f6d3bb1d-15ec-4854-940f-13280debaf5b"/><linearGradient id="ab8e0a79-438e-406a-baf1-b23883cb5b06" x1="584.09" y1="610.02" x2="584.09" y2="495.85" xlink:href="#f6d3bb1d-15ec-4854-940f-13280debaf5b"/><linearGradient id="a8d1abe7-2e31-4a5c-87ce-d827ae65e1bb" x1="872.5" y1="269.91" x2="872.5" y2="127.91" xlink:href="#f6d3bb1d-15ec-4854-940f-13280debaf5b"/><linearGradient id="f6b9cd8b-b462-4f50-93c1-a20a2ce0ab1a" x1="458.97" y1="247.52" x2="458.97" y2="101.87" gradientTransform="translate(634.16 -275.97) rotate(90)" xlink:href="#f6d3bb1d-15ec-4854-940f-13280debaf5b"/><linearGradient id="bd62e309-470e-4b30-8f51-6c93bf42a10c" x1="359.97" y1="267.52" x2="359.97" y2="121.87" gradientTransform="translate(553.22 -173.51) rotate(90)" xlink:href="#f6d3bb1d-15ec-4854-940f-13280debaf5b"/><linearGradient id="fa50aaad-124e-4b64-a144-43c1093c5a28" x1="395.06" y1="492.11" x2="413.06" y2="492.11" gradientUnits="userSpaceOnUse"><stop offset="0" stop-color="#fff" stop-opacity="0.12"/><stop offset="0.54" stop-color="gray" stop-opacity="0.12"/><stop offset="1" stop-color="#fff" stop-opacity="0.12"/></linearGradient></defs><title>Notebook</title><rect y="268.61" width="808.12" height="448" fill="url(#f6d3bb1d-15ec-4854-940f-13280debaf5b)"/><rect x="8.55" y="274.55" width="791.03" height="436.12" fill="#f5f5f5"/><rect x="16.37" y="285.07" width="387.68" height="415.29" fill="url(#a498ae23-9b9f-4a47-a94f-6d30dfac653c)"/><rect x="404.06" y="285.07" width="387.68" height="415.29" fill="url(#b738e347-2fdb-4eba-b3a4-d012132b0a3a)"/><rect x="22.65" y="291.34" width="381.41" height="402.74" fill="#fff"/><rect x="404.06" y="291.34" width="381.41" height="402.74" fill="#fff"/><rect x="56.52" y="318.94" width="268.49" height="15.06" fill="#38d39f" opacity="0.2"/><rect x="56.52" y="351.56" width="100.37" height="15.06" fill="#38d39f" opacity="0.2"/><rect x="194.53" y="351.56" width="100.37" height="15.06" fill="#38d39f" opacity="0.2"/><rect x="224.64" y="638.88" width="100.37" height="15.06" fill="#38d39f"/><rect x="224.64" y="638.88" width="100.37" height="15.06" opacity="0.2"/><rect x="56.52" y="384.19" width="268.49" height="15.06" fill="#38d39f" opacity="0.2"/><rect x="56.52" y="416.81" width="160.59" height="15.06" fill="#38d39f" opacity="0.2"/><rect x="463.03" y="318.94" width="268.49" height="15.06" fill="#38d39f" opacity="0.2"/><rect x="463.03" y="351.56" width="100.37" height="15.06" fill="#38d39f" opacity="0.2"/><rect x="601.04" y="351.56" width="100.37" height="15.06" fill="#38d39f" opacity="0.2"/><rect x="463.03" y="384.19" width="268.49" height="15.06" fill="#38d39f" opacity="0.2"/><rect x="463.03" y="416.81" width="160.59" height="15.06" fill="#38d39f" opacity="0.2"/><rect x="52.76" y="495.85" width="244.66" height="114.17" fill="url(#adc2227b-1d66-4476-8773-8f6aa2f7c1bf)"/><rect x="56.52" y="500.87" width="238.38" height="105.39" fill="#38d39f"/><rect x="461.76" y="495.85" width="244.66" height="114.17" fill="url(#ab8e0a79-438e-406a-baf1-b23883cb5b06)"/><rect x="465.52" y="500.87" width="238.38" height="105.39" fill="#38d39f"/><line x1="648" y1="569.33" x2="664.32" y2="578.71" fill="#fccc63" stroke="#37474f" stroke-linecap="round" stroke-miterlimit="10" stroke-width="5"/><line x1="462.51" y1="462.78" x2="478.83" y2="472.15" fill="#fccc63" stroke="#37474f" stroke-linecap="round" stroke-miterlimit="10" stroke-width="5"/><circle cx="608.83" cy="546.84" r="45.17" fill="#cfd8dc"/><circle cx="518.31" cy="494.11" r="45.17" fill="#cfd8dc"/><circle cx="518.31" cy="494.11" r="38.89" fill="#fff" opacity="0.2"/><circle cx="609.69" cy="546.6" r="38.89" fill="#fff" opacity="0.2"/><line x1="557.24" y1="515.75" x2="570.29" y2="523.25" fill="#fccc63" stroke="#37474f" stroke-miterlimit="10" stroke-width="5"/><path d="M685.64,575.16a38.89,38.89,0,0,1,64.42-4.51,38.89,38.89,0,1,0-66.51,39A38.82,38.82,0,0,1,685.64,575.16Z" transform="translate(-195.94 -91.7)" fill="#fff" opacity="0.2"/><path d="M777,627.65a38.91,38.91,0,0,1,64.43-4.51,38.9,38.9,0,1,0-66.52,39.05A38.87,38.87,0,0,1,777,627.65Z" transform="translate(-195.94 -91.7)" fill="#fff" opacity="0.2"/><path d="M950.92,188.37h-24.5c-4.66-34.7-34.37-60.46-70.35-60.46a71,71,0,1,0,0,142c36.35,0,66.29-26.31,70.48-61.52h24.37c5,0,9-5.06,9-10S955.87,188.37,950.92,188.37Z" transform="translate(-195.94 -91.7)" fill="url(#a8d1abe7-2e31-4a5c-87ce-d827ae65e1bb)"/><path d="M946.5,189.91H923.38a67,67,0,1,0,.13,17h23a8.5,8.5,0,0,0,0-17Z" transform="translate(-195.94 -91.7)" fill="#f2f2f2"/><circle cx="663.06" cy="107.21" r="52" fill="#985454"/><path d="M867,155.91s35,2,32,46" transform="translate(-195.94 -91.7)" fill="none" stroke="#fff" stroke-miterlimit="10" stroke-width="4" opacity="0.2"/><rect x="386.64" y="64.51" width="145.65" height="236.99" transform="translate(7.51 514.45) rotate(-80.54)" fill="url(#f6b9cd8b-b462-4f50-93c1-a20a2ce0ab1a)"/><rect x="392.79" y="67.49" width="135.93" height="228.96" transform="translate(9.61 514.86) rotate(-80.54)" fill="#fff"/><g opacity="0.6"><rect x="542.67" y="139.79" width="29.13" height="21.56" transform="translate(-163.62 -181.22) rotate(9.46)" fill="#38d39f"/><rect x="428.86" y="184.91" width="111.86" height="6.99" transform="translate(-158.39 -168.8) rotate(9.46)" fill="#38d39f"/><rect x="426.38" y="199.67" width="81.56" height="4.66" transform="translate(-156.4 -165.72) rotate(9.46)" fill="#38d39f"/></g><rect x="285.7" y="67.97" width="145.65" height="236.99" transform="translate(-80.26 417.78) rotate(-80.54)" fill="url(#bd62e309-470e-4b30-8f51-6c93bf42a10c)"/><rect x="291.85" y="70.95" width="135.93" height="228.96" transform="translate(-78.16 418.18) rotate(-80.54)" fill="#fff"/><g opacity="0.6"><rect x="441.73" y="143.25" width="29.13" height="21.56" transform="translate(-164.43 -164.58) rotate(9.46)" fill="#38d39f"/><rect x="327.92" y="188.37" width="111.86" height="6.99" transform="translate(-159.2 -152.16) rotate(9.46)" fill="#38d39f"/><rect x="325.44" y="203.13" width="81.56" height="4.66" transform="translate(-157.2 -149.08) rotate(9.46)" fill="#38d39f"/></g><rect x="395.06" y="290.61" width="18" height="403" fill="url(#fa50aaad-124e-4b64-a144-43c1093c5a28)"/></svg>