<?xml version="1.0" encoding="UTF-8" standalone="no"?>
<svg
   xmlns:dc="http://purl.org/dc/elements/1.1/"
   xmlns:cc="http://creativecommons.org/ns#"
   xmlns:rdf="http://www.w3.org/1999/02/22-rdf-syntax-ns#"
   xmlns:svg="http://www.w3.org/2000/svg"
   xmlns="http://www.w3.org/2000/svg"
   xmlns:sodipodi="http://sodipodi.sourceforge.net/DTD/sodipodi-0.dtd"
   xmlns:inkscape="http://www.inkscape.org/namespaces/inkscape"
   width="800"
   height="600"
   version="1.1"
   id="svg316"
   sodipodi:docname="Spectacles.svg"
   inkscape:version="0.92.2 (5c3e80d, 2017-08-06)">
  <metadata
     id="metadata320">
    <rdf:RDF>
      <cc:Work
         rdf:about="">
        <dc:format>image/svg+xml</dc:format>
        <dc:type
           rdf:resource="http://purl.org/dc/dcmitype/StillImage" />
        <dc:title />
      </cc:Work>
    </rdf:RDF>
  </metadata>
  <sodipodi:namedview
     pagecolor="#ffffff"
     bordercolor="#666666"
     borderopacity="1"
     objecttolerance="10"
     gridtolerance="10"
     guidetolerance="10"
     inkscape:pageopacity="0"
     inkscape:pageshadow="2"
     inkscape:window-width="1600"
     inkscape:window-height="1133"
     id="namedview318"
     showgrid="false"
     inkscape:zoom="1.1125147"
     inkscape:cx="364.80162"
     inkscape:cy="343.64915"
     inkscape:window-x="-9"
     inkscape:window-y="-9"
     inkscape:window-maximized="1"
     inkscape:current-layer="svg316" />
  <rect
     width="800"
     height="600"
     id="rect4"
     stroke="none"
     fill-opacity="0"
     fill="rgb(255,255,255)" />
  <defs
     id="defs13">
    <clipPath
       id="clip_0">
      <rect
         width="800"
         height="600"
         id="rect10"
         clip-rule="evenodd" />
    </clipPath>
  </defs>
  <g
     clip-path="url(#clip_0)"
     id="g17">
    <path
       stroke-miterlimit="4"
       transform="translate(200.5 221.095)"
       d="M234.981 15.9382C247.926 20.9832 255.661 17.2622 266.947 11.8042C279.132 5.91122 292.208 1.91622 305.669 0.500225C309.644 0.0822246 313.704 -0.121775 317.465 0.0762246C324.048 0.423225 330.169 1.94822 334.971 3.55422C345.599 7.10922 356.363 10.2842 367.318 12.6432C384.07 16.2512 388.384 17.0262 392.393 17.4562C396.881 17.9382 400.163 21.8822 400.201 26.3952C400.324 41.0962 399.111 73.4732 387.83 103.327C375.743 135.311 346.277 158.405 310.519 158.405C246.821 158.405 226.53 97.6102 219.799 79.1382C217.745 73.5002 217.196 68.9162 217.425 65.2682C217.773 59.7312 221.015 54.9122 225.49 51.6332C229.118 48.9742 231.252 45.7202 231.252 42.2072C231.252 33.2252 217.307 25.9442 200.104 25.9442C182.902 25.9442 168.957 33.2252 168.957 42.2072C168.957 45.7202 171.091 48.9742 174.719 51.6332C179.194 54.9122 182.436 59.7312 182.784 65.2682C183.013 68.9162 182.464 73.5002 180.41 79.1382C173.678 97.6102 153.388 158.405 89.6898 158.405C53.9318 158.405 24.4658 135.311 12.3788 103.327C1.0968 73.4732 -0.115205 41.0962 0.00779516 26.3952C0.0457952 21.8822 3.3278 17.9382 7.81579 17.4562C11.8248 17.0262 16.1378 16.2512 32.8908 12.6432C43.8458 10.2842 54.6098 7.10922 65.2378 3.55422C70.0398 1.94822 76.1608 0.423225 82.7428 0.0762246C86.5048 -0.121775 90.5648 0.0822246 94.5398 0.500225C108.001 1.91622 121.077 5.91122 133.262 11.8042C144.548 17.2622 152.283 20.9832 165.228 15.9382C175.035 12.1152 185.662 7.73122 198.623 7.73122L201.586 7.73122C214.547 7.73122 225.174 12.1152 234.981 15.9382Z"
       id="path15"
       stroke-width="5"
       stroke="rgb(29,29,27)"
       fill="none" />
  </g>
  <defs
     id="defs22">
    <clipPath
       id="clip_1">
      <rect
         width="800"
         height="600"
         id="rect19"
         clip-rule="evenodd" />
    </clipPath>
  </defs>
  <g
     clip-path="url(#clip_1)"
     id="g26">
    <path
       transform="translate(207.956 244.078)"
       d="M0 19.327C0 8.653 8.653 0 19.327 0C30.001 0 38.654 8.653 38.654 19.327C38.654 30.001 30.001 38.654 19.327 38.654C18.93 38.654 18.535 38.642 18.144 38.618C8.021 38.007 0 29.604 0 19.327L0 19.327Z"
       id="path24"
       stroke="none"
       fill="rgb(216,216,216)" />
  </g>
  <defs
     id="defs31">
    <clipPath
       id="clip_2">
      <rect
         width="800"
         height="600"
         id="rect28"
         clip-rule="evenodd" />
    </clipPath>
  </defs>
  <g
     clip-path="url(#clip_2)"
     id="g35">
    <path
       stroke-miterlimit="4"
       transform="translate(207.956 244.078)"
       d="M0 19.327C0 8.653 8.653 0 19.327 0C30.001 0 38.654 8.653 38.654 19.327C38.654 30.001 30.001 38.654 19.327 38.654C18.93 38.654 18.535 38.642 18.144 38.618C8.021 38.007 0 29.604 0 19.327L0 19.327Z"
       id="path33"
       stroke-width="3"
       stroke="rgb(29,29,27)"
       fill="none" />
  </g>
  <defs
     id="defs40">
    <clipPath
       id="clip_3">
      <rect
         width="800"
         height="600"
         id="rect37"
         clip-rule="evenodd" />
    </clipPath>
  </defs>
  <g
     clip-path="url(#clip_3)"
     id="g44">
    <path
       transform="translate(214.085 250.207)"
       d="M0 13.198C0 5.909 5.909 0 13.198 0C20.487 0 26.396 5.909 26.396 13.198C26.396 20.487 20.487 26.396 13.198 26.396C5.909 26.396 0 20.487 0 13.198"
       id="path42"
       stroke="none"
       fill="rgb(29,29,27)" />
  </g>
  <defs
     id="defs49">
    <clipPath
       id="clip_4">
      <rect
         width="800"
         height="600"
         id="rect46"
         clip-rule="evenodd" />
    </clipPath>
  </defs>
  <g
     clip-path="url(#clip_4)"
     id="g53">
    <path
       stroke-miterlimit="4"
       transform="translate(214.085 250.207)"
       d="M0 13.198C0 5.909 5.909 0 13.198 0C20.487 0 26.396 5.909 26.396 13.198C26.396 20.487 20.487 26.396 13.198 26.396C5.909 26.396 0 20.487 0 13.198L0 13.198Z"
       id="path51"
       stroke-width="2"
       stroke="rgb(29,29,27)"
       fill="none" />
  </g>
  <defs
     id="defs58">
    <clipPath
       id="clip_5">
      <rect
         width="800"
         height="600"
         id="rect55"
         clip-rule="evenodd" />
    </clipPath>
  </defs>
  <g
     clip-path="url(#clip_5)"
     id="g62">
    <path
       stroke-miterlimit="4"
       transform="translate(554.598 244.078)"
       d="M38.654 19.327C38.654 8.653 30.001 0 19.327 0C8.653 0 0 8.653 0 19.327C0 30.001 8.653 38.654 19.327 38.654C19.724 38.654 20.119 38.642 20.51 38.618C30.633 38.007 38.654 29.604 38.654 19.327L38.654 19.327Z"
       id="path60"
       stroke-width="3"
       stroke="rgb(29,29,27)"
       fill="none" />
  </g>
  <defs
     id="defs67">
    <clipPath
       id="clip_6">
      <rect
         width="800"
         height="600"
         id="rect64"
         clip-rule="evenodd" />
    </clipPath>
  </defs>
  <g
     clip-path="url(#clip_6)"
     id="g71">
    <path
       transform="translate(560.727 250.207)"
       d="M26.396 13.198C26.396 5.909 20.487 0 13.198 0C5.909 0 0 5.909 0 13.198C0 20.487 5.909 26.396 13.198 26.396C20.487 26.396 26.396 20.487 26.396 13.198"
       id="path69"
       stroke="none"
       fill="rgb(29,29,27)" />
  </g>
  <defs
     id="defs76">
    <clipPath
       id="clip_7">
      <rect
         width="800"
         height="600"
         id="rect73"
         clip-rule="evenodd" />
    </clipPath>
  </defs>
  <g
     clip-path="url(#clip_7)"
     id="g80">
    <path
       stroke-miterlimit="4"
       transform="translate(560.727 250.207)"
       d="M26.396 13.198C26.396 5.909 20.487 0 13.198 0C5.909 0 0 5.909 0 13.198C0 20.487 5.909 26.396 13.198 26.396C20.487 26.396 26.396 20.487 26.396 13.198L26.396 13.198Z"
       id="path78"
       stroke-width="2"
       stroke="rgb(29,29,27)"
       fill="none" />
  </g>
  <defs
     id="defs85">
    <clipPath
       id="clip_8">
      <rect
         width="800"
         height="600"
         id="rect82"
         clip-rule="evenodd" />
    </clipPath>
  </defs>
  <g
     clip-path="url(#clip_8)"
     id="g89">
    <path
       transform="translate(572.276 251.224)"
       d="M1.649 0C2.559 0 3.297 0.738 3.297 1.649C3.297 2.559 2.559 3.297 1.649 3.297C0.739 3.297 0 2.559 0 1.649C0 0.738 0.739 0 1.649 0"
       id="path87"
       stroke="none"
       fill="rgb(255,255,255)" />
  </g>
  <defs
     id="defs94">
    <clipPath
       id="clip_9">
      <rect
         width="800"
         height="600"
         id="rect91"
         clip-rule="evenodd" />
    </clipPath>
  </defs>
  <g
     clip-path="url(#clip_9)"
     id="g98">
    <path
       stroke-miterlimit="4"
       transform="translate(572.276 251.224)"
       d="M1.649 0C2.559 0 3.297 0.738 3.297 1.649C3.297 2.559 2.559 3.297 1.649 3.297C0.739 3.297 0 2.559 0 1.649C0 0.738 0.739 0 1.649 0L1.649 0Z"
       id="path96"
       stroke-width="0.25"
       stroke="rgb(29,29,27)"
       fill="none" />
  </g>
  <defs
     id="defs103">
    <clipPath
       id="clip_10">
      <rect
         width="800"
         height="600"
         id="rect100"
         clip-rule="evenodd" />
    </clipPath>
  </defs>
  <g
     clip-path="url(#clip_10)"
     id="g107">
    <path
       transform="translate(567.01 252.635)"
       d="M0.824477 0.221033C1.61248 -0.233967 2.62148 0.0360325 3.07648 0.824033C3.53148 1.61303 3.26148 2.62103 2.47348 3.07603C1.68448 3.53203 0.676477 3.26103 0.221477 2.47303C-0.234523 1.68403 0.0364769 0.676033 0.824477 0.221033"
       id="path105"
       stroke="none"
       fill="rgb(255,255,255)" />
  </g>
  <defs
     id="defs112">
    <clipPath
       id="clip_11">
      <rect
         width="800"
         height="600"
         id="rect109"
         clip-rule="evenodd" />
    </clipPath>
  </defs>
  <g
     clip-path="url(#clip_11)"
     id="g116">
    <path
       stroke-miterlimit="4"
       transform="translate(567.01 252.635)"
       d="M0.824477 0.221033C1.61248 -0.233967 2.62148 0.0360325 3.07648 0.824033C3.53148 1.61303 3.26148 2.62103 2.47348 3.07603C1.68448 3.53203 0.676477 3.26103 0.221477 2.47303C-0.234523 1.68403 0.0364769 0.676033 0.824477 0.221033L0.824477 0.221033Z"
       id="path114"
       stroke-width="0.25"
       stroke="rgb(29,29,27)"
       fill="none" />
  </g>
  <defs
     id="defs121">
    <clipPath
       id="clip_12">
      <rect
         width="800"
         height="600"
         id="rect118"
         clip-rule="evenodd" />
    </clipPath>
  </defs>
  <g
     clip-path="url(#clip_12)"
     id="g125">
    <path
       transform="translate(563.155 256.49)"
       d="M0.221033 0.824477C0.676033 0.0364769 1.68403 -0.234523 2.47303 0.221477C3.26103 0.676477 3.53203 1.68448 3.07603 2.47348C2.62103 3.26148 1.61303 3.53148 0.824033 3.07648C0.0360325 2.62148 -0.233967 1.61248 0.221033 0.824477"
       id="path123"
       stroke="none"
       fill="rgb(255,255,255)" />
  </g>
  <defs
     id="defs130">
    <clipPath
       id="clip_13">
      <rect
         width="800"
         height="600"
         id="rect127"
         clip-rule="evenodd" />
    </clipPath>
  </defs>
  <g
     clip-path="url(#clip_13)"
     id="g134">
    <path
       stroke-miterlimit="4"
       transform="translate(563.155 256.49)"
       d="M0.221033 0.824477C0.676033 0.0364769 1.68403 -0.234523 2.47303 0.221477C3.26103 0.676477 3.53203 1.68448 3.07603 2.47348C2.62103 3.26148 1.61303 3.53148 0.824033 3.07648C0.0360325 2.62148 -0.233967 1.61248 0.221033 0.824477L0.221033 0.824477Z"
       id="path132"
       stroke-width="0.25"
       stroke="rgb(29,29,27)"
       fill="none" />
  </g>
  <defs
     id="defs139">
    <clipPath
       id="clip_14">
      <rect
         width="800"
         height="600"
         id="rect136"
         clip-rule="evenodd" />
    </clipPath>
  </defs>
  <g
     clip-path="url(#clip_14)"
     id="g143">
    <path
       transform="translate(561.744 261.756)"
       d="M0 1.649C0 0.739 0.738 0 1.649 0C2.559 0 3.297 0.739 3.297 1.649C3.297 2.559 2.559 3.298 1.649 3.298C0.738 3.298 0 2.559 0 1.649"
       id="path141"
       stroke="none"
       fill="rgb(255,255,255)" />
  </g>
  <defs
     id="defs148">
    <clipPath
       id="clip_15">
      <rect
         width="800"
         height="600"
         id="rect145"
         clip-rule="evenodd" />
    </clipPath>
  </defs>
  <g
     clip-path="url(#clip_15)"
     id="g152">
    <path
       stroke-miterlimit="4"
       transform="translate(561.744 261.756)"
       d="M0 1.649C0 0.739 0.738 0 1.649 0C2.559 0 3.297 0.739 3.297 1.649C3.297 2.559 2.559 3.298 1.649 3.298C0.738 3.298 0 2.559 0 1.649L0 1.649Z"
       id="path150"
       stroke-width="0.25"
       stroke="rgb(29,29,27)"
       fill="none" />
  </g>
  <defs
     id="defs157">
    <clipPath
       id="clip_16">
      <rect
         width="800"
         height="600"
         id="rect154"
         clip-rule="evenodd" />
    </clipPath>
  </defs>
  <g
     clip-path="url(#clip_16)"
     id="g161">
    <path
       transform="translate(563.155 267.023)"
       d="M0.221033 2.47303C-0.233967 1.68503 0.0360325 0.676033 0.824033 0.221033C1.61303 -0.233967 2.62103 0.0360325 3.07603 0.824033C3.53203 1.61303 3.26103 2.62103 2.47303 3.07603C1.68403 3.53203 0.676033 3.26103 0.221033 2.47303"
       id="path159"
       stroke="none"
       fill="rgb(255,255,255)" />
  </g>
  <defs
     id="defs166">
    <clipPath
       id="clip_17">
      <rect
         width="800"
         height="600"
         id="rect163"
         clip-rule="evenodd" />
    </clipPath>
  </defs>
  <g
     clip-path="url(#clip_17)"
     id="g170">
    <path
       stroke-miterlimit="4"
       transform="translate(563.155 267.023)"
       d="M0.221033 2.47303C-0.233967 1.68503 0.0360325 0.676033 0.824033 0.221033C1.61303 -0.233967 2.62103 0.0360325 3.07603 0.824033C3.53203 1.61303 3.26103 2.62103 2.47303 3.07603C1.68403 3.53203 0.676033 3.26103 0.221033 2.47303L0.221033 2.47303Z"
       id="path168"
       stroke-width="0.25"
       stroke="rgb(29,29,27)"
       fill="none" />
  </g>
  <defs
     id="defs175">
    <clipPath
       id="clip_18">
      <rect
         width="800"
         height="600"
         id="rect172"
         clip-rule="evenodd" />
    </clipPath>
  </defs>
  <g
     clip-path="url(#clip_18)"
     id="g179">
    <path
       transform="translate(567.01 270.878)"
       d="M0.824477 3.07648C0.0364769 2.62148 -0.234523 1.61348 0.221477 0.824477C0.676477 0.0364769 1.68448 -0.234523 2.47348 0.221477C3.26148 0.676477 3.53148 1.68448 3.07648 2.47348C2.62148 3.26148 1.61248 3.53148 0.824477 3.07648"
       id="path177"
       stroke="none"
       fill="rgb(255,255,255)" />
  </g>
  <defs
     id="defs184">
    <clipPath
       id="clip_19">
      <rect
         width="800"
         height="600"
         id="rect181"
         clip-rule="evenodd" />
    </clipPath>
  </defs>
  <g
     clip-path="url(#clip_19)"
     id="g188">
    <path
       stroke-miterlimit="4"
       transform="translate(567.01 270.878)"
       d="M0.824477 3.07648C0.0364769 2.62148 -0.234523 1.61348 0.221477 0.824477C0.676477 0.0364769 1.68448 -0.234523 2.47348 0.221477C3.26148 0.676477 3.53148 1.68448 3.07648 2.47348C2.62148 3.26148 1.61248 3.53148 0.824477 3.07648L0.824477 3.07648Z"
       id="path186"
       stroke-width="0.25"
       stroke="rgb(29,29,27)"
       fill="none" />
  </g>
  <defs
     id="defs193">
    <clipPath
       id="clip_20">
      <rect
         width="800"
         height="600"
         id="rect190"
         clip-rule="evenodd" />
    </clipPath>
  </defs>
  <g
     clip-path="url(#clip_20)"
     id="g197">
    <path
       transform="translate(572.276 272.29)"
       d="M1.649 3.297C0.739 3.297 0 2.559 0 1.648C0 0.738 0.739 0 1.649 0C2.559 0 3.297 0.738 3.297 1.648C3.297 2.559 2.559 3.297 1.649 3.297"
       id="path195"
       stroke="none"
       fill="rgb(255,255,255)" />
  </g>
  <defs
     id="defs202">
    <clipPath
       id="clip_21">
      <rect
         width="800"
         height="600"
         id="rect199"
         clip-rule="evenodd" />
    </clipPath>
  </defs>
  <g
     clip-path="url(#clip_21)"
     id="g206">
    <path
       stroke-miterlimit="4"
       transform="translate(572.276 272.29)"
       d="M1.649 3.297C0.739 3.297 0 2.559 0 1.648C0 0.738 0.739 0 1.649 0C2.559 0 3.297 0.738 3.297 1.648C3.297 2.559 2.559 3.297 1.649 3.297L1.649 3.297Z"
       id="path204"
       stroke-width="0.25"
       stroke="rgb(29,29,27)"
       fill="none" />
  </g>
  <defs
     id="defs211">
    <clipPath
       id="clip_22">
      <rect
         width="800"
         height="600"
         id="rect208"
         clip-rule="evenodd" />
    </clipPath>
  </defs>
  <g
     clip-path="url(#clip_22)"
     id="g215">
    <path
       transform="translate(577.543 270.878)"
       d="M2.47303 3.07648C1.68503 3.53148 0.676033 3.26148 0.221033 2.47348C-0.233967 1.68448 0.0360325 0.676477 0.824033 0.221477C1.61303 -0.234523 2.62103 0.0364769 3.07603 0.824477C3.53203 1.61348 3.26103 2.62148 2.47303 3.07648"
       id="path213"
       stroke="none"
       fill="rgb(255,255,255)" />
  </g>
  <defs
     id="defs220">
    <clipPath
       id="clip_23">
      <rect
         width="800"
         height="600"
         id="rect217"
         clip-rule="evenodd" />
    </clipPath>
  </defs>
  <g
     clip-path="url(#clip_23)"
     id="g224">
    <path
       stroke-miterlimit="4"
       transform="translate(577.543 270.878)"
       d="M2.47303 3.07648C1.68503 3.53148 0.676033 3.26148 0.221033 2.47348C-0.233967 1.68448 0.0360325 0.676477 0.824033 0.221477C1.61303 -0.234523 2.62103 0.0364769 3.07603 0.824477C3.53203 1.61348 3.26103 2.62148 2.47303 3.07648L2.47303 3.07648Z"
       id="path222"
       stroke-width="0.25"
       stroke="rgb(29,29,27)"
       fill="none" />
  </g>
  <defs
     id="defs229">
    <clipPath
       id="clip_24">
      <rect
         width="800"
         height="600"
         id="rect226"
         clip-rule="evenodd" />
    </clipPath>
  </defs>
  <g
     clip-path="url(#clip_24)"
     id="g233">
    <path
       transform="translate(581.398 267.023)"
       d="M3.07648 2.47303C2.62148 3.26103 1.61348 3.53203 0.824477 3.07603C0.0364769 2.62103 -0.234523 1.61303 0.221477 0.824033C0.676477 0.0360325 1.68448 -0.233967 2.47348 0.221033C3.26148 0.676033 3.53148 1.68503 3.07648 2.47303"
       id="path231"
       stroke="none"
       fill="rgb(255,255,255)" />
  </g>
  <defs
     id="defs238">
    <clipPath
       id="clip_25">
      <rect
         width="800"
         height="600"
         id="rect235"
         clip-rule="evenodd" />
    </clipPath>
  </defs>
  <g
     clip-path="url(#clip_25)"
     id="g242">
    <path
       stroke-miterlimit="4"
       transform="translate(581.398 267.023)"
       d="M3.07648 2.47303C2.62148 3.26103 1.61348 3.53203 0.824477 3.07603C0.0364769 2.62103 -0.234523 1.61303 0.221477 0.824033C0.676477 0.0360325 1.68448 -0.233967 2.47348 0.221033C3.26148 0.676033 3.53148 1.68503 3.07648 2.47303L3.07648 2.47303Z"
       id="path240"
       stroke-width="0.25"
       stroke="rgb(29,29,27)"
       fill="none" />
  </g>
  <defs
     id="defs247">
    <clipPath
       id="clip_26">
      <rect
         width="800"
         height="600"
         id="rect244"
         clip-rule="evenodd" />
    </clipPath>
  </defs>
  <g
     clip-path="url(#clip_26)"
     id="g251">
    <path
       transform="translate(582.81 261.756)"
       d="M3.297 1.649C3.297 2.559 2.559 3.298 1.648 3.298C0.738 3.298 0 2.559 0 1.649C0 0.739 0.738 0 1.648 0C2.559 0 3.297 0.739 3.297 1.649"
       id="path249"
       stroke="none"
       fill="rgb(255,255,255)" />
  </g>
  <defs
     id="defs256">
    <clipPath
       id="clip_27">
      <rect
         width="800"
         height="600"
         id="rect253"
         clip-rule="evenodd" />
    </clipPath>
  </defs>
  <g
     clip-path="url(#clip_27)"
     id="g260">
    <path
       stroke-miterlimit="4"
       transform="translate(582.81 261.756)"
       d="M3.297 1.649C3.297 2.559 2.559 3.298 1.648 3.298C0.738 3.298 0 2.559 0 1.649C0 0.739 0.738 0 1.648 0C2.559 0 3.297 0.739 3.297 1.649L3.297 1.649Z"
       id="path258"
       stroke-width="0.25"
       stroke="rgb(29,29,27)"
       fill="none" />
  </g>
  <defs
     id="defs265">
    <clipPath
       id="clip_28">
      <rect
         width="800"
         height="600"
         id="rect262"
         clip-rule="evenodd" />
    </clipPath>
  </defs>
  <g
     clip-path="url(#clip_28)"
     id="g269">
    <path
       transform="translate(581.398 256.49)"
       d="M3.07648 0.824477C3.53148 1.61248 3.26148 2.62148 2.47348 3.07648C1.68448 3.53148 0.676477 3.26148 0.221477 2.47348C-0.234523 1.68448 0.0364769 0.676477 0.824477 0.221477C1.61348 -0.234523 2.62148 0.0364769 3.07648 0.824477"
       id="path267"
       stroke="none"
       fill="rgb(255,255,255)" />
  </g>
  <defs
     id="defs274">
    <clipPath
       id="clip_29">
      <rect
         width="800"
         height="600"
         id="rect271"
         clip-rule="evenodd" />
    </clipPath>
  </defs>
  <g
     clip-path="url(#clip_29)"
     id="g278">
    <path
       stroke-miterlimit="4"
       transform="translate(581.398 256.49)"
       d="M3.07648 0.824477C3.53148 1.61248 3.26148 2.62148 2.47348 3.07648C1.68448 3.53148 0.676477 3.26148 0.221477 2.47348C-0.234523 1.68448 0.0364769 0.676477 0.824477 0.221477C1.61348 -0.234523 2.62148 0.0364769 3.07648 0.824477L3.07648 0.824477Z"
       id="path276"
       stroke-width="0.25"
       stroke="rgb(29,29,27)"
       fill="none" />
  </g>
  <defs
     id="defs283">
    <clipPath
       id="clip_30">
      <rect
         width="800"
         height="600"
         id="rect280"
         clip-rule="evenodd" />
    </clipPath>
  </defs>
  <g
     clip-path="url(#clip_30)"
     id="g287">
    <path
       transform="translate(577.543 252.635)"
       d="M2.47303 0.221033C3.26103 0.676033 3.53203 1.68403 3.07603 2.47303C2.62103 3.26103 1.61303 3.53203 0.824033 3.07603C0.0360325 2.62103 -0.233967 1.61303 0.221033 0.824033C0.676033 0.0360325 1.68503 -0.233967 2.47303 0.221033"
       id="path285"
       stroke="none"
       fill="rgb(255,255,255)" />
  </g>
  <defs
     id="defs292">
    <clipPath
       id="clip_31">
      <rect
         width="800"
         height="600"
         id="rect289"
         clip-rule="evenodd" />
    </clipPath>
  </defs>
  <g
     clip-path="url(#clip_31)"
     id="g296">
    <path
       stroke-miterlimit="4"
       transform="translate(577.543 252.635)"
       d="M2.47303 0.221033C3.26103 0.676033 3.53203 1.68403 3.07603 2.47303C2.62103 3.26103 1.61303 3.53203 0.824033 3.07603C0.0360325 2.62103 -0.233967 1.61303 0.221033 0.824033C0.676033 0.0360325 1.68503 -0.233967 2.47303 0.221033L2.47303 0.221033Z"
       id="path294"
       stroke-width="0.25"
       stroke="rgb(29,29,27)"
       fill="none" />
  </g>
  <defs
     id="defs301">
    <clipPath
       id="clip_32">
      <rect
         width="800"
         height="600"
         id="rect298"
         clip-rule="evenodd" />
    </clipPath>
  </defs>
  <g
     clip-path="url(#clip_32)"
     id="g305"
     style="fill:#1d1d1b;fill-opacity:1">
    <path
       stroke-miterlimit="4"
       transform="translate(223.857 234.028)"
       d="M124.055 99.2109C142.117 67.2359 130.839 26.6729 98.8645 8.60987C75.1435 -4.78914 46.6965 -2.04114 26.2145 13.3259C32.5825 22.1749 33.5575 34.2949 27.7225 44.3269C21.9525 54.1769 11.1435 59.3089 0.430478 58.2969C-2.48452 83.7369 9.51548 109.675 33.0635 123.377C64.8045 141.847 105.508 131.087 123.978 99.3459L124.055 99.2109L124.055 99.2109Z"
       id="path303"
       stroke-width="4"
       stroke="rgb(29,29,27)"
       fill="none"
       style="fill:#1d1d1b;fill-opacity:1" />
  </g>
  <defs
     id="defs310">
    <clipPath
       id="clip_33">
      <rect
         width="800"
         height="600"
         id="rect307"
         clip-rule="evenodd" />
    </clipPath>
  </defs>
  <g
     clip-path="url(#clip_33)"
     id="g314"
     style="fill:#1d1d1b;fill-opacity:1">
    <path
       stroke-miterlimit="4"
       transform="translate(444.686 234.028)"
       d="M8.6103 99.2109C-9.4517 67.2359 1.8263 26.6729 33.8013 8.60987C57.5223 -4.78914 85.9693 -2.04114 106.451 13.3259C100.083 22.1749 99.1083 34.2949 104.943 44.3269C110.713 54.1769 121.522 59.3089 132.235 58.2969C135.15 83.7369 123.15 109.675 99.6023 123.377C67.8613 141.847 27.1573 131.087 8.6873 99.3459L8.6103 99.2109L8.6103 99.2109Z"
       id="path312"
       stroke-width="4"
       stroke="rgb(29,29,27)"
       fill="none"
       style="fill:#1d1d1b;fill-opacity:1" />
  </g>
</svg>
