<?xml version="1.0" encoding="utf-8"?>
<!-- Generator: Adobe Illustrator 15.0.0, SVG Export Plug-In . SVG Version: 6.00 Build 0)  -->
<!DOCTYPE svg PUBLIC "-//W3C//DTD SVG 1.1//EN" "http://www.w3.org/Graphics/SVG/1.1/DTD/svg11.dtd">
<svg version="1.1" id="Layer_1" xmlns="http://www.w3.org/2000/svg" xmlns:xlink="http://www.w3.org/1999/xlink" x="0px" y="0px"
	 width="634.016px" height="329.787px" viewBox="0 0 634.016 329.787" enable-background="new 0 0 634.016 329.787"
	 xml:space="preserve">
<g id="Workspace_1">
	<g>
		<path fill="#FFFFFF" d="M380.249,162.167c0,5.97-4.84,10.81-10.811,10.81H260.263c-5.971,0-10.81-4.84-10.81-10.81l10.81-42.157
			h109.175L380.249,162.167z"/>
		<path fill="#CDD0E0" d="M369.438,174.598H260.263c-6.854,0-12.431-5.576-12.431-12.431l0.051-0.403l11.121-43.375h111.691
			l11.174,43.778C381.87,169.021,376.293,174.598,369.438,174.598z M251.077,162.363c0.104,4.977,4.185,8.993,9.187,8.993h109.175
			c5.002,0,9.082-4.016,9.186-8.993l-10.443-40.731H261.521L251.077,162.363z"/>
		<g>
			<polygon fill="#CDD0E0" points="371.6,134.783 258.101,134.783 255.579,144.872 374.124,144.872 			"/>
		</g>
		<path fill="#FFFFFF" d="M629.784,8.614c-2.051-3.318-7.051-5.371-10.506-5.371H14.739c-3.455,0-8.455,2.053-10.505,5.371
			C3.979,9.025,3.791,9.453,3.635,9.888c2.67-2.947,7.38-4.483,11.104-4.483h604.539c3.725,0,8.434,1.536,11.105,4.483
			C630.227,9.453,630.038,9.025,629.784,8.614z"/>
		<path fill="#271F3E" d="M628.596,12.874c-1.635-2.646-6.021-4.227-9.318-4.227H14.739c-3.297,0-7.684,1.581-9.318,4.227
			c-0.803,1.3-0.816,2.686-0.041,4.237c0.713,1.427,5.738,8.332,13.229,18.342c9.74,13.019,23.653,31.294,37.707,49.647
			c8.334,10.884,16.713,21.791,24.299,31.642h472.789c7.586-9.851,15.965-20.757,24.299-31.642
			c14.055-18.354,27.967-36.629,37.709-49.647c7.488-10.01,12.512-16.915,13.227-18.342
			C629.413,15.56,629.399,14.174,628.596,12.874z M539.067,113.499H94.95L28.975,16.214h576.066L539.067,113.499z"/>
		<linearGradient id="SVGID_1_" gradientUnits="userSpaceOnUse" x1="35.0923" y1="64.8564" x2="598.9243" y2="64.8564">
			<stop  offset="0" style="stop-color:#7379BA"/>
			<stop  offset="1" style="stop-color:#BC79B3"/>
		</linearGradient>
		<polygon fill="url(#SVGID_1_)" points="35.092,19.457 96.668,110.256 537.348,110.256 598.924,19.457 		"/>
		<path fill="#FFFFFF" d="M83.571,119.984c3.291,4.276,8.562,11.12,8.879,11.53h449.117c0.318-0.411,5.588-7.254,8.879-11.53H83.571
			z"/>
		<path fill="#CDD0E0" d="M632.542,6.909C629.768,2.422,623.639,0,619.278,0H317.299h-0.582H14.739
			C10.379,0,4.249,2.422,1.475,6.909C0.124,9.098-0.99,12.708,1.397,17.48c1.181,2.361,6.772,9.85,14.615,19.9
			c24.01,32.116,71.566,93.71,74.19,97.108l0.485,0.63h226.029h0.582h226.029l0.486-0.63c2.623-3.397,50.18-64.992,74.189-97.108
			c7.844-10.05,13.434-17.539,14.615-19.9C635.006,12.708,633.893,9.098,632.542,6.909z M84.818,119.984h2.099h229.801h0.582H547.1
			h2.098h1.248c-3.291,4.276-5.875,7.634-7.49,9.729c-0.602,0.78-1.07,1.391-1.389,1.802H317.299h-0.582H92.45
			c-0.317-0.411-0.787-1.021-1.389-1.802c-1.614-2.095-4.199-5.453-7.49-9.729H84.818z M553.403,116.742h-1.541h-2.1H317.299h-0.582
			H84.254h-2.099h-1.542c-7.586-9.851-15.965-20.757-24.299-31.642C42.261,66.747,28.348,48.471,18.608,35.453
			c-7.49-10.01-12.516-16.915-13.229-18.342c-0.775-1.551-0.762-2.937,0.041-4.237c1.635-2.646,6.021-4.227,9.318-4.227h301.979
			h0.582h301.979c3.297,0,7.684,1.581,9.318,4.227c0.803,1.3,0.816,2.686,0.041,4.237c-0.715,1.427-5.738,8.332-13.227,18.342
			c-9.742,13.019-23.654,31.294-37.709,49.647C569.368,95.984,560.989,106.891,553.403,116.742z M14.739,3.243h301.979h0.582
			h301.979c3.455,0,8.455,2.053,10.506,5.371c0.254,0.411,0.443,0.838,0.6,1.273c-2.672-2.947-7.381-4.483-11.105-4.483H317.299
			h-0.582H14.739c-3.724,0-8.434,1.536-11.104,4.483c0.155-0.435,0.344-0.862,0.599-1.273C6.284,5.296,11.284,3.243,14.739,3.243z"
			/>
		<path fill="#CDD0E0" d="M316.717,16.214H28.975l65.975,97.285h221.768h0.582h221.768l65.975-97.285H317.299H316.717z
			 M317.299,110.256h-0.582H96.668L35.092,19.457h281.625h0.582h281.625l-61.576,90.799H317.299z"/>
		<rect x="309.664" y="123.223" fill="#CDD0E0" width="10.81" height="4.324"/>
	</g>
	<g>
		<path fill="#FFFFFF" d="M426.386,307.206c0,3.761-3.048,6.808-6.809,6.808H213.581c-3.76,0-6.808-3.047-6.808-6.808v-85.827
			c0-3.76,3.047-6.808,6.808-6.808h205.997c3.761,0,6.809,3.048,6.809,6.808V307.206z"/>
		<path fill="#CDD0E0" d="M420.006,212.646H214.009c-4.593,0-8.329,3.736-8.329,8.328v85.828c0,4.592,3.736,8.328,8.329,8.328
			h205.997c4.594,0,8.33-3.736,8.33-8.328v-85.828C428.336,216.383,424.6,212.646,420.006,212.646z M420.006,312.089H214.009
			c-2.916,0-5.287-2.372-5.287-5.286v-85.828c0-2.915,2.372-5.287,5.287-5.287h205.997c2.916,0,5.287,2.372,5.287,5.287v85.828
			C425.293,309.717,422.922,312.089,420.006,312.089z"/>
		<g>
			<path fill="#68CCF4" d="M223.92,236.148c0,0.553-0.383,1.002-0.856,1.002h-8.556c-0.473,0-0.856-0.449-0.856-1.002v-3.256
				c0-0.553,0.384-1.002,0.856-1.002h8.556c0.473,0,0.856,0.449,0.856,1.002V236.148z"/>
			<path fill="#68CCF4" d="M223.064,237.49h-8.556c-0.66,0-1.197-0.602-1.197-1.342v-3.256c0-0.74,0.537-1.342,1.197-1.342h8.556
				c0.66,0,1.197,0.602,1.197,1.342v3.256C224.261,236.889,223.724,237.49,223.064,237.49z M214.508,232.231
				c-0.284,0-0.516,0.296-0.516,0.661v3.256c0,0.365,0.232,0.662,0.516,0.662h8.556c0.284,0,0.516-0.297,0.516-0.662v-3.256
				c0-0.365-0.231-0.661-0.516-0.661H214.508z"/>
		</g>
		<g>
			<path fill="#68CCF4" d="M238.946,236.148c0,0.553-0.383,1.002-0.855,1.002h-8.557c-0.473,0-0.855-0.449-0.855-1.002v-3.256
				c0-0.553,0.383-1.002,0.855-1.002h8.557c0.472,0,0.855,0.449,0.855,1.002V236.148z"/>
			<path fill="#68CCF4" d="M238.091,237.49h-8.557c-0.659,0-1.196-0.602-1.196-1.342v-3.256c0-0.74,0.537-1.342,1.196-1.342h8.557
				c0.66,0,1.196,0.602,1.196,1.342v3.256C239.287,236.889,238.75,237.49,238.091,237.49z M229.534,232.231
				c-0.279,0-0.515,0.304-0.515,0.661v3.256c0,0.358,0.236,0.662,0.515,0.662h8.557c0.283,0,0.515-0.297,0.515-0.662v-3.256
				c0-0.365-0.231-0.661-0.515-0.661H229.534z"/>
		</g>
		<g>
			<path fill="#68CCF4" d="M253.973,236.148c0,0.553-0.383,1.002-0.856,1.002h-8.556c-0.473,0-0.856-0.449-0.856-1.002v-3.256
				c0-0.553,0.384-1.002,0.856-1.002h8.556c0.473,0,0.856,0.449,0.856,1.002V236.148z"/>
			<path fill="#68CCF4" d="M253.117,237.49h-8.556c-0.659,0-1.197-0.602-1.197-1.342v-3.256c0-0.74,0.538-1.342,1.197-1.342h8.556
				c0.66,0,1.196,0.602,1.196,1.342v3.256C254.313,236.889,253.777,237.49,253.117,237.49z M244.561,232.231
				c-0.285,0-0.516,0.296-0.516,0.661v3.256c0,0.365,0.231,0.662,0.516,0.662h8.556c0.285,0,0.516-0.297,0.516-0.662v-3.256
				c0-0.365-0.231-0.661-0.516-0.661H244.561z"/>
		</g>
		<g>
			<path fill="#CDD0E0" d="M391.036,306.408c0,0.415-0.383,0.752-0.855,0.752h-8.557c-0.473,0-0.855-0.337-0.855-0.752v-2.441
				c0-0.414,0.383-0.751,0.855-0.751h8.557c0.473,0,0.855,0.337,0.855,0.751V306.408z"/>
			<path fill="#CDD0E0" d="M390.18,307.5h-8.557c-0.66,0-1.195-0.49-1.195-1.092v-2.441c0-0.602,0.535-1.091,1.195-1.091h8.557
				c0.658,0,1.195,0.489,1.195,1.091v2.441C391.375,307.01,390.838,307.5,390.18,307.5z M381.624,303.557
				c-0.283,0-0.516,0.184-0.516,0.41v2.441c0,0.227,0.232,0.411,0.516,0.411h8.557c0.283,0,0.516-0.185,0.516-0.411v-2.441
				c0-0.227-0.232-0.41-0.516-0.41H381.624z"/>
		</g>
		<g>
			<path fill="#CDD0E0" d="M406.063,306.408c0,0.415-0.385,0.752-0.855,0.752h-8.557c-0.473,0-0.855-0.337-0.855-0.752v-2.441
				c0-0.414,0.383-0.751,0.855-0.751h8.557c0.471,0,0.855,0.337,0.855,0.751V306.408z"/>
			<path fill="#CDD0E0" d="M405.208,307.5h-8.557c-0.66,0-1.197-0.49-1.197-1.092v-2.441c0-0.602,0.537-1.091,1.197-1.091h8.557
				c0.658,0,1.195,0.489,1.195,1.091v2.441C406.403,307.01,405.866,307.5,405.208,307.5z M396.651,303.557
				c-0.279,0-0.516,0.188-0.516,0.41v2.441c0,0.223,0.236,0.411,0.516,0.411h8.557c0.283,0,0.514-0.185,0.514-0.411v-2.441
				c0-0.227-0.23-0.41-0.514-0.41H396.651z"/>
		</g>
		<g>
			<path fill="#CDD0E0" d="M406.063,302.324c0,0.414-0.385,0.751-0.855,0.751h-8.557c-0.473,0-0.855-0.337-0.855-0.751v-2.441
				c0-0.415,0.383-0.752,0.855-0.752h8.557c0.471,0,0.855,0.337,0.855,0.752V302.324z"/>
			<path fill="#CDD0E0" d="M405.208,303.416h-8.557c-0.66,0-1.197-0.49-1.197-1.092v-2.441c0-0.602,0.537-1.092,1.197-1.092h8.557
				c0.658,0,1.195,0.49,1.195,1.092v2.441C406.403,302.926,405.866,303.416,405.208,303.416z M396.651,299.473
				c-0.279,0-0.516,0.188-0.516,0.41v2.441c0,0.223,0.236,0.41,0.516,0.41h8.557c0.283,0,0.514-0.184,0.514-0.41v-2.441
				c0-0.227-0.23-0.41-0.514-0.41H396.651z"/>
		</g>
		<g>
			<path fill="#CDD0E0" d="M421.088,306.408c0,0.415-0.383,0.752-0.855,0.752h-8.557c-0.471,0-0.855-0.337-0.855-0.752v-2.441
				c0-0.414,0.385-0.751,0.855-0.751h8.557c0.473,0,0.855,0.337,0.855,0.751V306.408z"/>
			<path fill="#CDD0E0" d="M420.233,307.5h-8.557c-0.658,0-1.195-0.49-1.195-1.092v-2.441c0-0.602,0.537-1.091,1.195-1.091h8.557
				c0.66,0,1.197,0.489,1.197,1.091v2.441C421.43,307.01,420.893,307.5,420.233,307.5z M411.676,303.557
				c-0.283,0-0.514,0.184-0.514,0.41v2.441c0,0.227,0.23,0.411,0.514,0.411h8.557c0.285,0,0.516-0.185,0.516-0.411v-2.441
				c0-0.227-0.23-0.41-0.516-0.41H411.676z"/>
		</g>
		<g>
			<path fill="#CDD0E0" d="M268.999,236.148c0,0.553-0.382,1.002-0.855,1.002h-8.556c-0.473,0-0.856-0.449-0.856-1.002v-3.256
				c0-0.553,0.383-1.002,0.856-1.002h8.556c0.473,0,0.855,0.449,0.855,1.002V236.148z"/>
			<path fill="#CDD0E0" d="M268.143,237.49h-8.556c-0.66,0-1.196-0.602-1.196-1.342v-3.256c0-0.74,0.537-1.342,1.196-1.342h8.556
				c0.66,0,1.196,0.602,1.196,1.342v3.256C269.339,236.889,268.803,237.49,268.143,237.49z M259.587,232.231
				c-0.285,0-0.516,0.296-0.516,0.661v3.256c0,0.365,0.23,0.662,0.516,0.662h8.556c0.284,0,0.516-0.297,0.516-0.662v-3.256
				c0-0.365-0.231-0.661-0.516-0.661H259.587z"/>
		</g>
		<g>
			<path fill="#CDD0E0" d="M284.026,236.148c0,0.553-0.384,1.002-0.857,1.002h-8.555c-0.473,0-0.856-0.449-0.856-1.002v-3.256
				c0-0.553,0.383-1.002,0.856-1.002h8.555c0.473,0,0.857,0.449,0.857,1.002V236.148z"/>
			<path fill="#CDD0E0" d="M283.169,237.49h-8.555c-0.66,0-1.196-0.602-1.196-1.342v-3.256c0-0.74,0.536-1.342,1.196-1.342h8.555
				c0.66,0,1.197,0.602,1.197,1.342v3.256C284.366,236.889,283.829,237.49,283.169,237.49z M274.614,232.231
				c-0.28,0-0.516,0.304-0.516,0.661v3.256c0,0.358,0.236,0.662,0.516,0.662h8.555c0.285,0,0.517-0.297,0.517-0.662v-3.256
				c0-0.365-0.231-0.661-0.517-0.661H274.614z"/>
		</g>
		<g>
			<path fill="#CDD0E0" d="M299.052,236.148c0,0.553-0.383,1.002-0.856,1.002h-8.556c-0.472,0-0.855-0.449-0.855-1.002v-3.256
				c0-0.553,0.383-1.002,0.855-1.002h8.556c0.473,0,0.856,0.449,0.856,1.002V236.148z"/>
			<path fill="#CDD0E0" d="M298.196,237.49h-8.556c-0.659,0-1.196-0.602-1.196-1.342v-3.256c0-0.74,0.537-1.342,1.196-1.342h8.556
				c0.66,0,1.196,0.602,1.196,1.342v3.256C299.392,236.889,298.855,237.49,298.196,237.49z M289.64,232.231
				c-0.279,0-0.515,0.304-0.515,0.661v3.256c0,0.358,0.236,0.662,0.515,0.662h8.556c0.284,0,0.516-0.297,0.516-0.662v-3.256
				c0-0.365-0.232-0.661-0.516-0.661H289.64z"/>
		</g>
		<g>
			<path fill="#CDD0E0" d="M314.079,236.148c0,0.553-0.383,1.002-0.856,1.002h-8.556c-0.473,0-0.856-0.449-0.856-1.002v-3.256
				c0-0.553,0.383-1.002,0.856-1.002h8.556c0.473,0,0.856,0.449,0.856,1.002V236.148z"/>
			<path fill="#CDD0E0" d="M313.223,237.49h-8.556c-0.66,0-1.196-0.602-1.196-1.342v-3.256c0-0.74,0.537-1.342,1.196-1.342h8.556
				c0.66,0,1.196,0.602,1.196,1.342v3.256C314.419,236.889,313.883,237.49,313.223,237.49z M304.667,232.231
				c-0.284,0-0.516,0.296-0.516,0.661v3.256c0,0.365,0.232,0.662,0.516,0.662h8.556c0.28,0,0.516-0.304,0.516-0.662v-3.256
				c0-0.357-0.236-0.661-0.516-0.661H304.667z"/>
		</g>
		<g>
			<path fill="#CDD0E0" d="M329.106,236.148c0,0.553-0.383,1.002-0.855,1.002h-8.557c-0.473,0-0.855-0.449-0.855-1.002v-3.256
				c0-0.553,0.383-1.002,0.855-1.002h8.557c0.473,0,0.855,0.449,0.855,1.002V236.148z"/>
			<path fill="#CDD0E0" d="M328.25,237.49h-8.557c-0.66,0-1.197-0.602-1.197-1.342v-3.256c0-0.74,0.537-1.342,1.197-1.342h8.557
				c0.658,0,1.195,0.602,1.195,1.342v3.256C329.446,236.889,328.909,237.49,328.25,237.49z M319.694,232.231
				c-0.281,0-0.518,0.304-0.518,0.661v3.256c0,0.358,0.236,0.662,0.518,0.662h8.557c0.283,0,0.514-0.297,0.514-0.662v-3.256
				c0-0.365-0.23-0.661-0.514-0.661H319.694z"/>
		</g>
		<g>
			<path fill="#CDD0E0" d="M344.131,236.148c0,0.553-0.383,1.002-0.855,1.002h-8.555c-0.473,0-0.857-0.449-0.857-1.002v-3.256
				c0-0.553,0.385-1.002,0.857-1.002h8.555c0.473,0,0.855,0.449,0.855,1.002V236.148z"/>
			<path fill="#CDD0E0" d="M343.276,237.49h-8.555c-0.66,0-1.197-0.602-1.197-1.342v-3.256c0-0.74,0.537-1.342,1.197-1.342h8.555
				c0.66,0,1.197,0.602,1.197,1.342v3.256C344.473,236.889,343.936,237.49,343.276,237.49z M334.721,232.231
				c-0.281,0-0.518,0.304-0.518,0.661v3.256c0,0.358,0.236,0.662,0.518,0.662h8.555c0.279,0,0.516-0.304,0.516-0.662v-3.256
				c0-0.357-0.236-0.661-0.516-0.661H334.721z"/>
		</g>
		<g>
			<path fill="#CDD0E0" d="M359.159,236.148c0,0.553-0.385,1.002-0.857,1.002h-8.555c-0.473,0-0.855-0.449-0.855-1.002v-3.256
				c0-0.553,0.383-1.002,0.855-1.002h8.555c0.473,0,0.857,0.449,0.857,1.002V236.148z"/>
			<path fill="#CDD0E0" d="M358.301,237.49h-8.555c-0.66,0-1.197-0.602-1.197-1.342v-3.256c0-0.74,0.537-1.342,1.197-1.342h8.555
				c0.66,0,1.197,0.602,1.197,1.342v3.256C359.499,236.889,358.961,237.49,358.301,237.49z M349.747,232.231
				c-0.283,0-0.516,0.296-0.516,0.661v3.256c0,0.365,0.232,0.662,0.516,0.662h8.555c0.281,0,0.516-0.304,0.516-0.662v-3.256
				c0-0.357-0.234-0.661-0.516-0.661H349.747z"/>
		</g>
		<g>
			<path fill="#CDD0E0" d="M374.184,236.148c0,0.553-0.383,1.002-0.855,1.002h-8.557c-0.473,0-0.855-0.449-0.855-1.002v-3.256
				c0-0.553,0.383-1.002,0.855-1.002h8.557c0.473,0,0.855,0.449,0.855,1.002V236.148z"/>
			<path fill="#CDD0E0" d="M373.329,237.49h-8.557c-0.66,0-1.195-0.602-1.195-1.342v-3.256c0-0.74,0.535-1.342,1.195-1.342h8.557
				c0.66,0,1.197,0.602,1.197,1.342v3.256C374.526,236.889,373.989,237.49,373.329,237.49z M364.772,232.231
				c-0.283,0-0.516,0.296-0.516,0.661v3.256c0,0.365,0.232,0.662,0.516,0.662h8.557c0.279,0,0.516-0.304,0.516-0.662v-3.256
				c0-0.357-0.236-0.661-0.516-0.661H364.772z"/>
		</g>
		<g>
			<path fill="#CDD0E0" d="M389.211,236.148c0,0.553-0.383,1.002-0.857,1.002h-8.555c-0.473,0-0.855-0.449-0.855-1.002v-3.256
				c0-0.553,0.383-1.002,0.855-1.002h8.555c0.475,0,0.857,0.449,0.857,1.002V236.148z"/>
			<path fill="#CDD0E0" d="M388.354,237.49h-8.555c-0.66,0-1.197-0.602-1.197-1.342v-3.256c0-0.74,0.537-1.342,1.197-1.342h8.555
				c0.66,0,1.197,0.602,1.197,1.342v3.256C389.551,236.889,389.014,237.49,388.354,237.49z M379.799,232.231
				c-0.279,0-0.516,0.304-0.516,0.661v3.256c0,0.358,0.236,0.662,0.516,0.662h8.555c0.285,0,0.516-0.297,0.516-0.662v-3.256
				c0-0.365-0.23-0.661-0.516-0.661H379.799z"/>
		</g>
		<g>
			<path fill="#CDD0E0" d="M404.237,236.148c0,0.553-0.383,1.002-0.855,1.002h-8.557c-0.471,0-0.855-0.449-0.855-1.002v-3.256
				c0-0.553,0.385-1.002,0.855-1.002h8.557c0.473,0,0.855,0.449,0.855,1.002V236.148z"/>
			<path fill="#CDD0E0" d="M403.381,237.49h-8.557c-0.66,0-1.195-0.602-1.195-1.342v-3.256c0-0.74,0.535-1.342,1.195-1.342h8.557
				c0.66,0,1.197,0.602,1.197,1.342v3.256C404.579,236.889,404.042,237.49,403.381,237.49z M394.825,232.231
				c-0.279,0-0.516,0.304-0.516,0.661v3.256c0,0.358,0.236,0.662,0.516,0.662h8.557c0.279,0,0.516-0.304,0.516-0.662v-3.256
				c0-0.357-0.236-0.661-0.516-0.661H394.825z"/>
		</g>
		<g>
			<path fill="#CDD0E0" d="M419.264,236.148c0,0.553-0.385,1.002-0.857,1.002h-8.555c-0.473,0-0.857-0.449-0.857-1.002v-3.256
				c0-0.553,0.385-1.002,0.857-1.002h8.555c0.473,0,0.857,0.449,0.857,1.002V236.148z"/>
			<path fill="#CDD0E0" d="M418.407,237.49h-8.555c-0.66,0-1.195-0.602-1.195-1.342v-3.256c0-0.74,0.535-1.342,1.195-1.342h8.555
				c0.66,0,1.197,0.602,1.197,1.342v3.256C419.604,236.889,419.067,237.49,418.407,237.49z M409.852,232.231
				c-0.279,0-0.516,0.304-0.516,0.661v3.256c0,0.358,0.236,0.662,0.516,0.662h8.555c0.281,0,0.518-0.304,0.518-0.662v-3.256
				c0-0.357-0.236-0.661-0.518-0.661H409.852z"/>
		</g>
		<g>
			<g>
				<g>
					<path fill="#CDD0E0" d="M223.723,251.253c0,0.66-0.534,1.195-1.195,1.195h-7.468c-0.66,0-1.195-0.535-1.195-1.195v-7.468
						c0-0.659,0.535-1.195,1.195-1.195h7.468c0.661,0,1.195,0.536,1.195,1.195V251.253z"/>
					<path fill="#CDD0E0" d="M222.528,252.789h-7.468c-0.846,0-1.535-0.689-1.535-1.536v-7.468c0-0.846,0.689-1.535,1.535-1.535
						h7.468c0.846,0,1.535,0.689,1.535,1.535v7.468C224.063,252.1,223.375,252.789,222.528,252.789z M215.061,242.931
						c-0.471,0-0.854,0.384-0.854,0.854v7.468c0,0.472,0.383,0.855,0.854,0.855h7.468c0.472,0,0.855-0.384,0.855-0.855v-7.468
						c0-0.471-0.383-0.854-0.855-0.854H215.061z"/>
				</g>
				<g>
					<path fill="#CDD0E0" d="M238.431,251.253c0,0.66-0.536,1.195-1.196,1.195h-7.467c-0.66,0-1.195-0.535-1.195-1.195v-7.468
						c0-0.659,0.536-1.195,1.195-1.195h7.467c0.66,0,1.196,0.536,1.196,1.195V251.253z"/>
					<path fill="#CDD0E0" d="M237.235,252.789h-7.467c-0.846,0-1.536-0.689-1.536-1.536v-7.468c0-0.846,0.689-1.535,1.536-1.535
						h7.467c0.847,0,1.536,0.689,1.536,1.535v7.468C238.771,252.1,238.082,252.789,237.235,252.789z M229.768,242.931
						c-0.472,0-0.855,0.384-0.855,0.854v7.468c0,0.472,0.383,0.855,0.855,0.855h7.467c0.471,0,0.855-0.384,0.855-0.855v-7.468
						c0-0.471-0.384-0.854-0.855-0.854H229.768z"/>
				</g>
				<g>
					<path fill="#CDD0E0" d="M253.138,251.253c0,0.66-0.536,1.195-1.195,1.195h-7.467c-0.661,0-1.196-0.535-1.196-1.195v-7.468
						c0-0.659,0.535-1.195,1.196-1.195h7.467c0.659,0,1.195,0.536,1.195,1.195V251.253z"/>
					<path fill="#CDD0E0" d="M251.943,252.789h-7.467c-0.847,0-1.536-0.689-1.536-1.536v-7.468c0-0.846,0.688-1.535,1.536-1.535
						h7.467c0.847,0,1.536,0.689,1.536,1.535v7.468C253.479,252.1,252.79,252.789,251.943,252.789z M244.476,242.931
						c-0.472,0-0.855,0.384-0.855,0.854v7.468c0,0.472,0.384,0.855,0.855,0.855h7.467c0.471,0,0.854-0.384,0.854-0.855v-7.468
						c0-0.471-0.383-0.854-0.854-0.854H244.476z"/>
				</g>
				<g>
					<path fill="#CDD0E0" d="M267.845,251.253c0,0.66-0.535,1.195-1.194,1.195h-7.468c-0.66,0-1.195-0.535-1.195-1.195v-7.468
						c0-0.659,0.535-1.195,1.195-1.195h7.468c0.66,0,1.194,0.536,1.194,1.195V251.253z"/>
					<path fill="#CDD0E0" d="M266.65,252.789h-7.468c-0.847,0-1.536-0.689-1.536-1.536v-7.468c0-0.846,0.689-1.535,1.536-1.535
						h7.468c0.846,0,1.535,0.689,1.535,1.535v7.468C268.185,252.1,267.497,252.789,266.65,252.789z M259.182,242.931
						c-0.471,0-0.854,0.384-0.854,0.854v7.468c0,0.472,0.383,0.855,0.854,0.855h7.468c0.472,0,0.854-0.384,0.854-0.855v-7.468
						c0-0.471-0.382-0.854-0.854-0.854H259.182z"/>
				</g>
				<g>
					<path fill="#CDD0E0" d="M282.552,251.253c0,0.66-0.535,1.195-1.195,1.195h-7.468c-0.66,0-1.194-0.535-1.194-1.195v-7.468
						c0-0.659,0.534-1.195,1.194-1.195h7.468c0.66,0,1.195,0.536,1.195,1.195V251.253z"/>
					<path fill="#CDD0E0" d="M281.357,252.789h-7.468c-0.846,0-1.535-0.689-1.535-1.536v-7.468c0-0.846,0.689-1.535,1.535-1.535
						h7.468c0.846,0,1.535,0.689,1.535,1.535v7.468C282.892,252.1,282.204,252.789,281.357,252.789z M273.889,242.931
						c-0.471,0-0.854,0.384-0.854,0.854v7.468c0,0.472,0.383,0.855,0.854,0.855h7.468c0.471,0,0.854-0.384,0.854-0.855v-7.468
						c0-0.471-0.383-0.854-0.854-0.854H273.889z"/>
				</g>
				<g>
					<path fill="#CDD0E0" d="M297.26,251.253c0,0.66-0.535,1.195-1.196,1.195h-7.468c-0.66,0-1.195-0.535-1.195-1.195v-7.468
						c0-0.659,0.535-1.195,1.195-1.195h7.468c0.661,0,1.196,0.536,1.196,1.195V251.253z"/>
					<path fill="#CDD0E0" d="M296.064,252.789h-7.468c-0.846,0-1.535-0.689-1.535-1.536v-7.468c0-0.846,0.688-1.535,1.535-1.535
						h7.468c0.847,0,1.536,0.689,1.536,1.535v7.468C297.6,252.1,296.911,252.789,296.064,252.789z M288.596,242.931
						c-0.471,0-0.854,0.384-0.854,0.854v7.468c0,0.472,0.383,0.855,0.854,0.855h7.468c0.472,0,0.855-0.384,0.855-0.855v-7.468
						c0-0.471-0.383-0.854-0.855-0.854H288.596z"/>
				</g>
				<g>
					<path fill="#CDD0E0" d="M311.966,251.253c0,0.66-0.535,1.195-1.195,1.195h-7.467c-0.661,0-1.196-0.535-1.196-1.195v-7.468
						c0-0.659,0.535-1.195,1.196-1.195h7.467c0.66,0,1.195,0.536,1.195,1.195V251.253z"/>
					<path fill="#CDD0E0" d="M310.771,252.789h-7.467c-0.847,0-1.536-0.689-1.536-1.536v-7.468c0-0.846,0.688-1.535,1.536-1.535
						h7.467c0.847,0,1.536,0.689,1.536,1.535v7.468C312.307,252.1,311.618,252.789,310.771,252.789z M303.304,242.931
						c-0.472,0-0.855,0.384-0.855,0.854v7.468c0,0.472,0.383,0.855,0.855,0.855h7.467c0.471,0,0.855-0.384,0.855-0.855v-7.468
						c0-0.471-0.384-0.854-0.855-0.854H303.304z"/>
				</g>
			</g>
			<g>
				<path fill="#CDD0E0" d="M326.674,251.253c0,0.66-0.535,1.195-1.195,1.195h-7.467c-0.66,0-1.196-0.535-1.196-1.195v-7.468
					c0-0.659,0.536-1.195,1.196-1.195h7.467c0.66,0,1.195,0.536,1.195,1.195V251.253z"/>
				<path fill="#CDD0E0" d="M325.479,252.789h-7.467c-0.848,0-1.536-0.689-1.536-1.536v-7.468c0-0.846,0.688-1.535,1.536-1.535
					h7.467c0.848,0,1.535,0.689,1.535,1.535v7.468C327.014,252.1,326.327,252.789,325.479,252.789z M318.012,242.931
					c-0.472,0-0.856,0.384-0.856,0.854v7.468c0,0.472,0.385,0.855,0.856,0.855h7.467c0.473,0,0.855-0.384,0.855-0.855v-7.468
					c0-0.471-0.383-0.854-0.855-0.854H318.012z"/>
			</g>
			<g>
				<path fill="#CDD0E0" d="M341.379,251.253c0,0.66-0.533,1.195-1.193,1.195h-7.469c-0.66,0-1.193-0.535-1.193-1.195v-7.468
					c0-0.659,0.533-1.195,1.193-1.195h7.469c0.66,0,1.193,0.536,1.193,1.195V251.253z"/>
				<path fill="#CDD0E0" d="M340.186,252.789h-7.469c-0.846,0-1.533-0.689-1.533-1.536v-7.468c0-0.846,0.688-1.535,1.533-1.535
					h7.469c0.848,0,1.535,0.689,1.535,1.535v7.468C341.721,252.1,341.034,252.789,340.186,252.789z M332.717,242.931
					c-0.471,0-0.854,0.384-0.854,0.854v7.468c0,0.472,0.383,0.855,0.854,0.855h7.469c0.471,0,0.855-0.384,0.855-0.855v-7.468
					c0-0.471-0.385-0.854-0.855-0.854H332.717z"/>
			</g>
			<g>
				<path fill="#CDD0E0" d="M356.088,251.253c0,0.66-0.535,1.195-1.195,1.195h-7.469c-0.66,0-1.193-0.535-1.193-1.195v-7.468
					c0-0.659,0.533-1.195,1.193-1.195h7.469c0.66,0,1.195,0.536,1.195,1.195V251.253z"/>
				<path fill="#CDD0E0" d="M354.893,252.789h-7.469c-0.846,0-1.533-0.689-1.533-1.536v-7.468c0-0.846,0.688-1.535,1.533-1.535
					h7.469c0.848,0,1.535,0.689,1.535,1.535v7.468C356.428,252.1,355.741,252.789,354.893,252.789z M347.424,242.931
					c-0.471,0-0.852,0.384-0.852,0.854v7.468c0,0.472,0.381,0.855,0.852,0.855h7.469c0.473,0,0.855-0.384,0.855-0.855v-7.468
					c0-0.471-0.383-0.854-0.855-0.854H347.424z"/>
			</g>
			<g>
				<path fill="#CDD0E0" d="M370.795,251.253c0,0.66-0.535,1.195-1.195,1.195h-7.469c-0.658,0-1.193-0.535-1.193-1.195v-7.468
					c0-0.659,0.535-1.195,1.193-1.195h7.469c0.66,0,1.195,0.536,1.195,1.195V251.253z"/>
				<path fill="#CDD0E0" d="M369.6,252.789h-7.469c-0.846,0-1.533-0.689-1.533-1.536v-7.468c0-0.846,0.688-1.535,1.533-1.535h7.469
					c0.848,0,1.535,0.689,1.535,1.535v7.468C371.135,252.1,370.448,252.789,369.6,252.789z M362.131,242.931
					c-0.471,0-0.854,0.384-0.854,0.854v7.468c0,0.472,0.383,0.855,0.854,0.855h7.469c0.473,0,0.855-0.384,0.855-0.855v-7.468
					c0-0.471-0.383-0.854-0.855-0.854H362.131z"/>
			</g>
			<g>
				<path fill="#CDD0E0" d="M385.502,251.253c0,0.66-0.535,1.195-1.195,1.195h-7.467c-0.66,0-1.197-0.535-1.197-1.195v-7.468
					c0-0.659,0.537-1.195,1.197-1.195h7.467c0.66,0,1.195,0.536,1.195,1.195V251.253z"/>
				<path fill="#CDD0E0" d="M384.307,252.789h-7.467c-0.848,0-1.535-0.689-1.535-1.536v-7.468c0-0.846,0.688-1.535,1.535-1.535
					h7.467c0.848,0,1.537,0.689,1.537,1.535v7.468C385.844,252.1,385.155,252.789,384.307,252.789z M376.84,242.931
					c-0.473,0-0.855,0.384-0.855,0.854v7.468c0,0.472,0.383,0.855,0.855,0.855h7.467c0.471,0,0.855-0.384,0.855-0.855v-7.468
					c0-0.471-0.385-0.854-0.855-0.854H376.84z"/>
			</g>
			<g>
				<path fill="#CDD0E0" d="M400.209,251.253c0,0.66-0.535,1.195-1.195,1.195h-7.467c-0.66,0-1.195-0.535-1.195-1.195v-7.468
					c0-0.659,0.535-1.195,1.195-1.195h7.467c0.66,0,1.195,0.536,1.195,1.195V251.253z"/>
				<path fill="#CDD0E0" d="M399.014,252.789h-7.467c-0.848,0-1.535-0.689-1.535-1.536v-7.468c0-0.846,0.688-1.535,1.535-1.535
					h7.467c0.848,0,1.535,0.689,1.535,1.535v7.468C400.549,252.1,399.862,252.789,399.014,252.789z M391.547,242.931
					c-0.471,0-0.855,0.384-0.855,0.854v7.468c0,0.472,0.385,0.855,0.855,0.855h7.467c0.473,0,0.855-0.384,0.855-0.855v-7.468
					c0-0.471-0.383-0.854-0.855-0.854H391.547z"/>
			</g>
			<g>
				<path fill="#CDD0E0" d="M420.198,251.253c0,0.66-0.77,1.195-1.719,1.195h-10.732c-0.949,0-1.719-0.535-1.719-1.195v-7.468
					c0-0.659,0.77-1.195,1.719-1.195h10.732c0.949,0,1.719,0.536,1.719,1.195V251.253z"/>
				<path fill="#CDD0E0" d="M418.479,252.789h-10.732c-1.154,0-2.059-0.676-2.059-1.536v-7.468c0-0.861,0.904-1.535,2.059-1.535
					h10.732c1.156,0,2.059,0.674,2.059,1.535v7.468C420.538,252.113,419.635,252.789,418.479,252.789z M407.747,242.931
					c-0.748,0-1.379,0.392-1.379,0.854v7.468c0,0.464,0.631,0.855,1.379,0.855h10.732c0.748,0,1.379-0.392,1.379-0.855v-7.468
					c0-0.463-0.631-0.854-1.379-0.854H407.747z"/>
			</g>
		</g>
		<g>
			<g>
				<path fill="#8B78B7" d="M395.633,264.869c0,0.659,0.535,1.195,1.193,1.195h7.469c0.66,0,1.195-0.536,1.195-1.195V257.4
					c0-0.66-0.535-1.194-1.195-1.194h-7.469c-0.658,0-1.193,0.534-1.193,1.194V264.869z"/>
				<path fill="#8B78B7" d="M404.295,266.404h-7.469c-0.846,0-1.535-0.688-1.535-1.535V257.4c0-0.846,0.689-1.535,1.535-1.535h7.469
					c0.848,0,1.535,0.689,1.535,1.535v7.469C405.831,265.716,405.143,266.404,404.295,266.404z M396.827,256.546
					c-0.471,0-0.854,0.384-0.854,0.854v7.469c0,0.471,0.383,0.854,0.854,0.854h7.469c0.471,0,0.855-0.383,0.855-0.854V257.4
					c0-0.471-0.385-0.854-0.855-0.854H396.827z"/>
			</g>
			<g>
				<path fill="#8B78B7" d="M380.926,264.869c0,0.659,0.535,1.195,1.195,1.195h7.467c0.66,0,1.195-0.536,1.195-1.195V257.4
					c0-0.66-0.535-1.194-1.195-1.194h-7.467c-0.66,0-1.195,0.534-1.195,1.194V264.869z"/>
				<path fill="#8B78B7" d="M389.588,266.404h-7.467c-0.848,0-1.535-0.688-1.535-1.535V257.4c0-0.846,0.688-1.535,1.535-1.535h7.467
					c0.846,0,1.535,0.689,1.535,1.535v7.469C391.124,265.716,390.434,266.404,389.588,266.404z M382.122,256.546
					c-0.473,0-0.855,0.384-0.855,0.854v7.469c0,0.471,0.383,0.854,0.855,0.854h7.467c0.471,0,0.854-0.383,0.854-0.854V257.4
					c0-0.471-0.383-0.854-0.854-0.854H382.122z"/>
			</g>
			<g>
				<path fill="#8B78B7" d="M366.219,264.869c0,0.659,0.533,1.195,1.195,1.195h7.467c0.66,0,1.195-0.536,1.195-1.195V257.4
					c0-0.66-0.535-1.194-1.195-1.194h-7.467c-0.662,0-1.195,0.534-1.195,1.194V264.869z"/>
				<path fill="#8B78B7" d="M374.881,266.404h-7.467c-0.848,0-1.537-0.688-1.537-1.535V257.4c0-0.846,0.689-1.535,1.537-1.535h7.467
					c0.846,0,1.535,0.689,1.535,1.535v7.469C376.417,265.716,375.727,266.404,374.881,266.404z M367.415,256.546
					c-0.473,0-0.855,0.384-0.855,0.854v7.469c0,0.471,0.383,0.854,0.855,0.854h7.467c0.471,0,0.854-0.383,0.854-0.854V257.4
					c0-0.471-0.383-0.854-0.854-0.854H367.415z"/>
			</g>
			<g>
				<path fill="#8B78B7" d="M351.512,264.869c0,0.659,0.535,1.195,1.193,1.195h7.469c0.66,0,1.195-0.536,1.195-1.195V257.4
					c0-0.66-0.535-1.194-1.195-1.194h-7.469c-0.658,0-1.193,0.534-1.193,1.194V264.869z"/>
				<path fill="#8B78B7" d="M360.174,266.404h-7.469c-0.846,0-1.535-0.688-1.535-1.535V257.4c0-0.846,0.689-1.535,1.535-1.535h7.469
					c0.846,0,1.535,0.689,1.535,1.535v7.469C361.709,265.716,361.02,266.404,360.174,266.404z M352.706,256.546
					c-0.471,0-0.854,0.384-0.854,0.854v7.469c0,0.471,0.383,0.854,0.854,0.854h7.469c0.473,0,0.854-0.383,0.854-0.854V257.4
					c0-0.471-0.381-0.854-0.854-0.854H352.706z"/>
			</g>
			<g>
				<path fill="#8B78B7" d="M336.805,264.869c0,0.659,0.535,1.195,1.195,1.195h7.467c0.66,0,1.195-0.536,1.195-1.195V257.4
					c0-0.66-0.535-1.194-1.195-1.194H338c-0.66,0-1.195,0.534-1.195,1.194V264.869z"/>
				<path fill="#8B78B7" d="M345.467,266.404H338c-0.848,0-1.537-0.688-1.537-1.535V257.4c0-0.846,0.689-1.535,1.537-1.535h7.467
					c0.846,0,1.535,0.689,1.535,1.535v7.469C347.002,265.716,346.313,266.404,345.467,266.404z M338,256.546
					c-0.473,0-0.855,0.384-0.855,0.854v7.469c0,0.471,0.383,0.854,0.855,0.854h7.467c0.471,0,0.854-0.383,0.854-0.854V257.4
					c0-0.471-0.383-0.854-0.854-0.854H338z"/>
			</g>
			<g>
				<path fill="#8B78B7" d="M322.098,264.869c0,0.659,0.535,1.195,1.195,1.195h7.467c0.658,0,1.195-0.536,1.195-1.195V257.4
					c0-0.66-0.537-1.194-1.195-1.194h-7.467c-0.66,0-1.195,0.534-1.195,1.194V264.869z"/>
				<path fill="#8B78B7" d="M330.76,266.404h-7.467c-0.848,0-1.537-0.688-1.537-1.535V257.4c0-0.846,0.689-1.535,1.537-1.535h7.467
					c0.848,0,1.535,0.689,1.535,1.535v7.469C332.295,265.716,331.608,266.404,330.76,266.404z M323.293,256.546
					c-0.473,0-0.855,0.384-0.855,0.854v7.469c0,0.471,0.383,0.854,0.855,0.854h7.467c0.471,0,0.855-0.383,0.855-0.854V257.4
					c0-0.471-0.385-0.854-0.855-0.854H323.293z"/>
			</g>
			<g>
				<path fill="#8B78B7" d="M307.39,264.869c0,0.659,0.535,1.195,1.195,1.195h7.468c0.659,0,1.195-0.536,1.195-1.195V257.4
					c0-0.66-0.536-1.194-1.195-1.194h-7.468c-0.66,0-1.195,0.534-1.195,1.194V264.869z"/>
				<path fill="#8B78B7" d="M316.053,266.404h-7.468c-0.846,0-1.535-0.688-1.535-1.535V257.4c0-0.846,0.688-1.535,1.535-1.535h7.468
					c0.847,0,1.535,0.689,1.535,1.535v7.469C317.588,265.716,316.9,266.404,316.053,266.404z M308.585,256.546
					c-0.471,0-0.855,0.384-0.855,0.854v7.469c0,0.471,0.384,0.854,0.855,0.854h7.468c0.471,0,0.854-0.383,0.854-0.854V257.4
					c0-0.471-0.383-0.854-0.854-0.854H308.585z"/>
			</g>
			<g>
				<path fill="#8B78B7" d="M292.683,264.869c0,0.659,0.534,1.195,1.194,1.195h7.468c0.66,0,1.194-0.536,1.194-1.195V257.4
					c0-0.66-0.535-1.194-1.194-1.194h-7.468c-0.66,0-1.194,0.534-1.194,1.194V264.869z"/>
				<path fill="#8B78B7" d="M301.346,266.404h-7.468c-0.846,0-1.535-0.688-1.535-1.535V257.4c0-0.846,0.688-1.535,1.535-1.535h7.468
					c0.847,0,1.535,0.689,1.535,1.535v7.469C302.881,265.716,302.192,266.404,301.346,266.404z M293.877,256.546
					c-0.471,0-0.854,0.384-0.854,0.854v7.469c0,0.471,0.383,0.854,0.854,0.854h7.468c0.471,0,0.854-0.383,0.854-0.854V257.4
					c0-0.471-0.382-0.854-0.854-0.854H293.877z"/>
			</g>
			<g>
				<path fill="#8B78B7" d="M277.975,264.869c0,0.659,0.535,1.195,1.196,1.195h7.467c0.66,0,1.195-0.536,1.195-1.195V257.4
					c0-0.66-0.535-1.194-1.195-1.194h-7.467c-0.661,0-1.196,0.534-1.196,1.194V264.869z"/>
				<path fill="#8B78B7" d="M286.638,266.404h-7.467c-0.847,0-1.536-0.688-1.536-1.535V257.4c0-0.846,0.688-1.535,1.536-1.535h7.467
					c0.847,0,1.536,0.689,1.536,1.535v7.469C288.174,265.716,287.485,266.404,286.638,266.404z M279.171,256.546
					c-0.472,0-0.855,0.384-0.855,0.854v7.469c0,0.471,0.384,0.854,0.855,0.854h7.467c0.471,0,0.854-0.383,0.854-0.854V257.4
					c0-0.471-0.383-0.854-0.854-0.854H279.171z"/>
			</g>
			<g>
				<path fill="#8B78B7" d="M263.268,264.869c0,0.659,0.536,1.195,1.195,1.195h7.468c0.66,0,1.195-0.536,1.195-1.195V257.4
					c0-0.66-0.535-1.194-1.195-1.194h-7.468c-0.66,0-1.195,0.534-1.195,1.194V264.869z"/>
				<path fill="#8B78B7" d="M271.931,266.404h-7.468c-0.847,0-1.536-0.688-1.536-1.535V257.4c0-0.846,0.689-1.535,1.536-1.535h7.468
					c0.846,0,1.535,0.689,1.535,1.535v7.469C273.466,265.716,272.777,266.404,271.931,266.404z M264.463,256.546
					c-0.471,0-0.855,0.384-0.855,0.854v7.469c0,0.471,0.384,0.854,0.855,0.854h7.468c0.471,0,0.855-0.383,0.855-0.854V257.4
					c0-0.471-0.384-0.854-0.855-0.854H264.463z"/>
			</g>
			<g>
				<path fill="#8B78B7" d="M248.561,264.869c0,0.659,0.535,1.195,1.195,1.195h7.467c0.661,0,1.196-0.536,1.196-1.195V257.4
					c0-0.66-0.535-1.194-1.196-1.194h-7.467c-0.66,0-1.195,0.534-1.195,1.194V264.869z"/>
				<path fill="#8B78B7" d="M257.224,266.404h-7.467c-0.847,0-1.536-0.688-1.536-1.535V257.4c0-0.846,0.689-1.535,1.536-1.535h7.467
					c0.846,0,1.536,0.689,1.536,1.535v7.469C258.759,265.716,258.07,266.404,257.224,266.404z M249.756,256.546
					c-0.472,0-0.854,0.384-0.854,0.854v7.469c0,0.471,0.383,0.854,0.854,0.854h7.467c0.472,0,0.855-0.383,0.855-0.854V257.4
					c0-0.471-0.383-0.854-0.855-0.854H249.756z"/>
			</g>
			<g>
				<path fill="#8B78B7" d="M233.854,264.869c0,0.659,0.535,1.195,1.194,1.195h7.468c0.66,0,1.195-0.536,1.195-1.195V257.4
					c0-0.66-0.535-1.194-1.195-1.194h-7.468c-0.66,0-1.194,0.534-1.194,1.194V264.869z"/>
				<path fill="#8B78B7" d="M242.517,266.404h-7.468c-0.846,0-1.535-0.688-1.535-1.535V257.4c0-0.846,0.688-1.535,1.535-1.535h7.468
					c0.846,0,1.536,0.689,1.536,1.535v7.469C244.053,265.716,243.363,266.404,242.517,266.404z M235.049,256.546
					c-0.472,0-0.854,0.384-0.854,0.854v7.469c0,0.471,0.383,0.854,0.854,0.854h7.468c0.471,0,0.854-0.383,0.854-0.854V257.4
					c0-0.471-0.383-0.854-0.854-0.854H235.049z"/>
			</g>
			<g>
				<path fill="#8B78B7" d="M213.866,264.869c0,0.659,0.77,1.195,1.718,1.195h10.734c0.949,0,1.718-0.536,1.718-1.195V257.4
					c0-0.66-0.769-1.194-1.718-1.194h-10.734c-0.948,0-1.718,0.534-1.718,1.194V264.869z"/>
				<path fill="#8B78B7" d="M226.318,266.404h-10.734c-1.154,0-2.058-0.675-2.058-1.535V257.4c0-0.86,0.904-1.535,2.058-1.535
					h10.734c1.154,0,2.058,0.675,2.058,1.535v7.469C228.376,265.729,227.472,266.404,226.318,266.404z M215.583,256.546
					c-0.746,0-1.377,0.392-1.377,0.854v7.469c0,0.463,0.631,0.854,1.377,0.854h10.734c0.747,0,1.377-0.391,1.377-0.854V257.4
					c0-0.463-0.631-0.854-1.377-0.854H215.583z"/>
			</g>
		</g>
		<g>
			<path fill="#CDD0E0" d="M376.84,292.099c0,0.661,0.535,1.196,1.197,1.196h7.467c0.66,0,1.195-0.535,1.195-1.196v-7.468
				c0-0.658-0.535-1.194-1.195-1.194h-7.467c-0.662,0-1.197,0.536-1.197,1.194V292.099z"/>
			<path fill="#CDD0E0" d="M385.504,293.635h-7.467c-0.848,0-1.537-0.689-1.537-1.536v-7.468c0-0.846,0.689-1.535,1.537-1.535h7.467
				c0.846,0,1.535,0.689,1.535,1.535v7.468C387.04,292.945,386.35,293.635,385.504,293.635z M378.038,283.777
				c-0.473,0-0.855,0.383-0.855,0.854v7.468c0,0.472,0.383,0.855,0.855,0.855h7.467c0.471,0,0.854-0.384,0.854-0.855v-7.468
				c0-0.471-0.383-0.854-0.854-0.854H378.038z"/>
		</g>
		<g>
			<path fill="#CDD0E0" d="M362.133,292.099c0,0.661,0.535,1.196,1.195,1.196h7.467c0.66,0,1.195-0.535,1.195-1.196v-7.468
				c0-0.658-0.535-1.194-1.195-1.194h-7.467c-0.66,0-1.195,0.536-1.195,1.194V292.099z"/>
			<path fill="#CDD0E0" d="M370.795,293.635h-7.467c-0.846,0-1.535-0.689-1.535-1.536v-7.468c0-0.846,0.689-1.535,1.535-1.535h7.467
				c0.848,0,1.537,0.689,1.537,1.535v7.468C372.333,292.945,371.643,293.635,370.795,293.635z M363.329,283.777
				c-0.471,0-0.854,0.383-0.854,0.854v7.468c0,0.472,0.383,0.855,0.854,0.855h7.467c0.473,0,0.855-0.384,0.855-0.855v-7.468
				c0-0.471-0.383-0.854-0.855-0.854H363.329z"/>
		</g>
		<g>
			<path fill="#CDD0E0" d="M347.426,292.099c0,0.661,0.535,1.196,1.195,1.196h7.469c0.66,0,1.193-0.535,1.193-1.196v-7.468
				c0-0.658-0.533-1.194-1.193-1.194h-7.469c-0.66,0-1.195,0.536-1.195,1.194V292.099z"/>
			<path fill="#CDD0E0" d="M356.09,293.635h-7.469c-0.848,0-1.535-0.689-1.535-1.536v-7.468c0-0.846,0.688-1.535,1.535-1.535h7.469
				c0.846,0,1.535,0.689,1.535,1.535v7.468C357.625,292.945,356.936,293.635,356.09,293.635z M348.622,283.777
				c-0.471,0-0.854,0.383-0.854,0.854v7.468c0,0.472,0.383,0.855,0.854,0.855h7.469c0.471,0,0.854-0.384,0.854-0.855v-7.468
				c0-0.471-0.383-0.854-0.854-0.854H348.622z"/>
		</g>
		<g>
			<path fill="#CDD0E0" d="M332.719,292.099c0,0.661,0.535,1.196,1.195,1.196h7.469c0.658,0,1.193-0.535,1.193-1.196v-7.468
				c0-0.658-0.535-1.194-1.193-1.194h-7.469c-0.66,0-1.195,0.536-1.195,1.194V292.099z"/>
			<path fill="#CDD0E0" d="M341.383,293.635h-7.469c-0.846,0-1.535-0.689-1.535-1.536v-7.468c0-0.846,0.689-1.535,1.535-1.535h7.469
				c0.846,0,1.535,0.689,1.535,1.535v7.468C342.918,292.945,342.229,293.635,341.383,293.635z M333.915,283.777
				c-0.471,0-0.854,0.383-0.854,0.854v7.468c0,0.472,0.383,0.855,0.854,0.855h7.469c0.471,0,0.854-0.384,0.854-0.855v-7.468
				c0-0.471-0.383-0.854-0.854-0.854H333.915z"/>
		</g>
		<g>
			<path fill="#CDD0E0" d="M318.012,292.099c0,0.661,0.535,1.196,1.195,1.196h7.467c0.66,0,1.195-0.535,1.195-1.196v-7.468
				c0-0.658-0.535-1.194-1.195-1.194h-7.467c-0.66,0-1.195,0.536-1.195,1.194V292.099z"/>
			<path fill="#CDD0E0" d="M326.674,293.635h-7.467c-0.846,0-1.535-0.689-1.535-1.536v-7.468c0-0.846,0.689-1.535,1.535-1.535h7.467
				c0.848,0,1.537,0.689,1.537,1.535v7.468C328.211,292.945,327.522,293.635,326.674,293.635z M319.208,283.777
				c-0.471,0-0.854,0.383-0.854,0.854v7.468c0,0.472,0.383,0.855,0.854,0.855h7.467c0.473,0,0.855-0.384,0.855-0.855v-7.468
				c0-0.471-0.383-0.854-0.855-0.854H319.208z"/>
		</g>
		<g>
			<path fill="#CDD0E0" d="M303.305,292.099c0,0.661,0.535,1.196,1.195,1.196h7.468c0.66,0,1.194-0.535,1.194-1.196v-7.468
				c0-0.658-0.534-1.194-1.194-1.194H304.5c-0.66,0-1.195,0.536-1.195,1.194V292.099z"/>
			<path fill="#CDD0E0" d="M311.968,293.635H304.5c-0.846,0-1.535-0.689-1.535-1.536v-7.468c0-0.846,0.688-1.535,1.535-1.535h7.468
				c0.847,0,1.536,0.689,1.536,1.535v7.468C313.504,292.945,312.815,293.635,311.968,293.635z M304.5,283.777
				c-0.472,0-0.854,0.383-0.854,0.854v7.468c0,0.472,0.383,0.855,0.854,0.855h7.468c0.471,0,0.854-0.384,0.854-0.855v-7.468
				c0-0.471-0.383-0.854-0.854-0.854H304.5z"/>
		</g>
		<g>
			<path fill="#CDD0E0" d="M288.598,292.099c0,0.661,0.535,1.196,1.195,1.196h7.467c0.661,0,1.195-0.535,1.195-1.196v-7.468
				c0-0.658-0.534-1.194-1.195-1.194h-7.467c-0.66,0-1.195,0.536-1.195,1.194V292.099z"/>
			<path fill="#CDD0E0" d="M297.26,293.635h-7.467c-0.846,0-1.535-0.689-1.535-1.536v-7.468c0-0.846,0.689-1.535,1.535-1.535h7.467
				c0.847,0,1.536,0.689,1.536,1.535v7.468C298.796,292.945,298.107,293.635,297.26,293.635z M289.793,283.777
				c-0.472,0-0.854,0.383-0.854,0.854v7.468c0,0.472,0.383,0.855,0.854,0.855h7.467c0.472,0,0.854-0.384,0.854-0.855v-7.468
				c0-0.471-0.382-0.854-0.854-0.854H289.793z"/>
		</g>
		<g>
			<g>
				<path fill="#CDD0E0" d="M273.891,292.099c0,0.661,0.535,1.196,1.195,1.196h7.468c0.661,0,1.195-0.535,1.195-1.196v-7.468
					c0-0.658-0.534-1.194-1.195-1.194h-7.468c-0.66,0-1.195,0.536-1.195,1.194V292.099z"/>
				<path fill="#CDD0E0" d="M282.554,293.635h-7.468c-0.847,0-1.535-0.689-1.535-1.536v-7.468c0-0.846,0.688-1.535,1.535-1.535
					h7.468c0.846,0,1.535,0.689,1.535,1.535v7.468C284.089,292.945,283.4,293.635,282.554,293.635z M275.085,283.777
					c-0.471,0-0.854,0.383-0.854,0.854v7.468c0,0.472,0.384,0.855,0.854,0.855h7.468c0.471,0,0.854-0.384,0.854-0.855v-7.468
					c0-0.471-0.384-0.854-0.854-0.854H275.085z"/>
			</g>
			<g>
				<path fill="#CDD0E0" d="M259.184,292.099c0,0.661,0.535,1.196,1.195,1.196h7.468c0.659,0,1.194-0.535,1.194-1.196v-7.468
					c0-0.658-0.535-1.194-1.194-1.194h-7.468c-0.66,0-1.195,0.536-1.195,1.194V292.099z"/>
				<path fill="#CDD0E0" d="M267.847,293.635h-7.468c-0.847,0-1.536-0.689-1.536-1.536v-7.468c0-0.846,0.688-1.535,1.536-1.535
					h7.468c0.846,0,1.535,0.689,1.535,1.535v7.468C269.382,292.945,268.693,293.635,267.847,293.635z M260.379,283.777
					c-0.471,0-0.854,0.383-0.854,0.854v7.468c0,0.472,0.383,0.855,0.854,0.855h7.468c0.471,0,0.854-0.384,0.854-0.855v-7.468
					c0-0.471-0.383-0.854-0.854-0.854H260.379z"/>
			</g>
			<g>
				<path fill="#CDD0E0" d="M244.477,292.099c0,0.661,0.535,1.196,1.195,1.196h7.467c0.66,0,1.195-0.535,1.195-1.196v-7.468
					c0-0.658-0.536-1.194-1.195-1.194h-7.467c-0.661,0-1.195,0.536-1.195,1.194V292.099z"/>
				<path fill="#CDD0E0" d="M253.139,293.635h-7.467c-0.847,0-1.536-0.689-1.536-1.536v-7.468c0-0.846,0.688-1.535,1.536-1.535
					h7.467c0.847,0,1.536,0.689,1.536,1.535v7.468C254.675,292.945,253.986,293.635,253.139,293.635z M245.672,283.777
					c-0.472,0-0.855,0.383-0.855,0.854v7.468c0,0.472,0.384,0.855,0.855,0.855h7.467c0.471,0,0.855-0.384,0.855-0.855v-7.468
					c0-0.471-0.384-0.854-0.855-0.854H245.672z"/>
			</g>
			<g>
				<path fill="#CDD0E0" d="M229.769,292.099c0,0.661,0.536,1.196,1.195,1.196h7.467c0.661,0,1.196-0.535,1.196-1.196v-7.468
					c0-0.658-0.536-1.194-1.196-1.194h-7.467c-0.66,0-1.195,0.536-1.195,1.194V292.099z"/>
				<path fill="#CDD0E0" d="M238.432,293.635h-7.467c-0.846,0-1.535-0.689-1.535-1.536v-7.468c0-0.846,0.689-1.535,1.535-1.535
					h7.467c0.847,0,1.536,0.689,1.536,1.535v7.468C239.968,292.945,239.278,293.635,238.432,293.635z M230.964,283.777
					c-0.471,0-0.854,0.383-0.854,0.854v7.468c0,0.472,0.383,0.855,0.854,0.855h7.467c0.472,0,0.855-0.384,0.855-0.855v-7.468
					c0-0.471-0.384-0.854-0.855-0.854H230.964z"/>
			</g>
		</g>
		<g>
			<path fill="#CDD0E0" d="M258.233,305.715c0,0.66,0.634,1.195,1.416,1.195h8.843c0.781,0,1.415-0.535,1.415-1.195v-7.469
				c0-0.659-0.634-1.194-1.415-1.194h-8.843c-0.782,0-1.416,0.535-1.416,1.194V305.715z"/>
			<path fill="#CDD0E0" d="M268.491,307.25h-8.843c-0.969,0-1.756-0.688-1.756-1.535v-7.469c0-0.846,0.787-1.535,1.756-1.535h8.843
				c0.968,0,1.755,0.689,1.755,1.535v7.469C270.247,306.562,269.459,307.25,268.491,307.25z M259.648,297.393
				c-0.593,0-1.075,0.383-1.075,0.854v7.469c0,0.471,0.482,0.854,1.075,0.854h8.843c0.592,0,1.074-0.384,1.074-0.854v-7.469
				c0-0.471-0.482-0.854-1.074-0.854H259.648z"/>
		</g>
		<g>
			<path fill="#CDD0E0" d="M243.526,305.715c0,0.66,0.535,1.195,1.195,1.195h7.468c0.659,0,1.194-0.535,1.194-1.195v-7.469
				c0-0.659-0.535-1.194-1.194-1.194h-7.468c-0.66,0-1.195,0.535-1.195,1.194V305.715z"/>
			<path fill="#CDD0E0" d="M252.189,307.25h-7.468c-0.847,0-1.536-0.688-1.536-1.535v-7.469c0-0.846,0.688-1.535,1.536-1.535h7.468
				c0.846,0,1.535,0.689,1.535,1.535v7.469C253.724,306.562,253.036,307.25,252.189,307.25z M244.721,297.393
				c-0.471,0-0.855,0.383-0.855,0.854v7.469c0,0.471,0.384,0.854,0.855,0.854h7.468c0.47,0,0.854-0.384,0.854-0.854v-7.469
				c0-0.471-0.384-0.854-0.854-0.854H244.721z"/>
		</g>
		<g>
			<path fill="#CDD0E0" d="M361.399,305.715c0,0.66-0.635,1.195-1.416,1.195h-8.842c-0.781,0-1.414-0.535-1.414-1.195v-7.469
				c0-0.659,0.633-1.194,1.414-1.194h8.842c0.781,0,1.416,0.535,1.416,1.194V305.715z"/>
			<path fill="#CDD0E0" d="M359.983,307.25h-8.842c-0.969,0-1.756-0.688-1.756-1.535v-7.469c0-0.846,0.787-1.535,1.756-1.535h8.842
				c0.969,0,1.756,0.689,1.756,1.535v7.469C361.739,306.562,360.952,307.25,359.983,307.25z M351.141,297.393
				c-0.592,0-1.074,0.383-1.074,0.854v7.469c0,0.471,0.482,0.854,1.074,0.854h8.842c0.594,0,1.076-0.384,1.076-0.854v-7.469
				c0-0.471-0.482-0.854-1.076-0.854H351.141z"/>
		</g>
		<g>
			<path fill="#CDD0E0" d="M376.106,305.715c0,0.66-0.535,1.195-1.195,1.195h-7.469c-0.658,0-1.193-0.535-1.193-1.195v-7.469
				c0-0.659,0.535-1.194,1.193-1.194h7.469c0.66,0,1.195,0.535,1.195,1.194V305.715z"/>
			<path fill="#CDD0E0" d="M374.911,307.25h-7.469c-0.846,0-1.535-0.688-1.535-1.535v-7.469c0-0.846,0.689-1.535,1.535-1.535h7.469
				c0.848,0,1.535,0.689,1.535,1.535v7.469C376.446,306.562,375.758,307.25,374.911,307.25z M367.442,297.393
				c-0.471,0-0.854,0.383-0.854,0.854v7.469c0,0.471,0.383,0.854,0.854,0.854h7.469c0.473,0,0.855-0.384,0.855-0.854v-7.469
				c0-0.471-0.383-0.854-0.855-0.854H367.442z"/>
		</g>
		<g>
			<path fill="#CDD0E0" d="M228.819,305.715c0,0.66,0.535,1.195,1.195,1.195h7.467c0.66,0,1.195-0.535,1.195-1.195v-7.469
				c0-0.659-0.535-1.194-1.195-1.194h-7.467c-0.66,0-1.195,0.535-1.195,1.194V305.715z"/>
			<path fill="#CDD0E0" d="M237.481,307.25h-7.467c-0.847,0-1.536-0.688-1.536-1.535v-7.469c0-0.846,0.689-1.535,1.536-1.535h7.467
				c0.846,0,1.536,0.689,1.536,1.535v7.469C239.017,306.562,238.328,307.25,237.481,307.25z M230.014,297.393
				c-0.471,0-0.854,0.383-0.854,0.854v7.469c0,0.471,0.383,0.854,0.854,0.854h7.467c0.471,0,0.855-0.384,0.855-0.854v-7.469
				c0-0.471-0.384-0.854-0.855-0.854H230.014z"/>
		</g>
		<g>
			<path fill="#CDD0E0" d="M214.112,305.715c0,0.66,0.535,1.195,1.194,1.195h7.468c0.661,0,1.195-0.535,1.195-1.195v-7.469
				c0-0.659-0.535-1.194-1.195-1.194h-7.468c-0.659,0-1.194,0.535-1.194,1.194V305.715z"/>
			<path fill="#CDD0E0" d="M222.774,307.25h-7.468c-0.847,0-1.535-0.688-1.535-1.535v-7.469c0-0.846,0.688-1.535,1.535-1.535h7.468
				c0.846,0,1.536,0.689,1.536,1.535v7.469C224.31,306.562,223.621,307.25,222.774,307.25z M215.307,297.393
				c-0.471,0-0.854,0.383-0.854,0.854v7.469c0,0.471,0.383,0.854,0.854,0.854h7.468c0.472,0,0.855-0.384,0.855-0.854v-7.469
				c0-0.471-0.383-0.854-0.855-0.854H215.307z"/>
		</g>
		<g>
			<path fill="#CDD0E0" d="M213.866,292.099c0,0.661,0.621,1.196,1.388,1.196h8.671c0.766,0,1.388-0.535,1.388-1.196v-7.468
				c0-0.658-0.622-1.194-1.388-1.194h-8.671c-0.767,0-1.388,0.536-1.388,1.194V292.099z"/>
			<path fill="#CDD0E0" d="M223.925,293.635h-8.671c-0.953,0-1.728-0.689-1.728-1.536v-7.468c0-0.846,0.775-1.535,1.728-1.535h8.671
				c0.953,0,1.728,0.689,1.728,1.535v7.468C225.653,292.945,224.878,293.635,223.925,293.635z M215.253,283.777
				c-0.577,0-1.047,0.383-1.047,0.854v7.468c0,0.472,0.47,0.855,1.047,0.855h8.671c0.577,0,1.047-0.384,1.047-0.855v-7.468
				c0-0.471-0.47-0.854-1.047-0.854H215.253z"/>
		</g>
		<g>
			<path fill="#CDD0E0" d="M420.198,257.4c0-0.66-0.535-1.194-1.195-1.194h-7.467c-0.66,0-1.195,0.534-1.195,1.194v7.469
				c0,0.659,0.535,1.195,1.195,1.195h1.67v11.557c0,1.125,0.377,2.037,0.842,2.037h5.25c0.465,0,0.842-0.912,0.842-2.037v-12.396
				c0.033-0.113,0.059-0.23,0.059-0.355V257.4z"/>
			<path fill="#CDD0E0" d="M419.297,279.999h-5.25c-0.775,0-1.18-1.196-1.18-2.378v-11.217h-1.332c-0.848,0-1.537-0.688-1.537-1.535
				V257.4c0-0.846,0.689-1.535,1.537-1.535h7.467c0.846,0,1.535,0.689,1.535,1.535v7.469c0,0.129-0.02,0.262-0.061,0.404v12.348
				C420.477,278.803,420.073,279.999,419.297,279.999z M411.536,256.546c-0.473,0-0.855,0.384-0.855,0.854v7.469
				c0,0.471,0.383,0.854,0.855,0.854h2.012v11.898c0,1.113,0.371,1.697,0.5,1.697h5.25c0.129,0,0.5-0.584,0.5-1.697l0.016-12.498
				c0.031-0.098,0.045-0.179,0.045-0.254V257.4c0-0.471-0.385-0.854-0.855-0.854H411.536z"/>
		</g>
		<g>
			<path fill="#CDD0E0" d="M399.038,278.484c0,0.66,0.535,1.194,1.193,1.194h7.469c0.66,0,1.195-0.534,1.195-1.194v-7.469
				c0-0.659-0.535-1.194-1.195-1.194h-7.469c-0.658,0-1.193,0.535-1.193,1.194V278.484z"/>
			<path fill="#CDD0E0" d="M407.7,280.02h-7.469c-0.846,0-1.533-0.688-1.533-1.535v-7.469c0-0.846,0.688-1.535,1.533-1.535h7.469
				c0.848,0,1.535,0.689,1.535,1.535v7.469C409.235,279.331,408.547,280.02,407.7,280.02z M400.231,270.162
				c-0.471,0-0.854,0.383-0.854,0.854v7.469c0,0.471,0.383,0.854,0.854,0.854h7.469c0.471,0,0.854-0.383,0.854-0.854v-7.469
				c0-0.471-0.383-0.854-0.854-0.854H400.231z"/>
		</g>
		<g>
			<path fill="#CDD0E0" d="M384.329,278.484c0,0.66,0.535,1.194,1.195,1.194h7.469c0.66,0,1.193-0.534,1.193-1.194v-7.469
				c0-0.659-0.533-1.194-1.193-1.194h-7.469c-0.66,0-1.195,0.535-1.195,1.194V278.484z"/>
			<path fill="#CDD0E0" d="M392.993,280.02h-7.469c-0.846,0-1.533-0.688-1.533-1.535v-7.469c0-0.846,0.688-1.535,1.533-1.535h7.469
				c0.846,0,1.535,0.689,1.535,1.535v7.469C394.528,279.331,393.838,280.02,392.993,280.02z M385.524,270.162
				c-0.471,0-0.854,0.383-0.854,0.854v7.469c0,0.471,0.383,0.854,0.854,0.854h7.469c0.471,0,0.854-0.383,0.854-0.854v-7.469
				c0-0.471-0.383-0.854-0.854-0.854H385.524z"/>
		</g>
		<g>
			<path fill="#CDD0E0" d="M369.622,278.484c0,0.66,0.535,1.194,1.195,1.194h7.469c0.66,0,1.193-0.534,1.193-1.194v-7.469
				c0-0.659-0.533-1.194-1.193-1.194h-7.469c-0.66,0-1.195,0.535-1.195,1.194V278.484z"/>
			<path fill="#CDD0E0" d="M378.286,280.02h-7.469c-0.846,0-1.535-0.688-1.535-1.535v-7.469c0-0.846,0.689-1.535,1.535-1.535h7.469
				c0.848,0,1.535,0.689,1.535,1.535v7.469C379.821,279.331,379.133,280.02,378.286,280.02z M370.817,270.162
				c-0.471,0-0.854,0.383-0.854,0.854v7.469c0,0.471,0.383,0.854,0.854,0.854h7.469c0.471,0,0.854-0.383,0.854-0.854v-7.469
				c0-0.471-0.383-0.854-0.854-0.854H370.817z"/>
		</g>
		<g>
			<path fill="#C778B2" d="M354.915,278.484c0,0.66,0.535,1.194,1.195,1.194h7.469c0.66,0,1.195-0.534,1.195-1.194v-7.469
				c0-0.659-0.535-1.194-1.195-1.194h-7.469c-0.66,0-1.195,0.535-1.195,1.194V278.484z"/>
			<path fill="#C778B2" d="M363.579,280.02h-7.469c-0.846,0-1.535-0.688-1.535-1.535v-7.469c0-0.846,0.689-1.535,1.535-1.535h7.469
				c0.846,0,1.535,0.689,1.535,1.535v7.469C365.114,279.331,364.424,280.02,363.579,280.02z M356.11,270.162
				c-0.471,0-0.854,0.383-0.854,0.854v7.469c0,0.471,0.383,0.854,0.854,0.854h7.469c0.471,0,0.854-0.383,0.854-0.854v-7.469
				c0-0.471-0.383-0.854-0.854-0.854H356.11z"/>
		</g>
		<g>
			<path fill="#C778B2" d="M340.208,278.484c0,0.66,0.535,1.194,1.195,1.194h7.469c0.658,0,1.193-0.534,1.193-1.194v-7.469
				c0-0.659-0.535-1.194-1.193-1.194h-7.469c-0.66,0-1.195,0.535-1.195,1.194V278.484z"/>
			<path fill="#C778B2" d="M348.872,280.02h-7.469c-0.846,0-1.535-0.688-1.535-1.535v-7.469c0-0.846,0.689-1.535,1.535-1.535h7.469
				c0.846,0,1.535,0.689,1.535,1.535v7.469C350.407,279.331,349.717,280.02,348.872,280.02z M341.403,270.162
				c-0.471,0-0.855,0.383-0.855,0.854v7.469c0,0.471,0.385,0.854,0.855,0.854h7.469c0.471,0,0.855-0.383,0.855-0.854v-7.469
				c0-0.471-0.385-0.854-0.855-0.854H341.403z"/>
		</g>
		<g>
			<path fill="#CDD0E0" d="M325.502,278.484c0,0.66,0.535,1.194,1.193,1.194h7.469c0.66,0,1.195-0.534,1.195-1.194v-7.469
				c0-0.659-0.535-1.194-1.195-1.194h-7.469c-0.658,0-1.193,0.535-1.193,1.194V278.484z"/>
			<path fill="#CDD0E0" d="M334.165,280.02h-7.469c-0.846,0-1.535-0.688-1.535-1.535v-7.469c0-0.846,0.689-1.535,1.535-1.535h7.469
				c0.846,0,1.535,0.689,1.535,1.535v7.469C335.7,279.331,335.01,280.02,334.165,280.02z M326.696,270.162
				c-0.471,0-0.855,0.383-0.855,0.854v7.469c0,0.471,0.385,0.854,0.855,0.854h7.469c0.471,0,0.855-0.383,0.855-0.854v-7.469
				c0-0.471-0.385-0.854-0.855-0.854H326.696z"/>
		</g>
		<g>
			<path fill="#CDD0E0" d="M310.793,278.484c0,0.66,0.535,1.194,1.195,1.194h7.469c0.66,0,1.195-0.534,1.195-1.194v-7.469
				c0-0.659-0.535-1.194-1.195-1.194h-7.469c-0.66,0-1.195,0.535-1.195,1.194V278.484z"/>
			<path fill="#CDD0E0" d="M319.458,280.02h-7.469c-0.846,0-1.535-0.688-1.535-1.535v-7.469c0-0.846,0.688-1.535,1.535-1.535h7.469
				c0.846,0,1.535,0.689,1.535,1.535v7.469C320.993,279.331,320.303,280.02,319.458,280.02z M311.989,270.162
				c-0.472,0-0.854,0.383-0.854,0.854v7.469c0,0.471,0.382,0.854,0.854,0.854h7.469c0.471,0,0.854-0.383,0.854-0.854v-7.469
				c0-0.471-0.383-0.854-0.854-0.854H311.989z"/>
		</g>
		<g>
			<path fill="#CDD0E0" d="M296.086,278.484c0,0.66,0.535,1.194,1.195,1.194h7.467c0.66,0,1.195-0.534,1.195-1.194v-7.469
				c0-0.659-0.535-1.194-1.195-1.194h-7.467c-0.661,0-1.195,0.535-1.195,1.194V278.484z"/>
			<path fill="#CDD0E0" d="M304.749,280.02h-7.467c-0.847,0-1.535-0.688-1.535-1.535v-7.469c0-0.846,0.688-1.535,1.535-1.535h7.467
				c0.847,0,1.536,0.689,1.536,1.535v7.469C306.285,279.331,305.596,280.02,304.749,280.02z M297.282,270.162
				c-0.472,0-0.854,0.383-0.854,0.854v7.469c0,0.471,0.383,0.854,0.854,0.854h7.467c0.471,0,0.854-0.383,0.854-0.854v-7.469
				c0-0.471-0.383-0.854-0.854-0.854H297.282z"/>
		</g>
		<g>
			<path fill="#CDD0E0" d="M281.379,278.484c0,0.66,0.536,1.194,1.196,1.194h7.467c0.661,0,1.195-0.534,1.195-1.194v-7.469
				c0-0.659-0.534-1.194-1.195-1.194h-7.467c-0.66,0-1.196,0.535-1.196,1.194V278.484z"/>
			<path fill="#CDD0E0" d="M290.042,280.02h-7.467c-0.847,0-1.536-0.688-1.536-1.535v-7.469c0-0.846,0.689-1.535,1.536-1.535h7.467
				c0.846,0,1.536,0.689,1.536,1.535v7.469C291.578,279.331,290.888,280.02,290.042,280.02z M282.575,270.162
				c-0.472,0-0.855,0.383-0.855,0.854v7.469c0,0.471,0.384,0.854,0.855,0.854h7.467c0.471,0,0.854-0.383,0.854-0.854v-7.469
				c0-0.471-0.384-0.854-0.854-0.854H282.575z"/>
		</g>
		<g>
			<path fill="#CDD0E0" d="M266.672,278.484c0,0.66,0.535,1.194,1.195,1.194h7.468c0.659,0,1.194-0.534,1.194-1.194v-7.469
				c0-0.659-0.535-1.194-1.194-1.194h-7.468c-0.66,0-1.195,0.535-1.195,1.194V278.484z"/>
			<path fill="#CDD0E0" d="M275.335,280.02h-7.468c-0.847,0-1.536-0.688-1.536-1.535v-7.469c0-0.846,0.689-1.535,1.536-1.535h7.468
				c0.846,0,1.535,0.689,1.535,1.535v7.469C276.87,279.331,276.182,280.02,275.335,280.02z M267.868,270.162
				c-0.472,0-0.855,0.383-0.855,0.854v7.469c0,0.471,0.383,0.854,0.855,0.854h7.468c0.471,0,0.854-0.383,0.854-0.854v-7.469
				c0-0.471-0.383-0.854-0.854-0.854H267.868z"/>
		</g>
		<g>
			<path fill="#CDD0E0" d="M251.965,278.484c0,0.66,0.536,1.194,1.196,1.194h7.467c0.66,0,1.195-0.534,1.195-1.194v-7.469
				c0-0.659-0.535-1.194-1.195-1.194h-7.467c-0.66,0-1.196,0.535-1.196,1.194V278.484z"/>
			<path fill="#CDD0E0" d="M260.628,280.02h-7.467c-0.847,0-1.536-0.688-1.536-1.535v-7.469c0-0.846,0.689-1.535,1.536-1.535h7.467
				c0.846,0,1.536,0.689,1.536,1.535v7.469C262.164,279.331,261.474,280.02,260.628,280.02z M253.161,270.162
				c-0.472,0-0.855,0.383-0.855,0.854v7.469c0,0.471,0.384,0.854,0.855,0.854h7.467c0.471,0,0.854-0.383,0.854-0.854v-7.469
				c0-0.471-0.384-0.854-0.854-0.854H253.161z"/>
		</g>
		<g>
			<path fill="#CDD0E0" d="M237.258,278.484c0,0.66,0.535,1.194,1.194,1.194h7.468c0.661,0,1.195-0.534,1.195-1.194v-7.469
				c0-0.659-0.535-1.194-1.195-1.194h-7.468c-0.659,0-1.194,0.535-1.194,1.194V278.484z"/>
			<path fill="#CDD0E0" d="M245.92,280.02h-7.468c-0.847,0-1.535-0.688-1.535-1.535v-7.469c0-0.846,0.688-1.535,1.535-1.535h7.468
				c0.846,0,1.536,0.689,1.536,1.535v7.469C247.456,279.331,246.767,280.02,245.92,280.02z M238.453,270.162
				c-0.471,0-0.854,0.383-0.854,0.854v7.469c0,0.471,0.383,0.854,0.854,0.854h7.468c0.472,0,0.855-0.383,0.855-0.854v-7.469
				c0-0.471-0.383-0.854-0.855-0.854H238.453z"/>
		</g>
		<g>
			<path fill="#CDD0E0" d="M213.866,278.484c0,0.66,1.009,1.194,2.255,1.194h14.086c1.244,0,2.254-0.534,2.254-1.194v-7.469
				c0-0.659-1.01-1.194-2.254-1.194h-14.086c-1.246,0-2.255,0.535-2.255,1.194V278.484z"/>
			<path fill="#CDD0E0" d="M230.207,280.02h-14.086c-1.456,0-2.595-0.675-2.595-1.535v-7.469c0-0.861,1.14-1.535,2.595-1.535h14.086
				c1.454,0,2.595,0.674,2.595,1.535v7.469C232.801,279.345,231.661,280.02,230.207,280.02z M216.121,270.162
				c-1.096,0-1.914,0.45-1.914,0.854v7.469c0,0.402,0.818,0.854,1.914,0.854h14.086c1.095,0,1.914-0.451,1.914-0.854v-7.469
				c0-0.403-0.818-0.854-1.914-0.854H216.121z"/>
		</g>
		<g>
			<path fill="#67CBF4" d="M420.444,292.119c0,0.719-0.631,1.302-1.406,1.302h-26.234c-0.775,0-1.406-0.583-1.406-1.302v-7.38
				c0-0.72,0.631-1.303,1.406-1.303h26.234c0.775,0,1.406,0.583,1.406,1.303V292.119z"/>
			<path fill="#67CBF4" d="M419.038,293.762h-26.234c-0.963,0-1.746-0.737-1.746-1.643v-7.38c0-0.907,0.783-1.644,1.746-1.644
				h26.234c0.963,0,1.746,0.736,1.746,1.644v7.38C420.784,293.024,420,293.762,419.038,293.762z M392.803,283.777
				c-0.586,0-1.066,0.431-1.066,0.962v7.38c0,0.529,0.48,0.961,1.066,0.961h26.234c0.588,0,1.064-0.432,1.064-0.961v-7.38
				c0-0.531-0.477-0.962-1.064-0.962H392.803z"/>
		</g>
		<g>
			<linearGradient id="SVGID_2_" gradientUnits="userSpaceOnUse" x1="274.7583" y1="302.043" x2="345.106" y2="302.043">
				<stop  offset="0" style="stop-color:#7379BA"/>
				<stop  offset="1" style="stop-color:#BC79B3"/>
			</linearGradient>
			<path fill="url(#SVGID_2_)" d="M345.106,305.734c0,0.719-0.611,1.301-1.363,1.301H276.12c-0.752,0-1.362-0.582-1.362-1.301v-7.38
				c0-0.72,0.609-1.303,1.362-1.303h67.623c0.752,0,1.363,0.583,1.363,1.303V305.734z"/>
			<linearGradient id="SVGID_3_" gradientUnits="userSpaceOnUse" x1="274.4175" y1="302.0439" x2="345.4458" y2="302.0439">
				<stop  offset="0" style="stop-color:#7379BA"/>
				<stop  offset="1" style="stop-color:#BC79B3"/>
			</linearGradient>
			<path fill="url(#SVGID_3_)" d="M343.743,307.377H276.12c-0.938,0-1.703-0.737-1.703-1.643v-7.38c0-0.906,0.764-1.644,1.703-1.644
				h67.623c0.939,0,1.703,0.737,1.703,1.644v7.38C345.446,306.64,344.682,307.377,343.743,307.377z M276.12,297.393
				c-0.563,0-1.021,0.432-1.021,0.962v7.38c0,0.529,0.458,0.961,1.021,0.961h67.623c0.564,0,1.023-0.432,1.023-0.961v-7.38
				c0-0.53-0.459-0.962-1.023-0.962H276.12z"/>
		</g>
	</g>
	<g>
		<linearGradient id="SVGID_4_" gradientUnits="userSpaceOnUse" x1="483.8608" y1="307.1162" x2="483.8608" y2="220.1201">
			<stop  offset="0" style="stop-color:#F1F2F2"/>
			<stop  offset="0.2605" style="stop-color:#F5F5F6"/>
			<stop  offset="1" style="stop-color:#FFFFFF"/>
		</linearGradient>
		<path fill="url(#SVGID_4_)" d="M507.11,287.116c0,11.046-8.954,20-20,20h-6.497c-11.047,0-20-8.954-20-20V240.12
			c0-11.045,8.953-20,20-20h6.497c11.046,0,20,8.955,20,20V287.116z"/>
		<g>
			<path fill="#CDD0E0" d="M486.693,307.616h-6.497c-11.855,0-21.5-9.645-21.5-21.5V239.12c0-11.855,9.645-21.5,21.5-21.5h6.497
				c11.855,0,21.5,9.645,21.5,21.5v46.996C508.193,297.972,498.548,307.616,486.693,307.616z M480.196,220.62
				c-10.201,0-18.5,8.299-18.5,18.5v46.996c0,10.201,8.299,18.5,18.5,18.5h6.497c10.201,0,18.5-8.299,18.5-18.5V239.12
				c0-10.201-8.299-18.5-18.5-18.5H480.196z"/>
		</g>
		<g>
			<path fill="#CDD0E0" d="M483.445,290.105c-3.217,0-5.833-2.616-5.833-5.833c0-3.216,2.616-5.832,5.833-5.832
				c3.216,0,5.832,2.616,5.832,5.832C489.277,287.489,486.661,290.105,483.445,290.105z M483.445,281.44
				c-1.563,0-2.833,1.271-2.833,2.832c0,1.563,1.271,2.833,2.833,2.833c1.562,0,2.832-1.271,2.832-2.833
				C486.277,282.711,485.006,281.44,483.445,281.44z"/>
		</g>
	</g>
	<g>
		<path fill="#FFFFFF" d="M133.075,220.832c-23.458,0-42.542,19.085-42.542,42.543s19.084,42.543,42.542,42.543
			c23.458,0,42.542-19.085,42.542-42.543S156.533,220.832,133.075,220.832z"/>
		<path fill="#CDD0E0" d="M133.007,218.588c-24.792,0-44.961,20.169-44.961,44.961s20.169,44.962,44.961,44.962
			c24.792,0,44.962-20.17,44.962-44.962S157.8,218.588,133.007,218.588z M133.007,305.444c-23.101,0-41.895-18.794-41.895-41.896
			s18.794-41.895,41.895-41.895s41.896,18.793,41.896,41.895S156.108,305.444,133.007,305.444z"/>
		<path fill="#CDD0E0" d="M142.689,254.666c-13.219,0-23.974,10.756-23.974,23.975s10.755,23.975,23.974,23.975
			c13.22,0,23.975-10.756,23.975-23.975S155.909,254.666,142.689,254.666z"/>
		<path fill="#FFFFFF" d="M108.778,264.434c0,2.094-1.699,3.793-3.793,3.793h-7.296c-2.095,0-3.793-1.699-3.793-3.793l0,0
			c0-2.096,1.699-3.795,3.793-3.795h7.296C107.079,260.639,108.778,262.338,108.778,264.434L108.778,264.434z"/>
		<path fill="#CDD0E0" d="M104.984,259.105h-7.296c-2.937,0-5.327,2.391-5.327,5.328c0,2.937,2.39,5.326,5.327,5.326h7.296
			c2.937,0,5.327-2.39,5.327-5.326C110.311,261.496,107.921,259.105,104.984,259.105z M104.984,266.693h-7.296
			c-1.246,0-2.26-1.014-2.26-2.26c0-1.247,1.014-2.262,2.26-2.262h7.296c1.246,0,2.26,1.015,2.26,2.262
			C107.245,265.68,106.23,266.693,104.984,266.693z"/>
		<path fill="#FFFFFF" d="M132.758,235.779c-15.149,0-27.475,12.325-27.475,27.475c0,15.148,12.326,27.475,27.475,27.475
			c15.149,0,27.474-12.326,27.474-27.475C160.231,248.104,147.907,235.779,132.758,235.779z"/>
		
			<radialGradient id="SVGID_5_" cx="135.7114" cy="271.5723" r="35.9042" gradientTransform="matrix(1 0 0 1.0093 0 -2.5175)" gradientUnits="userSpaceOnUse">
			<stop  offset="0" style="stop-color:#5E4B8B"/>
			<stop  offset="0.6909" style="stop-color:#5E4B8B"/>
			<stop  offset="0.7305" style="stop-color:#5C4988"/>
			<stop  offset="0.7786" style="stop-color:#55447E"/>
			<stop  offset="0.8311" style="stop-color:#4A3C6E"/>
			<stop  offset="0.8866" style="stop-color:#3B2F58"/>
			<stop  offset="0.9441" style="stop-color:#271F3F"/>
			<stop  offset="0.9455" style="stop-color:#271F3E"/>
		</radialGradient>
		<path fill="url(#SVGID_5_)" d="M132.712,239.596c-13.045,0-23.658,10.613-23.658,23.658c0,13.044,10.613,23.657,23.658,23.657
			c13.044,0,23.657-10.613,23.657-23.657C156.369,250.209,145.756,239.596,132.712,239.596z"/>
		<path fill="#CDD0E0" d="M132.712,233.951c-16.158,0-29.304,13.145-29.304,29.303c0,16.157,13.146,29.303,29.304,29.303
			c16.158,0,29.303-13.146,29.303-29.303C162.016,247.096,148.87,233.951,132.712,233.951z M132.712,289.49
			c-14.467,0-26.237-11.77-26.237-26.236s11.77-26.236,26.237-26.236c14.467,0,26.236,11.77,26.236,26.236
			S147.179,289.49,132.712,289.49z"/>
	</g>
	<g>
		<g>
			<g>
				<path fill="#CDD0E0" d="M61.509,325.364c-0.529,0.579-1.251,0.911-2.035,0.937c-0.77,0.023-1.502-0.253-2.062-0.779
					c-0.561-0.527-0.882-1.24-0.906-2.01l-0.626-20.037c-0.024-0.753,0.243-1.475,0.751-2.031c0.529-0.58,1.252-0.912,2.036-0.937
					c1.587-0.05,2.919,1.2,2.969,2.788l0.627,20.037C62.285,324.086,62.018,324.808,61.509,325.364z M57.45,302.191
					c-0.313,0.343-0.476,0.785-0.462,1.249l0.627,20.037c0.015,0.472,0.212,0.911,0.557,1.234s0.794,0.493,1.267,0.479
					c0.481-0.015,0.926-0.22,1.251-0.575c0.313-0.342,0.476-0.785,0.462-1.248l-0.627-20.038c-0.031-0.976-0.849-1.743-1.824-1.712
					C58.22,301.633,57.775,301.836,57.45,302.191z"/>
			</g>
			<g>
				<path fill="#CDD0E0" d="M57.922,318.536l-0.6-19.176c-0.033-1.041,0.788-1.915,1.828-1.946c1.042-0.033,1.914,0.787,1.947,1.828
					l0.599,19.164c0.292-0.01,0.582-0.02,0.871-0.029l-0.599-19.162c-0.048-1.521-1.325-2.721-2.845-2.672
					c-1.521,0.047-2.72,1.323-2.673,2.845l0.601,19.18C57.339,318.557,57.629,318.547,57.922,318.536z"/>
			</g>
		</g>
		<g>
			<g>
				<path fill="#CDD0E0" d="M45.931,314.792c-0.851,0.931-2.192,1.199-3.336,0.669c-0.698-0.323-1.229-0.899-1.494-1.621
					c-0.265-0.723-0.232-1.504,0.091-2.202l8.43-18.188c0.125-0.27,0.288-0.516,0.487-0.732c0.85-0.931,2.191-1.199,3.336-0.67
					c1.44,0.668,2.069,2.383,1.402,3.824l-8.43,18.188C46.293,314.328,46.129,314.574,45.931,314.792z M50.928,293.465
					c-0.122,0.134-0.222,0.285-0.299,0.451L42.2,312.104c-0.199,0.429-0.218,0.909-0.056,1.353s0.488,0.798,0.917,0.996
					c0.704,0.326,1.527,0.162,2.05-0.41c0.122-0.134,0.222-0.285,0.3-0.451l8.429-18.188c0.41-0.885,0.023-1.938-0.861-2.35
					C52.274,292.729,51.451,292.895,50.928,293.465z"/>
			</g>
			<g>
				<path fill="#CDD0E0" d="M44.691,307.826l8.067-17.406c0.438-0.945,1.563-1.357,2.508-0.92c0.944,0.438,1.356,1.563,0.919,2.508
					l-8.062,17.395c0.264,0.123,0.528,0.244,0.791,0.366l8.061-17.395c0.64-1.381,0.037-3.025-1.344-3.665
					c-1.381-0.641-3.025-0.037-3.665,1.344l-8.069,17.41C44.161,307.584,44.425,307.704,44.691,307.826z"/>
			</g>
		</g>
		<g>
			<g>
				<path fill="#CDD0E0" d="M93.954,328.848c-0.75,0.819-1.875,1.134-2.939,0.82l-19.234-5.651
					c-0.738-0.218-1.347-0.708-1.716-1.384c-0.368-0.675-0.452-1.453-0.235-2.19c0.125-0.426,0.339-0.806,0.636-1.131
					c0.749-0.818,1.875-1.134,2.939-0.821l19.234,5.652c1.522,0.447,2.398,2.052,1.951,3.575
					C94.464,328.143,94.251,328.522,93.954,328.848z M71.285,320.061c-0.182,0.199-0.313,0.434-0.389,0.693
					c-0.133,0.455-0.083,0.933,0.144,1.348c0.226,0.414,0.601,0.717,1.054,0.85l19.234,5.651c0.653,0.192,1.346-0.001,1.806-0.504
					c0.182-0.198,0.314-0.433,0.39-0.694c0.274-0.936-0.263-1.921-1.198-2.195l-19.233-5.652
					C72.438,319.365,71.746,319.557,71.285,320.061z"/>
			</g>
			<g>
				<path fill="#CDD0E0" d="M86.729,326.77l-18.406-5.408c-0.999-0.293-1.574-1.346-1.28-2.344c0.294-1,1.345-1.574,2.344-1.28
					l18.395,5.406c0.082-0.28,0.164-0.56,0.245-0.837l-18.393-5.405c-1.461-0.429-2.998,0.409-3.427,1.87
					c-0.429,1.46,0.409,2.996,1.87,3.426l18.411,5.41C86.566,327.331,86.647,327.053,86.729,326.77z"/>
			</g>
		</g>
		<g>
			<g>
				<path fill="#CDD0E0" d="M80.75,304.285c-0.18,0.197-0.387,0.369-0.616,0.51c-0.654,0.403-1.427,0.529-2.176,0.352
					c-0.748-0.178-1.382-0.637-1.786-1.291l-10.52-17.065c-0.672-1.089-0.54-2.509,0.324-3.452c0.18-0.197,0.387-0.369,0.616-0.51
					c0.654-0.404,1.427-0.528,2.175-0.351c0.749,0.178,1.383,0.636,1.786,1.29l10.521,17.065
					C81.746,301.922,81.613,303.342,80.75,304.285z M66.795,284.086c-0.529,0.58-0.611,1.452-0.198,2.121l10.52,17.065
					c0.249,0.402,0.638,0.684,1.098,0.793c0.46,0.108,0.935,0.032,1.337-0.216c0.141-0.087,0.269-0.191,0.379-0.313
					c0.529-0.58,0.611-1.452,0.198-2.121l-10.521-17.064c-0.248-0.402-0.637-0.685-1.097-0.793c-0.46-0.109-0.935-0.033-1.337,0.215
					C67.033,283.86,66.906,283.965,66.795,284.086z"/>
			</g>
			<g>
				<path fill="#CDD0E0" d="M74.923,298.833l-10.068-16.33c-0.546-0.886-0.27-2.052,0.617-2.599c0.886-0.547,2.052-0.27,2.598,0.616
					l10.062,16.32c0.247-0.153,0.495-0.306,0.741-0.458l-10.06-16.318c-0.799-1.297-2.503-1.701-3.798-0.902
					c-1.296,0.799-1.701,2.502-0.901,3.798l10.07,16.335C74.428,299.143,74.674,298.989,74.923,298.833z"/>
			</g>
		</g>
	</g>
	<g>
		
			<rect x="524.538" y="154.252" transform="matrix(0.832 -0.5548 0.5548 0.832 -25.899 328.1547)" fill="#FFFFFF" width="8.662" height="105.175"/>
		<path fill="#5E4B8B" d="M521.261,186.991L503.59,160.49l-7.207,4.806l17.681,26.517
			C516.374,190.26,518.808,188.63,521.261,186.991z"/>
		
			<rect x="557.339" y="249.752" transform="matrix(0.8321 -0.5546 0.5546 0.8321 -46.176 353.1794)" fill="#5E4B8B" width="5.814" height="6.211"/>
		<path fill="#CDD0E0" d="M564.495,248.507l-40.399-60.589l0.416-0.278l-20.271-30.4l-11.107,7.406l2.053,3.078l-4.646,3.099
			l16.594,24.885l4.646-3.098l1.641,2.461l0.415-0.279l40.385,60.566L564.495,248.507z M499.633,165.945l3.308-2.205l15.071,22.604
			c-1.114,0.745-2.219,1.484-3.303,2.211L499.633,165.945z M521.029,189.967l38.353,57.518l-4.139,2.76l-38.347-57.51
			C518.25,191.826,519.627,190.903,521.029,189.967z M508.156,190.594l-12.503-18.75l1.578-1.053l12.503,18.75L508.156,190.594z"/>
	</g>
</g>
</svg>
