<?xml version="1.0" encoding="utf-8" ?>
<svg xmlns="http://www.w3.org/2000/svg" xmlns:xlink="http://www.w3.org/1999/xlink" width="24" height="24">
	<defs>
		<clipPath id="clip_0">
			<path d="M13.4707 4.73538L10.5293 4.73538C9.36194 4.73538 8.41222 5.6851 8.41222 6.85244L8.41222 7.67685L6.11706 7.67685C4.94972 7.67685 4 8.62654 4 9.79391L4 17.1476C4 18.315 4.94972 19.2647 6.11706 19.2647L17.8829 19.2647C19.0503 19.2647 20 18.315 20 17.1476L20 9.79391C20 8.62657 19.0503 7.67685 17.8829 7.67685L15.5877 7.67685L15.5877 6.85244C15.5878 5.6851 14.6381 4.73538 13.4707 4.73538ZM15.5877 8.96951L15.5877 7.67685L14.2951 7.67685L14.2951 6.85244C14.2951 6.39788 13.9253 6.02804 13.4707 6.02804L10.5292 6.02804C10.0747 6.02804 9.70484 6.39785 9.70484 6.85244L9.70484 7.67685L8.41222 7.67685L8.41222 8.96951L6.11706 8.96951C5.6625 8.96951 5.29266 9.33932 5.29266 9.79391L5.29266 17.1476C5.29266 17.6021 5.66247 17.972 6.11706 17.972L8.41222 17.972L8.41222 18.6183C8.41222 18.9753 8.70159 19.2646 9.05853 19.2646C9.41547 19.2646 9.70484 18.9753 9.70484 18.6183L9.70484 17.972L14.2951 17.972L14.2951 18.6183C14.2951 18.9753 14.5845 19.2646 14.9414 19.2646C15.2984 19.2646 15.5877 18.9753 15.5877 18.6183L15.5877 17.972L17.883 17.972C18.3375 17.972 18.7074 17.6022 18.7074 17.1476L18.7073 17.1476L18.7073 9.79391C18.7073 9.33935 18.3375 8.96951 17.8829 8.96951L15.5877 8.96951ZM14.2951 8.96951L14.2951 7.67685L9.70484 7.67685L9.70484 8.96951L8.41222 8.96951L8.41222 17.972L9.70484 17.972L9.70484 8.96951L14.2951 8.96951ZM14.2951 8.96951L14.2951 17.972L15.5877 17.972L15.5877 8.96951L14.2951 8.96951Z" clip-rule="evenodd"/>
		</clipPath>
	</defs>
	<g clip-path="url(#clip_0)">
		<path fill="rgb(0,24,255)" stroke="none" d="M0 0L24 0L24 24L0 24L0 0Z"/>
	</g>
</svg>
