<?xml version="1.0" encoding="utf-8" ?>
<svg xmlns="http://www.w3.org/2000/svg" xmlns:xlink="http://www.w3.org/1999/xlink" width="24" height="24">
	<defs>
		<clipPath id="clip_0">
			<path d="M6.11707 5.47078L17.8829 5.47078C19.0472 5.47078 19.995 6.41554 19.9999 7.57873C19.9982 7.45353 19.9603 7.32749 19.8831 7.21719C19.6784 6.92478 19.2755 6.85365 18.9829 7.05834L18.6517 7.2902C18.5321 6.98227 18.2326 6.7634 17.8829 6.7634L6.11707 6.7634C5.76739 6.7634 5.46785 6.98226 5.34823 7.29019L5.01697 7.05831C4.72457 6.85359 4.32157 6.92475 4.11688 7.21715C4.03965 7.32749 4.00168 7.45356 4.00005 7.57879C4.00493 6.41561 4.95273 5.47078 6.11707 5.47078ZM4.00004 7.59401L4.00004 7.58781L4.00005 7.57879L4 7.58471L4.00004 7.59401ZM5.29266 8.82911L4.27572 8.11725C4.09812 7.99292 4.00215 7.79544 4.00004 7.59401L4.00004 16.4122C4.00004 17.5795 4.94972 18.5292 6.11707 18.5292L17.8829 18.5292C19.0502 18.5292 19.9999 17.5795 19.9999 16.4122L19.9999 7.59413C19.9978 7.79553 19.9018 7.99297 19.7242 8.11728L18.7073 8.82913L18.7073 7.58781C18.7073 7.48293 18.6876 7.38256 18.6517 7.2902L11.9999 11.9464L5.34823 7.29019C5.31235 7.38255 5.29266 7.48293 5.29266 7.58781L5.29266 8.82911ZM5.29266 8.82911L11.6293 13.2648C11.7406 13.3427 11.8703 13.3816 12 13.3816C12.1296 13.3816 12.2593 13.3427 12.3706 13.2648L18.7073 8.82913L18.7073 16.4122C18.7073 16.8667 18.3374 17.2366 17.8829 17.2366L6.11707 17.2366C5.6625 17.2366 5.29266 16.8667 5.29266 16.4122L5.29266 8.82911Z" clip-rule="evenodd"/>
		</clipPath>
	</defs>
	<g clip-path="url(#clip_0)">
		<path fill="rgb(0,24,255)" stroke="none" d="M0 0L24 0L24 24L0 24L0 0Z"/>
	</g>
</svg>
