<?xml version="1.0" encoding="utf-8" ?>
<svg xmlns="http://www.w3.org/2000/svg" xmlns:xlink="http://www.w3.org/1999/xlink" width="24" height="24">
	<defs>
		<clipPath id="clip_0">
			<path d="M18.6801 6.26365L18.6811 6.26465C20.4405 8.02637 20.4395 10.8909 18.6785 12.6512L12.458 18.8717C12.3368 18.9929 12.1724 19.061 12.0009 19.061C11.8295 19.061 11.6651 18.9929 11.5438 18.8717L5.32319 12.651C4.46991 11.7977 4 10.6633 4 9.45656C4 8.24987 4.46991 7.1154 5.32316 6.26212C6.17644 5.40887 7.31087 4.93893 8.51759 4.93893C9.72428 4.93893 10.8588 5.40884 11.712 6.26212L12.0009 6.55097L12.2897 6.26212L12.2905 6.26134L12.2911 6.26075C14.0525 4.50018 16.9179 4.50078 18.6786 6.26215L18.6787 6.26225L18.6791 6.26265L18.6801 6.26365ZM17.7644 11.7369L12.0009 17.5004L6.23731 11.7368C5.62825 11.1277 5.29281 10.318 5.29281 9.45656C5.29281 8.59522 5.62825 7.78537 6.23731 7.17631C6.866 6.54762 7.69181 6.23331 8.51759 6.23331C9.34341 6.23331 10.1692 6.54762 10.7979 7.17631L11.5438 7.92222C11.7962 8.17465 12.2055 8.17465 12.4579 7.92222L13.2039 7.17631L13.204 7.17615L13.2051 7.17512C14.4619 5.91881 16.5063 5.91881 17.7631 7.17493C17.764 7.17584 17.7649 7.17675 17.7656 7.17747C19.0223 8.43478 19.0218 10.48 17.7644 11.7369Z" clip-rule="evenodd"/>
		</clipPath>
	</defs>
	<g clip-path="url(#clip_0)">
		<path fill="rgb(0,24,255)" stroke="none" d="M0 0L24 0L24 24L0 24L0 0Z"/>
	</g>
</svg>
