<?xml version="1.0" encoding="utf-8" ?>
<svg xmlns="http://www.w3.org/2000/svg" xmlns:xlink="http://www.w3.org/1999/xlink" width="24" height="24">
	<defs>
		<clipPath id="clip_0">
			<path d="M12.3968 4.13615L19.0151 9.28371C19.1725 9.40618 19.2647 9.59443 19.2647 9.79387L19.2647 17.8829C19.2646 19.0503 18.3149 20 17.1476 20L14.206 20C14.563 20 14.8524 19.7107 14.8524 19.3537L14.8524 18.7073L17.1476 18.7073C17.6021 18.7073 17.972 18.3375 17.972 17.8829L17.972 10.11L12 5.46509L6.02801 10.11L6.02801 17.8829C6.02801 18.3375 6.39782 18.7073 6.85241 18.7073L9.14757 18.7073L9.14757 19.3537C9.14757 19.7106 9.43694 20 9.79388 20C10.1508 20 10.4402 19.7106 10.4402 19.3537L10.4402 18.7073L13.5597 18.7073L13.5597 19.3537C13.5597 19.7107 13.8491 20 14.206 20L6.85241 20C5.68507 20 4.73535 19.0503 4.73535 17.8829L4.73535 9.79387C4.73535 9.59443 4.82745 9.40615 4.98488 9.28371L11.6032 4.13615C11.8366 3.95462 12.1634 3.95465 12.3968 4.13615ZM13.5597 18.7073L14.8524 18.7073L14.8524 12C14.8524 11.6431 14.5631 11.3537 14.2061 11.3537L9.79388 11.3537C9.43694 11.3537 9.14757 11.643 9.14757 12L9.14757 18.7073L10.4402 18.7073L10.4402 12.6463L13.5597 12.6463L13.5597 18.7073Z" clip-rule="evenodd"/>
		</clipPath>
	</defs>
	<g clip-path="url(#clip_0)">
		<path fill="rgb(0,24,255)" stroke="none" d="M0 0L24 0L24 24L0 24L0 0Z"/>
	</g>
</svg>
