<?xml version="1.0" encoding="utf-8" ?>
<svg xmlns="http://www.w3.org/2000/svg" xmlns:xlink="http://www.w3.org/1999/xlink" width="24" height="24">
	<defs>
		<clipPath id="clip_0">
			<path d="M4.64631 6.45122L19.3537 6.45122C19.7107 6.45122 20 6.74059 20 7.09753C20 7.45447 19.7107 7.74384 19.3537 7.74384L4.64631 7.74384C4.28937 7.74384 4 7.45447 4 7.09753C4 6.74059 4.28937 6.45122 4.64631 6.45122ZM4.64631 11.3537L19.3537 11.3537C19.7107 11.3537 20 11.6431 20 12C20 12.357 19.7107 12.6463 19.3537 12.6463L4.64631 12.6463C4.28937 12.6463 4 12.357 4 12C4 11.643 4.28937 11.3537 4.64631 11.3537ZM19.3537 16.2562L4.64631 16.2562C4.28937 16.2562 4 16.5455 4 16.9025C4 17.2594 4.28937 17.5488 4.64631 17.5488L19.3537 17.5488C19.7107 17.5488 20 17.2594 20 16.9025C20 16.5455 19.7107 16.2562 19.3537 16.2562Z" clip-rule="evenodd"/>
		</clipPath>
	</defs>
	<g clip-path="url(#clip_0)">
		<path fill="rgb(0,24,255)" stroke="none" d="M0 0L24 0L24 24L0 24L0 0Z"/>
	</g>
</svg>
