<svg xmlns="http://www.w3.org/2000/svg" width="1024" height="1024"><path fill="#817c70" d="M0 0h1024v1024H0z"/><g fill-opacity=".502"><path fill="#03020f" d="M178 994l580 92L402–62"/><path fill="#f2e2ba" d="M638 894L614 6l472 440"/><path fill="#fff8be" d="M-62 854h300L138–62"/><path fill="#76c2d9" d="M410–62L154 530–62 38"/><path fill="#62b4cf" d="M1086–2L498–30l484 508"/><path fill="#010412" d="M430–2l196 52–76 356"/><path fill="#eb7d3f" d="M598 594l488–32–308 520"/><path fill="#080a18" d="M198 418l32 304 116–448"/><path fill="#3f201d" d="M1086 1062l-344–52 248–148"/><path fill="#ebd29f" d="M630 658l-60–372 516 320"/></g></svg>