<?xml version="1.0" encoding="utf-8" ?>
<svg xmlns="http://www.w3.org/2000/svg" xmlns:xlink="http://www.w3.org/1999/xlink" width="24" height="24">
	<defs>
		<clipPath id="clip_0">
			<path d="M16.4122 4C14.8394 4 13.5598 5.27959 13.5598 6.85244C13.5598 7.14515 13.6041 7.42771 13.6864 7.69376L9.66103 10.0428C9.14064 9.49188 8.40367 9.14756 7.58779 9.14756C6.01498 9.14756 4.73535 10.4272 4.73535 12C4.73535 13.5728 6.01495 14.8524 7.58779 14.8524C8.4038 14.8524 9.14087 14.508 9.66128 13.9569L13.6874 16.303C13.6044 16.57 13.5598 16.8537 13.5598 17.1476C13.5598 18.7204 14.8394 20 16.4122 20C17.985 20 19.2647 18.7204 19.2647 17.1476C19.2646 15.5747 17.985 14.2952 16.4122 14.2952C15.5976 14.2952 14.8616 14.6384 14.3413 15.1879L10.3137 12.841C10.3959 12.575 10.4402 12.2926 10.4402 12C10.4402 11.7073 10.3959 11.4247 10.3136 11.1587L14.3389 8.80958C14.8593 9.36055 15.5963 9.70487 16.4122 9.70487C17.985 9.70487 19.2647 8.42528 19.2647 6.85244C19.2646 5.27959 17.985 4 16.4122 4ZM15.0811 7.66487C15.2393 7.96876 15.1325 8.34649 14.8333 8.52106L14.3389 8.80958C14.0428 8.49608 13.8169 8.11569 13.6864 7.69376L14.1818 7.40462C14.4806 7.23027 14.8617 7.32266 15.0486 7.60926C15.0591 7.62804 15.0699 7.64658 15.0811 7.66487ZM15.0811 7.66487C15.3555 8.11277 15.8495 8.41222 16.4122 8.41222C17.2723 8.41222 17.972 7.7125 17.972 6.85244C17.972 5.99238 17.2723 5.29266 16.4122 5.29266C15.5521 5.29266 14.8524 5.99238 14.8524 6.85244C14.8524 7.12688 14.9237 7.385 15.0486 7.60926C15.0545 7.61833 15.0603 7.6276 15.0658 7.63706C15.0712 7.64626 15.0763 7.65553 15.0811 7.66487ZM8.9515 11.2434C9.07441 11.4317 9.28098 11.536 9.49298 11.536C9.60357 11.536 9.71573 11.5076 9.81813 11.4478L10.3136 11.1587C10.1831 10.7367 9.95713 10.3563 9.66103 10.0428L9.1666 10.3314C8.86758 10.5059 8.7607 10.8835 8.91871 11.1874C8.64429 10.7396 8.15034 10.4402 7.58779 10.4402C6.72773 10.4402 6.02801 11.1399 6.02801 12C6.02801 12.8601 6.72773 13.5598 7.58779 13.5598C8.15051 13.5598 8.64458 13.2603 8.91895 12.8123C8.76049 13.1164 8.86758 13.4944 9.16701 13.6689L9.66128 13.9569C9.95734 13.6434 10.1833 13.2629 10.3137 12.841L9.81779 12.552C9.51893 12.3778 9.13807 12.4704 8.95127 12.757C9.07629 12.5327 9.14757 12.2745 9.14757 12C9.14757 11.7257 9.07638 11.4676 8.9515 11.2434L8.9515 11.2434ZM8.95127 12.757C8.94087 12.7757 8.93009 12.7941 8.91895 12.8123C8.92372 12.8031 8.92873 12.794 8.93398 12.785C8.93954 12.7755 8.9453 12.7661 8.95127 12.757ZM8.9515 11.2434C8.94552 11.2343 8.93974 11.2249 8.93416 11.2154C8.92876 11.2061 8.92361 11.1968 8.91871 11.1874C8.93002 11.2058 8.94095 11.2245 8.9515 11.2434L8.9515 11.2434ZM15.1099 16.29C15.2358 15.9946 15.125 15.6447 14.8404 15.4788L14.3413 15.1879C14.0448 15.5011 13.8184 15.8813 13.6874 16.303L14.1895 16.5956C14.2919 16.6553 14.4038 16.6836 14.5143 16.6836C14.7099 16.6836 14.9009 16.5947 15.0258 16.4332C14.915 16.6474 14.8524 16.8903 14.8524 17.1476C14.8524 18.0077 15.5521 18.7074 16.4122 18.7074C17.2723 18.7074 17.972 18.0077 17.972 17.1476C17.972 16.2875 17.2723 15.5878 16.4122 15.5878C15.8687 15.5878 15.3892 15.8673 15.1099 16.29ZM15.1099 16.29C15.0794 16.3361 15.0513 16.3839 15.0258 16.4332C15.043 16.4111 15.0589 16.3875 15.0734 16.3626C15.0872 16.3389 15.0994 16.3147 15.1099 16.29Z" clip-rule="evenodd"/>
		</clipPath>
	</defs>
	<g clip-path="url(#clip_0)">
		<path fill="rgb(0,24,255)" stroke="none" d="M0 0L24 0L24 24L0 24L0 0Z"/>
	</g>
</svg>
