<?xml version="1.0" encoding="utf-8" ?>
<svg xmlns="http://www.w3.org/2000/svg" xmlns:xlink="http://www.w3.org/1999/xlink" width="24" height="24">
	<defs>
		<clipPath id="clip_0">
			<path d="M14.7977 5.14428C15.3948 5.74137 15.7759 6.49847 15.8997 7.33372C16.2157 9.46462 14.7391 11.4553 12.6082 11.7713C12.414 11.8001 12.2198 11.8144 12.0269 11.8144C11.195 11.8144 10.3882 11.5493 9.70777 11.0447C8.86961 10.423 8.3237 9.51213 8.17064 8.47988C7.85467 6.34897 9.3312 4.35828 11.4621 4.04228C11.8424 3.98591 12.228 3.98591 12.6082 4.04228C13.4435 4.16616 14.2006 4.54719 14.7977 5.14428ZM12.4186 10.4927C11.7281 10.5951 11.0387 10.4224 10.4779 10.0064C9.91705 9.59047 9.5518 8.98097 9.44939 8.29028C9.23795 6.86441 10.226 5.53238 11.6518 5.32094C11.779 5.30209 11.9071 5.29266 12.0353 5.29266C12.1634 5.29266 12.2915 5.30209 12.4187 5.32094C13.566 5.49106 14.451 6.37616 14.6211 7.52338C14.8325 8.94922 13.8445 10.2813 12.4186 10.4927ZM4.01758 18.5386C4.01758 15.8908 7.52383 13.8167 11.9999 13.8167C16.476 13.8167 19.9823 15.8908 19.9823 18.5386L19.9823 19.3537C19.9823 19.7106 19.6929 20 19.336 20C18.979 20 18.6896 19.7107 18.6896 19.3537L18.6896 18.5386C18.6896 16.6797 15.6261 15.1093 11.9999 15.1093C8.3737 15.1093 5.3102 16.6797 5.3102 18.5386L5.3102 19.3537C5.3102 19.7107 5.02083 20 4.66389 20C4.30695 20 4.01758 19.7107 4.01758 19.3537L4.01758 18.5386Z" clip-rule="evenodd"/>
		</clipPath>
	</defs>
	<g clip-path="url(#clip_0)">
		<path fill="rgb(0,24,255)" stroke="none" d="M0 0L24 0L24 24L0 24L0 0Z"/>
	</g>
</svg>
