<?xml version="1.0" encoding="utf-8" ?>
<svg xmlns="http://www.w3.org/2000/svg" xmlns:xlink="http://www.w3.org/1999/xlink" width="42" height="28">
	<defs>
		<clipPath id="clip_0">
			<rect x="-344" y="-470" width="1328" height="1168" clip-rule="evenodd"/>
		</clipPath>
	</defs>
	<g clip-path="url(#clip_0)">
		<path fill="rgb(0,0,0)" stroke="none" transform="scale(2 2)" d="M10.2301 3.54021C10.2301 2.73069 10.0313 2.03755 9.63603 1.45558C8.97482 0.510042 7.85498 0.026156 6.27156 0L0 0L0 13.656L5.84774 13.656C6.5077 13.656 7.11796 13.5959 7.68222 13.4716C8.24649 13.3474 8.7337 13.1199 9.14758 12.7864C9.51423 12.496 9.82122 12.1364 10.0661 11.7113C10.4526 11.0705 10.644 10.3434 10.644 9.53517C10.644 8.75049 10.4762 8.0822 10.1394 7.53424C9.80009 6.98496 9.30169 6.58347 8.63924 6.32844C9.07549 6.09435 9.40485 5.8341 9.63106 5.5503C10.0313 5.04419 10.2301 4.37328 10.2301 3.54021ZM18.98 2.33704L13.4193 2.33704L13.4193 0.638206L18.98 0.638206L18.98 2.33704ZM2.58767 5.38552L2.58767 2.37235L5.41273 2.37235C6.03417 2.37235 6.54499 2.44428 6.94644 2.58552C7.41128 2.79085 7.64369 3.21065 7.64369 3.84755C7.64369 4.42036 7.46596 4.82055 7.11671 5.04549C6.76374 5.27174 6.30512 5.38552 5.74334 5.38552L2.58767 5.38552ZM20.147 5.25736C19.7133 4.5773 19.1614 4.07903 18.4903 3.76385C17.8216 3.44736 17.0684 3.29043 16.2332 3.29043C14.8275 3.29043 13.6841 3.75862 12.8016 4.68977C11.9217 5.62485 11.4817 6.96534 11.4817 8.71649C11.4817 10.5814 11.9677 11.9298 12.9471 12.7576C13.9202 13.5867 15.0488 14 16.3264 14C17.8726 14 19.0769 13.5096 19.9357 12.5287C20.4876 11.9088 20.7983 11.3007 20.8654 10.7017L18.3039 10.7017C18.1547 10.9986 17.9832 11.2301 17.7868 11.3975C17.4301 11.7061 16.964 11.8591 16.3948 11.8591C15.8554 11.8591 15.3943 11.7336 15.0102 11.4799C14.3788 11.0731 14.047 10.363 14.006 9.34946L20.9972 9.34946C21.0096 8.47716 20.981 7.80887 20.9139 7.34461C20.7983 6.55339 20.5435 5.85764 20.147 5.25736ZM14.7368 6.04465C14.3826 6.42915 14.1589 6.95096 14.0681 7.60747L18.3921 7.60747C18.3474 6.90649 18.1224 6.37553 17.7247 6.01196C17.322 5.6497 16.8261 5.46791 16.2345 5.46791C15.5919 5.46791 15.091 5.66016 14.7368 6.04465ZM2.58767 7.64409L2.58767 11.285L5.73836 11.285C6.30139 11.285 6.74012 11.2052 7.05333 11.0457C7.62257 10.7475 7.90594 10.1799 7.90594 9.34162C7.90594 8.62887 7.63251 8.14236 7.08067 7.87557C6.77119 7.72779 6.33867 7.64932 5.78311 7.64409L2.58767 7.64409Z" fill-rule="evenodd"/>
	</g>
</svg>
