<?xml version="1.0" encoding="utf-8" ?>
<svg xmlns="http://www.w3.org/2000/svg" xmlns:xlink="http://www.w3.org/1999/xlink" width="46" height="48">
	<defs>
		<clipPath id="clip_0">
			<rect x="-461" y="-580" width="1328" height="1168" clip-rule="evenodd"/>
		</clipPath>
	</defs>
	<g clip-path="url(#clip_0)">
		<path fill="rgb(0,0,0)" stroke="none" transform="scale(2 2)" d="M22.9659 8.07795C22.9734 8.10639 22.978 8.13515 22.9833 8.16457C22.9858 8.17943 22.9892 8.19398 22.991 8.20884C22.9966 8.25345 23 8.29837 23 8.34362L23 15.6561C23 15.7017 22.9966 15.7463 22.991 15.7909C22.9892 15.8061 22.9858 15.8206 22.9833 15.8355C22.978 15.8643 22.9734 15.8934 22.9659 15.9218C22.9613 15.9389 22.9557 15.9554 22.9504 15.9719C22.9427 15.9974 22.935 16.0227 22.925 16.0475C22.9182 16.0647 22.9105 16.0808 22.9031 16.0973C22.8925 16.1206 22.8817 16.1435 22.8693 16.1662C22.8603 16.1823 22.8507 16.1982 22.8411 16.2133C22.8278 16.235 22.8142 16.2557 22.7993 16.2764C22.7884 16.2919 22.7773 16.3064 22.7655 16.321C22.75 16.34 22.7333 16.3588 22.7163 16.3766C22.7033 16.3901 22.6903 16.404 22.6769 16.4166C22.659 16.4338 22.6401 16.4503 22.6209 16.4661C22.606 16.478 22.5915 16.49 22.576 16.5013C22.5707 16.5055 22.5654 16.51 22.5599 16.5139L12.0479 23.8264C11.8822 23.9421 11.6911 24 11.5 24C11.3086 24 11.1178 23.9421 10.9518 23.8264L0.44014 16.5139C0.434254 16.51 0.429299 16.5055 0.423723 16.5013C0.408236 16.49 0.393679 16.478 0.378811 16.4661C0.359917 16.4503 0.340713 16.4338 0.323058 16.4166C0.30943 16.404 0.29642 16.3901 0.283721 16.3766C0.266376 16.3588 0.24996 16.34 0.234163 16.321C0.222393 16.3064 0.211242 16.2919 0.200401 16.2764C0.185534 16.2557 0.171905 16.235 0.158587 16.2133C0.148985 16.1982 0.139383 16.1823 0.13071 16.1662C0.118011 16.1435 0.10717 16.1206 0.0969484 16.0973C0.0895147 16.0808 0.0814614 16.0647 0.0749569 16.0475C0.065355 16.0227 0.056992 15.9974 0.0492485 15.9719C0.043983 15.9554 0.0384077 15.9389 0.0340713 15.9218C0.0269473 15.8934 0.0216818 15.8643 0.0167259 15.8355C0.014248 15.8206 0.0108409 15.8061 0.0086727 15.7909C0.00309739 15.7463 0 15.7017 0 15.6561L0 8.34362C0 8.29837 0.00309739 8.25345 0.0086727 8.20884C0.0108409 8.19398 0.014248 8.17943 0.0167259 8.16457C0.0216818 8.13515 0.0269473 8.10639 0.0340713 8.07795C0.0384077 8.06082 0.043983 8.04466 0.0492485 8.02785C0.056992 8.00264 0.065355 7.97743 0.0749569 7.95254C0.0814614 7.93574 0.0895147 7.91893 0.0969484 7.90245C0.10717 7.87918 0.118011 7.85623 0.13071 7.83393C0.139383 7.81744 0.148985 7.80193 0.158587 7.78609C0.171905 7.76476 0.185534 7.74375 0.200401 7.72339C0.211242 7.70852 0.222393 7.69366 0.234163 7.67911C0.24996 7.65972 0.266376 7.6413 0.283721 7.6232C0.29642 7.6093 0.30943 7.59572 0.323058 7.5828C0.340713 7.56599 0.359917 7.54983 0.378811 7.53399C0.393679 7.52203 0.408236 7.50975 0.423723 7.49876C0.429299 7.49456 0.434254 7.48971 0.44014 7.48583L10.9518 0.173319C11.2835 -0.0577729 11.7162 -0.0577729 12.0479 0.173319L22.5599 7.48583C22.5654 7.48971 22.5707 7.49456 22.576 7.49876C22.5915 7.50975 22.606 7.52203 22.6209 7.53399C22.6401 7.54983 22.659 7.56599 22.6769 7.5828C22.6903 7.59572 22.7033 7.6093 22.7163 7.6232C22.7333 7.6413 22.75 7.65972 22.7655 7.67911C22.7773 7.69366 22.7884 7.70852 22.7993 7.72339C22.8142 7.74375 22.8278 7.76476 22.8411 7.78609C22.8507 7.80193 22.8603 7.81744 22.8693 7.83393C22.8817 7.85623 22.8925 7.87918 22.9031 7.90245C22.9105 7.91893 22.9182 7.93574 22.925 7.95254C22.935 7.97743 22.9427 8.00264 22.9504 8.02785C22.9557 8.04466 22.9613 8.06082 22.9659 8.07795ZM6.22669 10.7593L10.5116 7.76896L10.5116 2.95838L2.76783 8.34524L6.22669 10.7593ZM12.4881 7.76896L16.773 10.7593L20.2322 8.34524L12.4881 2.95838L12.4881 7.76896ZM11.5 14.4396L8.00428 12L11.5 9.56017L14.9957 12L11.5 14.4396ZM4.44909 12L1.97645 13.7256L1.97645 10.2741L4.44909 12ZM21.0236 10.2741L18.5506 12L21.0236 13.7256L21.0236 10.2741ZM10.5116 16.2311L6.22669 13.2408L2.76783 15.6548L10.5116 21.0417L10.5116 16.2311ZM12.4881 16.2311L16.773 13.2408L20.2322 15.6548L12.4881 21.0417L12.4881 16.2311Z" fill-rule="evenodd"/>
	</g>
</svg>
