<?xml version="1.0" encoding="utf-8" ?>
<svg xmlns="http://www.w3.org/2000/svg" xmlns:xlink="http://www.w3.org/1999/xlink" width="44" height="44">
	<defs>
		<clipPath id="clip_0">
			<rect x="-462" y="-462" width="1328" height="1168" clip-rule="evenodd"/>
		</clipPath>
	</defs>
	<g clip-path="url(#clip_0)">
		<path fill="rgb(0,0,0)" stroke="none" transform="scale(2 2)" d="M21.1346 6.71809C21.4153 7.38292 21.6326 8.07878 21.7762 8.78629C21.925 9.50803 22 10.2543 22 10.9994C22 11.7457 21.925 12.492 21.7762 13.2163C21.6326 13.9212 21.4153 14.6184 21.1346 15.2819C20.8604 15.9338 20.5176 16.5637 20.1204 17.1522C19.7272 17.7343 19.2757 18.2801 18.779 18.7781C18.2809 19.276 17.7338 19.7261 17.1503 20.1193C16.5631 20.5177 15.9344 20.8592 15.2824 21.1347C14.6175 21.4154 13.9216 21.6301 13.2153 21.7749C12.4909 21.925 11.7458 22 11.0006 22C10.2542 22 9.50914 21.925 8.78474 21.7749C8.07844 21.6301 7.38249 21.4154 6.71759 21.1347C6.06562 20.8592 5.43694 20.5177 4.84836 20.1193C4.26624 19.7261 3.71906 19.276 3.22103 18.7781C2.723 18.2801 2.27283 17.7343 1.87958 17.1522C1.48115 16.5637 1.13965 15.9338 0.864115 15.2819C0.583407 14.6184 0.367378 13.9212 0.222497 13.2163C0.0750279 12.492 0 11.7457 0 10.9994C0 10.2543 0.0750279 9.50803 0.222497 8.78629C0.367378 8.07878 0.583407 7.38292 0.864115 6.71809C1.13965 6.0662 1.48115 5.43759 1.87958 4.85037C2.27283 4.26833 2.723 3.71991 3.22103 3.22323C3.71906 2.72526 4.26624 2.27385 4.84836 1.88065C5.43694 1.48227 6.06562 1.1421 6.71759 0.865307C7.38249 0.585925 8.07844 0.367335 8.78474 0.225057C9.50914 0.0763125 10.2542 0 11.0006 0C11.7458 0 12.4909 0.0763125 13.2153 0.225057C13.9216 0.367335 14.6175 0.585925 15.2824 0.865307C15.9344 1.1421 16.5631 1.48227 17.1503 1.88065C17.7338 2.27385 18.2809 2.72526 18.779 3.22323C19.2757 3.71991 19.7272 4.26833 20.1204 4.85037C20.5176 5.43759 20.8604 6.0662 21.1346 6.71809ZM17.2047 3.95014C17.1814 3.98636 15.8438 6.02352 12.2968 7.35187C10.6915 4.40155 8.92703 2.05785 8.78603 1.8716C9.49621 1.69957 10.2374 1.60644 11.0006 1.60644C13.3783 1.60644 15.5489 2.49374 17.2047 3.95014ZM8.74852 1.88065C8.74852 1.88065 8.74981 1.88065 8.74981 1.87936C8.73946 1.88324 8.72911 1.88453 8.72006 1.88712C8.73687 1.88324 8.74852 1.88065 8.74852 1.88065ZM6.99183 2.50409C7.11601 2.67223 8.85459 5.02628 10.4806 7.9171C5.96989 9.11612 2.05421 9.06826 1.80584 9.06438C2.41642 6.15415 4.37102 3.7419 6.99183 2.50409ZM13.8491 10.5984C17.0766 10.1923 20.2562 10.8765 20.3921 10.9062C20.3701 8.67764 19.5719 6.63402 18.2551 5.03275C18.237 5.05862 16.7312 7.23676 13.0212 8.75137C13.2398 9.19889 13.4494 9.65418 13.646 10.1146C13.7146 10.2763 13.7819 10.438 13.8491 10.5984ZM1.6131 10.7032C1.61051 10.8015 1.60534 10.8998 1.60534 10.9994C1.60534 13.4129 2.51602 15.613 4.0127 17.2777C4.0127 17.2764 4.00882 17.2725 4.00882 17.2725C4.00882 17.2725 6.58047 12.7119 11.65 11.0731C11.7729 11.033 11.8958 10.9955 12.02 10.9606C11.7846 10.4264 11.5271 9.89088 11.2581 9.36445C6.42136 10.8118 1.77868 10.707 1.6131 10.7032ZM14.4209 12.082C15.6537 15.4669 16.1543 18.2245 16.25 18.791C18.3586 17.3669 19.8578 15.1086 20.2757 12.492C20.0816 12.4286 17.4543 11.5969 14.4209 12.082ZM11.0006 20.3936C8.72652 20.3936 6.64127 19.5852 5.01523 18.2413C5.13941 18.3409 5.22608 18.4056 5.22608 18.4056C5.22608 18.4056 7.02675 14.4787 12.5982 12.5372C12.6189 12.5295 12.6396 12.523 12.6616 12.5166C13.9837 15.9519 14.5283 18.8285 14.668 19.6498C13.5412 20.1284 12.3007 20.3936 11.0006 20.3936Z" fill-rule="evenodd"/>
	</g>
</svg>
