<?xml version="1.0" encoding="utf-8" ?>
<svg xmlns="http://www.w3.org/2000/svg" xmlns:xlink="http://www.w3.org/1999/xlink" width="44" height="44">
	<defs>
		<clipPath id="clip_0">
			<rect x="-1182" y="-102" width="1328" height="1168" clip-rule="evenodd"/>
		</clipPath>
	</defs>
	<g clip-path="url(#clip_0)">
		<path fill="rgb(0,0,0)" stroke="none" transform="scale(2 2)" d="M0 11C0 4.92525 4.92388 0 11 0C17.0748 0 22 4.92525 22 11C22 17.0748 17.0748 22 11 22C4.92388 22 0 17.0748 0 11ZM11 17.875C14.1639 17.875 16.9263 15.7327 17.7169 12.6665L17.7169 12.6679C17.7829 12.4163 17.7444 12.155 17.6138 11.9309C17.4818 11.7067 17.27 11.5472 17.0197 11.4826C16.9386 11.462 16.8575 11.451 16.7736 11.451C16.3322 11.451 15.9459 11.7508 15.8345 12.1811C15.2653 14.3894 13.2756 15.9307 11 15.9307C8.723 15.9307 6.73475 14.388 6.16412 12.1811C6.05412 11.7508 5.66638 11.451 5.225 11.451C5.1425 11.451 5.06137 11.462 4.98025 11.4826C4.46187 11.616 4.14975 12.1481 4.28175 12.6665C5.07375 15.7327 7.83475 17.875 11 17.875Z" fill-rule="evenodd"/>
	</g>
</svg>
