<?xml version="1.0" encoding="utf-8" ?>
<svg xmlns="http://www.w3.org/2000/svg" xmlns:xlink="http://www.w3.org/1999/xlink" width="48" height="48">
	<defs>
		<clipPath id="clip_0">
			<rect x="-340" y="-580" width="1328" height="1168" clip-rule="evenodd"/>
		</clipPath>
	</defs>
	<g clip-path="url(#clip_0)">
		<path fill="rgb(0,0,0)" stroke="none" transform="scale(2 2)" d="M0 12.3044C0 17.7398 3.43804 22.3519 8.20651 23.9789C8.8069 24.0922 9.02569 23.7123 9.02569 23.386C9.02569 23.0937 9.01538 22.3202 9.00948 21.2937C5.67163 22.0369 4.96737 19.644 4.96737 19.644C4.4215 18.2225 3.63473 17.8441 3.63473 17.8441C2.5452 17.0804 3.71724 17.0963 3.71724 17.0963C4.9217 17.1832 5.55523 18.3645 5.55523 18.3645C6.62635 20.2445 8.36416 19.7014 9.04779 19.3865C9.15682 18.5911 9.46696 18.0495 9.80951 17.7413C7.14497 17.4309 4.34341 16.3757 4.34341 11.6609C4.34341 10.3171 4.8112 9.21888 5.57881 8.35855C5.45578 8.04736 5.04399 6.79652 5.69668 5.10305C5.69668 5.10305 6.70444 4.77146 8.99623 6.36371C9.9539 6.09103 10.9801 5.95432 12.0004 5.94979C13.0199 5.95432 14.0461 6.09103 15.0052 6.36371C17.2956 4.77146 18.3019 5.10305 18.3019 5.10305C18.956 6.79652 18.5442 8.04736 18.4212 8.35855C19.1903 9.21888 19.6544 10.3171 19.6544 11.6609C19.6544 16.387 16.8491 17.4271 14.1758 17.7323C14.6067 18.1122 14.9898 18.863 14.9898 20.0104C14.9898 21.6555 14.9758 22.9826 14.9758 23.386C14.9758 23.7153 15.1916 24.0975 15.8009 23.9774C20.5649 22.3474 24 17.7391 24 12.3044C24 5.50867 18.6267 0 11.9989 0C5.37328 0 0 5.50867 0 12.3044Z"/>
	</g>
</svg>
