<?xml version="1.0" encoding="utf-8" ?>
<svg xmlns="http://www.w3.org/2000/svg" xmlns:xlink="http://www.w3.org/1999/xlink" width="54" height="34">
	<defs>
		<clipPath id="clip_0">
			<rect x="-336" y="-105" width="1314.72" height="1156.3201" clip-rule="evenodd"/>
		</clipPath>
	</defs>
	<g clip-path="url(#clip_0)">
		<path fill="rgb(0,0,0)" stroke="none" transform="matrix(1.98 0 0 1.98 0.600006 0.93)" d="M8.4851 6.81682L8.4851 10.1832C8.4851 10.1832 11.7449 10.1786 13.0722 10.1786C12.3533 12.3612 11.2358 13.5496 8.4851 13.5496C5.70131 13.5496 3.52856 11.2888 3.52856 8.49967C3.52856 5.71124 5.70131 3.45045 8.4851 3.45045C9.95677 3.45045 10.9074 3.96881 11.7793 4.69107C12.4771 3.99198 12.4188 3.89201 14.1944 2.21181C12.6869 0.837455 10.6837 0 8.4851 0C3.79933 0 0 3.80529 0 8.49967C0 13.194 3.79933 17 8.4851 17C15.4893 17 17.2013 10.8902 16.6339 6.81682L8.4851 6.81682M23.7744 6.98497L23.7744 4.03964L21.6745 4.03964L21.6745 6.98497L18.6498 6.98497L18.6498 9.08887L21.6745 9.08887L21.6745 12.1189L23.7744 12.1189L23.7744 9.08887L26.7145 9.08887L26.7145 6.98497L23.7744 6.98497"/>
	</g>
</svg>
