<?xml version="1.0" encoding="utf-8" ?>
<svg xmlns="http://www.w3.org/2000/svg" xmlns:xlink="http://www.w3.org/1999/xlink" width="44" height="44">
	<defs>
		<clipPath id="clip_0">
			<rect x="-462" y="-102" width="1328" height="1168" clip-rule="evenodd"/>
		</clipPath>
	</defs>
	<g clip-path="url(#clip_0)">
		<path fill="rgb(0,0,0)" stroke="none" transform="scale(2 2)" d="M11 0C8.01254 0 7.63798 0.0126627 6.46471 0.0661955C5.29385 0.119641 4.49426 0.305565 3.79454 0.577508C3.07119 0.85862 2.45775 1.23475 1.84623 1.84627C1.2347 2.45779 0.858576 3.07123 0.577464 3.79458C0.305521 4.49431 0.119597 5.29389 0.0661518 6.46476C0.0126191 7.63798 0 8.01258 0 11C0 13.9875 0.0126191 14.3621 0.0661518 15.5353C0.119597 16.7062 0.305521 17.5057 0.577464 18.2055C0.858576 18.9288 1.2347 19.5423 1.84623 20.1538C2.45775 20.7653 3.07119 21.1414 3.79454 21.4225C4.49426 21.6945 5.29385 21.8804 6.46471 21.9338C7.63798 21.9874 8.01254 22 11 22C13.9874 22 14.362 21.9874 15.5352 21.9338C16.7061 21.8804 17.5057 21.6945 18.2054 21.4225C18.9288 21.1414 19.5422 20.7653 20.1537 20.1538C20.7653 19.5423 21.1414 18.9288 21.4225 18.2055C21.6944 17.5057 21.8804 16.7062 21.9338 15.5353C21.9873 14.3621 22 13.9875 22 11C22 8.01258 21.9873 7.63798 21.9338 6.46476C21.8804 5.29389 21.6944 4.49431 21.4225 3.79458C21.1414 3.07123 20.7653 2.45779 20.1537 1.84627C19.5422 1.23475 18.9288 0.85862 18.2054 0.577508C17.5057 0.305565 16.7061 0.119641 15.5352 0.0661955C14.362 0.0126627 13.9874 0 11 0ZM11 1.98202C13.9371 1.98202 14.285 1.9932 15.4449 2.04612C16.5174 2.09507 17.0998 2.27427 17.4875 2.42487C18.0009 2.62442 18.3674 2.86282 18.7523 3.24773C19.1372 3.63263 19.3756 3.99911 19.5751 4.51252C19.7257 4.90017 19.9049 5.48261 19.9539 6.55506C20.0068 7.715 20.018 8.06288 20.018 11C20.018 13.9372 20.0068 14.285 19.9539 15.4449C19.9049 16.5174 19.7257 17.0999 19.5751 17.4875C19.3756 18.0009 19.1372 18.3674 18.7523 18.7523C18.3674 19.1372 18.0009 19.3756 17.4875 19.5751C17.0998 19.7258 16.5174 19.905 15.4449 19.9539C14.2852 20.0068 13.9373 20.018 11 20.018C8.06266 20.018 7.71479 20.0068 6.55506 19.9539C5.48257 19.905 4.90013 19.7258 4.51251 19.5751C3.99906 19.3756 3.63259 19.1372 3.24768 18.7523C2.86278 18.3674 2.62437 18.0009 2.42487 17.4875C2.27423 17.0999 2.09503 16.5174 2.04608 15.445C1.99316 14.285 1.98198 13.9372 1.98198 11C1.98198 8.06288 1.99316 7.715 2.04608 6.5551C2.09503 5.48261 2.27423 4.90017 2.42487 4.51252C2.62437 3.99911 2.86278 3.63263 3.24768 3.24773C3.63259 2.86282 3.99906 2.62442 4.51251 2.42487C4.90013 2.27427 5.48257 2.09507 6.55501 2.04612C7.71496 1.9932 8.06284 1.98202 11 1.98202ZM11.0218 5.36905C7.8999 5.36905 5.36905 7.8999 5.36905 11.0218C5.36905 14.1438 7.8999 16.6746 11.0218 16.6746C14.1438 16.6746 16.6746 14.1438 16.6746 11.0218C16.6746 7.8999 14.1438 5.36905 11.0218 5.36905ZM7.35247 11.0218C7.35247 13.0483 8.99532 14.6912 11.0218 14.6912C13.0483 14.6912 14.6912 13.0483 14.6912 11.0218C14.6912 8.99532 13.0483 7.35247 11.0218 7.35247C8.99532 7.35247 7.35247 8.99532 7.35247 11.0218ZM18.1587 5.10712C18.1587 5.83036 17.5725 6.41667 16.8492 6.41667C16.126 6.41667 15.5397 5.83036 15.5397 5.10712C15.5397 4.38388 16.126 3.79762 16.8492 3.79762C17.5725 3.79762 18.1587 4.38388 18.1587 5.10712" fill-rule="evenodd"/>
	</g>
</svg>
