<?xml version="1.0" encoding="utf-8" ?>
<svg xmlns="http://www.w3.org/2000/svg" xmlns:xlink="http://www.w3.org/1999/xlink" width="30" height="36">
	<defs>
		<clipPath id="clip_0">
			<rect x="-950" y="-586" width="1328" height="1168" clip-rule="evenodd"/>
		</clipPath>
	</defs>
	<g clip-path="url(#clip_0)">
		<path fill="rgb(0,0,0)" stroke="none" transform="matrix(2 0 0 2 0.0817261 0)" d="M5.73966 6.13427L8.97944 1.3516C9.59197 0.450533 10.3826 0 11.3521 0C12.1429 0 12.8271 0.285824 13.4058 0.857669C13.9838 1.42951 14.2729 2.11399 14.2729 2.9111C14.2729 3.50031 14.1201 4.02027 13.8139 4.47081L10.8927 8.7986L14.4643 13.4124C14.8215 13.8716 15 14.409 15 15.024C15 15.8387 14.7197 16.5379 14.1583 17.1228C13.597 17.7079 12.9164 18 12.1174 18C11.2414 18 10.5741 17.71 10.1147 17.1293L5.73966 11.5669L5.73966 14.6342C5.73966 15.5094 5.59098 16.1894 5.29323 16.6746C4.74904 17.5581 3.95821 18 2.92094 18C1.97698 18 1.24539 17.6751 0.726943 17.0254C0.242185 16.4275 0 15.6345 0 14.6472L0 3.27504C0 2.33926 0.246251 1.56838 0.73972 0.96182C1.25836 0.320738 1.97252 0 2.88241 0C3.7499 0 4.47259 0.320738 5.05085 0.96182C5.37396 1.31688 5.578 1.67648 5.66299 2.04042C5.7141 2.26588 5.73966 2.68584 5.73966 3.30108L5.73966 6.13427"/>
	</g>
</svg>
