<?xml version="1.0" encoding="utf-8" ?>
<svg xmlns="http://www.w3.org/2000/svg" xmlns:xlink="http://www.w3.org/1999/xlink" width="40" height="40">
	<defs>
		<clipPath id="clip_0">
			<rect x="-824" y="-104" width="1328" height="1168" clip-rule="evenodd"/>
		</clipPath>
	</defs>
	<g clip-path="url(#clip_0)">
		<path fill="rgb(0,0,0)" stroke="none" transform="scale(2 2)" d="M2.35419 4.71379L2.32596 4.71379C0.914864 4.71379 0 3.67525 0 2.3601C0 1.01806 0.94191 0 2.38123 0C3.81938 0 4.70367 1.01549 4.73189 2.35626C4.73189 3.6714 3.81938 4.71379 2.35419 4.71379ZM15.5797 20L20 20L20 12.4446C20 8.23793 17.8234 6.28249 15.0529 6.28249C12.8198 6.28249 11.4205 7.61301 11.1618 8.54527L11.1618 6.41311L6.78269 6.41311C6.83913 7.54514 6.78269 20 6.78269 20L11.1618 20L11.1618 12.6482C11.1618 12.5992 11.1616 12.5503 11.1613 12.5015C11.1595 12.1424 11.1577 11.795 11.2571 11.538C11.5581 10.7197 12.2048 9.87322 13.3678 9.87322C14.8883 9.87322 15.5797 11.1282 15.5797 12.9684L15.5797 20ZM0.504469 6.41311L4.40263 6.41311L4.40263 19.9987L0.504469 19.9987L0.504469 6.41311Z" fill-rule="evenodd"/>
	</g>
</svg>
