<?xml version="1.0" encoding="utf-8" ?>
<svg xmlns="http://www.w3.org/2000/svg" xmlns:xlink="http://www.w3.org/1999/xlink" width="44" height="38">
	<defs>
		<clipPath id="clip_0">
			<rect x="-578" y="-224" width="1321.36" height="1162.16" clip-rule="evenodd"/>
		</clipPath>
	</defs>
	<g clip-path="url(#clip_0)">
		<path fill="rgb(0,0,0)" stroke="none" transform="matrix(1.99 0 0 1.99 1.09003 0.869995)" d="M21.9327 3.40698C21.9285 3.40362 21.9252 3.3992 21.9199 3.39668L21.9123 3.39289L15.2758 0.0746269C15.231 0.0521337 15.1839 0.0369981 15.1362 0.0248055C15.0763 0.00945974 15.0151 0 14.9538 0C14.6996 0 14.4467 0.127601 14.3096 0.35001L10.489 6.55897L15.2838 14.3504L21.9531 3.51293C21.9752 3.47677 21.9647 3.4322 21.9327 3.40698M8.38449 5.14463L8.38449 12.2123L14.6666 15.3534L8.38449 5.14463M15.6105 15.8253L20.7816 18.4108C21.4545 18.7473 22 18.5117 22 17.8848L22 5.4423L15.6105 15.8253M7.29388 3.41707L0.812277 0.176161C0.695186 0.117721 0.583771 0.0899727 0.482867 0.0899727C0.199075 0.0899727 0 0.309649 0 0.678159L0 14.6723C0 15.0469 0.274122 15.4904 0.609208 15.658L6.31806 18.5123C6.46437 18.5855 6.60374 18.6201 6.72966 18.6201C7.08451 18.6201 7.3334 18.3456 7.3334 17.8848L7.3334 3.48077C7.3334 3.45386 7.31806 3.42905 7.29388 3.41707"/>
	</g>
</svg>
