<?xml version="1.0" encoding="utf-8" ?>
<svg xmlns="http://www.w3.org/2000/svg" xmlns:xlink="http://www.w3.org/1999/xlink" width="40" height="52">
	<defs>
		<clipPath id="clip_0">
			<rect x="-224" y="-462" width="1328" height="1168" clip-rule="evenodd"/>
		</clipPath>
	</defs>
	<g clip-path="url(#clip_0)">
		<path fill="rgb(0,0,0)" stroke="none" transform="scale(2 2)" d="M0 9.32918C0 11.8982 0.96694 14.1833 3.03942 15.035C3.3794 15.1745 3.6835 15.0399 3.78215 14.6608C3.85064 14.3991 4.01288 13.7378 4.08463 13.4621C4.18409 13.0879 4.14577 12.9566 3.87102 12.6301C3.27422 11.9203 2.89185 11.0022 2.89185 9.70087C2.89185 5.92735 5.69728 2.5485 10.1985 2.5485C14.1837 2.5485 16.3728 4.99936 16.3728 8.27155C16.3728 12.5776 14.4788 16.2124 11.6685 16.2124C10.1154 16.2124 8.95357 14.9201 9.32616 13.3357C9.77213 11.4436 10.6355 9.40139 10.6355 8.03606C10.6355 6.8135 9.98329 5.79443 8.63479 5.79443C7.04822 5.79443 5.77229 7.44611 5.77229 9.65903C5.77229 11.0695 6.24597 12.0221 6.24597 12.0221C6.24597 12.0221 4.62191 18.948 4.33737 20.1607C3.77074 22.5763 4.25258 25.5367 4.29334 25.8354C4.31699 26.0126 4.54282 26.0552 4.64555 25.9215C4.7923 25.7287 6.68134 23.3804 7.32543 21.0346C7.50642 20.3699 8.36819 16.9296 8.36819 16.9296C8.88427 17.9191 10.3909 18.7905 11.993 18.7905C16.7641 18.7905 20 14.4139 20 8.55544C20 4.12552 16.2717 0 10.6054 0C3.5555 0 0 5.08715 0 9.32918Z"/>
	</g>
</svg>
