<?xml version="1.0" encoding="utf-8" ?>
<svg xmlns="http://www.w3.org/2000/svg" xmlns:xlink="http://www.w3.org/1999/xlink" width="53" height="44">
	<defs>
		<clipPath id="clip_0">
			<rect x="-1047" y="-576" width="1314.72" height="1156.3201" clip-rule="evenodd"/>
		</clipPath>
	</defs>
	<g clip-path="url(#clip_0)">
		<path fill="rgb(0,0,0)" stroke="none" transform="matrix(1.98 0 0 1.98 0.416016 0.506714)" d="M16.8701 14.262C15.8982 14.262 15.0815 13.4809 15.0815 12.5179C15.0815 11.5549 15.8982 10.748 16.8701 10.748C17.842 10.748 18.6302 11.5549 18.6302 12.5179C18.6302 13.4809 17.842 14.262 16.8701 14.262M17.2829 17.6471C16.3776 18.5433 14.9816 18.979 13.015 18.979C13.0109 18.979 13.0061 18.9782 13.0012 18.9782C12.9971 18.9782 12.9922 18.979 12.9874 18.979C11.0208 18.979 9.62554 18.5433 8.72109 17.6471C8.44317 17.3718 8.44317 16.9265 8.72109 16.6519C8.9982 16.3773 9.44758 16.3773 9.7255 16.6519C10.3496 17.2703 11.4166 17.5714 12.9874 17.5714C12.9922 17.5714 12.9971 17.5723 13.0012 17.5723C13.0061 17.5723 13.0109 17.5714 13.015 17.5714C14.5858 17.5714 15.6536 17.2703 16.2785 16.6519C16.5564 16.3765 17.0058 16.3773 17.2829 16.6519C17.56 16.9273 17.56 17.3726 17.2829 17.6471M7.37376 12.5179C7.37376 11.5557 8.18882 10.748 9.15991 10.748C10.1318 10.748 10.9201 11.5557 10.9201 12.5179C10.9201 13.4809 10.1318 14.262 9.15991 14.262C8.18882 14.262 7.37376 13.4809 7.37376 12.5179M21.6678 1.40752C22.3261 1.40752 22.8616 1.93816 22.8616 2.58958C22.8616 3.2418 22.3261 3.77244 21.6678 3.77244C21.0096 3.77244 20.4741 3.2418 20.4741 2.58958C20.4741 1.93816 21.0096 1.40752 21.6678 1.40752M26.004 10.6023C26.004 8.89443 24.6022 7.50543 22.8786 7.50543C22.1327 7.50543 21.4476 7.76632 20.9097 8.20033C19.004 7.01344 16.5857 6.29841 13.9934 6.14703L15.3456 1.91078L19.0617 2.778C19.1593 4.11868 20.2904 5.17996 21.6678 5.17996C23.1086 5.17996 24.2812 4.01803 24.2812 2.58958C24.2812 1.16193 23.1086 0 21.6678 0C20.6602 0 19.7842 0.568483 19.3478 1.39866L15.0295 0.391335C14.6679 0.306788 14.3022 0.512923 14.1901 0.863998L12.5112 6.12207C9.71818 6.1897 7.09259 6.90715 5.04721 8.16329C4.51657 7.75182 3.8494 7.50543 3.12536 7.50543C1.40178 7.50543 0 8.89443 0 10.6023C0 11.6579 0.536332 12.5912 1.35302 13.15C1.31889 13.3956 1.30101 13.6428 1.30101 13.8932C1.30101 16.0278 2.55327 18.0135 4.82699 19.4838C7.00645 20.8938 9.89127 21.67 12.9492 21.67C16.0071 21.67 18.8919 20.8938 21.0714 19.4838C23.3451 18.0135 24.5973 16.0278 24.5973 13.8932C24.5973 13.6653 24.5819 13.4391 24.5535 13.2144C25.4246 12.6645 26.004 11.699 26.004 10.6023"/>
	</g>
</svg>
