<?xml version="1.0" encoding="utf-8" ?>
<svg xmlns="http://www.w3.org/2000/svg" xmlns:xlink="http://www.w3.org/1999/xlink" width="44" height="42">
	<defs>
		<clipPath id="clip_0">
			<rect x="-937" y="-700" width="1321.36" height="1162.16" clip-rule="evenodd"/>
		</clipPath>
	</defs>
	<g clip-path="url(#clip_0)">
		<path fill="rgb(0,0,0)" stroke="none" transform="matrix(1.99 0 0 1.99 0.289978 0.47998)" d="M10.7786 0.00397939C10.2902 0.00397939 9.31302 0.072766 8.26339 0.534716C7.66326 0.798663 7.12345 1.15556 6.65901 1.59551C6.10529 2.11971 5.6542 2.76602 5.3185 3.51676C4.82686 4.61598 4.94357 6.46747 5.0373 7.95537C5.04768 8.11704 5.05823 8.28344 5.06786 8.44557C4.99574 8.4786 4.8788 8.51345 4.70645 8.51345C4.42913 8.51345 4.09936 8.42505 3.72655 8.25086C3.61685 8.19993 3.49165 8.17418 3.35351 8.17418C3.13155 8.17418 2.89756 8.23932 2.69459 8.35831C2.43923 8.50782 2.27423 8.71912 2.22942 8.9534C2.19988 9.10837 2.20131 9.41466 2.54254 9.72528C2.73023 9.89628 3.00595 10.054 3.36183 10.1942C3.45522 10.2309 3.56605 10.2659 3.68345 10.303C4.09081 10.4321 4.70736 10.6272 4.86814 11.0045C4.94962 11.1958 4.91455 11.4475 4.76421 11.7518C4.71517 11.8642 4.36465 12.6559 3.64565 13.4908C3.23708 13.9656 2.78707 14.3624 2.30884 14.6705C1.72513 15.0467 1.09352 15.2926 0.431762 15.4013C0.171892 15.4438 -0.0136893 15.6747 0.000792257 15.9371C0.00523936 16.0127 0.0230278 16.088 0.0538724 16.161C0.159691 16.4074 0.403312 16.6155 0.799389 16.7992C1.28338 17.0233 2.00723 17.2119 2.95064 17.3594C2.99831 17.4498 3.0478 17.677 3.08206 17.8325C3.11792 17.9978 3.15532 18.1678 3.20863 18.3483C3.26616 18.5439 3.41537 18.7777 3.79867 18.7777C3.94394 18.7777 4.11099 18.7451 4.30444 18.7077C4.58775 18.6522 4.97516 18.5766 5.45869 18.5766C5.72677 18.5766 6.0046 18.6002 6.28426 18.6465C6.82333 18.736 7.28805 19.0633 7.82575 19.4424C8.61277 19.9971 9.50362 20.625 10.8647 20.625C10.9018 20.625 10.9391 20.6238 10.9758 20.6212C11.0208 20.6234 11.0766 20.625 11.1354 20.625C12.4969 20.625 13.3875 19.9969 14.1737 19.4426C14.7128 19.0629 15.177 18.736 15.7159 18.6465C15.9954 18.6002 16.2732 18.5766 16.5414 18.5766C17.0033 18.5766 17.3691 18.6354 17.6956 18.6989C17.9087 18.7407 18.0744 18.7608 18.2015 18.7608C18.5071 18.7611 18.7131 18.6076 18.7917 18.3391C18.8439 18.1624 18.8812 17.9964 18.918 17.8283C18.9501 17.6825 19.0013 17.4489 19.0489 17.3575C19.993 17.2097 20.7165 17.0216 21.2006 16.7975C21.5957 16.6147 21.8391 16.4067 21.9448 16.1627C21.9765 16.0895 21.995 16.0137 21.9992 15.9365C22.014 15.6746 21.8282 15.4433 21.5681 15.4007C18.6271 14.9174 17.3021 11.9042 17.2473 11.7762C17.0853 11.4469 17.0506 11.1955 17.1321 11.0039C17.2925 10.6269 17.9087 10.4319 18.3163 10.3028C18.4344 10.2657 18.5456 10.2305 18.6382 10.194C19.0396 10.036 19.3264 9.86451 19.5156 9.6698C19.7416 9.43769 19.7857 9.2153 19.7829 9.06977C19.776 8.71765 19.5061 8.40475 19.0766 8.25155C18.9316 8.19174 18.7662 8.16019 18.5978 8.16019C18.4831 8.16019 18.3133 8.17588 18.1526 8.25069C17.8085 8.41123 17.5003 8.49901 17.2357 8.51151C17.095 8.50441 16.9963 8.47399 16.9324 8.44495C16.9404 8.3076 16.9493 8.1665 16.9585 8.01938L16.9623 7.95639C17.0566 6.46753 17.1737 4.61461 16.6818 3.5146C16.3447 2.76118 15.892 2.11323 15.336 1.58789C14.8698 1.14766 14.3281 0.790818 13.7259 0.527042C12.6777 0.0685023 11.7006 0 11.2115 0C11.0213 0.00159176 10.7986 0.00375199 10.7786 0.00397939Z"/>
	</g>
</svg>
