<?xml version="1.0" encoding="utf-8" ?>
<svg xmlns="http://www.w3.org/2000/svg" xmlns:xlink="http://www.w3.org/1999/xlink" width="40" height="52">
	<defs>
		<clipPath id="clip_0">
			<rect x="-224" y="-578" width="1328" height="1168" clip-rule="evenodd"/>
		</clipPath>
	</defs>
	<g clip-path="url(#clip_0)">
		<path fill="rgb(0,0,0)" stroke="none" transform="scale(2 2)" d="M18.279 0L16.1593 0.377178L17.8808 10.4899L20 10.1128L18.279 0ZM15.7327 11.8539L10.057 3.38053L11.8351 2.13289L17.4968 10.6206L15.7327 11.8539ZM6.71421 6.93523L15.3771 12.1586L14.2817 14.0446L5.61898 8.8213L6.71421 6.93523ZM14.1111 14.654L4.3956 11.9988L3.84073 14.1171L13.5564 16.7725L14.1111 14.654ZM1.72115 24.2735L14.9216 24.2735L14.9216 15.3071L16.6289 15.3071L16.6289 25.4775L16.6146 25.9854L16.6146 26L0.512261 26L0.0143168 25.9854L0 25.9854L0 15.3071L1.72115 15.3071L1.72115 24.2735ZM13.4426 17.5268L3.42834 16.5837L3.22913 18.7602L13.2577 19.7032L13.4426 17.5268ZM13.2008 20.3272L3.14375 20.3418L3.14375 22.5322L13.2008 22.5181L13.2008 20.3272Z" fill-rule="evenodd"/>
	</g>
</svg>
