<?xml version="1.0" encoding="utf-8" ?>
<svg xmlns="http://www.w3.org/2000/svg" xmlns:xlink="http://www.w3.org/1999/xlink" width="44" height="44">
	<defs>
		<clipPath id="clip_0">
			<rect x="-446" y="-333" width="1294.8" height="1138.8" clip-rule="evenodd"/>
		</clipPath>
	</defs>
	<g clip-path="url(#clip_0)">
		<path fill="rgb(0,0,0)" stroke="none" transform="matrix(1.95 0 0 1.95 0.550018 0.450439)" d="M21.9887 0.920741L18.8459 19.7775C18.8049 20.0149 18.674 20.199 18.453 20.33C18.3384 20.3954 18.2116 20.4282 18.0724 20.4282C17.9824 20.4282 17.8842 20.4077 17.7778 20.3668L12.2165 18.0956L9.24561 21.7172C9.09829 21.9055 8.89777 21.9996 8.64406 21.9996C8.53766 21.9996 8.44763 21.9832 8.37397 21.9505C8.21847 21.8932 8.09366 21.797 7.99954 21.662C7.90542 21.5269 7.85836 21.3776 7.85836 21.2139L7.85836 16.9294L18.4653 3.9285L5.34166 15.2843L0.492426 13.2955C0.189603 13.1809 0.0259173 12.9559 0.00136409 12.6203C-0.0150047 12.2929 0.115944 12.0515 0.394214 11.896L20.8224 0.110489C20.9452 0.0368293 21.0761 0 21.2152 0C21.3789 0 21.5263 0.0450136 21.6572 0.135042C21.9273 0.331468 22.0378 0.593365 21.9887 0.920741Z"/>
	</g>
</svg>
