<?xml version="1.0" encoding="utf-8" ?>
<svg xmlns="http://www.w3.org/2000/svg" xmlns:xlink="http://www.w3.org/1999/xlink" width="42" height="36">
	<defs>
		<clipPath id="clip_0">
			<rect x="-224" y="-108" width="1328" height="1168" clip-rule="evenodd"/>
		</clipPath>
	</defs>
	<g clip-path="url(#clip_0)">
		<path fill="rgb(0,0,0)" stroke="none" transform="scale(2 2)" d="M18.5261 2.84573C19.4161 2.28413 20.099 1.39362 20.4194 0.332804C19.5862 0.85411 18.6654 1.23111 17.683 1.43522C16.8991 0.551206 15.7787 0 14.5387 0C12.1597 0 10.2319 2.03452 10.2319 4.54355C10.2319 4.89975 10.2677 5.24686 10.3416 5.57836C6.76211 5.38856 3.58813 3.58154 1.46188 0.830709C1.09086 1.50412 0.878852 2.28413 0.878852 3.11613C0.878852 4.69175 1.63937 6.08277 2.79556 6.89918C2.08928 6.87578 1.4249 6.66907 0.843106 6.33107L0.843106 6.38697C0.843106 8.5892 2.32717 10.4261 4.30058 10.8421C3.93819 10.9487 3.55855 11.002 3.16411 11.002C2.88678 11.002 2.6156 10.9747 2.35429 10.9214C2.90157 12.7258 4.49287 14.0415 6.37876 14.0766C4.90333 15.296 3.04578 16.0214 1.028 16.0214C0.680402 16.0214 0.336503 16.0019 0 15.959C1.90685 17.2473 4.17116 18 6.60433 18C14.53 18 18.8614 11.0761 18.8614 5.07136C18.8614 4.87375 18.859 4.67745 18.8503 4.48375C19.6922 3.84284 20.4244 3.04203 21 2.13072C20.2272 2.49213 19.3964 2.73653 18.5261 2.84573Z"/>
	</g>
</svg>
