<?xml version="1.0" encoding="iso-8859-1"?>
<!-- Generator: Adobe Illustrator 22.1.0, SVG Export Plug-In . SVG Version: 6.00 Build 0)  -->
<svg xmlns="http://www.w3.org/2000/svg" xmlns:xlink="http://www.w3.org/1999/xlink" version="1.1" id="Layer_1" x="0px" y="0px" viewBox="0 0 48 48" style="enable-background:new 0 0 48 48;" xml:space="preserve" width="48px" height="48px">
<path style="fill:#78909C;" d="M19,39c-0.5,0-1-0.1-1-1.1V34c0-0.6-0.4-1-1-1s-1,0.4-1,1v3.9c0,1.9,1.2,3.1,3,3.1V39z"/>
<path style="fill:#78909C;" d="M14,39c-0.5,0-1-0.1-1-1.1V34c0-0.6-0.4-1-1-1s-1,0.4-1,1v3.9c0,1.9,1.2,3.1,3,3.1V39z"/>
<rect x="16" y="32" style="fill:#546E7A;" width="2" height="2"/>
<rect x="11" y="32" style="fill:#546E7A;" width="2" height="2"/>
<path style="fill:#78909C;" d="M33,39c-0.5,0-1-0.1-1-1.1V34c0-0.6-0.4-1-1-1s-1,0.4-1,1v3.9c0,1.9,1.2,3.1,3,3.1V39z"/>
<path style="fill:#78909C;" d="M28,39c-0.5,0-1-0.1-1-1.1V34c0-0.6-0.4-1-1-1s-1,0.4-1,1v3.9c0,1.9,1.2,3.1,3,3.1V39z"/>
<rect x="30" y="32" style="fill:#546E7A;" width="2" height="2"/>
<rect x="25" y="32" style="fill:#546E7A;" width="2" height="2"/>
<polygon style="fill:#84FFFF;" points="45,18 31,7 28.456,14.556 "/>
<polygon style="fill:#00E5FF;" points="31,7 6,14 4,20 28.456,14.556 "/>
<polygon style="fill:#00B0FF;" points="45,18 28.456,14.556 29.931,25.456 "/>
<polygon style="fill:#0091EA;" points="4,20 28.456,14.556 29.931,25.456 5,27 "/>
<polygon style="fill:#1976D2;" points="45,18 29.931,25.456 35,32 "/>
<polygon style="fill:#0D47A1;" points="5,27 29.931,25.456 35,32 9,32 "/>
</svg>
